<svg width="26" height="16" viewBox="0 0 26 16" fill="none" xmlns="http://www.w3.org/2000/svg">
<path d="M14.1351 7.70908C14.1351 7.12727 14.2813 6.54544 14.2813 6.10908L11.9421 4.36365C11.5035 5.38183 11.2111 6.69092 11.2111 8.00001C11.2111 9.45456 11.5035 10.7636 12.0883 11.7818L14.4275 10.0364C14.2813 9.30909 14.1351 8.58181 14.1351 7.70908Z" fill="#ACB8C5"/>
<path d="M19.2521 2.4727C16.7667 2.4727 15.0123 3.92725 14.2813 6.10906L11.9421 4.36364C13.2579 1.74545 15.8895 0 19.2521 0C21.445 0 23.4918 0.872718 24.9538 2.76363L22.7608 4.36364C21.7375 3.05455 20.4217 2.4727 19.2521 2.4727Z" fill="#C1CCD3"/>
<path d="M19.3982 13.5273C16.9129 13.5273 15.1585 12.0727 14.4275 9.8909L12.0883 11.6364C13.4041 14.2546 16.0357 16 19.3982 16C21.5912 16 23.638 15.1272 25.1 13.2363L22.907 11.6364C21.8836 12.9455 20.5678 13.5273 19.3982 13.5273Z" fill="#0076BE"/>
<path d="M0.0999756 4.79999V11.3454H2.73153V9.01816H9.60288V6.69088H2.73153V4.79999H0.0999756Z" fill="#ACB8C5"/>
<path d="M2.73153 2.90909H10.0415V0.43634H0.0999756V4.79998H2.73153V2.90909Z" fill="#0076BE"/>
<path d="M2.73153 2.90909H10.0415V0.43634H0.0999756V4.79998H2.73153V2.90909Z" fill="#C1CCD3"/>
<path d="M0.0999756 15.5636H10.4801V13.0909H2.73153V11.3454H0.0999756V15.5636Z" fill="#0076BE"/>
<path d="M0.0999756 15.5636H10.4801V13.0909H2.73153V11.3454H0.0999756V15.5636Z" fill="#0076BE"/>
</svg>
