<?xml version="1.0" encoding="utf-8"?>
<!-- Generator: Adobe Illustrator 22.1.0, SVG Export Plug-In . SVG Version: 6.00 Build 0)  -->
<svg version="1.1" id="Calque_1" xmlns="http://www.w3.org/2000/svg" xmlns:xlink="http://www.w3.org/1999/xlink" x="0px" y="0px"
	 viewBox="0 0 169.8 16.3" style="enable-background:new 0 0 169.8 16.3;" xml:space="preserve">
<style type="text/css">
	.st0{fill:#C1CCD3;}
	.st1{fill:#0076BE;}
	.st2{fill:#ACB8C5;}
	.st3{fill:#0082A5;}
	.st4{fill:#2F3943;}
</style>
<g>
	<path class="st4" d="M25.7,4.1h1.1v7.4h3.8v1.1h-5V4.1z"/>
	<path class="st4" d="M31.3,8.3c0-2.5,1.8-4.5,4.4-4.5c2.6,0,4.4,1.9,4.4,4.5s-1.8,4.5-4.4,4.5C33.1,12.8,31.3,10.8,31.3,8.3z
		 M38.8,8.3c0-1.9-1.2-3.4-3.2-3.4c-1.9,0-3.2,1.5-3.2,3.4c0,1.9,1.2,3.4,3.2,3.4C37.6,11.7,38.8,10.2,38.8,8.3z"/>
	<path class="st4" d="M48.8,7.8V12c-0.8,0.5-2.2,0.8-3.2,0.8c-2.8,0-4.5-2.1-4.5-4.5c0-2.5,1.8-4.5,4.4-4.5c1.5,0,2.5,0.4,3.1,1.1
		l-0.8,0.9c-0.7-0.7-1.5-0.9-2.3-0.9c-1.9,0-3.2,1.5-3.2,3.4c0,1.9,1.4,3.4,3.3,3.4c0.8,0,1.5-0.2,2.1-0.4V8.9h-1.9V7.8H48.8z"/>
	<path class="st4" d="M50.8,4.1H52v8.5h-1.1V4.1z"/>
	<path class="st4" d="M54.1,4.1H57c1.5,0,2.5,0.7,2.5,2.1c0,1-0.6,1.6-1.4,1.9v0c1,0.1,1.8,1,1.8,2.1c0,1.5-1.3,2.4-2.9,2.4h-2.9
		V4.1z M55.3,7.6h1.5c0.9,0,1.6-0.3,1.6-1.3c0-0.7-0.4-1.2-1.3-1.2h-1.8V7.6z M55.3,11.5h1.7c0.7,0,1.8-0.2,1.8-1.4
		c0-1-0.7-1.5-1.8-1.5h-1.7V11.5z"/>
	<path class="st4" d="M61.6,4.1H67v1.1h-4.3v2.5h4v1.1h-4v2.7h4.5v1.1h-5.6V4.1z"/>
	<path class="st4" d="M74.6,5.9c-0.5-0.6-1.3-1-2-1c-1.9,0-3.1,1.5-3.1,3.5c0,1.8,1.2,3.3,3.1,3.3c1,0,1.7-0.4,2.2-1.1l1,0.7
		c-0.2,0.3-1.3,1.5-3.2,1.5c-2.7,0-4.3-2.3-4.3-4.4c0-2.6,1.8-4.5,4.4-4.5c1.1,0,2.3,0.4,2.9,1.3L74.6,5.9z"/>
	<path class="st1" d="M78,4.1h5.5v1.4h-4.1v2.1h3.8v1.4h-3.8v2.3h4.3v1.4H78V4.1z"/>
	<path class="st1" d="M89.3,5.9c-0.3-0.5-0.9-0.7-1.5-0.7c-0.7,0-1.4,0.3-1.4,1.1c0,1.7,4,0.7,4,3.8c0,1.8-1.4,2.7-3.1,2.7
		c-1,0-2.1-0.3-2.7-1.2l1.1-1.1c0.4,0.6,1,0.9,1.7,0.9c0.7,0,1.5-0.4,1.5-1.2c0-1.9-4-0.8-4-3.8c0-1.8,1.5-2.6,3.1-2.6
		c0.9,0,1.8,0.3,2.4,0.9L89.3,5.9z"/>
	<path class="st1" d="M92,4.1h2.8c1.6,0,3.1,0.6,3.1,2.5c0,2.1-1.6,2.5-3.3,2.5h-1.1v3.5H92V4.1z M94.4,7.7c0.9,0,2,0,2-1.2
		c0-1-1-1.2-1.8-1.2h-1.1v2.4H94.4z"/>
	<path class="st1" d="M101.1,4.1h1.3l3.6,8.5h-1.7l-0.8-1.9h-3.6l-0.8,1.9h-1.7L101.1,4.1z M103,9.3l-1.3-3.5l-1.3,3.5H103z"/>
	<path class="st1" d="M112.6,6c-0.6-0.7-1.2-0.8-1.8-0.8c-1.7,0-2.9,1.3-2.9,3c0,1.8,1.1,3.2,2.9,3.2c0.7,0,1.3-0.3,1.9-1l1.2,0.9
		c-0.8,1.1-1.9,1.5-3.1,1.5c-2.6,0-4.4-1.8-4.4-4.4c0-2.7,1.8-4.5,4.4-4.5c1.1,0,2.1,0.4,2.9,1.3L112.6,6z"/>
	<path class="st1" d="M115,4.1h5.5v1.4h-4.1v2.1h3.8v1.4h-3.8v2.3h4.3v1.4H115V4.1z"/>
	<path class="st1" d="M129,6c-0.6-0.7-1.2-0.8-1.8-0.8c-1.7,0-2.9,1.3-2.9,3c0,1.8,1.1,3.2,2.9,3.2c0.7,0,1.3-0.3,1.9-1l1.2,0.9
		c-0.8,1.1-1.9,1.5-3.1,1.5c-2.6,0-4.4-1.8-4.4-4.4c0-2.7,1.8-4.5,4.4-4.5c1.1,0,2.1,0.4,2.9,1.3L129,6z"/>
	<path class="st1" d="M131.3,4.1h1.5v7.1h3.6v1.4h-5V4.1z"/>
	<path class="st1" d="M137.4,4.1h1.5v8.5h-1.5V4.1z"/>
	<path class="st1" d="M140.7,4.1h5.5v1.4h-4.1v2.1h3.8v1.4h-3.8v2.3h4.3v1.4h-5.8V4.1z"/>
	<path class="st1" d="M148,4.1h2l4.1,6.3h0V4.1h1.5v8.5h-1.9L149.5,6h0v6.5H148V4.1z"/>
	<path class="st1" d="M159.1,5.4h-2.6V4.1h6.6v1.4h-2.6v7.1h-1.5V5.4z"/>
</g>
<g>
	<path class="st2" d="M13.7,7.8c0-0.4,0.1-0.8,0.1-1.1l-1.6-1.2c-0.3,0.7-0.5,1.6-0.5,2.5c0,1,0.2,1.9,0.6,2.6l1.6-1.2
		C13.8,8.9,13.7,8.4,13.7,7.8z"/>
	<path class="st0" d="M17.2,4.2c-1.7,0-2.9,1-3.4,2.5l-1.6-1.2c0.9-1.8,2.7-3,5-3c1.5,0,2.9,0.6,3.9,1.9l-1.5,1.1
		C18.9,4.6,18,4.2,17.2,4.2z"/>
	<path class="st1" d="M17.3,11.8c-1.7,0-2.9-1-3.4-2.5l-1.6,1.2c0.9,1.8,2.7,3,5,3c1.5,0,2.9-0.6,3.9-1.9l-1.5-1.1
		C19,11.4,18.1,11.8,17.3,11.8z"/>
</g>
<g>
	<polygon class="st2" points="4.1,5.8 4.1,10.3 5.9,10.3 5.9,8.7 10.6,8.7 10.6,7.1 5.9,7.1 5.9,5.8 	"/>
	<polygon class="st1" points="5.9,4.5 10.9,4.5 10.9,2.8 4.1,2.8 4.1,5.8 5.9,5.8 	"/>
	<polygon class="st0" points="5.9,4.5 10.9,4.5 10.9,2.8 4.1,2.8 4.1,5.8 5.9,5.8 	"/>
	<polygon class="st1" points="4.1,13.2 11.2,13.2 11.2,11.5 5.9,11.5 5.9,10.3 4.1,10.3 	"/>
	<polygon class="st1" points="4.1,13.2 11.2,13.2 11.2,11.5 5.9,11.5 5.9,10.3 4.1,10.3 	"/>
</g>
</svg>
