<?xml version="1.0" encoding="utf-8"?>
<!-- Generator: Adobe Illustrator 21.1.0, SVG Export Plug-In . SVG Version: 6.00 Build 0)  -->
<svg version="1.1" id="Calque_1" xmlns="http://www.w3.org/2000/svg" xmlns:xlink="http://www.w3.org/1999/xlink" x="0px" y="0px"
	 width="19px" height="18px" viewBox="0 0 19 18" style="enable-background:new 0 0 19 18;" xml:space="preserve">
<style type="text/css">
	.st0{fill:#FFFFFF;}
</style>
<path class="st0" d="M9.5,12.6l2.3,4.1H7.3L9.5,12.6z M4.8,12.4H9l-2.1,3.7L4.8,12.4z M10.1,12.4h0.6h1.4h1.4h0.7l-2.1,3.7
	L10.1,12.4z M3.9,12.2l2.5,4.5h-5L3.9,12.2z M15.2,12.2l2.6,4.5h-5.2L15.2,12.2z M7.5,7.4h4.1L9.6,11L7.5,7.4z M6.7,7.3l2.5,4.4h-5
	L6.7,7.3z M12.5,7.3l2.5,4.4h-5L12.5,7.3z M9.5,2.2L12,6.6H7L9.5,2.2z M9.5,0.8L0.3,17.4h11.9h6.7L9.5,0.8z"/>
</svg>
