<?xml version="1.0" encoding="utf-8"?>
<!-- Generator: Adobe Illustrator 22.0.1, SVG Export Plug-In . SVG Version: 6.00 Build 0)  -->
<svg version="1.1" id="Calque_1" xmlns="http://www.w3.org/2000/svg" xmlns:xlink="http://www.w3.org/1999/xlink" x="0px" y="0px"
	 viewBox="0 0 155 42" style="enable-background:new 0 0 155 42;" xml:space="preserve">
<style type="text/css">
	.st0{fill:#C0CBD1;}
	.st1{fill:#FFFFFF;}
	.st2{fill:#231F20;}
	.st3{fill:#0082A5;}
</style>
<g>
	<g>
		<path class="st0" d="M4,15.4h1.5V25h5v1.4H4V15.4z"/>
		<path class="st0" d="M11.4,20.9c0-3.3,2.4-5.8,5.7-5.8s5.7,2.5,5.7,5.8s-2.4,5.8-5.7,5.8C13.7,26.7,11.4,24.2,11.4,20.9z
			 M21.2,20.9c0-2.4-1.6-4.4-4.1-4.4s-4.1,2-4.1,4.4s1.6,4.4,4.1,4.4S21.2,23.3,21.2,20.9z"/>
		<path class="st0" d="M34.2,20.3v5.5c-1.1,0.7-2.8,1-4.1,1c-3.7,0-5.9-2.7-5.9-5.8c0-3.3,2.4-5.8,5.7-5.8c2,0,3.2,0.5,4.1,1.4
			l-1,1.1c-0.9-0.9-1.9-1.2-3-1.2c-2.5,0-4.1,2-4.1,4.4c0,2.5,1.8,4.4,4.2,4.4c1,0,2-0.2,2.7-0.6v-3.1h-2.4v-1.4h3.8V20.3z"/>
		<path class="st0" d="M36.9,15.4h1.5v11.1h-1.5V15.4z"/>
		<path class="st0" d="M41.2,15.4H45c1.9,0,3.3,0.9,3.3,2.8c0,1.3-0.8,2.1-1.9,2.4l0,0c1.3,0.1,2.4,1.3,2.4,2.8c0,2-1.7,3.1-3.8,3.1
			h-3.8V15.4z M42.7,20h2c1.1,0,2-0.5,2-1.7c0-0.9-0.5-1.6-1.7-1.6h-2.3V20z M42.7,25.1h2.2c0.9,0,2.4-0.3,2.4-1.9
			c0-1.3-0.9-2-2.3-2h-2.2v3.9H42.7z"/>
		<path class="st0" d="M50.9,15.4H58v1.4h-5.6v3.3h5.2v1.4h-5.2V25h5.9v1.4H51v-11H50.9z"/>
		<path class="st0" d="M68,17.8c-0.6-0.8-1.6-1.3-2.6-1.3c-2.5,0-4.1,2-4.1,4.5c0,2.3,1.5,4.3,4.1,4.3c1.3,0,2.2-0.6,2.9-1.5l1.3,1
			c-0.3,0.5-1.6,1.9-4.1,1.9c-3.5,0-5.6-2.9-5.6-5.7c0-3.4,2.3-5.9,5.7-5.9c1.4,0,2.9,0.5,3.8,1.7L68,17.8z"/>
		<path class="st1" d="M72.4,15.4h7.2v1.8h-5.3v2.7h5v1.8h-5v3h5.6v1.8h-7.5C72.4,26.5,72.4,15.4,72.4,15.4z"/>
		<path class="st1" d="M81.8,15.4h1.9v9.3h4.6v1.8h-6.6L81.8,15.4L81.8,15.4z"/>
		<path class="st1" d="M89.8,15.4H97v1.8h-5.3v2.7h5v1.8h-5v3h5.6v1.8h-7.5C89.8,26.5,89.8,15.4,89.8,15.4z"/>
		<path class="st1" d="M99.3,15.4h3l2.9,7.8l3-7.8h2.9v11.1h-1.9v-9.2l0,0l-3.3,9.2h-1.4l-3.3-9.2l0,0v9.2h-1.9
			C99.3,26.5,99.3,15.4,99.3,15.4z"/>
		<path class="st1" d="M113.6,15.4h7.2v1.8h-5.3v2.7h5v1.8h-5v3h5.6v1.8h-7.5C113.6,26.5,113.6,15.4,113.6,15.4z"/>
		<path class="st1" d="M123,15.4h2.6l5.3,8.2l0,0v-8.2h1.9v11.1h-2.5L125,18l0,0v8.5h-2V15.4z"/>
		<path class="st1" d="M137.5,17.2h-3.4v-1.8h8.7v1.8h-3.4v9.3h-1.9L137.5,17.2L137.5,17.2z"/>
		<path class="st1" d="M149.5,17.7c-0.4-0.6-1.2-0.9-1.9-0.9c-0.9,0-1.8,0.4-1.8,1.4c0,2.2,5.2,1,5.2,4.9c0,2.4-1.9,3.5-4,3.5
			c-1.4,0-2.7-0.4-3.6-1.5l1.5-1.4c0.5,0.7,1.3,1.2,2.2,1.2s1.9-0.5,1.9-1.5c0-2.4-5.2-1-5.2-5c0-2.3,2-3.4,4-3.4
			c1.1,0,2.3,0.3,3.1,1.1L149.5,17.7z"/>
	</g>
</g>
<g>
	<g>
		<path class="st2" d="M8.2,63h1.5v9.6h5V74H8.2V63z"/>
		<path class="st2" d="M15.6,68.5c0-3.3,2.4-5.8,5.7-5.8s5.7,2.5,5.7,5.8s-2.4,5.8-5.7,5.8C17.9,74.3,15.6,71.8,15.6,68.5z
			 M25.4,68.5c0-2.4-1.6-4.4-4.1-4.4s-4.1,2-4.1,4.4s1.6,4.4,4.1,4.4S25.4,70.9,25.4,68.5z"/>
		<path class="st2" d="M38.4,67.9v5.5c-1.1,0.7-2.8,1-4.1,1c-3.7,0-5.9-2.7-5.9-5.8c0-3.3,2.4-5.8,5.7-5.8c2,0,3.2,0.5,4.1,1.4
			l-1,1.1c-0.9-0.9-1.9-1.2-3-1.2c-2.5,0-4.1,2-4.1,4.4c0,2.5,1.8,4.4,4.2,4.4c1,0,2-0.2,2.7-0.6v-3.1h-2.4v-1.4L38.4,67.9
			L38.4,67.9z"/>
		<path class="st2" d="M41.1,63h1.5v11.1h-1.5V63z"/>
		<path class="st2" d="M45.4,63h3.8c1.9,0,3.3,0.9,3.3,2.8c0,1.3-0.8,2.1-1.9,2.4l0,0c1.3,0.1,2.4,1.3,2.4,2.8c0,2-1.7,3.1-3.8,3.1
			h-3.8V63z M46.9,67.6h2c1.1,0,2-0.5,2-1.7c0-0.9-0.5-1.6-1.7-1.6h-2.3V67.6z M46.9,72.7h2.2c0.9,0,2.4-0.3,2.4-1.9
			c0-1.3-0.9-2-2.3-2H47v3.9H46.9z"/>
		<path class="st2" d="M55.1,63h7.1v1.4h-5.6v3.3h5.2v1.4h-5.2v3.5h5.9V74h-7.3V63H55.1z"/>
		<path class="st2" d="M72.2,65.4c-0.6-0.8-1.6-1.3-2.6-1.3c-2.5,0-4.1,2-4.1,4.5c0,2.3,1.5,4.3,4.1,4.3c1.3,0,2.2-0.6,2.9-1.5
			l1.3,1c-0.3,0.5-1.6,1.9-4.1,1.9c-3.5,0-5.6-2.9-5.6-5.7c0-3.4,2.3-5.9,5.7-5.9c1.4,0,2.9,0.5,3.8,1.7L72.2,65.4z"/>
		<path class="st3" d="M76.6,63h7.2v1.8h-5.3v2.7h5v1.8h-5v3h5.6v1.8h-7.5C76.6,74.1,76.6,63,76.6,63z"/>
		<path class="st3" d="M86,63h1.9v9.3h4.6v1.8h-6.6L86,63L86,63z"/>
		<path class="st3" d="M94,63h7.2v1.8h-5.3v2.7h5v1.8h-5v3h5.6v1.8H94C94,74.1,94,63,94,63z"/>
		<path class="st3" d="M103.5,63h3l2.9,7.8l3-7.8h2.9v11.1h-1.9v-9.2l0,0l-3.3,9.2h-1.4l-3.3-9.2l0,0v9.2h-1.9
			C103.5,74.1,103.5,63,103.5,63z"/>
		<path class="st3" d="M117.8,63h7.2v1.8h-5.3v2.7h5v1.8h-5v3h5.6v1.8h-7.5C117.8,74.1,117.8,63,117.8,63z"/>
		<path class="st3" d="M127.2,63h2.6l5.3,8.2l0,0V63h1.9v11.1h-2.5l-5.3-8.5l0,0v8.5h-2V63z"/>
		<path class="st3" d="M141.7,64.8h-3.4V63h8.7v1.8h-3.4v9.3h-1.9V64.8L141.7,64.8z"/>
		<path class="st3" d="M153.7,65.3c-0.4-0.6-1.2-0.9-1.9-0.9c-0.9,0-1.8,0.4-1.8,1.4c0,2.2,5.2,1,5.2,4.9c0,2.4-1.9,3.5-4,3.5
			c-1.4,0-2.7-0.4-3.6-1.5l1.5-1.4c0.5,0.7,1.3,1.2,2.2,1.2s1.9-0.5,1.9-1.5c0-2.4-5.2-1-5.2-5c0-2.3,2-3.4,4-3.4
			c1.1,0,2.3,0.3,3.1,1.1L153.7,65.3z"/>
	</g>
</g>
</svg>
