<?xml version="1.0" encoding="iso-8859-1"?>
<!-- Generator: Adobe Illustrator 16.0.0, SVG Export Plug-In . SVG Version: 6.00 Build 0)  -->
<!DOCTYPE svg PUBLIC "-//W3C//DTD SVG 1.1//EN" "http://www.w3.org/Graphics/SVG/1.1/DTD/svg11.dtd">
<svg version="1.1" id="Capa_1" xmlns="http://www.w3.org/2000/svg" xmlns:xlink="http://www.w3.org/1999/xlink" x="0px" y="0px"
	 width="142.545px" height="142.546px" viewBox="0 0 142.545 142.546" style="enable-background:new 0 0 142.545 142.546;"
	 xml:space="preserve">
<g>
	<path d="M46.496,0L32.46,13.105v3.754h-5.75l-14.03,13.105v112.582h83.37v-3.371l10.949-9.74h3.081v-3.743h5.752v-3.371l10.96-9.74
		h3.075V0H46.496z M76.747,96.744H62.947v13.79H45.711v-13.79h-13.79V79.499h13.79V65.707h17.236v13.792h13.799V96.744z
		 M106.372,110.097v0.514v1.215v0.761v0.975v11.141v0.492v0.503v1.666l-0.116,0.118l-2.217,1.976l-7.983,7.092v-7.092v-1.976v-1.767
		v-0.509v-0.493v-12.114v-1.976V98.77V97.04V95.3V29.964H50.497h-1.209H48.48h-0.406H46.5H33.45h-0.497h-0.5h-3.765h-1.984h-7.352
		l0.506-0.509l0.509-0.493l5.352-5.25l0.492-0.495l0.493-0.481l1.417-1.39l0.572-0.547l0.046-0.047h3.719h0.5h0.499h8.213h1.212
		h1.204h2.426h1.984h57.885v89.345H106.372z M126.157,110.502l-0.118,0.12l-2.218,1.969l-7.984,7.104v-7.104v-1.969V13.105H48.48
		h-1.984h-7.352l0.504-0.498l0.502-0.495l5.353-5.245l0.5-0.481l0.493-0.481l1.429-1.401l0.56,0.01V3.959l0.045-0.055h77.627
		V110.502L126.157,110.502z"/>
</g>
<g>
</g>
<g>
</g>
<g>
</g>
<g>
</g>
<g>
</g>
<g>
</g>
<g>
</g>
<g>
</g>
<g>
</g>
<g>
</g>
<g>
</g>
<g>
</g>
<g>
</g>
<g>
</g>
<g>
</g>
</svg>
