<?xml version="1.0" encoding="iso-8859-1"?>
<!-- Generator: Adobe Illustrator 16.0.0, SVG Export Plug-In . SVG Version: 6.00 Build 0)  -->
<!DOCTYPE svg PUBLIC "-//W3C//DTD SVG 1.1//EN" "http://www.w3.org/Graphics/SVG/1.1/DTD/svg11.dtd">
<svg version="1.1" id="Capa_1" xmlns="http://www.w3.org/2000/svg" xmlns:xlink="http://www.w3.org/1999/xlink" x="0px" y="0px"
	 width="112.849px" height="112.848px" viewBox="0 0 112.849 112.848" style="enable-background:new 0 0 112.849 112.848;"
	 xml:space="preserve">
<g>
	<path d="M111.272,47.57c-3.274-9.377-8.033-17.862-14.139-25.227c-0.585-0.686-1.431-1.09-2.341-1.09l0,0
		c-0.893,0-1.762,0.393-2.329,1.102c-3.493,4.229-6.797,8.535-10.09,12.827c-2.707,3.522-5.408,7.042-8.216,10.542
		c-0.898,1.114-0.893,2.687,0.013,3.807c1.767,2.154,3.699,4.306,5.608,6.398c1.307,1.43,2.589,2.849,3.771,4.22
		C72.947,71.769,56.435,83.602,41.824,90.044c-2.258-4.078-4.563-8.168-6.924-12.259c-0.739-1.276-2.282-1.832-3.668-1.336
		c-4.14,1.525-8.278,2.896-12.412,4.291c-5.157,1.714-10.314,3.44-15.483,5.427c-0.836,0.318-1.49,1.004-1.779,1.85
		c-0.284,0.857-0.183,1.791,0.284,2.56c5.37,8.771,12.208,16.479,19.266,21.681c0.521,0.372,1.149,0.591,1.791,0.591
		c0.023,0,0.056,0,0.08,0c12.492-0.331,36.667-3.476,58.126-20.806c13.885-11.207,24.033-25.487,30.163-42.451
		C111.509,48.944,111.509,48.229,111.272,47.57z M77.297,87.337c-19.493,15.734-41.44,18.962-53.436,19.423
		c-5.32-4.091-10.495-9.753-14.877-16.255c3.916-1.406,7.826-2.719,11.736-4.031c3.396-1.135,6.792-2.27,10.187-3.463
		c2.365,4.125,4.667,8.228,6.931,12.342c0.742,1.348,2.376,1.902,3.783,1.348c17.032-6.893,36.405-20.771,48.197-34.52
		c0.934-1.1,0.976-2.719,0.07-3.854c-1.648-2.069-3.617-4.247-5.645-6.479c-1.288-1.404-2.595-2.84-3.842-4.279
		c2.293-2.888,4.527-5.792,6.762-8.704c2.5-3.263,5.001-6.514,7.59-9.752c4.362,5.831,7.85,12.354,10.438,19.438
		C99.421,64.025,90.041,77.064,77.297,87.337z M35.493,34.61H11.351v-4.811l4.404-3.984c7.438-6.646,11.047-10.465,11.157-14.445
		c0-2.778-1.676-4.978-5.604-4.978c-2.932,0-5.497,1.466-7.282,2.829l-2.252-5.709C14.339,1.575,18.322,0,22.927,0
		C30.626,0,34.87,4.504,34.87,10.69c0,5.709-4.134,10.261-9.055,14.667l-3.147,2.625v0.115h12.832L35.493,34.61L35.493,34.61z
		 M54.523,34.61h7.542v-8.109h4.084v-5.97h-4.084V0.576h-9.738L39.445,21.314v5.187h15.078V34.61z M46.866,20.531v-0.115
		l4.557-7.436c1.149-2.151,2.048-4.146,3.147-6.345h0.207c-0.157,2.199-0.26,4.292-0.26,6.345v7.533h-7.651V20.531z M24.532,60.81
		v-8.78h-7.826v8.78h-4.758V39.815h4.758v8.062h7.826v-8.062h4.735V60.81H24.532z M48.429,45.705c0-1.918-0.686-3.384-1.933-4.389
		c-1.489-1.179-3.667-1.652-6.785-1.652c-2.524,0-4.794,0.189-6.325,0.435V60.81h4.711v-8.249h1.421
		c1.93,0.044,2.843,0.745,3.401,3.366c0.624,2.613,1.126,4.303,1.466,4.906h4.858c-0.405-0.827-1.058-3.547-1.714-5.929
		c-0.532-1.924-1.335-3.327-2.801-3.916v-0.092C46.535,50.221,48.429,48.385,48.429,45.705z M39.953,49.13h-1.862v-5.793
		c0.331-0.059,0.999-0.15,2.143-0.15c2.178,0.035,3.49,0.993,3.49,2.929C43.724,47.951,42.314,49.13,39.953,49.13z M60.587,54.958
		c0-1.312-0.992-2.069-3.522-2.965c-3.481-1.217-5.757-3.147-5.757-6.186c0-3.591,2.991-6.324,7.941-6.324
		c2.373,0,4.11,0.497,5.357,1.064l-1.069,3.818c-0.84-0.381-2.338-0.972-4.389-0.972c-2.054,0-3.053,0.925-3.053,2.021
		c0,1.336,1.188,1.93,3.904,2.946c3.703,1.38,5.441,3.31,5.441,6.266c0,3.511-2.707,6.489-8.473,6.489
		c-2.391,0-4.755-0.614-5.938-1.265l0.958-3.924c1.283,0.65,3.245,1.312,5.272,1.312C59.443,57.228,60.587,56.33,60.587,54.958z"/>
</g>
<g>
</g>
<g>
</g>
<g>
</g>
<g>
</g>
<g>
</g>
<g>
</g>
<g>
</g>
<g>
</g>
<g>
</g>
<g>
</g>
<g>
</g>
<g>
</g>
<g>
</g>
<g>
</g>
<g>
</g>
</svg>
