<?xml version="1.0" encoding="iso-8859-1"?>
<!-- Generator: Adobe Illustrator 16.0.0, SVG Export Plug-In . SVG Version: 6.00 Build 0)  -->
<!DOCTYPE svg PUBLIC "-//W3C//DTD SVG 1.1//EN" "http://www.w3.org/Graphics/SVG/1.1/DTD/svg11.dtd">
<svg version="1.1" id="Capa_1" xmlns="http://www.w3.org/2000/svg" xmlns:xlink="http://www.w3.org/1999/xlink" x="0px" y="0px"
	 width="76.729px" height="76.729px" viewBox="0 0 76.729 76.729" style="enable-background:new 0 0 76.729 76.729;"
	 xml:space="preserve">
<g>
	<path d="M73.182,43.471c-1.729,0-3.117,1.406-3.117,3.117v5.201h-63.4V28.406c0-1.714-1.392-3.118-3.118-3.118
		c-1.714,0-3.118,1.404-3.118,3.118v45.206c0,1.729,1.403,3.117,3.118,3.117c1.726,0,3.118-1.388,3.118-3.117v-6.235h63.4v6.235
		c0,1.729,1.388,3.117,3.117,3.117c1.718,0,3.118-1.388,3.118-3.117V46.588C76.3,44.877,74.9,43.471,73.182,43.471z M6.665,61.142
		v-3.118h63.4v3.118H6.665z M11.478,45.17c0-1.718,1.397-3.118,3.118-3.118h14.416c1.714,0,3.118,1.4,3.118,3.118
		c0,1.729-1.404,3.117-3.118,3.117H14.596C12.863,48.287,11.478,46.898,11.478,45.17z M52.163,22.938H36.526v-0.012
		c0-2.095,0.523-3.885,1.583-5.386c1.071-1.498,3.057-3.276,5.979-5.325c1.315-0.91,2.229-1.753,2.765-2.509
		c0.536-0.752,0.815-1.595,0.815-2.523c0-1.029-0.304-1.839-0.889-2.457c-0.597-0.637-1.376-0.935-2.326-0.935
		c-1.038,0-1.83,0.387-2.411,1.172C41.446,5.73,41.19,6.79,41.226,8.117h-4.42c-0.076-2.476,0.594-4.457,1.952-5.903
		c1.397-1.462,3.285-2.195,5.709-2.195c2.253,0,4.092,0.667,5.541,2.006c1.425,1.355,2.144,3.081,2.144,5.194
		c0,1.748-0.402,3.2-1.219,4.33c-0.815,1.139-2.325,2.423-4.566,3.845c-2.059,1.315-3.474,2.487-4.229,3.553l-0.013,0.04h10.026
		L52.163,22.938L52.163,22.938z M63.549,22.938h4.433v-5.057h2.582v-3.583h-2.582V0h-2.521h-2.509l-8.464,13.984v1.946v1.951h9.072
		L63.549,22.938L63.549,22.938z M57.789,14.31l0.195-0.319l5.565-9.24v9.56H57.789L57.789,14.31z M45.063,38.459v-5.337h-4.628
		v5.337H39.22h-1.242v-11.81h1.227h1.23v4.433h4.628v-4.433h1.229h1.23v11.81h-1.23H45.063z M59.665,29.929
		c0-0.999-0.354-1.778-1.035-2.387c-0.694-0.606-1.596-0.904-2.729-0.904h-4.725h-1.23v11.816h1.242h1.218v-4.664h2.473
		c0.706,0,1.193,0.112,1.498,0.329c0.305,0.231,0.45,0.618,0.463,1.148l0.024,1.09c0,0.469,0.036,0.901,0.085,1.3
		c0.049,0.414,0.109,0.683,0.158,0.792h2.728v-0.316c-0.2-0.086-0.341-0.207-0.396-0.384c-0.073-0.152-0.115-0.423-0.128-0.816
		l-0.073-1.945c-0.012-0.94-0.371-1.613-1.035-2.027c-0.128-0.073-0.255-0.131-0.396-0.192c0.256-0.094,0.481-0.219,0.688-0.356
		C59.275,31.904,59.665,31.07,59.665,29.929z M56.706,31.417c-0.317,0.256-0.792,0.39-1.432,0.39h-2.861v-3.117h2.965
		c0.615,0,1.06,0.128,1.352,0.384c0.323,0.276,0.463,0.651,0.463,1.175C57.192,30.76,57.034,31.149,56.706,31.417z M64.268,28.774
		c-0.354,0.274-0.523,0.648-0.523,1.16c0,0.356,0.183,0.63,0.56,0.816c0.354,0.195,1.133,0.426,2.314,0.694
		c1.717,0.381,2.874,0.816,3.446,1.328c0.584,0.5,0.864,1.291,0.864,2.399c0,1.118-0.426,1.985-1.303,2.644
		c-0.877,0.663-2.059,0.974-3.544,0.974c-1.486,0-2.667-0.341-3.501-1.035c-0.841-0.685-1.291-1.684-1.353-2.956h2.388
		c0.012,0.646,0.243,1.117,0.682,1.443c0.42,0.341,1.017,0.511,1.784,0.511c0.779,0,1.406-0.134,1.845-0.386
		c0.433-0.262,0.664-0.606,0.664-1.063c0-0.435-0.158-0.773-0.476-0.971c-0.316-0.22-0.968-0.423-1.99-0.648
		c-1.882-0.411-3.13-0.88-3.77-1.364c-0.634-0.481-0.932-1.236-0.932-2.253c0-1.16,0.408-2.064,1.236-2.737
		c0.853-0.654,1.96-0.998,3.373-0.998c1.315,0,2.405,0.35,3.239,1.047c0.828,0.694,1.291,1.641,1.389,2.813H68.25
		c-0.037-0.561-0.293-0.999-0.743-1.328c-0.438-0.338-1.035-0.5-1.741-0.5C65.121,28.363,64.621,28.494,64.268,28.774z"/>
</g>
<g>
</g>
<g>
</g>
<g>
</g>
<g>
</g>
<g>
</g>
<g>
</g>
<g>
</g>
<g>
</g>
<g>
</g>
<g>
</g>
<g>
</g>
<g>
</g>
<g>
</g>
<g>
</g>
<g>
</g>
</svg>
