<?xml version="1.0" encoding="iso-8859-1"?>
<!-- Generator: Adobe Illustrator 16.0.0, SVG Export Plug-In . SVG Version: 6.00 Build 0)  -->
<!DOCTYPE svg PUBLIC "-//W3C//DTD SVG 1.1//EN" "http://www.w3.org/Graphics/SVG/1.1/DTD/svg11.dtd">
<svg version="1.1" id="Capa_1" xmlns="http://www.w3.org/2000/svg" xmlns:xlink="http://www.w3.org/1999/xlink" x="0px" y="0px"
	 width="108.806px" height="108.806px" viewBox="0 0 108.806 108.806" style="enable-background:new 0 0 108.806 108.806;"
	 xml:space="preserve">
<g>
	<path d="M24.207,87.465H6.774l0,0c0-2.343,0.588-4.339,1.77-6.015c1.193-1.668,3.396-3.655,6.658-5.938
		c1.474-1.028,2.495-1.969,3.093-2.802c0.594-0.842,0.889-1.783,0.889-2.822c0-1.148-0.331-2.058-0.985-2.736
		c-0.645-0.7-1.518-1.056-2.594-1.056c-1.149,0-2.036,0.432-2.683,1.285c-0.646,0.864-0.942,2.036-0.898,3.535H7.101
		c-0.091-2.769,0.642-4.979,2.186-6.599c1.535-1.629,3.658-2.441,6.369-2.441c2.507,0,4.557,0.744,6.17,2.243
		c1.579,1.501,2.386,3.421,2.386,5.779c0,1.955-0.446,3.567-1.354,4.826c-0.908,1.258-2.608,2.691-5.09,4.301
		c-2.309,1.467-3.882,2.779-4.716,3.974l-0.023,0.032h11.183v4.433H24.207z M41.851,61.899v15.945h2.891v4.006h-2.891v5.624h-4.947
		v-5.624H26.789v-2.184v-2.172l9.447-15.596h2.813H41.851z M36.904,67.19l-6.192,10.305l-0.219,0.35h6.42L36.904,67.19L36.904,67.19
		z M16.297,91.602v4.948h-5.159v-4.948H9.763H8.395v13.182h1.389h1.354v-5.948h5.159v5.948h1.375h1.38V91.602h-1.391H16.297z
		 M32.331,103.989c0.086,0.176,0.231,0.335,0.45,0.424v0.343h-3.044c-0.068-0.114-0.122-0.408-0.185-0.87
		c-0.056-0.448-0.091-0.925-0.091-1.444l-0.021-1.231c-0.011-0.579-0.185-1.007-0.527-1.27c-0.33-0.246-0.885-0.372-1.677-0.372
		h-2.733v5.215h-1.378h-1.38V91.602h1.368h5.272c1.25,0,2.267,0.35,3.033,1.007c0.768,0.679,1.148,1.556,1.148,2.664
		c0,1.277-0.427,2.217-1.282,2.78c-0.23,0.147-0.494,0.29-0.775,0.389c0.152,0.082,0.315,0.131,0.437,0.208
		c0.763,0.47,1.139,1.203,1.16,2.266l0.084,2.155C32.209,103.508,32.252,103.806,32.331,103.989z M29.821,95.606
		c0-0.579-0.163-1.012-0.516-1.302c-0.336-0.285-0.829-0.427-1.518-0.427h-3.294v3.479h3.175c0.712,0,1.245-0.131,1.599-0.433
		C29.636,96.625,29.821,96.191,29.821,95.606z M40.327,96.942c-1.321-0.302-2.189-0.559-2.584-0.771
		c-0.412-0.214-0.61-0.521-0.61-0.914c0-0.559,0.187-0.975,0.584-1.28c0.39-0.321,0.941-0.471,1.641-0.471
		c0.808,0,1.464,0.181,1.966,0.558c0.504,0.372,0.786,0.865,0.818,1.488h2.69c-0.112-1.312-0.622-2.374-1.551-3.146
		c-0.919-0.782-2.124-1.159-3.604-1.159c-1.577,0-2.823,0.377-3.754,1.11c-0.93,0.761-1.379,1.762-1.379,3.054
		c0,1.14,0.342,1.98,1.043,2.517c0.712,0.553,2.113,1.051,4.191,1.516c1.137,0.246,1.884,0.482,2.231,0.723
		c0.346,0.229,0.524,0.586,0.524,1.088c0,0.516-0.25,0.887-0.743,1.183c-0.481,0.284-1.172,0.417-2.047,0.417
		c-0.861,0-1.529-0.182-2-0.569c-0.481-0.373-0.733-0.904-0.754-1.615h-2.662c0.068,1.429,0.572,2.522,1.501,3.301
		c0.941,0.766,2.241,1.144,3.915,1.144c1.655,0,2.977-0.345,3.951-1.078c0.978-0.733,1.458-1.708,1.458-2.939
		c0-1.23-0.319-2.122-0.966-2.687C43.543,97.85,42.244,97.363,40.327,96.942z M102.031,51.553c0,1.547-1.26,2.801-2.802,2.801
		c-0.033,0.006-0.077,0-0.11,0H58.572v36.258c0,6.943,5.647,12.593,12.597,12.593c6.938,0,12.597-5.649,12.597-12.593
		c0-1.55,1.247-2.802,2.802-2.802c1.542,0,2.802,1.252,2.802,2.802c0,10.029-8.165,18.194-18.2,18.194
		c-10.034,0-18.2-8.165-18.2-18.194V54.354H10.176c-1.552,0-2.801-1.254-2.801-2.801c0-24.305,18.669-41.389,45.594-42.078V2.802
		C52.969,1.261,54.216,0,55.771,0c1.545,0,2.802,1.261,2.802,2.802v6.763c25.412,1.541,42.946,17.981,43.338,41.182
		C101.989,50.999,102.031,51.263,102.031,51.553z M96.22,48.75c-1.421-20.005-18.123-33.741-41.576-33.741
		c-23.455,0-40.142,13.724-41.565,33.741H96.22z M63.521,29.546h-6.075v-6.074c0-1.54-1.262-2.801-2.802-2.801
		c-1.552,0-2.8,1.262-2.8,2.801v6.074h-6.065c-1.55,0-2.801,1.256-2.801,2.802c0,1.541,1.251,2.802,2.801,2.802h6.065v6.063
		c0,1.545,1.248,2.801,2.8,2.801c1.54,0,2.802-1.256,2.802-2.801v-6.063h6.075c1.541,0,2.801-1.261,2.801-2.802
		C66.321,30.802,65.062,29.546,63.521,29.546z"/>
</g>
<g>
</g>
<g>
</g>
<g>
</g>
<g>
</g>
<g>
</g>
<g>
</g>
<g>
</g>
<g>
</g>
<g>
</g>
<g>
</g>
<g>
</g>
<g>
</g>
<g>
</g>
<g>
</g>
<g>
</g>
</svg>
