<?xml version="1.0" encoding="iso-8859-1"?>
<!-- Generator: Adobe Illustrator 16.0.0, SVG Export Plug-In . SVG Version: 6.00 Build 0)  -->
<!DOCTYPE svg PUBLIC "-//W3C//DTD SVG 1.1//EN" "http://www.w3.org/Graphics/SVG/1.1/DTD/svg11.dtd">
<svg version="1.1" id="Capa_1" xmlns="http://www.w3.org/2000/svg" xmlns:xlink="http://www.w3.org/1999/xlink" x="0px" y="0px"
	 width="127.274px" height="127.274px" viewBox="0 0 127.274 127.274" style="enable-background:new 0 0 127.274 127.274;"
	 xml:space="preserve">
<g>
	<path d="M87.11,92.42c0,1.537-1.256,2.801-2.802,2.801h-2.802v2.802c0,1.537-1.255,2.802-2.804,2.802
		c-1.538,0-2.802-1.265-2.802-2.802v-2.802h-2.802c-1.537,0-2.802-1.264-2.802-2.801c0-1.544,1.265-2.802,2.802-2.802h2.802v-2.802
		c0-1.544,1.264-2.802,2.802-2.802c1.549,0,2.804,1.258,2.804,2.802v2.802h2.802C85.854,89.619,87.11,90.855,87.11,92.42z
		 M127.274,65.092v43.554c0,1.536-1.266,2.8-2.802,2.8h-10.216v8.29H99.545v-8.29H57.872v8.29H43.162v-8.29H32.946
		c-1.546,0-2.802-1.264-2.802-2.8V79.982c0-0.065,0.033-0.115,0.04-0.187C13.066,76.835,0,61.899,0,43.951
		C0,23.869,16.339,7.538,36.421,7.538c13.789,0,25.813,7.705,31.994,19.026c3.294-0.424,6.73-0.687,10.287-0.687
		C108.663,25.869,127.274,40.898,127.274,65.092z M72.842,43.941c0,12.838-6.685,24.123-16.75,30.612h54.377v-9.461
		c0-18.528-17.271-22.412-31.759-22.412c-2.068,0-3.975,0.196-5.912,0.365C72.809,43.353,72.842,43.645,72.842,43.941z
		 M36.421,74.756c16.994,0,30.817-13.82,30.817-30.815c0-0.89-0.063-1.776-0.129-2.663c-0.058-0.15-0.128-0.295-0.158-0.457
		c-0.027-0.219,0.03-0.417,0.04-0.623c-1.859-15.224-14.836-27.066-30.565-27.066c-16.995,0-30.818,13.825-30.818,30.808
		C5.603,60.937,19.426,74.756,36.421,74.756z M121.67,65.092c0-21.051-16.062-33.62-42.968-33.62c-2.729,0-5.371,0.186-7.945,0.454
		c0.631,1.794,1.127,3.65,1.482,5.56c2.113-0.187,4.214-0.411,6.463-0.411c23.745,0,37.365,10.211,37.365,28.017v12.263
		c0,1.549-1.267,2.802-2.802,2.802H44.154c-0.493,0-0.936-0.152-1.333-0.384c-2.084,0.373-4.209,0.598-6.399,0.598
		c-0.23,0-0.448-0.033-0.674-0.033v25.507h85.923V65.092z M53.226,86.63c-3.188,0-5.778,2.583-5.778,5.777
		c0,3.185,2.591,5.769,5.778,5.769c3.182,0,5.775-2.584,5.775-5.769C59.001,89.213,56.408,86.63,53.226,86.63z M104.191,86.63
		c-3.19,0-5.772,2.583-5.772,5.777c0,3.185,2.582,5.769,5.772,5.769c3.188,0,5.779-2.584,5.779-5.769
		C109.975,89.213,107.383,86.63,104.191,86.63z M34.785,43.521H24.359l0.016-0.041c0.782-1.097,2.246-2.341,4.396-3.696
		c2.32-1.48,3.901-2.812,4.746-4.008c0.845-1.182,1.272-2.684,1.272-4.498c0-2.208-0.738-3.995-2.218-5.396
		c-1.496-1.39-3.413-2.09-5.754-2.09c-2.521,0-4.501,0.755-5.935,2.268c-1.436,1.519-2.112,3.565-2.029,6.148h4.59
		c-0.046-1.379,0.236-2.476,0.834-3.283c0.595-0.812,1.429-1.218,2.5-1.218c1.004,0,1.81,0.321,2.421,0.977
		c0.609,0.632,0.913,1.489,0.913,2.542c0,0.971-0.275,1.849-0.829,2.646c-0.555,0.791-1.517,1.663-2.881,2.605
		c-3.042,2.148-5.11,3.986-6.212,5.548c-1.101,1.552-1.652,3.424-1.652,5.604v0.011H34.79L34.785,43.521L34.785,43.521z
		 M46.628,42.384h-9.441v-2.022v-2.036l8.81-14.534h2.62h2.619v14.859h2.685v3.732h-2.685v5.256h-4.608V42.384z M46.628,38.652
		v-9.923l-5.785,9.598l-0.198,0.336L46.628,38.652L46.628,38.652z M27.411,51.489v4.608h-4.81v-4.608h-1.279h-1.284v12.278h1.289
		h1.275v-5.558h4.81v5.558h1.284h1.284V51.489h-1.284H27.411z M37.615,58.915h-2.561v4.856H33.77h-1.284V51.496h1.284h4.909
		c1.177,0,2.118,0.319,2.834,0.941c0.72,0.621,1.072,1.45,1.072,2.47c0,1.182-0.399,2.046-1.196,2.583
		c-0.209,0.143-0.45,0.277-0.723,0.37c0.153,0.069,0.298,0.121,0.411,0.197c0.707,0.421,1.064,1.116,1.093,2.106l0.063,2.014
		c0.011,0.396,0.054,0.681,0.123,0.845c0.07,0.161,0.212,0.306,0.413,0.397v0.325h-2.835c-0.068-0.118-0.122-0.391-0.174-0.818
		c-0.051-0.422-0.077-0.871-0.083-1.352l-0.016-1.135c-0.01-0.556-0.175-0.942-0.495-1.185
		C38.864,59.032,38.341,58.915,37.615,58.915z M35.054,56.857h2.977c0.659,0,1.16-0.129,1.487-0.405
		c0.338-0.273,0.502-0.665,0.502-1.226c0-0.539-0.159-0.941-0.472-1.215c-0.32-0.265-0.791-0.4-1.417-0.4h-3.077V56.857z
		 M48.912,53.275c0.75,0,1.361,0.165,1.828,0.512c0.469,0.347,0.727,0.818,0.771,1.39h2.5c-0.1-1.234-0.583-2.222-1.447-2.928
		c-0.856-0.728-1.977-1.081-3.357-1.081c-1.471,0-2.631,0.348-3.502,1.048c-0.861,0.701-1.289,1.642-1.289,2.854
		c0,1.053,0.327,1.831,0.978,2.342c0.654,0.504,1.966,0.975,3.909,1.412c1.053,0.231,1.748,0.449,2.075,0.679
		c0.33,0.206,0.498,0.547,0.498,1.018c0,0.47-0.241,0.823-0.696,1.095c-0.453,0.261-1.097,0.395-1.915,0.395
		c-0.803,0-1.424-0.178-1.866-0.53c-0.443-0.355-0.685-0.848-0.707-1.513h-2.475c0.066,1.322,0.531,2.353,1.406,3.075
		c0.874,0.724,2.09,1.064,3.642,1.064c1.541,0,2.773-0.336,3.679-1.015c0.915-0.676,1.363-1.59,1.363-2.744
		c0-1.149-0.304-1.983-0.903-2.495c-0.6-0.531-1.798-0.99-3.584-1.375c-1.24-0.283-2.042-0.523-2.416-0.726
		c-0.386-0.194-0.584-0.481-0.584-0.84c0-0.514,0.178-0.906,0.556-1.203C47.751,53.41,48.253,53.275,48.912,53.275z"/>
</g>
<g>
</g>
<g>
</g>
<g>
</g>
<g>
</g>
<g>
</g>
<g>
</g>
<g>
</g>
<g>
</g>
<g>
</g>
<g>
</g>
<g>
</g>
<g>
</g>
<g>
</g>
<g>
</g>
<g>
</g>
</svg>
