<?xml version="1.0" encoding="iso-8859-1"?>
<!-- Generator: Adobe Illustrator 16.0.0, SVG Export Plug-In . SVG Version: 6.00 Build 0)  -->
<!DOCTYPE svg PUBLIC "-//W3C//DTD SVG 1.1//EN" "http://www.w3.org/Graphics/SVG/1.1/DTD/svg11.dtd">
<svg version="1.1" id="Capa_1" xmlns="http://www.w3.org/2000/svg" xmlns:xlink="http://www.w3.org/1999/xlink" x="0px" y="0px"
	 width="137.993px" height="137.993px" viewBox="0 0 137.993 137.993" style="enable-background:new 0 0 137.993 137.993;"
	 xml:space="preserve">
<g>
	<path d="M101.872,97.598c0,1.544-1.258,2.802-2.802,2.802H85.642v13.429c0,1.538-1.247,2.801-2.802,2.801
		c-1.542,0-2.801-1.263-2.801-2.801v-13.429H66.618c-1.556,0-2.803-1.258-2.803-2.802c0-1.542,1.247-2.802,2.803-2.802h13.421
		V81.368c0-1.543,1.259-2.802,2.801-2.802c1.555,0,2.802,1.259,2.802,2.802v13.428H99.07
		C100.614,94.796,101.872,96.056,101.872,97.598z M130.381,84.044c0,2.906-0.471,5.773-1.388,8.563
		c-4.401,19.864-42.419,43.957-44.039,44.958c-0.461,0.298-0.976,0.428-1.489,0.428c-0.526,0-1.04-0.13-1.489-0.428
		c-0.854-0.524-11.654-7.397-22.415-16.689l-29.417,15.97l-22.531-6.262V29.198L61.431,0v4.823l16.113,4.908l6.412-3.48V63.62
		c5.079-4.662,11.7-7.33,18.693-7.33c4.708,0,9.324,1.193,13.373,3.458C124.876,64.626,130.381,73.938,130.381,84.044z
		 M58.961,18.612l2.47-1.258l12.863-6.533L61.431,6.903l-2.47-0.756l-0.14-0.052L15.295,29.283l14.628,4.08L58.961,18.612z
		 M124.777,84.044c0-8.061-4.389-15.49-11.469-19.381c-3.229-1.807-6.917-2.748-10.659-2.748c-6.61,0-12.815,2.92-17.028,8.008
		c-0.537,0.639-1.325,1.018-2.156,1.018c-0.832,0-1.62-0.374-2.156-1.018c-4.235-5.087-10.451-8.008-17.054-8.008
		c-3.742,0-7.417,0.941-10.645,2.736c-7.071,3.891-11.458,11.322-11.458,19.382c0,2.343,0.357,4.623,1.091,6.797
		c3.581,16.076,33.185,36.41,40.222,41.034c7.027-4.624,36.62-24.925,40.131-40.744C124.408,88.624,124.777,86.336,124.777,84.044z"
		/>
</g>
<g>
</g>
<g>
</g>
<g>
</g>
<g>
</g>
<g>
</g>
<g>
</g>
<g>
</g>
<g>
</g>
<g>
</g>
<g>
</g>
<g>
</g>
<g>
</g>
<g>
</g>
<g>
</g>
<g>
</g>
</svg>
