<?xml version="1.0" encoding="iso-8859-1"?>
<!-- Generator: Adobe Illustrator 16.0.0, SVG Export Plug-In . SVG Version: 6.00 Build 0)  -->
<!DOCTYPE svg PUBLIC "-//W3C//DTD SVG 1.1//EN" "http://www.w3.org/Graphics/SVG/1.1/DTD/svg11.dtd">
<svg version="1.1" id="Capa_1" xmlns="http://www.w3.org/2000/svg" xmlns:xlink="http://www.w3.org/1999/xlink" x="0px" y="0px"
	 width="110.918px" height="110.918px" viewBox="0 0 110.918 110.918" style="enable-background:new 0 0 110.918 110.918;"
	 xml:space="preserve">
<g>
	<path d="M55.458,0C32.596,0,10.284,3.306,10.284,42.811c0,37.557,20.269,68.107,45.174,68.107
		c24.907,0,45.176-30.556,45.176-68.107C100.634,3.294,78.325,0,55.458,0z M55.458,105.306c-21.825,0-39.571-28.039-39.571-62.506
		c0-34.405,17.927-37.208,39.571-37.208c21.645,0,39.573,2.802,39.573,37.208C95.031,77.271,77.283,105.306,55.458,105.306z
		 M55.458,15.254c-15.922,0-32.908,2.413-32.908,31.22c0,9.056,1.608,14.971,5.073,18.611c3.712,3.928,8.801,4.459,13.288,4.459
		c2.101,0,4.356-0.126,6.719-0.29c4.982-0.307,10.663-0.307,15.65,0c2.364,0.155,4.604,0.29,6.705,0.29
		c13.046,0,18.373-6.687,18.373-23.07C88.369,17.656,71.387,15.254,55.458,15.254z M70.005,63.94c-1.989,0-4.123-0.126-6.378-0.279
		c-2.596-0.153-5.34-0.327-8.169-0.327s-5.57,0.169-8.168,0.327c-2.236,0.142-4.371,0.279-6.374,0.279
		c-4.744,0-7.412-0.793-9.229-2.697c-2.379-2.507-3.535-7.344-3.535-14.769c0-23.73,11.834-25.617,27.305-25.617
		c15.478,0,27.308,1.882,27.308,25.617C82.766,62.677,77.48,63.94,70.005,63.94z M55.453,75.558
		c-7.066,0-12.798,5.745-12.798,12.804c0,7.049,5.732,12.794,12.798,12.794c7.058,0,12.801-5.745,12.801-12.794
		C68.254,81.303,62.511,75.558,55.453,75.558z M55.453,95.562c-3.968,0-7.195-3.228-7.195-7.201c0-3.961,3.228-7.189,7.195-7.189
		c3.973,0,7.198,3.229,7.198,7.189C62.651,92.335,59.426,95.562,55.453,95.562z"/>
</g>
<g>
</g>
<g>
</g>
<g>
</g>
<g>
</g>
<g>
</g>
<g>
</g>
<g>
</g>
<g>
</g>
<g>
</g>
<g>
</g>
<g>
</g>
<g>
</g>
<g>
</g>
<g>
</g>
<g>
</g>
</svg>
