<?xml version="1.0" encoding="iso-8859-1"?>
<!-- Generator: Adobe Illustrator 16.0.0, SVG Export Plug-In . SVG Version: 6.00 Build 0)  -->
<!DOCTYPE svg PUBLIC "-//W3C//DTD SVG 1.1//EN" "http://www.w3.org/Graphics/SVG/1.1/DTD/svg11.dtd">
<svg version="1.1" id="Capa_1" xmlns="http://www.w3.org/2000/svg" xmlns:xlink="http://www.w3.org/1999/xlink" x="0px" y="0px"
	 width="154.762px" height="154.762px" viewBox="0 0 154.762 154.762" style="enable-background:new 0 0 154.762 154.762;"
	 xml:space="preserve">
<g>
	<path d="M129.818,58.36h-18.879v-5.544c0-4.241-1.909-11.349-14.76-11.349c-12.85,0-14.753,7.107-14.753,11.349v5.544h-2.87
		c-1.324-20.519-18.382-36.8-39.215-36.8C17.649,21.56,0,39.209,0,60.902c0,21.089,16.695,38.313,37.557,39.247v19.742
		c0,1.667,1.363,3.026,3.026,3.026h11.919c1.427,5.887,6.7,10.284,13.012,10.284c6.325,0,11.597-4.409,13.013-10.284h35.255
		c1.425,5.887,6.696,10.284,13.01,10.284c6.324,0,11.597-4.409,12.997-10.284h11.946c1.661,0,3.026-1.359,3.026-3.026V83.327
		C154.785,69.57,143.596,58.36,129.818,58.36z M87.485,52.816c0-1.723,0-5.296,8.706-5.296c8.707,0,8.707,3.573,8.707,5.296v5.544
		H87.497v-5.544H87.485z M75.454,76.519h0.954v12.613h-9.714C70.379,85.567,73.37,81.294,75.454,76.519z M82.461,76.519h18.914
		v12.613H82.461V76.519z M6.07,60.902c0-18.356,14.934-33.29,33.29-33.29c18.347,0,33.29,14.934,33.29,33.29
		c0,18.347-14.942,33.289-33.29,33.289C21.004,94.191,6.07,79.255,6.07,60.902z M65.539,127.155c-4.067,0-7.376-3.315-7.376-7.382
		s3.31-7.377,7.376-7.377c4.066,0,7.379,3.311,7.379,7.377S69.599,127.155,65.539,127.155z M126.815,127.155
		c-4.066,0-7.383-3.315-7.383-7.382s3.316-7.377,7.383-7.377s7.377,3.311,7.377,7.377S130.882,127.155,126.815,127.155z
		 M148.732,116.865h-8.818c-1.342-6.005-6.686-10.521-13.099-10.521s-11.757,4.517-13.087,10.521H78.637
		c-1.339-6.005-6.688-10.521-13.098-10.521s-11.759,4.517-13.086,10.521h-8.819V99.996c5.532-0.603,10.713-2.364,15.321-5.036
		c0.331,0.13,0.694,0.225,1.076,0.225h44.378c1.678,0,3.025-1.371,3.025-3.026V73.492c0-1.664-1.348-3.026-3.025-3.026H77.481
		c0.496-1.959,0.866-3.981,1.052-6.053h51.303c10.427,0,18.914,8.479,18.914,18.914v33.538H148.732z M129.818,70.466h-10.285
		c-1.661,0-3.026,1.362-3.026,3.026v18.666c0,1.655,1.365,3.026,3.026,3.026h20.12c1.673,0,3.026-1.371,3.026-3.026v-8.831
		C142.68,76.24,136.911,70.466,129.818,70.466z M136.627,89.132H122.56V76.519h7.259c3.759,0,6.809,3.062,6.809,6.809V89.132z
		 M37.586,64.892H20.034V64.88c0-2.344,0.6-4.365,1.785-6.041c1.194-1.699,3.425-3.679,6.715-6.005
		c1.463-1.017,2.503-1.954,3.109-2.813c0.612-0.854,0.896-1.797,0.896-2.852c0-1.138-0.331-2.057-0.993-2.754
		c-0.647-0.694-1.525-1.04-2.613-1.04c-1.156,0-2.06,0.437-2.695,1.303c-0.647,0.884-0.955,2.057-0.907,3.559h-4.944
		c-0.104-2.79,0.629-5.013,2.178-6.646c1.551-1.641,3.685-2.456,6.416-2.456c2.53,0,4.619,0.757,6.209,2.255
		c1.617,1.513,2.397,3.452,2.397,5.843c0,1.947-0.446,3.57-1.374,4.847c-0.908,1.298-2.613,2.731-5.119,4.336
		c-2.338,1.469-3.91,2.813-4.752,3.998l-0.024,0.045h11.257L37.586,64.892L37.586,64.892z M50.395,64.892h4.974v-5.677h2.899v-4.031
		h-2.899V39.133h-2.825h-2.846L40.19,54.832v2.198v2.185h10.205V64.892z M43.926,55.184l0.21-0.357l6.253-10.368v10.72
		L43.926,55.184L43.926,55.184z M31.002,69.05h1.386v13.261h-1.386h-1.386v-6.005h-5.187v6.005h-1.386h-1.386V69.05h1.386h1.386
		v4.974h5.181V69.05H31.002z M42.333,77.44c0.346,0.26,0.52,0.686,0.532,1.283l0.024,1.234c0,0.509,0.038,1.005,0.085,1.454
		c0.062,0.462,0.127,0.757,0.189,0.887h3.062v-0.354c-0.213-0.112-0.37-0.26-0.449-0.426c-0.071-0.177-0.121-0.484-0.127-0.922
		l-0.071-2.175c-0.033-1.064-0.414-1.821-1.183-2.27c-0.127-0.083-0.271-0.148-0.428-0.222c0.284-0.106,0.543-0.233,0.78-0.399
		c0.854-0.579,1.289-1.513,1.289-2.79c0-1.103-0.387-1.998-1.156-2.663c-0.78-0.665-1.797-1.017-3.062-1.017h-5.319h-1.386v13.256
		h1.386h1.386v-5.243h2.761C41.432,77.062,41.999,77.192,42.333,77.44z M37.885,71.344h3.322c0.671,0,1.179,0.139,1.525,0.425
		c0.352,0.295,0.508,0.73,0.508,1.312c0,0.606-0.168,1.028-0.532,1.324c-0.357,0.298-0.89,0.438-1.61,0.438h-3.213V71.344z
		 M51.193,71.441c-0.399,0.319-0.591,0.745-0.591,1.3c0,0.387,0.198,0.697,0.629,0.907c0.399,0.225,1.265,0.485,2.601,0.783
		c1.924,0.423,3.228,0.919,3.887,1.487c0.641,0.559,0.969,1.451,0.969,2.692c0,1.254-0.485,2.234-1.466,2.968
		c-0.981,0.732-2.317,1.099-3.984,1.099c-1.67,0-2.982-0.372-3.928-1.152c-0.943-0.779-1.439-1.885-1.513-3.327h2.663
		c0.027,0.709,0.293,1.241,0.771,1.643c0.47,0.366,1.138,0.567,2.007,0.567c0.884,0,1.593-0.13,2.078-0.438
		c0.497-0.283,0.756-0.662,0.756-1.17c0-0.496-0.189-0.875-0.55-1.111c-0.357-0.23-1.102-0.479-2.228-0.727
		c-2.113-0.467-3.523-0.976-4.232-1.528c-0.695-0.544-1.052-1.383-1.052-2.53c0-1.3,0.455-2.317,1.386-3.074
		c0.937-0.745,2.189-1.132,3.783-1.132c1.489,0,2.686,0.387,3.638,1.167c0.931,0.783,1.445,1.835,1.56,3.168h-2.704
		c-0.05-0.633-0.322-1.141-0.831-1.502c-0.508-0.369-1.167-0.558-1.971-0.558C52.145,70.974,51.598,71.131,51.193,71.441z"/>
</g>
<g>
</g>
<g>
</g>
<g>
</g>
<g>
</g>
<g>
</g>
<g>
</g>
<g>
</g>
<g>
</g>
<g>
</g>
<g>
</g>
<g>
</g>
<g>
</g>
<g>
</g>
<g>
</g>
<g>
</g>
</svg>
