<?xml version="1.0" encoding="iso-8859-1"?>
<!-- Generator: Adobe Illustrator 16.0.0, SVG Export Plug-In . SVG Version: 6.00 Build 0)  -->
<!DOCTYPE svg PUBLIC "-//W3C//DTD SVG 1.1//EN" "http://www.w3.org/Graphics/SVG/1.1/DTD/svg11.dtd">
<svg version="1.1" id="Capa_1" xmlns="http://www.w3.org/2000/svg" xmlns:xlink="http://www.w3.org/1999/xlink" x="0px" y="0px"
	 width="108.503px" height="108.503px" viewBox="0 0 108.503 108.503" style="enable-background:new 0 0 108.503 108.503;"
	 xml:space="preserve">
<g>
	<path d="M85.405,27.434H67.923v-5.139c0-3.921-1.768-10.506-13.659-10.506c-11.892,0-13.662,6.585-13.662,10.506v5.139H23.114
		C10.377,27.434,0,37.806,0,50.547v33.85c0,1.549,1.26,2.802,2.801,2.802h11.041c1.316,5.444,6.196,9.516,12.042,9.516
		c5.855,0,10.735-4.071,12.046-9.516h32.637c1.308,5.444,6.188,9.516,12.043,9.516c5.845,0,10.726-4.071,12.045-9.516h11.048
		c1.537,0,2.801-1.253,2.801-2.802v-33.85C108.521,37.8,98.146,27.434,85.405,27.434z M46.199,22.295c0-1.589,0-4.903,8.057-4.903
		c8.061,0,8.061,3.313,8.061,4.903v5.139H46.206v-5.139H46.199z M25.887,91.11c-3.765,0-6.837-3.063-6.837-6.828
		c0-3.766,3.072-6.83,6.837-6.83c3.766,0,6.832,3.064,6.832,6.83C32.719,88.047,29.642,91.11,25.887,91.11z M82.622,91.11
		c-3.767,0-6.836-3.063-6.836-6.828c0-3.766,3.069-6.83,6.836-6.83c3.764,0,6.835,3.064,6.835,6.83
		C89.457,88.047,86.376,91.11,82.622,91.11z M102.918,81.595h-8.175c-1.237-5.565-6.186-9.745-12.117-9.745
		c-5.942,0-10.888,4.18-12.125,9.745H38.009c-1.235-5.565-6.187-9.745-12.116-9.745c-5.939,0-10.887,4.18-12.126,9.745H5.614V50.547
		c0-9.652,7.858-17.51,17.509-17.51h62.282c9.655,0,17.513,7.858,17.513,17.51V81.595L102.918,81.595z M61.859,38.64H23.107
		c-6.565,0-11.906,5.341-11.906,11.907v8.169c0,1.549,1.26,2.802,2.801,2.802h47.857c1.549,0,2.802-1.253,2.802-2.802V41.441
		C64.661,39.896,63.419,38.64,61.859,38.64z M16.804,50.547c0-3.475,2.837-6.304,6.304-6.304h12.837v11.671H16.804V50.547z
		 M59.058,55.914h-17.51V44.243h17.51V55.914z M85.405,38.64H75.88c-1.55,0-2.802,1.256-2.802,2.802v17.274
		c0,1.549,1.252,2.802,2.802,2.802h18.626c1.54,0,2.802-1.253,2.802-2.802v-8.169C97.312,43.98,91.956,38.64,85.405,38.64z
		 M91.709,55.914H78.681V44.243h6.72c3.47,0,6.304,2.829,6.304,6.304v5.367H91.709z"/>
</g>
<g>
</g>
<g>
</g>
<g>
</g>
<g>
</g>
<g>
</g>
<g>
</g>
<g>
</g>
<g>
</g>
<g>
</g>
<g>
</g>
<g>
</g>
<g>
</g>
<g>
</g>
<g>
</g>
<g>
</g>
</svg>
