<?xml version="1.0" encoding="iso-8859-1"?>
<!-- Generator: Adobe Illustrator 16.0.0, SVG Export Plug-In . SVG Version: 6.00 Build 0)  -->
<!DOCTYPE svg PUBLIC "-//W3C//DTD SVG 1.1//EN" "http://www.w3.org/Graphics/SVG/1.1/DTD/svg11.dtd">
<svg version="1.1" id="Capa_1" xmlns="http://www.w3.org/2000/svg" xmlns:xlink="http://www.w3.org/1999/xlink" x="0px" y="0px"
	 width="131.179px" height="131.179px" viewBox="0 0 131.179 131.179" style="enable-background:new 0 0 131.179 131.179;"
	 xml:space="preserve">
<g>
	<path d="M103.159,64.667c-3.617-1.497-7.124-2.18-10.425-2.118c1.291-0.394,2.546-0.862,3.666-1.547
		c7.137-4.372,9.401-14.012,9.486-14.417c0.366-1.559-0.523-3.129-2.021-3.641c-0.134-0.046-3.3-1.105-7.282-1.105
		c-3.556,0-6.698,0.819-9.341,2.433c-2.162,1.321-3.812,3.13-5.164,5.012v-5.094c0-1.72-1.4-3.118-3.117-3.118
		s-3.117,1.397-3.117,3.118v21.757c-2.034-1.401-4.269-2.351-6.625-2.887V34.282c0-1.084-0.555-2.088-1.492-2.658l-10.099-6.19
		V3.118C57.627,1.397,56.23,0,54.51,0H26.975c-1.723,0-3.118,1.397-3.118,3.118V25.44l-10.096,6.184
		c-0.922,0.569-1.489,1.574-1.489,2.658v77.783c0,1.711,1.395,3.117,3.118,3.117h34.224c6.552,9.062,15.22,15.997,23.221,15.997
		c1.742,0,3.404-0.336,4.938-0.957c0.396-0.17,0.792-0.359,1.188-0.578c0.39,0.219,0.779,0.396,1.175,0.566
		c1.553,0.646,3.222,0.969,4.957,0.969c12.33,0,26.263-16.436,31.56-31.779C122.242,83.19,117.322,70.525,103.159,64.667z
		 M90.5,49.59c2.186-1.343,5.596-1.708,8.306-1.373c-0.999,2.433-2.795,5.717-5.651,7.471c-2.197,1.334-5.583,1.714-8.312,1.376
		C85.842,54.635,87.638,51.34,90.5,49.59z M87.047,63.437c0.08,0,0.135-0.024,0.207-0.024c-1.826,0.56-3.556,1.425-5.163,2.526
		v-3.014C83.382,63.181,85.104,63.437,87.047,63.437z M30.104,6.235h21.3v16.368h-21.3V6.235z M18.52,108.947V85.729h12.65
		c1.721,0,3.118-1.395,3.118-3.117c0-1.712-1.397-3.118-3.118-3.118H18.52V62.73h12.65c1.721,0,3.118-1.394,3.118-3.114
		c0-1.72-1.397-3.117-3.118-3.117H18.52V36.02l11.734-7.188h21.001l11.728,7.188v26.632c-2.649,0.219-5.401,0.846-8.211,2.015
		c-14.166,5.858-19.08,18.523-13.475,34.745c1.096,3.185,2.588,6.406,4.338,9.535H18.52L18.52,108.947z M110.746,97.377
		c-5.432,15.734-20.131,30.373-28.241,27.073c-0.463-0.195-0.975-0.512-1.607-1.012c-0.572-0.45-1.248-0.67-1.937-0.67
		c-0.682,0-1.37,0.232-1.937,0.67c-0.621,0.487-1.145,0.816-1.632,1.012c-7.982,3.324-22.786-11.314-28.217-27.073
		c-5.706-16.501,2.277-23.771,9.971-26.95c7.943-3.288,14.629-1.742,19.281,4.725c0.043,0.062,0.109,0.086,0.158,0.135
		c0.201,0.256,0.444,0.45,0.719,0.633c0.122,0.073,0.201,0.158,0.329,0.219c0.396,0.195,0.84,0.317,1.327,0.317l0,0c0,0,0,0,0.012,0
		c0.476,0,0.908-0.128,1.304-0.317c0.122-0.061,0.219-0.146,0.322-0.219c0.274-0.17,0.518-0.377,0.725-0.621
		c0.049-0.061,0.122-0.085,0.158-0.134c4.634-6.479,11.314-8.014,19.278-4.726C108.469,73.606,116.445,80.864,110.746,97.377z
		 M77.572,118.605c0,1.723-1.395,3.117-3.117,3.117c-3.751,0-7.9-3.179-10.717-5.846h-0.006
		c-5.639-5.346-10.364-12.738-12.97-20.313c-0.56-1.632,0.304-3.409,1.933-3.97c1.614-0.561,3.398,0.305,3.958,1.936
		c2.259,6.564,6.503,13.214,11.362,17.817c0,0,0,0,0.006,0c3.59,3.397,5.855,4.153,6.428,4.153
		C76.178,115.487,77.572,116.887,77.572,118.605z"/>
</g>
<g>
</g>
<g>
</g>
<g>
</g>
<g>
</g>
<g>
</g>
<g>
</g>
<g>
</g>
<g>
</g>
<g>
</g>
<g>
</g>
<g>
</g>
<g>
</g>
<g>
</g>
<g>
</g>
<g>
</g>
</svg>
