<?xml version="1.0" encoding="iso-8859-1"?>
<!-- Generator: Adobe Illustrator 16.0.0, SVG Export Plug-In . SVG Version: 6.00 Build 0)  -->
<!DOCTYPE svg PUBLIC "-//W3C//DTD SVG 1.1//EN" "http://www.w3.org/Graphics/SVG/1.1/DTD/svg11.dtd">
<svg version="1.1" id="Capa_1" xmlns="http://www.w3.org/2000/svg" xmlns:xlink="http://www.w3.org/1999/xlink" x="0px" y="0px"
	 width="144.885px" height="144.886px" viewBox="0 0 144.885 144.886" style="enable-background:new 0 0 144.885 144.886;"
	 xml:space="preserve">
<g>
	<path d="M126.429,15.586l-15.674,0.368l10.254-7.414c1.407-1.011,1.711-2.962,0.7-4.354c-1.011-1.394-2.971-1.714-4.354-0.697
		l-14.145,10.227C99.777,4.175,87.611-0.401,66.192,0.028C44.624,0.545,25.991,5.804,18.733,13.43
		c-2.35,2.469-3.51,5.136-3.44,7.925c0.207,8.802,12.501,14.614,28.132,17.26v19.458c0,10.321,7.633,18.822,17.534,20.344v4.238
		c-1.827,1.083-3.118,2.995-3.118,5.279v50.716c0,3.446,2.795,6.235,6.235,6.235c3.444,0,6.235-2.789,6.235-6.235V87.935
		c0-2.271-1.288-4.189-3.117-5.279v-4.238c9.904-1.522,17.53-10.023,17.53-20.344V38.308c4.451-0.996,8.172-2.363,11.095-4.159
		c3.977-2.438,6.509-5.729,7.679-9.615l13.688,9.751c0.56,0.387,1.181,0.582,1.808,0.582c0.975,0,1.942-0.457,2.546-1.31
		c0.998-1.403,0.676-3.349-0.73-4.348l-9.865-7.015l15.613-0.368c1.717-0.043,3.081-1.471,3.038-3.19
		C129.577,16.907,128.031,15.488,126.429,15.586z M49.663,58.073V39.485c3.69,0.414,7.486,0.648,11.295,0.731v31.917
		C54.513,70.708,49.663,64.95,49.663,58.073z M78.507,58.073c0,6.877-4.859,12.623-11.298,14.06v-31.91
		c4.183-0.101,7.861-0.436,11.298-0.886V58.073z M92.585,28.823c-5.133,3.143-13.737,4.884-25.578,5.164
		c-1.09,0.024-2.177,0.036-3.249,0.036c-26.999,0-42.106-7.581-42.225-12.83c-0.024-1.075,0.548-2.247,1.72-3.474
		c2.557-2.682,7.328-5.051,13.369-6.954l0.143,6.378c0.04,1.696,1.428,3.051,3.118,3.051c0.018,0,0.045,0,0.07,0
		c1.72-0.037,3.087-1.468,3.048-3.188l-0.18-7.907c3.397-0.779,7.021-1.428,10.875-1.899l0.174,7.581
		c0.037,1.695,1.428,3.044,3.118,3.044c0.024,0,0.048,0,0.073,0c1.724-0.045,3.087-1.473,3.045-3.193l-0.189-8.056
		c2.116-0.155,4.253-0.274,6.424-0.332c1.041-0.024,2.052-0.037,3.029-0.037c1.212,0,2.271,0.07,3.403,0.106l0.201,8.026
		c0.043,1.695,1.428,3.041,3.118,3.041c0.024,0,0.048,0,0.082,0c1.711-0.042,3.075-1.471,3.032-3.19l-0.171-7.447
		c12.38,1.367,18.84,5.562,19.022,12.626C98.151,23.474,96.41,26.473,92.585,28.823z"/>
</g>
<g>
</g>
<g>
</g>
<g>
</g>
<g>
</g>
<g>
</g>
<g>
</g>
<g>
</g>
<g>
</g>
<g>
</g>
<g>
</g>
<g>
</g>
<g>
</g>
<g>
</g>
<g>
</g>
<g>
</g>
</svg>
