<?xml version="1.0" encoding="iso-8859-1"?>
<!-- Generator: Adobe Illustrator 16.0.0, SVG Export Plug-In . SVG Version: 6.00 Build 0)  -->
<!DOCTYPE svg PUBLIC "-//W3C//DTD SVG 1.1//EN" "http://www.w3.org/Graphics/SVG/1.1/DTD/svg11.dtd">
<svg version="1.1" id="Capa_1" xmlns="http://www.w3.org/2000/svg" xmlns:xlink="http://www.w3.org/1999/xlink" x="0px" y="0px"
	 width="104.597px" height="104.596px" viewBox="0 0 104.597 104.596" style="enable-background:new 0 0 104.597 104.596;"
	 xml:space="preserve">
<g>
	<path d="M52.296,0.002C23.46,0.002,0,23.464,0,52.293c0,28.826,23.46,52.301,52.296,52.301c28.841,0,52.3-23.464,52.3-52.301
		C104.586,23.464,81.128,0.002,52.296,0.002z M8.773,35.488h26.386c-0.406,1.502-0.7,3.043-0.7,4.668c0,1.625,0.294,3.166,0.7,4.672
		H6.24C6.768,41.59,7.62,38.465,8.773,35.488z M40.068,40.156c0-6.736,5.481-12.222,12.222-12.222
		c6.75,0,12.225,5.485,12.225,12.222c0,6.741-5.484,12.235-12.225,12.235C45.549,52.391,40.068,46.897,40.068,40.156z
		 M69.417,35.488h26.396c1.161,2.988,1.998,6.118,2.525,9.363c-0.046,0-0.079-0.022-0.117-0.022H69.417
		c0.412-1.507,0.701-3.047,0.701-4.672C70.118,38.532,69.829,36.991,69.417,35.488z M52.296,5.605
		c17.626,0,33.002,9.823,40.945,24.279H66.808c-3.222-4.55-8.523-7.554-14.511-7.554c-5.99,0-11.292,3.004-14.519,7.554H11.351
		C19.286,15.428,34.668,5.605,52.296,5.605z M52.296,98.991c-25.75,0-46.693-20.946-46.693-46.697c0-0.635,0.074-1.26,0.095-1.877
		c0.022,0.005,0.045,0.017,0.066,0.017h32.021c3.23,4.552,8.517,7.562,14.512,7.562c5.994,0,11.29-2.998,14.511-7.562h31.405
		c0.238,0,0.448-0.086,0.677-0.135c0.023,0.67,0.104,1.322,0.104,1.995C98.982,78.054,78.043,98.991,52.296,98.991z M52.296,48.416
		c4.55,0,8.253-3.699,8.253-8.26c0-4.561-3.703-8.26-8.253-8.26s-8.25,3.699-8.25,8.26C44.046,44.717,47.746,48.416,52.296,48.416z
		 M52.296,37.5c1.463,0,2.65,1.195,2.65,2.657c0,1.462-1.195,2.657-2.65,2.657c-1.457,0-2.647-1.195-2.647-2.657
		C49.649,38.695,50.833,37.5,52.296,37.5z"/>
</g>
<g>
</g>
<g>
</g>
<g>
</g>
<g>
</g>
<g>
</g>
<g>
</g>
<g>
</g>
<g>
</g>
<g>
</g>
<g>
</g>
<g>
</g>
<g>
</g>
<g>
</g>
<g>
</g>
<g>
</g>
</svg>
