<?xml version="1.0" encoding="iso-8859-1"?>
<!-- Generator: Adobe Illustrator 16.0.0, SVG Export Plug-In . SVG Version: 6.00 Build 0)  -->
<!DOCTYPE svg PUBLIC "-//W3C//DTD SVG 1.1//EN" "http://www.w3.org/Graphics/SVG/1.1/DTD/svg11.dtd">
<svg version="1.1" id="Capa_1" xmlns="http://www.w3.org/2000/svg" xmlns:xlink="http://www.w3.org/1999/xlink" x="0px" y="0px"
	 width="107.016px" height="107.017px" viewBox="0 0 107.016 107.017" style="enable-background:new 0 0 107.016 107.017;"
	 xml:space="preserve">
<g>
	<path d="M76.756,18.116c-1.094-1.076-1.116-2.838-0.033-3.929c1.067-1.097,2.835-1.113,3.93-0.044c1.079,1.07,1.1,2.834,0.033,3.92
		C79.602,19.169,77.857,19.186,76.756,18.116z M86.792,24.061c1.056-1.095,1.052-2.859-0.045-3.929
		c-1.099-1.069-2.861-1.053-3.928,0.039c-1.073,1.094-1.062,2.854,0.032,3.923C83.963,25.164,85.719,25.142,86.792,24.061z
		 M92.887,30.044c1.084-1.086,1.057-2.858-0.032-3.929c-1.094-1.07-2.854-1.059-3.927,0.042c-1.084,1.086-1.064,2.851,0.031,3.92
		C90.053,31.162,91.817,31.142,92.887,30.044z M65.845,25.053c-1.057,1.093-1.049,2.858,0.035,3.922
		c1.103,1.075,2.871,1.053,3.927-0.033c1.083-1.095,1.062-2.854-0.033-3.929C68.682,23.949,66.931,23.96,65.845,25.053z
		 M71.952,31.043c-1.066,1.092-1.056,2.851,0.033,3.926c1.105,1.07,2.875,1.053,3.929-0.044c1.084-1.081,1.062-2.854-0.032-3.918
		C74.776,29.927,73.025,29.943,71.952,31.043z M82.021,40.92c1.071-1.081,1.061-2.851-0.031-3.929
		c-1.089-1.064-2.858-1.051-3.941,0.046c-1.057,1.086-1.051,2.846,0.06,3.929C79.188,42.042,80.948,42.025,82.021,40.92z
		 M78.17,26.644c1.083-1.081,1.083-2.84,0-3.929c-1.097-1.081-2.848-1.081-3.941,0c-1.084,1.088-1.084,2.848,0.01,3.929
		C75.335,27.726,77.074,27.726,78.17,26.644z M80.281,28.756c-1.084,1.087-1.084,2.84,0,3.924c1.083,1.081,2.834,1.093,3.931,0.005
		c1.075-1.089,1.075-2.854,0-3.935C83.127,27.67,81.382,27.67,80.281,28.756z M24.823,66.078c-1.07,1.089-1.055,2.856,0.046,3.923
		c1.081,1.067,2.844,1.056,3.915-0.043c1.074-1.089,1.058-2.852-0.033-3.93C27.659,64.962,25.906,64.984,24.823,66.078z
		 M34.904,75.96c1.064-1.094,1.055-2.855-0.052-3.929c-1.097-1.073-2.855-1.051-3.92,0.044c-1.074,1.083-1.06,2.846,0.033,3.919
		C32.056,77.065,33.82,77.046,34.904,75.96z M41.001,81.947c1.069-1.096,1.053-2.862-0.034-3.93
		c-1.105-1.073-2.865-1.062-3.939,0.033c-1.069,1.096-1.053,2.856,0.044,3.93C38.165,83.06,39.925,83.041,41.001,81.947z
		 M13.946,76.956c-1.064,1.084-1.053,2.857,0.042,3.918c1.098,1.084,2.855,1.062,3.92-0.032c1.076-1.084,1.06-2.847-0.033-3.93
		C16.789,75.834,15.027,75.851,13.946,76.956z M20.053,82.933c-1.069,1.094-1.059,2.867,0.042,3.938
		c1.097,1.067,2.862,1.051,3.935-0.043c1.069-1.095,1.052-2.852-0.047-3.918C22.89,81.826,21.136,81.851,20.053,82.933z
		 M26.158,88.929c-1.064,1.089-1.054,2.845,0.043,3.923c1.094,1.078,2.866,1.057,3.929-0.032c1.064-1.089,1.053-2.862-0.04-3.94
		C28.986,87.823,27.232,87.835,26.158,88.929z M26.27,78.544c1.081-1.084,1.081-2.847,0-3.93c-1.083-1.084-2.848-1.084-3.929,0
		c-1.081,1.083-1.081,2.846,0,3.918C23.426,79.627,25.175,79.627,26.27,78.544z M28.392,80.666c-1.085,1.072-1.081,2.834,0,3.92
		c1.076,1.082,2.834,1.082,3.915,0c1.09-1.086,1.09-2.848,0-3.931C31.227,79.566,29.468,79.566,28.392,80.666z M103.01,70.608
		c2.676,2.66,4.094,6.238,3.996,10.09c-0.088,3.787-1.643,7.366-4.361,10.113l-11.78,11.765c-2.825,2.829-6.546,4.377-10.448,4.377
		c-3.709,0-7.168-1.411-9.74-3.983L53.5,85.8l-17.168,17.159c-2.572,2.572-6.03,3.994-9.732,3.994
		c-3.918,0-7.628-1.553-10.457-4.377L4.376,90.801c-5.68-5.676-5.855-14.736-0.386-20.192l17.162-17.163L3.991,36.275
		c-5.469-5.467-5.278-14.528,0.386-20.194L16.143,4.302c5.502-5.483,14.906-5.686,20.194-0.38L53.5,21.089L70.676,3.922
		c5.294-5.3,14.709-5.103,20.192,0.38l11.781,11.768c2.719,2.736,4.281,6.334,4.361,10.121c0.104,3.85-1.317,7.419-3.993,10.085
		L85.864,53.451L103.01,70.608z M57.452,25.041l24.426,24.424l17.168-17.174c1.563-1.567,2.414-3.691,2.354-5.989
		c-0.057-2.342-1.031-4.566-2.732-6.282L86.887,8.253c-1.759-1.76-4.071-2.733-6.48-2.733c-2.217,0-4.277,0.829-5.785,2.353
		L57.452,25.041z M68.155,44.315l-5.549-5.545c-2.673-2.673-6.132-4.271-9.262-4.271c-1.378,0-3.357,0.331-4.87,1.839L36.412,48.401
		c-1.464,1.463-2.08,3.656-1.749,6.186c0.375,2.802,1.86,5.636,4.167,7.939l5.544,5.549c2.678,2.676,6.133,4.257,9.261,4.257
		c1.389,0,3.361-0.323,4.875-1.822l12.058-12.07C73.748,55.271,72.641,48.805,68.155,44.315z M53.629,29.147l-0.133-0.14
		l-0.135,0.128C53.447,29.136,53.54,29.147,53.629,29.147z M77.917,53.432l-0.012-0.011v0.011H77.917z M25.11,49.473l24.419-24.427
		L32.366,7.877c-1.52-1.518-3.577-2.353-5.778-2.353c-2.43,0-4.729,0.975-6.493,2.733L8.322,20.036
		c-3.492,3.48-3.658,8.988-0.38,12.266L25.11,49.473z M49.534,81.826L25.115,57.399L7.946,74.559
		c-3.272,3.284-3.11,8.789,0.38,12.279L20.1,98.604c3.378,3.371,9.089,3.578,12.271,0.383L49.534,81.826z M101.403,80.557
		c0.07-2.287-0.778-4.421-2.354-5.986L81.895,57.399L57.467,81.826l17.172,17.171c3.147,3.158,8.877,2.982,12.263-0.394
		l11.78-11.766C100.375,85.143,101.347,82.898,101.403,80.557z M14.198,26.28c-1.064,1.086-1.052,2.846,0.052,3.92
		c1.087,1.078,2.853,1.053,3.922-0.033c1.072-1.086,1.053-2.851-0.044-3.929C17.042,25.164,15.281,25.175,14.198,26.28z
		 M24.158,24.072c1.074-1.1,1.053-2.87-0.036-3.94c-1.092-1.058-2.851-1.053-3.927,0.044c-1.069,1.1-1.053,2.859,0.044,3.929
		C21.321,25.175,23.085,25.164,24.158,24.072z M30.152,17.965c1.074-1.095,1.053-2.859-0.033-3.929
		c-1.095-1.069-2.865-1.058-3.936,0.033c-1.069,1.1-1.058,2.859,0.04,3.934C27.318,19.079,29.072,19.057,30.152,17.965z
		 M25.087,37.15c-1.072,1.091-1.053,2.851,0.034,3.929c1.09,1.07,2.856,1.051,3.928-0.036c1.071-1.096,1.054-2.856-0.04-3.925
		C27.923,36.034,26.163,36.05,25.087,37.15z M31.077,31.043c-1.082,1.103-1.06,2.856,0.032,3.926c1.095,1.07,2.86,1.059,3.929-0.033
		c1.069-1.097,1.054-2.871-0.039-3.929C33.906,29.927,32.146,29.943,31.077,31.043z M40.99,24.901
		c-1.081-1.07-2.854-1.058-3.929,0.033c-1.064,1.105-1.053,2.864,0.047,3.94c1.09,1.065,2.845,1.053,3.926-0.044
		C42.103,27.735,42.087,25.971,40.99,24.901z M26.704,32.691c1.083-1.089,1.09-2.843,0-3.929c-1.081-1.075-2.839-1.075-3.926,0
		c-1.081,1.086-1.081,2.846,0,3.935C23.865,33.777,25.612,33.777,26.704,32.691z M28.819,22.715
		c-1.083,1.083-1.083,2.842,0.012,3.929c1.081,1.075,2.834,1.075,3.915,0c1.088-1.086,1.095-2.84,0.004-3.929
		C31.666,21.628,29.912,21.628,28.819,22.715z M66.096,78.166c-1.056,1.094-1.05,2.861,0.045,3.928
		c1.094,1.078,2.863,1.057,3.929-0.032c1.072-1.094,1.056-2.851-0.044-3.929C68.934,77.065,67.18,77.077,66.096,78.166z
		 M76.055,75.972c1.068-1.096,1.051-2.867-0.032-3.94c-1.094-1.061-2.862-1.051-3.929,0.044c-1.083,1.095-1.06,2.867,0.033,3.929
		C73.226,77.077,74.972,77.065,76.055,75.972z M82.059,69.864c1.068-1.092,1.051-2.856-0.05-3.927
		c-1.094-1.074-2.854-1.053-3.923,0.03c-1.073,1.096-1.062,2.856,0.032,3.94C79.208,70.98,80.971,70.958,82.059,69.864z
		 M76.975,89.05c-1.07,1.094-1.062,2.856,0.033,3.928c1.096,1.068,2.856,1.051,3.93-0.032c1.065-1.104,1.056-2.862-0.032-3.929
		C79.809,87.944,78.058,87.949,76.975,89.05z M82.974,82.942c-1.079,1.094-1.056,2.857,0.037,3.929
		c1.079,1.067,2.858,1.059,3.923-0.033c1.073-1.104,1.056-2.872-0.043-3.939C85.813,81.837,84.044,81.851,82.974,82.942z
		 M88.948,76.836c-1.056,1.102-1.051,2.856,0.044,3.94c1.095,1.066,2.846,1.05,3.929-0.05s1.063-2.857-0.033-3.924
		C91.793,75.73,90.042,75.742,88.948,76.836z M78.6,84.586c1.078-1.086,1.092-2.837,0.014-3.92c-1.097-1.084-2.848-1.084-3.932,0
		c-1.094,1.083-1.094,2.846,0,3.93C75.766,85.679,77.511,85.679,78.6,84.586z M80.718,74.624c-1.083,1.073-1.083,2.836,0,3.92
		c1.08,1.083,2.845,1.083,3.929,0c1.078-1.084,1.078-2.833,0-3.92C83.563,73.53,81.802,73.53,80.718,74.624z"/>
</g>
<g>
</g>
<g>
</g>
<g>
</g>
<g>
</g>
<g>
</g>
<g>
</g>
<g>
</g>
<g>
</g>
<g>
</g>
<g>
</g>
<g>
</g>
<g>
</g>
<g>
</g>
<g>
</g>
<g>
</g>
</svg>
