<?xml version="1.0" encoding="iso-8859-1"?>
<!-- Generator: Adobe Illustrator 16.0.0, SVG Export Plug-In . SVG Version: 6.00 Build 0)  -->
<!DOCTYPE svg PUBLIC "-//W3C//DTD SVG 1.1//EN" "http://www.w3.org/Graphics/SVG/1.1/DTD/svg11.dtd">
<svg version="1.1" id="Capa_1" xmlns="http://www.w3.org/2000/svg" xmlns:xlink="http://www.w3.org/1999/xlink" x="0px" y="0px"
	 width="103.212px" height="103.212px" viewBox="0 0 103.212 103.212" style="enable-background:new 0 0 103.212 103.212;"
	 xml:space="preserve">
<g>
	<path d="M50.788,89.205c0,1.542-1.255,2.802-2.801,2.802c-13.128,0-23.813-10.677-23.813-23.815c0-1.548,1.256-2.802,2.802-2.802
		c1.545,0,2.801,1.254,2.801,2.802c0,10.042,8.169,18.212,18.211,18.212C49.533,86.403,50.788,87.656,50.788,89.205z M61.437,58.019
		h-2.32V34.875h2.32h8.887c2.245,0,3.982,0.514,5.253,1.552c1.259,1.03,1.882,2.458,1.882,4.303c0,1.926-0.7,3.384-2.121,4.375
		c-0.232,0.164-0.483,0.32-0.766,0.46c0.545,0.208,1.026,0.46,1.442,0.757c1.49,1.022,2.222,2.5,2.222,4.452
		c0,2.363-0.731,4.164-2.206,5.396c-1.466,1.236-3.605,1.849-6.416,1.849H61.437z M63.746,43.934h5.521
		c1.21,0,2.112-0.225,2.699-0.673c0.603-0.446,0.896-1.135,0.896-2.043c0-0.791-0.317-1.379-0.942-1.765
		c-0.627-0.394-1.569-0.583-2.845-0.583h-5.341L63.746,43.934L63.746,43.934z M63.746,53.992h5.877c1.261,0,2.2-0.268,2.835-0.814
		c0.624-0.554,0.941-1.375,0.941-2.474c0-0.968-0.329-1.685-0.975-2.162c-0.635-0.481-1.606-0.721-2.905-0.721h-5.773V53.992z
		 M82.537,63.89c0.285,1.532,0.473,3.01,0.473,4.301c0,19.311-15.717,35.021-35.022,35.021c-19.308,0-35.021-15.711-35.021-35.021
		c0-18.445,31.369-64.974,32.702-66.941c0.374-0.566,0.945-0.971,1.599-1.138c1.823-0.449,3.068-0.764,17.848,24.867
		c0.892-0.112,1.791-0.273,2.72-0.273c12.355,0,22.413,10.052,22.413,22.413C90.247,53.822,87.215,59.787,82.537,63.89z
		 M67.833,30.304c-9.264,0-16.808,7.541-16.808,16.81c0,9.264,7.544,16.81,16.808,16.81c9.265,0,16.81-7.552,16.81-16.81
		C84.643,37.838,77.098,30.304,67.833,30.304z M77.307,67.354c-2.895,1.357-6.073,2.184-9.468,2.184
		c-12.367,0-22.412-10.057-22.412-22.413c0-9.392,5.81-17.411,14.007-20.745c-4.595-7.849-8.918-14.613-11.447-18.483
		c-9.962,15.195-29.412,47.507-29.412,60.306c0,16.219,13.195,29.417,29.417,29.417c16.225,0,29.418-13.198,29.418-29.417
		C77.406,67.951,77.328,67.601,77.307,67.354z"/>
</g>
<g>
</g>
<g>
</g>
<g>
</g>
<g>
</g>
<g>
</g>
<g>
</g>
<g>
</g>
<g>
</g>
<g>
</g>
<g>
</g>
<g>
</g>
<g>
</g>
<g>
</g>
<g>
</g>
<g>
</g>
</svg>
