<?xml version="1.0" encoding="iso-8859-1"?>
<!-- Generator: Adobe Illustrator 16.0.0, SVG Export Plug-In . SVG Version: 6.00 Build 0)  -->
<!DOCTYPE svg PUBLIC "-//W3C//DTD SVG 1.1//EN" "http://www.w3.org/Graphics/SVG/1.1/DTD/svg11.dtd">
<svg version="1.1" id="Capa_1" xmlns="http://www.w3.org/2000/svg" xmlns:xlink="http://www.w3.org/1999/xlink" x="0px" y="0px"
	 width="96.888px" height="96.887px" viewBox="0 0 96.888 96.887" style="enable-background:new 0 0 96.888 96.887;"
	 xml:space="preserve">
<g>
	<path d="M51.25,29.193v-2.93h5.065c1.543,0,2.802-1.256,2.802-2.802c0-1.545-1.259-2.801-2.802-2.801H51.25v-1.508
		c4.036-1.214,7.004-4.919,7.004-9.346C58.254,4.4,53.853,0,48.445,0c-5.404,0-9.804,4.4-9.804,9.806
		c0,4.427,2.963,8.137,7.003,9.346v1.508h-5.063c-1.543,0-2.803,1.256-2.803,2.801c0,1.546,1.26,2.802,2.803,2.802h5.063v2.914
		c-10.826,1.108-18.44,8.468-18.44,18.418v1.222c0,6.478,2.993,14.396,17.095,15.348l1.32,0.132c0.01,0,0.015,0,0.025,0v19.021
		c-2.503-0.35-5.534-1.619-9.458-8.399c-0.773-1.34-2.481-1.801-3.832-1.035c-1.333,0.783-1.792,2.491-1.032,3.837
		c5.255,9.105,10.097,10.769,14.311,11.229v5.138c0,1.544,1.258,2.802,2.802,2.802c1.545,0,2.802-1.258,2.802-2.802v-5.239
		c3.255-0.518,6.149-1.841,8.389-3.932c2.855-2.66,4.432-6.326,4.432-10.233c0-0.054,0.011-0.64,0.011-0.688
		c-0.196-7.913-4.996-13.133-12.831-14.72V34.78c7.288,1.108,12.843,6.416,12.843,12.81c0,1.549,1.253,2.802,2.802,2.802
		c1.537,0,2.802-1.253,2.802-2.802C69.688,38.16,61.634,30.417,51.25,29.193z M44.245,9.806c0-2.32,1.887-4.202,4.2-4.202
		c2.315,0,4.205,1.882,4.205,4.202c0,2.321-1.885,4.203-4.205,4.203C46.128,14.009,44.245,12.127,44.245,9.806z M44.828,58.589
		c-10.641-0.718-12.021-5.598-12.021-9.772v-1.222c0-6.87,5.16-11.852,12.837-12.836v23.923L44.828,58.589z M58.482,73.988
		c0,0.028-0.022,0.596-0.022,0.618c0,2.429-0.939,4.64-2.648,6.222c-1.204,1.122-2.791,1.86-4.562,2.275V65.007
		C55.103,66.08,58.353,68.578,58.482,73.988z"/>
</g>
<g>
</g>
<g>
</g>
<g>
</g>
<g>
</g>
<g>
</g>
<g>
</g>
<g>
</g>
<g>
</g>
<g>
</g>
<g>
</g>
<g>
</g>
<g>
</g>
<g>
</g>
<g>
</g>
<g>
</g>
</svg>
