<?xml version="1.0" encoding="iso-8859-1"?>
<!-- Generator: Adobe Illustrator 16.0.0, SVG Export Plug-In . SVG Version: 6.00 Build 0)  -->
<!DOCTYPE svg PUBLIC "-//W3C//DTD SVG 1.1//EN" "http://www.w3.org/Graphics/SVG/1.1/DTD/svg11.dtd">
<svg version="1.1" id="Capa_1" xmlns="http://www.w3.org/2000/svg" xmlns:xlink="http://www.w3.org/1999/xlink" x="0px" y="0px"
	 width="192.476px" height="192.477px" viewBox="0 0 192.476 192.477" style="enable-background:new 0 0 192.476 192.477;"
	 xml:space="preserve">
<g>
	<path d="M189.68,84.811h-59.817V41.283c0-1.541-1.261-2.802-2.802-2.802H65.316c-1.545,0-2.801,1.261-2.801,2.802V91.43H50.782
		v-5.134c0-1.541-1.261-2.802-2.801-2.802c-1.553,0-2.802,1.261-2.802,2.802v5.134H21.947v-5.134c0-1.541-1.261-2.802-2.801-2.802
		c-1.548,0-2.802,1.261-2.802,2.802v5.134H2.801C1.252,91.43,0,92.69,0,94.23v56.963c0,1.544,1.252,2.802,2.801,2.802h62.503h0.128
		h61.628c0.15,0,0.294-0.065,0.436-0.087c0.143,0.021,0.284,0.087,0.428,0.087h61.751c1.554,0,2.801-1.258,2.801-2.802V87.606
		C192.482,86.072,191.234,84.811,189.68,84.811z M5.608,97.049H16.35v3.731c0,1.538,1.253,2.802,2.801,2.802
		c1.546,0,2.803-1.264,2.803-2.802v-3.731h23.231v3.731c0,1.538,1.259,2.802,2.802,2.802c1.546,0,2.802-1.264,2.802-2.802v-3.731
		H62.52v51.36H5.614L5.608,97.049L5.608,97.049z M124.259,148.409H68.118V94.887c0.057-0.202,0.122-0.41,0.122-0.64
		c0-0.23-0.078-0.438-0.122-0.657V44.101h56.141V148.409z M186.878,148.409h-57.016V90.414h57.016V148.409z M92.666,72.813H77.671
		V57.819h14.994V72.813z M114.716,72.813H99.72V57.819h14.996V72.813z M92.666,93.713H77.671V78.715h14.994V93.713z M114.716,93.713
		H99.72V78.715h14.996V93.713z M92.666,114.608H77.671V99.616h14.994V114.608z M114.716,114.608H99.72V99.616h14.996V114.608z
		 M92.666,135.5H77.671v-14.993h14.994V135.5z M114.716,135.5H99.72v-14.993h14.996V135.5z M154.288,117.12h-15.292v-15.305h15.292
		V117.12z M176.81,117.12h-15.3v-15.305h15.3V117.12z M139,138.455v-15.311h15.288v15.311H139z M176.81,138.455h-15.3v-15.311h15.3
		V138.455z M146.593,73.112V47.795c0-1.54,1.26-2.802,2.802-2.802c1.544,0,2.805,1.262,2.805,2.802v9.863h16.936v-9.863
		c0-1.54,1.251-2.802,2.802-2.802c1.541,0,2.801,1.262,2.801,2.802v25.317c0,1.539-1.26,2.801-2.801,2.801
		c-1.551,0-2.802-1.262-2.802-2.801v-9.851H152.2v9.851c0,1.539-1.261,2.801-2.805,2.801
		C147.853,75.913,146.593,74.651,146.593,73.112z M25.986,112.977h18.609v3.897l-10.863,22.468h-6.523l10.858-21.21v-0.087H25.986
		V112.977z"/>
</g>
<g>
</g>
<g>
</g>
<g>
</g>
<g>
</g>
<g>
</g>
<g>
</g>
<g>
</g>
<g>
</g>
<g>
</g>
<g>
</g>
<g>
</g>
<g>
</g>
<g>
</g>
<g>
</g>
<g>
</g>
</svg>
