<?xml version="1.0" encoding="iso-8859-1"?>
<!-- Generator: Adobe Illustrator 16.0.0, SVG Export Plug-In . SVG Version: 6.00 Build 0)  -->
<!DOCTYPE svg PUBLIC "-//W3C//DTD SVG 1.1//EN" "http://www.w3.org/Graphics/SVG/1.1/DTD/svg11.dtd">
<svg version="1.1" id="Capa_1" xmlns="http://www.w3.org/2000/svg" xmlns:xlink="http://www.w3.org/1999/xlink" x="0px" y="0px"
	 width="127.199px" height="127.2px" viewBox="0 0 127.199 127.2" style="enable-background:new 0 0 127.199 127.2;"
	 xml:space="preserve">
<g>
	<path d="M72.022,100.897c0,1.679-1.365,3.026-3.026,3.026h-2.37v2.376c0,1.667-1.354,3.026-3.023,3.026s-3.026-1.359-3.026-3.026
		v-2.376h-2.373c-1.67,0-3.026-1.348-3.026-3.026c0-1.667,1.356-3.026,3.026-3.026h2.373v-2.364c0-1.679,1.356-3.026,3.026-3.026
		s3.023,1.348,3.023,3.026v2.364h2.37C70.657,97.871,72.022,99.23,72.022,100.897z M110.685,74.594v41.931
		c0,1.679-1.354,3.026-3.025,3.026h-9.836v7.648H83.661v-7.648H43.533v7.648H29.371v-7.648h-9.83c-1.673,0-3.026-1.348-3.026-3.026
		V74.594c0-23.493,18.042-38.092,47.082-38.092C92.634,36.502,110.685,51.102,110.685,74.594z M104.632,74.594
		c0-20.062-15.344-32.04-41.035-32.04c-25.694,0-41.029,11.978-41.029,32.04v38.904h82.07L104.632,74.594L104.632,74.594z
		 M99.897,74.594v11.81c0,1.66-1.354,3.026-3.026,3.026h-66.54c-1.67,0-3.026-1.366-3.026-3.026v-11.81
		c0-17.349,13.231-27.299,36.292-27.299C86.676,47.295,99.897,57.251,99.897,74.594z M93.845,74.594
		c0-17.562-16.449-21.247-30.248-21.247c-13.792,0-30.239,3.679-30.239,21.247v8.783h60.487V74.594z M39.059,95.341
		c-3.068,0-5.562,2.494-5.562,5.556c0,3.073,2.495,5.567,5.562,5.567c3.07,0,5.57-2.494,5.57-5.567
		C44.635,97.835,42.135,95.341,39.059,95.341z M88.142,95.341c-3.086,0-5.574,2.494-5.574,5.556c0,3.073,2.488,5.567,5.574,5.567
		c3.073,0,5.562-2.494,5.562-5.567C93.703,97.835,91.215,95.341,88.142,95.341z M116.2,42.232c-0.054,0.893-0.509,1.72-1.236,2.246
		c-0.727,0.535-1.643,0.715-2.518,0.497c-4.817-1.203-9.492-2.601-14.156-3.993c-3.7-1.114-7.412-2.222-11.195-3.227
		c-1.418-0.376-2.37-1.738-2.222-3.201c0.372-4.104,0.786-8.16,1.205-12.19c-13.458-2.651-31.711-2.495-45.028,0.398
		c0.151,1.52,0.352,3.112,0.553,4.711c0.307,2.498,0.629,5.077,0.804,7.566c0.104,1.421-0.804,2.722-2.178,3.121
		c-3.833,1.108-7.604,2.282-11.381,3.458c-4.616,1.439-9.236,2.899-13.967,4.194c-0.26,0.074-0.535,0.109-0.807,0.109
		c-0.617,0-1.22-0.189-1.737-0.553c-0.736-0.514-1.209-1.342-1.277-2.237c-0.677-8.553,0.225-17.227,2.668-25.774
		c0.189-0.665,0.606-1.247,1.17-1.64C28.124,6.452,42.903,1.215,58.833,0.163C60.612,0.042,62.373,0,64.123,0
		c16.506,0,33.534,5.278,47.945,14.872c0.573,0.372,0.98,0.919,1.193,1.561C115.738,23.853,116.785,33.003,116.2,42.232z
		 M110.295,38.16c0.101-6.765-0.763-13.313-2.453-18.834C94.596,10.754,79.109,6.053,64.117,6.053c-1.617,0-3.245,0.047-4.886,0.151
		C44.774,7.158,31.33,11.819,19.254,20.07c-1.694,6.263-2.48,12.602-2.347,18.87c3.408-0.984,6.771-2.045,10.137-3.097
		c3.026-0.946,6.058-1.889,9.114-2.802c-0.163-1.605-0.37-3.228-0.562-4.817c-0.334-2.672-0.653-5.278-0.786-7.64
		c-0.086-1.454,0.872-2.755,2.27-3.112c8-2.039,17.522-3.115,27.532-3.115c9.188,0,17.995,0.913,25.461,2.648
		c1.495,0.346,2.494,1.755,2.323,3.274c-0.443,4.069-0.869,8.148-1.266,12.277c2.991,0.833,5.94,1.711,8.902,2.595
		C103.427,36.207,106.843,37.223,110.295,38.16z"/>
</g>
<g>
</g>
<g>
</g>
<g>
</g>
<g>
</g>
<g>
</g>
<g>
</g>
<g>
</g>
<g>
</g>
<g>
</g>
<g>
</g>
<g>
</g>
<g>
</g>
<g>
</g>
<g>
</g>
<g>
</g>
</svg>
