<?xml version="1.0" encoding="iso-8859-1"?>
<!-- Generator: Adobe Illustrator 16.0.0, SVG Export Plug-In . SVG Version: 6.00 Build 0)  -->
<!DOCTYPE svg PUBLIC "-//W3C//DTD SVG 1.1//EN" "http://www.w3.org/Graphics/SVG/1.1/DTD/svg11.dtd">
<svg version="1.1" id="Capa_1" xmlns="http://www.w3.org/2000/svg" xmlns:xlink="http://www.w3.org/1999/xlink" x="0px" y="0px"
	 width="113.938px" height="113.938px" viewBox="0 0 113.938 113.938" style="enable-background:new 0 0 113.938 113.938;"
	 xml:space="preserve">
<g>
	<path d="M111.138,2.337H2.802C1.256,2.337,0,3.598,0,5.139V108.8c0,1.544,1.256,2.802,2.802,2.802h39.223h29.888h39.226
		c1.541,0,2.801-1.258,2.801-2.802V5.139C113.938,3.598,112.679,2.337,111.138,2.337z M108.336,105.998H74.714v-52.3
		c0-1.542-1.257-2.803-2.802-2.803H42.024c-1.545,0-2.802,1.261-2.802,2.803v52.3H5.604V7.94h102.732V105.998z M43.43,30.813
		c0-1.541,1.256-2.802,2.802-2.802h7.935v-7.935c0-1.541,1.256-2.802,2.803-2.802c1.544,0,2.802,1.261,2.802,2.802v7.935h7.933
		c1.537,0,2.802,1.261,2.802,2.802s-1.265,2.801-2.802,2.801h-7.933v7.935c0,1.54-1.258,2.801-2.802,2.801
		c-1.547,0-2.803-1.262-2.803-2.801v-7.935h-7.935C44.687,33.615,43.43,32.354,43.43,30.813z M89.183,100.745h-9.109v-9.114h9.109
		V100.745z M103.54,100.745h-9.114v-9.114h9.114V100.745z M89.183,86.737h-9.109V77.62h9.109V86.737z M103.54,86.737h-9.114V77.62
		h9.114V86.737z M89.183,70.279h-9.109v-9.118h9.109V70.279z M103.54,70.279h-9.114v-9.118h9.114V70.279z M89.183,56.269h-9.109
		v-9.116h9.109V56.269z M103.54,56.269h-9.114v-9.116h9.114V56.269z M89.183,38.758h-9.109v-9.116h9.109V38.758z M103.54,38.758
		h-9.114v-9.116h9.114V38.758z M89.183,24.75h-9.109v-9.111h9.109V24.75z M103.54,24.75h-9.114v-9.111h9.114V24.75z M20.542,100.745
		H11.43v-9.114h9.112V100.745z M34.902,100.745h-9.11v-9.114h9.11V100.745z M20.542,86.737H11.43V77.62h9.112V86.737z
		 M34.902,86.737h-9.11V77.62h9.11V86.737z M20.542,70.279H11.43v-9.118h9.112V70.279z M34.902,70.279h-9.11v-9.118h9.11V70.279z
		 M20.542,56.269H11.43v-9.116h9.112V56.269z M34.902,56.269h-9.11v-9.116h9.11V56.269z M20.542,38.758H11.43v-9.116h9.112V38.758z
		 M34.902,38.758h-9.11v-9.116h9.11V38.758z M20.542,24.75H11.43v-9.111h9.112V24.75z M34.902,24.75h-9.11v-9.111h9.11V24.75z"/>
</g>
<g>
</g>
<g>
</g>
<g>
</g>
<g>
</g>
<g>
</g>
<g>
</g>
<g>
</g>
<g>
</g>
<g>
</g>
<g>
</g>
<g>
</g>
<g>
</g>
<g>
</g>
<g>
</g>
<g>
</g>
</svg>
