<?xml version="1.0" encoding="iso-8859-1"?>
<!-- Generator: Adobe Illustrator 16.0.0, SVG Export Plug-In . SVG Version: 6.00 Build 0)  -->
<!DOCTYPE svg PUBLIC "-//W3C//DTD SVG 1.1//EN" "http://www.w3.org/Graphics/SVG/1.1/DTD/svg11.dtd">
<svg version="1.1" id="Capa_1" xmlns="http://www.w3.org/2000/svg" xmlns:xlink="http://www.w3.org/1999/xlink" x="0px" y="0px"
	 width="147.574px" height="147.574px" viewBox="0 0 147.574 147.574" style="enable-background:new 0 0 147.574 147.574;"
	 xml:space="preserve">
<g>
	<path d="M147.568,73.79c0,7.104-5.758,12.861-12.862,12.861c-6.053,0-11.101-4.196-12.466-9.835h-16.219
		c-0.627,6.685-3.228,12.731-7.282,17.626l11.449,11.455c4.947-3.015,11.484-2.424,15.775,1.867c5.024,5.013,5.024,13.17,0,18.193
		c-5.023,5.024-13.181,5.024-18.205,0c-4.279-4.291-4.882-10.816-1.855-15.764L94.448,98.733c-4.9,4.066-10.953,6.673-17.635,7.294
		v16.207c5.647,1.377,9.832,6.413,9.832,12.478c0,7.111-5.757,12.862-12.858,12.862c-7.105,0-12.862-5.751-12.862-12.862
		c0-6.064,4.188-11.101,9.836-12.478v-16.207c-6.682-0.633-12.735-3.228-17.632-7.294l-11.458,11.461
		c3.015,4.947,2.42,11.473-1.871,15.764c-5.009,5.024-13.163,5.024-18.188,0c-5.024-5.023-5.024-13.181,0-18.193
		c4.286-4.291,10.823-4.882,15.773-1.867l11.452-11.455c-4.061-4.9-6.664-10.941-7.288-17.626H25.336
		c-1.369,5.639-6.416,9.835-12.469,9.835c-7.108,0-12.862-5.757-12.862-12.861c0-7.108,5.754-12.865,12.862-12.865
		c6.053,0,11.1,4.194,12.469,9.836H41.55c0.629-6.688,3.227-12.741,7.288-17.632L37.374,41.665
		c-4.938,3.026-11.476,2.42-15.761-1.865c-5.024-5.015-5.024-13.169,0-18.193c5.024-5.018,13.178-5.018,18.2,0
		c4.273,4.285,4.874,10.823,1.859,15.773l11.458,11.458c4.897-4.061,10.95-6.67,17.632-7.288V25.336
		c-5.648-1.374-9.836-6.41-9.836-12.475C60.925,5.754,66.682,0,73.787,0c7.102,0,12.858,5.754,12.858,12.861
		c0,6.064-4.185,11.101-9.832,12.475V41.55c6.682,0.629,12.734,3.227,17.635,7.288l11.455-11.458
		c-3.026-4.95-2.424-11.488,1.855-15.773c5.024-5.018,13.182-5.018,18.205,0c5.024,5.024,5.013,13.178,0,18.193
		c-4.279,4.285-10.816,4.892-15.764,1.865L98.739,53.129c4.055,4.891,6.661,10.943,7.282,17.632h16.219
		c1.365-5.642,6.413-9.836,12.466-9.836C141.811,60.925,147.568,66.682,147.568,73.79z"/>
</g>
<g>
</g>
<g>
</g>
<g>
</g>
<g>
</g>
<g>
</g>
<g>
</g>
<g>
</g>
<g>
</g>
<g>
</g>
<g>
</g>
<g>
</g>
<g>
</g>
<g>
</g>
<g>
</g>
<g>
</g>
</svg>
