<?xml version="1.0" encoding="iso-8859-1"?>
<!-- Generator: Adobe Illustrator 16.0.0, SVG Export Plug-In . SVG Version: 6.00 Build 0)  -->
<!DOCTYPE svg PUBLIC "-//W3C//DTD SVG 1.1//EN" "http://www.w3.org/Graphics/SVG/1.1/DTD/svg11.dtd">
<svg version="1.1" id="Capa_1" xmlns="http://www.w3.org/2000/svg" xmlns:xlink="http://www.w3.org/1999/xlink" x="0px" y="0px"
	 width="84.515px" height="84.515px" viewBox="0 0 84.515 84.515" style="enable-background:new 0 0 84.515 84.515;"
	 xml:space="preserve">
<g>
	<path d="M45.062,31.341V9.562l10.723,10.714c0.546,0.547,1.27,0.818,1.979,0.818c0.724,0,1.434-0.282,1.98-0.818
		c1.089-1.094,1.089-2.87,0-3.961l-15.497-15.5c-1.091-1.087-2.867-1.087-3.961,0l-15.5,15.5c-1.09,1.091-1.09,2.867,0,3.961
		c1.095,1.091,2.871,1.091,3.962,0L39.458,9.573v21.768c-13.403,1.426-23.921,12.676-23.925,26.454
		c0.004,14.72,11.997,26.709,26.722,26.72l0,0c14.744-0.011,26.727-12,26.727-26.729C68.981,44.006,58.476,32.767,45.062,31.341z
		 M42.26,78.9c-11.644-0.011-21.119-9.473-21.124-21.11c0.005-11.656,9.474-21.131,21.119-21.131
		c11.648,0,21.123,9.475,21.123,21.127C63.386,69.428,53.912,78.89,42.26,78.9z"/>
</g>
<g>
</g>
<g>
</g>
<g>
</g>
<g>
</g>
<g>
</g>
<g>
</g>
<g>
</g>
<g>
</g>
<g>
</g>
<g>
</g>
<g>
</g>
<g>
</g>
<g>
</g>
<g>
</g>
<g>
</g>
</svg>
