<?xml version="1.0" encoding="iso-8859-1"?>
<!-- Generator: Adobe Illustrator 16.0.0, SVG Export Plug-In . SVG Version: 6.00 Build 0)  -->
<!DOCTYPE svg PUBLIC "-//W3C//DTD SVG 1.1//EN" "http://www.w3.org/Graphics/SVG/1.1/DTD/svg11.dtd">
<svg version="1.1" id="Capa_1" xmlns="http://www.w3.org/2000/svg" xmlns:xlink="http://www.w3.org/1999/xlink" x="0px" y="0px"
	 width="84.05px" height="84.05px" viewBox="0 0 84.05 84.05" style="enable-background:new 0 0 84.05 84.05;" xml:space="preserve"
	>
<g>
	<path d="M81.249,24.14H59.908V2.802C59.908,1.255,58.655,0,57.106,0h-30.17c-1.548,0-2.802,1.255-2.802,2.802V24.14H2.802
		C1.256,24.14,0,25.396,0,26.941v30.176c0,1.542,1.256,2.802,2.802,2.802H24.14v21.329c0,1.542,1.256,2.802,2.802,2.802h30.175
		c1.544,0,2.802-1.26,2.802-2.802V59.906h21.33c1.543,0,2.802-1.252,2.802-2.801v-30.17C84.05,25.39,82.792,24.14,81.249,24.14z
		 M78.447,54.304H57.106c-1.541,0-2.802,1.259-2.802,2.802v21.341H29.738V57.105c0-1.543-1.256-2.802-2.802-2.802H5.604V29.731
		h21.338c1.547,0,2.802-1.256,2.802-2.801V5.603h24.572v21.338c0,1.545,1.259,2.801,2.802,2.801h21.33V54.304z"/>
</g>
<g>
</g>
<g>
</g>
<g>
</g>
<g>
</g>
<g>
</g>
<g>
</g>
<g>
</g>
<g>
</g>
<g>
</g>
<g>
</g>
<g>
</g>
<g>
</g>
<g>
</g>
<g>
</g>
<g>
</g>
</svg>
