<?xml version="1.0" encoding="iso-8859-1"?>
<!-- Generator: Adobe Illustrator 16.0.0, SVG Export Plug-In . SVG Version: 6.00 Build 0)  -->
<!DOCTYPE svg PUBLIC "-//W3C//DTD SVG 1.1//EN" "http://www.w3.org/Graphics/SVG/1.1/DTD/svg11.dtd">
<svg version="1.1" id="Capa_1" xmlns="http://www.w3.org/2000/svg" xmlns:xlink="http://www.w3.org/1999/xlink" x="0px" y="0px"
	 width="100.614px" height="100.614px" viewBox="0 0 100.614 100.614" style="enable-background:new 0 0 100.614 100.614;"
	 xml:space="preserve">
<g>
	<path d="M38.446,33.585c0,1.546-1.258,2.802-2.801,2.802c-1.214,0-2.386,0.331-3.471,0.962c-2.557,1.475-4.137,4.389-4.137,7.593
		c0,0.914,0.14,1.827,0.421,2.711c0.033,0.096,0.183,0.583,0.202,0.689c0.044,0.102,0.564,0.887,0.952,1.491
		c1.256,1.954,2.93,4.558,4.049,7.962c0.485,1.477-0.316,3.053-1.787,3.534c-0.29,0.099-0.582,0.137-0.866,0.137
		c-1.176,0-2.276-0.756-2.668-1.938c-0.892-2.708-2.225-4.787-3.406-6.631c-0.604-0.937-1.389-2.217-1.524-2.549
		c-0.068-0.157-0.202-0.745-0.236-0.915c-0.505-1.527-0.735-3.007-0.735-4.503c0-5.218,2.656-9.976,6.934-12.452
		c1.954-1.135,4.069-1.718,6.273-1.718C37.188,30.784,38.446,32.04,38.446,33.585z M86.1,50.442v41.767
		c0,4.631-3.781,8.405-8.405,8.405c-3.737,0-6.878-2.462-7.973-5.843c-1.434,0.794-2.966,1.454-4.578,1.971
		c-0.275,0.086-0.565,0.13-0.839,0.13c-0.585,0-1.172-0.187-1.663-0.554c-0.71-0.529-1.139-1.367-1.139-2.248
		c0.022-14.642-5.963-24.597-11.344-24.597c-5.379,0-11.37,9.947-11.37,24.225c0,0.892-0.413,1.909-1.137,2.451
		c-0.717,0.524-1.636,0.849-2.489,0.58c-9.065-2.862-14.934-9.812-14.934-17.707c0.529-5.286,1.011-14.228,0.143-16.87
		c-0.556-1.697-1.543-3.218-2.5-4.695c-1.165-1.789-2.363-3.65-2.829-5.855c-0.638-1.98-1.004-4.312-1.004-6.659
		c0-8.187,4.266-15.757,11.131-19.729c7.993-4.599,18.377-3.261,24.989,2.968c5.4-5.081,13.286-6.851,20.345-4.85l-3.901-7.298
		c-0.646-1.188-0.343-2.654,0.7-3.502L82.014,0.625c1.201-0.979,2.965-0.782,3.938,0.416c0.975,1.204,0.788,2.958-0.416,3.94
		L72.633,15.423l7.541,14.072c0.219,0.397,0.346,0.856,0.346,1.316V41.9c0,0.219-0.084,0.405-0.127,0.599
		C83.687,43.643,86.1,46.748,86.1,50.442z M66.985,89.895c0.844-0.448,1.555-1.033,2.301-1.581V50.442
		c0-3.694,2.405-6.81,5.724-7.938c-0.051-0.194-0.121-0.379-0.121-0.599v-9.924c-0.812-0.711-1.638-1.379-2.567-1.921
		c-6.57-3.778-15.21-2.019-19.989,4.011c-0.531,0.667-1.337,1.054-2.194,1.054c-0.859,0-1.671-0.392-2.202-1.054
		c-4.774-6.041-13.405-7.789-19.981-4.011c-5.139,2.98-8.335,8.695-8.335,14.882c0,1.775,0.276,3.54,0.812,5.239
		c0.327,1.458,1.156,2.745,2.118,4.239c1.095,1.695,2.337,3.615,3.128,5.985c1.485,4.541,0.357,16.536,0.117,18.9
		c0.012,4.158,2.876,8.143,7.539,10.627c1.075-15.016,8.068-26.053,16.809-26.053C58.92,63.876,65.946,75.032,66.985,89.895z
		 M80.496,50.442c0-1.543-1.265-2.804-2.802-2.804c-1.549,0-2.802,1.261-2.802,2.804v41.767c0,1.532,1.253,2.802,2.802,2.802
		c1.537,0,2.802-1.27,2.802-2.802V50.442z"/>
</g>
<g>
</g>
<g>
</g>
<g>
</g>
<g>
</g>
<g>
</g>
<g>
</g>
<g>
</g>
<g>
</g>
<g>
</g>
<g>
</g>
<g>
</g>
<g>
</g>
<g>
</g>
<g>
</g>
<g>
</g>
</svg>
