<?xml version="1.0" encoding="iso-8859-1"?>
<!-- Generator: Adobe Illustrator 16.0.0, SVG Export Plug-In . SVG Version: 6.00 Build 0)  -->
<!DOCTYPE svg PUBLIC "-//W3C//DTD SVG 1.1//EN" "http://www.w3.org/Graphics/SVG/1.1/DTD/svg11.dtd">
<svg version="1.1" id="Capa_1" xmlns="http://www.w3.org/2000/svg" xmlns:xlink="http://www.w3.org/1999/xlink" x="0px" y="0px"
	 width="142.545px" height="142.546px" viewBox="0 0 142.545 142.546" style="enable-background:new 0 0 142.545 142.546;"
	 xml:space="preserve">
<g>
	<path d="M46.496,0L32.46,13.105v3.754h-5.745L12.679,29.964v112.582h83.37v-3.371l10.957-9.74h3.079v-3.743h5.746v-3.371
		l10.965-9.74h3.07V0H46.496z M77.512,82.101c-0.472,2.207-2.582,4.056-3.492,6.83c-0.914,2.769,0,11.759,0,11.759
		c0,4.537-3.574,8.395-8.619,9.981c0-0.083,0.017-0.153,0.017-0.247c0-9.903-4.213-17.931-9.409-17.931
		c-5.199,0-9.413,8.037-9.413,17.931c0,0.094,0.011,0.164,0.011,0.247c-5.036-1.587-8.607-5.455-8.607-9.981
		c0,0,0.908-8.99,0-11.781c-0.902-2.769-3.026-4.601-3.479-6.808c-0.396-1.274-0.622-2.625-0.622-4.038
		c0-4.951,2.61-9.247,6.459-11.485c1.788-1.048,3.85-1.631,6.021-1.631c3.875,0,7.339,1.85,9.63,4.744
		c2.292-2.894,5.743-4.744,9.633-4.744c2.167,0,4.232,0.583,6.022,1.631c3.855,2.229,6.46,6.534,6.46,11.485
		C78.134,79.476,77.928,80.831,77.512,82.101z M106.372,110.097v0.514v1.215v0.761v0.975v11.141v0.492v0.503v1.666l-0.12,0.118
		l-2.224,1.976l-7.979,7.081v-7.103v-1.981v-1.762v-0.509v-0.492v-12.115v-1.965V98.764v-1.735v-1.733V29.964H50.49h-1.209h-0.812
		h-0.388h-1.585H33.45h-0.497H32.46h-3.779h-1.978h-7.352l0.512-0.509l0.509-0.493l5.346-5.25l0.499-0.495l0.492-0.481l1.411-1.39
		l0.567-0.547l0.051-0.047h3.727h0.492h0.499h8.213h1.212h1.204h2.426h1.984h57.885L106.372,110.097L106.372,110.097z
		 M126.157,110.502l-0.118,0.12l-2.218,1.969l-7.984,7.104v-7.104v-1.969V13.105H48.48h-1.984h-7.352l0.504-0.498l0.509-0.495
		l5.339-5.245l0.506-0.481l0.493-0.481l1.429-1.401l0.556,0.01V3.959l0.054-0.055h77.631L126.157,110.502L126.157,110.502z"/>
</g>
<g>
</g>
<g>
</g>
<g>
</g>
<g>
</g>
<g>
</g>
<g>
</g>
<g>
</g>
<g>
</g>
<g>
</g>
<g>
</g>
<g>
</g>
<g>
</g>
<g>
</g>
<g>
</g>
<g>
</g>
</svg>
