<?xml version="1.0" encoding="iso-8859-1"?>
<!-- Generator: Adobe Illustrator 16.0.0, SVG Export Plug-In . SVG Version: 6.00 Build 0)  -->
<!DOCTYPE svg PUBLIC "-//W3C//DTD SVG 1.1//EN" "http://www.w3.org/Graphics/SVG/1.1/DTD/svg11.dtd">
<svg version="1.1" id="Capa_1" xmlns="http://www.w3.org/2000/svg" xmlns:xlink="http://www.w3.org/1999/xlink" x="0px" y="0px"
	 width="128.031px" height="128.031px" viewBox="0 0 128.031 128.031" style="enable-background:new 0 0 128.031 128.031;"
	 xml:space="preserve">
<g>
	<path d="M11.536,55.08h7.325v7.337h-7.325V55.08z M22.53,62.417h7.319V55.08H22.53V62.417z M33.509,62.417h7.328V55.08h-7.328
		V62.417z M11.536,73.597h7.325V66.26h-7.325V73.597z M22.53,73.597h7.319V66.26H22.53V73.597z M33.509,73.597h7.328V66.26h-7.328
		V73.597z M11.536,84.776h7.325v-7.337h-7.325V84.776z M22.53,84.776h7.319v-7.337H22.53V84.776z M33.509,84.776h7.328v-7.337
		h-7.328V84.776z M128.031,46.738c0,2.749-0.414,5.48-1.242,8.086c-0.451,2.244-1.863,4.421-3.228,6.503
		c-1.12,1.742-2.277,3.545-2.947,5.566c-1.023,3.123-0.45,13.646,0.134,19.539c0.024,9.5-6.819,17.586-17.378,20.923
		c-0.305,0.098-0.634,0.14-0.938,0.14c-0.651,0-1.303-0.207-1.851-0.608c-0.792-0.597-1.267-1.522-1.267-2.509
		c0-0.073,0.012-0.354,0.024-0.408c0-16.86-7.124-28.613-13.519-28.613c-6.32,0-13.359,11.509-13.502,28.071
		c0.101,0.305,0.143,0.628,0.143,0.95c0,1.9-1.802,3.386-3.653,3.062c-0.18-0.012-0.362-0.042-0.523-0.098
		c-6.841-2.155-12.066-6.308-14.94-11.441H3.118C1.404,95.901,0,94.507,0,92.784v-52.58c0-1.714,1.404-3.117,3.118-3.117h11.971
		v-4.211c0-1.72,1.397-3.118,3.118-3.118c1.717,0,3.117,1.397,3.117,3.118v4.211h24.064c2.107-5.581,5.992-10.352,11.18-13.369
		c9.414-5.389,21.531-3.76,29.24,3.584c7.69-7.344,19.851-8.967,29.228-3.59C123.062,28.395,128.031,37.205,128.031,46.738z
		 M51.149,89.679C51,88.71,50.881,87.73,50.881,86.731c0.061-0.615,0.119-1.291,0.167-1.955h-6.546v-7.337h6.996
		c0.049-1.327,0.079-2.618,0.079-3.843h-7.075V66.26h6.235c-0.673-1.741-1.666-3.373-2.676-4.933
		c-1.364-2.082-2.762-4.253-3.303-6.795c-0.743-2.302-1.167-5.033-1.167-7.807c0-1.147,0.085-2.271,0.216-3.397h-22.49v2.911
		c0,1.72-1.388,3.118-3.118,3.118c-1.714,0-3.118-1.397-3.118-3.118v-2.911H6.242v46.351H51.149L51.149,89.679z M121.796,46.738
		c0-7.319-3.775-14.066-9.865-17.61c-7.757-4.457-18.012-2.387-23.662,4.759c-1.182,1.477-3.714,1.477-4.884,0
		c-3.629-4.57-8.947-7.2-14.577-7.2c-3.154,0-6.312,0.853-9.109,2.469c-6.08,3.523-9.852,10.27-9.852,17.589
		c0,2.146,0.316,4.241,0.935,6.223c0.38,1.696,1.379,3.23,2.505,4.993c1.291,1.979,2.752,4.238,3.669,7.016
		c1.714,5.285,0.411,19.332,0.131,22.091c0.012,5.03,3.498,9.815,9.158,12.745c1.185-17.671,9.365-30.684,19.576-30.684
		c10.261,0,18.475,13.164,19.613,30.665c5.633-2.947,9.098-7.764,9.098-13.043c-0.256-2.46-1.571-16.508,0.152-21.793
		c0.907-2.776,2.362-5.03,3.641-7.003c1.151-1.763,2.138-3.285,2.43-4.701C121.467,50.939,121.796,48.845,121.796,46.738z
		 M110.116,32.273c-2.265-1.303-4.713-1.967-7.271-1.967c-1.717,0-3.117,1.397-3.117,3.117c0,1.724,1.4,3.118,3.117,3.118
		c1.449,0,2.85,0.39,4.153,1.142c3.044,1.766,4.944,5.246,4.944,9.061c0,1.099-0.171,2.189-0.646,3.666
		c-0.024,0.064-0.061,0.219-0.104,0.387c-0.268,0.457-0.755,1.211-1.163,1.821c-1.431,2.22-3.41,5.282-4.726,9.271
		c-0.535,1.639,0.372,3.398,1.998,3.934c0.328,0.104,0.646,0.146,0.962,0.146c1.315,0,2.533-0.841,2.972-2.156
		c1.06-3.215,2.63-5.662,4.03-7.821c1.425-2.161,1.645-2.654,1.791-3.029c0.061-0.155,0.268-0.94,0.316-1.117
		c0.512-1.662,0.779-3.386,0.779-5.105C118.179,40.694,115.079,35.159,110.116,32.273z"/>
</g>
<g>
</g>
<g>
</g>
<g>
</g>
<g>
</g>
<g>
</g>
<g>
</g>
<g>
</g>
<g>
</g>
<g>
</g>
<g>
</g>
<g>
</g>
<g>
</g>
<g>
</g>
<g>
</g>
<g>
</g>
</svg>
