<?xml version="1.0" encoding="iso-8859-1"?>
<!-- Generator: Adobe Illustrator 16.0.0, SVG Export Plug-In . SVG Version: 6.00 Build 0)  -->
<!DOCTYPE svg PUBLIC "-//W3C//DTD SVG 1.1//EN" "http://www.w3.org/Graphics/SVG/1.1/DTD/svg11.dtd">
<svg version="1.1" id="Capa_1" xmlns="http://www.w3.org/2000/svg" xmlns:xlink="http://www.w3.org/1999/xlink" x="0px" y="0px"
	 width="131.496px" height="131.497px" viewBox="0 0 131.496 131.497" style="enable-background:new 0 0 131.496 131.497;"
	 xml:space="preserve">
<g>
	<path d="M127.661,37.929c-2.364-10.211-9.262-17.696-19.954-21.654c-7.058-2.604-23.95-4.799-31.776,3.854
		c-3.44-2.021-6.771-3.709-9.906-4.927C59.815,6.038,49.32,0,37.431,0C18.395,0,2.909,15.486,2.909,34.516
		c0,13.63,7.964,25.404,19.47,31.022c1.489,2.896,3.292,5.662,5.388,7.95c5.781,6.366,7.444,10.024,8.375,14.203
		c0.225,0.981,0.686,3.659,0.709,4.203c1.495,35.559,13.757,38.958,16.917,39.229c0.877,0.248,1.744,0.372,2.583,0.372
		c1.569,0,3.071-0.407,4.418-1.247c6.218-3.824,8.089-15.409,9.729-25.617c0.585-3.629,1.141-7.058,1.772-9.031
		c0.691-2.14,1.301-3.216,1.661-3.712c0.68,0.804,1.514,2.482,1.644,3.228c0.225,1.524,0.378,3.498,0.556,5.709
		c0.939,11.573,2.352,29.01,14.889,30.299c0.981,0.201,3.15,0.372,5.775-1.218c5.863-3.558,10.178-13.606,12.826-29.885l0.39-2.595
		c0.94-6.401,2.223-15.155,7.442-20.635C123.701,70.255,131.243,53.395,127.661,37.929z M8.974,34.516
		c0-15.699,12.77-28.463,28.472-28.463c15.693,0,28.458,12.764,28.458,28.463c0,15.702-12.765,28.469-28.458,28.469
		c-4.146,0-8.056-0.934-11.611-2.544c-0.121-0.062-0.222-0.139-0.355-0.189C15.765,55.712,8.974,45.927,8.974,34.516z
		 M113.086,72.62c-6.55,6.88-8.045,17.142-9.044,23.938l-0.378,2.494c-3.605,22.118-9.563,26.244-11.184,26.209
		c-0.225-0.077-0.455-0.124-0.674-0.143c-7.672-0.649-8.896-15.758-9.622-24.777c-0.189-2.364-0.367-4.469-0.604-6.1
		c-0.26-1.809-2.654-8.299-7.288-8.684c-5.065-0.324-7.075,6.053-7.772,8.187c-0.769,2.405-1.324,5.899-1.98,9.919
		c-1.221,7.589-3.074,19.067-6.93,21.432c-0.464,0.284-1.15,0.544-2.397,0.154c-0.325-0.112-0.502-0.143-0.851-0.143
		c-0.104,0-10.096-1.158-11.458-33.479c-0.057-1.182-0.665-4.433-0.854-5.26c-1.324-5.923-3.983-10.521-9.806-16.94
		c-0.249-0.272-0.526-0.615-0.804-0.935c1.947,0.344,3.945,0.556,5.99,0.556c19.03,0,34.516-15.498,34.516-34.521
		c0-3.715-0.62-7.306-1.708-10.663c5.468,2.911,11.39,6.937,17.756,12.176c0.573,0.461,1.247,0.686,1.921,0.686
		c0.887,0,1.738-0.375,2.341-1.12c1.064-1.289,0.887-3.183-0.413-4.255c-3.713-3.05-7.271-5.627-10.729-7.947
		c5.656-4.891,18.193-3.771,24.488-1.434c8.818,3.257,14.257,9.103,16.166,17.345C124.671,51.834,118.482,66.958,113.086,72.62z
		 M34.963,36.889H19.37v-0.012c0-2.09,0.526-3.887,1.587-5.376c1.058-1.513,3.044-3.274,5.961-5.332
		c1.306-0.889,2.222-1.738,2.76-2.495c0.538-0.756,0.798-1.607,0.798-2.529c0-1.017-0.29-1.833-0.877-2.438
		c-0.585-0.629-1.363-0.931-2.323-0.931c-1.028,0-1.829,0.387-2.397,1.155c-0.582,0.78-0.848,1.833-0.807,3.153h-4.403
		c-0.08-2.471,0.573-4.444,1.947-5.908c1.375-1.454,3.269-2.167,5.689-2.167c2.246,0,4.087,0.665,5.521,1.998
		c1.416,1.348,2.131,3.074,2.131,5.181c0,1.735-0.399,3.166-1.218,4.303c-0.804,1.144-2.323,2.42-4.551,3.842
		c-2.063,1.321-3.466,2.494-4.217,3.567l-0.015,0.036h10.001L34.963,36.889L34.963,36.889z M46.329,36.889h4.418v-5.036h2.571
		v-3.582h-2.571V14.017h-2.512h-2.518l-8.45,13.938v1.951v1.947h9.055v5.036H46.329z M40.584,28.277l0.189-0.322l5.55-9.206v9.528
		H40.584z M23.263,47.035v5.332h-1.218h-1.238V40.592h1.227h1.229v4.421h4.619v-4.421h1.221h1.235v11.774h-1.229h-1.227v-5.332
		H23.263z M42.103,50.841l-0.059-1.927c-0.023-0.942-0.375-1.619-1.046-2.021c-0.115-0.071-0.249-0.124-0.394-0.186
		c0.26-0.098,0.488-0.225,0.689-0.37c0.762-0.508,1.144-1.336,1.144-2.471c0-0.978-0.346-1.773-1.028-2.376
		c-0.683-0.606-1.593-0.898-2.719-0.898h-4.708h-1.229v11.774h1.235h1.229v-4.661h2.456c0.698,0,1.194,0.122,1.496,0.334
		c0.304,0.233,0.461,0.615,0.473,1.138l0.012,1.099c0.006,0.461,0.035,0.884,0.085,1.31c0.047,0.393,0.104,0.665,0.163,0.78h2.719
		V52.05c-0.195-0.095-0.334-0.216-0.396-0.381C42.165,51.5,42.124,51.235,42.103,50.841z M39.508,45.344
		c-0.322,0.26-0.798,0.388-1.427,0.388h-2.858v-3.104h2.946c0.606,0,1.061,0.127,1.363,0.375c0.301,0.26,0.455,0.641,0.455,1.162
		C39.987,44.686,39.822,45.084,39.508,45.344z M47.051,42.706c-0.364,0.286-0.535,0.653-0.535,1.138
		c0,0.363,0.183,0.629,0.559,0.824c0.363,0.192,1.132,0.417,2.317,0.677c1.714,0.375,2.864,0.837,3.44,1.345
		c0.573,0.485,0.863,1.289,0.863,2.391c0,1.114-0.429,1.986-1.307,2.639c-0.872,0.647-2.051,0.967-3.534,0.967
		c-1.49,0-2.651-0.331-3.494-1.029c-0.839-0.683-1.289-1.664-1.348-2.941h2.371c0.021,0.63,0.254,1.108,0.68,1.439
		c0.422,0.346,1.022,0.509,1.785,0.509c0.786,0,1.404-0.127,1.841-0.388c0.435-0.248,0.665-0.591,0.665-1.04
		c0-0.44-0.163-0.78-0.479-0.981c-0.313-0.204-0.976-0.417-1.986-0.641c-1.876-0.417-3.13-0.884-3.75-1.369
		c-0.629-0.464-0.934-1.22-0.934-2.237c0-1.141,0.405-2.066,1.235-2.731c0.836-0.653,1.948-0.993,3.366-0.993
		c1.318,0,2.391,0.352,3.212,1.041c0.831,0.686,1.289,1.64,1.386,2.822h-2.396c-0.042-0.576-0.29-1.004-0.745-1.344
		c-0.44-0.34-1.034-0.497-1.749-0.497C47.884,42.294,47.394,42.433,47.051,42.706z"/>
</g>
<g>
</g>
<g>
</g>
<g>
</g>
<g>
</g>
<g>
</g>
<g>
</g>
<g>
</g>
<g>
</g>
<g>
</g>
<g>
</g>
<g>
</g>
<g>
</g>
<g>
</g>
<g>
</g>
<g>
</g>
</svg>
