<?xml version="1.0" encoding="iso-8859-1"?>
<!-- Generator: Adobe Illustrator 16.0.0, SVG Export Plug-In . SVG Version: 6.00 Build 0)  -->
<!DOCTYPE svg PUBLIC "-//W3C//DTD SVG 1.1//EN" "http://www.w3.org/Graphics/SVG/1.1/DTD/svg11.dtd">
<svg version="1.1" id="Capa_1" xmlns="http://www.w3.org/2000/svg" xmlns:xlink="http://www.w3.org/1999/xlink" x="0px" y="0px"
	 width="162.025px" height="162.024px" viewBox="0 0 162.025 162.024" style="enable-background:new 0 0 162.025 162.024;"
	 xml:space="preserve">
<g>
	<path d="M153.803,64.61c0.296-1.041,1.897-3.05,3.192-4.667c2.742-3.425,5.586-6.983,4.936-10.648
		c-0.633-3.564-4.392-5.804-8.016-7.971c-1.767-1.052-4.19-2.503-4.699-3.39c-0.502-0.869-0.543-3.68-0.579-5.748
		c-0.059-4.221-0.13-8.595-2.901-10.944c-2.329-1.941-6.821-1.658-11.261-0.951c-2.63,0.426-5.538,0.523-5.78,0.432
		c-0.939-0.352-2.79-2.482-4.144-4.037c-2.767-3.204-5.621-6.514-9.238-6.514c-3.624,0-6.473,3.31-9.239,6.514
		c-1.354,1.555-3.197,3.685-4.148,4.037c-0.219,0.077-3.151-0.012-5.77-0.432c-4.445-0.707-8.938-0.996-11.266,0.958
		c-1.983,1.664-2.56,4.4-2.764,7.341l-9.546-1.076c-5.689-0.617-11.221,1.851-14.629,6.289c-3.396-1.661-7.329-2.24-11.174-1.2
		l-34.826,9.395C3.357,44.315-1.756,53.196,0.555,61.79l21.069,78.123c1.889,7.033,8.293,11.939,15.566,11.939
		c1.419,0,2.84-0.189,4.221-0.567l34.832-9.386c0.532-0.143,1.011-0.379,1.513-0.586c0.03,0.012,0.057,0.023,0.092,0.036l17.9,2.695
		c0.621,0.07,1.236,0.112,1.845,0.112c3.641,0,7.146-1.218,10.024-3.523c3.375-2.684,5.491-6.525,5.97-10.805l3.659-32.497
		c1.076,0.496,2.299,1.17,3.334,1.737c2.92,1.632,5.945,3.322,8.766,3.322c0.756,0,1.483-0.13,2.146-0.367
		c3.398-1.24,4.959-5.337,6.466-9.279c0.728-1.927,1.732-4.575,2.507-5.213c0.78-0.65,3.552-1.183,5.573-1.572
		c4.161-0.792,8.446-1.626,10.262-4.753c1.772-3.094,0.343-7.102-1.053-10.967C154.631,68.452,153.561,65.493,153.803,64.61z
		 M71.91,33.531l10.01,1.129c-0.059,1.413-0.186,2.73-0.508,3.28c-0.503,0.881-2.929,2.332-4.702,3.384
		c-3.632,2.167-7.386,4.413-8.015,7.971c-0.647,3.659,2.193,7.211,4.938,10.648c1.292,1.628,2.899,3.638,3.192,4.667
		c0.242,0.877-0.825,3.836-1.46,5.609c-0.331,0.934-0.671,1.876-0.96,2.811L66.57,43.987c-0.677-2.518-2.016-4.696-3.709-6.528
		C64.991,34.71,68.343,33.129,71.91,33.531z M39.841,145.434c-5.32,1.407-10.953-1.868-12.366-7.104L6.407,60.209
		c-1.445-5.382,1.756-10.932,7.131-12.377l34.826-9.395c0.866-0.228,1.755-0.349,2.639-0.349c2.075,0,4.002,0.695,5.636,1.815
		c0.243,0.284,0.544,0.508,0.89,0.677c1.496,1.297,2.669,2.967,3.207,4.965l21.062,78.119c1.448,5.373-1.749,10.929-7.116,12.365
		L39.841,145.434z M107.587,129.132c-0.308,2.672-1.632,5.071-3.735,6.75c-2.11,1.685-4.723,2.394-7.312,2.146l-11.854-1.785
		c3.035-3.883,4.329-9.043,2.952-14.15L77.303,83.761c2.069,1.094,4.673,1.679,7.285,2.175c2.016,0.373,4.788,0.905,5.557,1.572
		c0.769,0.639,1.772,3.286,2.512,5.214c0.792,2.068,1.607,4.137,2.678,5.852c-2.95,1.584-4.628,4.912-3.718,8.287
		c1.058,3.9,5.095,6.224,9.014,5.172c3.913-1.064,6.229-5.096,5.178-9.021c-0.159-0.591-0.502-1.063-0.792-1.572
		c1.667-0.632,3.375-1.489,5.013-2.394c0.307-0.166,0.649-0.372,0.992-0.544L107.587,129.132z M149.572,72.279
		c0.626,1.761,1.809,5.036,1.519,5.863c-0.614,0.801-4.231,1.489-6.177,1.865c-3.263,0.624-6.342,1.211-8.316,2.867
		c-1.986,1.661-3.104,4.599-4.285,7.714c-0.709,1.861-2.016,5.296-2.854,5.733c0,0-0.03,0.012-0.106,0.012
		c-1.241,0-3.896-1.478-5.822-2.56c-2.896-1.619-5.645-3.15-8.216-3.15s-5.32,1.537-8.216,3.15c-1.928,1.082-4.587,2.56-5.882,2.571
		c-0.887-0.461-2.192-3.907-2.902-5.757c-1.176-3.115-2.299-6.053-4.279-7.702c-1.968-1.655-5.048-2.243-8.311-2.878
		c-1.944-0.375-5.564-1.07-6.15-1.803c-0.322-0.896,0.857-4.17,1.487-5.931c1.211-3.372,2.355-6.549,1.593-9.28
		c-0.624-2.22-2.403-4.454-4.291-6.821c-1.333-1.658-3.801-4.752-3.718-5.792c0.304-0.943,3.464-2.837,5.163-3.857
		c2.852-1.7,5.55-3.31,6.845-5.542c1.294-2.234,1.342-5.382,1.389-8.704c0.029-1.98,0.083-5.68,0.715-6.375
		c0,0,0.343-0.213,1.496-0.213c1.389,0,3.197,0.298,4.941,0.582c1.908,0.308,3.889,0.63,5.639,0.63c1.241,0,2.275-0.151,3.156-0.485
		c2.43-0.878,4.486-3.251,6.661-5.769c1.295-1.486,3.694-4.271,4.646-4.412c0.993,0.133,3.399,2.92,4.688,4.412
		c2.17,2.518,4.221,4.903,6.656,5.769c2.146,0.78,5.544,0.381,8.807-0.133c1.743-0.283,3.559-0.573,4.941-0.573
		c1.069,0,1.431,0.175,1.448,0.175c0.674,0.744,0.727,4.412,0.757,6.404c0.053,3.321,0.094,6.457,1.383,8.697
		c1.3,2.237,3.989,3.854,6.845,5.556c1.696,1.017,4.858,2.899,5.154,3.818c0.101,1.064-2.376,4.165-3.706,5.828
		c-1.886,2.361-3.665,4.596-4.291,6.809C147.219,65.718,148.36,68.901,149.572,72.279z M111.116,49.047
		c0-6.396-3.635-11.112-10.077-11.112c-6.39,0-10.469,5.074-10.469,11.75c0,7.019,4.486,11.275,10.185,11.275
		C106.157,60.966,111.116,56.875,111.116,49.047z M100.919,56.19c-2.535,0-3.865-2.826-3.865-6.735c0-3.748,1.212-6.738,3.801-6.738
		c2.707,0,3.741,2.944,3.741,6.738C104.596,53.66,103.39,56.19,100.919,56.19z M127.98,53.486c-6.391,0-10.475,5.071-10.475,11.748
		c0.065,7.022,4.552,11.269,10.196,11.269c5.42,0,10.367-4.09,10.367-11.916C138.057,58.2,134.428,53.486,127.98,53.486z
		 M127.867,71.732c-2.541,0-3.865-2.825-3.807-6.735c0-3.748,1.147-6.729,3.807-6.729c2.701,0,3.677,2.935,3.677,6.729
		C131.555,69.202,130.337,71.732,127.867,71.732z M127.406,37.935l-21.545,38.695h-4.663l21.474-38.695H127.406z M16.26,66.566
		c-1.058-3.919,1.259-7.95,5.175-9.008c3.919-1.059,7.941,1.265,9.008,5.181c1.052,3.91-1.265,7.947-5.181,9.005
		C21.346,72.799,17.315,70.479,16.26,66.566z M41.227,59.828c-1.058-3.91,1.265-7.953,5.184-9.005
		c3.922-1.062,7.941,1.265,9.005,5.181c1.058,3.916-1.259,7.947-5.175,8.999C46.319,66.076,42.288,63.756,41.227,59.828z M21.769,87
		c-1.052-3.919,1.259-7.95,5.175-9.014c3.922-1.052,7.953,1.265,9.008,5.184c1.058,3.907-1.259,7.938-5.175,9.02
		C26.858,93.241,22.83,90.925,21.769,87z M46.736,80.268c-1.058-3.922,1.265-7.953,5.181-9.005c3.922-1.067,7.947,1.265,9.008,5.175
		c1.052,3.91-1.265,7.95-5.181,9.014C51.825,86.503,47.788,84.187,46.736,80.268z M27.278,107.428
		c-1.061-3.913,1.259-7.944,5.181-8.997c3.916-1.063,7.947,1.254,8.999,5.179c1.067,3.907-1.253,7.938-5.175,9.008
		C32.361,113.669,28.33,111.353,27.278,107.428z M52.245,100.701c-1.061-3.913,1.265-7.944,5.181-8.996
		c3.916-1.064,7.947,1.253,9.005,5.172c1.061,3.919-1.259,7.95-5.175,9.002C57.34,106.942,53.303,104.626,52.245,100.701z
		 M46.972,124.049c1.058,3.901-1.259,7.938-5.175,9.008c-3.916,1.052-7.947-1.265-9.005-5.189c-1.061-3.913,1.259-7.944,5.175-9.009
		C41.889,117.807,45.92,120.124,46.972,124.049z M71.951,117.311c1.052,3.913-1.265,7.956-5.181,9.008
		c-3.916,1.063-7.953-1.265-9.011-5.178c-1.055-3.913,1.271-7.956,5.187-9.009C66.862,111.068,70.893,113.397,71.951,117.311z
		 M103.81,121.199c1.053,3.913-1.265,7.944-5.178,9.009c-3.913,1.063-7.95-1.277-9.014-5.178c-1.053-3.92,1.271-7.951,5.184-9.015
		C98.715,114.958,102.747,117.274,103.81,121.199z"/>
</g>
<g>
</g>
<g>
</g>
<g>
</g>
<g>
</g>
<g>
</g>
<g>
</g>
<g>
</g>
<g>
</g>
<g>
</g>
<g>
</g>
<g>
</g>
<g>
</g>
<g>
</g>
<g>
</g>
<g>
</g>
</svg>
