<?xml version="1.0" encoding="iso-8859-1"?>
<!-- Generator: Adobe Illustrator 16.0.0, SVG Export Plug-In . SVG Version: 6.00 Build 0)  -->
<!DOCTYPE svg PUBLIC "-//W3C//DTD SVG 1.1//EN" "http://www.w3.org/Graphics/SVG/1.1/DTD/svg11.dtd">
<svg version="1.1" id="Capa_1" xmlns="http://www.w3.org/2000/svg" xmlns:xlink="http://www.w3.org/1999/xlink" x="0px" y="0px"
	 width="135.95px" height="135.95px" viewBox="0 0 135.95 135.95" style="enable-background:new 0 0 135.95 135.95;"
	 xml:space="preserve">
<g>
	<path d="M135.95,61.438c0,1.546-1.252,2.802-2.802,2.802h-23.215l-18.689,42.712c-0.443,1.028-1.459,1.68-2.565,1.68H18.614
		c-1.546,0-2.802-1.254-2.802-2.802c0-1.538,1.256-2.802,2.802-2.802h68.23l18.687-42.712c0.443-1.023,1.456-1.68,2.567-1.68h25.05
		C134.698,58.636,135.95,59.892,135.95,61.438z M40.361,112.532c-5.183,0-9.369,4.192-9.369,9.357c0,5.177,4.186,9.369,9.369,9.369
		c5.168,0,9.359-4.192,9.359-9.369C49.72,116.724,45.529,112.532,40.361,112.532z M73.658,112.532c-5.175,0-9.371,4.192-9.371,9.357
		c0,5.177,4.196,9.369,9.371,9.369s9.362-4.192,9.362-9.369C83.02,116.724,78.833,112.532,73.658,112.532z M16.945,93.309
		L0.451,32.133c-1.872-6.961,2.263-14.143,9.222-16.014l27.27-7.352c2.983-0.812,6.042-0.395,8.725,0.824
		C48.431,6.16,52.79,4.272,57.312,4.77l28.065,3.163c3.47,0.391,6.589,2.112,8.761,4.845c2.179,2.722,3.16,6.148,2.764,9.617
		l-7.098,62.952c-0.393,3.459-2.115,6.578-4.842,8.75c-2.331,1.866-5.169,2.853-8.112,2.853c-0.496,0-0.998-0.028-1.502-0.084
		L61.33,94.76c-0.365,0.125-0.717,0.305-1.087,0.403l-27.278,7.35c-1.113,0.301-2.263,0.455-3.406,0.455
		C23.657,102.978,18.476,99.005,16.945,93.309z M50.196,12.929c1.268,1.447,2.258,3.133,2.771,5.056l1.106,4.113
		c1.107-1.918,3.271-3.105,5.619-2.846c3.155,0.358,5.431,3.209,5.064,6.369c-0.353,3.16-3.199,5.437-6.357,5.065
		c-0.808-0.088-1.541-0.346-2.208-0.724l2.041,7.593c2.969-0.189,5.664,1.86,6.086,4.859c0.357,2.528-1.015,4.834-3.175,5.912
		l7.123,26.427c0.88-2.456,3.266-4.132,5.975-3.83c3.149,0.351,5.428,3.207,5.059,6.37c-0.35,3.151-3.192,5.43-6.358,5.066
		c-1.282-0.142-2.349-0.782-3.228-1.587c0.397,2.856-0.102,5.746-1.552,8.29c-0.196,0.346-0.453,0.631-0.677,0.953l8.589,1.285
		c1.895,0.202,3.834-0.345,5.389-1.593c1.554-1.242,2.539-3.021,2.764-5.006l7.102-62.942c0.225-1.983-0.331-3.935-1.568-5.485
		c-1.255-1.562-3.025-2.55-5.02-2.769L56.672,10.34C54.181,10.056,51.781,11.092,50.196,12.929z M5.851,30.693L22.352,91.86
		c1.053,3.881,5.246,6.314,9.158,5.258l27.275-7.349c1.928-0.526,3.543-1.756,4.534-3.479c0.999-1.74,1.261-3.743,0.738-5.686
		L47.572,19.44c-0.396-1.502-1.282-2.734-2.402-3.7c-0.245-0.139-0.49-0.301-0.672-0.498c-1.198-0.818-2.61-1.327-4.123-1.327
		c-0.658,0-1.314,0.096-1.968,0.262L11.139,21.53C7.156,22.589,4.782,26.708,5.851,30.693z M20.201,39.842
		c3.075-0.818,4.886-3.983,4.069-7.048c-0.825-3.083-3.987-4.892-7.057-4.068c-3.075,0.818-4.88,3.983-4.062,7.047
		C13.979,38.844,17.129,40.666,20.201,39.842z M39.761,34.564c3.067-0.818,4.881-3.989,4.064-7.061
		c-0.831-3.064-3.99-4.878-7.06-4.063c-3.072,0.826-4.891,3.997-4.062,7.062C33.532,33.566,36.691,35.399,39.761,34.564z
		 M24.522,55.84c3.069-0.83,4.887-3.989,4.057-7.054c-0.818-3.072-3.981-4.892-7.056-4.068c-3.064,0.83-4.875,3.984-4.058,7.059
		C18.294,54.849,21.458,56.658,24.522,55.84z M41.08,39.452c-3.073,0.823-4.887,3.988-4.069,7.059
		c0.824,3.064,3.985,4.881,7.059,4.068c3.072-0.829,4.887-3.995,4.064-7.067C47.31,40.447,44.156,38.638,41.08,39.452z
		 M28.837,71.832c3.074-0.818,4.886-3.983,4.062-7.047c-0.826-3.079-3.985-4.881-7.05-4.063c-3.082,0.829-4.892,3.985-4.069,7.046
		C22.604,70.858,25.758,72.663,28.837,71.832z M45.389,55.46c-3.068,0.823-4.887,3.983-4.062,7.058
		c0.822,3.067,3.995,4.882,7.058,4.055c3.07-0.821,4.887-3.981,4.058-7.051C51.618,56.439,48.458,54.631,45.389,55.46z
		 M30.152,76.729c-3.07,0.821-4.88,3.983-4.058,7.059c0.819,3.064,3.984,4.881,7.057,4.062c3.07-0.826,4.878-3.995,4.055-7.06
		C36.382,77.724,33.216,75.892,30.152,76.729z M49.708,71.449c-3.066,0.826-4.886,3.995-4.067,7.059
		c0.824,3.064,3.989,4.888,7.064,4.071c3.063-0.831,4.881-3.992,4.058-7.059C55.934,72.447,52.78,70.639,49.708,71.449z
		 M78.527,32.972c3.163,0.353,6.002-1.915,6.37-5.069c0.35-3.149-1.915-6.009-5.067-6.367c-3.151-0.354-6.011,1.923-6.368,5.067
		C73.096,29.774,75.372,32.614,78.527,32.972z M76.668,49.435c3.161,0.348,6.006-1.915,6.367-5.064
		c0.357-3.149-1.91-6.014-5.064-6.372c-3.149-0.353-6.007,1.918-6.372,5.078C71.242,46.236,73.509,49.082,76.668,49.435z
		 M74.817,65.903c3.154,0.353,5.998-1.915,6.364-5.059c0.35-3.161-1.915-6.005-5.07-6.367c-3.154-0.359-6.013,1.912-6.361,5.062
		C69.375,62.705,71.658,65.544,74.817,65.903z"/>
</g>
<g>
</g>
<g>
</g>
<g>
</g>
<g>
</g>
<g>
</g>
<g>
</g>
<g>
</g>
<g>
</g>
<g>
</g>
<g>
</g>
<g>
</g>
<g>
</g>
<g>
</g>
<g>
</g>
<g>
</g>
</svg>
