<?xml version="1.0" encoding="iso-8859-1"?>
<!-- Generator: Adobe Illustrator 16.0.0, SVG Export Plug-In . SVG Version: 6.00 Build 0)  -->
<!DOCTYPE svg PUBLIC "-//W3C//DTD SVG 1.1//EN" "http://www.w3.org/Graphics/SVG/1.1/DTD/svg11.dtd">
<svg version="1.1" id="Capa_1" xmlns="http://www.w3.org/2000/svg" xmlns:xlink="http://www.w3.org/1999/xlink" x="0px" y="0px"
	 width="110.051px" height="110.051px" viewBox="0 0 110.051 110.051" style="enable-background:new 0 0 110.051 110.051;"
	 xml:space="preserve">
<g>
	<path d="M9.896,41.596c0.582,0.562,1.427,0.869,2.154,0.857l12.046-0.18l0.187,12.025c0.023,1.646,1.38,2.976,3.026,2.976
		c0.012,0,0.029,0,0.05,0L46.2,56.984c1.67-0.024,3.009-1.398,2.979-3.074l-0.183-12.038l12.037-0.189
		c1.673-0.024,3.009-1.398,2.979-3.074l-0.296-18.843c-0.012-0.804-0.354-1.566-0.922-2.134c-0.573-0.559-1.342-0.807-2.146-0.854
		l-12.041,0.186L48.423,4.922c-0.027-1.664-1.49-3.239-3.077-2.979L26.5,2.238c-0.807,0.021-1.569,0.352-2.125,0.922
		c-0.556,0.58-0.866,1.348-0.854,2.149l0.189,12.043l-12.046,0.189c-1.67,0.024-3.009,1.392-2.976,3.074l0.295,18.841
		C8.995,40.28,9.329,41.037,9.896,41.596z M26.825,23.375c0.807-0.012,1.569-0.352,2.125-0.919c0.558-0.582,0.866-1.351,0.854-2.148
		L29.614,8.262l12.797-0.192l0.187,12.038c0.015,0.807,0.346,1.575,0.922,2.137c0.579,0.556,1.439,1.017,2.154,0.86l12.037-0.189
		l0.201,12.791l-12.04,0.181c-1.67,0.023-3.006,1.397-2.976,3.076L43.076,51l-12.788,0.195L30.099,39.16
		c-0.023-1.646-1.38-2.976-3.026-2.976c-0.012,0-0.029,0-0.047,0L14.979,36.37l-0.198-12.788L26.825,23.375z M109.874,42.872
		c-3.274-9.389-8.033-17.868-14.139-25.227c-0.585-0.692-1.431-1.102-2.341-1.102l0,0c-0.893,0-1.762,0.404-2.329,1.108
		c-3.493,4.235-6.797,8.526-10.09,12.83c-2.707,3.522-5.408,7.045-8.216,10.533c-0.898,1.12-0.893,2.698,0.013,3.818
		c1.767,2.149,3.699,4.303,5.608,6.393c1.307,1.433,2.589,2.849,3.771,4.211C71.549,67.062,55.037,78.89,40.425,85.326
		c-2.258-4.066-4.563-8.151-6.924-12.241c-0.73-1.276-2.288-1.844-3.668-1.342c-4.14,1.531-8.278,2.902-12.412,4.297
		c-5.157,1.709-10.314,3.435-15.483,5.421c-0.836,0.325-1.49,1.005-1.779,1.85c-0.284,0.863-0.183,1.785,0.284,2.565
		c5.37,8.766,12.208,16.467,19.266,21.663c0.521,0.378,1.149,0.597,1.791,0.597c0.023,0,0.056,0,0.08,0
		c12.492-0.337,36.667-3.464,58.126-20.8c13.885-11.207,24.033-25.487,30.163-42.442C110.11,44.237,110.11,43.531,109.874,42.872z
		 M75.898,82.637c-19.493,15.74-41.44,18.962-53.436,19.423c-5.32-4.102-10.495-9.753-14.877-16.248
		c3.916-1.413,7.826-2.731,11.736-4.037c3.396-1.136,6.792-2.271,10.187-3.465c2.365,4.126,4.667,8.234,6.931,12.33
		c0.742,1.348,2.376,1.91,3.783,1.359c17.032-6.903,36.405-20.775,48.197-34.519c0.934-1.099,0.976-2.71,0.07-3.854
		c-1.648-2.078-3.617-4.244-5.645-6.47c-1.282-1.406-2.595-2.846-3.842-4.279c2.293-2.893,4.527-5.798,6.762-8.703
		c2.5-3.251,5.001-6.514,7.59-9.741c4.362,5.831,7.85,12.342,10.438,19.438C98.022,59.313,88.643,72.358,75.898,82.637z"/>
</g>
<g>
</g>
<g>
</g>
<g>
</g>
<g>
</g>
<g>
</g>
<g>
</g>
<g>
</g>
<g>
</g>
<g>
</g>
<g>
</g>
<g>
</g>
<g>
</g>
<g>
</g>
<g>
</g>
<g>
</g>
</svg>
