<?xml version="1.0" encoding="iso-8859-1"?>
<!-- Generator: Adobe Illustrator 16.0.0, SVG Export Plug-In . SVG Version: 6.00 Build 0)  -->
<!DOCTYPE svg PUBLIC "-//W3C//DTD SVG 1.1//EN" "http://www.w3.org/Graphics/SVG/1.1/DTD/svg11.dtd">
<svg version="1.1" id="Capa_1" xmlns="http://www.w3.org/2000/svg" xmlns:xlink="http://www.w3.org/1999/xlink" x="0px" y="0px"
	 width="125.287px" height="125.286px" viewBox="0 0 125.287 125.286" style="enable-background:new 0 0 125.287 125.286;"
	 xml:space="preserve">
<g>
	<path d="M22.558,7.56v114.925c0,1.555-1.256,2.802-2.801,2.802c-1.543,0-2.802-1.247-2.802-2.802V7.56
		c0-1.541,1.258-2.802,2.802-2.802C21.302,4.758,22.558,6.019,22.558,7.56z M84.315,16.391c2.856,3.171,4.421,7.529,4.421,12.276
		c-0.015,10.849-8.498,21.606-20.175,25.601c-2.056,0.7-4.094,1.054-6.104,1.054c-9.052,0-15.895-7.434-15.895-17.312
		c-0.005-10.839,8.484-21.597,20.182-25.602C73.382,10.142,80.074,11.696,84.315,16.391z M83.132,28.673
		c0-3.361-1.05-6.394-2.975-8.522c-1.885-2.08-4.412-3.176-7.316-3.176c-1.373,0-2.814,0.262-4.28,0.755
		c-9.346,3.206-16.401,11.943-16.397,20.312c0,8.462,6.673,13.661,14.58,10.955C76.082,45.786,83.119,37.056,83.132,28.673z
		 M76.656,27.737c-2.068,0.549-4.127,1.214-6.196,1.849v-5.961c0-1.541-1.259-2.801-2.801-2.801s-2.802,1.261-2.802,2.801v7.637
		c-2.539,0.801-5.089,1.609-7.626,2.286c-1.502,0.387-2.389,1.926-1.989,3.417c0.343,1.267,1.468,2.08,2.708,2.08
		c0.234,0,0.475-0.022,0.715-0.096c2.068-0.55,4.124-1.215,6.192-1.861v5.961c0,1.554,1.26,2.802,2.802,2.802
		s2.801-1.248,2.801-2.802v-7.636c2.55-0.801,5.09-1.608,7.63-2.276c1.499-0.396,2.396-1.937,1.984-3.417
		C79.686,28.229,78.169,27.335,76.656,27.737z M108.332,5.745v50.934c0,0.963-0.49,1.85-1.284,2.365
		c-0.817,0.521-1.83,0.582-2.688,0.185c-3.913-1.816-8.022-2.684-12.569-2.684c-7.616,0-15.227,2.408-23.289,4.958
		c-8.098,2.561-16.492,5.218-24.965,5.218c-5.385,0-10.26-1.048-14.922-3.193c-0.99-0.459-1.623-1.458-1.623-2.549V10.041
		c0-0.952,0.493-1.836,1.289-2.353c0.812-0.525,1.825-0.583,2.684-0.184c3.904,1.803,8.022,2.69,12.572,2.69
		c7.604,0,15.225-2.417,23.276-4.967C74.919,2.656,83.302,0,91.779,0c5.385,0,10.265,1.053,14.924,3.206
		C107.702,3.666,108.332,4.656,108.332,5.745z M102.728,7.592c-3.421-1.333-7.026-1.989-10.949-1.989
		c-7.605,0-15.216,2.416-23.278,4.966c-8.098,2.561-16.492,5.229-24.965,5.229c-3.873,0-7.491-0.556-10.942-1.662v44.98
		c3.411,1.338,7.016,1.984,10.931,1.984c7.604,0,15.226-2.411,23.283-4.96c8.104-2.561,16.495-5.209,24.972-5.209
		c3.868,0,7.496,0.536,10.949,1.653V7.592z"/>
</g>
<g>
</g>
<g>
</g>
<g>
</g>
<g>
</g>
<g>
</g>
<g>
</g>
<g>
</g>
<g>
</g>
<g>
</g>
<g>
</g>
<g>
</g>
<g>
</g>
<g>
</g>
<g>
</g>
<g>
</g>
</svg>
