<?xml version="1.0" encoding="iso-8859-1"?>
<!-- Generator: Adobe Illustrator 16.0.0, SVG Export Plug-In . SVG Version: 6.00 Build 0)  -->
<!DOCTYPE svg PUBLIC "-//W3C//DTD SVG 1.1//EN" "http://www.w3.org/Graphics/SVG/1.1/DTD/svg11.dtd">
<svg version="1.1" id="Capa_1" xmlns="http://www.w3.org/2000/svg" xmlns:xlink="http://www.w3.org/1999/xlink" x="0px" y="0px"
	 width="110.306px" height="110.306px" viewBox="0 0 110.306 110.306" style="enable-background:new 0 0 110.306 110.306;"
	 xml:space="preserve">
<g>
	<path d="M98.726,42.638c-3.213-1.786-6.841-2.629-10.473-2.65V20.31c0-1.548-1.26-2.802-2.801-2.802H69.405
		c-0.524-7.207-3.677-12.263-7.944-12.263c-4.258,0-7.419,5.051-7.946,12.263H34.733c-0.525-7.207-3.686-12.263-7.946-12.263
		c-4.256,0-7.42,5.051-7.945,12.263H2.801C1.253,17.508,0,18.762,0,20.31v65.839c0,1.551,1.253,2.802,2.801,2.802h48.165
		c9.314,8.597,19.731,15.223,20.483,15.684c0.457,0.284,0.972,0.426,1.485,0.426c0.522,0,1.046-0.142,1.494-0.426
		c1.283-0.803,31.278-19.798,34.747-35.541c0.756-2.238,1.13-4.559,1.13-6.9C110.306,54.059,105.865,46.554,98.726,42.638z
		 M61.364,10.833c0.621,0.242,1.979,2.607,2.38,6.671h-4.561C59.575,13.445,60.902,11.074,61.364,10.833z M26.691,10.833
		c0.625,0.242,1.979,2.607,2.378,6.671h-4.564C24.905,13.445,26.237,11.074,26.691,10.833z M5.603,23.112H18.97
		c0.813,6.443,3.845,10.856,7.823,10.856c1.545,0,2.846-1.247,2.846-2.793c0-1.548-1.205-2.796-2.75-2.796
		c-0.551-0.213-1.727-2.019-2.266-5.262h29.021c0.813,6.443,3.845,10.86,7.822,10.86c1.537,0,2.846-1.25,2.846-2.796
		c0-1.548-1.202-2.796-2.742-2.796c-0.557-0.213-1.733-2.019-2.265-5.261h23.354v17.533c-3.59,0.861-6.976,2.533-9.711,5.031
		c-6.812-6.224-17.6-7.582-25.8-3.048c-2.509,1.385-4.659,3.221-6.42,5.363v-7.368H29.521V51.84h8.682
		c-0.924,1.754-1.608,3.636-2.041,5.603h-6.641V68.65h7.078c0.016,0.055,0.021,0.115,0.039,0.169
		c1.053,4.777,4.478,9.795,8.763,14.539H5.614L5.603,23.112L5.603,23.112z M103.792,67.604
		c-2.395,10.771-21.833,25.413-30.857,31.334c-9.012-5.921-28.457-20.576-30.918-31.629c-0.548-1.642-0.829-3.371-0.829-5.132
		c0-6.086,3.318-11.7,8.651-14.636c2.462-1.362,5.252-2.079,8.06-2.079c4.992,0,9.69,2.208,12.883,6.057
		c1.055,1.283,3.249,1.283,4.315,0c4.996-6.019,14.123-7.762,20.926-3.979c5.356,2.948,8.68,8.556,8.68,14.646
		C104.702,63.917,104.418,65.646,103.792,67.604z M100,65.251c0,1.729-0.279,3.448-0.826,5.102
		c-0.387,1.181-1.488,1.925-2.665,1.925c-0.29,0-0.584-0.056-0.882-0.137c-1.472-0.498-2.265-2.08-1.771-3.552
		c0.36-1.078,0.547-2.21,0.547-3.338c0-3.973-2.167-7.627-5.658-9.543c-1.604-0.895-3.404-1.36-5.243-1.36
		c-1.548,0-2.802-1.256-2.802-2.802s1.254-2.802,2.802-2.802c2.781,0,5.527,0.711,7.957,2.058C96.719,53.7,100,59.232,100,65.251z
		 M13.396,40.622h11.206v11.207H13.396V40.622z M13.396,57.433h11.206v11.206H13.396V57.433z"/>
</g>
<g>
</g>
<g>
</g>
<g>
</g>
<g>
</g>
<g>
</g>
<g>
</g>
<g>
</g>
<g>
</g>
<g>
</g>
<g>
</g>
<g>
</g>
<g>
</g>
<g>
</g>
<g>
</g>
<g>
</g>
</svg>
