<?xml version="1.0" encoding="iso-8859-1"?>
<!-- Generator: Adobe Illustrator 16.0.0, SVG Export Plug-In . SVG Version: 6.00 Build 0)  -->
<!DOCTYPE svg PUBLIC "-//W3C//DTD SVG 1.1//EN" "http://www.w3.org/Graphics/SVG/1.1/DTD/svg11.dtd">
<svg version="1.1" id="Capa_1" xmlns="http://www.w3.org/2000/svg" xmlns:xlink="http://www.w3.org/1999/xlink" x="0px" y="0px"
	 width="91.329px" height="91.329px" viewBox="0 0 91.329 91.329" style="enable-background:new 0 0 91.329 91.329;"
	 xml:space="preserve">
<g>
	<path d="M72.805,47.727c0,1.675-0.271,3.316-0.799,4.869c-2.307,10.508-21.207,22.645-23.366,23.99
		c-0.445,0.289-0.965,0.427-1.49,0.427c-0.521,0-1.037-0.138-1.496-0.427c-0.241-0.142-5.866-3.704-11.57-8.592
		c-1.183-1.006-1.312-2.769-0.315-3.95c1.016-1.171,2.769-1.303,3.95-0.305c3.689,3.161,7.431,5.787,9.441,7.122
		c6.058-4.037,17.995-13.159,19.462-19.765c0.406-1.27,0.58-2.309,0.58-3.37c0-3.686-2.014-7.081-5.243-8.856
		c-4.137-2.293-9.628-1.24-12.653,2.402c-0.525,0.641-1.321,1.015-2.156,1.015c-0.834,0-1.619-0.37-2.153-1.015
		c-3.042-3.631-8.539-4.69-12.661-2.408c-3.229,1.787-5.25,5.176-5.25,8.851c0,1.04,0.172,2.085,0.513,3.097
		c0.187,0.821,0.502,1.587,0.866,2.353h7.833l2.892-6.664c0.481-1.105,1.628-1.797,2.823-1.674c1.204,0.11,2.208,0.974,2.47,2.145
		l1.695,7.157l1.544-2.523c0.504-0.837,1.411-1.346,2.386-1.346h5.8c1.555,0,2.802,1.253,2.802,2.802s-1.247,2.802-2.802,2.802
		h-4.225l-4.271,7.004c-0.514,0.838-1.421,1.341-2.386,1.341c-0.142,0-0.303-0.011-0.437-0.033c-1.128-0.18-2.025-1.018-2.289-2.122
		L40.98,56.46l-0.273,0.626c-0.448,1.015-1.459,1.683-2.575,1.683H19.439c-1.539,0-2.802-1.263-2.802-2.802
		c0-1.548,1.263-2.802,2.802-2.802h3.032c-0.087-0.284-0.22-0.585-0.273-0.858c-0.448-1.296-0.723-2.938-0.723-4.58
		c0-5.717,3.123-10.991,8.143-13.759c5.486-3.054,12.707-2.331,17.51,1.589c4.787-3.915,12.01-4.632,17.524-1.589
		C69.687,36.736,72.805,42.01,72.805,47.727z M86.037,50.956c0,22.271-18.112,40.373-40.373,40.373
		c-22.263,0-40.373-18.102-40.373-40.373c0-20.373,15.19-37.224,34.825-39.94V5.604h-6.75c-1.543,0-2.802-1.255-2.802-2.801
		C30.565,1.256,31.824,0,33.367,0h18.45c1.552,0,2.802,1.256,2.802,2.803c0,1.545-1.25,2.801-2.802,2.801h-6.098v4.987
		c6.173,0.011,11.995,1.445,17.226,3.937l3.767-5.562c0.874-1.278,2.614-1.609,3.895-0.752c1.28,0.869,1.62,2.612,0.744,3.887
		L67.86,17.27C78.791,24.51,86.037,36.904,86.037,50.956z M80.434,50.956c0-19.168-15.596-34.761-34.77-34.761
		c-19.173,0-34.769,15.592-34.769,34.761c0,19.186,15.596,34.769,34.769,34.769C64.838,85.724,80.434,70.141,80.434,50.956z"/>
</g>
<g>
</g>
<g>
</g>
<g>
</g>
<g>
</g>
<g>
</g>
<g>
</g>
<g>
</g>
<g>
</g>
<g>
</g>
<g>
</g>
<g>
</g>
<g>
</g>
<g>
</g>
<g>
</g>
<g>
</g>
</svg>
