<?xml version="1.0" encoding="iso-8859-1"?>
<!-- Generator: Adobe Illustrator 16.0.0, SVG Export Plug-In . SVG Version: 6.00 Build 0)  -->
<!DOCTYPE svg PUBLIC "-//W3C//DTD SVG 1.1//EN" "http://www.w3.org/Graphics/SVG/1.1/DTD/svg11.dtd">
<svg version="1.1" id="Capa_1" xmlns="http://www.w3.org/2000/svg" xmlns:xlink="http://www.w3.org/1999/xlink" x="0px" y="0px"
	 width="122.101px" height="122.102px" viewBox="0 0 122.101 122.102" style="enable-background:new 0 0 122.101 122.102;"
	 xml:space="preserve">
<g>
	<path d="M87.19,49.284c-0.564-2.247-1.284-4.476-2.194-6.64c-1.046-2.408-2.572-4.695-4.548-6.808l4.744-11.02
		c1.976-4.345,2.298-8.104,0.985-11.185c-1.27-2.966-3.633-4.255-4.548-4.652c-1.575-0.925-3.33-1.086-5.066-0.498
		c-1.514,0.514-6.019,2.033-12.169,17.48c-1.807-0.594-3.636-1.087-5.485-1.467l-0.165-10.896c0-10.72-5.865-13.568-8.741-13.568
		h-0.012c-1.966-0.184-3.796,0.47-5.208,1.907c-3.167,3.198-4.321,10.673-3.39,22.232c-0.406,0.063-0.812,0.128-1.218,0.203
		c-3.25-4.949-7.289-10.977-9.261-13.667c-1.453-2.024-3.417-3.25-5.699-3.554c-4.55-0.583-8.624,2.646-9.282,3.202
		c-5.603,5.581-1.464,15.318,3.572,23.13c-3.315,4.438-10.73,17.488,0.128,34.978c3.217,5.085,5.689,12.023,8.769,24.761
		c2.523,10.506,7.57,23.846,17.264,27.764c1.844,0.745,3.76,1.116,5.733,1.116c3.731,0,7.692-1.328,11.83-3.966
		c0.2-0.136,0.392-0.308,0.571-0.481c0.285-0.329,7.024-7.875,13.437-19.229c2.053,0.554,4.178,0.931,6.414,0.931
		c13.888,0,25.204-11.312,25.204-25.216C108.85,61.453,99.404,51.027,87.19,49.284z M59.883,113.615
		c-4.629,2.884-8.592,3.601-12.122,2.183c-5.843-2.358-10.785-10.844-13.902-23.89c-3.26-13.39-5.923-20.805-9.474-26.425
		c-10.203-16.435-1.518-27.491,0.177-29.396c0.389-0.257,0.726-0.61,0.955-1.048c0.488-0.918,0.418-2.032-0.168-2.891
		c-5.755-8.406-7.907-15.405-5.67-17.651c0.542-0.443,2.974-2.033,4.802-1.797c0.459,0.06,1.149,0.257,1.893,1.289
		c2.001,2.733,6.544,9.519,10.153,15.034c0.637,0.974,1.803,1.461,2.958,1.198c1.796-0.41,3.519-0.65,5.235-0.834
		c1.529-0.17,2.651-1.535,2.481-3.067c-1.284-12.64,0.046-18.917,1.553-20.446c0.23-0.234,0.403-0.29,0.873-0.257
		c1.289,0.107,3.497,1.898,3.497,8.019l0.198,13.245c0.022,1.368,1.025,2.523,2.375,2.731c3.154,0.487,6.282,1.333,9.274,2.526
		c0.7,0.276,1.49,0.266,2.172-0.044c0.689-0.309,1.234-0.876,1.496-1.582c4.226-11.352,7.869-16.104,10.222-16.651
		c0.182,0.112,0.373,0.203,0.583,0.273c0.009,0,1.05,0.459,1.584,1.699c0.657,1.551,0.345,3.855-0.949,6.717l-5.505,12.816
		c-0.472,1.081-0.205,2.342,0.648,3.149c2.106,1.967,3.661,4.101,4.624,6.32c0.588,1.401,1.007,2.87,1.423,4.326
		c-12.772,1.223-22.832,11.885-22.832,24.974c0,9.68,5.53,17.98,13.541,22.211C66.653,105.615,61.102,112.215,59.883,113.615z
		 M83.65,93.753c-10.822,0-19.615-8.789-19.615-19.613c0-10.806,8.793-19.611,19.615-19.611c10.807,0,19.597,8.799,19.597,19.611
		C103.247,84.964,94.457,93.753,83.65,93.753z M100.609,74.14c0,1.55-1.261,2.802-2.802,2.802H86.461v11.354
		c0,1.55-1.264,2.802-2.801,2.802c-1.547,0-2.802-1.252-2.802-2.802V76.941h-11.36c-1.541,0-2.804-1.252-2.804-2.802
		c0-1.537,1.263-2.802,2.804-2.802h11.36V59.995c0-1.549,1.255-2.802,2.802-2.802c1.537,0,2.801,1.253,2.801,2.802v11.343h11.346
		C99.348,71.338,100.609,72.603,100.609,74.14z"/>
</g>
<g>
</g>
<g>
</g>
<g>
</g>
<g>
</g>
<g>
</g>
<g>
</g>
<g>
</g>
<g>
</g>
<g>
</g>
<g>
</g>
<g>
</g>
<g>
</g>
<g>
</g>
<g>
</g>
<g>
</g>
</svg>
