<?xml version="1.0" encoding="iso-8859-1"?>
<!-- Generator: Adobe Illustrator 16.0.0, SVG Export Plug-In . SVG Version: 6.00 Build 0)  -->
<!DOCTYPE svg PUBLIC "-//W3C//DTD SVG 1.1//EN" "http://www.w3.org/Graphics/SVG/1.1/DTD/svg11.dtd">
<svg version="1.1" id="Capa_1" xmlns="http://www.w3.org/2000/svg" xmlns:xlink="http://www.w3.org/1999/xlink" x="0px" y="0px"
	 width="114.598px" height="114.598px" viewBox="0 0 114.598 114.598" style="enable-background:new 0 0 114.598 114.598;"
	 xml:space="preserve">
<g>
	<path d="M108.226,26.262c1.183,1.179,1.183,3.097,0,4.279c-0.591,0.591-1.371,0.884-2.14,0.884c-0.78,0-1.549-0.299-2.146-0.884
		c-5.284-5.284-14.499-5.284-19.795,0c-1.177,1.179-3.104,1.179-4.279,0c-1.177-1.183-1.177-3.101,0-4.279
		C87.443,18.689,100.66,18.689,108.226,26.262z M113.711,18.853c-5.249-5.252-12.235-8.148-19.659-8.148
		c-7.436,0-14.41,2.896-19.659,8.148c-1.182,1.179-1.182,3.1,0,4.279c0.591,0.594,1.365,0.884,2.14,0.884
		c0.78,0,1.561-0.296,2.146-0.884c8.21-8.213,22.544-8.213,30.754,0c1.182,1.179,3.104,1.179,4.279,0
		C114.894,21.953,114.894,20.037,113.711,18.853z M102.209,32.284c4.498,4.496,4.498,11.813,0,16.311
		c-0.189,0.192-0.391,0.37-0.592,0.514v28.398c0,1.673-1.359,3.026-3.025,3.026H96.67c-1.129,13.045-11.98,23.359-25.31,23.359
		c-9.735,0-18.474-5.532-22.789-14.162H41.86v7.814h7.19c1.669,0,3.026,1.365,3.026,3.025c0,1.673-1.357,3.026-3.026,3.026H28.623
		c-1.667,0-3.026-1.354-3.026-3.026c0-1.66,1.36-3.025,3.026-3.025h7.19v-7.814H3.026C1.354,89.731,0,88.372,0,86.705V37.276
		c0-1.67,1.354-3.026,3.026-3.026h71.621c1.661,0,3.026,1.356,3.026,3.026v49.429c0,1.667-1.365,3.026-3.026,3.026H55.605
		c3.617,5,9.404,8.109,15.761,8.109c9.989,0,18.158-7.613,19.257-17.307h-1.104c-1.673,0-3.026-1.354-3.026-3.026V49.109
		c-0.201-0.15-0.396-0.328-0.598-0.514c-4.492-4.498-4.492-11.815,0-16.311C90.245,27.925,97.858,27.925,102.209,32.284z
		 M6.046,83.679h65.568V40.303H6.046V60.39h22.825l4.241-9.767c0.52-1.191,1.72-1.948,3.044-1.809
		c1.303,0.115,2.385,1.046,2.678,2.317l2.843,11.996l3.245-5.313c0.55-0.898,1.525-1.454,2.583-1.454h8.062
		c1.672,0,3.026,1.359,3.026,3.026c0,1.672-1.354,3.025-3.026,3.025h-6.366l-6.186,10.155c-0.558,0.904-1.537,1.454-2.586,1.454
		c-0.151,0-0.313-0.018-0.473-0.047c-1.209-0.189-2.178-1.094-2.468-2.288l-2.432-10.314l-1.413,3.251
		c-0.481,1.111-1.572,1.82-2.778,1.82H6.052v17.236H6.046z M97.93,36.564c-2.069-2.078-5.675-2.078-7.756,0
		c-2.139,2.134-2.139,5.615,0,7.752c0.06,0.03,0.935,0.549,0.993,0.583c0.863,0.562,1.384,1.513,1.384,2.541v27.048h3.026V47.439
		c0-1.028,0.52-1.979,1.377-2.541c0.053-0.033,0.597-0.352,0.632-0.376C100.069,42.179,100.069,38.698,97.93,36.564z"/>
</g>
<g>
</g>
<g>
</g>
<g>
</g>
<g>
</g>
<g>
</g>
<g>
</g>
<g>
</g>
<g>
</g>
<g>
</g>
<g>
</g>
<g>
</g>
<g>
</g>
<g>
</g>
<g>
</g>
<g>
</g>
</svg>
