<?xml version="1.0" encoding="iso-8859-1"?>
<!-- Generator: Adobe Illustrator 16.0.0, SVG Export Plug-In . SVG Version: 6.00 Build 0)  -->
<!DOCTYPE svg PUBLIC "-//W3C//DTD SVG 1.1//EN" "http://www.w3.org/Graphics/SVG/1.1/DTD/svg11.dtd">
<svg version="1.1" id="Capa_1" xmlns="http://www.w3.org/2000/svg" xmlns:xlink="http://www.w3.org/1999/xlink" x="0px" y="0px"
	 width="107.261px" height="107.261px" viewBox="0 0 107.261 107.261" style="enable-background:new 0 0 107.261 107.261;"
	 xml:space="preserve">
<g>
	<path d="M90.838,10.897c-4.646-2.576-9.925-3.94-15.247-3.94c-8.275,0-16.112,3.197-21.979,8.872
		c-5.879-5.675-13.719-8.872-21.979-8.872c-5.325,0-10.601,1.364-15.248,3.934C6.281,16.459,0,27.079,0,38.605
		c0,3.35,0.536,6.644,1.492,9.484c5.093,23.011,48.616,50.576,50.473,51.751c0.505,0.317,1.081,0.463,1.659,0.463
		c0.582,0,1.154-0.146,1.66-0.463c1.857-1.175,45.358-28.71,50.381-51.438c1.06-3.176,1.596-6.461,1.596-9.779
		C107.236,27.097,100.946,16.472,90.838,10.897z M99.631,46.75C95.605,64.926,61.567,88.247,53.6,93.484
		c-7.961-5.237-42.021-28.583-46.116-47.045c-0.843-2.509-1.26-5.14-1.26-7.821c0-9.259,5.045-17.787,13.156-22.253
		c3.742-2.07,7.964-3.16,12.242-3.16c7.593,0,14.721,3.354,19.589,9.209c0.594,0.709,1.467,1.126,2.402,1.126
		c0.935,0,1.808-0.411,2.399-1.133c4.847-5.849,11.987-9.203,19.592-9.203c4.274,0,8.5,1.09,12.232,3.16
		c8.129,4.479,13.177,13.006,13.177,22.265C101.001,41.276,100.562,43.894,99.631,46.75z M72.303,53.637
		c0,1.718-1.395,3.118-3.117,3.118H56.718v12.471c0,1.717-1.397,3.117-3.118,3.117c-1.72,0-3.117-1.4-3.117-3.117V56.755H38.012
		c-1.72,0-3.118-1.4-3.118-3.118c0-1.724,1.397-3.121,3.118-3.121h12.471V38.045c0-1.72,1.397-3.118,3.117-3.118
		c1.721,0,3.118,1.397,3.118,3.118v12.471h12.468C70.908,50.516,72.303,51.92,72.303,53.637z"/>
</g>
<g>
</g>
<g>
</g>
<g>
</g>
<g>
</g>
<g>
</g>
<g>
</g>
<g>
</g>
<g>
</g>
<g>
</g>
<g>
</g>
<g>
</g>
<g>
</g>
<g>
</g>
<g>
</g>
<g>
</g>
</svg>
