<?xml version="1.0" encoding="iso-8859-1"?>
<!-- Generator: Adobe Illustrator 16.0.0, SVG Export Plug-In . SVG Version: 6.00 Build 0)  -->
<!DOCTYPE svg PUBLIC "-//W3C//DTD SVG 1.1//EN" "http://www.w3.org/Graphics/SVG/1.1/DTD/svg11.dtd">
<svg version="1.1" id="Capa_1" xmlns="http://www.w3.org/2000/svg" xmlns:xlink="http://www.w3.org/1999/xlink" x="0px" y="0px"
	 width="86.852px" height="86.852px" viewBox="0 0 86.852 86.852" style="enable-background:new 0 0 86.852 86.852;"
	 xml:space="preserve">
<g>
	<path d="M86.852,28.889c0,1.546-1.259,2.802-2.802,2.802H2.802C1.256,31.691,0,30.435,0,28.889c0-1.548,1.256-2.802,2.802-2.802
		H84.05C85.593,26.087,86.852,27.341,86.852,28.889z M55.612,22.585H79.99c1.549,0,2.802-1.256,2.802-2.802
		c0-1.547-1.253-2.801-2.802-2.801H55.612c-1.549,0-2.802,1.254-2.802,2.801C52.81,21.33,54.063,22.585,55.612,22.585z
		 M67.12,55.155c-0.545,0-1.029,0.197-1.53,0.316L49.518,39.406h4.422c1.535,0,2.802-1.256,2.802-2.801
		c0-1.549-1.267-2.802-2.802-2.802H32.925c-1.545,0-2.801,1.253-2.801,2.802c0,1.545,1.256,2.801,2.801,2.801h4.421L21.121,55.637
		c-0.74-0.252-1.498-0.471-2.32-0.471c-4.064,0-7.352,3.293-7.352,7.354c0,4.06,3.294,7.35,7.352,7.35
		c4.057,0,7.352-3.29,7.352-7.35c0-1.16-0.327-2.222-0.808-3.196l18.082-18.082l17.522,17.515c-0.677,1.116-1.177,2.363-1.177,3.764
		c0,4.06,3.294,7.35,7.349,7.35c4.06,0,7.354-3.29,7.354-7.35C74.47,58.449,71.187,55.155,67.12,55.155z"/>
</g>
<g>
</g>
<g>
</g>
<g>
</g>
<g>
</g>
<g>
</g>
<g>
</g>
<g>
</g>
<g>
</g>
<g>
</g>
<g>
</g>
<g>
</g>
<g>
</g>
<g>
</g>
<g>
</g>
<g>
</g>
</svg>
