<?xml version="1.0" encoding="iso-8859-1"?>
<!-- Generator: Adobe Illustrator 16.0.0, SVG Export Plug-In . SVG Version: 6.00 Build 0)  -->
<!DOCTYPE svg PUBLIC "-//W3C//DTD SVG 1.1//EN" "http://www.w3.org/Graphics/SVG/1.1/DTD/svg11.dtd">
<svg version="1.1" id="Capa_1" xmlns="http://www.w3.org/2000/svg" xmlns:xlink="http://www.w3.org/1999/xlink" x="0px" y="0px"
	 width="146.095px" height="146.095px" viewBox="0 0 146.095 146.095" style="enable-background:new 0 0 146.095 146.095;"
	 xml:space="preserve">
<g>
	<path d="M99.936,84.646H54.303v-32.93c0-1.724-1.397-3.118-3.118-3.118H3.118C1.395,48.599,0,49.993,0,51.717v85.564
		c0,1.724,1.395,3.118,3.118,3.118h48.067c0.131,0,0.21-0.055,0.335-0.067c0.125,0.013,0.213,0.067,0.344,0.067h48.083
		c1.712,0,3.118-1.395,3.118-3.118V87.776C103.053,86.048,101.665,84.646,99.936,84.646z M48.074,134.164H6.242v-79.33h41.833
		V134.164z M96.817,134.164H54.303v-43.27h42.514V134.164z M24.412,76.269H12.745v-11.67h11.667V76.269z M41.583,76.269H29.904
		v-11.67h11.679V76.269z M24.412,92.526H12.745v-11.68h11.667V92.526z M41.583,92.526H29.904v-11.68h11.679V92.526z M24.412,108.784
		H12.745V97.105h11.667V108.784z M41.583,108.784H29.904V97.105h11.679V108.784z M24.412,125.055H12.745v-11.655h11.667V125.055z
		 M41.583,125.055H29.904v-11.655h11.679V125.055z M72.397,110.745H60.487V98.822h11.911V110.745z M89.919,110.745h-11.91V98.822
		h11.91V110.745z M60.475,127.356v-11.923h11.911v11.923H60.475z M89.919,127.356h-11.91v-11.923h11.91V127.356z M71.7,56.792v6.734
		h11.308v-6.734c0-1.72,1.406-3.118,3.117-3.118c1.724,0,3.118,1.397,3.118,3.118v19.695c0,1.723-1.395,3.117-3.118,3.117
		c-1.711,0-3.117-1.395-3.117-3.117v-6.723H71.7v6.723c0,1.723-1.397,3.117-3.118,3.117c-1.723,0-3.118-1.395-3.118-3.117V56.792
		c0-1.72,1.395-3.118,3.118-3.118C70.303,53.674,71.7,55.06,71.7,56.792z M145.872,68.827c-4.737-11.98-16.295-34.258-40.633-48.917
		C89.596,10.463,72.291,5.695,53.542,5.695c-0.718,0-1.416,0.247-1.958,0.697c-7.794,6.366-14.504,14.172-19.4,22.59
		c-0.466,0.804-0.561,1.77-0.234,2.643c0.323,0.886,1.014,1.559,1.888,1.878c5.325,1.882,10.644,3.553,15.962,5.23
		c4.372,1.376,8.729,2.743,13.113,4.244c1.421,0.487,2.944-0.085,3.69-1.357c1.467-2.47,2.855-5.118,4.21-7.7
		c0.917-1.766,1.827-3.498,2.731-5.111c14.991,6.159,32.248,17.969,43.642,29.833c-3.13,3.617-6.267,7.283-9.396,11.024
		c-0.974,1.157-0.974,2.856,0,4.02c2.893,3.422,5.639,6.887,8.397,10.339c3.538,4.445,7.069,8.878,10.869,13.231
		c0.597,0.677,1.449,1.066,2.351,1.066c0.024,0,0.049,0,0.073,0c0.925-0.024,1.79-0.451,2.374-1.17
		c6.564-8.263,11.588-17.598,14.146-26.293C146.152,70.185,146.128,69.473,145.872,68.827z M129.236,90.23
		c-2.813-3.331-5.511-6.704-8.184-10.09c-2.253-2.825-4.519-5.663-6.832-8.464c3.166-3.757,6.326-7.423,9.487-11.052
		c1.035-1.185,1.022-2.972-0.037-4.141c-12.684-14.06-32.937-27.906-50.4-34.455c-1.41-0.536-2.987,0-3.76,1.291
		c-1.421,2.314-2.813,4.99-4.259,7.721c-0.911,1.738-1.833,3.51-2.78,5.236c-3.617-1.196-7.209-2.338-10.814-3.474
		c-4.028-1.272-8.05-2.53-12.084-3.903c4.092-6.235,9.25-12.032,15.11-16.952c17.004,0.137,32.92,4.619,47.346,13.317
		c22.092,13.313,32.967,33.402,37.643,44.853C137.579,76.725,133.938,83.728,129.236,90.23z"/>
</g>
<g>
</g>
<g>
</g>
<g>
</g>
<g>
</g>
<g>
</g>
<g>
</g>
<g>
</g>
<g>
</g>
<g>
</g>
<g>
</g>
<g>
</g>
<g>
</g>
<g>
</g>
<g>
</g>
<g>
</g>
</svg>
