<?xml version="1.0" encoding="iso-8859-1"?>
<!-- Generator: Adobe Illustrator 16.0.0, SVG Export Plug-In . SVG Version: 6.00 Build 0)  -->
<!DOCTYPE svg PUBLIC "-//W3C//DTD SVG 1.1//EN" "http://www.w3.org/Graphics/SVG/1.1/DTD/svg11.dtd">
<svg version="1.1" id="Capa_1" xmlns="http://www.w3.org/2000/svg" xmlns:xlink="http://www.w3.org/1999/xlink" x="0px" y="0px"
	 width="80.209px" height="80.209px" viewBox="0 0 80.209 80.209" style="enable-background:new 0 0 80.209 80.209;"
	 xml:space="preserve">
<g>
	<path d="M40.098,9.284c-16.982,0-30.807,13.822-30.807,30.812c0,16.993,13.825,30.813,30.807,30.813
		c16.992,0,30.813-13.82,30.813-30.813C70.907,23.105,57.077,9.284,40.098,9.284z M40.098,65.306
		c-13.896,0-25.204-11.306-25.204-25.209c0-13.896,11.308-25.209,25.204-25.209c13.898,0,25.21,11.313,25.21,25.209
		C65.304,54,53.991,65.306,40.098,65.306z M40.093,0.002C18.16,0.002,0.174,17.85,0.001,39.781
		c-0.089,10.706,4.006,20.808,11.514,28.447c7.521,7.627,17.556,11.884,28.257,11.978c0,0,0.336,0,0.341,0
		c21.926,0,39.907-17.845,40.094-39.773C80.371,18.31,62.535,0.178,40.093,0.002z M40.098,74.586v2.802l-0.289-2.802
		c-9.218-0.065-17.853-3.731-24.311-10.298c-6.459-6.567-9.973-15.262-9.912-24.471C5.734,20.955,21.208,5.606,40.366,5.606
		c19.017,0.153,34.37,15.759,34.206,34.769C74.429,59.242,58.954,74.586,40.098,74.586z M55.475,26.093V54.1
		c0,1.553-1.265,2.802-2.802,2.802c-1.555,0-2.802-1.249-2.802-2.802V42.903H30.32v11.201c0,1.548-1.256,2.802-2.802,2.802
		c-1.541,0-2.803-1.254-2.803-2.802V26.093c0-1.546,1.262-2.802,2.803-2.802c1.546,0,2.802,1.256,2.802,2.802V37.3h19.551V26.093
		c0-1.546,1.247-2.802,2.802-2.802C54.215,23.292,55.475,24.547,55.475,26.093z"/>
</g>
<g>
</g>
<g>
</g>
<g>
</g>
<g>
</g>
<g>
</g>
<g>
</g>
<g>
</g>
<g>
</g>
<g>
</g>
<g>
</g>
<g>
</g>
<g>
</g>
<g>
</g>
<g>
</g>
<g>
</g>
</svg>
