<?xml version="1.0" encoding="iso-8859-1"?>
<!-- Generator: Adobe Illustrator 16.0.0, SVG Export Plug-In . SVG Version: 6.00 Build 0)  -->
<!DOCTYPE svg PUBLIC "-//W3C//DTD SVG 1.1//EN" "http://www.w3.org/Graphics/SVG/1.1/DTD/svg11.dtd">
<svg version="1.1" id="Capa_1" xmlns="http://www.w3.org/2000/svg" xmlns:xlink="http://www.w3.org/1999/xlink" x="0px" y="0px"
	 width="100.401px" height="100.401px" viewBox="0 0 100.401 100.401" style="enable-background:new 0 0 100.401 100.401;"
	 xml:space="preserve">
<g>
	<path d="M27.423,2.803C27.423,1.262,28.679,0,30.225,0h29.109c1.139,0,2.161,0.69,2.593,1.743C62.359,2.796,62.107,4,61.299,4.808
		l-24.22,23.804h22.26c1.549,0,2.802,1.26,2.802,2.801c0,1.546-1.253,2.802-2.802,2.802H30.231c-1.139,0-2.164-0.69-2.594-1.743
		c-0.432-1.053-0.181-2.251,0.626-3.059l24.23-23.809H30.231C28.679,5.604,27.423,4.342,27.423,2.803z M90.562,35.765H76.839
		l15.683-15.415c0.822-0.807,1.062-1.995,0.631-3.059c-0.434-1.053-1.461-1.742-2.596-1.742H69.989c-1.55,0-2.802,1.256-2.802,2.801
		c0,1.541,1.252,2.801,2.802,2.801h13.723L68.028,36.562c-0.821,0.807-1.061,2-0.635,3.064c0.438,1.053,1.461,1.743,2.6,1.743
		h20.569c1.543,0,2.801-1.253,2.801-2.802C93.363,37.021,92.105,35.765,90.562,35.765z M61.528,45.21
		c-0.438-1.057-1.456-1.75-2.595-1.75h-16.42c-1.546,0-2.802,1.255-2.802,2.8c0,1.549,1.256,2.802,2.802,2.802h9.564L40.545,60.389
		c-0.812,0.811-1.058,2.015-0.625,3.07s1.455,1.739,2.594,1.739h16.42c1.539,0,2.802-1.253,2.802-2.802
		c0-1.537-1.263-2.802-2.802-2.802h-9.57l11.53-11.332C61.702,47.476,61.954,46.26,61.528,45.21z M75.214,73.316v24.285
		c0,1.541-1.252,2.8-2.802,2.8c-1.549,0-2.802-1.259-2.802-2.8v-5.606H12.641v5.606c0,1.541-1.252,2.8-2.802,2.8
		c-1.546,0-2.802-1.259-2.802-2.8V56.975c0-1.543,1.256-2.802,2.802-2.802c1.55,0,2.802,1.259,2.802,2.802v21.012H69.61v-4.671
		c0-1.545,1.253-2.804,2.802-2.804C73.962,70.512,75.214,71.771,75.214,73.316z M69.61,86.392V83.59H12.641v2.802H69.61z
		 M28.516,72.034c0,1.538,1.256,2.802,2.801,2.802h33.62c1.551,0,2.802-1.264,2.802-2.802c0-1.547-1.251-2.802-2.802-2.802h-33.62
		C29.771,69.232,28.516,70.487,28.516,72.034z M20.111,76.465c2.965,0,5.367-2.401,5.367-5.362c0-2.965-2.402-5.373-5.367-5.373
		c-2.97,0-5.375,2.408-5.375,5.373C14.737,74.069,17.142,76.465,20.111,76.465z"/>
</g>
<g>
</g>
<g>
</g>
<g>
</g>
<g>
</g>
<g>
</g>
<g>
</g>
<g>
</g>
<g>
</g>
<g>
</g>
<g>
</g>
<g>
</g>
<g>
</g>
<g>
</g>
<g>
</g>
<g>
</g>
</svg>
