<?xml version="1.0" encoding="iso-8859-1"?>
<!-- Generator: Adobe Illustrator 16.0.0, SVG Export Plug-In . SVG Version: 6.00 Build 0)  -->
<!DOCTYPE svg PUBLIC "-//W3C//DTD SVG 1.1//EN" "http://www.w3.org/Graphics/SVG/1.1/DTD/svg11.dtd">
<svg version="1.1" id="Capa_1" xmlns="http://www.w3.org/2000/svg" xmlns:xlink="http://www.w3.org/1999/xlink" x="0px" y="0px"
	 width="166.282px" height="166.282px" viewBox="0 0 166.282 166.282" style="enable-background:new 0 0 166.282 166.282;"
	 xml:space="preserve">
<g>
	<path d="M136.948,94.59c-2.089-1.166-4.333-1.938-6.653-2.441V28.717c0-1.548-1.27-2.802-2.802-2.802H92.473
		c-1.549,0-2.801,1.253-2.801,2.802v30.818H57.453c-1.546,0-2.802,1.253-2.802,2.802v25.215H22.432
		c-1.547,0-2.802,1.254-2.802,2.801v46.229c0,1.544,1.255,2.802,2.802,2.802h35.021h16.461c11.633,13.69,30.7,25.795,31.792,26.474
		c0.448,0.284,0.972,0.426,1.499,0.426c0.519,0,1.032-0.142,1.494-0.426c1.48-0.93,36.181-22.906,40.184-41.062
		c0.859-2.55,1.287-5.21,1.287-7.88C150.16,107.623,145.091,99.07,136.948,94.59z M95.263,31.519h29.418v60.061
		c-6.405,0.044-12.803,2.348-17.488,6.758c-3.316-3.124-7.508-5.143-11.93-6.117l0,0v-1.867V62.337V31.519z M25.222,93.154H54.64
		v40.625H25.222V93.154z M60.243,133.779V90.353V65.139h29.417v25.214v1.222c-4.234-0.022-8.482,0.925-12.236,3.009
		c-8.131,4.481-13.19,13.035-13.19,22.321c0,2.691,0.427,5.352,1.193,7.594c0.677,3.033,2.224,6.162,4.275,9.271L60.243,133.779
		L60.243,133.779z M143.484,123.296c-2.834,12.762-25.885,30.067-36.292,36.858c-10.419-6.791-33.47-24.097-36.364-37.144
		c-0.656-1.959-0.988-4.018-0.988-6.106c0-7.245,3.941-13.922,10.298-17.419c2.914-1.617,6.228-2.467,9.576-2.467
		c5.942,0,11.523,2.626,15.323,7.195c1.055,1.286,3.245,1.286,4.311,0c5.953-7.152,16.81-9.221,24.887-4.722
		c6.369,3.502,10.319,10.167,10.319,17.412C144.555,118.983,144.222,121.041,143.484,123.296z M138.186,120.472
		c0,1.953-0.322,3.896-0.944,5.789c-0.391,1.172-1.49,1.915-2.661,1.915c-0.302,0-0.584-0.043-0.887-0.143
		c-1.467-0.492-2.26-2.079-1.766-3.545c0.436-1.313,0.654-2.671,0.654-4.017c0-4.782-2.61-9.193-6.812-11.503
		c-1.938-1.066-4.109-1.63-6.312-1.63c-1.54,0-2.802-1.265-2.802-2.802c0-1.547,1.262-2.802,2.802-2.802
		c3.151,0,6.271,0.804,9.011,2.331C134.465,107.36,138.186,113.642,138.186,120.472z M20.733,77.08
		c-0.526,0.448-1.172,0.667-1.814,0.667c-0.803,0-1.588-0.343-2.134-0.989c-1.011-1.182-0.866-2.941,0.317-3.948L95.779,5.8
		c0.107-0.101,0.239-0.126,0.346-0.197H83.357c-1.541,0-2.802-1.262-2.802-2.802C80.556,1.253,81.817,0,83.357,0h18.212
		c1.536,0,2.802,1.253,2.802,2.801v18.206c0,1.545-1.266,2.801-2.802,2.801c-1.556,0-2.802-1.256-2.802-2.801V10.619L20.733,77.08z"
		/>
</g>
<g>
</g>
<g>
</g>
<g>
</g>
<g>
</g>
<g>
</g>
<g>
</g>
<g>
</g>
<g>
</g>
<g>
</g>
<g>
</g>
<g>
</g>
<g>
</g>
<g>
</g>
<g>
</g>
<g>
</g>
</svg>
