<?xml version="1.0" encoding="iso-8859-1"?>
<!-- Generator: Adobe Illustrator 16.0.0, SVG Export Plug-In . SVG Version: 6.00 Build 0)  -->
<!DOCTYPE svg PUBLIC "-//W3C//DTD SVG 1.1//EN" "http://www.w3.org/Graphics/SVG/1.1/DTD/svg11.dtd">
<svg version="1.1" id="Capa_1" xmlns="http://www.w3.org/2000/svg" xmlns:xlink="http://www.w3.org/1999/xlink" x="0px" y="0px"
	 width="141.485px" height="141.485px" viewBox="0 0 141.485 141.485" style="enable-background:new 0 0 141.485 141.485;"
	 xml:space="preserve">
<g>
	<path d="M48.264,87.757c0,1.661-1.357,3.026-3.026,3.026c-11.071,0-20.076-9.002-20.076-20.079c0-1.667,1.354-3.026,3.026-3.026
		c1.67,0,3.026,1.359,3.026,3.026c0,7.737,6.292,14.026,14.023,14.026C46.907,84.73,48.264,86.072,48.264,87.757z M125.429,3.026
		V138.46c0,1.66-1.359,3.025-3.026,3.025c-1.678,0-3.025-1.365-3.025-3.025V6.052H78.521v7.125h3.7c4.113,0,7.453,3.346,7.453,7.462
		v6.549h5.828c7.259,0,13.163,5.898,13.163,13.151v51.5c0,7.253-5.904,13.158-13.163,13.158H81.252
		c-0.124,0.649-0.443,1.276-1.005,1.737c-1.005,0.827-3.559,3.546-3.493,6.283c0.035,1.743,1.176,3.47,3.398,5.124
		c2.477,1.874,5.22,5.45,5.545,9.954c0.283,4.138-1.467,8.134-5.214,11.887c-0.591,0.597-1.377,0.881-2.146,0.881
		c-0.78,0-1.549-0.296-2.143-0.881c-1.174-1.177-1.174-3.104,0-4.285c2.456-2.447,3.626-4.883,3.461-7.188
		c-0.189-2.648-2.062-4.711-3.139-5.532c-3.789-2.838-5.757-6.165-5.816-9.871c-0.062-3.346,1.451-6.153,2.946-8.121h-12.74
		c-4.321,0-8.195-2.176-10.646-5.634c-1.64,0.29-3.313,0.509-5.036,0.509c-16.083,0-29.169-13.093-29.169-29.17
		c0-14.937,23.939-50.714,26.664-54.742c1.132-1.661,3.886-1.661,5.012,0c0.896,1.324,4.102,6.117,7.982,12.448
		c1.64-0.715,3.366-1.208,5.187-1.208h2.923V20.64c0-4.117,3.348-7.462,7.462-7.462h1.156V3.026c0-1.67,1.356-3.026,3.026-3.026
		h46.91C124.081,0,125.429,1.356,125.429,3.026z M45.238,93.815c12.747,0,23.114-10.373,23.114-23.123
		c0-9.942-14.913-34.941-23.114-47.567c-8.201,12.62-23.117,37.625-23.117,47.567C22.115,83.454,32.491,93.815,45.238,93.815z
		 M102.625,56.519H70.669c2.264,5.473,3.741,10.462,3.741,14.174c0,1.702-0.225,3.346-0.502,4.971h28.717v-7.825H82.062
		c-1.661,0-3.026-1.357-3.026-3.026c0-1.67,1.365-3.026,3.026-3.026h20.563V56.519z M102.625,91.841V81.716H72.214
		c-2.899,7.069-8.482,12.762-15.495,15.776c1.197,0.886,2.645,1.454,4.2,1.454h34.602C99.434,98.946,102.625,95.754,102.625,91.841z
		 M95.521,33.248H60.919c-0.721,0-1.421,0.109-2.095,0.313c3.124,5.296,6.375,11.186,9.117,16.911h34.684V40.353
		C102.625,36.437,99.434,33.248,95.521,33.248z M82.222,19.236H71.298c-0.78,0-1.41,0.626-1.41,1.41v6.549h13.745v-6.549
		C83.64,19.857,83.002,19.236,82.222,19.236z"/>
</g>
<g>
</g>
<g>
</g>
<g>
</g>
<g>
</g>
<g>
</g>
<g>
</g>
<g>
</g>
<g>
</g>
<g>
</g>
<g>
</g>
<g>
</g>
<g>
</g>
<g>
</g>
<g>
</g>
<g>
</g>
</svg>
