<?xml version="1.0" encoding="iso-8859-1"?>
<!-- Generator: Adobe Illustrator 16.0.0, SVG Export Plug-In . SVG Version: 6.00 Build 0)  -->
<!DOCTYPE svg PUBLIC "-//W3C//DTD SVG 1.1//EN" "http://www.w3.org/Graphics/SVG/1.1/DTD/svg11.dtd">
<svg version="1.1" id="Capa_1" xmlns="http://www.w3.org/2000/svg" xmlns:xlink="http://www.w3.org/1999/xlink" x="0px" y="0px"
	 width="100.85px" height="100.85px" viewBox="0 0 100.85 100.85" style="enable-background:new 0 0 100.85 100.85;"
	 xml:space="preserve">
<g>
	<path d="M45.173,38.293v-8.12h8.119c1.543,0,2.799-1.253,2.799-2.802V13.724c0-1.549-1.256-2.802-2.799-2.802h-8.119V2.803
		C45.173,1.256,43.917,0,42.372,0H28.716c-1.547,0-2.802,1.256-2.802,2.803v8.119H17.8c-1.541,0-2.803,1.253-2.803,2.802v13.647
		c0,1.548,1.262,2.802,2.803,2.802h8.115v8.12c0,1.546,1.255,2.802,2.802,2.802h13.655C43.929,41.095,45.173,39.839,45.173,38.293z
		 M39.57,27.372v8.12h-8.052v-8.12c0-1.546-1.256-2.801-2.802-2.801h-8.115v-8.045h8.115c1.546,0,2.802-1.256,2.802-2.802v-8.12
		h8.052v8.12c0,1.546,1.261,2.802,2.802,2.802h8.119v8.045h-8.119C40.831,24.571,39.57,25.825,39.57,27.372z M83.66,24.947
		c-0.118-0.936-0.688-1.753-1.543-2.175c-0.843-0.418-1.85-0.379-2.66,0.106c-1.619,0.958-39.674,23.606-46.346,37.149
		c-7.045,14.326-1.695,31.409,11.922,38.118c3.653,1.789,7.587,2.704,11.661,2.704c10.735,0,20.866-6.485,25.797-16.521
		C89.159,70.781,83.891,26.813,83.66,24.947z M77.471,81.839c-4.011,8.143-12.163,13.4-20.777,13.4c-2.266,0-4.432-0.481-6.54-1.187
		l2.633-5.347l13.68-3.009c1.517-0.334,2.462-1.828,2.14-3.338c-0.322-1.517-1.812-2.458-3.344-2.141l-9.311,2.048l3.27-6.666
		l13.681-3.004c1.521-0.334,2.468-1.827,2.134-3.343c-0.328-1.512-1.795-2.464-3.336-2.135l-9.305,2.047l4.772-9.708
		c0.689-1.384,0.12-3.063-1.271-3.753c-1.388-0.663-3.068-0.104-3.753,1.287L57.186,67.06l-3.855-8.909
		c-0.615-1.418-2.275-2.068-3.688-1.455c-1.421,0.606-2.064,2.26-1.454,3.683l5.737,13.285l-3.188,6.49l-3.855-8.909
		c-0.619-1.416-2.27-2.065-3.682-1.454c-1.424,0.612-2.074,2.266-1.462,3.688l5.743,13.285l-2.383,4.837
		c-8.988-6.074-12.219-18.479-6.988-29.094c4.433-8.991,28.016-24.871,40.438-32.551C80.076,44.485,81.892,72.849,77.471,81.839z"/>
</g>
<g>
</g>
<g>
</g>
<g>
</g>
<g>
</g>
<g>
</g>
<g>
</g>
<g>
</g>
<g>
</g>
<g>
</g>
<g>
</g>
<g>
</g>
<g>
</g>
<g>
</g>
<g>
</g>
<g>
</g>
</svg>
