<?xml version="1.0" encoding="iso-8859-1"?>
<!-- Generator: Adobe Illustrator 16.0.0, SVG Export Plug-In . SVG Version: 6.00 Build 0)  -->
<!DOCTYPE svg PUBLIC "-//W3C//DTD SVG 1.1//EN" "http://www.w3.org/Graphics/SVG/1.1/DTD/svg11.dtd">
<svg version="1.1" id="Capa_1" xmlns="http://www.w3.org/2000/svg" xmlns:xlink="http://www.w3.org/1999/xlink" x="0px" y="0px"
	 width="122.099px" height="122.099px" viewBox="0 0 122.099 122.099" style="enable-background:new 0 0 122.099 122.099;"
	 xml:space="preserve">
<g>
	<path d="M17.348,43.808c0,1.658,1.357,3.026,3.026,3.026h15.696c1.67,0,3.026-1.369,3.026-3.026v-9.513h9.519
		c1.673,0,3.026-1.362,3.026-3.026v-15.69c0-1.676-1.354-3.026-3.026-3.026h-9.519V3.026C39.097,1.348,37.741,0,36.071,0H20.375
		c-1.669,0-3.026,1.348-3.026,3.026v9.525H7.829c-1.67,0-3.026,1.351-3.026,3.026v15.69c0,1.664,1.356,3.026,3.026,3.026h9.519
		V43.808z M10.855,28.242v-9.638h9.519c1.673,0,3.026-1.368,3.026-3.026V6.053h9.644v9.525c0,1.658,1.356,3.026,3.026,3.026h9.52
		v9.638h-9.52c-1.67,0-3.026,1.348-3.026,3.026v9.514h-9.644v-9.514c0-1.679-1.354-3.026-3.026-3.026H10.855z M114.258,16.843
		H90.585c-1.673,0-3.026,1.363-3.026,3.026c0,1.679,1.354,3.026,3.026,3.026h16.355L90.326,39.528
		c-5.119-4.164-11.372-6.522-18.058-6.522c-7.701,0-14.966,3-20.418,8.461c-3.177,3.171-5.405,6.989-6.809,11.136
		c-4.135,1.397-7.965,3.632-11.142,6.809c-5.456,5.441-8.455,12.711-8.455,20.418c0,6.68,2.37,12.933,6.522,18.04l-6.428,6.431
		l-8.357-8.357c-1.18-1.183-3.098-1.183-4.28,0c-1.179,1.176-1.179,3.097,0,4.279l8.358,8.357l-8.352,8.358
		c-1.18,1.176-1.18,3.103,0,4.279c0.594,0.597,1.368,0.881,2.143,0.881s1.548-0.296,2.143-0.881l8.352-8.358l8.355,8.358
		c0.591,0.597,1.369,0.881,2.143,0.881c0.774,0,1.548-0.296,2.143-0.881c1.179-1.177,1.179-3.104,0-4.279l-8.355-8.358l6.428-6.431
		c5.122,4.161,11.375,6.525,18.058,6.525c7.71,0,14.963-3.002,20.413-8.452c3.18-3.175,5.402-7.011,6.81-11.142
		c4.138-1.401,7.974-3.647,11.147-6.821c5.455-5.444,8.458-12.696,8.458-20.404c0-6.682-2.37-12.944-6.525-18.054l16.627-16.645
		v16.385c0,1.658,1.359,3.026,3.026,3.026s3.026-1.368,3.026-3.026V19.863C117.285,18.206,115.937,16.843,114.258,16.843z
		 M70.436,95.956c-8.618,8.618-23.628,8.618-32.252,0.012c0-0.012-0.006-0.012-0.006-0.012c0-0.012-0.006-0.012-0.012-0.012
		c-4.3-4.304-6.67-10.036-6.67-16.113c0-6.1,2.371-11.821,6.683-16.136c1.613-1.608,3.472-2.85,5.423-3.901
		c-0.05,0.697-0.201,1.371-0.201,2.081c0,7.708,3.003,14.954,8.45,20.404c5.453,5.45,12.706,8.452,20.418,8.452
		c0.697,0,1.377-0.153,2.069-0.201C73.296,92.48,72.055,94.347,70.436,95.956z M76.702,84.051
		c-7.271,1.359-15.173-0.662-20.567-6.053c-4.303-4.315-6.682-10.036-6.682-16.125c0-1.499,0.151-2.976,0.429-4.41
		c1.442-0.292,2.92-0.438,4.418-0.438c6.097,0,11.822,2.385,16.137,6.68c4.303,4.314,6.679,10.036,6.679,16.137
		C77.115,81.261,76.961,82.667,76.702,84.051z M88.393,77.999c-1.596,1.596-3.464,2.802-5.414,3.807
		c0.041-0.662,0.188-1.301,0.188-1.975c0-7.695-2.996-14.966-8.452-20.413c-5.449-5.441-12.702-8.45-20.416-8.45
		c-0.706,0-1.377,0.146-2.074,0.201c1.046-1.95,2.287-3.815,3.898-5.423c4.315-4.318,10.057-6.683,16.145-6.683
		s11.81,2.376,16.125,6.668v0.015c0,0.018,0.012,0.018,0.012,0.018c4.303,4.303,6.673,10.027,6.673,16.122
		C95.078,67.974,92.708,73.696,88.393,77.999z"/>
</g>
<g>
</g>
<g>
</g>
<g>
</g>
<g>
</g>
<g>
</g>
<g>
</g>
<g>
</g>
<g>
</g>
<g>
</g>
<g>
</g>
<g>
</g>
<g>
</g>
<g>
</g>
<g>
</g>
<g>
</g>
</svg>
