<?xml version="1.0" encoding="iso-8859-1"?>
<!-- Generator: Adobe Illustrator 16.0.0, SVG Export Plug-In . SVG Version: 6.00 Build 0)  -->
<!DOCTYPE svg PUBLIC "-//W3C//DTD SVG 1.1//EN" "http://www.w3.org/Graphics/SVG/1.1/DTD/svg11.dtd">
<svg version="1.1" id="Capa_1" xmlns="http://www.w3.org/2000/svg" xmlns:xlink="http://www.w3.org/1999/xlink" x="0px" y="0px"
	 width="128.984px" height="128.984px" viewBox="0 0 128.984 128.984" style="enable-background:new 0 0 128.984 128.984;"
	 xml:space="preserve">
<g>
	<path d="M97.231,53.516h-0.248V39.897c0-5.006-4.084-9.079-9.079-9.079H50.575c-5.006,0-9.079,4.073-9.079,9.079v13.388
		c-12.33-1.102-22.094-10.858-23.226-23.182c6.854-1.451,11.993-7.527,11.993-14.792c0-8.34-6.779-15.131-15.131-15.131
		C6.782,0.18,0,6.971,0,15.312c0,7.347,5.263,13.479,12.232,14.836c1.167,15.64,13.604,28.058,29.264,29.19V73.19
		c0,5,4.073,9.079,9.079,9.079h37.329c4.995,0,9.079-4.079,9.079-9.079V59.574h0.248c14.187,0,25.724,11.541,25.724,25.72
		c0,14.187-11.537,25.725-25.724,25.725H71.727c-1.584-7.082-9.374-12.479-18.767-12.479c-9.389,0-17.18,5.408-18.77,12.479H26.09
		c-1.664,0-3.026,1.359-3.026,3.025c0,1.667,1.362,3.026,3.026,3.026h8.287c1.962,6.697,9.528,11.733,18.568,11.733
		c9.049,0,16.612-5.024,18.574-11.733h25.688c17.52,0,31.776-14.251,31.776-31.776C128.99,67.77,114.751,53.516,97.231,53.516z
		 M6.058,15.305c0-5.006,4.079-9.079,9.079-9.079c5.003,0,9.079,4.073,9.079,9.079c0,5.007-4.075,9.079-9.079,9.079
		C10.137,24.384,6.058,20.312,6.058,15.305z M90.931,73.19c0,1.667-1.365,3.026-3.026,3.026H50.575
		c-1.667,0-3.026-1.359-3.026-3.026V39.903c0-1.669,1.359-3.026,3.026-3.026h37.329c1.661,0,3.026,1.356,3.026,3.026V73.19z
		 M52.966,122.74c-7.078,0-13.051-4.155-13.051-9.079s5.973-9.079,13.051-9.079c7.081,0,13.048,4.155,13.048,9.079
		S60.047,122.74,52.966,122.74z M85.481,53.255c0,1.005-0.154,1.972-0.461,2.882c-1.608,7.214-16.077,16.308-16.077,16.308
		s-14.485-9.094-16.081-16.308c-0.311-0.91-0.473-1.877-0.473-2.888c0-3.522,1.942-6.59,4.841-8.189
		c1.339-0.738,2.888-1.161,4.504-1.161c2.899,0,5.482,1.318,7.203,3.384c1.714-2.065,4.303-3.384,7.193-3.384
		c1.637,0,3.168,0.423,4.504,1.161C83.53,46.659,85.481,49.727,85.481,53.255z"/>
</g>
<g>
</g>
<g>
</g>
<g>
</g>
<g>
</g>
<g>
</g>
<g>
</g>
<g>
</g>
<g>
</g>
<g>
</g>
<g>
</g>
<g>
</g>
<g>
</g>
<g>
</g>
<g>
</g>
<g>
</g>
</svg>
