<?xml version="1.0" encoding="iso-8859-1"?>
<!-- Generator: Adobe Illustrator 16.0.0, SVG Export Plug-In . SVG Version: 6.00 Build 0)  -->
<!DOCTYPE svg PUBLIC "-//W3C//DTD SVG 1.1//EN" "http://www.w3.org/Graphics/SVG/1.1/DTD/svg11.dtd">
<svg version="1.1" id="Capa_1" xmlns="http://www.w3.org/2000/svg" xmlns:xlink="http://www.w3.org/1999/xlink" x="0px" y="0px"
	 width="136.545px" height="136.545px" viewBox="0 0 136.545 136.545" style="enable-background:new 0 0 136.545 136.545;"
	 xml:space="preserve">
<g>
	<path d="M129.345,85.463c-4.511-4.443-10.492-6.889-16.823-6.889c-2.824,0-5.543,0.574-8.12,1.505V57.523
		c0-10.159-8.269-18.424-18.424-18.424c-1.773,0-3.497,0.342-5.178,0.829c-0.602-0.38-1.22-0.766-1.831-1.13
		c-1.641-0.982-3.878-2.314-4.349-3.127c-0.466-0.818-0.509-3.423-0.537-5.33c-0.058-3.915-0.117-7.967-2.683-10.131
		c-2.154-1.797-6.327-1.534-10.435-0.878c-2.425,0.381-5.145,0.471-5.333,0.397c-0.882-0.323-2.584-2.29-3.833-3.737
		c-2.561-2.963-5.213-6.03-8.561-6.03c-3.353,0-6.004,3.067-8.563,6.03c-1.249,1.447-2.953,3.414-3.833,3.737
		c-0.072,0.021-0.347,0.118-1.008,0.118l0,0c-1.17,0-2.773-0.263-4.324-0.515c-4.108-0.656-8.278-0.919-10.436,0.878
		c-2.572,2.164-2.633,6.205-2.684,10.131c-0.028,1.907-0.065,4.522-0.53,5.33c-0.472,0.812-2.712,2.145-4.349,3.127
		c-3.362,2.005-6.843,4.082-7.425,7.379c-0.6,3.385,2.033,6.679,4.577,9.871c1.193,1.498,2.684,3.357,2.946,4.304
		c0.23,0.818-0.755,3.57-1.343,5.213c-1.289,3.591-2.624,7.301-0.973,10.153c1.674,2.905,5.652,3.66,9.497,4.399
		c1.877,0.345,4.442,0.849,5.159,1.45c0.717,0.601,1.648,3.042,2.325,4.825c1.396,3.656,2.834,7.442,5.984,8.592
		c2.871,1.04,6.667-0.821,10.115-2.736c1.663-0.93,3.945-2.21,4.875-2.21c0.931,0,3.209,1.28,4.874,2.21
		c2.708,1.511,5.51,3.075,8.12,3.075c0.705,0,1.379-0.12,1.989-0.339c3.149-1.149,4.588-4.936,5.983-8.592
		c0.679-1.783,1.608-4.225,2.325-4.825c0.204-0.17,0.577-0.329,1.021-0.482v25.795c0,10.156,8.276,18.43,18.433,18.43
		c4.271,0,8.263-1.514,11.531-4.169c4.255,3.458,9.47,5.444,15.024,5.444c6.479,0,12.553-2.545,17.113-7.163
		c4.492-4.562,6.931-10.615,6.882-17.023C136.461,95.959,133.925,89.961,129.345,85.463z M123.232,87.69l-25.396,25.811
		c-5.309-7.14-4.846-17.291,1.584-23.836c3.486-3.534,8.138-5.487,13.106-5.487C116.435,84.178,120.122,85.44,123.232,87.69z
		 M98.8,57.512v21.051H77.527c1.55-0.63,2.875-1.504,3.656-2.862c1.646-2.855,0.312-6.561-0.98-10.147
		c-0.585-1.642-1.569-4.4-1.346-5.217c0.271-0.953,1.751-2.813,2.946-4.31c2.548-3.182,5.174-6.481,4.572-9.871
		c-0.093-0.539-0.366-0.994-0.595-1.47c0.064,0,0.118-0.017,0.184-0.017C93.041,44.691,98.8,50.439,98.8,57.512z M62.921,77.255
		c-1.83,1.532-2.868,4.258-3.961,7.119c-0.649,1.713-1.867,4.897-2.643,5.313c0,0-0.03,0.006-0.102,0.006
		c-1.148,0-3.598-1.368-5.384-2.37c-2.685-1.505-5.218-2.916-7.606-2.916c-2.386,0-4.926,1.411-7.604,2.916
		c-1.787,1.002-4.235,2.37-5.444,2.375c-0.819-0.427-2.036-3.623-2.685-5.324c-1.095-2.872-2.131-5.587-3.962-7.119
		c-1.833-1.532-4.683-2.079-7.704-2.671c-1.8-0.35-5.144-0.984-5.683-1.657c-0.304-0.826,0.791-3.86,1.373-5.491
		c1.119-3.127,2.181-6.063,1.473-8.603c-0.576-2.048-2.225-4.112-3.968-6.303C7.791,51,5.493,48.128,5.578,47.167
		c0.278-0.878,3.208-2.637,4.786-3.579c2.64-1.576,5.131-3.062,6.324-5.132c1.198-2.068,1.245-4.977,1.284-8.052
		c0.028-1.833,0.08-5.24,0.668-5.896c0,0,0.314-0.189,1.384-0.189c1.282,0,2.958,0.268,4.576,0.531
		c1.771,0.284,3.604,0.582,5.218,0.582c1.141,0,2.101-0.14,2.93-0.448c2.241-0.818,4.141-3.007,6.151-5.327
		c1.2-1.39,3.431-3.972,4.304-4.093c0.918,0.121,3.148,2.704,4.35,4.093c2.005,2.32,3.903,4.514,6.149,5.327
		c1.996,0.73,5.122,0.353,8.149-0.124c1.619-0.262,3.292-0.53,4.576-0.53c1.004,0,1.34,0.161,1.352,0.161
		c0.621,0.69,0.673,4.085,0.7,5.923c0.045,3.076,0.085,5.973,1.284,8.058c1.193,2.067,3.69,3.557,6.325,5.132
		c0.38,0.23,0.861,0.515,1.357,0.819c0.446,0.823,1.242,1.338,2.13,1.445c0.649,0.492,1.186,0.957,1.29,1.283
		c0.093,0.987-2.211,3.854-3.439,5.395c-1.748,2.187-3.388,4.249-3.968,6.293c-0.704,2.539,0.348,5.486,1.476,8.613
		c0.582,1.632,1.668,4.661,1.406,5.437c-0.566,0.733-3.91,1.368-5.715,1.718C67.61,75.176,64.754,75.723,62.921,77.255z
		 M73.149,106.858V84.166h24.16c-0.635,0.531-1.303,0.99-1.886,1.576c-8.484,8.624-8.998,22.047-1.835,31.377
		c-2.2,1.646-4.819,2.565-7.611,2.565C78.896,119.685,73.149,113.928,73.149,106.858z M125.638,115.466
		c-6.216,6.319-16.673,6.949-23.798,1.953l25.38-25.794c2.331,3.119,3.651,6.842,3.688,10.801
		C130.956,107.342,129.087,111.964,125.638,115.466z M54.415,35.66L34.475,71.488h-4.314L50.04,35.66H54.415z M39.326,45.948
		c0-5.918-3.364-10.288-9.33-10.288c-5.911,0-9.695,4.695-9.695,10.876c0,6.5,4.16,10.438,9.432,10.438
		C34.748,56.974,39.326,53.204,39.326,45.948z M29.895,52.552c-2.347,0-3.574-2.616-3.574-6.23c0-3.464,1.12-6.229,3.52-6.229
		c2.503,0,3.46,2.71,3.46,6.229C33.301,50.209,32.187,52.552,29.895,52.552z M54.942,50.048c-5.918,0-9.698,4.695-9.698,10.876
		c0.054,6.5,4.212,10.438,9.437,10.438c5.014,0,9.597-3.781,9.597-11.032C64.278,54.427,60.916,50.048,54.942,50.048z
		 M54.842,66.948c-2.348,0-3.577-2.606-3.518-6.227c0-3.46,1.064-6.229,3.518-6.229c2.503,0,3.406,2.706,3.406,6.229
		C58.248,64.606,57.135,66.948,54.842,66.948z"/>
</g>
<g>
</g>
<g>
</g>
<g>
</g>
<g>
</g>
<g>
</g>
<g>
</g>
<g>
</g>
<g>
</g>
<g>
</g>
<g>
</g>
<g>
</g>
<g>
</g>
<g>
</g>
<g>
</g>
<g>
</g>
</svg>
