<?xml version="1.0" encoding="iso-8859-1"?>
<!-- Generator: Adobe Illustrator 16.0.0, SVG Export Plug-In . SVG Version: 6.00 Build 0)  -->
<!DOCTYPE svg PUBLIC "-//W3C//DTD SVG 1.1//EN" "http://www.w3.org/Graphics/SVG/1.1/DTD/svg11.dtd">
<svg version="1.1" id="Capa_1" xmlns="http://www.w3.org/2000/svg" xmlns:xlink="http://www.w3.org/1999/xlink" x="0px" y="0px"
	 width="117.998px" height="117.998px" viewBox="0 0 117.998 117.998" style="enable-background:new 0 0 117.998 117.998;"
	 xml:space="preserve">
<g>
	<path d="M52.685,0H3.612C2.064,0,0.811,1.258,0.811,2.802v112.394c0,1.544,1.253,2.802,2.802,2.802h49.073
		c1.545,0,2.801-1.258,2.801-2.802V2.802C55.486,1.253,54.23,0,52.685,0z M49.883,112.389H6.414V5.603h43.469V112.389z
		 M15.157,103.695h25.985c1.546,0,2.802-1.26,2.802-2.802v-66.4c0-1.551-1.256-2.801-2.802-2.801H15.157
		c-1.546,0-2.802,1.25-2.802,2.801v66.4C12.355,102.447,13.606,103.695,15.157,103.695z M17.96,98.091V70.49h20.381v27.602H17.96z
		 M38.334,37.294v27.604h-20.38V37.294H38.334z M20.034,18.416c0-4.487,3.63-8.117,8.115-8.117c4.481,0,8.117,3.63,8.117,8.117
		c0,4.479-3.635,8.11-8.117,8.11C23.664,26.525,20.034,22.895,20.034,18.416z M114.386,0H65.313c-1.543,0-2.802,1.258-2.802,2.802
		v112.394c0,1.544,1.259,2.802,2.802,2.802h49.072c1.55,0,2.802-1.258,2.802-2.802V2.802C117.188,1.253,115.936,0,114.386,0z
		 M111.585,112.389h-43.47V5.603h43.47V112.389z M76.859,103.695h25.992c1.543,0,2.802-1.26,2.802-2.802v-66.4
		c0-1.551-1.259-2.801-2.802-2.801H76.859c-1.537,0-2.802,1.25-2.802,2.801v66.4C74.058,102.447,75.311,103.695,76.859,103.695z
		 M100.041,73.542h-20.38V70.49h20.38V73.542z M79.661,98.091V79.149h20.389v18.942H79.661z M100.041,37.294v27.604h-20.38V37.294
		H100.041z M81.729,18.416c0-4.487,3.641-8.117,8.12-8.117c4.487,0,8.115,3.63,8.115,8.117c0,4.479-3.628,8.11-8.115,8.11
		C85.37,26.525,81.729,22.895,81.729,18.416z"/>
</g>
<g>
</g>
<g>
</g>
<g>
</g>
<g>
</g>
<g>
</g>
<g>
</g>
<g>
</g>
<g>
</g>
<g>
</g>
<g>
</g>
<g>
</g>
<g>
</g>
<g>
</g>
<g>
</g>
<g>
</g>
</svg>
