<?xml version="1.0" encoding="iso-8859-1"?>
<!-- Generator: Adobe Illustrator 16.0.0, SVG Export Plug-In . SVG Version: 6.00 Build 0)  -->
<!DOCTYPE svg PUBLIC "-//W3C//DTD SVG 1.1//EN" "http://www.w3.org/Graphics/SVG/1.1/DTD/svg11.dtd">
<svg version="1.1" id="Capa_1" xmlns="http://www.w3.org/2000/svg" xmlns:xlink="http://www.w3.org/1999/xlink" x="0px" y="0px"
	 width="163.31px" height="163.31px" viewBox="0 0 163.31 163.31" style="enable-background:new 0 0 163.31 163.31;"
	 xml:space="preserve">
<g>
	<path d="M155.548,93.739c-4.882-4.8-11.331-7.441-18.17-7.441c-3.056,0-5.999,0.621-8.783,1.625V63.562
		c0-10.973-8.925-19.908-19.896-19.908c-3.133,0-6.053,0.792-8.701,2.081C89.217,32.669,73.524,25.157,56.489,25.157
		C25.343,25.157,0,50.505,0,81.646c0,31.144,25.343,56.495,56.489,56.495c12.634,0,24.811-4.256,34.714-11.98
		c3.352,6.277,9.889,10.604,17.496,10.604c4.61,0,8.925-1.637,12.448-4.486c4.604,3.73,10.231,5.875,16.242,5.875
		c7.005,0,13.565-2.748,18.489-7.736c4.847-4.93,7.482-11.467,7.43-18.383C163.231,105.076,160.478,98.592,155.548,93.739z
		 M148.945,96.145l-27.443,27.876c-5.733-7.708-5.226-18.673,1.714-25.741c3.76-3.83,8.796-5.929,14.162-5.929
		C141.599,92.362,145.582,93.716,148.945,96.145z M122.542,63.547v22.739H94.844V63.547c0-7.636,6.213-13.852,13.855-13.852
		C116.324,49.695,122.542,55.911,122.542,63.547z M59.516,131.94v-9.203c0-1.661-1.354-3.026-3.026-3.026
		c-1.67,0-3.026,1.365-3.026,3.026v9.191C27.988,130.404,7.593,109.917,6.194,84.4h8.938c1.673,0,3.026-1.362,3.026-3.026
		s-1.354-3.026-3.026-3.026H6.218c1.64-25.277,21.941-45.492,47.245-47.005v8.68c0,1.664,1.356,3.026,3.026,3.026
		c1.673,0,3.026-1.362,3.026-3.026v-8.668c13.855,0.824,26.519,7.172,35.482,17.8c-3.807,3.632-6.203,8.719-6.203,14.381v53.31
		c0,1.105,0.145,2.151,0.325,3.204C80.768,127.153,70.4,131.278,59.516,131.94z M94.844,116.845V92.326h26.108
		c-0.686,0.568-1.419,1.064-2.051,1.703c-9.15,9.315-9.718,23.809-1.975,33.893c-2.376,1.772-5.213,2.766-8.216,2.766
		C101.057,130.699,94.844,124.487,94.844,116.845z M151.54,126.148c-6.714,6.832-18.004,7.512-25.712,2.121l27.427-27.869
		c2.512,3.375,3.937,7.389,3.972,11.668C157.279,117.354,155.258,122.365,151.54,126.148z M59.516,54.397v27.993
		c0,0.727-0.26,1.428-0.736,1.98l-14.375,16.645c-0.6,0.686-1.442,1.046-2.291,1.046c-0.7,0-1.404-0.242-1.977-0.738
		c-1.265-1.088-1.404-3.003-0.316-4.268l13.636-15.785V54.403c0-1.664,1.356-3.026,3.026-3.026
		C58.156,51.371,59.516,52.733,59.516,54.397z"/>
</g>
<g>
</g>
<g>
</g>
<g>
</g>
<g>
</g>
<g>
</g>
<g>
</g>
<g>
</g>
<g>
</g>
<g>
</g>
<g>
</g>
<g>
</g>
<g>
</g>
<g>
</g>
<g>
</g>
<g>
</g>
</svg>
