<?xml version="1.0" encoding="iso-8859-1"?>
<!-- Generator: Adobe Illustrator 16.0.0, SVG Export Plug-In . SVG Version: 6.00 Build 0)  -->
<!DOCTYPE svg PUBLIC "-//W3C//DTD SVG 1.1//EN" "http://www.w3.org/Graphics/SVG/1.1/DTD/svg11.dtd">
<svg version="1.1" id="Capa_1" xmlns="http://www.w3.org/2000/svg" xmlns:xlink="http://www.w3.org/1999/xlink" x="0px" y="0px"
	 width="100.864px" height="100.864px" viewBox="0 0 100.864 100.864" style="enable-background:new 0 0 100.864 100.864;"
	 xml:space="preserve">
<g>
	<path d="M100.864,26.09c0,4.065-3.292,7.35-7.349,7.35c-0.794,0-1.517-0.211-2.232-0.452L75.207,49.061
		c0.229,0.723,0.448,1.458,0.448,2.245c0,4.065-3.295,7.349-7.354,7.349c-2.911,0-5.396-1.735-6.577-4.203H39.875
		c-1.196,2.468-3.661,4.203-6.591,4.203c-0.482,0-0.908-0.176-1.379-0.279L14.451,75.842c0.096,0.459,0.28,0.88,0.28,1.373
		c0,4.066-3.294,7.349-7.352,7.349c-4.064,0-7.363-3.277-7.363-7.344c0-4.065,3.294-7.354,7.352-7.354
		c1.459,0,2.722,0.541,3.866,1.264l15.954-15.948c-0.733-1.138-1.268-2.421-1.268-3.866c0-1.088,0.269-2.101,0.696-3.031
		L8.992,30.667c-0.544,0.123-1.053,0.337-1.642,0.337C3.289,31.004,0,27.712,0,23.652c0-4.063,3.293-7.352,7.351-7.352
		c4.063,0,7.352,3.293,7.352,7.352c0,1.371-0.476,2.588-1.132,3.68l17.157,17.152c0.801-0.31,1.642-0.521,2.54-0.521
		c3.187,0,5.844,2.061,6.87,4.903h21.296c1.022-2.842,3.666-4.903,6.867-4.903c1.182,0,2.248,0.348,3.25,0.84l15.455-15.461
		c-0.504-0.985-0.845-2.055-0.845-3.241c0-4.069,3.296-7.353,7.354-7.353C97.572,18.749,100.864,22.033,100.864,26.09z"/>
</g>
<g>
</g>
<g>
</g>
<g>
</g>
<g>
</g>
<g>
</g>
<g>
</g>
<g>
</g>
<g>
</g>
<g>
</g>
<g>
</g>
<g>
</g>
<g>
</g>
<g>
</g>
<g>
</g>
<g>
</g>
</svg>
