<?xml version="1.0" encoding="iso-8859-1"?>
<!-- Generator: Adobe Illustrator 16.0.0, SVG Export Plug-In . SVG Version: 6.00 Build 0)  -->
<!DOCTYPE svg PUBLIC "-//W3C//DTD SVG 1.1//EN" "http://www.w3.org/Graphics/SVG/1.1/DTD/svg11.dtd">
<svg version="1.1" id="Capa_1" xmlns="http://www.w3.org/2000/svg" xmlns:xlink="http://www.w3.org/1999/xlink" x="0px" y="0px"
	 width="91.404px" height="91.405px" viewBox="0 0 91.404 91.405" style="enable-background:new 0 0 91.404 91.405;"
	 xml:space="preserve">
<g>
	<path d="M42.078,0H6.826C5.28,0,4.024,1.262,4.024,2.803c0,1.547,1.256,2.801,2.802,2.801h1.641
		c0.387,44.739,11.017,67.042,13.186,71.103v11.896c0,1.542,1.255,2.802,2.801,2.802s2.802-1.26,2.802-2.802V76.707
		c2.164-4.061,12.793-26.363,13.186-71.103h1.642c1.545,0,2.801-1.253,2.801-2.801C44.879,1.256,43.617,0,42.078,0z M24.449,69.309
		c-2.701-6.709-6.971-19.951-9.106-40.242h18.207C31.421,49.358,27.149,62.6,24.449,69.309z M34.063,23.464H14.824
		c-0.444-5.488-0.714-11.442-0.775-17.866h20.783C34.775,12.022,34.507,17.976,34.063,23.464z M84.566,0h-35.25
		c-1.547,0-2.801,1.262-2.801,2.803c0,1.547,1.254,2.801,2.801,2.801h1.641c0.389,44.739,11.015,67.042,13.185,71.103v11.896
		c0,1.542,1.262,2.802,2.802,2.802c1.546,0,2.802-1.26,2.802-2.802V76.707c2.17-4.061,12.793-26.363,13.19-71.103h1.643
		c1.537,0,2.802-1.253,2.802-2.801C87.376,1.256,86.115,0,84.566,0z M66.943,69.309c-2.699-6.709-6.972-19.951-9.108-40.242h18.212
		C73.914,49.358,69.639,62.6,66.943,69.309z M76.562,23.464h-19.24c-0.448-5.488-0.72-11.442-0.782-17.866h20.783
		C77.272,12.022,77.001,17.976,76.562,23.464z"/>
</g>
<g>
</g>
<g>
</g>
<g>
</g>
<g>
</g>
<g>
</g>
<g>
</g>
<g>
</g>
<g>
</g>
<g>
</g>
<g>
</g>
<g>
</g>
<g>
</g>
<g>
</g>
<g>
</g>
<g>
</g>
</svg>
