<?xml version="1.0" encoding="iso-8859-1"?>
<!-- Generator: Adobe Illustrator 16.0.0, SVG Export Plug-In . SVG Version: 6.00 Build 0)  -->
<!DOCTYPE svg PUBLIC "-//W3C//DTD SVG 1.1//EN" "http://www.w3.org/Graphics/SVG/1.1/DTD/svg11.dtd">
<svg version="1.1" id="Capa_1" xmlns="http://www.w3.org/2000/svg" xmlns:xlink="http://www.w3.org/1999/xlink" x="0px" y="0px"
	 width="97.13px" height="97.13px" viewBox="0 0 97.13 97.13" style="enable-background:new 0 0 97.13 97.13;" xml:space="preserve"
	>
<g>
	<path d="M56.971,68.178c0,1.542-1.266,2.802-2.802,2.802h-2.802v2.802c0,1.542-1.263,2.801-2.802,2.801
		c-1.542,0-2.802-1.259-2.802-2.801v-2.802H42.96c-1.541,0-2.801-1.26-2.801-2.802c0-1.544,1.26-2.801,2.801-2.801h2.803v-2.804
		c0-1.543,1.26-2.802,2.802-2.802c1.539,0,2.802,1.259,2.802,2.802v2.804h2.802C55.705,65.377,56.971,66.634,56.971,68.178z
		 M97.13,40.86v43.547c0,1.537-1.261,2.802-2.802,2.802H84.116v8.284H69.408v-8.284H27.725v8.284H13.015v-8.284H2.802
		C1.256,87.209,0,85.944,0,84.407V40.86C0,16.667,18.597,1.637,48.558,1.637C78.523,1.637,97.13,16.667,97.13,40.86z M91.526,40.86
		c0-21.049-16.062-33.619-42.969-33.619c-26.893,0-42.955,12.57-42.955,33.619v40.747h85.923V40.86z M85.923,40.86v12.257
		c0,1.55-1.26,2.802-2.802,2.802H14.009c-1.547,0-2.803-1.252-2.803-2.802V40.86c0-17.806,13.624-28.016,37.351-28.016
		C72.296,12.844,85.923,23.055,85.923,40.86z M80.317,40.86c0-18.525-17.269-22.413-31.76-22.413
		c-14.482,0-31.747,3.888-31.747,22.413v9.456h63.506V40.86z M23.082,62.398c-3.191,0-5.779,2.593-5.779,5.779
		c0,3.185,2.588,5.777,5.779,5.777c3.176,0,5.77-2.593,5.77-5.777C28.851,64.991,26.268,62.398,23.082,62.398z M74.047,62.398
		c-3.185,0-5.768,2.593-5.768,5.779c0,3.185,2.583,5.777,5.768,5.777c3.192,0,5.778-2.593,5.778-5.777
		C79.825,64.991,77.239,62.398,74.047,62.398z"/>
</g>
<g>
</g>
<g>
</g>
<g>
</g>
<g>
</g>
<g>
</g>
<g>
</g>
<g>
</g>
<g>
</g>
<g>
</g>
<g>
</g>
<g>
</g>
<g>
</g>
<g>
</g>
<g>
</g>
<g>
</g>
</svg>
