<?xml version="1.0" encoding="iso-8859-1"?>
<!-- Generator: Adobe Illustrator 16.0.0, SVG Export Plug-In . SVG Version: 6.00 Build 0)  -->
<!DOCTYPE svg PUBLIC "-//W3C//DTD SVG 1.1//EN" "http://www.w3.org/Graphics/SVG/1.1/DTD/svg11.dtd">
<svg version="1.1" id="Capa_1" xmlns="http://www.w3.org/2000/svg" xmlns:xlink="http://www.w3.org/1999/xlink" x="0px" y="0px"
	 width="144.868px" height="144.868px" viewBox="0 0 144.868 144.868" style="enable-background:new 0 0 144.868 144.868;"
	 xml:space="preserve">
<g>
	<path d="M123.394,46.029H34.773v-6.416h27.244c1.546,0,2.802-1.256,2.802-2.802c0-1.541-1.256-2.802-2.802-2.802H2.803
		C1.253,34.01,0,35.271,0,36.812c0,1.546,1.253,2.802,2.803,2.802h26.367v6.588C13.524,47.821,1.281,61.086,1.281,77.148
		c0,10.911,5.65,20.51,14.162,26.068v8.908h-2.78c-1.545,0-2.801,1.254-2.801,2.802c0,1.526,1.256,2.802,2.801,2.802h39.487
		c1.545,0,2.801-1.275,2.801-2.802c0-1.548-1.256-2.802-2.801-2.802h-2.774v-8.908c7.906-5.183,13.308-13.839,14.043-23.771
		l50.673-10.708c0.788-0.156,1.455-0.649,1.852-1.337l9.87-17.169c0.509-0.865,0.505-1.939,0-2.802
		C125.32,46.56,124.39,46.029,123.394,46.029z M29.602,51.911v19.439H7.615C10.047,60.979,18.811,53.115,29.602,51.911z
		 M43.771,112.125H21.045v-6.019c3.525,1.39,7.347,2.184,11.353,2.184c4.017,0,7.844-0.794,11.367-2.184L43.771,112.125
		L43.771,112.125z M32.403,102.675c-14.068,0-25.52-11.458-25.52-25.532c0-0.066,0.019-0.128,0.019-0.194h25.495
		c1.546,0,2.802-1.25,2.802-2.801V51.9c12.74,1.423,22.727,12.127,22.727,25.238C57.932,91.229,46.48,102.675,32.403,102.675z
		 M111.712,63.519L63.334,73.737c-1.004-9.139-5.984-17.095-13.169-22.105h68.381L111.712,63.519z M144.868,41.747
		c0,1.546-1.255,2.802-2.804,2.802h-9.007v8.999c0,1.543-1.248,2.801-2.802,2.801c-1.537,0-2.802-1.258-2.802-2.801v-8.999h-8.994
		c-1.545,0-2.802-1.256-2.802-2.802c0-1.541,1.257-2.802,2.802-2.802h8.994v-9.004c0-1.541,1.265-2.802,2.802-2.802
		c1.554,0,2.802,1.261,2.802,2.802v9.004h9.001C143.618,38.945,144.868,40.207,144.868,41.747z M48.512,84.891
		c0,1.538-1.256,2.802-2.802,2.802h-3.204v3.201c0,1.537-1.255,2.802-2.801,2.802c-1.549,0-2.801-1.265-2.801-2.802v-3.201h-3.208
		c-1.546,0-2.802-1.264-2.802-2.802c0-1.542,1.256-2.802,2.802-2.802h3.208v-3.217c0-1.532,1.252-2.805,2.801-2.805
		c1.546,0,2.801,1.272,2.801,2.805v3.217h3.204C47.256,82.089,48.512,83.326,48.512,84.891z"/>
</g>
<g>
</g>
<g>
</g>
<g>
</g>
<g>
</g>
<g>
</g>
<g>
</g>
<g>
</g>
<g>
</g>
<g>
</g>
<g>
</g>
<g>
</g>
<g>
</g>
<g>
</g>
<g>
</g>
<g>
</g>
</svg>
