<?xml version="1.0" encoding="iso-8859-1"?>
<!-- Generator: Adobe Illustrator 16.0.0, SVG Export Plug-In . SVG Version: 6.00 Build 0)  -->
<!DOCTYPE svg PUBLIC "-//W3C//DTD SVG 1.1//EN" "http://www.w3.org/Graphics/SVG/1.1/DTD/svg11.dtd">
<svg version="1.1" id="Capa_1" xmlns="http://www.w3.org/2000/svg" xmlns:xlink="http://www.w3.org/1999/xlink" x="0px" y="0px"
	 width="154.122px" height="154.123px" viewBox="0 0 154.122 154.123" style="enable-background:new 0 0 154.122 154.123;"
	 xml:space="preserve">
<g>
	<path d="M146.386,79.916c-4.87-4.799-11.325-7.445-18.17-7.445c-3.056,0-5.993,0.615-8.783,1.62V49.724
		c0-10.973-8.925-19.908-19.896-19.908c-10.415,0-18.902,8.068-19.742,18.273H68.092v-5.55c0-1.669-1.356-3.026-3.026-3.026
		c-1.664,0-3.026,1.356-3.026,3.026v5.55H23.708v-5.55c0-1.669-1.356-3.026-3.026-3.026c-1.664,0-3.026,1.356-3.026,3.026v5.55
		H3.026C1.362,48.089,0,49.446,0,51.116v61.534c0,1.667,1.362,3.026,3.026,3.026h79.694c0.474,0,0.904-0.124,1.307-0.319
		c3.652,4.575,9.209,7.565,15.51,7.565c4.61,0,8.932-1.637,12.448-4.504c4.61,3.747,10.237,5.888,16.243,5.888
		c7.004,0,13.564-2.749,18.477-7.743C156.718,106.373,156.576,89.929,146.386,79.916z M139.783,82.316l-27.432,27.875
		c-5.745-7.708-5.236-18.672,1.702-25.741c3.766-3.824,8.796-5.929,14.162-5.929C132.431,78.521,136.433,79.88,139.783,82.316z
		 M99.537,35.863c7.637,0,13.843,6.218,13.843,13.855v22.736H85.683V51.491c0.012-0.127,0.083-0.248,0.083-0.381
		s-0.071-0.254-0.083-0.381v-1.011C85.683,42.087,91.9,35.863,99.537,35.863z M6.064,109.612V54.13h11.603v4.037
		c0,1.673,1.363,3.026,3.026,3.026c1.67,0,3.026-1.354,3.026-3.026V54.13h38.332v4.037c0,1.673,1.362,3.026,3.026,3.026
		c1.67,0,3.026-1.354,3.026-3.026V54.13H79.63v48.885c0,2.317,0.473,4.527,1.206,6.597H6.064L6.064,109.612z M85.683,103.015V78.509
		h26.096c-0.68,0.567-1.4,1.063-2.039,1.702c-9.162,9.321-9.718,23.82-1.98,33.904c-2.376,1.761-5.207,2.767-8.222,2.767
		C91.9,116.871,85.683,110.652,85.683,103.015z M142.379,112.307c-6.715,6.833-18.011,7.519-25.712,2.116l27.426-27.863
		C149.832,94.291,149.329,105.25,142.379,112.307z M12.879,68.511h8.565v8.576h-8.565V68.511z M25.741,68.511h8.565v8.576h-8.565
		V68.511z M38.603,68.511h8.565v8.576h-8.565V68.511z M51.465,68.511h8.565v8.576h-8.565V68.511z M64.327,68.511h8.565v8.576h-8.565
		V68.511z M12.879,81.594h8.565v8.571h-8.565V81.594z M25.741,81.594h8.565v8.571h-8.565V81.594z M38.603,81.594h8.565v8.571h-8.565
		V81.594z M51.465,81.594h8.565v8.571h-8.565V81.594z M64.327,81.594h8.565v8.571h-8.565V81.594z M12.879,94.681h8.565v8.57h-8.565
		V94.681z M25.741,94.681h8.565v8.57h-8.565V94.681z M38.603,94.681h8.565v8.57h-8.565V94.681z M51.465,94.681h8.565v8.57h-8.565
		V94.681z M64.327,94.681h8.565v8.57h-8.565V94.681z"/>
</g>
<g>
</g>
<g>
</g>
<g>
</g>
<g>
</g>
<g>
</g>
<g>
</g>
<g>
</g>
<g>
</g>
<g>
</g>
<g>
</g>
<g>
</g>
<g>
</g>
<g>
</g>
<g>
</g>
<g>
</g>
</svg>
