<?xml version="1.0" encoding="iso-8859-1"?>
<!-- Generator: Adobe Illustrator 16.0.0, SVG Export Plug-In . SVG Version: 6.00 Build 0)  -->
<!DOCTYPE svg PUBLIC "-//W3C//DTD SVG 1.1//EN" "http://www.w3.org/Graphics/SVG/1.1/DTD/svg11.dtd">
<svg version="1.1" id="Capa_1" xmlns="http://www.w3.org/2000/svg" xmlns:xlink="http://www.w3.org/1999/xlink" x="0px" y="0px"
	 width="159.696px" height="159.696px" viewBox="0 0 159.696 159.696" style="enable-background:new 0 0 159.696 159.696;"
	 xml:space="preserve">
<g>
	<path d="M14.108,73.955c-0.884-3.286,1.052-6.676,4.35-7.56c3.287-0.884,6.67,1.066,7.554,4.353
		c0.883,3.292-1.064,6.676-4.351,7.557C18.376,79.204,14.986,77.241,14.108,73.955z M42.622,72.667
		c3.287-0.883,5.228-4.273,4.351-7.554c-0.89-3.292-4.268-5.239-7.566-4.353c-3.286,0.887-5.228,4.273-4.351,7.554
		C35.939,71.6,39.323,73.55,42.622,72.667z M26.278,95.458c3.287-0.887,5.237-4.279,4.348-7.565
		c-0.884-3.286-4.262-5.237-7.554-4.351s-5.231,4.273-4.347,7.561C19.608,94.389,22.992,96.351,26.278,95.458z M47.226,89.813
		c3.292-0.881,5.237-4.273,4.359-7.554c-0.89-3.292-4.268-5.231-7.56-4.356c-3.292,0.887-5.237,4.268-4.353,7.566
		C40.562,88.744,43.94,90.694,47.226,89.813z M30.903,112.6c3.298-0.881,5.24-4.268,4.345-7.554
		c-0.884-3.299-4.259-5.237-7.548-4.351c-3.298,0.887-5.234,4.268-4.351,7.548C24.228,111.536,27.611,113.492,30.903,112.6z
		 M51.857,106.961c3.292-0.887,5.237-4.273,4.359-7.56c-0.889-3.287-4.279-5.22-7.566-4.356c-3.286,0.887-5.237,4.268-4.353,7.554
		S48.571,107.836,51.857,106.961z M32.308,117.837c-3.287,0.887-5.229,4.268-4.339,7.56c0.884,3.286,4.265,5.237,7.551,4.356
		c3.289-0.881,5.231-4.279,4.341-7.566C38.989,118.9,35.605,116.95,32.308,117.837z M53.267,112.187
		c-3.287,0.886-5.228,4.279-4.351,7.565c0.878,3.286,4.268,5.236,7.554,4.356c3.298-0.881,5.234-4.273,4.35-7.561
		C59.943,113.262,56.553,111.3,53.267,112.187z M142.466,132.938c0.036,0.172,0.107,0.349,0.107,0.526
		c0,8.901-19.571,11.266-31.139,11.266c-8.274,0-20.616-1.229-26.991-5.184l0,0c-0.127,0-0.26-0.006-0.373-0.023l-18.279-2.317
		c-0.027,0-0.039-0.012-0.056-0.012c-0.381,0.136-0.757,0.331-1.162,0.432l-29.234,7.891c-1.191,0.325-2.421,0.479-3.656,0.479
		c-6.324,0-11.886-4.262-13.526-10.379L0.484,70.069c-2.01-7.468,2.426-15.191,9.906-17.201l29.223-7.879
		c3.194-0.86,6.469-0.426,9.339,0.881c2.967-3.668,7.613-5.707,12.48-5.166l3.414,0.378l-1.623-9.646
		c-0.121-0.665,0.05-1.3,0.346-1.865l0,0c0-10.905,24.822-15.871,47.877-15.871c23.064,0,47.871,4.965,47.871,15.871
		c0,0.023-0.012,0.044-0.012,0.068c0.302,0.567,0.461,1.203,0.361,1.882L142.466,132.938z M69.61,29.583
		c0,3.458,15.876,9.812,41.824,9.812c25.942,0,41.825-6.354,41.825-9.812c0-3.334-14.754-9.815-41.825-9.815
		C84.373,19.774,69.61,26.261,69.61,29.583z M72.453,131.939l7.82,0.993L68.83,64.853c-1.067,2.396-3.499,3.969-6.242,3.656
		c-0.842-0.097-1.628-0.358-2.317-0.745l2.178,8.118c3.171-0.195,6.035,1.998,6.49,5.201c0.381,2.695-1.085,5.166-3.39,6.325
		l8.901,33.018C75.571,124.527,74.676,128.677,72.453,131.939z M53.826,49.473c1.354,1.537,2.409,3.354,2.964,5.417l1.182,4.395
		c1.186-2.034,3.491-3.298,5.991-3.021c1.513,0.168,2.778,0.925,3.742,1.954l-1.841-10.917l-5.151-0.583
		C58.084,46.417,55.525,47.513,53.826,49.473z M62.993,131.786c4.244-1.135,6.773-5.532,5.636-9.788L50.956,56.462
		c-0.423-1.596-1.375-2.923-2.554-3.945c-0.275-0.156-0.535-0.325-0.733-0.544c-1.277-0.872-2.778-1.415-4.413-1.415
		c-0.703,0-1.403,0.094-2.095,0.283L11.939,58.72c-4.247,1.138-6.777,5.533-5.639,9.782l17.673,65.542
		c1.126,4.167,5.592,6.762,9.789,5.627L62.993,131.786z M136.354,133.5c-0.012-0.213-0.059-0.426-0.023-0.65l16.024-94.501
		c-8.991,4.835-25.352,7.11-40.933,7.11c-15.574,0-31.924-2.275-40.917-7.104l0.872,5.128c0.145,0.393,0.237,0.815,0.213,1.265
		l14.792,88.056c0.036,0.236-0.012,0.449-0.023,0.668c0.81,1.726,10.104,5.207,25.064,5.207
		C125.934,138.678,135.054,135.421,136.354,133.5z"/>
</g>
<g>
</g>
<g>
</g>
<g>
</g>
<g>
</g>
<g>
</g>
<g>
</g>
<g>
</g>
<g>
</g>
<g>
</g>
<g>
</g>
<g>
</g>
<g>
</g>
<g>
</g>
<g>
</g>
<g>
</g>
</svg>
