<?xml version="1.0" encoding="iso-8859-1"?>
<!-- Generator: Adobe Illustrator 16.0.0, SVG Export Plug-In . SVG Version: 6.00 Build 0)  -->
<!DOCTYPE svg PUBLIC "-//W3C//DTD SVG 1.1//EN" "http://www.w3.org/Graphics/SVG/1.1/DTD/svg11.dtd">
<svg version="1.1" id="Capa_1" xmlns="http://www.w3.org/2000/svg" xmlns:xlink="http://www.w3.org/1999/xlink" x="0px" y="0px"
	 width="141.031px" height="141.031px" viewBox="0 0 141.031 141.031" style="enable-background:new 0 0 141.031 141.031;"
	 xml:space="preserve">
<g>
	<path d="M35.68,78.123c4.084-4.085,11.517-3.322,16.547,1.708c2.506,2.512,4.037,5.681,4.297,8.884
		c0.254,3.032-0.665,5.757-2.583,7.685c-1.188,1.164-1.188,3.091-0.006,4.279c0.591,0.591,1.365,0.881,2.143,0.881
		c0.774,0,1.543-0.296,2.134-0.881c3.198-3.187,4.741-7.613,4.348-12.46c-0.115-1.396-0.449-2.79-0.878-4.161
		c1.827,0.585,3.686,0.969,5.562,0.969c4.262,0,8.166-1.561,11.002-4.397c4.274-4.273,5.309-10.651,3.417-16.633
		c1.868,0.594,3.759,0.981,5.627,0.981c4.114,0,8.057-1.439,10.994-4.389c1.183-1.174,1.183-3.098,0-4.279
		c-1.183-1.174-3.098-1.174-4.279,0c-4.091,4.081-11.521,3.336-16.556-1.694c-2.755-2.76-4.333-6.348-4.327-9.847
		c0-2.663,0.901-4.995,2.633-6.694c1.18-1.182,1.186-3.105,0.013-4.279c-1.183-1.194-3.101-1.194-4.286-0.012
		c-2.84,2.825-4.407,6.724-4.413,10.979c0,1.947,0.417,3.892,1.034,5.78c-6.017-1.847-12.548-0.865-16.662,3.263
		c-4.268,4.252-5.314,10.622-3.44,16.585c-5.961-1.886-12.321-0.84-16.588,3.428c-1.179,1.183-1.179,3.109,0,4.28
		C32.568,79.306,34.492,79.306,35.68,78.123z M55.715,58.097c1.717-1.714,4.037-2.633,6.712-2.633c3.499,0,7.081,1.584,9.835,4.339
		c5.03,5.036,5.799,12.469,1.706,16.547c-3.963,3.96-11.691,3.156-16.553-1.702C52.372,69.623,51.61,62.188,55.715,58.097z
		 M60.884,62.241c-1.182-1.179-1.182-3.097,0-4.279c1.179-1.179,3.097-1.179,4.285,0l8.925,8.955c1.182,1.183,1.182,3.098,0,4.279
		c-0.585,0.591-1.359,0.881-2.143,0.881c-0.774,0-1.548-0.296-2.143-0.881L60.884,62.241z M64.519,76.479l-8.952-8.949
		c-1.179-1.179-1.179-3.097,0-4.279c1.182-1.179,3.1-1.179,4.28,0l8.952,8.949c1.182,1.183,1.182,3.109,0,4.279
		c-0.591,0.604-1.366,0.887-2.143,0.887C65.881,77.372,65.107,77.083,64.519,76.479z M53.445,91.848
		c-0.594,0.597-1.369,0.887-2.143,0.887c-0.774,0-1.551-0.296-2.143-0.887l-8.946-8.948c-1.182-1.171-1.182-3.098,0-4.28
		c1.179-1.17,3.097-1.17,4.279,0l8.946,8.949C54.624,88.763,54.624,90.671,53.445,91.848z M76.225,42.608
		c1.183-1.183,3.109-1.183,4.28,0l8.948,8.952c1.183,1.173,1.183,3.097,0,4.279c-0.591,0.591-1.371,0.883-2.14,0.883
		s-1.548-0.298-2.14-0.883l-8.955-8.952C75.052,45.699,75.052,43.787,76.225,42.608z M137.998,5.976H30.517
		c-1.669,0-3.026,1.357-3.026,3.026v15.149H3.026C1.356,24.152,0,25.514,0,27.178v77.165c0,1.673,1.356,3.026,3.026,3.026h25.511
		v24.66c0,1.135,0.647,2.187,1.67,2.695c0.432,0.213,0.89,0.331,1.356,0.331c0.641,0,1.283-0.207,1.817-0.615l36.091-27.083h52.656
		c1.673,0,3.026-1.359,3.026-3.026V78.85h12.851c1.666,0,3.026-1.354,3.026-3.026V8.997C141.025,7.333,139.684,5.976,137.998,5.976z
		 M119.096,101.317H68.461c-0.653,0-1.289,0.212-1.818,0.614L34.59,125.988v-21.64c0-1.66-1.356-3.025-3.026-3.025H6.053V30.204
		h113.049L119.096,101.317L119.096,101.317z M134.973,72.81h-9.824V27.178c0-1.664-1.354-3.026-3.026-3.026H33.543V12.029h101.429
		V72.81z"/>
</g>
<g>
</g>
<g>
</g>
<g>
</g>
<g>
</g>
<g>
</g>
<g>
</g>
<g>
</g>
<g>
</g>
<g>
</g>
<g>
</g>
<g>
</g>
<g>
</g>
<g>
</g>
<g>
</g>
<g>
</g>
</svg>
