<?xml version="1.0" encoding="iso-8859-1"?>
<!-- Generator: Adobe Illustrator 16.0.0, SVG Export Plug-In . SVG Version: 6.00 Build 0)  -->
<!DOCTYPE svg PUBLIC "-//W3C//DTD SVG 1.1//EN" "http://www.w3.org/Graphics/SVG/1.1/DTD/svg11.dtd">
<svg version="1.1" id="Capa_1" xmlns="http://www.w3.org/2000/svg" xmlns:xlink="http://www.w3.org/1999/xlink" x="0px" y="0px"
	 width="79.004px" height="79.004px" viewBox="0 0 79.004 79.004" style="enable-background:new 0 0 79.004 79.004;"
	 xml:space="preserve">
<g>
	<path d="M77.593,37.381L40.898,16.407c-0.856-0.493-1.915-0.493-2.779,0L1.412,37.381C0.537,37.879,0,38.81,0,39.813v20.35
		c0,1.544,1.253,2.804,2.802,2.804h73.401c1.55,0,2.802-1.26,2.802-2.804v-20.35C79.004,38.805,78.468,37.874,77.593,37.381z
		 M73.402,57.362H5.604V41.439l33.905-19.371l33.894,19.371V57.362z M39.508,29.346c1.547,0,2.801,1.256,2.801,2.801v7.004h7.005
		c1.545,0,2.801,1.256,2.801,2.801c0,1.541-1.256,2.803-2.801,2.803h-7.005v7.003c0,1.544-1.254,2.802-2.801,2.802
		c-1.546,0-2.802-1.258-2.802-2.802v-7.003h-7.004c-1.545,0-2.801-1.262-2.801-2.803c0-1.545,1.256-2.801,2.801-2.801h7.004v-7.004
		C36.707,30.602,37.962,29.346,39.508,29.346z"/>
</g>
<g>
</g>
<g>
</g>
<g>
</g>
<g>
</g>
<g>
</g>
<g>
</g>
<g>
</g>
<g>
</g>
<g>
</g>
<g>
</g>
<g>
</g>
<g>
</g>
<g>
</g>
<g>
</g>
<g>
</g>
</svg>
