<?xml version="1.0" encoding="iso-8859-1"?>
<!-- Generator: Adobe Illustrator 16.0.0, SVG Export Plug-In . SVG Version: 6.00 Build 0)  -->
<!DOCTYPE svg PUBLIC "-//W3C//DTD SVG 1.1//EN" "http://www.w3.org/Graphics/SVG/1.1/DTD/svg11.dtd">
<svg version="1.1" id="Capa_1" xmlns="http://www.w3.org/2000/svg" xmlns:xlink="http://www.w3.org/1999/xlink" x="0px" y="0px"
	 width="107.93px" height="107.93px" viewBox="0 0 107.93 107.93" style="enable-background:new 0 0 107.93 107.93;"
	 xml:space="preserve">
<g>
	<path d="M107.93,97.846c0,1.667-1.348,3.027-3.026,3.027H17.141c-1.664,0-3.026-1.36-3.026-3.027v-5.047H3.026
		C1.351,92.799,0,91.439,0,89.772s1.351-3.026,3.026-3.026h11.088V75.148H3.026C1.351,75.148,0,73.789,0,72.123
		c0-1.667,1.351-3.027,3.026-3.027h11.088V57.499H3.026C1.351,57.499,0,56.14,0,54.473c0-1.666,1.351-3.026,3.026-3.026h11.088
		V39.844H3.026C1.351,39.844,0,38.487,0,36.817s1.351-3.026,3.026-3.026h11.088V22.188H3.026C1.351,22.188,0,20.832,0,19.162
		s1.351-3.026,3.026-3.026h11.088v-6.053c0-1.67,1.362-3.026,3.026-3.026c1.676,0,3.026,1.356,3.026,3.026V94.82h84.736
		C106.583,94.82,107.93,96.18,107.93,97.846z M57.133,57.346c0.521,0.662,1.289,1.088,2.14,1.146
		c0.852,0.106,1.667-0.213,2.294-0.78l9.67-8.869l18.004,23.48l-10.793-2.068c-1.607-0.308-3.228,0.757-3.535,2.394
		c-0.318,1.638,0.757,3.228,2.4,3.547l17.969,3.428c0.189,0.035,0.378,0.06,0.567,0.06c0.626,0,1.253-0.201,1.773-0.585
		c0.674-0.479,1.11-1.224,1.229-2.058l2.352-18.081c0.213-1.654-0.934-3.18-2.612-3.398c-1.631-0.225-3.168,0.951-3.404,2.612
		l-1.324,10.226L74.039,42.524c-0.532-0.671-1.301-1.103-2.146-1.173c-0.84-0.068-1.673,0.213-2.306,0.78l-9.699,8.89L36.691,21.316
		c-1.028-1.324-2.935-1.542-4.25-0.52c-1.318,1.029-1.554,2.929-0.52,4.25L57.133,57.346z"/>
</g>
<g>
</g>
<g>
</g>
<g>
</g>
<g>
</g>
<g>
</g>
<g>
</g>
<g>
</g>
<g>
</g>
<g>
</g>
<g>
</g>
<g>
</g>
<g>
</g>
<g>
</g>
<g>
</g>
<g>
</g>
</svg>
