<?xml version="1.0" encoding="iso-8859-1"?>
<!-- Generator: Adobe Illustrator 16.0.0, SVG Export Plug-In . SVG Version: 6.00 Build 0)  -->
<!DOCTYPE svg PUBLIC "-//W3C//DTD SVG 1.1//EN" "http://www.w3.org/Graphics/SVG/1.1/DTD/svg11.dtd">
<svg version="1.1" id="Capa_1" xmlns="http://www.w3.org/2000/svg" xmlns:xlink="http://www.w3.org/1999/xlink" x="0px" y="0px"
	 width="143.205px" height="143.205px" viewBox="0 0 143.205 143.205" style="enable-background:new 0 0 143.205 143.205;"
	 xml:space="preserve">
<g>
	<path d="M77.855,91.001c-1.673,0-3.026-1.354-3.026-3.026v-5.639h-5.287c-1.673,0-3.026-1.359-3.026-3.026s1.354-3.026,3.026-3.026
		h5.287v-4.93c0-1.673,1.354-3.026,3.026-3.026s3.026,1.354,3.026,3.026v4.93h5.296c1.673,0,3.026,1.359,3.026,3.026
		s-1.354,3.026-3.026,3.026h-5.296v5.639C80.882,89.648,79.54,91.001,77.855,91.001z M50.583,104.542l-2.426-5.124
		c-5.095,4.297-11.47,6.975-18.454,6.975c-0.012,0-0.328,0-0.34,0C12.979,106.205-0.19,92.03,0.002,74.794
		c0.201-16.305,26.74-56.108,27.872-57.784c0.57-0.848,1.64-1.265,2.547-1.345c1.026,0.012,1.968,0.541,2.518,1.398
		c0.704,1.108,11.597,18.312,19.195,34.767h31.62l15.498-18.988c-1.945-4.917-1.277-10.571,1.873-14.889
		c2.447-3.369,6.064-5.592,10.196-6.239c4.108-0.635,8.233,0.346,11.626,2.79c6.951,5.071,8.506,14.854,3.429,21.813
		c-3.139,4.327-8.245,6.756-13.577,6.375l-5.935,9.138h15.392c1.035,0,2.004,0.532,2.56,1.41c0.55,0.878,0.633,1.98,0.178,2.911
		l-22.981,48.379c-0.502,1.053-1.566,1.732-2.736,1.732H53.32C52.152,106.281,51.08,105.601,50.583,104.542z M91.568,51.843h8.074
		l9.114-14.023c0.668-1.035,1.909-1.566,3.127-1.318c3.658,0.729,7.43-0.739,9.604-3.73c3.098-4.261,2.158-10.246-2.104-13.352
		c-2.075-1.502-4.604-2.113-7.135-1.714c-2.523,0.402-4.729,1.755-6.224,3.827c-2.182,2.988-2.412,7.028-0.592,10.288
		c0.621,1.085,0.491,2.43-0.295,3.396L91.568,51.843z M54.786,57.895c2.347,5.722,4.031,11.036,4.489,15.256
		c2.58-7.841,9.892-13.559,18.586-13.559c10.835,0,19.647,8.807,19.647,19.647c0,10.829-8.812,19.647-19.647,19.647
		c-9.711,0-17.75-7.104-19.313-16.385c-1.07,4.593-3.145,8.707-5.905,12.26l2.589,5.461h42.129l20.108-42.333H54.786V57.895z
		 M77.855,92.822c7.495,0,13.595-6.1,13.595-13.595c0-7.489-6.1-13.589-13.595-13.589c-7.492,0-13.592,6.094-13.592,13.589
		C64.264,86.734,70.363,92.822,77.855,92.822z M26.411,99.986l0.071-5.822L14.693,83.891c-1.259-1.094-1.392-3.009-0.292-4.273
		c1.103-1.265,3.021-1.384,4.273-0.29l7.906,6.887l0.098-7.814L14.891,68.127c-1.259-1.1-1.392-3.018-0.29-4.277
		c1.108-1.259,3.021-1.383,4.273-0.289l7.896,6.889l0.142-12.117c0.018-1.67,1.099-2.979,3.062-2.991
		c1.669,0.018,3.014,1.392,2.991,3.062l-0.142,11.686l8.125-6.322c1.312-1.028,3.212-0.786,4.25,0.526
		c1.023,1.318,0.786,3.219-0.529,4.247l-11.928,9.292l-0.098,8.021l8.122-6.324c1.315-1.022,3.215-0.786,4.25,0.525
		c1.023,1.318,0.786,3.216-0.526,4.25L32.552,93.59l-0.077,6.454C44.09,98.568,53.272,88.159,53.412,75.42
		c0.127-10.825-14.848-37.625-23.073-51.098C21.798,37.595,6.199,64.04,6.066,74.876C5.91,87.662,14.82,98.242,26.411,99.986z
		 M140.179,77.046h-18.731c-1.206,0-2.287,0.715-2.772,1.814l-13.748,31.387h-50.41c-1.669,0-3.026,1.359-3.026,3.025
		c0,1.667,1.357,3.026,3.026,3.026h52.391c1.205,0,2.287-0.709,2.771-1.809l13.749-31.392h16.751c1.673,0,3.026-1.365,3.026-3.026
		C143.205,78.4,141.852,77.046,140.179,77.046z M65.945,117.683c-3.875,0-7.001,3.133-7.001,7.004s3.133,6.992,7.001,6.992
		c3.868,0,6.998-3.133,6.998-6.992C72.949,120.816,69.813,117.683,65.945,117.683z M90.854,117.683
		c-3.878,0-7.005,3.133-7.005,7.004s3.139,6.992,7.005,6.992c3.859,0,6.992-3.133,6.992-6.992
		C97.846,120.816,94.707,117.683,90.854,117.683z"/>
</g>
<g>
</g>
<g>
</g>
<g>
</g>
<g>
</g>
<g>
</g>
<g>
</g>
<g>
</g>
<g>
</g>
<g>
</g>
<g>
</g>
<g>
</g>
<g>
</g>
<g>
</g>
<g>
</g>
<g>
</g>
</svg>
