<?xml version="1.0" encoding="iso-8859-1"?>
<!-- Generator: Adobe Illustrator 16.0.0, SVG Export Plug-In . SVG Version: 6.00 Build 0)  -->
<!DOCTYPE svg PUBLIC "-//W3C//DTD SVG 1.1//EN" "http://www.w3.org/Graphics/SVG/1.1/DTD/svg11.dtd">
<svg version="1.1" id="Capa_1" xmlns="http://www.w3.org/2000/svg" xmlns:xlink="http://www.w3.org/1999/xlink" x="0px" y="0px"
	 width="153.036px" height="153.036px" viewBox="0 0 153.036 153.036" style="enable-background:new 0 0 153.036 153.036;"
	 xml:space="preserve">
<g>
	<path d="M9.807,38.23C4.307,38.23,0,44.389,0,52.239v48.559c0,7.846,4.307,14.008,9.807,14.008c5.496,0,9.806-6.162,9.806-14.008
		V52.239C19.613,44.389,15.303,38.23,9.807,38.23z M14.01,100.797c0,4.805-2.22,8.405-4.203,8.405c-1.984,0-4.204-3.601-4.204-8.405
		V52.239c0-4.807,2.219-8.405,4.204-8.405c1.982,0,4.203,3.598,4.203,8.405V100.797z M143.23,38.23c-5.5,0-9.806,6.159-9.806,14.008
		v48.559c0,7.846,4.306,14.008,9.806,14.008c5.496,0,9.806-6.162,9.806-14.008V52.239C153.036,44.389,148.74,38.23,143.23,38.23z
		 M147.432,100.797c0,4.805-2.217,8.405-4.202,8.405c-1.984,0-4.202-3.601-4.202-8.405V52.239c0-4.807,2.218-8.405,4.202-8.405
		c1.985,0,4.202,3.598,4.202,8.405V100.797z M127.991,45.7c-1.542,0-2.802,1.261-2.802,2.802v3.272H27.858v-3.272
		c0-1.541-1.256-2.802-2.802-2.802s-2.802,1.261-2.802,2.802v56.032c0,1.539,1.256,2.802,2.802,2.802s2.802-1.263,2.802-2.802
		v-3.266h97.331v3.266c0,1.539,1.26,2.802,2.802,2.802c1.545,0,2.801-1.263,2.801-2.802V48.501
		C130.792,46.961,129.536,45.7,127.991,45.7z M125.189,95.665H27.858v-9.019h97.331V95.665z M125.189,81.043H27.858v-9.029h97.331
		V81.043z M125.189,66.403H27.858v-9.026h97.331V66.403z"/>
</g>
<g>
</g>
<g>
</g>
<g>
</g>
<g>
</g>
<g>
</g>
<g>
</g>
<g>
</g>
<g>
</g>
<g>
</g>
<g>
</g>
<g>
</g>
<g>
</g>
<g>
</g>
<g>
</g>
<g>
</g>
</svg>
