<?xml version="1.0" encoding="iso-8859-1"?>
<!-- Generator: Adobe Illustrator 16.0.0, SVG Export Plug-In . SVG Version: 6.00 Build 0)  -->
<!DOCTYPE svg PUBLIC "-//W3C//DTD SVG 1.1//EN" "http://www.w3.org/Graphics/SVG/1.1/DTD/svg11.dtd">
<svg version="1.1" id="Capa_1" xmlns="http://www.w3.org/2000/svg" xmlns:xlink="http://www.w3.org/1999/xlink" x="0px" y="0px"
	 width="118.627px" height="118.628px" viewBox="0 0 118.627 118.628" style="enable-background:new 0 0 118.627 118.628;"
	 xml:space="preserve">
<g>
	<path d="M117.172,15.29C100.023,5.831,80.006,0.832,59.312,0.832c-20.703,0-40.725,5.005-57.86,14.458
		c-0.964,0.531-1.519,1.567-1.445,2.667c3.182,42.876,24.835,80.058,57.888,99.462c0.439,0.262,0.925,0.377,1.417,0.377
		c0.492,0,0.98-0.115,1.418-0.377c33.067-19.404,54.719-56.597,57.89-99.467C118.7,16.847,118.138,15.809,117.172,15.29z
		 M59.312,111.728C29.082,93.311,9.203,58.994,5.738,19.331C21.704,10.878,40.177,6.424,59.312,6.424
		c19.125,0,37.604,4.454,53.578,12.906C109.424,58.994,89.544,93.303,59.312,111.728z M59.312,14.23c-0.39,0-0.78,0.088-1.121,0.241
		c-14.646,0.14-29.275,2.963-42.144,8.572c-1.151,0.506-1.83,1.728-1.652,2.977c4.597,31.272,20.376,58.699,43.276,75.234
		c0.049,0.046,0.117,0.022,0.161,0.056c0.439,0.275,0.92,0.481,1.48,0.481c0.562,0,1.043-0.206,1.48-0.481
		c0.044-0.038,0.118-0.01,0.161-0.061c22.9-16.53,38.667-43.962,43.279-75.234c0.174-1.256-0.494-2.471-1.653-2.976
		c-12.866-5.61-27.481-8.439-42.145-8.573C60.092,14.312,59.704,14.23,59.312,14.23z M56.51,20.113v28.433H25.82
		c-2.454-6.769-4.331-13.864-5.545-21.209C31.447,22.775,43.937,20.433,56.51,20.113z M28.084,54.154H56.51v38.969
		C44.357,83.087,34.636,69.681,28.084,54.154z M62.114,93.123V54.149h28.427C83.993,69.681,74.267,83.087,62.114,93.123z
		 M92.808,48.551H62.114V20.118c12.574,0.315,25.078,2.662,36.235,7.223C97.136,34.682,95.247,41.783,92.808,48.551z"/>
</g>
<g>
</g>
<g>
</g>
<g>
</g>
<g>
</g>
<g>
</g>
<g>
</g>
<g>
</g>
<g>
</g>
<g>
</g>
<g>
</g>
<g>
</g>
<g>
</g>
<g>
</g>
<g>
</g>
<g>
</g>
</svg>
