<?xml version="1.0" encoding="iso-8859-1"?>
<!-- Generator: Adobe Illustrator 16.0.0, SVG Export Plug-In . SVG Version: 6.00 Build 0)  -->
<!DOCTYPE svg PUBLIC "-//W3C//DTD SVG 1.1//EN" "http://www.w3.org/Graphics/SVG/1.1/DTD/svg11.dtd">
<svg version="1.1" id="Capa_1" xmlns="http://www.w3.org/2000/svg" xmlns:xlink="http://www.w3.org/1999/xlink" x="0px" y="0px"
	 width="117.932px" height="117.932px" viewBox="0 0 117.932 117.932" style="enable-background:new 0 0 117.932 117.932;"
	 xml:space="preserve">
<g>
	<path d="M102.103,0H15.829c-1.546,0-2.802,1.256-2.802,2.802v24.263c0,1.541,1.256,2.802,2.802,2.802h3.485v85.264
		c0,1.555,1.263,2.802,2.802,2.802h73.697c1.537,0,2.802-1.247,2.802-2.802V29.866h3.487c1.541,0,2.802-1.261,2.802-2.802V2.802
		C104.904,1.245,103.654,0,102.103,0z M93.012,112.324H24.917V29.866h68.094V112.324z M99.301,24.263H18.63v-8.416h21.732
		c1.541,0,2.801-1.251,2.801-2.802c0-1.541-1.26-2.802-2.801-2.802H18.63V5.603h80.67V24.263z M30.911,88.268h9.56v11.781
		c0,1.549,1.252,2.802,2.802,2.802h31.367c1.546,0,2.802-1.253,2.802-2.802V88.268h9.573c1.549,0,2.804-1.264,2.804-2.801V45.27
		c0-1.555-1.255-2.802-2.804-2.802H30.911c-1.548,0-2.802,1.247-2.802,2.802v40.197C28.109,87.016,29.362,88.268,30.911,88.268z
		 M33.711,48.077h50.5V82.67h-9.573c-1.54,0-2.802,1.259-2.802,2.802v11.787h-4.779V85.538c0-1.542-1.258-2.802-2.802-2.802
		c-1.543,0-2.799,1.26-2.799,2.802v11.722h-5.01V85.538c0-1.542-1.253-2.802-2.801-2.802c-1.545,0-2.801,1.26-2.801,2.802v11.722
		h-4.786V85.467c0-1.55-1.247-2.802-2.801-2.802h-9.551L33.711,48.077L33.711,48.077z M43.983,64.373
		c0-2.55,2.064-4.629,4.637-4.629c2.562,0,4.641,2.079,4.641,4.629c0,2.571-2.08,4.64-4.641,4.64
		C46.048,69.012,43.983,66.944,43.983,64.373z M64.672,64.373c0-2.55,2.08-4.629,4.64-4.629c2.55,0,4.632,2.079,4.632,4.629
		c0,2.571-2.082,4.64-4.632,4.64C66.752,69.012,64.672,66.944,64.672,64.373z"/>
</g>
<g>
</g>
<g>
</g>
<g>
</g>
<g>
</g>
<g>
</g>
<g>
</g>
<g>
</g>
<g>
</g>
<g>
</g>
<g>
</g>
<g>
</g>
<g>
</g>
<g>
</g>
<g>
</g>
<g>
</g>
</svg>
