<?xml version="1.0" encoding="iso-8859-1"?>
<!-- Generator: Adobe Illustrator 16.0.0, SVG Export Plug-In . SVG Version: 6.00 Build 0)  -->
<!DOCTYPE svg PUBLIC "-//W3C//DTD SVG 1.1//EN" "http://www.w3.org/Graphics/SVG/1.1/DTD/svg11.dtd">
<svg version="1.1" id="Capa_1" xmlns="http://www.w3.org/2000/svg" xmlns:xlink="http://www.w3.org/1999/xlink" x="0px" y="0px"
	 width="130.555px" height="130.555px" viewBox="0 0 130.555 130.555" style="enable-background:new 0 0 130.555 130.555;"
	 xml:space="preserve">
<g>
	<path d="M21.509,64.317c0-1.549,1.257-2.801,2.803-2.801h4.914c-0.247-0.679-0.509-1.368-0.655-2.02
		c-0.565-1.669-0.892-3.663-0.892-5.691c0-7.009,3.822-13.472,9.973-16.867c6.967-3.85,16.071-2.777,21.955,2.367
		c5.884-5.144,15-6.205,21.953-2.367c6.158,3.384,9.978,9.858,9.978,16.874c0,2.005-0.331,4.016-0.971,5.956
		c-2.915,13.168-26.764,28.485-29.47,30.18c-0.459,0.29-0.974,0.428-1.49,0.428c-0.516,0-1.034-0.138-1.489-0.438
		c-0.304-0.181-7.431-4.684-14.67-10.873c-1.177-1.006-1.31-2.779-0.309-3.95c1.016-1.172,2.779-1.308,3.95-0.308
		c5.021,4.303,10.093,7.82,12.522,9.435c7.655-5.039,23.605-17.126,25.565-25.959c0.532-1.647,0.761-3.059,0.761-4.47
		c0-4.978-2.707-9.555-7.073-11.971c-5.606-3.075-13.031-1.653-17.1,3.251c-1.059,1.282-3.245,1.282-4.308,0
		c-4.081-4.904-11.511-6.327-17.096-3.251c-4.366,2.416-7.078,6.993-7.078,11.964c0,1.417,0.231,2.829,0.684,4.203
		c0.28,1.204,0.767,2.342,1.375,3.508h10.957l3.892-8.96c0.476-1.098,1.583-1.765,2.817-1.675c1.198,0.118,2.202,0.974,2.477,2.145
		l2.594,10.944l2.935-4.807c0.512-0.837,1.414-1.347,2.394-1.347h7.396c1.549,0,2.802,1.256,2.802,2.802s-1.253,2.802-2.802,2.802
		h-5.828l-5.663,9.292c-0.509,0.855-1.422,1.347-2.393,1.347c-0.145,0-0.29-0.011-0.436-0.033c-1.126-0.176-2.029-1.023-2.286-2.124
		l-2.225-9.39l-1.272,2.92c-0.444,1.032-1.45,1.693-2.566,1.693h-23.82C22.771,67.119,21.509,65.863,21.509,64.317z M130.555,8.322
		v61.872c0,1.543-1.264,2.802-2.801,2.802h-11.896V96.58c0,1.555-1.252,2.802-2.802,2.802H64.308l-33.415,25.083
		c-0.492,0.361-1.086,0.564-1.679,0.564c-0.428,0-0.856-0.105-1.256-0.302c-0.948-0.481-1.546-1.444-1.546-2.5v-22.83H2.802
		C1.256,99.397,0,98.14,0,96.596V25.153c0-1.54,1.256-2.801,2.802-2.801h22.647V8.328c0-1.546,1.256-2.802,2.802-2.802h99.503
		C129.313,5.521,130.555,6.776,130.555,8.322z M110.254,27.95H5.608v65.834h23.618c1.546,0,2.802,1.266,2.802,2.802v20.026
		l29.673-22.276c0.492-0.355,1.078-0.558,1.684-0.558h46.875V27.95H110.254z M124.953,11.124h-93.9v11.223h82.009
		c1.549,0,2.802,1.261,2.802,2.802v42.244h9.095V11.124H124.953z"/>
</g>
<g>
</g>
<g>
</g>
<g>
</g>
<g>
</g>
<g>
</g>
<g>
</g>
<g>
</g>
<g>
</g>
<g>
</g>
<g>
</g>
<g>
</g>
<g>
</g>
<g>
</g>
<g>
</g>
<g>
</g>
</svg>
