<?xml version="1.0" encoding="iso-8859-1"?>
<!-- Generator: Adobe Illustrator 16.0.0, SVG Export Plug-In . SVG Version: 6.00 Build 0)  -->
<!DOCTYPE svg PUBLIC "-//W3C//DTD SVG 1.1//EN" "http://www.w3.org/Graphics/SVG/1.1/DTD/svg11.dtd">
<svg version="1.1" id="Capa_1" xmlns="http://www.w3.org/2000/svg" xmlns:xlink="http://www.w3.org/1999/xlink" x="0px" y="0px"
	 width="99.373px" height="99.373px" viewBox="0 0 99.373 99.373" style="enable-background:new 0 0 99.373 99.373;"
	 xml:space="preserve">
<g>
	<path d="M98.549,29.873l-5.286-5.281L74.778,6.108c-0.006-0.011-0.011-0.011-0.016-0.011l-5.266-5.275
		c-1.094-1.088-2.872-1.088-3.961,0c-1.093,1.095-1.093,2.873,0,3.963l3.354,3.353C49.788,28.199,41.405,51.214,39.983,55.433
		L0.819,94.591c-1.091,1.089-1.091,2.867,0,3.961c0.55,0.547,1.267,0.815,1.984,0.815c0.719,0,1.438-0.273,1.983-0.815
		l39.146-39.136c4.156-1.401,27.218-9.789,47.312-28.925l3.359,3.354c0.549,0.558,1.27,0.822,1.982,0.822
		c0.71,0,1.434-0.275,1.984-0.822C99.645,32.746,99.645,30.967,98.549,29.873z M84.493,29.021l-7.083-7.087
		c-1.092-1.089-2.872-1.089-3.959,0c-1.097,1.094-1.097,2.873,0,3.961l6.761,6.764C67.457,42.913,54.419,49.162,47.216,52.145
		c3.519-8.542,11.59-25.335,25.592-40.078l14.474,14.474C86.37,27.412,85.427,28.199,84.493,29.021z"/>
</g>
<g>
</g>
<g>
</g>
<g>
</g>
<g>
</g>
<g>
</g>
<g>
</g>
<g>
</g>
<g>
</g>
<g>
</g>
<g>
</g>
<g>
</g>
<g>
</g>
<g>
</g>
<g>
</g>
<g>
</g>
</svg>
