<?xml version="1.0" encoding="iso-8859-1"?>
<!-- Generator: Adobe Illustrator 16.0.0, SVG Export Plug-In . SVG Version: 6.00 Build 0)  -->
<!DOCTYPE svg PUBLIC "-//W3C//DTD SVG 1.1//EN" "http://www.w3.org/Graphics/SVG/1.1/DTD/svg11.dtd">
<svg version="1.1" id="Capa_1" xmlns="http://www.w3.org/2000/svg" xmlns:xlink="http://www.w3.org/1999/xlink" x="0px" y="0px"
	 width="115.185px" height="115.185px" viewBox="0 0 115.185 115.185" style="enable-background:new 0 0 115.185 115.185;"
	 xml:space="preserve">
<g>
	<path d="M14.641,64.325l8.275-4.771v9.558c0,1.661,1.363,3.026,3.026,3.026h20.179c1.664,0,3.026-1.365,3.026-3.026v-9.575
		l8.287,4.788c0.683,0.396,1.524,0.496,2.293,0.312c0.78-0.213,1.437-0.721,1.833-1.418l10.102-17.476
		c0.396-0.697,0.514-1.524,0.307-2.305c-0.213-0.769-0.715-1.431-1.406-1.835l-8.287-4.776l8.287-4.788
		c0.691-0.387,1.193-1.052,1.406-1.832c0.207-0.789,0.095-1.604-0.307-2.302L61.561,10.434c-0.828-1.454-2.675-1.951-4.126-1.12
		l-8.287,4.788V4.538c0-1.67-1.362-3.026-3.026-3.026H25.942c-1.664,0-3.026,1.356-3.026,3.026v9.552l-8.275-4.776
		c-1.439-0.831-3.298-0.346-4.138,1.12L0.411,27.906c-0.393,0.698-0.514,1.513-0.307,2.302c0.213,0.78,0.715,1.421,1.41,1.832
		l8.275,4.788l-8.275,4.776c-0.688,0.393-1.197,1.067-1.41,1.835C-0.104,44.22,0,45.047,0.411,45.744L10.503,63.22
		C11.331,64.674,13.196,65.158,14.641,64.325z M17.372,39.455c0.931-0.543,1.514-1.537,1.514-2.627c0-1.076-0.583-2.081-1.514-2.612
		l-10.21-5.908l7.063-12.232l10.205,5.887c0.931,0.547,2.102,0.547,3.026,0c0.931-0.532,1.513-1.537,1.513-2.613V7.576h14.126V19.35
		c0,1.088,0.583,2.081,1.514,2.628c0.925,0.543,2.095,0.543,3.026,0l10.211-5.902l7.061,12.232l-10.214,5.887
		c-0.925,0.552-1.513,1.545-1.513,2.633c0,1.079,0.588,2.083,1.513,2.615l10.22,5.902l-7.066,12.235l-10.211-5.899
		c-0.931-0.544-2.101-0.544-3.026,0c-0.931,0.532-1.514,1.537-1.514,2.622v11.79H28.969V54.315c0-1.084-0.583-2.089-1.513-2.622
		c-0.925-0.543-2.095-0.543-3.026,0l-10.205,5.899L7.167,45.357L17.372,39.455z M115.018,48.401
		c-3.275-9.387-8.021-17.874-14.139-25.228c-0.58-0.694-1.425-1.108-2.329-1.108h-0.012c-0.893,0-1.75,0.414-2.329,1.108
		C92.716,27.418,89.418,31.709,86.12,36c-2.701,3.535-5.426,7.057-8.222,10.536c-0.898,1.12-0.893,2.708,0.012,3.828
		c1.762,2.143,3.706,4.303,5.615,6.383c1.307,1.442,2.589,2.855,3.76,4.221C76.68,72.6,60.174,84.421,45.566,90.858
		c-2.258-4.066-4.572-8.157-6.93-12.241c-0.739-1.294-2.296-1.839-3.662-1.342c-4.146,1.524-8.275,2.896-12.427,4.291
		c-5.157,1.714-10.309,3.429-15.489,5.421c-0.839,0.336-1.49,1.004-1.773,1.861c-0.295,0.863-0.18,1.785,0.284,2.554
		c5.37,8.771,12.209,16.479,19.266,21.669c0.521,0.384,1.15,0.603,1.797,0.603c0.033,0,0.056,0,0.092,0
		c12.486-0.343,36.67-3.464,58.126-20.806c13.891-11.201,24.039-25.487,30.157-42.457C115.243,49.775,115.243,49.055,115.018,48.401
		z M81.048,88.175c-19.499,15.734-41.452,18.962-53.436,19.411c-5.32-4.091-10.495-9.753-14.872-16.231
		c3.91-1.43,7.826-2.73,11.736-4.043c3.396-1.141,6.786-2.27,10.187-3.475c2.361,4.137,4.667,8.251,6.937,12.341
		c0.733,1.348,2.355,1.921,3.783,1.348c17.029-6.892,36.411-20.759,48.197-34.519c0.945-1.1,0.981-2.707,0.083-3.842
		c-1.644-2.081-3.63-4.256-5.651-6.479c-1.288-1.397-2.589-2.84-3.842-4.279c2.293-2.899,4.527-5.805,6.762-8.704
		c2.5-3.251,5.001-6.514,7.59-9.732c4.351,5.828,7.85,12.342,10.438,19.435C103.161,64.851,93.786,77.896,81.048,88.175z"/>
</g>
<g>
</g>
<g>
</g>
<g>
</g>
<g>
</g>
<g>
</g>
<g>
</g>
<g>
</g>
<g>
</g>
<g>
</g>
<g>
</g>
<g>
</g>
<g>
</g>
<g>
</g>
<g>
</g>
<g>
</g>
</svg>
