<?xml version="1.0" encoding="iso-8859-1"?>
<!-- Generator: Adobe Illustrator 16.0.0, SVG Export Plug-In . SVG Version: 6.00 Build 0)  -->
<!DOCTYPE svg PUBLIC "-//W3C//DTD SVG 1.1//EN" "http://www.w3.org/Graphics/SVG/1.1/DTD/svg11.dtd">
<svg version="1.1" id="Capa_1" xmlns="http://www.w3.org/2000/svg" xmlns:xlink="http://www.w3.org/1999/xlink" x="0px" y="0px"
	 width="97.334px" height="97.335px" viewBox="0 0 97.334 97.335" style="enable-background:new 0 0 97.334 97.335;"
	 xml:space="preserve">
<g>
	<path d="M97.275,61.71c-1.466-6.796-5.487-12.612-11.338-16.377c-5.625-3.632-12.269-4.892-18.812-3.655
		c10.096-10.153,10.087-26.626-0.05-36.764c-1.094-1.092-2.872-1.092-3.961,0c-1.095,1.095-1.095,2.87,0,3.962
		c7.967,7.967,7.967,20.917,0,28.892c-7.968,7.967-20.921,7.967-28.892,0c-3.861-3.855-5.983-8.988-5.983-14.446
		c0-5.464,2.122-10.603,5.983-14.446c1.093-1.092,1.093-2.867,0-3.962c-1.092-1.092-2.867-1.092-3.961,0
		c-4.919,4.914-7.625,11.447-7.625,18.408c0,6.93,2.694,13.441,7.585,18.345c-6.528-1.216-13.195,0.021-18.82,3.646
		c-5.845,3.773-9.879,9.595-11.336,16.392c-0.332,1.51,0.633,3.011,2.145,3.326c1.518,0.34,3.009-0.634,3.33-2.145
		c1.153-5.329,4.321-9.921,8.908-12.859c4.579-2.955,10.046-3.961,15.376-2.791c9.413,2.014,15.856,10.288,16.064,19.501
		c-0.012,0.406-0.022,0.816-0.005,1.215c-0.049,1.172-0.135,2.354-0.397,3.552c-1.15,5.324-4.309,9.904-8.892,12.87
		c-4.58,2.939-10.061,3.939-15.382,2.802c-1.491-0.344-3.009,0.609-3.335,2.146c-0.336,1.51,0.635,2.998,2.149,3.326
		c1.84,0.395,3.701,0.592,5.545,0.592c4.949,0,9.8-1.41,14.061-4.159c3.962-2.561,6.999-6.107,9.054-10.211
		c2.062,4.104,5.101,7.65,9.061,10.211c4.258,2.749,9.105,4.159,14.058,4.159c1.846,0,3.704-0.197,5.549-0.592
		c1.512-0.328,2.47-1.816,2.146-3.326c-0.336-1.521-1.797-2.496-3.329-2.146c-5.335,1.138-10.808,0.138-15.385-2.802
		c-4.588-2.966-7.753-7.546-8.899-12.87c-0.255-1.198-0.348-2.38-0.393-3.552c0.015-0.388,0.006-0.809-0.008-1.215
		c0.209-9.214,6.654-17.488,16.066-19.513c5.336-1.149,10.799-0.153,15.384,2.802c4.58,2.944,7.741,7.53,8.891,12.859
		c0.327,1.511,1.844,2.451,3.334,2.156C96.629,64.72,97.587,63.231,97.275,61.71z M48.657,55.625
		c-1.239-2.474-2.791-4.771-4.741-6.741c1.564,0.296,3.149,0.46,4.746,0.46c1.598,0,3.166-0.164,4.744-0.46
		C51.447,50.854,49.902,53.151,48.657,55.625z"/>
</g>
<g>
</g>
<g>
</g>
<g>
</g>
<g>
</g>
<g>
</g>
<g>
</g>
<g>
</g>
<g>
</g>
<g>
</g>
<g>
</g>
<g>
</g>
<g>
</g>
<g>
</g>
<g>
</g>
<g>
</g>
</svg>
