<?xml version="1.0" encoding="iso-8859-1"?>
<!-- Generator: Adobe Illustrator 16.0.0, SVG Export Plug-In . SVG Version: 6.00 Build 0)  -->
<!DOCTYPE svg PUBLIC "-//W3C//DTD SVG 1.1//EN" "http://www.w3.org/Graphics/SVG/1.1/DTD/svg11.dtd">
<svg version="1.1" id="Capa_1" xmlns="http://www.w3.org/2000/svg" xmlns:xlink="http://www.w3.org/1999/xlink" x="0px" y="0px"
	 width="108.557px" height="108.557px" viewBox="0 0 108.557 108.557" style="enable-background:new 0 0 108.557 108.557;"
	 xml:space="preserve">
<g>
	<path d="M72.825,10.076c0.3-0.851,0.169-1.802-0.351-2.547c-0.525-0.747-1.385-1.185-2.292-1.185H38.391
		c-0.908,0-1.76,0.438-2.288,1.185c-0.525,0.745-0.653,1.696-0.352,2.547l15.895,44.947c0.395,1.116,1.453,1.86,2.64,1.86
		c1.188,0,2.244-0.744,2.638-1.86L72.825,10.076z M54.28,45.685L42.346,11.947h23.863L54.28,45.685z M108.349,71.549
		c-0.345-0.839-1.07-1.466-1.962-1.676l-46.43-10.758c-1.162-0.273-2.366,0.22-2.993,1.226c-0.635,1.007-0.577,2.299,0.146,3.229
		l29.336,37.559c0.532,0.69,1.346,1.073,2.204,1.073c0.05,0,0.094,0,0.14,0c0.9-0.042,1.743-0.526,2.219-1.292l17.103-26.802
		C108.605,73.343,108.693,72.38,108.349,71.549z M88.426,94.563L66.4,66.361l34.864,8.075L88.426,94.563z M48.593,59.115
		L2.171,69.873c-0.886,0.21-1.62,0.832-1.962,1.676c-0.348,0.831-0.257,1.794,0.235,2.56l17.101,26.813
		c0.486,0.767,1.319,1.247,2.225,1.28c0.045,0.011,0.089,0.011,0.136,0.011c0.856,0,1.674-0.394,2.206-1.078L51.436,63.57
		c0.728-0.931,0.793-2.217,0.151-3.229C50.944,59.335,49.752,58.854,48.593,59.115z M20.142,94.563L7.303,74.437l34.851-8.075
		L20.142,94.563z"/>
</g>
<g>
</g>
<g>
</g>
<g>
</g>
<g>
</g>
<g>
</g>
<g>
</g>
<g>
</g>
<g>
</g>
<g>
</g>
<g>
</g>
<g>
</g>
<g>
</g>
<g>
</g>
<g>
</g>
<g>
</g>
</svg>
