<?xml version="1.0" encoding="iso-8859-1"?>
<!-- Generator: Adobe Illustrator 16.0.0, SVG Export Plug-In . SVG Version: 6.00 Build 0)  -->
<!DOCTYPE svg PUBLIC "-//W3C//DTD SVG 1.1//EN" "http://www.w3.org/Graphics/SVG/1.1/DTD/svg11.dtd">
<svg version="1.1" id="Capa_1" xmlns="http://www.w3.org/2000/svg" xmlns:xlink="http://www.w3.org/1999/xlink" x="0px" y="0px"
	 width="187px" height="186.999px" viewBox="0 0 187 186.999" style="enable-background:new 0 0 187 186.999;" xml:space="preserve"
	>
<g>
	<path d="M156.635,98.983c-4.81,0-9.357,1.159-13.41,3.162l-14.949-24.635h16.452c1.548,0,2.802-1.262,2.802-2.802
		c0-1.546-1.254-2.802-2.802-2.802h-21.013c-1.537,0-2.802,1.255-2.802,2.802c0,0.117,0.055,0.218,0.073,0.336
		c-0.084,0.604-0.008,1.256,0.337,1.822l5.069,8.348h-22.131c0.197-1.86,0.34-3.732,0.34-5.614c0-28.834-23.466-52.29-52.301-52.29
		C23.465,27.311,0,50.771,0,79.601c0,19.766,10.881,37.473,28.421,46.489c-0.118,1.062-0.187,2.156-0.187,3.252
		c0,16.722,13.623,30.347,30.359,30.347c15.543,0,28.381-11.763,30.13-26.845h17.038c0.504,0,0.998-0.144,1.414-0.395
		c0.01,0,0.033,0,0.042-0.011c0.374-0.229,0.657-0.547,0.878-0.887c0.02-0.033,0.065-0.043,0.074-0.076l22.917-38.556l7.376,12.171
		c-7.365,5.547-12.168,14.335-12.168,24.251c0,16.722,13.626,30.347,30.356,30.347c16.733,0,30.349-13.625,30.349-30.347
		C186.994,112.597,173.375,98.983,156.635,98.983z M5.772,82.173h8.231c1.541,0,2.801-1.256,2.801-2.801
		c0-1.541-1.26-2.803-2.801-2.803h-8.26c1.518-23.401,20.306-42.115,43.74-43.516v8.036c0,1.546,1.261,2.802,2.802,2.802
		c1.545,0,2.801-1.256,2.801-2.802v-8.036c24.441,1.469,43.896,21.751,43.896,46.559c0,1.871-0.145,3.743-0.363,5.603H82.161
		c-0.112,0-0.196,0.074-0.297,0.084l-4.722-7.789h9.452c1.545,0,2.801-1.256,2.801-2.802c0-1.541-1.256-2.802-2.801-2.802H62.779
		c-1.541,0-2.802,1.261-2.802,2.802c0,1.546,1.261,2.802,2.802,2.802h7.812l7.352,12.125l-7.111,11.962
		c-3.753-1.663-7.89-2.605-12.255-2.605c-13.601,0-25.125,8.984-28.979,21.33C15.521,112.477,6.64,98.238,5.772,82.173z
		 M75.724,104.322l5.502-9.269l19.526,32.187h-11.94C88.167,117.729,83.142,109.424,75.724,104.322z M83.109,127.233H62.095
		l10.736-18.062C78.615,113.275,82.471,119.781,83.109,127.233z M58.577,154.08c-13.65,0-24.744-11.103-24.744-24.745
		c0-13.652,11.094-24.753,24.744-24.753c3.317,0,6.466,0.677,9.368,1.869l-13.174,22.15c-0.513,0.859-0.524,1.938-0.027,2.813
		c0.499,0.87,1.428,1.422,2.444,1.422H82.98C81.248,144.816,71.023,154.08,58.577,154.08z M105.723,124.591L85.226,90.818h15.125
		c0.078,0.023,0.136,0.079,0.219,0.096c0.443,0.096,0.882,0.038,1.288-0.096h23.935L105.723,124.591z M156.635,154.08
		c-13.652,0-24.745-11.103-24.745-24.745c0-7.873,3.768-14.834,9.533-19.37l13.051,21.532c0.541,0.858,1.461,1.34,2.401,1.34
		c0.503,0,1.013-0.123,1.456-0.398c1.324-0.816,1.745-2.529,0.946-3.861l-13.105-21.584c3.185-1.515,6.709-2.411,10.463-2.411
		c13.652,0,24.756,11.09,24.756,24.742C181.391,142.978,170.279,154.08,156.635,154.08z M37.133,97.827
		c-1.172-1.01-1.29-2.779-0.285-3.95L49.477,79.27V54.396c0-1.541,1.256-2.802,2.801-2.802c1.541,0,2.803,1.261,2.803,2.802v25.916
		c0,0.678-0.242,1.322-0.691,1.838L41.084,97.56c-0.556,0.635-1.328,0.963-2.113,0.963C38.315,98.518,37.671,98.288,37.133,97.827z"
		/>
</g>
<g>
</g>
<g>
</g>
<g>
</g>
<g>
</g>
<g>
</g>
<g>
</g>
<g>
</g>
<g>
</g>
<g>
</g>
<g>
</g>
<g>
</g>
<g>
</g>
<g>
</g>
<g>
</g>
<g>
</g>
</svg>
