<?xml version="1.0" encoding="iso-8859-1"?>
<!-- Generator: Adobe Illustrator 16.0.0, SVG Export Plug-In . SVG Version: 6.00 Build 0)  -->
<!DOCTYPE svg PUBLIC "-//W3C//DTD SVG 1.1//EN" "http://www.w3.org/Graphics/SVG/1.1/DTD/svg11.dtd">
<svg version="1.1" id="Capa_1" xmlns="http://www.w3.org/2000/svg" xmlns:xlink="http://www.w3.org/1999/xlink" x="0px" y="0px"
	 width="109.025px" height="109.024px" viewBox="0 0 109.025 109.024" style="enable-background:new 0 0 109.025 109.024;"
	 xml:space="preserve">
<g>
	<path d="M87.143,55.224l2.922-3.617c0.973-1.204,0.786-2.963-0.418-3.94c-1.201-0.974-2.952-0.788-3.938,0.416l-3.493,4.317
		c-0.032-0.011-0.055-0.032-0.088-0.043V2.802C82.128,1.256,80.873,0,79.327,0H12.098c-1.554,0-2.801,1.256-2.801,2.802v92.455
		c0,1.542,1.247,2.802,2.801,2.802h34.54c0.183,0,0.348-0.075,0.525-0.107c5.442,6.69,13.639,11.073,22.918,11.073
		c16.338,0,29.646-13.297,29.646-29.647C99.712,69.396,94.725,60.598,87.143,55.224z M93.838,76.58H70.922V55.42
		C82.829,55.842,92.457,64.931,93.838,76.58z M70.922,49.826v-4.247h3.545c0.821,0,1.544-0.373,2.059-0.938v5.855
		C74.704,50.083,72.837,49.875,70.922,49.826z M28.898,5.603v13.068H14.9V5.603H28.898z M14.9,92.455V24.279h16.8
		c1.545,0,2.802-1.256,2.802-2.802V5.609h42.024v35.294c-0.515-0.566-1.237-0.927-2.059-0.927H61.283
		c-1.545,0-2.801,1.252-2.801,2.801c0,1.546,1.256,2.802,2.801,2.802h4.036v4.637c-14.082,2.298-24.886,14.452-24.886,29.166
		c0,4.722,1.211,9.119,3.173,13.078H14.9V92.455z M70.063,103.427c-13.25,0-24.043-10.785-24.043-24.045
		c0-11.627,8.297-21.347,19.279-23.562v23.567c0,1.544,1.262,2.802,2.799,2.802h25.727C92.429,94.107,82.38,103.427,70.063,103.427z
		"/>
</g>
<g>
</g>
<g>
</g>
<g>
</g>
<g>
</g>
<g>
</g>
<g>
</g>
<g>
</g>
<g>
</g>
<g>
</g>
<g>
</g>
<g>
</g>
<g>
</g>
<g>
</g>
<g>
</g>
<g>
</g>
</svg>
