<?xml version="1.0" encoding="iso-8859-1"?>
<!-- Generator: Adobe Illustrator 16.0.0, SVG Export Plug-In . SVG Version: 6.00 Build 0)  -->
<!DOCTYPE svg PUBLIC "-//W3C//DTD SVG 1.1//EN" "http://www.w3.org/Graphics/SVG/1.1/DTD/svg11.dtd">
<svg version="1.1" id="Capa_1" xmlns="http://www.w3.org/2000/svg" xmlns:xlink="http://www.w3.org/1999/xlink" x="0px" y="0px"
	 width="131.121px" height="131.121px" viewBox="0 0 131.121 131.121" style="enable-background:new 0 0 131.121 131.121;"
	 xml:space="preserve">
<g>
	<path d="M37.724,57.93c0,1.54-1.256,2.801-2.801,2.801c-1.508,0-2.939,0.391-4.287,1.168c-3.116,1.795-5.038,5.341-5.038,9.237
		c0,1.105,0.167,2.222,0.514,3.305c0.028,0.087,0.192,0.646,0.208,0.733c0.086,0.22,0.711,1.192,1.188,1.905
		c1.52,2.373,3.386,5.258,4.667,9.17c0.483,1.478-0.325,3.054-1.786,3.54c-0.298,0.094-0.583,0.126-0.875,0.126
		c-1.181,0-2.267-0.743-2.668-1.927c-1.053-3.228-2.626-5.669-4.016-7.825c-0.684-1.028-1.557-2.448-1.726-2.834
		c-0.086-0.175-0.13-0.351-0.168-0.535l2.498-1.511l-2.684,0.821c-0.509-1.631-0.766-3.306-0.766-4.98
		c0-5.898,2.997-11.291,7.834-14.093c2.207-1.282,4.583-1.929,7.09-1.929C36.475,55.128,37.724,56.37,37.724,57.93z M120.909,51.032
		v62.852c0,1.545-1.259,2.802-2.801,2.802h-33.02c-2.231,6.512-8.01,11.798-15.988,14.304c-0.279,0.087-0.559,0.132-0.841,0.132
		c-0.582,0-1.172-0.187-1.652-0.537c-0.722-0.547-1.146-1.367-1.146-2.265c0-0.088,0.02-0.395,0.033-0.48
		c0-16.822-7.216-28.604-13.695-28.604c-6.422,0-13.577,11.579-13.695,28.246c0.091,0.269,0.124,0.553,0.124,0.834
		c0,1.718-1.632,3.04-3.294,2.75c-0.154-0.011-0.315-0.032-0.46-0.093c-10.373-3.26-17.057-11.185-17.057-20.17
		c0.6-6.165,1.165-16.651,0.14-19.775c-0.679-2.03-1.839-3.847-2.967-5.582c-1.326-2.052-2.701-4.181-3.225-6.659
		c-0.747-2.304-1.155-4.979-1.155-7.667c0-9.356,4.875-18.005,12.725-22.566c6.128-3.513,13.386-3.937,19.789-1.759
		c1.497-12.881,9.847-22.547,22.612-26.901V2.802C65.338,1.25,66.594,0,68.14,0h27.085c1.542,0,2.801,1.25,2.801,2.802v17.086
		C112.154,24.711,120.909,36.036,120.909,51.032z M93.391,71.125c0,2.758-0.398,5.439-1.215,7.956
		c-0.448,2.212-1.831,4.335-3.157,6.403c-1.138,1.751-2.31,3.545-2.977,5.57C85.956,91.317,85.9,91.7,85.84,92.06h29.477V53.844
		H86.95C90.999,58.519,93.391,64.637,93.391,71.125z M70.939,18.418c3.372-0.678,6.943-1.07,10.749-1.07s7.363,0.392,10.734,1.07
		V5.614H70.939V18.418z M48.162,49.434c1.284,0.829,2.529,1.759,3.637,2.856c7.527-7.346,19.458-9.047,28.721-3.787
		c0.347-0.164,0.749-0.273,1.168-0.273h33.478c-1.587-18.572-18.694-25.283-33.478-25.283
		C66.607,22.952,49.092,29.957,48.162,49.434z M80.718,89.303c0.881-2.715,2.325-4.925,3.595-6.885
		c1.149-1.762,2.156-3.315,2.452-4.771c0.705-2.253,1.022-4.354,1.022-6.533c0-7.364-3.806-14.15-9.932-17.708
		c-7.863-4.539-18.149-2.415-23.859,4.786c-0.534,0.679-1.333,1.053-2.197,1.053c-0.863,0-1.665-0.394-2.208-1.053
		c-1.467-1.86-3.273-3.313-5.2-4.484c-0.495-0.145-0.896-0.418-1.232-0.788c-2.545-1.284-5.353-1.995-8.25-1.995
		c-3.219,0-6.314,0.835-9.193,2.487c-6.115,3.557-9.922,10.347-9.922,17.707c0,2.124,0.322,4.226,0.962,6.244
		c0.376,1.734,1.375,3.262,2.515,5.028c1.267,1.954,2.685,4.148,3.588,6.88c1.742,5.28,0.297,20.13,0.117,21.815
		c0.021,5.237,3.689,10.196,9.64,13.139c1.064-17.604,9.104-30.605,19.162-30.605c10.122,0,18.188,13.161,19.196,30.578
		c5.931-2.928,9.581-7.935,9.581-13.396C80.419,109.429,78.985,94.589,80.718,89.303z M115.307,111.082V97.664H85.484
		c0,4.247,0.341,9.369,0.678,12.871c0,0.187-0.043,0.35-0.047,0.547H115.307z"/>
</g>
<g>
</g>
<g>
</g>
<g>
</g>
<g>
</g>
<g>
</g>
<g>
</g>
<g>
</g>
<g>
</g>
<g>
</g>
<g>
</g>
<g>
</g>
<g>
</g>
<g>
</g>
<g>
</g>
<g>
</g>
</svg>
