<?xml version="1.0" encoding="iso-8859-1"?>
<!-- Generator: Adobe Illustrator 16.0.0, SVG Export Plug-In . SVG Version: 6.00 Build 0)  -->
<!DOCTYPE svg PUBLIC "-//W3C//DTD SVG 1.1//EN" "http://www.w3.org/Graphics/SVG/1.1/DTD/svg11.dtd">
<svg version="1.1" id="Capa_1" xmlns="http://www.w3.org/2000/svg" xmlns:xlink="http://www.w3.org/1999/xlink" x="0px" y="0px"
	 width="117.53px" height="117.53px" viewBox="0 0 117.53 117.53" style="enable-background:new 0 0 117.53 117.53;"
	 xml:space="preserve">
<g>
	<path d="M109.757,54.816c-0.426-25.062-19.364-42.815-46.813-44.484V3.026C62.944,1.362,61.582,0,59.917,0
		c-1.67,0-3.026,1.362-3.026,3.026v7.208C27.81,10.979,7.643,29.433,7.643,55.685c0,1.673,1.348,3.026,3.026,3.026h46.222v39.165
		c0,10.834,8.818,19.653,19.659,19.653s19.659-8.819,19.659-19.653c0-1.673-1.359-3.026-3.026-3.026s-3.026,1.354-3.026,3.026
		c0,7.501-6.111,13.601-13.606,13.601s-13.606-6.1-13.606-13.601V58.711h43.787c0.059,0,0.106,0.006,0.13,0
		c1.667,0,3.026-1.354,3.026-3.026C109.87,55.372,109.833,55.088,109.757,54.816z M13.784,52.659
		c1.546-21.609,19.562-36.445,44.898-36.445c25.352,0,43.373,14.824,44.916,36.445H13.784z M71.301,34.941
		c0,1.664-1.354,3.026-3.026,3.026h-6.566v6.549c0,1.67-1.348,3.026-3.026,3.026c-1.664,0-3.026-1.356-3.026-3.026v-6.549h-6.543
		c-1.67,0-3.026-1.363-3.026-3.026c0-1.669,1.356-3.026,3.026-3.026h6.543v-6.561c0-1.664,1.362-3.026,3.026-3.026
		c1.679,0,3.026,1.363,3.026,3.026v6.561h6.566C69.954,31.915,71.301,33.272,71.301,34.941z"/>
</g>
<g>
</g>
<g>
</g>
<g>
</g>
<g>
</g>
<g>
</g>
<g>
</g>
<g>
</g>
<g>
</g>
<g>
</g>
<g>
</g>
<g>
</g>
<g>
</g>
<g>
</g>
<g>
</g>
<g>
</g>
</svg>
