<?xml version="1.0" encoding="iso-8859-1"?>
<!-- Generator: Adobe Illustrator 16.0.0, SVG Export Plug-In . SVG Version: 6.00 Build 0)  -->
<!DOCTYPE svg PUBLIC "-//W3C//DTD SVG 1.1//EN" "http://www.w3.org/Graphics/SVG/1.1/DTD/svg11.dtd">
<svg version="1.1" id="Capa_1" xmlns="http://www.w3.org/2000/svg" xmlns:xlink="http://www.w3.org/1999/xlink" x="0px" y="0px"
	 width="116.4px" height="116.4px" viewBox="0 0 116.4 116.4" style="enable-background:new 0 0 116.4 116.4;" xml:space="preserve"
	>
<g>
	<path d="M58.197,0C26.11,0,0.003,26.113,0.003,58.2c0,32.09,26.107,58.2,58.194,58.2c32.096,0,58.2-26.11,58.2-58.2
		C116.397,26.113,90.281,0,58.197,0z M61.315,110.006v-9.463c0-1.717-1.397-3.117-3.118-3.117s-3.118,1.4-3.118,3.117v9.463
		c-26.245-1.57-47.258-22.664-48.698-48.957h9.21c1.72,0,3.118-1.388,3.118-3.117c0-1.717-1.397-3.118-3.118-3.118H6.406
		C8.096,28.777,29.009,7.949,55.08,6.39v8.942c0,1.726,1.397,3.117,3.118,3.117s3.118-1.391,3.118-3.117V6.39
		c26.08,1.559,46.99,22.387,48.683,48.424h-9.201c-1.711,0-3.117,1.401-3.117,3.118c0,1.729,1.406,3.117,3.117,3.117h9.225
		C108.579,87.342,87.559,108.436,61.315,110.006z M61.315,30.141v28.838c0,0.756-0.268,1.475-0.761,2.047L45.745,78.172
		c-0.618,0.707-1.482,1.072-2.356,1.072c-0.725,0-1.446-0.244-2.04-0.756c-1.303-1.12-1.446-3.093-0.323-4.396l14.047-16.27V30.141
		c0-1.714,1.397-3.117,3.118-3.117S61.315,28.427,61.315,30.141z"/>
</g>
<g>
</g>
<g>
</g>
<g>
</g>
<g>
</g>
<g>
</g>
<g>
</g>
<g>
</g>
<g>
</g>
<g>
</g>
<g>
</g>
<g>
</g>
<g>
</g>
<g>
</g>
<g>
</g>
<g>
</g>
</svg>
