<?xml version="1.0" encoding="iso-8859-1"?>
<!-- Generator: Adobe Illustrator 16.0.0, SVG Export Plug-In . SVG Version: 6.00 Build 0)  -->
<!DOCTYPE svg PUBLIC "-//W3C//DTD SVG 1.1//EN" "http://www.w3.org/Graphics/SVG/1.1/DTD/svg11.dtd">
<svg version="1.1" id="Capa_1" xmlns="http://www.w3.org/2000/svg" xmlns:xlink="http://www.w3.org/1999/xlink" x="0px" y="0px"
	 width="108.232px" height="108.232px" viewBox="0 0 108.232 108.232" style="enable-background:new 0 0 108.232 108.232;"
	 xml:space="preserve">
<g>
	<path d="M30.881,76.297c0,1.666-1.356,3.025-3.026,3.025c-10.592,0-19.213-8.611-19.213-19.203c0-1.674,1.356-3.027,3.026-3.027
		c1.672,0,3.026,1.354,3.026,3.027c0,7.252,5.902,13.15,13.161,13.15C29.53,73.27,30.881,74.63,30.881,76.297z M106.04,70.657
		c-5.148,14.884-18.667,30.837-30.636,30.837c-1.69,0-3.305-0.313-4.812-0.939c-0.372-0.154-0.757-0.338-1.141-0.551
		c-0.379,0.219-0.757,0.396-1.158,0.557c-1.484,0.62-3.098,0.934-4.788,0.934c-8.051,0-16.805-7.24-23.238-16.509
		c-3.848,1.909-8.109,2.961-12.424,2.961C12.493,87.946,0,75.469,0,60.113C0,45.889,22.739,11.896,25.336,8.071
		c0.562-0.836,1.3-1.265,2.506-1.333c0.993,0,1.918,0.485,2.485,1.295c0.402,0.582,9.637,13.94,16.911,28.448
		c7.138-2.595,13.825-1.992,19.198,1.685V17.047c0-1.67,1.348-3.026,3.026-3.026c1.661,0,3.026,1.356,3.026,3.026v4.944
		c1.3-1.826,2.908-3.582,5-4.864c2.565-1.569,5.615-2.361,9.067-2.361c3.865,0,6.939,1.028,7.063,1.069
		c1.466,0.497,2.323,2.021,1.974,3.535c-0.088,0.396-2.287,9.758-9.202,13.993c-1.1,0.662-2.306,1.114-3.57,1.502
		c3.209-0.06,6.62,0.605,10.119,2.06C106.701,42.62,111.471,54.911,106.04,70.657z M75.173,29.545
		c2.636,0.328,5.935-0.035,8.068-1.339c2.771-1.699,4.521-4.894,5.479-7.249c-2.624-0.322-5.935,0.035-8.056,1.333
		C77.88,23.995,76.142,27.189,75.173,29.545z M72.49,35.234v2.923c1.572-1.07,3.233-1.9,5.013-2.444
		c-0.065,0-0.131,0.024-0.189,0.024C75.427,35.737,73.754,35.488,72.49,35.234z M37.004,79.748
		c-1.658-2.979-3.068-6.053-4.114-9.091c-4.838-14.002-1.557-25.242,8.896-31.566c-4.835-9.625-10.663-18.896-13.92-23.853
		C20.064,27.258,6.064,50.762,6.064,60.125c0,12.01,9.773,21.781,21.79,21.781C31.038,81.9,34.149,81.084,37.004,79.748z
		 M90.635,42.522c-7.719-3.189-14.215-1.708-18.713,4.581c-0.029,0.05-0.106,0.062-0.13,0.109c-0.556,0.692-1.378,1.156-2.329,1.156
		c-0.461,0-0.893-0.127-1.295-0.308c-0.112-0.053-0.194-0.139-0.307-0.213c-0.267-0.168-0.503-0.363-0.71-0.611
		c-0.041-0.054-0.112-0.077-0.147-0.133c-4.516-6.283-10.994-7.782-18.71-4.581c-7.468,3.091-15.211,10.137-9.679,26.161
		C43.887,83.969,58.262,98.166,66,94.963c0.484-0.195,0.981-0.503,1.59-0.987c0.55-0.432,1.212-0.645,1.886-0.645
		c0.656,0,1.324,0.213,1.874,0.645c0.608,0.484,1.104,0.792,1.561,0.981c7.879,3.209,22.147-11,27.408-26.273
		C105.838,52.653,98.107,45.607,90.635,42.522z M65.083,86.262c-0.556,0-2.761-0.721-6.248-4.02H58.83
		c-4.714-4.468-8.836-10.94-11.026-17.295c-0.544-1.584-2.281-2.411-3.845-1.879c-1.578,0.543-2.421,2.27-1.874,3.848
		c2.53,7.348,7.117,14.522,12.59,19.713c0,0,0,0.006,0,0.012c2.755,2.589,6.773,5.674,10.415,5.674c1.667,0,3.026-1.359,3.026-3.026
		C68.116,87.615,66.756,86.262,65.083,86.262z"/>
</g>
<g>
</g>
<g>
</g>
<g>
</g>
<g>
</g>
<g>
</g>
<g>
</g>
<g>
</g>
<g>
</g>
<g>
</g>
<g>
</g>
<g>
</g>
<g>
</g>
<g>
</g>
<g>
</g>
<g>
</g>
</svg>
