<?xml version="1.0" encoding="iso-8859-1"?>
<!-- Generator: Adobe Illustrator 16.0.0, SVG Export Plug-In . SVG Version: 6.00 Build 0)  -->
<!DOCTYPE svg PUBLIC "-//W3C//DTD SVG 1.1//EN" "http://www.w3.org/Graphics/SVG/1.1/DTD/svg11.dtd">
<svg version="1.1" id="Capa_1" xmlns="http://www.w3.org/2000/svg" xmlns:xlink="http://www.w3.org/1999/xlink" x="0px" y="0px"
	 width="97.116px" height="97.116px" viewBox="0 0 97.116 97.116" style="enable-background:new 0 0 97.116 97.116;"
	 xml:space="preserve">
<g>
	<path d="M97.116,3.268c0,1.545-1.258,2.801-2.802,2.801H83.636l-8.755,40.306c-0.285,1.287-1.425,2.212-2.744,2.212H17.624v34.178
		c0,1.543-1.256,2.802-2.802,2.802H2.802C1.256,85.565,0,84.307,0,82.764c0-1.544,1.256-2.802,2.802-2.802h9.217V45.784
		c0-1.546,1.256-2.801,2.803-2.801h19.382V25.477h-22.15c-1.547,0-2.803-1.252-2.803-2.802c0-1.541,1.256-2.801,2.803-2.801h53.602
		c1.551,0,2.801,1.261,2.801,2.801c0,1.55-1.25,2.802-2.801,2.802H39.807v17.506h30.07l8.755-40.311
		c0.285-1.283,1.423-2.208,2.736-2.208h12.946C95.858,0.464,97.116,1.72,97.116,3.268z M70.063,73.516
		c0,12.75-10.386,23.136-23.142,23.136c-12.751,0-23.135-10.386-23.135-23.136c0-12.756,10.377-23.136,23.135-23.136
		C59.678,50.38,70.063,60.76,70.063,73.516z M64.46,73.516c0-9.675-7.868-17.532-17.538-17.532c-9.665,0-17.532,7.857-17.532,17.532
		s7.867,17.532,17.532,17.532C56.592,91.048,64.46,83.19,64.46,73.516z M57.116,73.516c0,5.62-4.572,10.188-10.199,10.188
		c-5.62,0-10.192-4.568-10.192-10.188c0-5.626,4.572-10.199,10.192-10.199C52.544,63.316,57.116,67.89,57.116,73.516z
		 M51.513,73.516c0-2.533-2.061-4.596-4.596-4.596c-2.534,0-4.589,2.062-4.589,4.596c0,2.534,2.062,4.585,4.589,4.585
		C49.458,78.101,51.513,76.05,51.513,73.516z"/>
</g>
<g>
</g>
<g>
</g>
<g>
</g>
<g>
</g>
<g>
</g>
<g>
</g>
<g>
</g>
<g>
</g>
<g>
</g>
<g>
</g>
<g>
</g>
<g>
</g>
<g>
</g>
<g>
</g>
<g>
</g>
</svg>
