<?xml version="1.0" encoding="utf-8"?>
<!-- Generator: Adobe Illustrator 19.0.0, SVG Export Plug-In . SVG Version: 6.00 Build 0)  -->
<svg version="1.1" id="Calque_1" xmlns="http://www.w3.org/2000/svg" xmlns:xlink="http://www.w3.org/1999/xlink" x="0px" y="0px"
	 viewBox="-220 388.7 169.8 16.3" style="enable-background:new -220 388.7 169.8 16.3;" xml:space="preserve">
<style type="text/css">
	.st0{fill:#ACB8C5;}
	.st1{fill:#C1CCD3;}
	.st2{fill:#0076BE;}
</style>
<g>
	<path class="st0" d="M-206.3,396.5c0-0.4,0.1-0.8,0.1-1.1l-1.6-1.2c-0.3,0.7-0.5,1.6-0.5,2.5c0,1,0.2,1.9,0.6,2.6l1.6-1.2
		C-206.2,397.6-206.3,397.1-206.3,396.5z"/>
	<path class="st1" d="M-202.8,392.9c-1.7,0-2.9,1-3.4,2.5l-1.6-1.2c0.9-1.8,2.7-3,5-3c1.5,0,2.9,0.6,3.9,1.9l-1.5,1.1
		C-201.1,393.3-202,392.9-202.8,392.9z"/>
	<path class="st2" d="M-202.7,400.5c-1.7,0-2.9-1-3.4-2.5l-1.6,1.2c0.9,1.8,2.7,3,5,3c1.5,0,2.9-0.6,3.9-1.9l-1.5-1.1
		C-201,400.1-201.9,400.5-202.7,400.5z"/>
</g>
<g>
	<polygon class="st0" points="-215.9,394.5 -215.9,399 -214.1,399 -214.1,397.4 -209.4,397.4 -209.4,395.8 -214.1,395.8 
		-214.1,394.5 	"/>
	<polygon class="st2" points="-214.1,393.2 -209.1,393.2 -209.1,391.5 -215.9,391.5 -215.9,394.5 -214.1,394.5 	"/>
	<polygon class="st1" points="-214.1,393.2 -209.1,393.2 -209.1,391.5 -215.9,391.5 -215.9,394.5 -214.1,394.5 	"/>
	<polygon class="st2" points="-215.9,401.9 -208.8,401.9 -208.8,400.2 -214.1,400.2 -214.1,399 -215.9,399 	"/>
	<polygon class="st2" points="-215.9,401.9 -208.8,401.9 -208.8,400.2 -214.1,400.2 -214.1,399 -215.9,399 	"/>
</g>
</svg>
