<?xml version="1.0" encoding="iso-8859-1"?>
<!-- Generator: Adobe Illustrator 16.0.0, SVG Export Plug-In . SVG Version: 6.00 Build 0)  -->
<!DOCTYPE svg PUBLIC "-//W3C//DTD SVG 1.1//EN" "http://www.w3.org/Graphics/SVG/1.1/DTD/svg11.dtd">
<svg version="1.1" id="Capa_1" xmlns="http://www.w3.org/2000/svg" xmlns:xlink="http://www.w3.org/1999/xlink" x="0px" y="0px"
	 width="133.101px" height="133.101px" viewBox="0 0 133.101 133.101" style="enable-background:new 0 0 133.101 133.101;"
	 xml:space="preserve">
<g>
	<path d="M31.812,104.526c4.074,0,7.88-1.434,11.013-3.94c4.085,3.283,9.059,5.168,14.367,5.168c6.224,0,12.057-2.452,16.438-6.896
		c8.908-9.049,8.788-23.683-0.274-32.591c-4.331-4.278-10.079-6.629-16.163-6.629c-2.662,0-5.223,0.537-7.65,1.39V39.631
		c0-9.771-7.957-17.727-17.729-17.727c-9.781,0-17.739,7.956-17.739,17.727v47.165C14.073,96.57,22.031,104.526,31.812,104.526z
		 M19.676,86.796v-21.57h22.633c-0.516,0.438-1.071,0.821-1.552,1.297c-8.112,8.252-8.657,21.091-1.839,30.058
		c-2.048,1.501-4.509,2.342-7.105,2.342C25.113,98.922,19.676,93.484,19.676,86.796z M69.637,94.927
		c-5.878,5.948-15.717,6.621-22.48,1.96l24.065-24.46C76.189,79.202,75.709,88.767,69.637,94.927z M67.238,68.488L43.15,92.969
		c-4.959-6.774-4.478-16.328,1.596-22.51c3.308-3.372,7.726-5.223,12.446-5.223C60.844,65.249,64.32,66.408,67.238,68.488z
		 M31.812,27.508c6.687,0,12.126,5.445,12.126,12.124v19.994H19.676V39.631C19.676,32.947,25.113,27.508,31.812,27.508z
		 M119.027,74.003c0,1.542-1.25,2.802-2.805,2.802H96.611l-15.89,36.334c-0.447,1.028-1.456,1.674-2.572,1.674H18.166
		c-1.543,0-2.802-1.247-2.802-2.802c0-1.542,1.258-2.802,2.802-2.802h58.159l15.889-36.322c0.448-1.028,1.457-1.686,2.573-1.686
		h21.437C117.777,71.202,119.027,72.459,119.027,74.003z M39.255,125.079c0,4.422-3.592,8.022-8.012,8.022
		c-4.432,0-8.024-3.601-8.024-8.022c0-4.432,3.592-8.021,8.024-8.021C35.663,117.068,39.255,120.647,39.255,125.079z
		 M67.766,125.079c0,4.422-3.592,8.022-8.024,8.022c-4.421,0-8.024-3.601-8.024-8.022c0-4.432,3.603-8.021,8.024-8.021
		C64.174,117.068,67.766,120.647,67.766,125.079z M84.103,33.043H61.572v-0.011c0-3.021,0.775-5.603,2.299-7.768
		c1.528-2.161,4.4-4.722,8.609-7.683c1.883-1.305,3.208-2.509,3.983-3.611c0.776-1.095,1.159-2.309,1.159-3.656
		c0-1.472-0.426-2.643-1.267-3.535c-0.845-0.897-1.961-1.346-3.361-1.346c-1.489,0-2.638,0.566-3.459,1.683
		c-0.842,1.119-1.228,2.64-1.169,4.55h-6.363c-0.117-3.576,0.824-6.421,2.823-8.523C66.817,1.042,69.559,0,73.05,0
		c3.241,0,5.898,0.963,7.967,2.892c2.046,1.937,3.086,4.432,3.086,7.485c0,2.515-0.589,4.583-1.761,6.23
		c-1.172,1.641-3.371,3.491-6.578,5.548c-2.978,1.888-5.011,3.595-6.091,5.128l-0.024,0.043h14.454V33.043z M100.51,33.043h6.389
		v-7.267h3.734v-5.18h-3.739V0.005h-3.615h-3.624L87.451,20.148v2.815v2.812h13.068v7.267H100.51z M92.213,20.596l0.284-0.448
		l8.013-13.314v13.762H92.213z M73.872,55.393v-7.699h-6.653v7.699h-1.762h-1.794v-17.01h1.769h1.787v6.394h6.653v-6.394h1.771
		h1.784v17.01h-1.771H73.872z M94.906,43.111c0-1.422-0.494-2.561-1.489-3.428c-0.994-0.865-2.297-1.294-3.93-1.294H82.68h-1.762
		v17.01h1.775h1.782v-6.712h3.534c1.019,0,1.742,0.15,2.167,0.481c0.438,0.336,0.668,0.875,0.679,1.642l0.032,1.562
		c0,0.674,0.046,1.292,0.11,1.875c0.089,0.588,0.154,0.985,0.253,1.136h3.917v-0.449c-0.285-0.115-0.48-0.317-0.579-0.552
		c-0.101-0.23-0.154-0.608-0.177-1.176l-0.088-2.792c-0.032-1.368-0.536-2.325-1.499-2.919c-0.173-0.102-0.372-0.175-0.585-0.277
		c0.366-0.128,0.7-0.317,1.001-0.514C94.347,45.959,94.906,44.753,94.906,43.111z M90.658,45.259
		c-0.458,0.369-1.148,0.553-2.068,0.553H84.48v-4.492h4.259c0.874,0,1.514,0.186,1.965,0.561c0.436,0.375,0.649,0.93,0.649,1.686
		C91.35,44.308,91.12,44.871,90.658,45.259z M101.548,41.448c-0.515,0.396-0.753,0.941-0.753,1.663c0,0.512,0.249,0.898,0.799,1.171
		c0.513,0.287,1.629,0.61,3.338,1.004c2.471,0.547,4.137,1.188,4.968,1.921c0.831,0.711,1.257,1.866,1.257,3.453
		c0,1.604-0.602,2.867-1.882,3.809c-1.27,0.936-2.955,1.401-5.111,1.401c-2.145,0-3.84-0.487-5.034-1.483
		c-1.204-1.009-1.86-2.421-1.958-4.26h3.438c0.02,0.908,0.351,1.598,0.985,2.08c0.589,0.493,1.476,0.733,2.569,0.733
		c1.138,0,2.024-0.178,2.67-0.547c0.615-0.37,0.952-0.865,0.952-1.519c0-0.64-0.229-1.116-0.678-1.412
		c-0.448-0.32-1.41-0.617-2.877-0.941c-2.693-0.602-4.521-1.25-5.43-1.95c-0.909-0.712-1.335-1.792-1.335-3.262
		c0-1.664,0.579-2.963,1.774-3.94c1.204-0.962,2.811-1.445,4.847-1.445c1.915,0,3.446,0.493,4.65,1.508
		c1.204,0.996,1.863,2.358,1.993,4.06h-3.47c-0.055-0.804-0.416-1.443-1.051-1.92c-0.657-0.476-1.511-0.711-2.539-0.711
		C102.762,40.854,102.062,41.045,101.548,41.448z"/>
</g>
<g>
</g>
<g>
</g>
<g>
</g>
<g>
</g>
<g>
</g>
<g>
</g>
<g>
</g>
<g>
</g>
<g>
</g>
<g>
</g>
<g>
</g>
<g>
</g>
<g>
</g>
<g>
</g>
<g>
</g>
</svg>
