<?xml version="1.0" encoding="iso-8859-1"?>
<!-- Generator: Adobe Illustrator 16.0.0, SVG Export Plug-In . SVG Version: 6.00 Build 0)  -->
<!DOCTYPE svg PUBLIC "-//W3C//DTD SVG 1.1//EN" "http://www.w3.org/Graphics/SVG/1.1/DTD/svg11.dtd">
<svg version="1.1" id="Capa_1" xmlns="http://www.w3.org/2000/svg" xmlns:xlink="http://www.w3.org/1999/xlink" x="0px" y="0px"
	 width="173.68px" height="173.681px" viewBox="0 0 173.68 173.681" style="enable-background:new 0 0 173.68 173.681;"
	 xml:space="preserve">
<g>
	<path d="M154.797,65.836c-10.155-4.213-19.649-3.218-26.861,2.685v-7.183c1.545,0.385,4.175,0.906,7.245,0.906
		c4.23,0,7.951-0.964,11.07-2.867c8.494-5.196,11.206-16.755,11.32-17.243c0.325-1.401-0.469-2.813-1.827-3.278
		c-0.153-0.052-3.918-1.311-8.698-1.311c-4.227,0-7.942,0.963-11.051,2.862c-3.713,2.281-6.276,5.767-8.06,9.015V39.396
		c0-1.548-1.253-2.802-2.802-2.802c-1.541,0-2.802,1.253-2.802,2.802v29.141c-2.156-1.764-4.515-3.091-7.031-3.967
		c1.663-6.946,2.758-12.64,3.323-20.206c0.08-1.091-0.483-2.134-1.446-2.667c-17.155-9.458-37.16-14.458-57.865-14.458
		c-20.71,0-40.727,5.005-57.859,14.463c-0.965,0.534-1.519,1.57-1.448,2.662c3.182,42.881,24.831,80.07,57.888,99.462
		c0.438,0.251,0.926,0.383,1.419,0.383c0.491,0,0.981-0.132,1.417-0.383c9.483-5.571,18.093-12.777,25.731-21.342
		c8.173,13.155,20.155,23.957,31.057,23.957c2.019,0,3.955-0.371,5.729-1.111c0.623-0.252,1.253-0.574,1.883-0.963
		c0.635,0.389,1.26,0.706,1.871,0.958c1.794,0.745,3.731,1.116,5.753,1.116c14.838,0,31.735-20.044,38.189-38.764
		C177.699,88.132,171.811,72.873,154.797,65.836z M138.913,45.183c2.217-1.354,4.941-2.038,8.12-2.038
		c1.609,0,3.087,0.177,4.258,0.385c-1.27,3.469-3.853,8.544-7.967,11.067c-2.217,1.349-4.958,2.038-8.143,2.038
		c-1.596,0-3.062-0.178-4.229-0.386C132.111,53.078,134.584,47.844,138.913,45.183z M59.313,138.14
		C29.087,119.728,9.202,85.418,5.739,45.749C21.703,37.3,40.177,32.837,59.313,32.837c19.118,0,37.597,4.462,53.574,12.906
		c-0.585,6.394-1.592,11.513-3.078,17.696c-2.502-0.229-5.118-0.084-7.821,0.451c1.028-3.932,1.598-7.133,2.232-11.463
		c0.178-1.25-0.493-2.465-1.652-2.974c-12.859-5.608-27.482-8.435-42.146-8.575c-0.346-0.145-0.724-0.241-1.121-0.241
		c-0.397,0-0.781,0.096-1.123,0.241c-14.65,0.14-29.275,2.966-42.142,8.575c-1.151,0.509-1.83,1.729-1.653,2.974
		c4.597,31.272,20.375,58.709,43.276,75.248c0.049,0.032,0.117,0.02,0.166,0.052c0.438,0.274,0.919,0.472,1.476,0.472
		c0.555,0,1.036-0.197,1.475-0.472c0.055-0.032,0.118-0.02,0.166-0.052c7.004-5.058,13.347-11.247,18.996-18.317
		c1.021,2.687,2.219,5.374,3.61,8.027C76.369,125.696,68.25,132.702,59.313,138.14z M77.978,102.788
		c-4.718,6.394-10.041,12.015-15.863,16.824V80.566H79.26C76.369,86.797,75.903,94.305,77.978,102.788z M28.086,80.561h28.425v38.98
		C44.358,109.506,34.637,96.083,28.086,80.561z M56.511,74.958h-30.69c-2.456-6.768-4.333-13.855-5.547-21.204
		c11.171-4.553,23.67-6.908,36.237-7.226V74.958L56.511,74.958z M82.74,75.059c-0.156-0.027-0.319-0.101-0.491-0.101H62.114v-28.43
		C74.693,46.84,87.2,49.196,98.36,53.754c-0.651,4.197-1.308,7.313-2.688,12.022c-0.07,0.028-0.136,0.038-0.207,0.072
		C90.026,68.083,85.857,71.259,82.74,75.059z M165.654,105.861c-7.069,20.465-25.737,38.747-36.541,34.288
		c-0.679-0.274-1.396-0.723-2.242-1.396c-0.514-0.405-1.116-0.607-1.747-0.607c-0.605,0-1.231,0.202-1.74,0.607
		c-0.832,0.661-1.57,1.11-2.274,1.406c-10.558,4.366-29.439-13.834-36.514-34.299c-0.331-0.947-0.583-1.85-0.829-2.752
		c-0.036-0.247-0.122-0.477-0.218-0.712c-5.118-18.862,4.622-27.472,14.051-31.379c10.366-4.29,19.174-2.219,25.248,6.238
		c0.046,0.05,0.115,0.072,0.144,0.118c0.187,0.224,0.403,0.402,0.649,0.567c0.106,0.065,0.182,0.138,0.29,0.193
		c0.363,0.169,0.761,0.287,1.193,0.287c0.432,0,0.832-0.118,1.192-0.293c0.115-0.049,0.187-0.123,0.285-0.183
		c0.251-0.159,0.476-0.348,0.662-0.577c0.043-0.052,0.111-0.069,0.136-0.118c6.059-8.463,14.88-10.528,25.245-6.233
		C162.645,75.149,173.011,84.542,165.654,105.861z M122.328,131.896c0,1.544-1.252,2.802-2.802,2.802
		c-4.537,0-9.833-4.366-12.592-6.981c-6.883-6.523-12.662-15.562-15.853-24.83c-0.503-1.463,0.28-3.062,1.746-3.564
		c1.461-0.521,3.059,0.273,3.562,1.747c2.862,8.299,8.246,16.739,14.409,22.57c4.54,4.316,7.626,5.455,8.737,5.455
		C121.076,129.095,122.328,130.354,122.328,131.896z"/>
</g>
<g>
</g>
<g>
</g>
<g>
</g>
<g>
</g>
<g>
</g>
<g>
</g>
<g>
</g>
<g>
</g>
<g>
</g>
<g>
</g>
<g>
</g>
<g>
</g>
<g>
</g>
<g>
</g>
<g>
</g>
</svg>
