<?xml version="1.0" encoding="iso-8859-1"?>
<!-- Generator: Adobe Illustrator 16.0.0, SVG Export Plug-In . SVG Version: 6.00 Build 0)  -->
<!DOCTYPE svg PUBLIC "-//W3C//DTD SVG 1.1//EN" "http://www.w3.org/Graphics/SVG/1.1/DTD/svg11.dtd">
<svg version="1.1" id="Capa_1" xmlns="http://www.w3.org/2000/svg" xmlns:xlink="http://www.w3.org/1999/xlink" x="0px" y="0px"
	 width="99.147px" height="99.147px" viewBox="0 0 99.147 99.147" style="enable-background:new 0 0 99.147 99.147;"
	 xml:space="preserve">
<g>
	<path d="M75.897,27.122c-8.724-3.614-16.913-2.923-23.3,1.755V21.71c0.435,0.145,3.614,1.144,7.692,1.144
		c3.827,0,7.19-0.878,10.04-2.601c7.666-4.699,10.107-15.09,10.208-15.534c0.343-1.513-0.509-3.038-1.98-3.535
		C78.427,1.138,75.016,0,70.725,0c-3.818,0-7.188,0.877-10.019,2.604c-3.975,2.438-6.537,6.401-8.104,9.726V4.365
		c0-1.672-1.356-3.026-3.026-3.026S46.55,2.692,46.55,4.365v24.518c-6.393-4.69-14.576-5.381-23.303-1.761
		C7.965,33.446,2.675,47.126,8.727,64.664c5.74,16.656,20.827,34.483,34.149,34.483c1.854,0,3.626-0.354,5.261-1.022
		c0.476-0.184,0.955-0.42,1.439-0.715c0.479,0.283,0.952,0.508,1.427,0.709c1.64,0.674,3.419,1.028,5.278,1.028
		c13.314,0,28.399-17.827,34.15-34.483C96.466,47.112,91.17,33.434,75.897,27.122z M63.857,7.752
		c1.856-1.138,4.161-1.711,6.856-1.711c1.076,0,2.087,0.098,2.955,0.222c-1.075,2.743-3.145,6.75-6.513,8.819
		c-1.868,1.141-4.186,1.714-6.878,1.714c-1.085,0-2.089-0.098-2.946-0.225C58.414,13.837,60.485,9.83,63.857,7.752z M84.705,62.666
		C78.586,80.375,62.474,96.287,53.3,92.521c-0.553-0.225-1.138-0.597-1.847-1.141c-0.549-0.438-1.217-0.662-1.882-0.662
		s-1.333,0.225-1.883,0.662c-0.688,0.544-1.294,0.916-1.865,1.146c-9.055,3.725-25.269-12.129-31.383-29.861
		c-6.33-18.338,2.551-26.418,11.121-29.964c8.86-3.673,16.358-1.93,21.554,5.296c0.042,0.056,0.106,0.08,0.151,0.133
		c0.204,0.248,0.44,0.438,0.706,0.612c0.109,0.068,0.195,0.151,0.311,0.212c0.393,0.187,0.822,0.308,1.289,0.308l0,0
		c0.006,0,0.006,0,0.012,0c0.461,0,0.884-0.127,1.271-0.308c0.116-0.056,0.207-0.139,0.316-0.212
		c0.266-0.168,0.502-0.37,0.707-0.612c0.044-0.047,0.109-0.071,0.151-0.127c5.163-7.226,12.651-8.981,21.541-5.296
		C82.133,36.248,91.035,44.328,84.705,62.666z M47.665,85.765c0,1.667-1.356,3.026-3.026,3.026c-7.149,0-20.15-12.655-25.567-28.372
		c-0.544-1.584,0.295-3.31,1.876-3.854c1.581-0.55,3.304,0.296,3.851,1.88c5.033,14.611,16.535,24.293,19.839,24.293
		C46.302,82.739,47.665,84.098,47.665,85.765z"/>
</g>
<g>
</g>
<g>
</g>
<g>
</g>
<g>
</g>
<g>
</g>
<g>
</g>
<g>
</g>
<g>
</g>
<g>
</g>
<g>
</g>
<g>
</g>
<g>
</g>
<g>
</g>
<g>
</g>
<g>
</g>
</svg>
