<?xml version="1.0" encoding="iso-8859-1"?>
<!-- Generator: Adobe Illustrator 16.0.0, SVG Export Plug-In . SVG Version: 6.00 Build 0)  -->
<!DOCTYPE svg PUBLIC "-//W3C//DTD SVG 1.1//EN" "http://www.w3.org/Graphics/SVG/1.1/DTD/svg11.dtd">
<svg version="1.1" id="Capa_1" xmlns="http://www.w3.org/2000/svg" xmlns:xlink="http://www.w3.org/1999/xlink" x="0px" y="0px"
	 width="115.921px" height="115.921px" viewBox="0 0 115.921 115.921" style="enable-background:new 0 0 115.921 115.921;"
	 xml:space="preserve">
<g>
	<path d="M92.122,51.359c-3.499-1.454-6.91-2.119-10.119-2.06c1.253-0.381,2.471-0.833,3.558-1.499
		c6.934-4.244,9.127-13.601,9.215-13.997c0.349-1.513-0.508-3.038-1.974-3.535c-0.124-0.035-2.477-0.774-5.598-0.984V3.026
		C87.204,1.357,85.845,0,84.178,0H11.546C9.876,0,8.52,1.357,8.52,3.026v99.869c0,1.679,1.356,3.026,3.026,3.026h33.127
		c5.55,5.934,11.978,10,18.01,10c1.693,0,3.312-0.318,4.802-0.934c0.379-0.153,0.769-0.343,1.147-0.556
		c0.384,0.213,0.756,0.391,1.141,0.544c1.507,0.627,3.121,0.945,4.812,0.945c11.957,0,25.486-15.946,30.623-30.842
		C110.641,69.328,105.87,57.042,92.122,51.359z M71.671,49.65c1.253,0.254,2.932,0.502,4.811,0.502c0.071,0,0.131-0.023,0.201-0.023
		c-1.773,0.544-3.451,1.38-5.012,2.444V49.65z M82.41,42.628c-2.134,1.298-5.432,1.661-8.067,1.339
		c0.969-2.361,2.707-5.55,5.484-7.255c2.122-1.297,5.427-1.655,8.062-1.333C86.927,37.747,85.183,40.935,82.41,42.628z
		 M29.704,6.047v14.121H14.579V6.047H29.704z M14.579,99.863V26.22H32.73c1.67,0,3.026-1.354,3.026-3.026V6.047h45.395v23.702
		c-1.619,0.396-3.133,0.975-4.48,1.8c-2.086,1.283-3.7,3.038-5.012,4.865v-4.944c0-1.67-1.354-3.026-3.026-3.026
		c-1.667,0-3.026,1.356-3.026,3.026v21.11c-5.675-3.884-12.847-4.395-20.463-1.232c-13.751,5.688-18.521,17.975-13.078,33.721
		c1.735,5.036,4.442,10.184,7.711,14.789H14.579V99.863z M99.475,83.111c-5.272,15.256-19.541,29.507-27.402,26.268
		c-0.455-0.188-0.951-0.496-1.561-0.98c-0.556-0.432-1.211-0.645-1.879-0.645c-0.674,0-1.33,0.225-1.88,0.645
		c-0.615,0.484-1.111,0.792-1.596,0.992c-7.72,3.21-22.112-10.987-27.385-26.279c-5.539-16.029,2.208-23.081,9.679-26.167
		c7.711-3.201,14.198-1.702,18.711,4.575c0.047,0.06,0.118,0.083,0.153,0.13c0.207,0.249,0.443,0.437,0.709,0.615
		c0.106,0.083,0.189,0.153,0.308,0.213c0.39,0.189,0.827,0.307,1.288,0.307l0,0c0.013,0,0.013,0,0.013,0
		c0.461,0,0.886-0.13,1.276-0.307c0.118-0.047,0.201-0.13,0.308-0.213c0.271-0.166,0.508-0.366,0.709-0.603
		c0.035-0.059,0.118-0.083,0.153-0.13c4.504-6.289,10.971-7.776,18.708-4.581C97.276,60.03,105.007,67.082,99.475,83.111z
		 M67.285,103.722c0,1.661-1.36,3.026-3.026,3.026c-3.65,0-7.675-3.091-10.418-5.681l-0.006-0.012
		c-5.471-5.184-10.06-12.365-12.59-19.724c-0.544-1.572,0.298-3.299,1.876-3.843c1.563-0.555,3.298,0.296,3.845,1.886
		c2.189,6.36,6.312,12.827,11.026,17.289c0,0,0,0,0.006,0c3.499,3.298,5.692,4.031,6.254,4.031
		C65.925,100.696,67.285,102.038,67.285,103.722z"/>
</g>
<g>
</g>
<g>
</g>
<g>
</g>
<g>
</g>
<g>
</g>
<g>
</g>
<g>
</g>
<g>
</g>
<g>
</g>
<g>
</g>
<g>
</g>
<g>
</g>
<g>
</g>
<g>
</g>
<g>
</g>
</svg>
