<?xml version="1.0" encoding="iso-8859-1"?>
<!-- Generator: Adobe Illustrator 16.0.0, SVG Export Plug-In . SVG Version: 6.00 Build 0)  -->
<!DOCTYPE svg PUBLIC "-//W3C//DTD SVG 1.1//EN" "http://www.w3.org/Graphics/SVG/1.1/DTD/svg11.dtd">
<svg version="1.1" id="Capa_1" xmlns="http://www.w3.org/2000/svg" xmlns:xlink="http://www.w3.org/1999/xlink" x="0px" y="0px"
	 width="80.312px" height="80.312px" viewBox="0 0 80.312 80.312" style="enable-background:new 0 0 80.312 80.312;"
	 xml:space="preserve">
<g>
	<path d="M78.798,45.854l-9.889-5.704l9.889-5.707c0.697-0.399,1.206-1.067,1.412-1.841c0.201-0.774,0.101-1.604-0.307-2.293
		L68.555,10.655c-0.846-1.454-2.695-1.948-4.138-1.108l-9.895,5.716V3.84c0-1.67-1.36-3.026-3.026-3.026H28.798
		c-1.669,0-3.026,1.356-3.026,3.026v11.414L15.89,9.547c-1.454-0.839-3.302-0.337-4.135,1.108L0.406,30.314
		c-0.836,1.445-0.34,3.298,1.108,4.134l9.895,5.707l-9.889,5.71c-0.698,0.391-1.206,1.064-1.413,1.839
		c-0.204,0.773-0.101,1.602,0.305,2.293l11.349,19.659c0.399,0.697,1.064,1.206,1.838,1.413c0.769,0.201,1.599,0.094,2.297-0.308
		l9.883-5.704v11.414c0,1.666,1.356,3.026,3.026,3.026h22.698c1.673,0,3.026-1.36,3.026-3.026v-11.42l9.895,5.71
		c0.697,0.39,1.519,0.509,2.299,0.308c0.769-0.207,1.431-0.716,1.833-1.413l11.349-19.659
		C80.742,48.543,80.246,46.692,78.798,45.854z M64.83,64l-11.815-6.821c-0.928-0.544-2.099-0.544-3.026,0
		c-0.939,0.532-1.513,1.537-1.513,2.618v13.643H31.831V59.809c0-1.081-0.576-2.086-1.513-2.618c-0.931-0.544-2.095-0.544-3.026,0
		L15.487,64L7.165,49.589l11.81-6.82c0.937-0.538,1.513-1.537,1.513-2.619c0-1.081-0.576-2.086-1.513-2.618l-11.81-6.818
		l8.322-14.41l11.804,6.81c0.931,0.538,2.096,0.538,3.026,0c0.937-0.541,1.513-1.537,1.513-2.622V6.86h16.645v13.636
		c0,1.085,0.573,2.084,1.513,2.622c0.928,0.538,2.099,0.538,3.026,0l11.815-6.821l8.322,14.41l-11.81,6.812
		c-0.934,0.544-1.513,1.537-1.513,2.624c0,1.082,0.579,2.081,1.513,2.625l11.81,6.809L64.83,64z"/>
</g>
<g>
</g>
<g>
</g>
<g>
</g>
<g>
</g>
<g>
</g>
<g>
</g>
<g>
</g>
<g>
</g>
<g>
</g>
<g>
</g>
<g>
</g>
<g>
</g>
<g>
</g>
<g>
</g>
<g>
</g>
</svg>
