<?xml version="1.0" encoding="iso-8859-1"?>
<!-- Generator: Adobe Illustrator 16.0.0, SVG Export Plug-In . SVG Version: 6.00 Build 0)  -->
<!DOCTYPE svg PUBLIC "-//W3C//DTD SVG 1.1//EN" "http://www.w3.org/Graphics/SVG/1.1/DTD/svg11.dtd">
<svg version="1.1" id="Capa_1" xmlns="http://www.w3.org/2000/svg" xmlns:xlink="http://www.w3.org/1999/xlink" x="0px" y="0px"
	 width="122.338px" height="122.338px" viewBox="0 0 122.338 122.338" style="enable-background:new 0 0 122.338 122.338;"
	 xml:space="preserve">
<g>
	<path d="M84.052,44.126V14.01C84.052,6.288,77.52,0,69.484,0H52.848C44.822,0,38.29,6.288,38.29,14.01v30.111
		c-2.904,2.336-4.679,5.262-4.679,8.512v17.07c0,3.25,1.774,6.178,4.679,8.52v30.107c0,7.726,6.532,14.008,14.558,14.008h16.636
		c8.035,0,14.567-6.282,14.567-14.008V78.211c2.899-2.341,4.675-5.258,4.675-8.508V52.627
		C88.727,49.383,86.951,46.469,84.052,44.126z M39.219,69.703v-17.07c0-3.917,6.854-8.276,16.682-8.276h10.543
		c9.825,0,16.679,4.359,16.679,8.276v17.07c0,3.917-6.854,8.278-16.679,8.278H55.901C46.078,77.981,39.219,73.631,39.219,69.703z
		 M43.897,14.01c0-4.636,4.018-8.406,8.955-8.406h16.646c4.936,0,8.95,3.77,8.95,8.406v26.904c-3.448-1.348-7.54-2.156-12.004-2.156
		H55.901c-4.46,0-8.551,0.808-12.004,2.156V14.01L43.897,14.01z M78.448,108.34c0,4.629-4.015,8.405-8.964,8.405H52.848
		c-4.939,0-8.956-3.776-8.956-8.405V81.44c3.453,1.351,7.539,2.155,12.003,2.155h10.536c4.467,0,8.553-0.814,12.017-2.167V108.34
		L78.448,108.34z M49.843,17.002c-0.016-1.538,1.214-2.791,2.748-2.802c1.534-0.011,2.787,1.215,2.801,2.75
		c0.016,1.535-1.218,2.796-2.748,2.807C51.116,19.768,49.849,18.537,49.843,17.002z M58.387,16.923
		c-0.016-1.536,1.219-2.792,2.754-2.803c1.537-0.011,2.792,1.215,2.807,2.75c0.013,1.533-1.224,2.791-2.759,2.802
		C59.654,19.686,58.399,18.446,58.387,16.923z M66.935,16.832c-0.01-1.535,1.228-2.791,2.76-2.801
		c1.527-0.011,2.789,1.217,2.802,2.752c0.01,1.534-1.215,2.79-2.76,2.801C68.205,19.606,66.959,18.367,66.935,16.832z
		 M55.403,32.326c0.016,1.529-1.217,2.791-2.753,2.802c-1.53,0.011-2.786-1.223-2.802-2.752c-0.01-1.535,1.223-2.791,2.752-2.802
		C54.137,29.552,55.384,30.791,55.403,32.326z M63.952,32.236c0.018,1.529-1.22,2.791-2.752,2.802
		c-1.533,0.011-2.791-1.215-2.806-2.752c-0.013-1.527,1.217-2.794,2.756-2.807C62.69,29.472,63.941,30.701,63.952,32.236z
		 M72.496,32.164c0.02,1.521-1.215,2.789-2.749,2.803c-1.532,0.01-2.788-1.219-2.812-2.753c-0.01-1.536,1.228-2.792,2.76-2.808
		C71.235,29.396,72.496,30.622,72.496,32.164z M56.891,22.008c1.54,0,2.78,1.245,2.78,2.78c0,1.538-1.24,2.78-2.78,2.78
		c-1.534,0-2.777-1.242-2.777-2.78C54.121,23.253,55.356,22.008,56.891,22.008z M65.446,22.008c1.532,0,2.782,1.245,2.782,2.78
		c0,1.538-1.25,2.78-2.782,2.78c-1.526,0-2.769-1.242-2.769-2.78C62.678,23.253,63.904,22.008,65.446,22.008z M49.843,90.393
		c-0.016-1.537,1.214-2.791,2.748-2.802c1.534-0.011,2.787,1.22,2.801,2.746c0.016,1.54-1.218,2.802-2.748,2.813
		C51.116,93.161,49.849,91.919,49.843,90.393z M58.387,90.305c-0.016-1.532,1.219-2.79,2.754-2.802
		c1.537-0.011,2.792,1.214,2.807,2.753c0.013,1.522-1.224,2.79-2.759,2.802C59.654,93.068,58.399,91.843,58.387,90.305z
		 M66.935,90.233c-0.01-1.532,1.228-2.791,2.76-2.802c1.527-0.01,2.789,1.215,2.802,2.741c0.01,1.544-1.215,2.791-2.76,2.802
		C68.205,93.002,66.959,91.76,66.935,90.233z M55.403,105.713c0.016,1.527-1.217,2.791-2.753,2.805
		c-1.53,0.009-2.786-1.223-2.802-2.749c-0.01-1.537,1.223-2.789,2.752-2.802C54.137,102.944,55.384,104.182,55.403,105.713z
		 M63.952,105.632c0.018,1.526-1.22,2.792-2.752,2.802c-1.533,0.011-2.791-1.219-2.806-2.745c-0.013-1.535,1.217-2.802,2.756-2.815
		C62.69,102.863,63.941,104.096,63.952,105.632z M72.496,105.549c0.02,1.527-1.215,2.791-2.749,2.802
		c-1.532,0.012-2.788-1.214-2.812-2.757c-0.01-1.526,1.228-2.786,2.76-2.802C71.235,102.78,72.496,104.012,72.496,105.549z
		 M56.891,100.959c-1.534,0-2.777-1.242-2.777-2.779c0-1.534,1.243-2.781,2.777-2.781c1.54,0,2.78,1.247,2.78,2.781
		C59.671,99.717,58.439,100.959,56.891,100.959z M65.446,100.959c-1.526,0-2.769-1.242-2.769-2.779c0-1.534,1.242-2.781,2.769-2.781
		c1.532,0,2.782,1.247,2.782,2.781C68.229,99.717,66.979,100.959,65.446,100.959z"/>
</g>
<g>
</g>
<g>
</g>
<g>
</g>
<g>
</g>
<g>
</g>
<g>
</g>
<g>
</g>
<g>
</g>
<g>
</g>
<g>
</g>
<g>
</g>
<g>
</g>
<g>
</g>
<g>
</g>
<g>
</g>
</svg>
