<?xml version="1.0" encoding="iso-8859-1"?>
<!-- Generator: Adobe Illustrator 16.0.0, SVG Export Plug-In . SVG Version: 6.00 Build 0)  -->
<!DOCTYPE svg PUBLIC "-//W3C//DTD SVG 1.1//EN" "http://www.w3.org/Graphics/SVG/1.1/DTD/svg11.dtd">
<svg version="1.1" id="Capa_1" xmlns="http://www.w3.org/2000/svg" xmlns:xlink="http://www.w3.org/1999/xlink" x="0px" y="0px"
	 width="179.126px" height="179.126px" viewBox="0 0 179.126 179.126" style="enable-background:new 0 0 179.126 179.126;"
	 xml:space="preserve">
<g>
	<path d="M105.139,100.97v12.257H92.882c-1.54,0-2.802,1.27-2.802,2.802v18.845c0,1.539,1.262,2.802,2.802,2.802h12.257v12.26
		c0,1.541,1.259,2.801,2.802,2.801h18.834c1.544,0,2.802-1.26,2.802-2.801v-12.26h12.26c1.541,0,2.802-1.263,2.802-2.802v-18.845
		c0-1.532-1.261-2.802-2.802-2.802h-12.26V100.97c0-1.555-1.258-2.802-2.802-2.802H107.94
		C106.397,98.168,105.139,99.415,105.139,100.97z M110.741,116.028v-12.257h13.232v12.257c0,1.554,1.259,2.802,2.801,2.802h12.26
		v13.242h-12.26c-1.542,0-2.801,1.25-2.801,2.801v12.26h-13.232v-12.26c0-1.551-1.258-2.801-2.801-2.801H95.683V118.83h12.258
		C109.494,118.83,110.741,117.582,110.741,116.028z M165.747,92.938c-10.991-6.074-23.402-9.923-36.4-11.405V28.717
		c0-1.546-1.251-2.802-2.802-2.802H91.528c-1.54,0-2.803,1.256-2.803,2.802v30.818H56.506c-1.539,0-2.802,1.256-2.802,2.802v25.214
		H21.487c-1.541,0-2.803,1.259-2.803,2.802v46.228c0,1.545,1.262,2.802,2.803,2.802h35.02h23.067
		c8.462,16.58,20.919,30.304,36.373,39.365c0.438,0.263,0.925,0.378,1.419,0.378c0.49,0,0.985-0.115,1.415-0.378
		c27.661-16.229,45.752-47.311,48.424-83.152C167.269,94.502,166.71,93.457,165.747,92.938z M53.705,133.779H24.289V93.155h29.416
		V133.779z M94.329,62.337V31.519h29.415V81.03c-2.11-0.118-4.235-0.187-6.379-0.187c-7.857,0-15.586,0.898-23.036,2.591V62.337z
		 M59.308,133.779V90.354V65.139h29.417v18.912v0.82c-6.913,1.98-13.564,4.662-19.734,8.066c-0.963,0.524-1.518,1.564-1.448,2.669
		c1.015,13.594,4.256,26.496,9.387,38.173H59.308z M117.365,173.062c-24.807-15.245-41.162-43.458-44.087-76.076
		c13.155-6.906,28.359-10.546,44.087-10.546c15.735,0,30.938,3.628,44.086,10.546C158.534,129.604,142.173,157.825,117.365,173.062z
		 M94.564,10.613l-78.034,66.46c-0.525,0.449-1.171,0.667-1.814,0.667c-0.796,0-1.576-0.348-2.134-0.993
		c-1.003-1.183-0.854-2.936,0.323-3.951l78.67-67.005c0.113-0.098,0.241-0.123,0.348-0.188H79.156c-1.542,0-2.802-1.267-2.802-2.802
		C76.354,1.25,77.615,0,79.156,0h18.202c1.55,0,2.801,1.25,2.801,2.802v18.2c0,1.546-1.251,2.802-2.801,2.802
		c-1.536,0-2.8-1.256-2.8-2.802V10.613H94.564z"/>
</g>
<g>
</g>
<g>
</g>
<g>
</g>
<g>
</g>
<g>
</g>
<g>
</g>
<g>
</g>
<g>
</g>
<g>
</g>
<g>
</g>
<g>
</g>
<g>
</g>
<g>
</g>
<g>
</g>
<g>
</g>
</svg>
