<?xml version="1.0" encoding="iso-8859-1"?>
<!-- Generator: Adobe Illustrator 16.0.0, SVG Export Plug-In . SVG Version: 6.00 Build 0)  -->
<!DOCTYPE svg PUBLIC "-//W3C//DTD SVG 1.1//EN" "http://www.w3.org/Graphics/SVG/1.1/DTD/svg11.dtd">
<svg version="1.1" id="Capa_1" xmlns="http://www.w3.org/2000/svg" xmlns:xlink="http://www.w3.org/1999/xlink" x="0px" y="0px"
	 width="81.949px" height="81.95px" viewBox="0 0 81.949 81.95" style="enable-background:new 0 0 81.949 81.95;"
	 xml:space="preserve">
<g>
	<path d="M74.254,0H7.707C6.703,0,5.772,0.545,5.275,1.412C4.777,2.274,4.777,3.357,5.286,4.214l9.425,16.162v58.772
		c0,1.542,1.26,2.802,2.801,2.802h56.733c1.546,0,2.802-1.26,2.802-2.802V2.803C77.056,1.25,75.799,0,74.254,0z M71.452,76.342
		H20.319V59.53h9.807c1.546,0,2.802-1.263,2.802-2.802c0-1.548-1.256-2.802-2.802-2.802h-9.807v-7.704h9.807
		c1.546,0,2.802-1.264,2.802-2.802c0-1.546-1.256-2.802-2.802-2.802h-9.807v-7.704h9.807c1.546,0,2.802-1.261,2.802-2.802
		c0-1.546-1.256-2.802-2.802-2.802h-9.807v-7.704c0-0.504-0.122-0.994-0.374-1.412L12.594,5.598h58.858V76.342z M54.989,49.029
		c0-1.739,1.41-3.151,3.144-3.151c1.74,0,3.154,1.412,3.154,3.151c0,1.74-1.414,3.152-3.154,3.152
		C56.399,52.181,54.989,50.769,54.989,49.029z M42.034,56.728c0-1.942,1.562-3.502,3.505-3.502s3.502,1.56,3.502,3.502
		c0,1.933-1.56,3.502-3.502,3.502C43.597,60.236,42.034,58.661,42.034,56.728z M51.487,65.84c0-2.901,2.353-5.254,5.257-5.254
		c2.905,0,5.253,2.353,5.253,5.254c0,2.91-2.354,5.253-5.253,5.253C53.84,71.093,51.487,68.74,51.487,65.84z M44.125,39.918
		c0-1.94,1.56-3.502,3.502-3.502s3.502,1.562,3.502,3.502c0,1.935-1.56,3.502-3.502,3.502
		C45.689,43.427,44.125,41.853,44.125,39.918z M34.412,67.241c0-1.884,1.53-3.403,3.412-3.403c1.882,0,3.406,1.52,3.406,3.403
		c0,1.893-1.524,3.414-3.406,3.414C35.942,70.655,34.412,69.118,34.412,67.241z"/>
</g>
<g>
</g>
<g>
</g>
<g>
</g>
<g>
</g>
<g>
</g>
<g>
</g>
<g>
</g>
<g>
</g>
<g>
</g>
<g>
</g>
<g>
</g>
<g>
</g>
<g>
</g>
<g>
</g>
<g>
</g>
</svg>
