<?xml version="1.0" encoding="iso-8859-1"?>
<!-- Generator: Adobe Illustrator 16.0.0, SVG Export Plug-In . SVG Version: 6.00 Build 0)  -->
<!DOCTYPE svg PUBLIC "-//W3C//DTD SVG 1.1//EN" "http://www.w3.org/Graphics/SVG/1.1/DTD/svg11.dtd">
<svg version="1.1" id="Capa_1" xmlns="http://www.w3.org/2000/svg" xmlns:xlink="http://www.w3.org/1999/xlink" x="0px" y="0px"
	 width="68.176px" height="68.177px" viewBox="0 0 68.176 68.177" style="enable-background:new 0 0 68.176 68.177;"
	 xml:space="preserve">
<g>
	<path d="M65.375,27.319c-1.549,0-2.802,1.256-2.802,2.802v4.667H5.604V13.776c0-1.546-1.256-2.802-2.802-2.802S0,12.23,0,13.776
		v40.625c0,1.542,1.256,2.801,2.802,2.801s2.802-1.259,2.802-2.801v-5.604h56.969v5.604c0,1.542,1.253,2.801,2.802,2.801
		c1.537,0,2.802-1.259,2.802-2.801v-24.28C68.176,28.57,66.924,27.319,65.375,27.319z M5.604,43.193v-2.802h56.969v2.802H5.604z
		 M9.924,28.833c0-1.546,1.256-2.802,2.801-2.802H25.68c1.546,0,2.802,1.256,2.802,2.802c0,1.547-1.256,2.801-2.802,2.801H12.726
		C11.18,31.634,9.924,30.384,9.924,28.833z"/>
</g>
<g>
</g>
<g>
</g>
<g>
</g>
<g>
</g>
<g>
</g>
<g>
</g>
<g>
</g>
<g>
</g>
<g>
</g>
<g>
</g>
<g>
</g>
<g>
</g>
<g>
</g>
<g>
</g>
<g>
</g>
</svg>
