<?xml version="1.0" encoding="iso-8859-1"?>
<!-- Generator: Adobe Illustrator 16.0.0, SVG Export Plug-In . SVG Version: 6.00 Build 0)  -->
<!DOCTYPE svg PUBLIC "-//W3C//DTD SVG 1.1//EN" "http://www.w3.org/Graphics/SVG/1.1/DTD/svg11.dtd">
<svg version="1.1" id="Capa_1" xmlns="http://www.w3.org/2000/svg" xmlns:xlink="http://www.w3.org/1999/xlink" x="0px" y="0px"
	 width="176.67px" height="176.671px" viewBox="0 0 176.67 176.671" style="enable-background:new 0 0 176.67 176.671;"
	 xml:space="preserve">
<g>
	<path d="M142.9,69.63c-5.358,0-10.412,1.291-14.918,3.517l-16.647-27.423h18.315c1.718,0,3.118-1.397,3.118-3.117
		c0-1.721-1.4-3.118-3.118-3.118h-23.382c-1.718,0-3.118,1.397-3.118,3.118c0,0.131,0.062,0.243,0.073,0.374
		c-0.091,0.679,0,1.392,0.39,2.025l5.639,9.298H60.021c-0.119,0-0.213,0.076-0.338,0.088l-5.249-8.662h10.525
		c1.714,0,3.118-1.397,3.118-3.118s-1.403-3.118-3.118-3.118h-26.5c-1.714,0-3.118,1.397-3.118,3.118s1.403,3.118,3.118,3.118h8.686
		l8.181,13.488l-7.919,13.311c-4.171-1.851-8.78-2.898-13.63-2.898C15.153,69.63,0,84.78,0,103.406
		c0,18.627,15.153,33.776,33.776,33.776c17.296,0,31.582-13.092,33.533-29.879h18.956c0.566,0,1.117-0.164,1.577-0.445
		c0.012-0.006,0.03,0,0.045-0.012c0.417-0.256,0.728-0.603,0.977-0.986c0.019-0.037,0.064-0.049,0.089-0.085l25.486-42.898
		l8.226,13.548c-8.202,6.168-13.548,15.954-13.548,26.981c0,18.627,15.149,33.776,33.776,33.776s33.776-15.149,33.776-33.776
		C176.67,84.78,161.521,69.63,142.9,69.63z M58.992,65.246l21.735,35.816H67.44c-0.728-10.576-6.33-19.829-14.578-25.501
		L58.992,65.246z M61.086,101.068H37.71l11.941-20.098C56.081,85.528,60.383,92.78,61.086,101.068z M33.783,130.941
		c-15.189,0-27.542-12.354-27.542-27.541s12.352-27.541,27.542-27.541c3.69,0,7.194,0.755,10.418,2.076l-14.66,24.649
		c-0.572,0.961-0.584,2.155-0.024,3.129c0.548,0.975,1.583,1.577,2.713,1.577h28.701C59.016,120.633,47.645,130.941,33.783,130.941z
		 M86.247,98.127L63.424,60.533h45.157L86.247,98.127z M142.9,130.941c-15.187,0-27.541-12.354-27.541-27.541
		c0-8.769,4.195-16.502,10.607-21.556l14.535,23.949c0.59,0.968,1.613,1.504,2.667,1.504c0.554,0,1.12-0.146,1.619-0.457
		c1.468-0.889,1.942-2.807,1.048-4.281l-14.584-24.033c3.55-1.669,7.472-2.673,11.648-2.673c15.187,0,27.542,12.349,27.542,27.542
		S158.086,130.941,142.9,130.941z"/>
</g>
<g>
</g>
<g>
</g>
<g>
</g>
<g>
</g>
<g>
</g>
<g>
</g>
<g>
</g>
<g>
</g>
<g>
</g>
<g>
</g>
<g>
</g>
<g>
</g>
<g>
</g>
<g>
</g>
<g>
</g>
</svg>
