<?xml version="1.0" encoding="iso-8859-1"?>
<!-- Generator: Adobe Illustrator 16.0.0, SVG Export Plug-In . SVG Version: 6.00 Build 0)  -->
<!DOCTYPE svg PUBLIC "-//W3C//DTD SVG 1.1//EN" "http://www.w3.org/Graphics/SVG/1.1/DTD/svg11.dtd">
<svg version="1.1" id="Capa_1" xmlns="http://www.w3.org/2000/svg" xmlns:xlink="http://www.w3.org/1999/xlink" x="0px" y="0px"
	 width="102.304px" height="102.304px" viewBox="0 0 102.304 102.304" style="enable-background:new 0 0 102.304 102.304;"
	 xml:space="preserve">
<g>
	<path d="M93.608,51.694c-2.468-1.368-5.257-1.984-8.038-1.984V7.163c0-1.546-1.258-2.802-2.802-2.802H2.802
		C1.256,4.361,0,5.617,0,7.163V77.74c0,1.538,1.256,2.805,2.802,2.805h47.831c0.695,0,1.305-0.293,1.792-0.701
		c6.898,8.76,19.044,16.567,20.812,17.668c0.459,0.3,0.973,0.432,1.489,0.432c0.515,0,1.038-0.132,1.499-0.432
		c2.32-1.456,22.748-14.584,25.237-25.908c0.562-1.699,0.841-3.437,0.841-5.195C102.298,60.274,98.974,54.64,93.608,51.694z
		 M5.604,74.917V43.423h21.51l7.554,23.5c0.374,1.159,1.45,1.943,2.667,1.943c0.028,0,0.061,0,0.093,0
		c1.251-0.046,2.326-0.91,2.624-2.125l8.342-33.376l1.615,11.289c0.196,1.378,1.378,2.405,2.773,2.405H70.96
		c1.545,0,2.802-1.256,2.802-2.801c0-1.546-1.257-2.803-2.802-2.803H55.21l-3.294-23.034c-0.191-1.324-1.284-2.332-2.63-2.405
		c-1.434-0.063-2.538,0.818-2.862,2.123l-9.43,37.725l-5.18-16.102c-0.369-1.16-1.45-1.948-2.664-1.948H5.598V9.948h74.369v40.682
		c-1.904,0.644-3.708,1.579-5.248,2.873c-5.142-4.297-12.94-5.122-18.889-1.828c-5.361,2.96-8.688,8.599-8.688,14.717
		c0,1.783,0.283,3.55,0.766,4.925c0.264,1.187,0.752,2.391,1.352,3.61H5.604V74.917z M96.065,70.101
		c-1.62,7.316-14.802,17.353-21.347,21.691c-6.542-4.334-19.728-14.386-21.422-21.977c-0.363-1.076-0.552-2.227-0.552-3.414
		c0-4.081,2.218-7.825,5.797-9.806c1.643-0.908,3.499-1.39,5.381-1.39c3.356,0,6.501,1.488,8.637,4.071
		c0.54,0.629,1.322,1.007,2.159,1.007l0,0c0.84,0,1.633-0.372,2.156-1.018c3.344-4.033,9.461-5.204,14.009-2.671
		c3.584,1.98,5.812,5.725,5.812,9.812C96.695,67.563,96.514,68.712,96.065,70.101z"/>
</g>
<g>
</g>
<g>
</g>
<g>
</g>
<g>
</g>
<g>
</g>
<g>
</g>
<g>
</g>
<g>
</g>
<g>
</g>
<g>
</g>
<g>
</g>
<g>
</g>
<g>
</g>
<g>
</g>
<g>
</g>
</svg>
