<?xml version="1.0" encoding="iso-8859-1"?>
<!-- Generator: Adobe Illustrator 16.0.0, SVG Export Plug-In . SVG Version: 6.00 Build 0)  -->
<!DOCTYPE svg PUBLIC "-//W3C//DTD SVG 1.1//EN" "http://www.w3.org/Graphics/SVG/1.1/DTD/svg11.dtd">
<svg version="1.1" id="Capa_1" xmlns="http://www.w3.org/2000/svg" xmlns:xlink="http://www.w3.org/1999/xlink" x="0px" y="0px"
	 width="106.924px" height="106.925px" viewBox="0 0 106.924 106.925" style="enable-background:new 0 0 106.924 106.925;"
	 xml:space="preserve">
<g>
	<path d="M106.375,39.625c-0.573-0.804-1.489-1.288-2.477-1.288H89.731V28.241c0-1.67-1.365-3.026-3.026-3.026h-38.81v-7.294
		c0-1.67-1.356-3.026-3.026-3.026H19.071c-1.669,0-3.026,1.356-3.026,3.026v7.294H3.026C1.356,25.215,0,26.571,0,28.241v60.757
		c0,0.076,0.036,0.136,0.042,0.23c0.012,0.153,0.056,0.301,0.098,0.449c0.068,0.301,0.168,0.573,0.322,0.833
		c0.042,0.071,0.042,0.148,0.089,0.231c0.044,0.059,0.115,0.082,0.16,0.129c0.198,0.261,0.44,0.449,0.712,0.633
		c0.109,0.065,0.195,0.148,0.311,0.207C2.125,91.9,2.559,92.03,3.026,92.03h83.678c0.579,0,1.094-0.207,1.555-0.491
		c0.106-0.059,0.189-0.123,0.29-0.194c0.426-0.331,0.769-0.751,0.969-1.265c0.006-0.019,0.03-0.024,0.036-0.048l17.206-47.635
		C107.068,41.467,106.944,40.438,106.375,39.625z M19.071,31.268c1.673,0,3.026-1.356,3.026-3.026v-7.294h19.745v7.294
		c0,1.67,1.356,3.026,3.026,3.026h38.81v7.069H20.221c-1.271,0-2.415,0.798-2.843,1.998L6.053,71.709V31.268H19.071z M84.583,85.972
		H7.335l15.01-41.582H99.59L84.583,85.972z M40.474,85.724c10.834,0,19.65-8.813,19.65-19.647c0-10.835-8.816-19.647-19.65-19.647
		c-10.834,0-19.647,8.812-19.647,19.647C20.821,76.91,29.633,85.724,40.474,85.724z M40.474,52.481
		c7.492,0,13.595,6.094,13.595,13.595c0,7.5-6.103,13.595-13.595,13.595c-7.492,0-13.595-6.101-13.595-13.595
		C26.879,58.587,32.976,52.481,40.474,52.481z M32.152,69.18c-1.67,0-3.026-1.36-3.026-3.027c0-1.666,1.356-3.025,3.026-3.025h5.29
		v-4.93c0-1.673,1.356-3.026,3.026-3.026c1.669,0,3.026,1.354,3.026,3.026v4.93h5.296c1.67,0,3.026,1.359,3.026,3.025
		c0,1.667-1.356,3.027-3.026,3.027h-5.296v5.639c0,1.678-1.357,3.025-3.026,3.025c-1.67,0-3.026-1.348-3.026-3.025V69.18H32.152z"/>
</g>
<g>
</g>
<g>
</g>
<g>
</g>
<g>
</g>
<g>
</g>
<g>
</g>
<g>
</g>
<g>
</g>
<g>
</g>
<g>
</g>
<g>
</g>
<g>
</g>
<g>
</g>
<g>
</g>
<g>
</g>
</svg>
