<?xml version="1.0" encoding="iso-8859-1"?>
<!-- Generator: Adobe Illustrator 16.0.0, SVG Export Plug-In . SVG Version: 6.00 Build 0)  -->
<!DOCTYPE svg PUBLIC "-//W3C//DTD SVG 1.1//EN" "http://www.w3.org/Graphics/SVG/1.1/DTD/svg11.dtd">
<svg version="1.1" id="Capa_1" xmlns="http://www.w3.org/2000/svg" xmlns:xlink="http://www.w3.org/1999/xlink" x="0px" y="0px"
	 width="149.58px" height="149.58px" viewBox="0 0 149.58 149.58" style="enable-background:new 0 0 149.58 149.58;"
	 xml:space="preserve">
<g>
	<path d="M133.999,61c-8.011-3.319-15.506-2.689-21.352,1.584v-4.049c1.299,0.295,3.146,0.594,5.296,0.594c0,0,0,0,0.014,0
		c3.501,0,6.598-0.817,9.213-2.405c7.037-4.315,9.281-13.844,9.379-14.25c0.317-1.401-0.471-2.812-1.825-3.283
		c-0.134-0.044-3.264-1.075-7.204-1.075c-3.502,0-6.599,0.807-9.192,2.375c-2.452,1.507-4.278,3.625-5.68,5.789v-6.147
		c0-1.546-1.259-2.802-2.802-2.802c-1.544,0-2.802,1.256-2.802,2.802v22.435c-1.434-1.042-2.955-1.86-4.574-2.454
		c-6.478-22.194-26.947-37.625-50.178-37.625C23.456,22.488,0,45.955,0,74.789c0,28.838,23.462,52.303,52.292,52.303
		c11.688,0,23.02-3.973,32.196-11.153c5.855,6.578,12.75,11.153,19.218,11.153c1.696,0,3.326-0.329,4.815-0.942
		c0.448-0.174,0.876-0.394,1.324-0.645c0.439,0.251,0.864,0.459,1.285,0.635c1.517,0.623,3.147,0.952,4.851,0.952c0,0,0,0,0.01,0
		c12.209,0,26.054-16.373,31.334-31.641C152.895,79.364,148.029,66.812,133.999,61z M121.261,45.282
		c1.7-1.036,3.802-1.552,6.258-1.552c0.985,0,1.895,0.077,2.688,0.198c-0.988,2.502-2.873,6.149-5.948,8.033
		c-1.718,1.042-3.841,1.575-6.293,1.575h-0.009c-0.976,0-1.882-0.09-2.672-0.197C116.27,50.825,118.152,47.189,121.261,45.282z
		 M55.098,121.367v-8.515c0-1.542-1.247-2.802-2.801-2.802c-1.541,0-2.801,1.26-2.801,2.802v8.503
		c-23.584-1.411-42.455-20.366-43.762-43.983h8.281c1.543,0,2.802-1.258,2.802-2.802c0-1.553-1.259-2.801-2.802-2.801H5.762
		C7.281,48.36,26.075,29.643,49.506,28.242v8.036c0,1.541,1.255,2.802,2.802,2.802c1.543,0,2.802-1.261,2.802-2.802v-8.057
		c18.593,1.107,34.817,13.233,41.121,30.688c-3.349-0.09-6.884,0.583-10.528,2.091c-14.024,5.811-18.885,18.364-13.335,34.451
		c1.912,5.505,4.945,11.175,8.604,16.154C73.53,117.395,64.507,120.809,55.098,121.367z M142.044,93.624
		c-5.594,16.22-20.303,30.851-28.771,27.338c-0.495-0.196-1.031-0.522-1.699-1.056c-0.503-0.388-1.105-0.579-1.729-0.579
		c-0.611,0-1.227,0.191-1.735,0.579c-0.65,0.52-1.192,0.854-1.718,1.056c-8.279,3.427-23.161-11.125-28.752-27.348
		c-5.798-16.8,2.339-24.192,10.186-27.442c8.12-3.38,14.982-1.766,19.727,4.847c0.044,0.055,0.114,0.077,0.15,0.123
		c0.173,0.219,0.392,0.392,0.632,0.547c0.11,0.074,0.187,0.153,0.307,0.208c0.351,0.165,0.756,0.293,1.182,0.293
		c0.438,0,0.832-0.117,1.195-0.304c0.112-0.044,0.187-0.118,0.288-0.177c0.252-0.166,0.473-0.348,0.664-0.579
		c0.037-0.057,0.103-0.079,0.131-0.117c4.748-6.619,11.599-8.227,19.73-4.849C139.701,69.427,147.843,76.825,142.044,93.624z
		 M108.127,114.812c0,1.554-1.26,2.802-2.802,2.802c-6.564,0-18.494-11.612-23.462-26.03c-0.518-1.462,0.271-3.054,1.728-3.562
		c1.466-0.504,3.063,0.279,3.567,1.733c4.607,13.401,15.146,22.267,18.178,22.267C106.885,112.011,108.127,113.269,108.127,114.812z
		 M55.098,49.585V75.5c0,0.668-0.241,1.325-0.679,1.829L41.111,92.737c-0.557,0.646-1.333,0.975-2.122,0.975
		c-0.644,0-1.295-0.23-1.826-0.689c-1.171-1.008-1.293-2.779-0.287-3.951l12.619-14.609V49.591c0-1.551,1.26-2.802,2.801-2.802
		C53.851,46.784,55.098,48.035,55.098,49.585z"/>
</g>
<g>
</g>
<g>
</g>
<g>
</g>
<g>
</g>
<g>
</g>
<g>
</g>
<g>
</g>
<g>
</g>
<g>
</g>
<g>
</g>
<g>
</g>
<g>
</g>
<g>
</g>
<g>
</g>
<g>
</g>
</svg>
