<?xml version="1.0" encoding="iso-8859-1"?>
<!-- Generator: Adobe Illustrator 16.0.0, SVG Export Plug-In . SVG Version: 6.00 Build 0)  -->
<!DOCTYPE svg PUBLIC "-//W3C//DTD SVG 1.1//EN" "http://www.w3.org/Graphics/SVG/1.1/DTD/svg11.dtd">
<svg version="1.1" id="Capa_1" xmlns="http://www.w3.org/2000/svg" xmlns:xlink="http://www.w3.org/1999/xlink" x="0px" y="0px"
	 width="128.783px" height="128.783px" viewBox="0 0 128.783 128.783" style="enable-background:new 0 0 128.783 128.783;"
	 xml:space="preserve">
<g>
	<path d="M31.995,60.78c0.721,1.129,1.404,2.175,1.791,3.363c0.514,1.578,0.334,7.554-0.151,12.489
		c0,6.384,4.69,11.981,11.949,14.281c0.186,0.059,0.381,0.094,0.58,0.105c1.767,0.302,3.481-1.152,3.481-2.979
		c0-0.308-0.042-0.604-0.127-0.887c0.157-9.688,4.141-16.857,7.705-16.857c3.645,0,7.711,7.465,7.711,17.401
		c0,0.071-0.012,0.271-0.012,0.343c0,0.957,0.461,1.873,1.241,2.436c0.526,0.378,1.149,0.591,1.779,0.591
		c0.316,0,0.623-0.06,0.919-0.142c7.253-2.3,11.939-7.909,11.928-14.588c-0.473-4.635-0.645-10.592-0.124-12.183
		c0.372-1.164,1.082-2.234,1.797-3.351c0.934-1.436,1.886-2.92,2.199-4.451c0.567-1.768,0.856-3.645,0.856-5.557
		c0-6.525-3.404-12.551-8.89-15.723c-6.105-3.534-14.103-2.719-19.399,1.827c-5.296-4.54-13.261-5.355-19.405-1.827
		c-5.476,3.178-8.884,9.203-8.884,15.735c0,1.871,0.29,3.724,0.786,5.237C30.112,57.878,31.076,59.356,31.995,60.78z M40.855,40.309
		c1.673-0.97,3.481-1.451,5.382-1.451c3.328,0,6.463,1.555,8.612,4.265c0.576,0.721,1.448,1.138,2.373,1.138l0,0
		c0.919,0,1.797-0.417,2.374-1.138c3.372-4.235,9.436-5.453,14-2.813c3.623,2.095,5.869,6.115,5.869,10.477
		c0,1.289-0.188,2.536-0.638,4.008c-0.154,0.733-0.78,1.682-1.437,2.698c-0.869,1.333-1.839,2.84-2.465,4.755
		c-1.183,3.605-0.325,12.862-0.153,14.375c0,2.589-1.484,5.001-3.99,6.715c-1.138-11.147-6.579-19.092-13.547-19.092
		c-6.931,0-12.354,7.873-13.521,19.121c-2.524-1.696-4.025-4.066-4.031-6.437c0.184-1.82,1.041-11.089-0.133-14.683
		c-0.63-1.921-1.605-3.428-2.465-4.767c-0.683-1.052-1.271-1.954-1.499-2.982c-0.381-1.211-0.582-2.458-0.582-3.7
		C35.003,46.435,37.25,42.41,40.855,40.309z M125.757,5.432H28.026C26.353,5.432,25,6.789,25,8.458v13.5H3.026
		C1.356,21.958,0,23.312,0,24.985v70.167c0,1.661,1.356,3.026,3.026,3.026h22.922v22.147c0,1.136,0.647,2.188,1.67,2.695
		c0.431,0.213,0.889,0.331,1.356,0.331c0.641,0,1.282-0.207,1.817-0.614l32.737-24.571h47.794c1.661,0,3.026-1.354,3.026-3.026
		V72.241h11.407c1.667,0,3.026-1.354,3.026-3.026V8.446C128.783,6.783,127.424,5.432,125.757,5.432z M108.297,92.125H62.524
		c-0.653,0-1.289,0.213-1.815,0.609l-28.708,21.551V95.163c0-1.673-1.357-3.026-3.026-3.026H6.053v-64.12h102.244V92.125
		L108.297,92.125z M122.73,66.201h-8.381V24.985c0-1.672-1.365-3.026-3.026-3.026H31.046V11.484h91.679L122.73,66.201L122.73,66.201
		z"/>
</g>
<g>
</g>
<g>
</g>
<g>
</g>
<g>
</g>
<g>
</g>
<g>
</g>
<g>
</g>
<g>
</g>
<g>
</g>
<g>
</g>
<g>
</g>
<g>
</g>
<g>
</g>
<g>
</g>
<g>
</g>
</svg>
