<?xml version="1.0" encoding="iso-8859-1"?>
<!-- Generator: Adobe Illustrator 16.0.0, SVG Export Plug-In . SVG Version: 6.00 Build 0)  -->
<!DOCTYPE svg PUBLIC "-//W3C//DTD SVG 1.1//EN" "http://www.w3.org/Graphics/SVG/1.1/DTD/svg11.dtd">
<svg version="1.1" id="Capa_1" xmlns="http://www.w3.org/2000/svg" xmlns:xlink="http://www.w3.org/1999/xlink" x="0px" y="0px"
	 width="173.297px" height="173.298px" viewBox="0 0 173.297 173.298" style="enable-background:new 0 0 173.297 173.298;"
	 xml:space="preserve">
<g>
	<path d="M160.793,74.145C160.793,33.26,127.534,0,86.649,0S12.504,33.26,12.504,74.145c0,31.794,20.167,58.919,48.347,69.422
		v23.679c0,3.34,2.713,6.053,6.052,6.053c3.343,0,6.053-2.713,6.053-6.053v-20.279c4.445,0.833,9.008,1.317,13.692,1.317
		c5.019,0,9.918-0.508,14.652-1.466v20.428c0,3.34,2.714,6.053,6.053,6.053c3.34,0,6.053-2.713,6.053-6.053v-24.039
		C141.093,132.442,160.793,105.59,160.793,74.145z M108.306,90.051c-0.308-0.101-0.615-0.184-0.952-0.184
		c-0.331,0-0.644,0.083-0.951,0.184c-5.367-0.68-9.6-6.937-9.6-14.624c0-8.136,4.735-14.756,10.551-14.756
		c5.816,0,10.551,6.614,10.551,14.756C117.905,83.12,113.667,89.383,108.306,90.051z M110.38,107.174V95.86
		c7.714-1.785,13.577-10.237,13.577-20.421c0-11.476-7.447-20.809-16.604-20.809c-9.155,0-16.6,9.333-16.6,20.809
		c0,10.172,5.86,18.636,13.573,20.421v11.313c-1.772,1.052-3.026,2.896-3.026,5.119v6.762c-9.155,2.955-19.145,3.073-28.345,0.308
		v-7.069c0-2.211-1.253-4.067-3.026-5.119V94.927c8.251-1.442,14.553-8.618,14.553-17.271V60.364c0-1.673-1.357-3.026-3.026-3.026
		c-1.67,0-3.026,1.354-3.026,3.026v17.292c0,5.296-3.621,9.729-8.5,11.065V60.358c0-1.673-1.354-3.026-3.026-3.026
		c-1.669,0-3.026,1.354-3.026,3.026v28.363c-4.876-1.336-8.49-5.769-8.49-11.065V60.364c0-1.673-1.357-3.026-3.026-3.026
		c-1.67,0-3.026,1.354-3.026,3.026v17.292c0,8.653,6.301,15.817,14.543,17.271v12.247c-1.773,1.052-3.026,2.896-3.026,5.119v1.348
		c-13.21-8.618-21.438-23.288-21.438-39.484c0-26.046,21.184-47.235,47.236-47.235c26.055,0,47.239,21.189,47.239,47.235
		c0,15.723-7.855,30.098-20.481,38.816v-0.656C113.407,110.07,112.154,108.22,110.38,107.174z M86.649,142.236
		c-4.684,0-9.265-0.473-13.692-1.383v-15.256c4.445,1.177,9.014,1.833,13.692,1.833c5.019,0,9.918-0.739,14.652-2.093v15.256
		C96.579,141.646,91.685,142.236,86.649,142.236z M113.407,136.733V120.13c16.261-9.469,26.533-26.87,26.533-45.985
		c0-29.379-23.902-53.288-53.291-53.288c-29.379,0-53.289,23.909-53.289,53.288c0,19.589,10.654,37.202,27.491,46.53v16.455
		c-24.784-10.19-42.294-34.566-42.294-62.985c0-37.545,30.547-68.092,68.092-68.092s68.092,30.547,68.092,68.092
		C154.741,102.191,137.682,126.325,113.407,136.733z"/>
</g>
<g>
</g>
<g>
</g>
<g>
</g>
<g>
</g>
<g>
</g>
<g>
</g>
<g>
</g>
<g>
</g>
<g>
</g>
<g>
</g>
<g>
</g>
<g>
</g>
<g>
</g>
<g>
</g>
<g>
</g>
</svg>
