<?xml version="1.0" encoding="iso-8859-1"?>
<!-- Generator: Adobe Illustrator 16.0.0, SVG Export Plug-In . SVG Version: 6.00 Build 0)  -->
<!DOCTYPE svg PUBLIC "-//W3C//DTD SVG 1.1//EN" "http://www.w3.org/Graphics/SVG/1.1/DTD/svg11.dtd">
<svg version="1.1" id="Capa_1" xmlns="http://www.w3.org/2000/svg" xmlns:xlink="http://www.w3.org/1999/xlink" x="0px" y="0px"
	 width="103.492px" height="103.492px" viewBox="0 0 103.492 103.492" style="enable-background:new 0 0 103.492 103.492;"
	 xml:space="preserve">
<g>
	<path d="M78.828,98.649c-0.242-0.23-11.975-11.283-23.901-25.445c12.223-15.212,24.069-33.209,24.069-45.781
		C78.996,12.304,66.703,0,51.578,0C36.465,0,24.162,12.298,24.162,27.423c0,13.291,11.447,30.935,23.488,45.803
		c-11.598,13.92-22.793,24.908-23.024,25.132c-1.111,1.078-1.132,2.862-0.051,3.963c1.081,1.116,2.859,1.132,3.961,0.048
		c0.94-0.907,11.526-11.305,22.754-24.743c11.596,13.713,22.731,24.202,23.694,25.11c0.547,0.504,1.233,0.756,1.915,0.756
		c0.75,0,1.499-0.302,2.049-0.881C80.014,101.473,79.958,99.711,78.828,98.649z M51.286,68.783
		C40.106,54.9,29.776,38.952,29.776,27.423c0-12.025,9.784-21.82,21.819-21.82c12.024,0,21.813,9.791,21.813,21.82
		C73.393,38.298,62.678,54.566,51.286,68.783z"/>
</g>
<g>
</g>
<g>
</g>
<g>
</g>
<g>
</g>
<g>
</g>
<g>
</g>
<g>
</g>
<g>
</g>
<g>
</g>
<g>
</g>
<g>
</g>
<g>
</g>
<g>
</g>
<g>
</g>
<g>
</g>
</svg>
