<?xml version="1.0" encoding="iso-8859-1"?>
<!-- Generator: Adobe Illustrator 16.0.0, SVG Export Plug-In . SVG Version: 6.00 Build 0)  -->
<!DOCTYPE svg PUBLIC "-//W3C//DTD SVG 1.1//EN" "http://www.w3.org/Graphics/SVG/1.1/DTD/svg11.dtd">
<svg version="1.1" id="Capa_1" xmlns="http://www.w3.org/2000/svg" xmlns:xlink="http://www.w3.org/1999/xlink" x="0px" y="0px"
	 width="137.123px" height="137.122px" viewBox="0 0 137.123 137.122" style="enable-background:new 0 0 137.123 137.122;"
	 xml:space="preserve">
<g>
	<path d="M133.954,57.456c0-15.555-26.287-54.573-27.412-56.225C106.019,0.465,105.15,0,104.22,0c-0.929,0-1.802,0.459-2.32,1.231
		c-0.537,0.801-6.938,10.307-13.413,21.653c-8.457-1.79-17.188-2.731-26.005-2.731c-20.71,0-40.72,5.004-57.865,14.462
		c-0.958,0.534-1.52,1.571-1.44,2.663c3.182,42.88,24.821,80.064,57.888,99.466c0.436,0.252,0.931,0.378,1.417,0.378
		c0.488,0,0.98-0.126,1.419-0.378c19-11.146,34.46-28.442,44.821-50.013C122.977,84.537,133.954,72.296,133.954,57.456z
		 M31.273,73.478h28.423v38.972C47.544,102.414,37.823,88.991,31.273,73.478z M59.696,67.863H29.013
		c-2.45-6.765-4.338-13.855-5.547-21.201c11.154-4.547,23.667-7.048,36.23-7.395V67.863z M65.301,73.478H79.25
		c2.507,3.879,5.91,7.092,9.894,9.455c-6.266,11.629-14.403,21.653-23.843,29.474V73.478L65.301,73.478z M65.301,67.863V39.294
		c4.751,0.112,9.462,0.539,14.108,1.279c-2.905,6.543-4.914,12.602-4.914,16.877c0,3.675,0.755,7.16,1.98,10.414H65.301z
		 M62.498,131.048C32.279,112.636,12.384,78.326,8.924,38.656c15.966-8.449,34.439-12.911,53.574-12.911
		c7.833,0,15.589,0.796,23.122,2.276c-1.295,2.407-2.561,4.84-3.754,7.268c-6.112-1.06-12.375-1.58-18.673-1.604
		c-0.229-0.061-0.454-0.14-0.7-0.14c-0.241,0-0.455,0.084-0.679,0.135c-14.787,0.122-29.601,3.02-42.585,8.681
		c-1.16,0.509-1.835,1.729-1.653,2.974c4.597,31.273,20.37,58.709,43.271,75.245c0.049,0.035,0.117,0.022,0.171,0.055
		c0.434,0.274,0.919,0.471,1.471,0.471c0.549,0,1.037-0.196,1.474-0.471c0.049-0.032,0.118-0.02,0.166-0.055
		c12.124-8.755,22.489-20.914,30.143-35.229c2.539,0.908,5.238,1.456,8.039,1.642C92.734,105.758,79.082,120.942,62.498,131.048z
		 M104.225,81.576c-3.558,0-6.91-0.821-9.954-2.211c-0.005-0.011-0.011-0.021-0.015-0.021c-0.008,0-0.013,0-0.013,0
		c-8.321-3.809-14.148-12.166-14.148-21.899c0-10.427,15.725-36.698,24.135-49.59c8.405,12.893,24.131,39.155,24.131,49.59
		C128.351,70.758,117.528,81.576,104.225,81.576z M107.027,75.004c0,1.538-1.252,2.802-2.802,2.802
		c-11.234,0-20.372-9.133-20.372-20.361c0-1.546,1.253-2.802,2.802-2.802c1.537,0,2.802,1.256,2.802,2.802
		c0,8.134,6.626,14.757,14.769,14.757C105.781,72.202,107.027,73.467,107.027,75.004z"/>
</g>
<g>
</g>
<g>
</g>
<g>
</g>
<g>
</g>
<g>
</g>
<g>
</g>
<g>
</g>
<g>
</g>
<g>
</g>
<g>
</g>
<g>
</g>
<g>
</g>
<g>
</g>
<g>
</g>
<g>
</g>
</svg>
