<?xml version="1.0" encoding="iso-8859-1"?>
<!-- Generator: Adobe Illustrator 16.0.0, SVG Export Plug-In . SVG Version: 6.00 Build 0)  -->
<!DOCTYPE svg PUBLIC "-//W3C//DTD SVG 1.1//EN" "http://www.w3.org/Graphics/SVG/1.1/DTD/svg11.dtd">
<svg version="1.1" id="Capa_1" xmlns="http://www.w3.org/2000/svg" xmlns:xlink="http://www.w3.org/1999/xlink" x="0px" y="0px"
	 width="109.621px" height="109.62px" viewBox="0 0 109.621 109.62" style="enable-background:new 0 0 109.621 109.62;"
	 xml:space="preserve">
<g>
	<path d="M97.832,78.524c0.195-0.993-0.124-2.016-0.827-2.731L53.815,32.609l3.871-3.872c0.567-0.567,0.881-1.336,0.881-2.14
		c0-0.804-0.319-1.572-0.881-2.146l-8.878-8.866c-0.567-0.567-1.336-0.88-2.143-0.88c-0.804,0-1.572,0.319-2.143,0.88l-2.613,2.625
		c-2.072-2.093-6.097-6.142-13.929-14.009C22.765-1.023,15.164-1.442,10.4,3.321c-2.547,2.542-3.62,5.657-3.1,9.002
		c0.432,2.784,1.986,5.58,4.486,8.08c7.85,7.82,11.898,11.846,13.994,13.932l-3.124,3.127c-1.179,1.183-1.179,3.098,0,4.279
		l8.866,8.866c0.594,0.591,1.369,0.887,2.143,0.887c0.774,0,1.552-0.302,2.143-0.887l3.875-3.871L82.86,89.92
		c0.585,0.573,1.354,0.887,2.146,0.887c0.195,0,0.385-0.023,0.586-0.06c2.559-0.502,7.128-1.613,8.871-3.375
		C96.212,85.629,97.324,81.077,97.832,78.524z M33.67,44.194l-4.586-4.593l3.136-3.139c0.573-0.573,0.883-1.365,0.877-2.175
		s-0.352-1.596-0.934-2.157c-0.603-0.58-16.092-16.007-16.092-16.007c-1.563-1.561-2.547-3.239-2.778-4.723
		c-0.219-1.395,0.242-2.642,1.397-3.789c2.468-2.482,6.15-1.992,9.011,0.875c0,0,15.507,15.575,15.968,16.054
		c0.556,0.615,1.345,0.976,2.167,0.999c0.804,0,1.628-0.302,2.217-0.887l2.624-2.63l4.59,4.586L33.67,44.194z M90.266,83.034
		c-0.49,0.36-2.335,0.969-4.297,1.436L44.147,42.657l5.577-5.579l41.818,41.818C91.076,80.853,90.502,82.673,90.266,83.034z
		 M102.449,103.214c0,3.54-2.867,6.406-6.414,6.406c-3.54,0-6.419-2.866-6.419-6.406c0-3.541,6.419-13.039,6.419-13.039
		S102.449,99.673,102.449,103.214z"/>
</g>
<g>
</g>
<g>
</g>
<g>
</g>
<g>
</g>
<g>
</g>
<g>
</g>
<g>
</g>
<g>
</g>
<g>
</g>
<g>
</g>
<g>
</g>
<g>
</g>
<g>
</g>
<g>
</g>
<g>
</g>
</svg>
