<?xml version="1.0" encoding="iso-8859-1"?>
<!-- Generator: Adobe Illustrator 16.0.0, SVG Export Plug-In . SVG Version: 6.00 Build 0)  -->
<!DOCTYPE svg PUBLIC "-//W3C//DTD SVG 1.1//EN" "http://www.w3.org/Graphics/SVG/1.1/DTD/svg11.dtd">
<svg version="1.1" id="Capa_1" xmlns="http://www.w3.org/2000/svg" xmlns:xlink="http://www.w3.org/1999/xlink" x="0px" y="0px"
	 width="127.824px" height="127.824px" viewBox="0 0 127.824 127.824" style="enable-background:new 0 0 127.824 127.824;"
	 xml:space="preserve">
<g>
	<path d="M90.899,31.627l-10.108-6.193V3.118c0-1.72-1.395-3.118-3.117-3.118H50.136c-1.714,0-3.118,1.397-3.118,3.118v22.329
		l-10.083,6.18c-0.922,0.566-1.495,1.571-1.495,2.655v90.424c0,1.718,1.41,3.118,3.118,3.118h50.187
		c0.646,0,1.218-0.244,1.717-0.585c1.133-0.469,1.924-1.583,1.924-2.874V34.282C92.379,33.198,91.812,32.193,90.899,31.627z
		 M41.675,58.586h44.475v39.79H41.675V58.586z M53.253,6.235h21.303v16.368H53.253V6.235z M53.408,28.838h20.996l11.739,7.188
		v16.325H41.668V36.033L53.408,28.838z M41.675,104.612h44.475v16.977H41.675V104.612z M72.471,80.218l-9.877,14.547
		c-0.612,0.89-1.595,1.364-2.582,1.364c-0.612,0-1.215-0.177-1.75-0.536c-1.428-0.968-1.791-2.904-0.832-4.329l6.735-9.925
		l-6.366-0.274c-1.148-0.049-2.183-0.73-2.67-1.766c-0.497-1.042-0.387-2.259,0.295-3.19l9.864-13.513
		c1.021-1.397,2.987-1.684,4.357-0.679c1.391,1.014,1.689,2.969,0.666,4.357l-6.427,8.811l6.135,0.268
		c1.136,0.049,2.146,0.707,2.655,1.711C73.174,78.076,73.106,79.281,72.471,80.218z"/>
</g>
<g>
</g>
<g>
</g>
<g>
</g>
<g>
</g>
<g>
</g>
<g>
</g>
<g>
</g>
<g>
</g>
<g>
</g>
<g>
</g>
<g>
</g>
<g>
</g>
<g>
</g>
<g>
</g>
<g>
</g>
</svg>
