<?xml version="1.0" encoding="iso-8859-1"?>
<!-- Generator: Adobe Illustrator 16.0.0, SVG Export Plug-In . SVG Version: 6.00 Build 0)  -->
<!DOCTYPE svg PUBLIC "-//W3C//DTD SVG 1.1//EN" "http://www.w3.org/Graphics/SVG/1.1/DTD/svg11.dtd">
<svg version="1.1" id="Capa_1" xmlns="http://www.w3.org/2000/svg" xmlns:xlink="http://www.w3.org/1999/xlink" x="0px" y="0px"
	 width="79.781px" height="79.781px" viewBox="0 0 79.781 79.781" style="enable-background:new 0 0 79.781 79.781;"
	 xml:space="preserve">
<g>
	<path d="M68.377,0H11.403C9.856,0,8.602,1.255,8.602,2.802v16.021c0,1.546,1.254,2.803,2.801,2.803h1.352V76.98
		c0,1.542,1.252,2.801,2.802,2.801h48.669c1.546,0,2.802-1.259,2.802-2.801V21.63h1.35c1.545,0,2.802-1.256,2.802-2.801V2.802
		C71.179,1.255,69.922,0,68.377,0z M14.205,5.603h51.37v10.418h-51.37V5.603z M61.424,74.194H18.358v-6.659h21.169
		c1.544,0,2.805-1.253,2.805-2.802c0-1.544-1.261-2.802-2.805-2.802H18.358V56.58h21.169c1.544,0,2.805-1.254,2.805-2.801
		c0-1.544-1.261-2.802-2.805-2.802H18.358v-5.351h21.169c1.544,0,2.805-1.255,2.805-2.804c0-1.543-1.261-2.801-2.805-2.801H18.358
		v-5.349h28.831c1.549,0,2.801-1.256,2.801-2.802c0-1.547-1.252-2.803-2.801-2.803H18.358v-7.428h43.065V74.194z"/>
</g>
<g>
</g>
<g>
</g>
<g>
</g>
<g>
</g>
<g>
</g>
<g>
</g>
<g>
</g>
<g>
</g>
<g>
</g>
<g>
</g>
<g>
</g>
<g>
</g>
<g>
</g>
<g>
</g>
<g>
</g>
</svg>
