<?xml version="1.0" encoding="iso-8859-1"?>
<!-- Generator: Adobe Illustrator 16.0.0, SVG Export Plug-In . SVG Version: 6.00 Build 0)  -->
<!DOCTYPE svg PUBLIC "-//W3C//DTD SVG 1.1//EN" "http://www.w3.org/Graphics/SVG/1.1/DTD/svg11.dtd">
<svg version="1.1" id="Capa_1" xmlns="http://www.w3.org/2000/svg" xmlns:xlink="http://www.w3.org/1999/xlink" x="0px" y="0px"
	 width="93.123px" height="93.123px" viewBox="0 0 93.123 93.123" style="enable-background:new 0 0 93.123 93.123;"
	 xml:space="preserve">
<g>
	<path d="M93.123,27.84v37.456c0,3.021-2.452,5.472-5.481,5.472c-3.021,0-5.48-2.451-5.48-5.472V52.043h-5.487v29.198
		c0,3.033-2.446,5.477-5.473,5.477c-3.029,0-5.48-2.443-5.48-5.477V52.043H27.39v29.198c0,3.033-2.447,5.477-5.48,5.477
		c-3.026,0-5.475-2.443-5.475-5.477V52.043h-5.479v13.253c0,3.021-2.449,5.472-5.475,5.472C2.449,70.768,0,68.316,0,65.296V27.84
		c0-3.026,2.449-5.475,5.481-5.475c3.026,0,5.475,2.448,5.475,5.475v13.25h5.479V11.882c0-3.027,2.449-5.476,5.475-5.476
		c3.033,0,5.48,2.449,5.48,5.476V41.09h38.331V11.882c0-3.027,2.451-5.476,5.48-5.476c3.026,0,5.473,2.449,5.473,5.476V41.09h5.487
		V27.84c0-3.026,2.46-5.475,5.48-5.475C90.671,22.365,93.123,24.813,93.123,27.84z"/>
</g>
<g>
</g>
<g>
</g>
<g>
</g>
<g>
</g>
<g>
</g>
<g>
</g>
<g>
</g>
<g>
</g>
<g>
</g>
<g>
</g>
<g>
</g>
<g>
</g>
<g>
</g>
<g>
</g>
<g>
</g>
</svg>
