<?xml version="1.0" encoding="iso-8859-1"?>
<!-- Generator: Adobe Illustrator 16.0.0, SVG Export Plug-In . SVG Version: 6.00 Build 0)  -->
<!DOCTYPE svg PUBLIC "-//W3C//DTD SVG 1.1//EN" "http://www.w3.org/Graphics/SVG/1.1/DTD/svg11.dtd">
<svg version="1.1" id="Capa_1" xmlns="http://www.w3.org/2000/svg" xmlns:xlink="http://www.w3.org/1999/xlink" x="0px" y="0px"
	 width="88.71px" height="88.711px" viewBox="0 0 88.71 88.711" style="enable-background:new 0 0 88.71 88.711;"
	 xml:space="preserve">
<g>
	<path d="M72.547,44.361c8.67-8.085,13.571-16.378,10.229-22.184c-1.215-2.101-4.071-4.618-10.688-4.618
		c-3.874,0-8.534,0.871-13.624,2.412C55.79,8.405,51.059,0,44.357,0c-6.7,0-11.442,8.405-14.11,19.971
		c-5.086-1.541-9.758-2.417-13.633-2.417c-6.626,0-9.464,2.517-10.683,4.623c-3.353,5.812,1.562,14.11,10.248,22.2
		c-1.542,1.445-3.009,2.9-4.281,4.334C3.754,57.898,4.16,63.482,5.93,66.545c1.214,2.102,4.057,4.618,10.683,4.618
		c3.875,0,8.547-0.876,13.633-2.413c2.668,11.557,7.403,19.961,14.11,19.961c6.708,0,11.441-8.404,14.111-19.961
		c5.078,1.531,9.751,2.413,13.631,2.413c6.621,0,9.469-2.517,10.682-4.63C86.129,60.745,81.227,52.443,72.547,44.361z
		 M72.088,23.163c3.044,0,5.165,0.662,5.846,1.816c1.401,2.449-1.928,8.55-9.642,15.671c-2.38-1.947-4.948-3.854-7.642-5.698
		c-0.239-3.243-0.612-6.416-1.104-9.453C64.315,24.021,68.643,23.163,72.088,23.163z M49.877,53.938
		c-1.847,1.056-3.688,2.046-5.527,2.989c-1.837-0.943-3.682-1.934-5.523-2.989c-1.912-1.101-3.63-2.217-5.356-3.344
		c-0.103-2.009-0.175-4.07-0.175-6.227c0-2.167,0.073-4.235,0.175-6.255c1.742-1.125,3.496-2.252,5.346-3.322
		c1.84-1.064,3.684-2.047,5.523-2.981c1.844,0.934,3.687,1.923,5.532,2.986c1.915,1.105,3.628,2.219,5.352,3.341
		c0.108,2.011,0.174,4.073,0.174,6.23c0,2.156-0.081,4.213-0.174,6.227C53.516,51.711,51.798,52.837,49.877,53.938z M54.666,57.587
		c-0.143,1.286-0.318,2.539-0.502,3.732c-1.151-0.443-2.311-0.932-3.492-1.434c0.667-0.367,1.335-0.723,2.003-1.101
		C53.347,58.392,54.014,57.992,54.666,57.587z M38.042,59.886c-1.176,0.515-2.336,1.001-3.49,1.444
		c-0.186-1.204-0.354-2.451-0.499-3.731c0.661,0.394,1.312,0.804,1.984,1.187C36.695,59.174,37.37,59.519,38.042,59.886z
		 M27.744,46.599c-1.011-0.743-2.031-1.493-2.956-2.231c0.955-0.762,1.94-1.512,2.956-2.266c-0.012,0.754-0.037,1.51-0.037,2.26
		C27.698,45.105,27.728,45.866,27.744,46.599z M34.048,31.17c0.144-1.299,0.317-2.56,0.503-3.77
		c1.149,0.446,2.309,0.925,3.486,1.434c-0.674,0.369-1.342,0.711-2.005,1.097C35.348,30.336,34.713,30.769,34.048,31.17z
		 M50.671,28.834c1.182-0.509,2.341-0.994,3.502-1.439c0.187,1.204,0.35,2.449,0.492,3.732c-0.651-0.399-1.303-0.802-1.981-1.19
		C52.017,29.545,51.349,29.204,50.671,28.834z M60.981,42.123c1.014,0.755,2.035,1.501,2.956,2.238
		c-0.933,0.738-1.95,1.494-2.956,2.237c0.016-0.743,0.037-1.488,0.037-2.231S60.997,42.867,60.981,42.123z M44.357,5.603
		c2.817,0,6.45,5.935,8.766,16.189c-2.852,1.069-5.779,2.331-8.772,3.765c-2.986-1.434-5.911-2.689-8.757-3.758
		C37.913,11.548,41.539,5.603,44.357,5.603z M10.786,24.985c0.668-1.155,2.797-1.822,5.834-1.822c3.458,0,7.789,0.854,12.552,2.342
		c-0.491,3.037-0.862,6.216-1.11,9.461c-2.722,1.866-5.237,3.775-7.599,5.718C12.721,33.551,9.374,27.434,10.786,24.985z
		 M16.62,65.56c-3.037,0-5.166-0.657-5.834-1.816c-0.856-1.483,0.019-5.341,5.309-11.312c1.282-1.444,2.732-2.91,4.319-4.361
		c2.386,1.949,4.952,3.859,7.648,5.691c0.241,3.25,0.612,6.425,1.11,9.461C24.408,64.706,20.078,65.56,16.62,65.56z M44.357,83.125
		c-2.824,0-6.448-5.948-8.764-16.202c2.846-1.068,5.776-2.332,8.764-3.766c2.986,1.445,5.92,2.692,8.766,3.766
		C50.807,77.177,47.179,83.125,44.357,83.125z M77.934,63.743c-0.667,1.149-2.802,1.816-5.835,1.816
		c-3.456,0-7.792-0.854-12.553-2.343c0.492-3.041,0.859-6.215,1.104-9.46c2.693-1.839,5.262-3.743,7.642-5.702
		C76.006,55.201,79.335,61.297,77.934,63.743z"/>
</g>
<g>
</g>
<g>
</g>
<g>
</g>
<g>
</g>
<g>
</g>
<g>
</g>
<g>
</g>
<g>
</g>
<g>
</g>
<g>
</g>
<g>
</g>
<g>
</g>
<g>
</g>
<g>
</g>
<g>
</g>
</svg>
