<?xml version="1.0" encoding="iso-8859-1"?>
<!-- Generator: Adobe Illustrator 16.0.0, SVG Export Plug-In . SVG Version: 6.00 Build 0)  -->
<!DOCTYPE svg PUBLIC "-//W3C//DTD SVG 1.1//EN" "http://www.w3.org/Graphics/SVG/1.1/DTD/svg11.dtd">
<svg version="1.1" id="Capa_1" xmlns="http://www.w3.org/2000/svg" xmlns:xlink="http://www.w3.org/1999/xlink" x="0px" y="0px"
	 width="112.268px" height="112.269px" viewBox="0 0 112.268 112.269" style="enable-background:new 0 0 112.268 112.269;"
	 xml:space="preserve">
<g>
	<path d="M109.466,27.074h-8.854v-8.854c0-1.541-1.259-2.802-2.802-2.802H83.23c-1.545,0-2.802,1.261-2.802,2.802v8.854h-8.856
		c-1.542,0-2.801,1.261-2.801,2.801V44.45c0,1.546,1.259,2.802,2.801,2.802h8.856v8.856c0,1.543,1.257,2.801,2.802,2.801h14.581
		c1.543,0,2.802-1.258,2.802-2.801v-8.856h8.854c1.545,0,2.802-1.256,2.802-2.802V29.875
		C112.268,28.335,111.011,27.074,109.466,27.074z M106.665,41.648h-8.854c-1.544,0-2.802,1.256-2.802,2.802v8.854H86.03V44.45
		c0-1.546-1.259-2.802-2.8-2.802h-8.856v-8.971h8.856c1.541,0,2.8-1.256,2.8-2.802v-8.854h8.979v8.854
		c0,1.546,1.258,2.802,2.802,2.802h8.854V41.648z M41.798,51.22c-27.328,0-40.792,20.429-41.352,21.293
		c-0.595,0.93-0.595,2.111,0,3.031C1.006,76.421,14.47,96.85,41.798,96.85c26.776,0,52.686-19.751,53.769-20.604
		c0.689-0.524,1.092-1.341,1.092-2.215c0-0.871-0.402-1.685-1.084-2.217C94.484,70.97,68.574,51.22,41.798,51.22z M41.037,88.502
		c-7.986,0-14.479-6.489-14.479-14.479c0-7.978,6.493-14.479,14.479-14.479c7.984,0,14.483,6.502,14.483,14.479
		C55.521,82.013,49.021,88.502,41.037,88.502z M6.268,74.035c2.599-3.284,9.79-11.108,21.504-14.973
		c-4.15,3.679-6.817,8.986-6.817,14.961c0,6.009,2.706,11.339,6.896,15.037C16.016,85.232,8.872,77.384,6.268,74.035z
		 M53.196,89.903c4.786-3.666,7.928-9.391,7.928-15.88c0-6.479-3.149-12.202-7.939-15.88c15.581,3.207,29.761,11.775,35.835,15.88
		C82.949,78.139,68.771,86.697,53.196,89.903z M50.779,74.023c0,5.387-4.358,9.74-9.742,9.74c-5.375,0-9.74-4.354-9.74-9.74
		c0-5.385,4.366-9.729,9.74-9.729C46.421,64.295,50.779,68.639,50.779,74.023z"/>
</g>
<g>
</g>
<g>
</g>
<g>
</g>
<g>
</g>
<g>
</g>
<g>
</g>
<g>
</g>
<g>
</g>
<g>
</g>
<g>
</g>
<g>
</g>
<g>
</g>
<g>
</g>
<g>
</g>
<g>
</g>
</svg>
