<?xml version="1.0" encoding="iso-8859-1"?>
<!-- Generator: Adobe Illustrator 16.0.0, SVG Export Plug-In . SVG Version: 6.00 Build 0)  -->
<!DOCTYPE svg PUBLIC "-//W3C//DTD SVG 1.1//EN" "http://www.w3.org/Graphics/SVG/1.1/DTD/svg11.dtd">
<svg version="1.1" id="Capa_1" xmlns="http://www.w3.org/2000/svg" xmlns:xlink="http://www.w3.org/1999/xlink" x="0px" y="0px"
	 width="102.942px" height="102.943px" viewBox="0 0 102.942 102.943" style="enable-background:new 0 0 102.942 102.943;"
	 xml:space="preserve">
<g>
	<path d="M102.803,52.919c0.258-0.963,0.142-2.009-0.479-2.887L84.581,25.23c-0.683-0.945-1.799-1.507-2.971-1.444
		c-1.172,0.049-2.223,0.689-2.83,1.696l-5.625,9.516c-0.968,1.647-0.427,3.771,1.223,4.742c1.657,0.974,3.763,0.425,4.748-1.218
		l2.915-4.941l11.97,16.736H59.138c-1.106,0-2.145,0.522-2.798,1.411c-0.65,0.89-0.839,2.033-0.506,3.089l0.265,0.832h-9.222
		l0.262-0.832c0.336-1.056,0.145-2.199-0.502-3.089c-0.658-0.889-1.694-1.411-2.797-1.411H9.82l11.97-16.736l2.92,4.941
		c0.979,1.643,3.096,2.192,4.744,1.218c1.641-0.971,2.192-3.095,1.223-4.742l-5.626-9.516c-0.598-1.007-1.66-1.647-2.832-1.696
		c-1.14-0.052-2.284,0.492-2.967,1.444L1.512,50.032c-0.327,0.449-0.488,0.952-0.567,1.466c-0.084,0.09-0.203,0.134-0.273,0.236
		c-0.656,0.888-0.841,2.031-0.512,3.087l6.922,21.916c0.453,1.444,1.786,2.424,3.299,2.424h26.532c1.513,0,2.848-0.979,3.301-2.424
		l4.471-14.156h13.595l4.474,14.156c0.456,1.444,1.783,2.424,3.305,2.424h26.525c1.519,0,2.849-0.979,3.297-2.424l6.923-21.916
		C103.01,54.187,102.967,53.542,102.803,52.919z M34.387,72.237H12.92L8.184,57.241H39.12L34.387,72.237z M90.058,72.237h-21.46
		l-4.744-14.996h30.938L90.058,72.237z"/>
</g>
<g>
</g>
<g>
</g>
<g>
</g>
<g>
</g>
<g>
</g>
<g>
</g>
<g>
</g>
<g>
</g>
<g>
</g>
<g>
</g>
<g>
</g>
<g>
</g>
<g>
</g>
<g>
</g>
<g>
</g>
</svg>
