<?xml version="1.0" encoding="iso-8859-1"?>
<!-- Generator: Adobe Illustrator 16.0.0, SVG Export Plug-In . SVG Version: 6.00 Build 0)  -->
<!DOCTYPE svg PUBLIC "-//W3C//DTD SVG 1.1//EN" "http://www.w3.org/Graphics/SVG/1.1/DTD/svg11.dtd">
<svg version="1.1" id="Capa_1" xmlns="http://www.w3.org/2000/svg" xmlns:xlink="http://www.w3.org/1999/xlink" x="0px" y="0px"
	 width="80.926px" height="80.926px" viewBox="0 0 80.926 80.926" style="enable-background:new 0 0 80.926 80.926;"
	 xml:space="preserve">
<g>
	<path d="M67.188,26.718C67.188,11.986,55.193,0,40.461,0C25.725,0,13.739,11.986,13.739,26.718c0,13.774,10.51,25.021,23.92,26.442
		v8.427H26.71c-1.546,0-2.802,1.265-2.802,2.802c0,1.549,1.256,2.802,2.802,2.802h10.949v10.934c0,1.548,1.256,2.802,2.802,2.802
		c1.545,0,2.803-1.254,2.803-2.802V67.19h10.934c1.54,0,2.802-1.253,2.802-2.802c0-1.537-1.262-2.802-2.802-2.802H43.264V53.16
		C56.671,51.738,67.188,40.492,67.188,26.718z M19.342,26.718c0-11.64,9.469-21.115,21.119-21.115
		c11.648,0,21.123,9.463,21.123,21.115c0,11.649-9.466,21.123-21.123,21.123C28.805,47.841,19.342,38.361,19.342,26.718z"/>
</g>
<g>
</g>
<g>
</g>
<g>
</g>
<g>
</g>
<g>
</g>
<g>
</g>
<g>
</g>
<g>
</g>
<g>
</g>
<g>
</g>
<g>
</g>
<g>
</g>
<g>
</g>
<g>
</g>
<g>
</g>
</svg>
