<?xml version="1.0" encoding="iso-8859-1"?>
<!-- Generator: Adobe Illustrator 16.0.0, SVG Export Plug-In . SVG Version: 6.00 Build 0)  -->
<!DOCTYPE svg PUBLIC "-//W3C//DTD SVG 1.1//EN" "http://www.w3.org/Graphics/SVG/1.1/DTD/svg11.dtd">
<svg version="1.1" id="Capa_1" xmlns="http://www.w3.org/2000/svg" xmlns:xlink="http://www.w3.org/1999/xlink" x="0px" y="0px"
	 width="103.918px" height="103.918px" viewBox="0 0 103.918 103.918" style="enable-background:new 0 0 103.918 103.918;"
	 xml:space="preserve">
<g>
	<path d="M32.343,70.331h8.96v8.957c0,1.717,1.397,3.117,3.118,3.117H59.51c1.723,0,3.117-1.4,3.117-3.117v-8.957h8.957
		c1.718,0,3.118-1.395,3.118-3.118V52.124c0-1.723-1.4-3.117-3.118-3.117h-8.963v-8.955c0-1.72-1.4-3.118-3.118-3.118H44.414
		c-1.72,0-3.117,1.397-3.117,3.118v8.955h-8.96c-1.714,0-3.118,1.395-3.118,3.117v15.089C29.225,68.942,30.623,70.331,32.343,70.331
		z M35.46,55.241h8.96c1.72,0,3.118-1.395,3.118-3.117v-8.954h8.854v8.954c0,1.723,1.395,3.117,3.118,3.117h8.957v8.854h-8.964
		c-1.717,0-3.117,1.395-3.117,3.118v8.957h-8.854v-8.957c0-1.724-1.397-3.118-3.118-3.118h-8.96v-8.854H35.46z M100.8,22.731H69.368
		V12.599c0-1.721-1.401-3.118-3.118-3.118H37.667c-1.72,0-3.118,1.397-3.118,3.118v10.132H3.118C1.397,22.731,0,24.128,0,25.849
		v65.47c0,1.718,1.397,3.118,3.118,3.118H100.8c1.717,0,3.118-1.4,3.118-3.118v-65.47C103.918,24.135,102.517,22.731,100.8,22.731z
		 M40.785,15.723h22.348v7.015H40.785V15.723z M97.683,88.202H6.235V28.966h91.447V88.202z"/>
</g>
<g>
</g>
<g>
</g>
<g>
</g>
<g>
</g>
<g>
</g>
<g>
</g>
<g>
</g>
<g>
</g>
<g>
</g>
<g>
</g>
<g>
</g>
<g>
</g>
<g>
</g>
<g>
</g>
<g>
</g>
</svg>
