<?xml version="1.0" encoding="iso-8859-1"?>
<!-- Generator: Adobe Illustrator 16.0.0, SVG Export Plug-In . SVG Version: 6.00 Build 0)  -->
<!DOCTYPE svg PUBLIC "-//W3C//DTD SVG 1.1//EN" "http://www.w3.org/Graphics/SVG/1.1/DTD/svg11.dtd">
<svg version="1.1" id="Capa_1" xmlns="http://www.w3.org/2000/svg" xmlns:xlink="http://www.w3.org/1999/xlink" x="0px" y="0px"
	 width="106.818px" height="106.818px" viewBox="0 0 106.818 106.818" style="enable-background:new 0 0 106.818 106.818;"
	 xml:space="preserve">
<g>
	<path d="M64.144,75.421c-1.74,0-3.151-1.412-3.151-3.142c0-1.745,1.411-3.146,3.151-3.146s3.152,1.412,3.152,3.146
		C67.296,74.009,65.884,75.421,64.144,75.421z M53.638,65.965c0-1.745-1.41-3.152-3.149-3.152c-1.736,0-3.149,1.418-3.149,3.152
		s1.413,3.146,3.149,3.146C52.228,69.117,53.638,67.705,53.638,65.965z M68.696,77.172c-1.938,0-3.502,1.56-3.502,3.502
		c0,1.926,1.564,3.502,3.502,3.502c1.947,0,3.502-1.576,3.502-3.502C72.198,78.742,70.634,77.172,68.696,77.172z M53.638,82.425
		c-2.901,0-5.256,2.358-5.256,5.264c0,2.9,2.354,5.259,5.256,5.259c2.9,0,5.253-2.358,5.253-5.259
		C58.891,84.783,56.538,82.425,53.638,82.425z M42.923,70.048c0-1.883-1.529-3.409-3.411-3.409s-3.406,1.526-3.406,3.409
		c0,1.887,1.524,3.414,3.406,3.414S42.923,71.935,42.923,70.048z M41.96,82.393c-1.882,0-3.411,1.526-3.411,3.414
		c0,1.882,1.529,3.409,3.411,3.409s3.412-1.527,3.412-3.409C45.372,83.919,43.842,82.393,41.96,82.393z M86.088,74.129
		c0,18.024-14.655,32.689-32.679,32.689c-18.027,0-32.679-14.665-32.679-32.689c0-13.368,8.174-25.244,20.542-30.19V16.11h-2.343
		c-1.551,0-2.802-1.248-2.802-2.802V2.802c0-1.535,1.25-2.802,2.802-2.802h28.487c1.543,0,2.802,1.267,2.802,2.802v10.506
		c0,1.554-1.259,2.802-2.802,2.802h-1.861v27.829C77.922,48.895,86.088,60.771,86.088,74.129z M80.485,74.129
		c0-11.611-7.476-21.888-18.619-25.575c-1.137-0.369-1.914-1.445-1.914-2.659V13.313c0-1.541,1.25-2.802,2.801-2.802h1.861V5.609
		H41.731v4.903h2.342c1.541,0,2.802,1.261,2.802,2.802v32.581c0,1.203-0.78,2.272-1.926,2.659
		C33.808,52.23,26.333,62.518,26.333,74.129c0,14.933,12.147,27.086,27.076,27.086C68.337,101.215,80.485,89.062,80.485,74.129z"/>
</g>
<g>
</g>
<g>
</g>
<g>
</g>
<g>
</g>
<g>
</g>
<g>
</g>
<g>
</g>
<g>
</g>
<g>
</g>
<g>
</g>
<g>
</g>
<g>
</g>
<g>
</g>
<g>
</g>
<g>
</g>
</svg>
