<?xml version="1.0" encoding="iso-8859-1"?>
<!-- Generator: Adobe Illustrator 16.0.0, SVG Export Plug-In . SVG Version: 6.00 Build 0)  -->
<!DOCTYPE svg PUBLIC "-//W3C//DTD SVG 1.1//EN" "http://www.w3.org/Graphics/SVG/1.1/DTD/svg11.dtd">
<svg version="1.1" id="Capa_1" xmlns="http://www.w3.org/2000/svg" xmlns:xlink="http://www.w3.org/1999/xlink" x="0px" y="0px"
	 width="104.132px" height="104.132px" viewBox="0 0 104.132 104.132" style="enable-background:new 0 0 104.132 104.132;"
	 xml:space="preserve">
<g>
	<path d="M98.753,0.486c-0.788-0.536-1.778-0.632-2.652-0.274c-2.891,1.199-28.369,11.935-34.01,20.25
		c-5.656,8.309-4.422,19.188,2.386,25.573l-4.132,5.699c-1.998-0.29-4.086,0.455-5.354,2.208l-2.229,3.103l-2.231-3.103
		c-1.198-1.669-3.148-2.386-5.048-2.218l-6.613-9.201c2.332-2.369,3.9-5.374,4.449-8.728c0.7-4.293-0.315-8.596-2.85-12.126
		L31.123,8.667C30.22,7.409,28.466,7.121,27.21,8.03c-1.256,0.899-1.541,2.657-0.637,3.911l9.346,13.001
		c1.664,2.314,2.332,5.139,1.865,7.945c-0.304,1.86-1.116,3.54-2.276,4.968L20.184,16.536c-0.903-1.256-2.657-1.554-3.913-0.64
		c-1.252,0.903-1.541,2.651-0.637,3.913l15.319,21.314c-4.391,1.63-9.502,0.257-12.373-3.728L9.239,24.396
		c-0.901-1.261-2.661-1.546-3.909-0.643c-1.262,0.899-1.549,2.654-0.646,3.91l9.341,13.004c3.177,4.416,8.169,6.769,13.237,6.769
		c2.397,0,4.807-0.542,7.048-1.63l6.605,9.191c-0.761,1.747-0.701,3.827,0.495,5.485l4.433,6.167L25.285,95.256
		c-1.807,2.512-1.235,6.014,1.282,7.821c0.992,0.71,2.129,1.055,3.267,1.055c1.741,0,3.461-0.821,4.557-2.338L52.745,76.24
		l18.358,25.554c1.089,1.517,2.814,2.338,4.553,2.338c1.133,0,2.278-0.351,3.268-1.055c2.517-1.797,3.091-5.299,1.285-7.821
		L59.647,66.648l4.436-6.167c1.133-1.575,1.231-3.508,0.597-5.198l4.383-6.02c2.457,1.171,5.149,1.788,7.924,1.788
		c6.556,0,12.743-3.35,16.558-8.967c5.649-8.314,6.369-36.09,6.43-39.228C100,1.914,99.542,1.025,98.753,0.486z M88.911,38.944
		c-3.75,5.512-10.962,7.748-16.691,5.556l1.341-1.978l8.712-0.637c1.537-0.113,2.697-1.459,2.587-3
		c-0.113-1.541-1.384-2.723-2.998-2.589l-4.278,0.315l1.379-2.041l8.707-0.632c1.536-0.112,2.695-1.453,2.587-2.999
		c-0.115-1.541-1.488-2.706-2.998-2.588l-4.285,0.309l2.913-4.282c0.863-1.277,0.533-3.019-0.752-3.887
		c-1.284-0.871-3.021-0.54-3.885,0.744l-2.966,4.369l-1.128-4.167c-0.402-1.497-1.953-2.389-3.437-1.973
		c-1.494,0.402-2.372,1.937-1.97,3.434l2.381,8.815l-1.257,1.849l-1.14-4.18c-0.405-1.496-1.946-2.383-3.432-1.973
		c-1.499,0.402-2.375,1.945-1.975,3.434l2.396,8.815l-1.136,1.668c-4.235-4.604-4.763-11.998-0.872-17.724
		c3.403-5.009,18.518-12.484,27.497-16.484C93.762,17.006,92.32,33.923,88.911,38.944z"/>
</g>
<g>
</g>
<g>
</g>
<g>
</g>
<g>
</g>
<g>
</g>
<g>
</g>
<g>
</g>
<g>
</g>
<g>
</g>
<g>
</g>
<g>
</g>
<g>
</g>
<g>
</g>
<g>
</g>
<g>
</g>
</svg>
