<?xml version="1.0" encoding="iso-8859-1"?>
<!-- Generator: Adobe Illustrator 16.0.0, SVG Export Plug-In . SVG Version: 6.00 Build 0)  -->
<!DOCTYPE svg PUBLIC "-//W3C//DTD SVG 1.1//EN" "http://www.w3.org/Graphics/SVG/1.1/DTD/svg11.dtd">
<svg version="1.1" id="Capa_1" xmlns="http://www.w3.org/2000/svg" xmlns:xlink="http://www.w3.org/1999/xlink" x="0px" y="0px"
	 width="133.293px" height="133.292px" viewBox="0 0 133.293 133.292" style="enable-background:new 0 0 133.293 133.292;"
	 xml:space="preserve">
<g>
	<path d="M86.586,99.421c-1.882,8.596-17.264,18.473-19.007,19.573c-0.459,0.29-0.973,0.426-1.491,0.426
		c-0.514,0-1.037-0.136-1.49-0.426c-1.747-1.101-17.111-10.978-19.078-19.875c-0.359-0.996-0.583-2.374-0.583-3.81
		c0-4.792,2.61-9.214,6.808-11.534c4.505-2.483,10.36-1.992,14.351,1.051c3.996-3.063,9.876-3.534,14.341-1.051
		c4.216,2.331,6.83,6.753,6.83,11.547C87.266,96.711,87.037,98.091,86.586,99.421z M109.711,50.137
		c0-5.568-4.912-10.102-10.954-10.102c-1.96,0-3.764,0.514-5.363,1.347V20.038c0-5.581-4.857-10.12-10.846-10.12
		c-1.869,0-3.605,0.481-5.144,1.277v-1.091C77.404,4.534,72.556,0,66.571,0c-5.967,0-10.83,4.534-10.83,10.104v5.754
		c-1.518-0.786-3.229-1.256-5.066-1.256c-5.923,0-10.742,4.539-10.742,10.109v3.108c-1.604-0.851-3.434-1.376-5.412-1.376
		c-6.037,0-10.939,4.531-10.939,10.102v0.449v55.663v2.779c0,8.221,5.346,15.076,12.424,16.532v17.948
		c0,1.554,1.254,2.802,2.801,2.802c1.546,0,2.802-1.248,2.802-2.802v-20.46c0-1.537-1.308-2.802-2.859-2.802
		c-5.272,0-9.565-5.028-9.565-11.219v-2.779V36.994v-0.449c0-2.481,2.395-4.498,5.336-4.498c2.924,0,5.304,2.011,5.304,4.498v31.417
		c0,1.543,1.256,2.801,2.802,2.801c0.016,0,0.035-0.01,0.052-0.01c0.016,0,0.033,0.01,0.049,0.01c1.547,0,2.802-1.258,2.802-2.801
		V24.711c0-2.481,2.304-4.506,5.138-4.506c2.708,0,4.881,1.86,5.068,4.191v43.551c0,1.546,1.253,2.8,2.801,2.8
		c0.012,0,0.021,0,0.033,0c0.012,0,0.022,0,0.033,0c1.546,0,2.802-1.254,2.802-2.8V24.692c0-0.228-0.054-0.436-0.073-0.665V10.093
		c0-2.484,2.345-4.506,5.228-4.506c2.887,0,5.236,2.011,5.236,4.506v9.182c-0.019,0.252-0.087,0.493-0.087,0.763v47.924
		c0,1.543,1.256,2.801,2.802,2.801c0.011,0,0.027,0,0.038,0s0.033,0,0.044,0c1.538,0,2.801-1.258,2.801-2.801V19.691
		c0.22-2.32,2.408-4.159,5.145-4.159c2.89,0,5.242,2.022,5.242,4.512v30.093v15.998c-5.888,0.831-8.339,4.65-8.339,12.585
		c0,1.554,1.247,2.802,2.802,2.802c1.542,0,2.802-1.248,2.802-2.802c0-6.827,1.411-7.168,5.495-7.168
		c1.541,0,2.802-1.26,2.802-2.802c0-0.11-0.057-0.187-0.065-0.307c0.032-0.142,0.107-0.306,0.107-0.481V50.132
		c0-2.481,2.409-4.498,5.352-4.498c2.945,0,5.332,2.001,5.352,4.476c0,0.011-0.011,0.011-0.011,0.022v45.299
		c0,6.186-4.496,11.219-10.024,11.219h-4.827c-0.743,0-1.466,0.305-1.989,0.831c-0.527,0.515-0.817,1.247-0.812,1.986l0.178,21.046
		c0.009,1.537,1.27,2.779,2.8,2.779c0,0,0.011,0,0.021,0c1.543-0.011,2.791-1.285,2.78-2.824l-0.153-18.228h2.003
		c8.624,0,15.628-7.539,15.628-16.82V68.005c0-0.033,0.01-0.043,0.01-0.065V50.121h0.022V50.137z"/>
</g>
<g>
</g>
<g>
</g>
<g>
</g>
<g>
</g>
<g>
</g>
<g>
</g>
<g>
</g>
<g>
</g>
<g>
</g>
<g>
</g>
<g>
</g>
<g>
</g>
<g>
</g>
<g>
</g>
<g>
</g>
</svg>
