<?xml version="1.0" encoding="iso-8859-1"?>
<!-- Generator: Adobe Illustrator 16.0.0, SVG Export Plug-In . SVG Version: 6.00 Build 0)  -->
<!DOCTYPE svg PUBLIC "-//W3C//DTD SVG 1.1//EN" "http://www.w3.org/Graphics/SVG/1.1/DTD/svg11.dtd">
<svg version="1.1" id="Capa_1" xmlns="http://www.w3.org/2000/svg" xmlns:xlink="http://www.w3.org/1999/xlink" x="0px" y="0px"
	 width="84.41px" height="84.41px" viewBox="0 0 84.41 84.41" style="enable-background:new 0 0 84.41 84.41;" xml:space="preserve"
	>
<g>
	<path d="M35.726,7.004C35.726,3.138,38.867,0,42.73,0c3.872,0,7.004,3.138,7.004,7.004c0,3.869-3.133,7.004-7.004,7.004
		C38.867,14.008,35.726,10.878,35.726,7.004z M58.139,55.338c-1.542,0-2.801,1.253-2.801,2.802c0,11.393-9.27,20.667-20.66,20.667
		c-11.397,0-20.665-9.269-20.665-20.667c0-11.396,9.268-20.662,20.665-20.662c1.541,0,2.802-1.256,2.802-2.802
		c0-1.548-1.261-2.802-2.802-2.802C20.186,31.874,8.41,43.656,8.41,58.14c0,14.484,11.782,26.271,26.269,26.271
		c14.484,0,26.262-11.786,26.262-26.271C60.94,56.58,59.693,55.338,58.139,55.338z M34.678,44.307c0.772,0,1.401-0.63,1.401-1.401
		c0-0.771-0.628-1.4-1.401-1.4c-9.173,0-16.638,7.47-16.638,16.635c0,9.166,7.465,16.641,16.638,16.641
		c9.171,0,16.631-7.464,16.631-16.641c0-0.777-0.623-1.4-1.401-1.4c-0.781,0-1.4,0.623-1.4,1.4c0,7.627-6.205,13.839-13.83,13.839
		c-7.634,0-13.835-6.205-13.835-13.839C20.843,50.507,27.044,44.307,34.678,44.307z M75.704,58.523
		c-0.688-1.391-2.373-1.943-3.754-1.265l-2.32,1.162l-5.679-9.753c-0.504-0.859-1.424-1.384-2.419-1.384h-16V18.205
		c0-1.546-1.25-2.801-2.802-2.801c-1.543,0-2.801,1.255-2.801,2.801v31.88c0,1.538,1.258,2.802,2.801,2.802h17.193l6.186,10.62
		c0.513,0.887,1.453,1.391,2.428,1.391c0.416,0,0.845-0.088,1.247-0.295l4.674-2.33C75.835,61.587,76.395,59.901,75.704,58.523z"/>
</g>
<g>
</g>
<g>
</g>
<g>
</g>
<g>
</g>
<g>
</g>
<g>
</g>
<g>
</g>
<g>
</g>
<g>
</g>
<g>
</g>
<g>
</g>
<g>
</g>
<g>
</g>
<g>
</g>
<g>
</g>
</svg>
