<?xml version="1.0" encoding="iso-8859-1"?>
<!-- Generator: Adobe Illustrator 16.0.0, SVG Export Plug-In . SVG Version: 6.00 Build 0)  -->
<!DOCTYPE svg PUBLIC "-//W3C//DTD SVG 1.1//EN" "http://www.w3.org/Graphics/SVG/1.1/DTD/svg11.dtd">
<svg version="1.1" id="Capa_1" xmlns="http://www.w3.org/2000/svg" xmlns:xlink="http://www.w3.org/1999/xlink" x="0px" y="0px"
	 width="125.697px" height="125.697px" viewBox="0 0 125.697 125.697" style="enable-background:new 0 0 125.697 125.697;"
	 xml:space="preserve">
<g>
	<path d="M104.497,55.896c-7.967-3.294-15.418-2.684-21.24,1.565v-3.983c1.302,0.29,3.151,0.588,5.28,0.588
		c3.489,0,6.575-0.807,9.175-2.388c7.004-4.304,9.236-13.795,9.335-14.192c0.317-1.4-0.469-2.815-1.827-3.277
		c-0.126-0.047-3.24-1.078-7.161-1.078c-3.498,0-6.585,0.802-9.179,2.383c-2.419,1.483-4.235,3.589-5.623,5.727v-6.085
		c0-1.54-1.256-2.802-2.802-2.802c-1.54,0-2.802,1.262-2.802,2.802v22.301c-0.582-0.432-1.205-0.818-1.83-1.182V5.753l-5.897,3.199
		L55.134,4.438V0L5.695,26.832v93.115l20.701,5.75l28.492-15.464c5.899,6.714,12.903,11.458,19.442,11.458
		c1.703,0,3.323-0.333,4.79-0.93c0.447-0.175,0.884-0.389,1.335-0.646c0.425,0.257,0.852,0.459,1.278,0.635
		c1.523,0.607,3.143,0.94,4.826,0.94c12.17,0,25.965-16.283,31.196-31.496C123.304,74.178,118.462,61.68,104.497,55.896z
		 M91.807,40.293c1.691-1.037,3.795-1.554,6.233-1.554c0.975,0,1.877,0.09,2.66,0.197c-0.98,2.487-2.847,6.096-5.916,7.981
		c-1.702,1.034-3.804,1.551-6.247,1.551c-0.971,0-1.872-0.085-2.656-0.196C86.866,45.784,88.732,42.186,91.807,40.293z
		 M26.198,30.655l-13.441-3.744L52.734,5.625l0.129,0.044l2.271,0.689l11.811,3.609l-11.811,6l-2.271,1.15L26.198,30.655z
		 M112.476,88.384c-5.561,16.142-20.039,30.757-28.625,27.194c-0.486-0.185-1.022-0.524-1.668-1.038
		c-0.515-0.396-1.116-0.592-1.728-0.592c-0.626,0-1.242,0.196-1.751,0.602c-0.635,0.504-1.162,0.826-1.709,1.051
		c-8.198,3.414-23.005-11.075-28.586-27.207c-5.775-16.706,2.32-24.065,10.137-27.302c8.074-3.346,14.892-1.749,19.608,4.824
		c0.05,0.055,0.115,0.076,0.148,0.122c0.183,0.217,0.401,0.393,0.64,0.557c0.111,0.065,0.187,0.144,0.308,0.196
		c0.355,0.164,0.754,0.285,1.182,0.285c0.434,0,0.831-0.121,1.192-0.285c0.115-0.053,0.186-0.131,0.284-0.186
		c0.252-0.164,0.471-0.351,0.668-0.58c0.032-0.055,0.105-0.081,0.131-0.121c4.719-6.565,11.526-8.169,19.618-4.812
		C110.155,64.301,118.253,71.65,112.476,88.384z"/>
</g>
<g>
</g>
<g>
</g>
<g>
</g>
<g>
</g>
<g>
</g>
<g>
</g>
<g>
</g>
<g>
</g>
<g>
</g>
<g>
</g>
<g>
</g>
<g>
</g>
<g>
</g>
<g>
</g>
<g>
</g>
</svg>
