<?xml version="1.0" encoding="iso-8859-1"?>
<!-- Generator: Adobe Illustrator 16.0.0, SVG Export Plug-In . SVG Version: 6.00 Build 0)  -->
<!DOCTYPE svg PUBLIC "-//W3C//DTD SVG 1.1//EN" "http://www.w3.org/Graphics/SVG/1.1/DTD/svg11.dtd">
<svg version="1.1" id="Capa_1" xmlns="http://www.w3.org/2000/svg" xmlns:xlink="http://www.w3.org/1999/xlink" x="0px" y="0px"
	 width="125.66px" height="125.66px" viewBox="0 0 125.66 125.66" style="enable-background:new 0 0 125.66 125.66;"
	 xml:space="preserve">
<g>
	<path d="M113.195,50.614c-2.112-1.177-4.399-1.966-6.753-2.424c2.152-7.965,3.59-16.189,4.208-24.529
		c0.077-1.086-0.486-2.127-1.449-2.659C93.224,12.198,74.608,7.541,55.329,7.541c-19.276,0-37.918,4.657-53.877,13.467
		c-0.964,0.531-1.519,1.567-1.445,2.659c2.958,39.924,23.115,74.545,53.906,92.607c0.434,0.257,0.924,0.39,1.417,0.39
		s0.979-0.133,1.417-0.39c4.319-2.532,8.516-5.466,12.47-8.705c0.065-0.055,0.093-0.121,0.139-0.176
		c7.386,5.867,13.778,9.927,14.367,10.294c0.462,0.289,0.975,0.432,1.494,0.432s1.04-0.143,1.499-0.432
		c1.373-0.871,33.967-21.495,37.735-38.567c0.81-2.413,1.209-4.92,1.209-7.441C125.66,62.918,120.879,54.841,113.195,50.614z
		 M55.329,110.601C27.384,93.517,8.979,61.77,5.734,25.052c14.793-7.798,31.883-11.913,49.595-11.913
		c17.691,0,34.795,4.115,49.597,11.913c-0.688,7.751-2.155,15.365-4.223,22.755c-2.609,0.112-5.178,0.624-7.619,1.519
		c1.861-5.893,3.286-11.967,4.192-18.143c0.186-1.256-0.491-2.47-1.653-2.977c-11.972-5.22-25.564-7.844-39.192-7.984
		c-0.341-0.138-0.712-0.224-1.092-0.224c-0.385,0-0.769,0.086-1.1,0.224c-13.63,0.135-27.219,2.764-39.181,7.984
		c-1.161,0.506-1.84,1.726-1.658,2.977c4.284,29.113,18.971,54.652,40.298,70.061c0.492,0.351,1.06,0.537,1.641,0.537
		c0.583,0,1.15-0.176,1.636-0.537c1.251-0.896,1.926-1.652,2.521-2.33c0.024-0.022,0.046-0.045,0.068-0.071
		c1.76,1.712,3.592,3.354,5.417,4.919C61.88,106.257,58.656,108.564,55.329,110.601z M45.919,78.841
		c1.16,5.248,4.967,10.785,9.716,15.991c-0.112,0.118-0.235,0.244-0.341,0.349c-0.056,0.071-0.1,0.12-0.146,0.175
		c-12.304-9.428-22.064-22.577-28.571-37.866h22.872c-2.963,4.049-4.672,8.985-4.672,14.172
		C44.782,74.229,45.204,76.74,45.919,78.841z M52.527,51.902H24.335c-2.225-6.186-3.95-12.673-5.059-19.387
		C29.53,28.34,40.99,26.184,52.538,25.87L52.527,51.902L52.527,51.902z M58.13,50.217V25.87c11.546,0.314,23,2.465,33.269,6.646
		c-1.23,7.296-3.177,14.407-5.777,21.22c-0.126,0.113-0.274,0.191-0.395,0.31C78.105,47.421,66.893,45.851,58.13,50.217z
		 M119.054,77.637c-2.629,11.858-24.052,27.963-33.838,34.364c-9.782-6.396-31.201-22.511-33.912-34.654
		c-0.6-1.811-0.92-3.726-0.92-5.668c0-5.604,2.573-10.808,6.832-14.277c0.04-0.035,0.091-0.063,0.119-0.102
		c0.161-0.134,0.319-0.292,0.493-0.421c0.046-0.033,0.1-0.058,0.133-0.096c0.63-0.465,1.284-0.889,1.983-1.278
		c2.701-1.507,5.78-2.296,8.889-2.296c5.505,0,10.692,2.441,14.217,6.688c1.051,1.28,3.25,1.28,4.312,0
		c5.517-6.653,15.612-8.563,23.11-4.386c5.921,3.248,9.576,9.442,9.576,16.167C120.057,73.61,119.745,75.515,119.054,77.637z"/>
</g>
<g>
</g>
<g>
</g>
<g>
</g>
<g>
</g>
<g>
</g>
<g>
</g>
<g>
</g>
<g>
</g>
<g>
</g>
<g>
</g>
<g>
</g>
<g>
</g>
<g>
</g>
<g>
</g>
<g>
</g>
</svg>
