<?xml version="1.0" encoding="iso-8859-1"?>
<!-- Generator: Adobe Illustrator 16.0.0, SVG Export Plug-In . SVG Version: 6.00 Build 0)  -->
<!DOCTYPE svg PUBLIC "-//W3C//DTD SVG 1.1//EN" "http://www.w3.org/Graphics/SVG/1.1/DTD/svg11.dtd">
<svg version="1.1" id="Capa_1" xmlns="http://www.w3.org/2000/svg" xmlns:xlink="http://www.w3.org/1999/xlink" x="0px" y="0px"
	 width="144.878px" height="144.878px" viewBox="0 0 144.878 144.878" style="enable-background:new 0 0 144.878 144.878;"
	 xml:space="preserve">
<g>
	<path d="M123.396,45.941H34.773V39.52h27.24c1.55,0,2.802-1.256,2.802-2.802c0-1.535-1.251-2.801-2.802-2.801H2.802
		C1.26,33.917,0,35.183,0,36.718c0,1.546,1.26,2.802,2.802,2.802H29.17v6.588C13.519,47.728,1.282,60.992,1.282,77.055
		c0,10.906,5.649,20.503,14.162,26.063v8.897h-2.781c-1.55,0-2.802,1.264-2.802,2.802c0,1.548,1.251,2.802,2.802,2.802h39.487
		c1.539,0,2.802-1.254,2.802-2.802c0-1.538-1.263-2.802-2.802-2.802h-2.781v-8.908c7.913-5.172,13.308-13.817,14.045-23.76
		l50.678-10.706c0.783-0.164,1.456-0.657,1.85-1.345l9.873-17.159c0.51-0.862,0.51-1.945,0-2.802
		C125.32,46.48,124.39,45.941,123.396,45.941z M29.596,51.832v19.437H7.609C10.052,60.886,18.805,53.036,29.596,51.832z
		 M43.766,112.032H21.051v-6.019c3.525,1.391,7.347,2.177,11.346,2.177c4.018,0,7.839-0.786,11.363-2.177L43.766,112.032
		L43.766,112.032z M32.397,102.587c-14.062,0-25.518-11.446-25.518-25.521c0-0.065,0.029-0.131,0.029-0.197h25.488
		c1.547,0,2.802-1.258,2.802-2.801V51.832c12.742,1.413,22.733,12.124,22.733,25.234C57.932,91.141,46.474,102.587,32.397,102.587z
		 M111.713,63.436L63.339,73.652C62.33,64.516,57.356,56.56,50.17,51.55h68.375L111.713,63.436z M144.878,41.665
		c0,1.554-1.266,2.802-2.802,2.802h-9.02v8.993c0,1.554-1.247,2.802-2.802,2.802c-1.537,0-2.802-1.248-2.802-2.802v-8.993h-9.001
		c-1.527,0-2.802-1.248-2.802-2.802c0-1.541,1.274-2.801,2.802-2.801h9.001v-9.009c0-1.542,1.265-2.803,2.802-2.803
		c1.555,0,2.802,1.262,2.802,2.803v8.998h9.007C143.613,38.864,144.878,40.12,144.878,41.665z M48.508,84.792
		c0,1.555-1.257,2.802-2.802,2.802h-3.205v3.207c0,1.554-1.249,2.802-2.801,2.802c-1.543,0-2.802-1.248-2.802-2.802v-3.207h-3.206
		c-1.541,0-2.802-1.247-2.802-2.802c0-1.537,1.261-2.802,2.802-2.802h3.206v-3.207c0-1.537,1.258-2.802,2.802-2.802
		c1.552,0,2.801,1.265,2.801,2.802v3.207h3.205C47.256,81.991,48.508,83.255,48.508,84.792z M87.109,89.302
		c0.525-0.745,0.807-1.571,0.807-2.479c0-1.007-0.304-1.801-0.878-2.408c-0.574-0.612-1.322-0.919-2.274-0.919
		c-1.009,0-1.797,0.377-2.366,1.133c-0.574,0.771-0.831,1.794-0.785,3.103h-4.339c-0.076-2.435,0.571-4.361,1.93-5.783
		c1.358-1.438,3.217-2.141,5.594-2.141c2.222,0,4.015,0.646,5.426,1.965c1.391,1.319,2.102,3.021,2.102,5.1
		c0,1.708-0.394,3.119-1.204,4.247c-0.786,1.116-2.285,2.376-4.476,3.775c-2.025,1.286-3.413,2.453-4.146,3.49l-0.023,0.022h9.849
		v3.886H76.996l0,0c0-2.059,0.526-3.825,1.55-5.286c1.05-1.476,3.001-3.207,5.877-5.23C85.688,90.867,86.579,90.05,87.109,89.302z
		 M105.364,79.802h-2.466l-8.307,13.692v1.925v1.915h8.896v4.947h4.347v-4.947h2.536v-3.522h-2.536v-14.01H105.364L105.364,79.802z
		 M103.482,93.812h-5.646l0.191-0.317l5.454-9.053V93.812L103.482,93.812z M86.556,105.93h1.215v11.574h-1.215h-1.214v-5.243h-4.543
		v5.243h-1.192h-1.229V105.93h1.217h1.204v4.341h4.543v-4.341H86.556z M99.335,116.005l-0.057-1.895
		c-0.022-0.93-0.367-1.586-1.034-1.991c-0.114-0.065-0.252-0.115-0.389-0.186c0.252-0.099,0.481-0.22,0.689-0.346
		c0.744-0.503,1.122-1.317,1.122-2.445c0-0.974-0.345-1.739-1.018-2.342c-0.679-0.581-1.565-0.871-2.682-0.871h-4.641h-1.204v11.574
		h1.215h1.218v-4.57h2.418c0.688,0,1.182,0.116,1.471,0.335c0.306,0.229,0.459,0.585,0.472,1.111l0.02,1.065
		c0,0.461,0.022,0.877,0.083,1.275c0.043,0.405,0.099,0.668,0.147,0.783h2.688v-0.312c-0.197-0.085-0.335-0.211-0.393-0.378
		C99.393,116.662,99.35,116.388,99.335,116.005z M96.778,110.604c-0.312,0.252-0.78,0.367-1.4,0.367h-2.802v-3.054h2.899
		c0.588,0,1.04,0.131,1.325,0.371c0.308,0.264,0.448,0.646,0.448,1.161C97.249,109.954,97.084,110.341,96.778,110.604z
		 M109.878,111.923c0.569,0.481,0.85,1.274,0.85,2.354c0,1.093-0.429,1.951-1.288,2.581c-0.859,0.646-2.008,0.968-3.479,0.968
		c-1.467,0-2.614-0.333-3.432-1.022c-0.815-0.679-1.274-1.643-1.324-2.89h2.333c0.027,0.624,0.256,1.083,0.677,1.412
		c0.407,0.339,1.001,0.503,1.746,0.503c0.781,0,1.379-0.126,1.808-0.371c0.416-0.264,0.644-0.579,0.644-1.041
		c0-0.438-0.143-0.766-0.471-0.962c-0.307-0.209-0.952-0.416-1.957-0.635c-1.829-0.416-3.066-0.849-3.688-1.336
		c-0.602-0.471-0.91-1.214-0.91-2.211c0-1.127,0.394-2.024,1.215-2.691c0.821-0.641,1.928-0.975,3.306-0.975
		c1.293,0,2.363,0.334,3.162,1.023c0.821,0.679,1.281,1.608,1.357,2.769h-2.363c-0.033-0.553-0.285-0.99-0.723-1.313
		c-0.438-0.317-1.023-0.481-1.733-0.481c-0.607,0-1.078,0.126-1.434,0.405c-0.357,0.273-0.521,0.641-0.521,1.122
		c0,0.35,0.177,0.612,0.555,0.817c0.342,0.184,1.103,0.414,2.264,0.677C108.175,110.982,109.314,111.419,109.878,111.923z"/>
</g>
<g>
</g>
<g>
</g>
<g>
</g>
<g>
</g>
<g>
</g>
<g>
</g>
<g>
</g>
<g>
</g>
<g>
</g>
<g>
</g>
<g>
</g>
<g>
</g>
<g>
</g>
<g>
</g>
<g>
</g>
</svg>
