<?xml version="1.0" encoding="iso-8859-1"?>
<!-- Generator: Adobe Illustrator 16.0.0, SVG Export Plug-In . SVG Version: 6.00 Build 0)  -->
<!DOCTYPE svg PUBLIC "-//W3C//DTD SVG 1.1//EN" "http://www.w3.org/Graphics/SVG/1.1/DTD/svg11.dtd">
<svg version="1.1" id="Capa_1" xmlns="http://www.w3.org/2000/svg" xmlns:xlink="http://www.w3.org/1999/xlink" x="0px" y="0px"
	 width="126.594px" height="126.593px" viewBox="0 0 126.594 126.593" style="enable-background:new 0 0 126.594 126.593;"
	 xml:space="preserve">
<g>
	<path d="M109.909,112.269c0,1.724-1.4,3.117-3.117,3.117H92.665c0.073,0.256,0.152,0.512,0.152,0.78
		c0,1.723-1.407,3.117-3.118,3.117H20.201c-1.721,0-3.118-1.395-3.118-3.117c0-0.269,0.095-0.524,0.155-0.78H3.118
		c-1.723,0-3.118-1.394-3.118-3.117c0-1.711,1.395-3.117,3.118-3.117h103.662C108.509,109.152,109.909,110.546,109.909,112.269z
		 M126.594,69.664c0,13.481-9.548,22.529-23.772,22.529c-2.539,0-5.005-0.414-7.404-1.035c-2.24,5.59-5.639,10.693-10.126,15.028
		c-0.578,0.561-1.358,0.877-2.168,0.877H26.774c-0.81,0-1.583-0.316-2.171-0.877c-6.854-6.638-11.192-15.089-12.69-24.277
		c-0.405-0.523-0.685-1.163-0.685-1.876c0-0.432,0.101-0.858,0.262-1.242c-0.119-1.303-0.198-2.618-0.198-3.945v-3.818
		c-0.012-0.109-0.07-0.207-0.07-0.328c0-0.122,0.058-0.22,0.07-0.342V38.481c0-1.721,1.395-3.118,3.118-3.118h81.056
		c1.717,0,3.118,1.397,3.118,3.118v6.877c1.388-0.201,2.801-0.317,4.226-0.317C118.435,45.048,126.594,57.43,126.594,69.664z
		 M17.738,76.94h74.44c0.036-0.688,0.195-1.37,0.195-2.07v-1.048c-0.024,0-0.049,0.013-0.073,0.013H17.552v1.035
		C17.546,75.558,17.708,76.24,17.738,76.94z M17.546,41.604v25.983h74.748c0.023,0,0.055,0.012,0.079,0.012V41.617L17.546,41.604
		L17.546,41.604z M91.35,83.175H18.569c1.495,6.606,4.683,12.689,9.508,17.671h53.768C86.661,95.865,89.852,89.77,91.35,83.175z
		 M120.358,69.664c0-9.134-6.022-18.38-17.537-18.38c-1.425,0-2.85,0.167-4.237,0.417v23.15c0,3.557-0.476,7.027-1.291,10.389
		c1.802,0.426,3.629,0.719,5.528,0.719C113.648,85.958,120.358,79.71,120.358,69.664z M25.788,31.21c1.72,0,3.118-1.397,3.118-3.118
		V10.428c0-1.721-1.397-3.118-3.118-3.118s-3.118,1.397-3.118,3.118v17.665C22.67,29.813,24.067,31.21,25.788,31.21z M44.856,31.21
		c1.72,0,3.118-1.397,3.118-3.118V10.428c0-1.721-1.397-3.118-3.118-3.118s-3.118,1.397-3.118,3.118v17.665
		C41.738,29.813,43.136,31.21,44.856,31.21z M63.912,31.21c1.72,0,3.117-1.397,3.117-3.118V10.428c0-1.721-1.397-3.118-3.117-3.118
		c-1.724,0-3.118,1.397-3.118,3.118v17.665C60.794,29.813,62.177,31.21,63.912,31.21z M82.959,31.21
		c1.723,0,3.117-1.397,3.117-3.118V10.428c0-1.721-1.395-3.118-3.117-3.118c-1.718,0-3.118,1.397-3.118,3.118v17.665
		C79.841,29.813,81.241,31.21,82.959,31.21z"/>
</g>
<g>
</g>
<g>
</g>
<g>
</g>
<g>
</g>
<g>
</g>
<g>
</g>
<g>
</g>
<g>
</g>
<g>
</g>
<g>
</g>
<g>
</g>
<g>
</g>
<g>
</g>
<g>
</g>
<g>
</g>
</svg>
