<?xml version="1.0" encoding="iso-8859-1"?>
<!-- Generator: Adobe Illustrator 16.0.0, SVG Export Plug-In . SVG Version: 6.00 Build 0)  -->
<!DOCTYPE svg PUBLIC "-//W3C//DTD SVG 1.1//EN" "http://www.w3.org/Graphics/SVG/1.1/DTD/svg11.dtd">
<svg version="1.1" id="Capa_1" xmlns="http://www.w3.org/2000/svg" xmlns:xlink="http://www.w3.org/1999/xlink" x="0px" y="0px"
	 width="177.036px" height="177.036px" viewBox="0 0 177.036 177.036" style="enable-background:new 0 0 177.036 177.036;"
	 xml:space="preserve">
<g>
	<path d="M152.138,94.674l-29.617-17.102V43.646c0-1.117-0.597-2.146-1.56-2.7L91.636,24.024V3.117C91.636,1.388,90.238,0,88.519,0
		C86.798,0,85.4,1.388,85.4,3.117v20.907L56.075,40.952c-0.959,0.555-1.559,1.583-1.559,2.701v33.926L24.899,94.686
		c-0.959,0.549-1.559,1.584-1.559,2.691v35.671c0,1.108,0.6,2.144,1.559,2.691l29.325,16.928v21.251
		c0,1.729,1.397,3.118,3.118,3.118s3.118-1.389,3.118-3.118v-21.251l28.059-16.197l28.059,16.197v21.251
		c0,1.729,1.4,3.118,3.117,3.118c1.718,0,3.118-1.389,3.118-3.118v-21.251l29.325-16.928c0.962-0.548,1.559-1.583,1.559-2.691
		V97.365C153.696,96.257,153.1,95.222,152.138,94.674z M85.108,131.239L57.342,147.26l-27.767-16.021V99.168l27.767-16.027
		l27.767,16.027V131.239z M60.752,77.502V45.44l27.767-16.03l27.767,16.03v32.062L88.519,93.535L60.752,77.502z M147.461,131.239
		l-27.767,16.021l-27.766-16.021V99.168l27.766-16.027l27.767,16.027V131.239z"/>
</g>
<g>
</g>
<g>
</g>
<g>
</g>
<g>
</g>
<g>
</g>
<g>
</g>
<g>
</g>
<g>
</g>
<g>
</g>
<g>
</g>
<g>
</g>
<g>
</g>
<g>
</g>
<g>
</g>
<g>
</g>
</svg>
