<?xml version="1.0" encoding="iso-8859-1"?>
<!-- Generator: Adobe Illustrator 16.0.0, SVG Export Plug-In . SVG Version: 6.00 Build 0)  -->
<!DOCTYPE svg PUBLIC "-//W3C//DTD SVG 1.1//EN" "http://www.w3.org/Graphics/SVG/1.1/DTD/svg11.dtd">
<svg version="1.1" id="Capa_1" xmlns="http://www.w3.org/2000/svg" xmlns:xlink="http://www.w3.org/1999/xlink" x="0px" y="0px"
	 width="110.66px" height="110.66px" viewBox="0 0 110.66 110.66" style="enable-background:new 0 0 110.66 110.66;"
	 xml:space="preserve">
<g>
	<path d="M68.938,26.263v24.066c0,1.54-1.261,2.801-2.804,2.801s-2.802-1.261-2.802-2.801v-9.224H47.342v9.224
		c0,1.54-1.263,2.801-2.802,2.801c-1.55,0-2.802-1.261-2.802-2.801V26.263c0-1.541,1.252-2.801,2.802-2.801
		c1.539,0,2.802,1.261,2.802,2.801v9.229h15.991v-9.229c0-1.541,1.259-2.801,2.802-2.801S68.938,24.723,68.938,26.263z
		 M93.971,38.641c0,20.462-34.893,68.813-36.378,70.859c-0.523,0.723-1.362,1.16-2.262,1.16c-0.896,0-1.743-0.438-2.263-1.16
		c-1.491-2.046-36.378-50.396-36.378-70.859C16.69,17.325,34.033,0,55.331,0C76.63,0,93.971,17.33,93.971,38.641z M88.367,38.641
		c0-18.222-14.823-33.038-33.036-33.038c-18.211,0-33.037,14.826-33.037,33.038c0,15.857,25.241,53.202,33.037,64.369
		C63.136,91.854,88.367,54.499,88.367,38.641z M83.979,38.705C83.94,54.458,71.076,67.289,55.313,67.289h-0.046
		c-7.652-0.01-14.843-3.003-20.243-8.438c-5.402-5.417-8.362-12.618-8.343-20.273c0.04-15.753,12.887-28.591,28.644-28.591
		C71.181,10.025,84.007,22.895,83.979,38.705z M78.376,38.693c0.027-12.723-10.299-23.076-22.997-23.098
		c-12.725,0-23.066,10.321-23.093,22.996c-0.021,6.162,2.368,11.952,6.71,16.309c4.342,4.362,10.131,6.769,16.284,6.786l0.033,2.802
		v-2.802C68.006,61.687,78.349,51.366,78.376,38.693z"/>
</g>
<g>
</g>
<g>
</g>
<g>
</g>
<g>
</g>
<g>
</g>
<g>
</g>
<g>
</g>
<g>
</g>
<g>
</g>
<g>
</g>
<g>
</g>
<g>
</g>
<g>
</g>
<g>
</g>
<g>
</g>
</svg>
