<?xml version="1.0" encoding="iso-8859-1"?>
<!-- Generator: Adobe Illustrator 16.0.0, SVG Export Plug-In . SVG Version: 6.00 Build 0)  -->
<!DOCTYPE svg PUBLIC "-//W3C//DTD SVG 1.1//EN" "http://www.w3.org/Graphics/SVG/1.1/DTD/svg11.dtd">
<svg version="1.1" id="Capa_1" xmlns="http://www.w3.org/2000/svg" xmlns:xlink="http://www.w3.org/1999/xlink" x="0px" y="0px"
	 width="100.034px" height="100.033px" viewBox="0 0 100.034 100.033" style="enable-background:new 0 0 100.034 100.033;"
	 xml:space="preserve">
<g>
	<path d="M97.007,40.456H52.712V8.487c0-1.673-1.354-3.026-3.026-3.026H3.026C1.356,5.461,0,6.814,0,8.487v83.059
		c0,1.673,1.356,3.026,3.026,3.026h46.66c0.115,0,0.219-0.054,0.328-0.065c0.115,0.012,0.213,0.065,0.328,0.065h46.665
		c1.667,0,3.026-1.354,3.026-3.026V43.488C100.034,41.818,98.674,40.456,97.007,40.456z M46.648,88.514H6.041v-77h40.607V88.514z
		 M93.981,88.514H52.712V46.509h41.269V88.514z M23.685,32.316H12.354V20.986h11.331V32.316z M40.347,32.316H29.016V20.986h11.331
		V32.316z M23.685,48.102H12.354V36.771h11.331V48.102z M40.347,48.102H29.016V36.771h11.331V48.102z M23.685,63.883H12.354V52.559
		h11.331V63.883z M40.347,63.883H29.016V52.559h11.331V63.883z M23.685,79.677H12.354V68.346h11.331V79.677z M40.347,79.677H29.016
		V68.346h11.331V79.677z M70.267,65.78H58.706V54.213h11.562V65.78z M87.273,65.78H75.717V54.213h11.556V65.78z M58.706,81.911
		V70.344h11.562v11.567H58.706z M87.273,81.911H75.717V70.344h11.556V81.911z M63.529,32.526V13.402
		c0-1.673,1.359-3.026,3.026-3.026s3.026,1.354,3.026,3.026v6.537h10.971v-6.537c0-1.673,1.365-3.026,3.026-3.026
		c1.679,0,3.026,1.354,3.026,3.026v19.124c0,1.67-1.348,3.026-3.026,3.026c-1.661,0-3.026-1.356-3.026-3.026v-6.534H69.582v6.534
		c0,1.67-1.359,3.026-3.026,3.026S63.529,34.211,63.529,32.526z"/>
</g>
<g>
</g>
<g>
</g>
<g>
</g>
<g>
</g>
<g>
</g>
<g>
</g>
<g>
</g>
<g>
</g>
<g>
</g>
<g>
</g>
<g>
</g>
<g>
</g>
<g>
</g>
<g>
</g>
<g>
</g>
</svg>
