<?xml version="1.0" encoding="iso-8859-1"?>
<!-- Generator: Adobe Illustrator 16.0.0, SVG Export Plug-In . SVG Version: 6.00 Build 0)  -->
<!DOCTYPE svg PUBLIC "-//W3C//DTD SVG 1.1//EN" "http://www.w3.org/Graphics/SVG/1.1/DTD/svg11.dtd">
<svg version="1.1" id="Capa_1" xmlns="http://www.w3.org/2000/svg" xmlns:xlink="http://www.w3.org/1999/xlink" x="0px" y="0px"
	 width="128.114px" height="128.114px" viewBox="0 0 128.114 128.114" style="enable-background:new 0 0 128.114 128.114;"
	 xml:space="preserve">
<g>
	<path d="M128.114,37.659c0-15.017-12.211-27.237-27.225-27.237c-9.025,0-16.987,4.465-21.946,11.251
		c-0.308-0.08-0.615-0.133-0.94-0.109c-14.534,1.314-21.172,11.13-24.497,21.45c-8.508-6.786-12.232-22.104-12.273-22.275
		c-0.375-1.619-1.998-2.647-3.644-2.243c-1.634,0.376-2.639,2.01-2.252,3.639c0.189,0.821,4.782,19.724,16.529,27.101
		c-0.883,4.117-1.374,8.045-1.767,11.278l-0.23,1.833c-2.486,19.219-23.803,21.701-35.261,23.043
		C2.854,86.754,0.451,92.535,0.07,95.868c-0.777,6.68,5.089,13.11,10.967,15.221c12.823,4.628,24.604,6.603,35.243,6.603
		c26.099,0,45.265-11.923,55.945-26.025c8.405-11.106,13.192-21.793,14.298-31.782C123.517,54.945,128.114,46.842,128.114,37.659z
		 M100.89,16.475c11.68,0,21.172,9.502,21.172,21.185c0,11.68-9.492,21.184-21.172,21.184s-21.184-9.504-21.184-21.184
		C79.706,25.971,89.21,16.475,100.89,16.475z M97.402,88.007c-6.667,8.796-32.433,36.067-84.326,17.39
		c-3.954-1.431-7.361-5.722-6.998-8.83c0.304-2.654,3.662-4.528,9.25-5.173c11.207-1.306,37.454-4.368,40.545-28.265l0.225-1.871
		c1.398-11.266,3.691-29.672,19.376-33.174c-1.135,2.987-1.832,6.191-1.832,9.575c0,15.017,12.223,27.237,27.236,27.237
		c3.115,0,6.047-0.629,8.83-1.599C108.013,71.055,103.981,79.312,97.402,88.007z M82.572,37.659c0-1.673,1.359-3.026,3.026-3.026
		h12.265V22.368c0-1.67,1.359-3.026,3.026-3.026c1.673,0,3.026,1.356,3.026,3.026v12.265h12.259c1.667,0,3.026,1.354,3.026,3.026
		c0,1.67-1.359,3.026-3.026,3.026h-12.259v12.262c0,1.67-1.354,3.026-3.026,3.026c-1.667,0-3.026-1.356-3.026-3.026V40.686H85.599
		C83.92,40.686,82.572,39.329,82.572,37.659z"/>
</g>
<g>
</g>
<g>
</g>
<g>
</g>
<g>
</g>
<g>
</g>
<g>
</g>
<g>
</g>
<g>
</g>
<g>
</g>
<g>
</g>
<g>
</g>
<g>
</g>
<g>
</g>
<g>
</g>
<g>
</g>
</svg>
