<?xml version="1.0" encoding="iso-8859-1"?>
<!-- Generator: Adobe Illustrator 16.0.0, SVG Export Plug-In . SVG Version: 6.00 Build 0)  -->
<!DOCTYPE svg PUBLIC "-//W3C//DTD SVG 1.1//EN" "http://www.w3.org/Graphics/SVG/1.1/DTD/svg11.dtd">
<svg version="1.1" id="Capa_1" xmlns="http://www.w3.org/2000/svg" xmlns:xlink="http://www.w3.org/1999/xlink" x="0px" y="0px"
	 width="128.872px" height="128.872px" viewBox="0 0 128.872 128.872" style="enable-background:new 0 0 128.872 128.872;"
	 xml:space="preserve">
<g>
	<path d="M99.937,30.066c-24.281-0.121-97.104-0.93-97.104-0.93c-1.379-0.126-2.644,1.048-2.813,2.46
		c-0.167,1.422,0.758,2.732,2.148,3.063l71.135,16.57c-1.526,4.32-2.329,8.988-2.329,13.674c0,19.207,12.977,34.841,28.944,34.841
		s28.953-15.634,28.953-34.841C128.876,45.771,115.897,30.137,99.937,30.066z M28.373,35.019
		c23.423,0.246,56.624,0.583,71.535,0.651c11.874,0.061,21.592,11.245,23.059,25.559H76.773c0.383-3.786,1.363-7.469,2.899-10.818
		c0.347-0.769,0.347-1.647-0.032-2.41c-0.368-0.755-1.057-1.294-1.877-1.497L28.373,35.019z M99.923,94.152
		c-12.345,0-22.38-12.104-23.188-27.316h46.379C122.31,82.048,112.274,94.152,99.923,94.152z M106.928,76.816
		c0,2.035-1.646,3.678-3.677,3.678c-2.025,0-3.673-1.643-3.673-3.678c0-2.023,1.647-3.677,3.673-3.677
		C105.283,73.139,106.928,74.792,106.928,76.816z M111.48,73.659c0,0.679-0.552,1.231-1.229,1.231c-0.672,0-1.227-0.553-1.227-1.231
		c0-0.678,0.555-1.231,1.227-1.231C110.928,72.434,111.48,72.981,111.48,73.659z M94.67,79.443c0,2.32-1.882,4.202-4.202,4.202
		s-4.202-1.882-4.202-4.202s1.882-4.202,4.202-4.202S94.67,77.123,94.67,79.443z M103.425,89.068c0,1.264-1.022,2.271-2.275,2.271
		c-1.254,0-2.271-1.018-2.271-2.271c0-1.258,1.025-2.271,2.271-2.271C102.403,86.797,103.425,87.815,103.425,89.068z M92.57,48.622
		c0-2.901,2.353-5.253,5.258-5.253c2.906,0,5.256,2.352,5.256,5.253c0,2.902-2.354,5.258-5.256,5.258
		C94.917,53.886,92.57,51.524,92.57,48.622z M107.278,49.678c0-1.352,1.096-2.457,2.459-2.457c1.36,0,2.452,1.1,2.452,2.457
		c0,1.354-1.097,2.456-2.452,2.456C108.378,52.133,107.278,51.032,107.278,49.678z"/>
</g>
<g>
</g>
<g>
</g>
<g>
</g>
<g>
</g>
<g>
</g>
<g>
</g>
<g>
</g>
<g>
</g>
<g>
</g>
<g>
</g>
<g>
</g>
<g>
</g>
<g>
</g>
<g>
</g>
<g>
</g>
</svg>
