<?xml version="1.0" encoding="iso-8859-1"?>
<!-- Generator: Adobe Illustrator 16.0.0, SVG Export Plug-In . SVG Version: 6.00 Build 0)  -->
<!DOCTYPE svg PUBLIC "-//W3C//DTD SVG 1.1//EN" "http://www.w3.org/Graphics/SVG/1.1/DTD/svg11.dtd">
<svg version="1.1" id="Capa_1" xmlns="http://www.w3.org/2000/svg" xmlns:xlink="http://www.w3.org/1999/xlink" x="0px" y="0px"
	 width="99.071px" height="99.071px" viewBox="0 0 99.071 99.071" style="enable-background:new 0 0 99.071 99.071;"
	 xml:space="preserve">
<g>
	<path d="M52.333,17.864V2.803c0-1.55-1.254-2.803-2.801-2.803c-1.546,0-2.802,1.253-2.802,2.803v15.055
		C40.489,19.41,35.775,26.061,35.775,34v48.584c0,9.096,6.17,16.486,13.751,16.486c7.595,0,13.77-7.391,13.77-16.486V34
		C63.288,26.061,58.585,19.416,52.333,17.864z M57.685,82.584c0,5.996-3.666,10.878-8.163,10.878c-4.501,0-8.148-4.882-8.148-10.878
		v-1.527h4.924c1.548,0,2.802-1.265,2.802-2.802c0-1.538-1.253-2.802-2.802-2.802h-4.924V67.75h4.924c1.548,0,2.802-1.265,2.802-2.8
		c0-1.54-1.253-2.805-2.802-2.805h-4.924v-7.704h4.924c1.548,0,2.802-1.264,2.802-2.802c0-1.548-1.253-2.802-2.802-2.802h-4.924
		v-7.704h4.924c1.548,0,2.802-1.255,2.802-2.802c0-1.546-1.253-2.802-2.802-2.802h-4.924V34c0-6,3.651-10.881,8.148-10.881
		c4.492,0,8.163,4.881,8.163,10.881V82.584z"/>
</g>
<g>
</g>
<g>
</g>
<g>
</g>
<g>
</g>
<g>
</g>
<g>
</g>
<g>
</g>
<g>
</g>
<g>
</g>
<g>
</g>
<g>
</g>
<g>
</g>
<g>
</g>
<g>
</g>
<g>
</g>
</svg>
