<?xml version="1.0" encoding="iso-8859-1"?>
<!-- Generator: Adobe Illustrator 16.0.0, SVG Export Plug-In . SVG Version: 6.00 Build 0)  -->
<!DOCTYPE svg PUBLIC "-//W3C//DTD SVG 1.1//EN" "http://www.w3.org/Graphics/SVG/1.1/DTD/svg11.dtd">
<svg version="1.1" id="Capa_1" xmlns="http://www.w3.org/2000/svg" xmlns:xlink="http://www.w3.org/1999/xlink" x="0px" y="0px"
	 width="105.996px" height="105.996px" viewBox="0 0 105.996 105.996" style="enable-background:new 0 0 105.996 105.996;"
	 xml:space="preserve">
<g>
	<path d="M103.211,89.864H20.928c6.816-2.978,14.189-8.059,20.583-14.458c6.616-6.614,11.443-13.91,13.582-20.574
		c0.529-1.647,0.853-3.217,1.049-4.741c0.069,0.012,0.13,0.052,0.211,0.052c0.745,0,1.456-0.304,1.983-0.821l27.44-27.437
		c0.527-0.528,0.817-1.239,0.817-1.986c0-0.744-0.304-1.455-0.817-1.98l-6.583-6.575c-1.089-1.092-2.867-1.092-3.96,0L48.756,37.825
		l-0.965,0.963L0.819,85.765c-1.091,1.083-1.091,2.867,0,3.961c0.331,0.334,0.718,0.586,1.092,0.865
		c-0.583,0.515-0.974,1.247-0.974,2.079c0,1.549,1.257,2.802,2.802,2.802h99.456c1.544,0,2.802-1.253,2.802-2.802
		C106.009,91.122,104.754,89.864,103.211,89.864z M49.78,44.716l0.773,0.786c0.386,2.101,0.151,4.673-0.796,7.609
		c-1.871,5.835-6.208,12.337-12.208,18.334C28.291,80.698,16.642,87.17,9.208,87.17c-0.63,0-1.208-0.055-1.737-0.136L49.78,44.716z"
		/>
</g>
<g>
</g>
<g>
</g>
<g>
</g>
<g>
</g>
<g>
</g>
<g>
</g>
<g>
</g>
<g>
</g>
<g>
</g>
<g>
</g>
<g>
</g>
<g>
</g>
<g>
</g>
<g>
</g>
<g>
</g>
</svg>
