<?xml version="1.0" encoding="iso-8859-1"?>
<!-- Generator: Adobe Illustrator 16.0.0, SVG Export Plug-In . SVG Version: 6.00 Build 0)  -->
<!DOCTYPE svg PUBLIC "-//W3C//DTD SVG 1.1//EN" "http://www.w3.org/Graphics/SVG/1.1/DTD/svg11.dtd">
<svg version="1.1" id="Capa_1" xmlns="http://www.w3.org/2000/svg" xmlns:xlink="http://www.w3.org/1999/xlink" x="0px" y="0px"
	 width="109.909px" height="109.909px" viewBox="0 0 109.909 109.909" style="enable-background:new 0 0 109.909 109.909;"
	 xml:space="preserve">
<g>
	<path d="M107.113,11.272H2.801C1.255,11.272,0,12.524,0,14.074v73.625C0,89.248,1.255,90.5,2.801,90.5h9.28v5.335
		c0,1.55,1.253,2.802,2.802,2.802c1.547,0,2.802-1.252,2.802-2.802V90.5h74.542v5.335c0,1.55,1.256,2.802,2.801,2.802
		c1.542,0,2.802-1.252,2.802-2.802V90.5h9.278c1.546,0,2.802-1.253,2.802-2.802V14.074
		C109.915,12.524,108.662,11.272,107.113,11.272z M104.312,84.897H5.603V16.875h98.703v68.022H104.312z M14.916,78.364h64.635
		c1.544,0,2.802-1.253,2.802-2.802V26.21c0-1.548-1.258-2.802-2.802-2.802H14.916c-1.546,0-2.802,1.253-2.802,2.802v49.352
		C12.114,77.111,13.37,78.364,14.916,78.364z M76.754,29.012V72.76H17.717V54.539h10.523c0.896,0,1.742-0.421,2.271-1.154
		l2.782-3.83v14.691c0,1.309,0.925,2.458,2.219,2.73c0.196,0.045,0.394,0.071,0.583,0.071c1.088,0,2.101-0.635,2.56-1.669
		l8.441-18.941l1.3,6.881c0.246,1.324,1.407,2.282,2.75,2.282h14.199c1.543,0,2.802-1.254,2.802-2.802
		c0-1.549-1.259-2.803-2.802-2.803H53.468l-2.54-13.408c-0.228-1.208-1.21-2.127-2.425-2.267c-1.25-0.161-2.389,0.528-2.886,1.642
		l-6.726,15.1V40.919c0-1.218-0.782-2.288-1.936-2.667c-1.15-0.375-2.416,0.033-3.133,1.02l-7.01,9.658h-9.095V29.006L76.754,29.012
		L76.754,29.012z M85.904,53.011c0-3.986,3.223-7.206,7.206-7.206c3.985,0,7.207,3.22,7.207,7.206c0,3.974-3.222,7.213-7.207,7.213
		C89.127,60.224,85.904,56.985,85.904,53.011z M98.638,70.392c0,3.047-2.474,5.515-5.515,5.515c-3.044,0-5.506-2.468-5.506-5.515
		c0-3.043,2.462-5.504,5.506-5.504C96.164,64.888,98.638,67.349,98.638,70.392z"/>
</g>
<g>
</g>
<g>
</g>
<g>
</g>
<g>
</g>
<g>
</g>
<g>
</g>
<g>
</g>
<g>
</g>
<g>
</g>
<g>
</g>
<g>
</g>
<g>
</g>
<g>
</g>
<g>
</g>
<g>
</g>
</svg>
