<?xml version="1.0" encoding="iso-8859-1"?>
<!-- Generator: Adobe Illustrator 16.0.0, SVG Export Plug-In . SVG Version: 6.00 Build 0)  -->
<!DOCTYPE svg PUBLIC "-//W3C//DTD SVG 1.1//EN" "http://www.w3.org/Graphics/SVG/1.1/DTD/svg11.dtd">
<svg version="1.1" id="Capa_1" xmlns="http://www.w3.org/2000/svg" xmlns:xlink="http://www.w3.org/1999/xlink" x="0px" y="0px"
	 width="118.655px" height="118.655px" viewBox="0 0 118.655 118.655" style="enable-background:new 0 0 118.655 118.655;"
	 xml:space="preserve">
<g>
	<path d="M73.369,45.234V30.808c0-0.977-0.504-1.877-1.335-2.389l-9.084-5.562V2.802C62.95,1.253,61.697,0,60.15,0H35.408
		c-1.545,0-2.801,1.253-2.801,2.802v20.061l-9.073,5.557c-0.83,0.512-1.339,1.412-1.339,2.389v69.894
		c0,1.549,1.256,2.802,2.803,2.802H47.27c4.064,8.914,12.999,15.152,23.419,15.152c14.204,0,25.771-11.557,25.771-25.773
		C96.468,80.159,76.862,50.43,73.369,45.234z M38.209,5.604h19.14v14.709h-19.14V5.604z M27.804,97.899V77.047h11.368
		c1.55,0,2.802-1.26,2.802-2.801c0-1.55-1.252-2.804-2.802-2.804H27.804V56.385h11.368c1.55,0,2.802-1.259,2.802-2.806
		c0-1.546-1.252-2.802-2.802-2.802H27.804V32.375l10.545-6.459h18.872l10.541,6.459V45.61c-4.165,6.226-22.843,34.874-22.843,47.284
		c0,1.719,0.183,3.38,0.509,5.016L27.804,97.899L27.804,97.899z M70.689,113.052c-11.121,0-20.177-9.05-20.177-20.165
		c0-8.662,12.955-30.396,20.177-41.531c7.232,11.134,20.176,32.869,20.176,41.531C90.865,104.002,81.817,113.052,70.689,113.052z
		 M73.491,107.864c0,1.545-1.25,2.802-2.802,2.802c-9.811,0-17.782-7.974-17.782-17.779c0-1.548,1.255-2.802,2.801-2.802
		s2.802,1.254,2.802,2.802c0,6.714,5.466,12.176,12.18,12.176C72.241,105.062,73.491,106.315,73.491,107.864z"/>
</g>
<g>
</g>
<g>
</g>
<g>
</g>
<g>
</g>
<g>
</g>
<g>
</g>
<g>
</g>
<g>
</g>
<g>
</g>
<g>
</g>
<g>
</g>
<g>
</g>
<g>
</g>
<g>
</g>
<g>
</g>
</svg>
