<?xml version="1.0" encoding="iso-8859-1"?>
<!-- Generator: Adobe Illustrator 16.0.0, SVG Export Plug-In . SVG Version: 6.00 Build 0)  -->
<!DOCTYPE svg PUBLIC "-//W3C//DTD SVG 1.1//EN" "http://www.w3.org/Graphics/SVG/1.1/DTD/svg11.dtd">
<svg version="1.1" id="Capa_1" xmlns="http://www.w3.org/2000/svg" xmlns:xlink="http://www.w3.org/1999/xlink" x="0px" y="0px"
	 width="159.729px" height="159.729px" viewBox="0 0 159.729 159.729" style="enable-background:new 0 0 159.729 159.729;"
	 xml:space="preserve">
<g>
	<path d="M156.981,67.669c-2.966-4.468-9.67-9.875-24.723-10.271c-3.218-0.091-7.453,0.241-11.99,0.58
		c-7.414,0.567-15.833,1.207-20.492,0.102c-3.835-0.9-8.569-2.93-13.598-5.081c-4.673-2-9.957-4.208-15.437-5.968
		c-1.961-17.729-17.012-31.564-35.25-31.564C15.924,15.467,0,31.387,0,50.952c0,13.083,7.132,24.509,17.708,30.663l-1.347-0.191
		c-1.411,9.951-3.787,52.063,11.565,60.897c1.984,1.136,5.042,1.942,8.372,1.942c5.059,0,10.748-1.852,14.217-7.163
		c6.427-9.861,12.035-16.111,44.917-20.062c22.874-2.746,30.396-8.963,35.874-13.493l0.48-0.405c1.956-1.598,5.112-3.523,8.46-5.559
		c7.619-4.631,16.253-9.884,18.616-15.977C160.127,78.37,160.389,72.788,156.981,67.669z M5.603,50.952
		c0-16.479,13.41-29.882,29.889-29.882c16.468,0,29.876,13.409,29.876,29.882c0,16.476-13.408,29.883-29.876,29.883
		C19.008,80.835,5.603,67.434,5.603,50.952z M45.818,134.028c-3.793,5.812-12.31,5.028-15.102,3.419
		c-9.815-5.636-11.038-37.154-8.986-53.8c4.23,1.789,8.881,2.779,13.756,2.779c18.865,0,34.299-14.82,35.368-33.422
		c4.534,1.557,8.897,3.338,13.106,5.138c3.861,1.653,7.563,3.234,10.968,4.358c1.041,2.802,10.15,28.852,0.85,48.818
		c-0.346,0.044-0.663,0.093-1.018,0.125C60.134,115.632,53.163,122.771,45.818,134.028z M153.661,79.565
		c-1.686,4.317-9.795,9.247-16.309,13.21c-3.534,2.145-6.859,4.164-9.114,6.024l-0.494,0.405
		c-4.315,3.562-10.025,8.278-25.443,11.113c6.636-17.86,1.653-38.151-0.965-46.405c5.456,0.634,12.723,0.147,19.362-0.359
		c4.359-0.329,8.479-0.643,11.396-0.572c12.667,0.331,17.972,4.41,20.213,7.773C154.693,74.338,154.268,77.979,153.661,79.565z
		 M35.492,74.397c-1.541,0-2.803-1.255-2.803-2.802V53.754H14.837c-1.539,0-2.802-1.253-2.802-2.802
		c0-1.545,1.263-2.801,2.802-2.801h17.853V30.306c0-1.548,1.262-2.801,2.803-2.801c1.539,0,2.802,1.253,2.802,2.801v17.845h17.84
		c1.546,0,2.802,1.256,2.802,2.801c0,1.549-1.256,2.802-2.802,2.802h-17.84v17.841C38.294,73.147,37.031,74.397,35.492,74.397z"/>
</g>
<g>
</g>
<g>
</g>
<g>
</g>
<g>
</g>
<g>
</g>
<g>
</g>
<g>
</g>
<g>
</g>
<g>
</g>
<g>
</g>
<g>
</g>
<g>
</g>
<g>
</g>
<g>
</g>
<g>
</g>
</svg>
