<?xml version="1.0" encoding="iso-8859-1"?>
<!-- Generator: Adobe Illustrator 16.0.0, SVG Export Plug-In . SVG Version: 6.00 Build 0)  -->
<!DOCTYPE svg PUBLIC "-//W3C//DTD SVG 1.1//EN" "http://www.w3.org/Graphics/SVG/1.1/DTD/svg11.dtd">
<svg version="1.1" id="Capa_1" xmlns="http://www.w3.org/2000/svg" xmlns:xlink="http://www.w3.org/1999/xlink" x="0px" y="0px"
	 width="137.413px" height="137.413px" viewBox="0 0 137.413 137.413" style="enable-background:new 0 0 137.413 137.413;"
	 xml:space="preserve">
<g>
	<path d="M117.984,20.005h-16.976V3.026c0-1.676-1.354-3.026-3.026-3.026H72.979c-1.667,0-3.023,1.351-3.023,3.026v16.979H52.983
		c-1.669,0-3.026,1.348-3.026,3.026v1.688c-6.664,1.362-14.064,4.48-20.33,11.1c-5.84,6.174-10.148,13.953-8.916,26.669
		c0.266,2.767,4.202,5.946,1.43,11.278c0,0-5.943,10.467-5.739,12.223c0,0-0.115,3.18,4.823,3.287c0,0,1.229,0.153,0.877,2.872
		l-0.053,3.96c0,0,0.15,1.183,2.311,1.892c0,0,0.408,0.414-0.204,1.194c0,0-1.138,1.265,0.828,3.983
		c0.715,1.005,1.889,2.259,1.17,4.835c0,0-0.917,4.965,1.028,6.165c0,0,2.213,2.643,11.142,1.537
		c3.118-0.384,8.878-1.897,12.312,2.405c0,0,8.201,15.604,8.831,19.293c0,0,14.003-24.943,31.097-28.785
		c0,0-4.167-9.398,4.309-21.562c0,0,10.616-13.997,10.936-21.722c0,0,1.188-5.925-2.04-14.295h14.222
		c1.667,0,3.026-1.368,3.026-3.026V23.02C121.011,21.353,119.651,20.005,117.984,20.005z M81.485,84.086
		c-7.223,0.249-7.577-4.575-10.968-8.311c-0.496,0.036-0.972,0.089-1.48,0.101c-8.464,0.248-6.913-8.76-10.217-11.209
		c-7.929-5.89-19.074-0.769-24.902-6.724c-1.882-1.912-3.487-3.736-3.736-6.23c-0.591-6.008,0.807-8.618,3.783-11.766
		c4.903-5.169,10.619-7.71,16.003-9.008v17.106c0,1.658,1.356,3.026,3.026,3.026h16.972v16.984c0,1.655,1.356,3.027,3.023,3.027
		h25.003c0.354,0,0.656-0.107,0.957-0.201C96.31,78.459,89.512,83.814,81.485,84.086z M114.958,45.007H97.982
		c-1.661,0-3.026,1.351-3.026,3.026v16.979h-18.95V48.033c0-1.675-1.354-3.026-3.026-3.026H56.016v-18.95h16.964
		c1.673,0,3.026-1.363,3.026-3.026V6.052h18.95v16.979c0,1.664,1.365,3.026,3.026,3.026h16.976V45.007z"/>
</g>
<g>
</g>
<g>
</g>
<g>
</g>
<g>
</g>
<g>
</g>
<g>
</g>
<g>
</g>
<g>
</g>
<g>
</g>
<g>
</g>
<g>
</g>
<g>
</g>
<g>
</g>
<g>
</g>
<g>
</g>
</svg>
