<?xml version="1.0" encoding="iso-8859-1"?>
<!-- Generator: Adobe Illustrator 16.0.0, SVG Export Plug-In . SVG Version: 6.00 Build 0)  -->
<!DOCTYPE svg PUBLIC "-//W3C//DTD SVG 1.1//EN" "http://www.w3.org/Graphics/SVG/1.1/DTD/svg11.dtd">
<svg version="1.1" id="Capa_1" xmlns="http://www.w3.org/2000/svg" xmlns:xlink="http://www.w3.org/1999/xlink" x="0px" y="0px"
	 width="149.827px" height="149.827px" viewBox="0 0 149.827 149.827" style="enable-background:new 0 0 149.827 149.827;"
	 xml:space="preserve">
<g>
	<path d="M88.734,68.967H73.438V53.676c0-1.545-1.252-2.802-2.801-2.802H48.004c-1.545,0-2.801,1.256-2.801,2.802v15.292H29.906
		c-1.545,0-2.802,1.263-2.802,2.799v22.633c0,1.547,1.257,2.801,2.802,2.801h15.297v15.301c0,1.542,1.256,2.801,2.801,2.801h22.633
		c1.549,0,2.801-1.259,2.801-2.801V97.2h15.296c1.547,0,2.802-1.254,2.802-2.801V71.767C91.536,70.23,90.281,68.967,88.734,68.967z
		 M85.933,91.607H70.637c-1.545,0-2.802,1.26-2.802,2.802v15.295H50.807V94.409c0-1.542-1.253-2.802-2.803-2.802H32.708V74.579
		h15.296c1.55,0,2.803-1.257,2.803-2.802v-15.3h17.028v15.289c0,1.548,1.256,2.802,2.802,2.802h15.296V91.607z M111.769,42.913
		H95.514v-0.011c0-2.18,0.562-4.052,1.662-5.598c1.094-1.57,3.162-3.406,6.205-5.554c1.364-0.941,2.32-1.814,2.883-2.604
		c0.563-0.791,0.826-1.669,0.826-2.641c0-1.054-0.3-1.916-0.911-2.547c-0.599-0.651-1.42-0.977-2.419-0.977
		c-1.074,0-1.906,0.405-2.503,1.218c-0.597,0.804-0.881,1.904-0.837,3.288h-4.58c-0.093-2.583,0.585-4.628,2.024-6.159
		c1.441-1.513,3.403-2.263,5.938-2.263c2.344,0,4.263,0.695,5.757,2.096c1.484,1.382,2.218,3.187,2.218,5.396
		c0,1.809-0.424,3.31-1.27,4.492c-0.845,1.193-2.438,2.528-4.758,4.008c-2.149,1.36-3.614,2.605-4.398,3.702l-0.015,0.042h10.427
		L111.769,42.913L111.769,42.913z M123.618,42.913h4.605v-5.255h2.683v-3.732h-2.683V19.065h-2.626h-2.619l-8.812,14.535v2.029
		v2.028h9.451V42.913z M117.632,33.93l0.195-0.33l5.79-9.599v9.923h-5.985V33.93z M105.669,46.768h1.279v12.277h-1.279h-1.287v-5.56
		h-4.8v5.56h-1.285h-1.28V46.768h1.28h1.285v4.605h4.8v-4.605H105.669z M119.216,57.457l-0.058-2.01
		c-0.027-0.985-0.391-1.686-1.097-2.102c-0.112-0.085-0.257-0.134-0.41-0.205c0.27-0.102,0.509-0.22,0.723-0.367
		c0.804-0.536,1.2-1.401,1.2-2.583c0-1.023-0.351-1.85-1.069-2.465c-0.715-0.621-1.658-0.941-2.834-0.941h-4.908h-1.287v12.271
		h1.287h1.28v-4.859h2.56c0.729,0,1.26,0.122,1.562,0.35c0.317,0.246,0.481,0.632,0.49,1.188l0.019,1.144
		c0.005,0.47,0.033,0.93,0.08,1.343c0.061,0.427,0.121,0.7,0.177,0.818h2.835v-0.33c-0.205-0.102-0.347-0.231-0.407-0.397
		C119.271,58.141,119.228,57.862,119.216,57.457z M116.502,51.72c-0.328,0.277-0.813,0.405-1.488,0.405h-2.977v-3.25h3.074
		c0.63,0,1.101,0.133,1.418,0.396c0.323,0.281,0.477,0.678,0.477,1.222C117.006,51.049,116.838,51.446,116.502,51.72z
		 M130.392,53.122c0.59,0.516,0.901,1.345,0.901,2.494c0,1.146-0.448,2.061-1.362,2.739c-0.906,0.679-2.14,1.015-3.684,1.015
		c-1.552,0-2.769-0.348-3.638-1.064c-0.87-0.717-1.336-1.749-1.41-3.082h2.479c0.02,0.667,0.261,1.159,0.706,1.517
		c0.443,0.348,1.064,0.533,1.863,0.533c0.821,0,1.461-0.128,1.918-0.402c0.452-0.266,0.692-0.618,0.692-1.088
		c0-0.465-0.158-0.808-0.497-1.026c-0.329-0.216-1.018-0.446-2.072-0.676c-1.95-0.432-3.258-0.903-3.908-1.415
		c-0.645-0.503-0.98-1.283-0.98-2.342c0-1.204,0.429-2.145,1.293-2.846c0.869-0.689,2.028-1.048,3.503-1.048
		c1.377,0,2.493,0.353,3.353,1.086c0.864,0.711,1.346,1.699,1.446,2.92h-2.492c-0.043-0.583-0.312-1.054-0.78-1.391
		c-0.467-0.339-1.069-0.509-1.816-0.509c-0.653,0-1.162,0.134-1.527,0.427c-0.368,0.29-0.555,0.684-0.555,1.199
		c0,0.358,0.187,0.645,0.58,0.839c0.372,0.208,1.177,0.448,2.419,0.723C128.59,52.141,129.791,52.601,130.392,53.122z
		 M149.827,39.219c0-20.082-16.339-36.421-36.421-36.421c-17.429,0-32.017,12.312-35.573,28.689
		c-6.084-0.898-12.287-1.428-18.521-1.428c-20.714,0-40.724,5.01-57.862,14.462c-0.961,0.525-1.52,1.562-1.442,2.659
		c3.184,42.885,24.824,80.066,57.888,99.465c0.437,0.263,0.931,0.384,1.417,0.384c0.488,0,0.983-0.121,1.417-0.384
		c24.886-14.6,43.91-40.395,52.714-71.005C133.511,75.619,149.827,59.285,149.827,39.219z M59.317,140.96
		C29.101,122.546,9.203,88.237,5.745,48.572c15.958-8.45,34.438-12.91,53.572-12.91c5.981,0,11.938,0.509,17.782,1.379
		c-0.039,0.722-0.113,1.445-0.113,2.178c0,18.15,13.355,33.204,30.753,35.934C99.367,103.346,82.001,127.11,59.317,140.96z
		 M113.794,70.016c-0.359-0.416-0.809-0.761-1.374-0.909c-0.961-0.262-1.913,0.063-2.594,0.701
		c-15.306-1.775-27.229-14.815-27.229-30.588c0-16.988,13.822-30.818,30.818-30.818s30.82,13.831,30.82,30.818
		C144.223,56.092,130.604,69.812,113.794,70.016z"/>
</g>
<g>
</g>
<g>
</g>
<g>
</g>
<g>
</g>
<g>
</g>
<g>
</g>
<g>
</g>
<g>
</g>
<g>
</g>
<g>
</g>
<g>
</g>
<g>
</g>
<g>
</g>
<g>
</g>
<g>
</g>
</svg>
