<?xml version="1.0" encoding="iso-8859-1"?>
<!-- Generator: Adobe Illustrator 16.0.0, SVG Export Plug-In . SVG Version: 6.00 Build 0)  -->
<!DOCTYPE svg PUBLIC "-//W3C//DTD SVG 1.1//EN" "http://www.w3.org/Graphics/SVG/1.1/DTD/svg11.dtd">
<svg version="1.1" id="Capa_1" xmlns="http://www.w3.org/2000/svg" xmlns:xlink="http://www.w3.org/1999/xlink" x="0px" y="0px"
	 width="144.855px" height="144.854px" viewBox="0 0 144.855 144.854" style="enable-background:new 0 0 144.855 144.854;"
	 xml:space="preserve">
<g>
	<path d="M123.394,27.385H34.768v-6.421h27.25c1.541,0,2.802-1.25,2.802-2.802c0-1.535-1.261-2.802-2.802-2.802H2.803
		C1.253,15.36,0,16.627,0,18.162c0,1.552,1.253,2.802,2.803,2.802h26.36v6.597C13.524,29.191,1.276,42.447,1.276,58.512
		c0,10.897,5.65,20.507,14.162,26.066v8.897h-2.78c-1.541,0-2.802,1.258-2.802,2.802c0,1.555,1.261,2.802,2.802,2.802h39.48
		c1.546,0,2.802-1.247,2.802-2.802c0-1.544-1.256-2.802-2.802-2.802h-2.769v-8.908c7.902-5.165,13.302-13.816,14.04-23.759
		l50.695-10.712c0.776-0.164,1.443-0.657,1.849-1.346l9.872-17.163c0.494-0.856,0.494-1.926-0.011-2.791
		C125.309,27.913,124.39,27.385,123.394,27.385z M29.59,33.275v19.426H7.604C10.047,42.323,18.811,34.468,29.59,33.275z
		 M43.774,93.476H21.045v-6.019c3.525,1.389,7.347,2.177,11.346,2.177c4.025,0,7.839-0.788,11.369-2.177v6.019H43.774z
		 M32.392,84.031c-14.063,0-25.519-11.448-25.519-25.519c0-0.084,0.03-0.128,0.03-0.208h25.489c1.546,0,2.802-1.256,2.802-2.802
		V33.275c12.742,1.412,22.729,12.107,22.729,25.237C57.922,72.583,46.474,84.031,32.392,84.031z M111.716,44.868L63.327,55.101
		c-1.004-9.141-5.977-17.098-13.174-22.107h68.392L111.716,44.868z M144.855,23.098c0,1.554-1.248,2.802-2.802,2.802h-8.984v8.999
		c0,1.554-1.26,2.801-2.801,2.801c-1.556,0-2.802-1.247-2.802-2.801v-8.999h-9.007c-1.545,0-2.802-1.248-2.802-2.802
		c0-1.54,1.257-2.802,2.802-2.802h9.007v-8.998c0-1.551,1.246-2.802,2.802-2.802c1.541,0,2.801,1.25,2.801,2.802v8.993h8.984
		C143.607,20.295,144.855,21.553,144.855,23.098z M48.502,66.239c0,1.551-1.256,2.802-2.801,2.802h-3.198v3.205
		c0,1.554-1.256,2.801-2.802,2.801c-1.55,0-2.803-1.247-2.803-2.801v-3.205h-3.206c-1.545,0-2.801-1.25-2.801-2.802
		c0-1.534,1.256-2.801,2.801-2.801h3.206v-3.199c0-1.554,1.253-2.801,2.803-2.801c1.545,0,2.802,1.247,2.802,2.801v3.199h3.198
		C47.251,63.438,48.502,64.698,48.502,66.239z M109.539,57.224c-0.481-0.678-1.248-1.093-2.079-1.149
		c-0.821-0.057-1.652,0.263-2.222,0.873c-3.47,3.688-6.774,7.442-10.077,11.196c-2.712,3.111-5.453,6.198-8.274,9.267
		c-0.899,0.975-0.998,2.446-0.219,3.524c1.509,2.111,3.172,4.213,4.813,6.271c1.116,1.4,2.21,2.769,3.208,4.104
		c-10.506,10.09-26.491,20.004-40.371,25.072c-1.837-3.896-3.721-7.804-5.65-11.743c-0.598-1.226-1.989-1.828-3.311-1.465
		c-3.898,1.147-7.811,2.187-11.704,3.194c-4.876,1.285-9.757,2.56-14.66,4.087c-0.796,0.252-1.438,0.815-1.754,1.592
		c-0.312,0.783-0.273,1.632,0.112,2.394c4.422,8.425,10.271,15.955,16.468,21.17c0.481,0.406,1.07,0.635,1.705,0.668
		c1.205,0.043,2.438,0.081,3.67,0.081c13.19,0,32.803-2.725,51.28-15.754c13.511-9.499,23.755-22.062,30.47-37.373
		c0.252-0.58,0.305-1.248,0.13-1.858C118.623,72.529,114.748,64.4,109.539,57.224z M87.256,116.042
		c-17.283,12.169-35.685,14.722-48.062,14.722c-0.835,0-1.665-0.013-2.477-0.035c-4.667-4.102-9.104-9.652-12.742-15.9
		c3.71-1.084,7.407-2.059,11.112-3.031c3.192-0.833,6.399-1.675,9.591-2.584c1.93,3.962,3.812,7.902,5.651,11.825
		c0.587,1.285,2.048,1.932,3.406,1.472c16.152-5.318,34.899-16.95,46.631-28.946c0.941-0.952,1.056-2.458,0.307-3.562
		c-1.391-1.997-3.076-4.109-4.805-6.287c-1.105-1.391-2.227-2.791-3.295-4.22c2.301-2.533,4.548-5.095,6.797-7.654
		c2.495-2.857,5.007-5.702,7.589-8.515c3.661,5.647,6.504,11.885,8.45,18.571C109.112,95.861,99.645,107.342,87.256,116.042z"/>
</g>
<g>
</g>
<g>
</g>
<g>
</g>
<g>
</g>
<g>
</g>
<g>
</g>
<g>
</g>
<g>
</g>
<g>
</g>
<g>
</g>
<g>
</g>
<g>
</g>
<g>
</g>
<g>
</g>
<g>
</g>
</svg>
