<?xml version="1.0" encoding="iso-8859-1"?>
<!-- Generator: Adobe Illustrator 16.0.0, SVG Export Plug-In . SVG Version: 6.00 Build 0)  -->
<!DOCTYPE svg PUBLIC "-//W3C//DTD SVG 1.1//EN" "http://www.w3.org/Graphics/SVG/1.1/DTD/svg11.dtd">
<svg version="1.1" id="Capa_1" xmlns="http://www.w3.org/2000/svg" xmlns:xlink="http://www.w3.org/1999/xlink" x="0px" y="0px"
	 width="92.455px" height="92.456px" viewBox="0 0 92.455 92.456" style="enable-background:new 0 0 92.455 92.456;"
	 xml:space="preserve">
<g>
	<path d="M75.646,23.344H62.571v-8.405c0-1.541-1.254-2.802-2.802-2.802H49.027V5.604h10.271c1.551,0,2.802-1.25,2.802-2.801
		C62.101,1.262,60.85,0,59.299,0H46.254c-0.011,0-0.015,0-0.028,0c-0.01,0-0.014,0-0.027,0h-13.05c-1.539,0-2.802,1.262-2.802,2.803
		c0,1.55,1.263,2.801,2.802,2.801h10.277v6.533H32.683c-1.546,0-2.802,1.261-2.802,2.802v8.405H16.81
		c-1.541,0-2.801,1.262-2.801,2.801v63.509c0,1.554,1.261,2.802,2.801,2.802h58.836c1.541,0,2.802-1.248,2.802-2.802V26.145
		C78.447,24.605,77.187,23.344,75.646,23.344z M32.683,28.948c1.545,0,2.801-1.251,2.801-2.803V17.74h21.483v8.405
		c0,1.552,1.253,2.803,2.802,2.803h13.074V49.49H19.611V28.948H32.683z M19.611,86.852v-31.76h53.232v31.76H19.611z M40.002,69.101
		c0,2.582-2.09,4.673-4.662,4.673c-2.583,0-4.672-2.091-4.672-4.673c0-2.572,2.089-4.66,4.672-4.66
		C37.912,64.441,40.002,66.529,40.002,69.101z M54.008,67.241c0,1.543-1.254,2.802-2.802,2.802c-1.544,0-2.8-1.259-2.8-2.802
		c0-1.555,1.256-2.8,2.8-2.8C52.754,64.441,54.008,65.686,54.008,67.241z M67.556,66.299c0,2.32-1.882,4.202-4.202,4.202
		c-2.318,0-4.203-1.882-4.203-4.202s1.885-4.203,4.203-4.203C65.674,62.096,67.556,63.979,67.556,66.299z M64.286,80.778
		c0,2.32-1.886,4.202-4.203,4.202c-2.321,0-4.202-1.882-4.202-4.202s1.881-4.202,4.202-4.202
		C62.4,76.576,64.286,78.458,64.286,80.778z"/>
</g>
<g>
</g>
<g>
</g>
<g>
</g>
<g>
</g>
<g>
</g>
<g>
</g>
<g>
</g>
<g>
</g>
<g>
</g>
<g>
</g>
<g>
</g>
<g>
</g>
<g>
</g>
<g>
</g>
<g>
</g>
</svg>
