<?xml version="1.0" encoding="iso-8859-1"?>
<!-- Generator: Adobe Illustrator 16.0.0, SVG Export Plug-In . SVG Version: 6.00 Build 0)  -->
<!DOCTYPE svg PUBLIC "-//W3C//DTD SVG 1.1//EN" "http://www.w3.org/Graphics/SVG/1.1/DTD/svg11.dtd">
<svg version="1.1" id="Capa_1" xmlns="http://www.w3.org/2000/svg" xmlns:xlink="http://www.w3.org/1999/xlink" x="0px" y="0px"
	 width="91.815px" height="91.815px" viewBox="0 0 91.815 91.815" style="enable-background:new 0 0 91.815 91.815;"
	 xml:space="preserve">
<g>
	<path d="M77.989,16.934h-6.495v-4.724c0-1.542-1.258-2.803-2.801-2.803H23.985c-1.542,0-2.802,1.262-2.802,2.803v4.724h-7.375
		c-1.546,0-2.802,1.253-2.802,2.802v69.278c0,1.548,1.256,2.802,2.802,2.802h64.198c1.545,0,2.802-1.254,2.802-2.802V19.735
		C80.791,18.187,79.539,16.934,77.989,16.934z M23.973,22.537c1.545,0,2.801-1.256,2.801-2.802V15.01H65.88v4.725
		c0,1.546,1.261,2.802,2.802,2.802h6.495v15.817H16.68c-0.036,0-0.059,0.019-0.091,0.019V22.537H23.973z M16.594,86.212V43.935
		c0.033,0,0.056,0.022,0.09,0.022h58.498v42.255H16.594z M21.683,2.803C21.683,1.256,22.941,0,24.484,0h43.689
		c1.55,0,2.802,1.256,2.802,2.803c0,1.539-1.252,2.801-2.802,2.801H24.484C22.932,5.604,21.683,4.342,21.683,2.803z M34.003,64.591
		c-2.818,0-5.1-2.286-5.1-5.1c0-2.812,2.282-5.077,5.1-5.077c2.812,0,5.089,2.265,5.089,5.077
		C39.092,62.305,36.815,64.591,34.003,64.591z M54.384,57.461c0,1.69-1.367,3.054-3.061,3.054c-1.691,0-3.06-1.363-3.06-3.054
		c0-1.701,1.368-3.054,3.06-3.054C53.017,54.408,54.384,55.771,54.384,57.461z M69.153,56.438c0,2.54-2.048,4.586-4.584,4.586
		c-2.53,0-4.582-2.046-4.582-4.586c0-2.527,2.052-4.574,4.582-4.574C67.105,51.864,69.153,53.911,69.153,56.438z M45.237,73.415
		c0,2.521-2.048,4.577-4.576,4.577c-2.533,0-4.589-2.057-4.589-4.577c0-2.541,2.056-4.588,4.589-4.588
		C43.189,68.827,45.237,70.874,45.237,73.415z M65.59,72.242c0,2.522-2.045,4.58-4.58,4.58c-2.517,0-4.575-2.058-4.575-4.58
		c0-2.539,2.059-4.597,4.575-4.597C63.533,67.645,65.59,69.703,65.59,72.242z"/>
</g>
<g>
</g>
<g>
</g>
<g>
</g>
<g>
</g>
<g>
</g>
<g>
</g>
<g>
</g>
<g>
</g>
<g>
</g>
<g>
</g>
<g>
</g>
<g>
</g>
<g>
</g>
<g>
</g>
<g>
</g>
</svg>
