<?xml version="1.0" encoding="iso-8859-1"?>
<!-- Generator: Adobe Illustrator 16.0.0, SVG Export Plug-In . SVG Version: 6.00 Build 0)  -->
<!DOCTYPE svg PUBLIC "-//W3C//DTD SVG 1.1//EN" "http://www.w3.org/Graphics/SVG/1.1/DTD/svg11.dtd">
<svg version="1.1" id="Capa_1" xmlns="http://www.w3.org/2000/svg" xmlns:xlink="http://www.w3.org/1999/xlink" x="0px" y="0px"
	 width="103.2px" height="103.2px" viewBox="0 0 103.2 103.2" style="enable-background:new 0 0 103.2 103.2;" xml:space="preserve"
	>
<g>
	<path d="M70.052,31.701c0,3.098-2.506,5.604-5.604,5.604h-7.956v7.956c0,3.098-2.506,5.603-5.602,5.603
		c-3.102,0-5.605-2.505-5.605-5.603v-7.956h-7.967c-3.099,0-5.603-2.506-5.603-5.604c0-3.1,2.504-5.603,5.603-5.603h7.967v-7.959
		c0-3.097,2.503-5.604,5.605-5.604c3.096,0,5.602,2.507,5.602,5.604v7.959h7.956C67.546,26.098,70.052,28.601,70.052,31.701z
		 M49.499,62.205C21.746,62.205,0,49.069,0,32.317C0,15.551,21.746,2.429,49.499,2.429c27.754,0,49.488,13.122,49.488,29.888
		C98.987,49.069,77.253,62.205,49.499,62.205z M93.385,32.317c0-13.168-20.092-24.285-43.886-24.285
		c-23.792,0-43.896,11.117-43.896,24.285c0,13.174,20.105,24.285,43.896,24.285C73.293,56.602,93.385,45.48,93.385,32.317z
		 M103.2,72.473c0,7.461-6.071,13.535-13.548,13.535c-7.464,0-13.538-6.074-13.538-13.535c0-7.466,6.074-13.54,13.538-13.54
		C97.129,58.933,103.2,65.007,103.2,72.473z M97.598,72.473c0-4.38-3.568-7.938-7.945-7.938c-4.378,0-7.935,3.558-7.935,7.938
		c0,4.375,3.557,7.933,7.935,7.933C94.029,80.405,97.598,76.848,97.598,72.473z M78.732,91.141c0,5.308-4.314,9.631-9.622,9.631
		c-5.309,0-9.629-4.323-9.629-9.631c0-5.309,4.315-9.619,9.629-9.619S78.732,85.827,78.732,91.141z M73.126,91.141
		c0-2.21-1.803-4.017-4.016-4.017c-2.222,0-4.025,1.807-4.025,4.017c0,2.222,1.804,4.027,4.025,4.027
		C71.323,95.163,73.126,93.362,73.126,91.141z"/>
</g>
<g>
</g>
<g>
</g>
<g>
</g>
<g>
</g>
<g>
</g>
<g>
</g>
<g>
</g>
<g>
</g>
<g>
</g>
<g>
</g>
<g>
</g>
<g>
</g>
<g>
</g>
<g>
</g>
<g>
</g>
</svg>
