<?xml version="1.0" encoding="iso-8859-1"?>
<!-- Generator: Adobe Illustrator 16.0.0, SVG Export Plug-In . SVG Version: 6.00 Build 0)  -->
<!DOCTYPE svg PUBLIC "-//W3C//DTD SVG 1.1//EN" "http://www.w3.org/Graphics/SVG/1.1/DTD/svg11.dtd">
<svg version="1.1" id="Capa_1" xmlns="http://www.w3.org/2000/svg" xmlns:xlink="http://www.w3.org/1999/xlink" x="0px" y="0px"
	 width="124.612px" height="124.612px" viewBox="0 0 124.612 124.612" style="enable-background:new 0 0 124.612 124.612;"
	 xml:space="preserve">
<g>
	<path d="M99.999,118.559h-15.03c17.04-7.24,29.027-24.157,29.027-43.811c0-24.547-18.678-44.801-42.569-47.318l7.648-11.718
		c0.916-1.383,0.521-3.266-0.869-4.182L61.434,0.498c-0.677-0.443-1.483-0.594-2.281-0.438c-0.786,0.166-1.478,0.63-1.913,1.31
		L38.338,30.312c-0.914,1.392-0.52,3.269,0.872,4.185l1.67,1.099l-4.54,6.942c-0.913,1.393-0.52,3.263,0.872,4.176l8.39,5.527
		c0.497,0.328,1.076,0.496,1.664,0.496c0.204,0,0.411-0.018,0.618-0.059c0.786-0.166,1.475-0.635,1.912-1.315l4.528-6.937
		l1.658,1.097c0.497,0.328,1.076,0.496,1.664,0.496c0.207,0,0.411-0.018,0.618-0.062c0.786-0.163,1.478-0.63,1.918-1.312
		l7.438-11.384c22.331,0.635,40.335,18.973,40.335,41.47c0,22.904-18.631,41.535-41.526,41.535
		c-21.178,0-38.671-15.941-41.189-36.44l5.479,3.618c0.508,0.336,1.087,0.496,1.658,0.496c0.987,0,1.947-0.479,2.53-1.365
		c0.919-1.39,0.532-3.275-0.866-4.186L15.3,66.047c-1.392-0.916-3.274-0.531-4.188,0.863c-0.913,1.401-0.532,3.269,0.866,4.191
		l6.906,4.545c0.364,19.275,12.2,35.784,28.986,42.912H32.377c-1.673,0-3.026,1.359-3.026,3.026c0,1.673,1.354,3.026,3.026,3.026
		h67.634c1.666,0,3.025-1.354,3.025-3.026C103.037,119.918,101.677,118.559,99.999,118.559z M46.388,45.523l-3.336-2.19l2.881-4.406
		l3.331,2.184L46.388,45.523z M56.762,38.805l-11.718-7.708L60.642,7.221l11.718,7.71L56.762,38.805z"/>
</g>
<g>
</g>
<g>
</g>
<g>
</g>
<g>
</g>
<g>
</g>
<g>
</g>
<g>
</g>
<g>
</g>
<g>
</g>
<g>
</g>
<g>
</g>
<g>
</g>
<g>
</g>
<g>
</g>
<g>
</g>
</svg>
