<?xml version="1.0" encoding="iso-8859-1"?>
<!-- Generator: Adobe Illustrator 16.0.0, SVG Export Plug-In . SVG Version: 6.00 Build 0)  -->
<!DOCTYPE svg PUBLIC "-//W3C//DTD SVG 1.1//EN" "http://www.w3.org/Graphics/SVG/1.1/DTD/svg11.dtd">
<svg version="1.1" id="Capa_1" xmlns="http://www.w3.org/2000/svg" xmlns:xlink="http://www.w3.org/1999/xlink" x="0px" y="0px"
	 width="107.349px" height="107.349px" viewBox="0 0 107.349 107.349" style="enable-background:new 0 0 107.349 107.349;"
	 xml:space="preserve">
<g>
	<path d="M91.485,25.316c-8.75,0-15.867,7.116-15.867,15.869V59.59c-2.885-0.897-5.928-1.172-8.913-0.821V32.101h2
		c1.538,0,2.804-1.256,2.804-2.801V10.77c0-1.547-1.266-2.803-2.804-2.803H2.801C1.26,7.966,0,9.222,0,10.77v18.53
		c0,1.545,1.26,2.801,2.801,2.801h2.001v64.474c0,1.537,1.256,2.802,2.802,2.802H63.89c0.504,0,0.952-0.169,1.357-0.394
		c1.299,0.258,2.654,0.399,4.021,0.399c0,0,0,0,0.006,0c4.62,0,8.969-1.608,12.554-4.415c2.769,2.135,6.095,3.349,9.651,3.349
		c8.756,0,15.869-7.114,15.869-15.869V41.185C107.354,32.432,100.235,25.316,91.485,25.316z M91.485,30.919
		c5.658,0,10.266,4.604,10.266,10.266v17.141H81.222V41.185C81.222,35.523,85.821,30.919,91.485,30.919z M79.914,68.388
		c5.089,5.177,5.612,13.166,1.629,18.923l-20.53-20.87c2.434-1.631,5.281-2.512,8.278-2.512
		C73.308,63.934,77.089,65.521,79.914,68.388z M5.609,13.564h60.294v12.928H5.609V13.564z M10.405,93.768V32.096h50.697v9.474
		H27.305c-1.541,0-2.801,1.256-2.801,2.802c0,1.549,1.261,2.802,2.801,2.802h33.797v7.065H36.174c-1.546,0-2.802,1.258-2.802,2.802
		c0,1.542,1.256,2.802,2.802,2.802h24.927v0.35c-2.278,0.94-4.407,2.255-6.213,4.033c-0.844,0.837-1.558,1.745-2.225,2.687H36.186
		c-1.541,0-2.802,1.253-2.802,2.802c0,1.542,1.261,2.802,2.802,2.802h13.688c-0.756,2.287-1.103,4.673-1.017,7.064H36.174
		c-1.546,0-2.802,1.264-2.802,2.801c0,1.538,1.256,2.802,2.802,2.802h13.672c0.94,2.928,2.494,5.719,4.79,8.061
		c0.191,0.197,0.428,0.339,0.63,0.525H10.405L10.405,93.768z M69.274,93.773c-4.027,0-7.803-1.588-10.627-4.46
		c-5.097-5.177-5.611-13.153-1.617-18.934L77.56,91.256C75.124,92.887,72.262,93.773,69.274,93.773L69.274,93.773z M91.485,92.705
		c-2.074,0-4.055-0.601-5.729-1.748c5.855-7.97,5.298-19.231-1.85-26.497c-0.196-0.197-0.438-0.34-0.654-0.537h18.51V82.44
		C101.751,88.109,97.144,92.705,91.485,92.705z"/>
</g>
<g>
</g>
<g>
</g>
<g>
</g>
<g>
</g>
<g>
</g>
<g>
</g>
<g>
</g>
<g>
</g>
<g>
</g>
<g>
</g>
<g>
</g>
<g>
</g>
<g>
</g>
<g>
</g>
<g>
</g>
</svg>
