<?xml version="1.0" encoding="iso-8859-1"?>
<!-- Generator: Adobe Illustrator 16.0.0, SVG Export Plug-In . SVG Version: 6.00 Build 0)  -->
<!DOCTYPE svg PUBLIC "-//W3C//DTD SVG 1.1//EN" "http://www.w3.org/Graphics/SVG/1.1/DTD/svg11.dtd">
<svg version="1.1" id="Capa_1" xmlns="http://www.w3.org/2000/svg" xmlns:xlink="http://www.w3.org/1999/xlink" x="0px" y="0px"
	 width="116.728px" height="116.728px" viewBox="0 0 116.728 116.728" style="enable-background:new 0 0 116.728 116.728;"
	 xml:space="preserve">
<g>
	<path d="M58.38,32.515c-11.067,0-20.06,8.993-20.06,20.046c0,11.057,8.993,20.063,20.06,20.063c11.059,0,20.05-9.007,20.05-20.063
		C78.43,41.508,69.438,32.515,58.38,32.515z M58.38,67.021c-7.967,0-14.457-6.49-14.457-14.46c0-7.967,6.49-14.443,14.457-14.443
		c7.967,0,14.446,6.476,14.446,14.443C72.826,60.53,66.347,67.021,58.38,67.021z M67.015,49.838c1.549,0,2.802,1.256,2.802,2.802
		c0,1.541-1.253,2.801-2.802,2.801h-5.833v6.195c0,1.55-1.262,2.802-2.802,2.802c-1.552,0-2.802-1.252-2.802-2.802v-6.195h-5.833
		c-1.55,0-2.802-1.261-2.802-2.801c0-1.546,1.251-2.802,2.802-2.802h5.833v-5.463c0-1.552,1.25-2.802,2.802-2.802
		c1.54,0,2.802,1.25,2.802,2.802v5.463H67.015z M102.737,23.201H82.582v-8.757c0-3.313-3.13-5.896-7.118-5.896H41.28
		c-4.001,0-7.121,2.583-7.121,5.896v8.757H14.008C6.282,23.201,0,29.483,0,37.21v56.962c0,7.728,6.282,14.009,14.008,14.009h88.712
		c7.727,0,14.008-6.281,14.008-14.009V37.21C116.744,29.483,110.465,23.201,102.737,23.201z M80.555,72.23
		c-1.54,0-2.802,1.258-2.802,2.802v2.812H38.999v-2.812c0-1.544-1.251-2.802-2.802-2.802c-1.54,0-2.801,1.258-2.801,2.802v2.812
		H26.93c-2.837,0-5.144-2.309-5.144-5.143V28.804h73.19v43.897c0,2.834-2.31,5.143-5.144,5.143h-6.479v-2.812
		C83.354,73.478,82.101,72.23,80.555,72.23z M39.721,14.662c0.091-0.142,0.635-0.518,1.566-0.518h34.193
		c0.893,0,1.434,0.405,1.511,0.288v8.763H39.767L39.721,14.662z M111.142,94.172c0,4.641-3.764,8.405-8.404,8.405H14.024
		c-4.639,0-8.405-3.765-8.405-8.405V37.21c0-4.641,3.766-8.406,8.405-8.406h2.159v43.897c0,5.932,4.812,10.746,10.747,10.746h6.466
		v2.791c0,1.555,1.261,2.802,2.801,2.802c1.551,0,2.802-1.247,2.802-2.802v-2.791h38.754v2.791c0,1.555,1.262,2.802,2.802,2.802
		c1.546,0,2.8-1.247,2.8-2.802v-2.791h6.479c5.933,0,10.747-4.814,10.747-10.746V28.804h2.157c4.641,0,8.404,3.765,8.404,8.406
		V94.172z"/>
</g>
<g>
</g>
<g>
</g>
<g>
</g>
<g>
</g>
<g>
</g>
<g>
</g>
<g>
</g>
<g>
</g>
<g>
</g>
<g>
</g>
<g>
</g>
<g>
</g>
<g>
</g>
<g>
</g>
<g>
</g>
</svg>
