<?xml version="1.0" encoding="iso-8859-1"?>
<!-- Generator: Adobe Illustrator 16.0.0, SVG Export Plug-In . SVG Version: 6.00 Build 0)  -->
<!DOCTYPE svg PUBLIC "-//W3C//DTD SVG 1.1//EN" "http://www.w3.org/Graphics/SVG/1.1/DTD/svg11.dtd">
<svg version="1.1" id="Capa_1" xmlns="http://www.w3.org/2000/svg" xmlns:xlink="http://www.w3.org/1999/xlink" x="0px" y="0px"
	 width="87.482px" height="87.482px" viewBox="0 0 87.482 87.482" style="enable-background:new 0 0 87.482 87.482;"
	 xml:space="preserve">
<g>
	<path d="M71.061,46.38c-4.511-4.442-10.486-6.892-16.823-6.892c-2.826,0-5.546,0.569-8.133,1.5V18.43
		C46.104,8.271,37.839,0,27.685,0C17.527,0,9.258,8.266,9.258,18.43v49.346c0,10.157,8.264,18.431,18.427,18.431
		c4.271,0,8.266-1.521,11.527-4.159c4.266,3.46,9.475,5.435,15.036,5.435c6.479,0,12.554-2.545,17.111-7.17
		C80.624,70.874,80.498,55.65,71.061,46.38z M64.954,48.603l-25.41,25.806c-5.311-7.146-4.841-17.286,1.581-23.831
		c3.483-3.54,8.145-5.488,13.113-5.488C58.136,45.089,61.834,46.348,64.954,48.603z M27.685,5.598
		c7.073,0,12.816,5.757,12.816,12.826v21.048h-25.64V18.424C14.861,11.36,20.615,5.598,27.685,5.598z M14.861,67.765V45.079h24.162
		c-0.629,0.525-1.302,0.984-1.891,1.576c-8.481,8.629-8.998,22.053-1.83,31.377c-2.197,1.641-4.821,2.57-7.617,2.57
		C20.615,80.591,14.861,74.835,14.861,67.765z M67.349,76.367c-6.211,6.326-16.679,6.956-23.801,1.96l25.388-25.796
		C74.246,59.688,73.784,69.833,67.349,76.367z"/>
</g>
<g>
</g>
<g>
</g>
<g>
</g>
<g>
</g>
<g>
</g>
<g>
</g>
<g>
</g>
<g>
</g>
<g>
</g>
<g>
</g>
<g>
</g>
<g>
</g>
<g>
</g>
<g>
</g>
<g>
</g>
</svg>
