<?xml version="1.0" encoding="iso-8859-1"?>
<!-- Generator: Adobe Illustrator 16.0.0, SVG Export Plug-In . SVG Version: 6.00 Build 0)  -->
<!DOCTYPE svg PUBLIC "-//W3C//DTD SVG 1.1//EN" "http://www.w3.org/Graphics/SVG/1.1/DTD/svg11.dtd">
<svg version="1.1" id="Capa_1" xmlns="http://www.w3.org/2000/svg" xmlns:xlink="http://www.w3.org/1999/xlink" x="0px" y="0px"
	 width="89.79px" height="89.79px" viewBox="0 0 89.79 89.79" style="enable-background:new 0 0 89.79 89.79;" xml:space="preserve"
	>
<g>
	<path d="M22.066,40.47c-7.485,7.497-7.485,19.688,0,27.163c3.633,3.628,8.468,5.626,13.595,5.626c5.134,0,9.952-1.992,13.582-5.626
		c3.619-3.622,5.631-8.449,5.631-13.581c0-5.133-2.003-9.954-5.631-13.587C41.976,33.214,29.341,33.214,22.066,40.47z M45.27,63.671
		c-5.138,5.145-14.103,5.145-19.253,0c-5.293-5.291-5.293-13.926,0-19.239c2.573-2.566,5.993-3.983,9.634-3.983
		c3.63,0,7.053,1.412,9.619,3.978c2.572,2.572,3.988,5.987,3.988,9.625C49.258,57.685,47.842,61.105,45.27,63.671z M42.587,51.081
		l-2.964,2.965l2.964,2.971c1.093,1.089,1.093,2.867,0,3.963c-0.548,0.547-1.268,0.819-1.984,0.819
		c-0.717,0-1.434-0.277-1.984-0.819l-2.963-2.973l-2.971,2.973c-0.546,0.547-1.269,0.819-1.982,0.819
		c-0.711,0-1.435-0.277-1.984-0.819c-1.092-1.096-1.092-2.874,0-3.963l2.972-2.971l-2.972-2.965c-1.092-1.091-1.092-2.874,0-3.963
		c1.095-1.089,2.87-1.089,3.962,0l2.971,2.966l2.963-2.966c1.095-1.089,2.876-1.089,3.962,0
		C43.668,48.212,43.68,49.99,42.587,51.081z M85.21,23.737L65.977,4.491c-5.905-5.893-16.195-5.893-22.08,0L4.576,43.824
		C1.625,46.768,0,50.697,0,54.867c0.006,4.163,1.625,8.082,4.576,11.036L23.81,85.148c2.954,2.944,6.875,4.569,11.045,4.569
		c4.163,0,8.084-1.625,11.03-4.569l39.338-39.338c2.947-2.938,4.567-6.868,4.567-11.031C89.79,30.615,88.17,26.681,85.21,23.737z
		 M81.25,41.838L41.913,81.176c-3.78,3.786-10.368,3.776-14.143,0L8.537,61.932c-1.897-1.889-2.934-4.405-2.934-7.081
		s1.048-5.183,2.934-7.075l39.32-39.333c1.892-1.888,4.406-2.922,7.081-2.922c2.687,0,5.198,1.045,7.089,2.922l19.231,19.245
		c1.893,1.888,2.933,4.399,2.933,7.075S83.142,39.95,81.25,41.838z M47.681,12.513c-1.995,1.998-3.106,4.668-3.106,7.497
		c0,2.829,1.101,5.494,3.106,7.497c2,1.997,4.664,3.113,7.501,3.113c2.834,0,5.491-1.105,7.494-3.113
		c1.998-1.998,3.114-4.668,3.114-7.497c0-2.829-1.101-5.494-3.114-7.497C58.671,8.502,51.688,8.502,47.681,12.513z M58.717,23.54
		c-1.885,1.888-5.188,1.883-7.072,0c-0.94-0.941-1.467-2.205-1.467-3.535c0-1.329,0.526-2.599,1.467-3.54
		c0.941-0.941,2.207-1.461,3.537-1.461c1.332,0,2.592,0.52,3.535,1.461c0.938,0.941,1.47,2.211,1.47,3.54
		C60.187,21.34,59.655,22.598,58.717,23.54z"/>
</g>
<g>
</g>
<g>
</g>
<g>
</g>
<g>
</g>
<g>
</g>
<g>
</g>
<g>
</g>
<g>
</g>
<g>
</g>
<g>
</g>
<g>
</g>
<g>
</g>
<g>
</g>
<g>
</g>
<g>
</g>
</svg>
