<?xml version="1.0" encoding="iso-8859-1"?>
<!-- Generator: Adobe Illustrator 16.0.0, SVG Export Plug-In . SVG Version: 6.00 Build 0)  -->
<!DOCTYPE svg PUBLIC "-//W3C//DTD SVG 1.1//EN" "http://www.w3.org/Graphics/SVG/1.1/DTD/svg11.dtd">
<svg version="1.1" id="Capa_1" xmlns="http://www.w3.org/2000/svg" xmlns:xlink="http://www.w3.org/1999/xlink" x="0px" y="0px"
	 width="100.88px" height="100.879px" viewBox="0 0 100.88 100.879" style="enable-background:new 0 0 100.88 100.879;"
	 xml:space="preserve">
<g>
	<path d="M99.923,91.064c0,1.542-1.252,2.802-2.802,2.802H15.874c-1.546,0-2.802-1.26-2.802-2.802V86.39H2.802
		C1.261,86.39,0,85.131,0,83.589c0-1.543,1.261-2.802,2.802-2.802h10.27V70.051H2.802C1.261,70.051,0,68.792,0,67.25
		c0-1.544,1.261-2.801,2.802-2.801h10.27V53.711H2.802C1.261,53.711,0,52.454,0,50.91c0-1.542,1.261-2.802,2.802-2.802h10.27V37.367
		H2.802C1.261,37.367,0,36.111,0,34.565c0-1.546,1.261-2.802,2.802-2.802h10.27V21.022H2.802C1.261,21.022,0,19.766,0,18.221
		c0-1.546,1.261-2.802,2.802-2.802h10.27V9.816c0-1.546,1.256-2.802,2.802-2.802c1.547,0,2.801,1.255,2.801,2.802v78.446h78.446
		C98.671,88.262,99.923,89.52,99.923,91.064z M24.856,71.277c-0.941-1.237-0.7-2.988,0.544-3.918l30.823-23.346
		c0.6-0.465,1.376-0.662,2.134-0.534c0.756,0.118,1.429,0.546,1.863,1.171l6.69,9.686l23.813-18.702
		c0.232-0.178,0.493-0.279,0.761-0.38l-10.544-1.17c-1.532-0.175-2.646-1.56-2.469-3.095c0.172-1.54,1.494-2.648,3.104-2.476
		l16.81,1.866c0.766,0.084,1.467,0.481,1.928,1.094c0.458,0.617,0.655,1.395,0.529,2.15l-2.802,16.81
		c-0.229,1.373-1.415,2.343-2.756,2.343c-0.149,0-0.312-0.013-0.467-0.038c-1.521-0.252-2.562-1.697-2.302-3.225l1.564-9.372
		L68.05,60.584c-0.598,0.471-1.38,0.657-2.151,0.574c-0.766-0.114-1.448-0.552-1.888-1.182l-6.733-9.734L28.785,71.824
		c-0.506,0.372-1.099,0.574-1.692,0.574C26.246,72.393,25.4,72.01,24.856,71.277z M93.986,35.529
		c0.24,0.164,0.481,0.331,0.668,0.572c0.021,0.027,0.033,0.068,0.057,0.101l0.098-0.583L93.986,35.529z"/>
</g>
<g>
</g>
<g>
</g>
<g>
</g>
<g>
</g>
<g>
</g>
<g>
</g>
<g>
</g>
<g>
</g>
<g>
</g>
<g>
</g>
<g>
</g>
<g>
</g>
<g>
</g>
<g>
</g>
<g>
</g>
</svg>
