<?xml version="1.0" encoding="iso-8859-1"?>
<!-- Generator: Adobe Illustrator 16.0.0, SVG Export Plug-In . SVG Version: 6.00 Build 0)  -->
<!DOCTYPE svg PUBLIC "-//W3C//DTD SVG 1.1//EN" "http://www.w3.org/Graphics/SVG/1.1/DTD/svg11.dtd">
<svg version="1.1" id="Capa_1" xmlns="http://www.w3.org/2000/svg" xmlns:xlink="http://www.w3.org/1999/xlink" x="0px" y="0px"
	 width="139.929px" height="139.929px" viewBox="0 0 139.929 139.929" style="enable-background:new 0 0 139.929 139.929;"
	 xml:space="preserve">
<g>
	<path d="M12.977,53.144h8.865v8.854h-8.865V53.144z M35.127,53.144h-8.853v8.854h8.853V53.144z M48.423,53.144h-8.862v8.854h8.862
		V53.144z M61.719,53.144h-8.865v8.854h8.865V53.144z M75,53.144h-8.853v8.854H75V53.144z M12.977,75.525h8.865V66.66h-8.865V75.525
		z M35.127,66.66h-8.853v8.865h8.853V66.66z M48.423,66.66h-8.862v8.865h8.862V66.66z M12.977,89.051h8.865v-8.865h-8.865V89.051z
		 M139.929,41.639v16.273c0,1.536-1.247,2.802-2.801,2.802h-10.209v10.202c0,1.532-1.25,2.802-2.804,2.802h-16.273
		c-1.526,0-2.802-1.27-2.802-2.802V60.721H94.848c-1.54,0-2.802-1.268-2.802-2.803V41.646c0-1.541,1.262-2.803,2.802-2.803h10.192
		V28.635c0-1.541,1.275-2.801,2.802-2.801h16.273c1.554,0,2.804,1.261,2.804,2.801v10.208h10.209
		C138.688,38.837,139.929,40.1,139.929,41.639z M134.327,44.44h-10.211c-1.537,0-2.802-1.247-2.802-2.801V31.431h-10.67v10.208
		c0,1.554-1.247,2.801-2.802,2.801H97.65v10.671h10.192c1.555,0,2.802,1.25,2.802,2.801v10.203h10.67V57.918
		c0-1.551,1.265-2.802,2.802-2.802h10.211V44.44z M128.966,91.032c0.687,0.526,1.092,1.349,1.092,2.222
		c0,0.864-0.405,1.686-1.092,2.212c-1.107,0.864-27.493,20.979-54.755,20.979c-18.005,0-30.068-8.711-36.501-15.09
		c-0.326,0.118-0.657,0.195-1.026,0.195H2.803c-1.549,0-2.803-1.247-2.803-2.802V35.153c0-1.541,1.253-2.803,2.803-2.803h15.441
		v-6.062c0-1.542,1.268-2.803,2.802-2.803c1.552,0,2.802,1.262,2.802,2.803v6.062h40.276v-6.062c0-1.542,1.25-2.803,2.803-2.803
		c1.54,0,2.801,1.262,2.801,2.803v6.062h15.441c1.546,0,2.802,1.262,2.802,2.803v36.509
		C109.743,76.412,128.045,90.321,128.966,91.032z M88.247,93.253c0-8.162-6.648-14.807-14.812-14.807
		c-8.161,0-14.796,6.645-14.796,14.807c0,8.165,6.639,14.807,14.796,14.807C81.598,108.06,88.247,101.418,88.247,93.253z
		 M32.969,95.947c-0.487-0.647-0.759-1.073-0.829-1.181c-0.587-0.921-0.587-2.102,0-3.034c0.119-0.174,0.814-1.204,2.012-2.681
		h-7.877v-8.865h8.853v7.694c3.238-3.71,9.128-9.292,17.727-13.221v-8h8.865v4.947c1.426-0.351,2.904-0.646,4.432-0.876V66.66h8.854
		v3.448c2.47,0.032,4.936,0.251,7.359,0.579V37.954H69.727v4.498c0,1.543-1.268,2.801-2.801,2.801c-1.552,0-2.803-1.258-2.803-2.801
		v-4.498H23.847v4.498c0,1.543-1.25,2.801-2.802,2.801c-1.534,0-2.802-1.258-2.802-2.801v-4.498H5.604v57.993H32.969L32.969,95.947z
		 M60.185,108.629c-4.343-3.742-7.144-9.226-7.144-15.376c0-6.188,2.818-11.667,7.165-15.408
		c-12.146,3.907-19.564,12.021-22.237,15.397C40.642,96.614,48.083,104.711,60.185,108.629z M122.419,93.253
		c-6.183-4.18-20.771-13.013-36.783-16.263c4.964,3.722,8.214,9.599,8.214,16.263c0,6.659-3.261,12.553-8.224,16.273
		C101.661,106.289,116.248,97.446,122.419,93.253z M73.829,82.375c-5.994,0-10.875,4.869-10.875,10.878s4.881,10.861,10.875,10.861
		c6.008,0,10.878-4.853,10.878-10.861S79.842,82.375,73.829,82.375z"/>
</g>
<g>
</g>
<g>
</g>
<g>
</g>
<g>
</g>
<g>
</g>
<g>
</g>
<g>
</g>
<g>
</g>
<g>
</g>
<g>
</g>
<g>
</g>
<g>
</g>
<g>
</g>
<g>
</g>
<g>
</g>
</svg>
