<?xml version="1.0" encoding="iso-8859-1"?>
<!-- Generator: Adobe Illustrator 16.0.0, SVG Export Plug-In . SVG Version: 6.00 Build 0)  -->
<!DOCTYPE svg PUBLIC "-//W3C//DTD SVG 1.1//EN" "http://www.w3.org/Graphics/SVG/1.1/DTD/svg11.dtd">
<svg version="1.1" id="Capa_1" xmlns="http://www.w3.org/2000/svg" xmlns:xlink="http://www.w3.org/1999/xlink" x="0px" y="0px"
	 width="154.803px" height="154.802px" viewBox="0 0 154.803 154.802" style="enable-background:new 0 0 154.803 154.802;"
	 xml:space="preserve">
<g>
	<path d="M139.293,68.088c-8.535,0-15.48,6.945-15.48,15.48v17.047c-2.529-0.722-5.166-0.952-7.772-0.686V75.27h1.549
		c1.673,0,3.026-1.359,3.026-3.029V54.585c0-1.67-1.354-3.026-3.026-3.026h-17.413l4.167-26.058
		c0.112-0.706-0.083-1.371-0.396-1.947c0-0.036,0.012-0.068,0.012-0.104c0-11.147-26.049-16.981-51.779-16.981
		S0.405,12.303,0.405,23.451c0,0.012,0.009,0.023,0.009,0.035c-0.322,0.583-0.497,1.247-0.375,1.951l18.616,110.75
		c-0.006,0.059-0.035,0.117-0.035,0.165c0,9.457,21.086,11.981,33.561,11.981c11.771,0,27.196-2.093,32.025-7.974
		c0.012-0.013,0.023-0.013,0.035-0.024l0.006-0.012c0.012,0,0.012,0,0.012-0.012c0.026-0.023,0.026-0.053,0.051-0.076
		c0.213-0.272,0.346-0.58,0.505-0.869h28.206c0.509,0,0.952-0.154,1.384-0.379c1.217,0.236,2.47,0.379,3.747,0.379
		c4.397,0,8.523-1.49,11.969-4.103c2.648,1.969,5.828,3.086,9.197,3.086c8.535,0,15.486-6.939,15.486-15.475V83.557
		C154.773,75.034,147.84,68.088,139.293,68.088z M139.293,74.141c5.195,0,9.434,4.227,9.434,9.428v15.983h-18.85V83.569
		C129.871,78.368,134.104,74.141,139.293,74.141z M128.01,109.736c4.622,4.705,5.178,11.898,1.737,17.218l-18.926-19.245
		c2.175-1.359,4.681-2.11,7.306-2.11C121.88,105.604,125.391,107.058,128.01,109.736z M109.987,83.581H78.146
		c-1.67,0-3.026,1.359-3.026,3.026s1.356,3.026,3.026,3.026h31.841v6.018H86.604c-1.667,0-3.023,1.359-3.023,3.026
		c0,1.666,1.356,3.025,3.023,3.025h22.887c-1.927,0.893-3.747,2.021-5.313,3.559c-0.774,0.757-1.425,1.613-2.058,2.459H86.604
		c-1.667,0-3.023,1.359-3.023,3.026c0,1.673,1.356,3.026,3.023,3.026h12.543c-0.532,1.785-0.898,3.617-0.91,5.521
		c0,0.172,0.047,0.331,0.053,0.503H86.604c-1.667,0-3.023,1.354-3.023,3.025c0,1.674,1.356,3.027,3.023,3.027h12.75
		c0.934,2.76,2.411,5.313,4.504,7.465H62.403V75.27h47.579L109.987,83.581L109.987,83.581z M114.574,69.214h-56.74V57.612h56.74
		V69.214z M52.174,12.521c29.592,0,45.726,7.22,45.726,10.929c0,3.712-16.134,10.932-45.726,10.932
		c-29.586,0-45.723-7.22-45.723-10.932C6.458,19.742,22.594,12.521,52.174,12.521z M24.684,136.364
		c0.018-0.225,0.074-0.449,0.023-0.686L7.341,32.385c9.454,5.308,27.213,8.05,44.839,8.05c17.679,0,35.518-2.754,44.946-8.098
		l-3.074,19.222h-39.25c-1.664,0-3.026,1.356-3.026,3.026v17.655c0,1.67,1.362,3.029,3.026,3.029h1.549v61.059
		c0,1.679,1.362,3.026,3.026,3.026h14.86c-4.696,1.596-12.215,2.92-22.062,2.926C34.259,142.287,25.271,138.019,24.684,136.364z
		 M108.262,129.17c-2.595-2.63-4.008-6.124-3.973-9.817c0.03-2.666,0.822-5.201,2.234-7.4l18.903,19.216
		C120.083,134.378,112.719,133.705,108.262,129.17z M139.293,132.297c-1.762,0-3.434-0.509-4.912-1.413
		c5.396-7.678,4.771-18.317-1.979-25.292h16.313v17.283C148.721,128.077,144.494,132.297,139.293,132.297z"/>
</g>
<g>
</g>
<g>
</g>
<g>
</g>
<g>
</g>
<g>
</g>
<g>
</g>
<g>
</g>
<g>
</g>
<g>
</g>
<g>
</g>
<g>
</g>
<g>
</g>
<g>
</g>
<g>
</g>
<g>
</g>
</svg>
