<?xml version="1.0" encoding="iso-8859-1"?>
<!-- Generator: Adobe Illustrator 16.0.0, SVG Export Plug-In . SVG Version: 6.00 Build 0)  -->
<!DOCTYPE svg PUBLIC "-//W3C//DTD SVG 1.1//EN" "http://www.w3.org/Graphics/SVG/1.1/DTD/svg11.dtd">
<svg version="1.1" id="Capa_1" xmlns="http://www.w3.org/2000/svg" xmlns:xlink="http://www.w3.org/1999/xlink" x="0px" y="0px"
	 width="115.791px" height="115.791px" viewBox="0 0 115.791 115.791" style="enable-background:new 0 0 115.791 115.791;"
	 xml:space="preserve">
<g>
	<path d="M26.549,90.588h43.705c1.199,0,2.302-0.694,2.819-1.784l21.859-46.007c0.463-0.968,0.384-2.095-0.177-2.999
		c-0.578-0.904-1.564-1.452-2.643-1.452H77.92l5.328-8.208c5.065,0.268,9.986-2.024,12.988-6.165
		c2.368-3.261,3.33-7.246,2.703-11.231c-0.633-3.977-2.765-7.475-6.022-9.843c-3.258-2.378-7.258-3.343-11.24-2.707
		c-3.982,0.63-7.478,2.773-9.84,6.028c-3.015,4.141-3.675,9.535-1.866,14.261L55.399,38.337H4.707c-1.069,0-2.064,0.551-2.64,1.455
		c-0.566,0.904-0.643,2.037-0.18,2.999l21.848,46.007C24.247,89.888,25.337,90.588,26.549,90.588z M76.026,22.913
		c0.81-0.993,0.925-2.378,0.304-3.498c-1.687-3.021-1.479-6.753,0.536-9.53c1.395-1.912,3.44-3.167,5.778-3.535
		c2.345-0.369,4.677,0.194,6.595,1.583c1.912,1.392,3.167,3.443,3.538,5.775c0.365,2.338-0.195,4.677-1.589,6.589
		c-2.01,2.776-5.511,4.134-8.896,3.449c-1.261-0.256-2.533,0.292-3.228,1.361l-8.579,13.229h-7.049L76.026,22.913z M87.175,44.581
		L68.28,84.353H28.519L9.63,44.581H87.175z M114.205,62.62c0,1.724-1.4,3.118-3.118,3.118H93.824L79.667,98.084
		c-0.499,1.132-1.619,1.863-2.855,1.863h-53.98c-1.72,0-3.118-1.395-3.118-3.118s1.397-3.118,3.118-3.118h51.94l14.157-32.333
		c0.5-1.145,1.614-1.875,2.856-1.875h19.296C112.811,59.503,114.205,60.896,114.205,62.62z M41.811,108.575
		c0,3.994-3.23,7.216-7.207,7.216c-3.991,0-7.216-3.228-7.216-7.216c0-3.982,3.23-7.204,7.216-7.204
		C38.587,101.371,41.811,104.593,41.811,108.575z M67.477,108.575c0,3.994-3.242,7.216-7.222,7.216
		c-3.976,0-7.212-3.228-7.212-7.216c0-3.982,3.236-7.204,7.212-7.204C64.24,101.371,67.477,104.593,67.477,108.575z"/>
</g>
<g>
</g>
<g>
</g>
<g>
</g>
<g>
</g>
<g>
</g>
<g>
</g>
<g>
</g>
<g>
</g>
<g>
</g>
<g>
</g>
<g>
</g>
<g>
</g>
<g>
</g>
<g>
</g>
<g>
</g>
</svg>
