<?xml version="1.0" encoding="iso-8859-1"?>
<!-- Generator: Adobe Illustrator 16.0.0, SVG Export Plug-In . SVG Version: 6.00 Build 0)  -->
<!DOCTYPE svg PUBLIC "-//W3C//DTD SVG 1.1//EN" "http://www.w3.org/Graphics/SVG/1.1/DTD/svg11.dtd">
<svg version="1.1" id="Capa_1" xmlns="http://www.w3.org/2000/svg" xmlns:xlink="http://www.w3.org/1999/xlink" x="0px" y="0px"
	 width="85.377px" height="85.377px" viewBox="0 0 85.377 85.377" style="enable-background:new 0 0 85.377 85.377;"
	 xml:space="preserve">
<g>
	<path d="M29.975,59.622c0-1.544,1.256-2.802,2.802-2.802h5.773v-5.406c0-1.541,1.252-2.802,2.802-2.802
		c1.545,0,2.8,1.261,2.8,2.802v5.406h5.771c1.549,0,2.802,1.258,2.802,2.802c0,1.542-1.253,2.802-2.802,2.802h-5.771v6.14
		c0,1.542-1.255,2.801-2.8,2.801c-1.55,0-2.802-1.259-2.802-2.801v-6.14h-5.773C31.235,62.424,29.975,61.172,29.975,59.622z
		 M71.47,29.525l-4.552,7.015h12.265c0.957,0,1.844,0.493,2.367,1.303c0.509,0.821,0.574,1.833,0.153,2.699L62.617,80.737
		c-0.464,0.975-1.462,1.604-2.532,1.604h-38.19c-1.081,0-2.068-0.624-2.533-1.604L0.271,40.542
		c-0.416-0.871-0.347-1.884,0.162-2.699c0.516-0.81,1.407-1.303,2.37-1.303h44.254L59.739,21c-1.563-4.142-0.989-8.87,1.653-12.493
		c2.078-2.861,5.147-4.749,8.649-5.302c3.491-0.563,7.007,0.285,9.883,2.376c5.91,4.306,7.223,12.607,2.917,18.522
		C80.2,27.736,75.925,29.8,71.47,29.525z M74.748,42.144H7.224l16.431,34.6h34.652L74.748,42.144z M70.605,23.786
		c2.917,0.585,5.948-0.581,7.694-2.988c2.475-3.409,1.724-8.208-1.686-10.692c-1.667-1.209-3.688-1.696-5.711-1.373
		c-2.026,0.318-3.794,1.406-4.996,3.059c-1.751,2.396-1.937,5.631-0.467,8.241c0.565,1.002,0.454,2.249-0.273,3.146l-10.9,13.358
		h5.95l7.479-11.53C68.335,24.048,69.489,23.556,70.605,23.786z"/>
</g>
<g>
</g>
<g>
</g>
<g>
</g>
<g>
</g>
<g>
</g>
<g>
</g>
<g>
</g>
<g>
</g>
<g>
</g>
<g>
</g>
<g>
</g>
<g>
</g>
<g>
</g>
<g>
</g>
<g>
</g>
</svg>
