<?xml version="1.0" encoding="iso-8859-1"?>
<!-- Generator: Adobe Illustrator 16.0.0, SVG Export Plug-In . SVG Version: 6.00 Build 0)  -->
<!DOCTYPE svg PUBLIC "-//W3C//DTD SVG 1.1//EN" "http://www.w3.org/Graphics/SVG/1.1/DTD/svg11.dtd">
<svg version="1.1" id="Capa_1" xmlns="http://www.w3.org/2000/svg" xmlns:xlink="http://www.w3.org/1999/xlink" x="0px" y="0px"
	 width="107.865px" height="107.864px" viewBox="0 0 107.865 107.864" style="enable-background:new 0 0 107.865 107.864;"
	 xml:space="preserve">
<g>
	<path d="M92.251,18.939c-0.815-0.515-1.806-0.595-2.674-0.209l-7.256,3.234V2.802C82.322,1.256,81.066,0,79.52,0H17.143
		c-1.541,0-2.802,1.256-2.802,2.802v102.261c0,1.544,1.261,2.802,2.802,2.802h62.381c1.548,0,2.802-1.258,2.802-2.802V71.081
		c0.394-0.164,0.799-0.312,1.192-0.492c6.358-2.998,10.452-7.749,9.926-11.163c0.022-0.126,0.079-0.241,0.079-0.372V21.297
		C93.517,20.34,93.034,19.456,92.251,18.939z M35.562,5.25h25.563v2.801H35.562V5.25z M48.337,104.712
		c-2.909,0-5.257-2.353-5.257-5.258c0-2.904,2.353-5.259,5.257-5.259c2.902,0,5.255,2.354,5.255,5.259
		C53.592,102.359,51.244,104.712,48.337,104.712z M87.912,55.901c-2.895-0.131-6.544,0.635-10.216,2.386
		c-6.991,3.322-11.319,8.745-9.751,12.116c1.069,2.254,4.542,3.03,8.773,2.33v18.321H19.944V12.608h56.778v11.857L58.87,32.422
		c-1.013,0.448-1.664,1.45-1.664,2.561v34.616c-2.892-0.138-6.539,0.629-10.207,2.392c-7.005,3.315-11.336,8.745-9.751,12.108
		c1.597,3.403,8.579,3.502,15.553,0.181c6.355-2.998,10.457-7.749,9.929-11.163c0.016-0.131,0.081-0.239,0.081-0.371V36.802
		l25.101-11.196V55.901L87.912,55.901z"/>
</g>
<g>
</g>
<g>
</g>
<g>
</g>
<g>
</g>
<g>
</g>
<g>
</g>
<g>
</g>
<g>
</g>
<g>
</g>
<g>
</g>
<g>
</g>
<g>
</g>
<g>
</g>
<g>
</g>
<g>
</g>
</svg>
