<?xml version="1.0" encoding="iso-8859-1"?>
<!-- Generator: Adobe Illustrator 16.0.0, SVG Export Plug-In . SVG Version: 6.00 Build 0)  -->
<!DOCTYPE svg PUBLIC "-//W3C//DTD SVG 1.1//EN" "http://www.w3.org/Graphics/SVG/1.1/DTD/svg11.dtd">
<svg version="1.1" id="Capa_1" xmlns="http://www.w3.org/2000/svg" xmlns:xlink="http://www.w3.org/1999/xlink" x="0px" y="0px"
	 width="101.889px" height="101.889px" viewBox="0 0 101.889 101.889" style="enable-background:new 0 0 101.889 101.889;"
	 xml:space="preserve">
<g>
	<path d="M95.645,49.815H85.527c-1.543,0-2.801,1.256-2.801,2.802v16.344c0,1.55,1.258,2.802,2.801,2.802h10.118
		c1.542,0,2.802-1.252,2.802-2.802V52.617C98.447,51.066,97.187,49.815,95.645,49.815z M92.843,66.155h-4.515V55.414h4.515V66.155z
		 M79.557,28.82c-4.824-5.283-7.075-10.712-6.665-16.12c0.561-7.408,5.964-11.878,6.196-12.064c1.196-0.974,2.96-0.79,3.938,0.408
		c0.97,1.202,0.802,2.955-0.394,3.935c-0.042,0.027-3.819,3.223-4.159,8.203c-0.257,3.794,1.499,7.784,5.229,11.863
		c6.621,7.256,6.588,14.324-0.094,20.997c-0.555,0.549-1.271,0.818-1.982,0.818c-0.711,0-1.434-0.273-1.986-0.818
		c-1.093-1.092-1.093-2.87,0-3.962C84.865,36.866,83.389,33.011,79.557,28.82z M92.801,28.825
		c-4.832-5.289-7.077-10.711-6.672-16.125c0.558-7.408,5.972-11.878,6.2-12.064c1.205-0.974,2.965-0.79,3.934,0.408
		c0.975,1.202,0.799,2.955-0.394,3.935c-0.038,0.027-3.819,3.223-4.159,8.203c-0.258,3.794,1.499,7.789,5.228,11.863
		c6.631,7.251,6.603,14.312-0.093,20.997c-0.55,0.549-1.27,0.818-1.988,0.818c-0.715,0-1.434-0.273-1.98-0.818
		c-1.088-1.092-1.088-2.87,0-3.962C98.102,36.861,96.613,33.006,92.801,28.825z M66.605,71.758H77.74
		c1.544,0,2.802-1.253,2.802-2.802V52.612c0-1.546-1.258-2.802-2.802-2.802H44.661L4.782,9.933c-1.093-1.095-2.87-1.095-3.962,0
		c-1.093,1.091-1.093,2.867,0,3.962L36.737,49.81H3.035c-1.55,0-2.803,1.256-2.803,2.802v16.345c0,1.549,1.253,2.802,2.803,2.802
		h55.649l29.3,29.298c0.555,0.557,1.27,0.822,1.98,0.822c0.712,0,1.441-0.275,1.987-0.822c1.094-1.084,1.094-2.867,0-3.963
		L66.605,71.758z M74.939,55.418V66.16H61.003l-10.74-10.741H74.939z M30.277,66.155V55.414h12.067l10.737,10.741H30.277z"/>
</g>
<g>
</g>
<g>
</g>
<g>
</g>
<g>
</g>
<g>
</g>
<g>
</g>
<g>
</g>
<g>
</g>
<g>
</g>
<g>
</g>
<g>
</g>
<g>
</g>
<g>
</g>
<g>
</g>
<g>
</g>
</svg>
