<?xml version="1.0" encoding="iso-8859-1"?>
<!-- Generator: Adobe Illustrator 16.0.0, SVG Export Plug-In . SVG Version: 6.00 Build 0)  -->
<!DOCTYPE svg PUBLIC "-//W3C//DTD SVG 1.1//EN" "http://www.w3.org/Graphics/SVG/1.1/DTD/svg11.dtd">
<svg version="1.1" id="Capa_1" xmlns="http://www.w3.org/2000/svg" xmlns:xlink="http://www.w3.org/1999/xlink" x="0px" y="0px"
	 width="140.227px" height="140.227px" viewBox="0 0 140.227 140.227" style="enable-background:new 0 0 140.227 140.227;"
	 xml:space="preserve">
<g>
	<path d="M106.018,40.146c0.06-0.162,0.148-0.308,0.172-0.484l6.053-36.127c0.147-0.884-0.101-1.785-0.668-2.459
		C111.001,0.393,110.155,0,109.269,0H30.954c-0.89,0-1.735,0.387-2.311,1.075c-0.573,0.674-0.822,1.575-0.671,2.459l6.053,36.127
		c0.029,0.177,0.127,0.322,0.186,0.484c-12.563,10.371-20.59,26.058-20.59,43.586c0,31.15,25.342,56.495,56.489,56.495
		c31.156,0,56.496-25.345,56.496-56.495C126.605,66.203,118.578,50.516,106.018,40.146z M118.868,71.012
		c-8.187,5.331-17.638,8.192-27.45,8.192c0,0-0.012,0-0.023,0c-23.126,0-43.001-15.451-48.781-37.702
		c7.923-5.175,17.36-8.213,27.502-8.213C93.528,33.289,113.211,49.352,118.868,71.012z M34.539,6.052h71.153l-5.06,30.204
		c-8.818-5.68-19.286-9.02-30.517-9.02c-11.233,0-21.704,3.346-30.517,9.032L34.539,6.052z M37.426,45.395
		c2.982,9.75,8.394,18.243,15.519,24.849c-9.05,8.642-20.717,13.523-33.248,13.914c0-0.142-0.018-0.283-0.018-0.426
		C19.673,68.387,26.586,54.647,37.426,45.395z M70.11,134.174c-25.614,0-46.787-19.222-49.975-43.987
		c14.174-0.485,27.375-6.124,37.512-16.078c9.472,7.046,21.172,11.148,33.736,11.148c0.012,0,0.023,0,0.035,0
		c10.185,0,19.979-2.838,28.668-7.992c0.271,2.129,0.461,4.268,0.461,6.467C120.553,111.548,97.932,134.174,70.11,134.174z
		 M70.11,26.577c-1.669,0-3.026-1.351-3.026-3.026v-3.36h-3.36c-1.67,0-3.026-1.351-3.026-3.026c0-1.664,1.356-3.026,3.026-3.026
		h3.36v-3.357c0-1.667,1.357-3.026,3.026-3.026c1.67,0,3.026,1.359,3.026,3.026v3.357h3.366c1.67,0,3.027,1.363,3.027,3.026
		c0,1.676-1.357,3.026-3.027,3.026h-3.366v3.36C73.136,25.227,71.78,26.577,70.11,26.577z"/>
</g>
<g>
</g>
<g>
</g>
<g>
</g>
<g>
</g>
<g>
</g>
<g>
</g>
<g>
</g>
<g>
</g>
<g>
</g>
<g>
</g>
<g>
</g>
<g>
</g>
<g>
</g>
<g>
</g>
<g>
</g>
</svg>
