<?xml version="1.0" encoding="iso-8859-1"?>
<!-- Generator: Adobe Illustrator 16.0.0, SVG Export Plug-In . SVG Version: 6.00 Build 0)  -->
<!DOCTYPE svg PUBLIC "-//W3C//DTD SVG 1.1//EN" "http://www.w3.org/Graphics/SVG/1.1/DTD/svg11.dtd">
<svg version="1.1" id="Capa_1" xmlns="http://www.w3.org/2000/svg" xmlns:xlink="http://www.w3.org/1999/xlink" x="0px" y="0px"
	 width="144.01px" height="144.009px" viewBox="0 0 144.01 144.009" style="enable-background:new 0 0 144.01 144.009;"
	 xml:space="preserve">
<g>
	<path d="M56.489,26.616C25.342,26.616,0,51.958,0,83.099c0,31.138,25.342,56.495,56.489,56.495
		c31.155,0,56.495-25.345,56.495-56.495C112.984,51.953,87.633,26.616,56.489,26.616z M56.489,133.542
		c-27.813,0-50.437-22.614-50.437-50.442c0-27.813,22.623-50.431,50.437-50.431c27.81,0,50.442,22.618,50.442,50.431
		C106.932,110.927,84.293,133.542,56.489,133.542z M124.031,134.712h19.979v7.908h-31.126v-0.012c0-4.161,1.052-7.755,3.15-10.723
		c2.11-2.979,6.076-6.525,11.91-10.615c2.612-1.82,4.433-3.476,5.503-4.988c1.07-1.514,1.602-3.204,1.602-5.061
		c0-2.021-0.591-3.658-1.749-4.894c-1.171-1.229-2.714-1.845-4.646-1.845c-2.045,0-3.652,0.77-4.787,2.317
		c-1.147,1.537-1.679,3.653-1.603,6.289h-8.795c-0.136-4.93,1.141-8.866,3.907-11.774c2.742-2.896,6.525-4.35,11.349-4.35
		c4.486,0,8.169,1.348,11.018,4.007c2.849,2.66,4.256,6.112,4.256,10.332c0,3.452-0.81,6.337-2.424,8.606
		c-1.619,2.281-4.651,4.835-9.091,7.684c-4.119,2.613-6.927,4.965-8.435,7.081L124.031,134.712z M81.71,21.066
		c0-4.17,3.394-7.566,7.566-7.566s7.565,3.396,7.565,7.566s-3.393,7.565-7.565,7.565S81.71,25.236,81.71,21.066z M105.921,13.494
		c0-6.682,5.426-12.105,12.105-12.105c6.679,0,12.104,5.423,12.104,12.105s-5.426,12.111-12.104,12.111
		C111.347,25.605,105.921,20.182,105.921,13.494z M128.115,46.784c0,5.018-4.066,9.079-9.078,9.079
		c-5.013,0-9.079-4.061-9.079-9.079c0-5.013,4.066-9.079,9.079-9.079C124.049,37.705,128.115,41.771,128.115,46.784z"/>
</g>
<g>
</g>
<g>
</g>
<g>
</g>
<g>
</g>
<g>
</g>
<g>
</g>
<g>
</g>
<g>
</g>
<g>
</g>
<g>
</g>
<g>
</g>
<g>
</g>
<g>
</g>
<g>
</g>
<g>
</g>
</svg>
