<?xml version="1.0" encoding="iso-8859-1"?>
<!-- Generator: Adobe Illustrator 16.0.0, SVG Export Plug-In . SVG Version: 6.00 Build 0)  -->
<!DOCTYPE svg PUBLIC "-//W3C//DTD SVG 1.1//EN" "http://www.w3.org/Graphics/SVG/1.1/DTD/svg11.dtd">
<svg version="1.1" id="Capa_1" xmlns="http://www.w3.org/2000/svg" xmlns:xlink="http://www.w3.org/1999/xlink" x="0px" y="0px"
	 width="175.026px" height="175.026px" viewBox="0 0 175.026 175.026" style="enable-background:new 0 0 175.026 175.026;"
	 xml:space="preserve">
<g>
	<path d="M157.386,54.772c-9.736,0-17.658,7.925-17.658,17.659v20.463c-3.216-0.986-6.589-1.304-9.92-0.914V62.316h2.223
		c1.718,0,3.118-1.403,3.118-3.117V38.578c0-1.721-1.4-3.118-3.118-3.118H58.699c-1.72,0-3.118,1.397-3.118,3.118v20.627
		c0,1.72,1.397,3.117,3.118,3.117h2.226v10.169l-7.45-3.166c-0.85-0.362-1.821-0.338-2.643,0.106L1.695,94.689
		c-0.734,0.384-1.291,1.035-1.547,1.827c-0.252,0.779-0.18,1.638,0.195,2.381l20.045,38.982c0.558,1.072,1.647,1.687,2.777,1.687
		c0.478,0,0.965-0.115,1.422-0.359l36.331-18.669v13.53c0,1.717,1.397,3.117,3.118,3.117h62.636c0.561,0,1.06-0.188,1.511-0.444
		c1.449,0.292,2.953,0.444,4.476,0.444l0,0c5.139,0,9.979-1.784,13.975-4.92c3.074,2.394,6.776,3.745,10.734,3.745
		c9.743,0,17.659-7.922,17.659-17.658v-45.91C175.044,62.697,167.129,54.772,157.386,54.772z M157.386,61.007
		c6.296,0,11.423,5.118,11.423,11.423v19.08h-22.846v-19.08C145.963,66.125,151.084,61.007,157.386,61.007z M144.514,102.715
		c5.656,5.761,6.235,14.645,1.814,21.057l-22.853-23.23c2.709-1.814,5.876-2.782,9.206-2.782
		C137.157,97.759,141.365,99.506,144.514,102.715z M61.823,41.695h67.102v14.392H61.823V41.695z M24.518,132.241L7.328,98.806
		l45.063-23.172l22.515,9.565l-5.325,23.879l-6.403,3.288c-0.375,0.109-0.706,0.28-1.004,0.512L24.518,132.241z M67.166,130.95
		v-13.627l6.567-3.374c0.822-0.414,1.416-1.181,1.614-2.095l6.205-27.839c0.332-1.464-0.436-2.968-1.821-3.541l-12.565-5.331V62.322
		h56.406V72.86H85.966c-1.72,0-3.117,1.397-3.117,3.118c0,1.714,1.397,3.118,3.117,3.118h37.606v7.867H95.837
		c-1.718,0-3.118,1.389-3.118,3.118c0,1.717,1.4,3.118,3.118,3.118h27.735v0.383c-2.532,1.06-4.901,2.516-6.911,4.494
		c-0.938,0.92-1.729,1.942-2.472,2.99H95.849c-1.717,0-3.117,1.394-3.117,3.117c0,1.717,1.4,3.117,3.117,3.117h15.229
		c-0.828,2.558-1.218,5.2-1.133,7.873H95.837c-1.718,0-3.118,1.395-3.118,3.118c0,1.711,1.4,3.118,3.118,3.118h15.217
		c1.053,3.258,2.776,6.363,5.334,8.969c0.219,0.219,0.48,0.378,0.7,0.585L67.166,130.95L67.166,130.95z M132.67,130.95
		c-4.487,0-8.689-1.76-11.825-4.956c-5.669-5.761-6.241-14.651-1.809-21.069l22.853,23.23
		C139.18,129.97,135.994,130.95,132.67,130.95L132.67,130.95z M157.386,129.757c-2.308,0-4.512-0.67-6.369-1.948
		c6.509-8.866,5.888-21.397-2.059-29.483c-0.225-0.22-0.499-0.391-0.73-0.598h20.588v20.606
		C168.809,124.642,163.682,129.757,157.386,129.757z M40.979,108.914c1.339,2.551,0.536,6.004-3.051,8.543l1.766,3.361l-2.368,1.218
		l-1.717-3.276c-2.198,1.078-4.768,1.65-6.509,1.511l-0.223-2.631c1.757,0.085,4.028-0.293,6.135-1.389
		c2.679-1.363,3.784-3.592,2.819-5.455c-0.938-1.778-2.986-2.132-6.274-1.693c-4.515,0.664-7.664,0.39-9.152-2.424
		c-1.41-2.709-0.262-5.869,2.947-8.129l-1.714-3.27l2.326-1.182l1.66,3.143c2.289-1.097,4.095-1.364,5.486-1.364l0.176,2.606
		c-0.986,0.018-2.901,0.109-5.312,1.327c-2.908,1.474-3.218,3.52-2.527,4.822c0.88,1.693,2.713,1.815,6.598,1.315
		C36.638,105.327,39.476,106.021,40.979,108.914z M61.704,90.762c0-2.046,1.659-3.714,3.705-3.714s3.702,1.668,3.702,3.714
		s-1.656,3.702-3.702,3.702S61.704,92.813,61.704,90.762z"/>
</g>
<g>
</g>
<g>
</g>
<g>
</g>
<g>
</g>
<g>
</g>
<g>
</g>
<g>
</g>
<g>
</g>
<g>
</g>
<g>
</g>
<g>
</g>
<g>
</g>
<g>
</g>
<g>
</g>
<g>
</g>
</svg>
