<?xml version="1.0" encoding="iso-8859-1"?>
<!-- Generator: Adobe Illustrator 16.0.0, SVG Export Plug-In . SVG Version: 6.00 Build 0)  -->
<!DOCTYPE svg PUBLIC "-//W3C//DTD SVG 1.1//EN" "http://www.w3.org/Graphics/SVG/1.1/DTD/svg11.dtd">
<svg version="1.1" id="Capa_1" xmlns="http://www.w3.org/2000/svg" xmlns:xlink="http://www.w3.org/1999/xlink" x="0px" y="0px"
	 width="115.354px" height="115.354px" viewBox="0 0 115.354 115.354" style="enable-background:new 0 0 115.354 115.354;"
	 xml:space="preserve">
<g>
	<path d="M4.052,57.3h17.016v17.019c0,1.724,1.397,3.118,3.118,3.118h25.185c1.72,0,3.118-1.395,3.118-3.118V57.3h17.013
		c1.723,0,3.117-1.4,3.117-3.121V28.994c0-1.72-1.395-3.118-3.117-3.118H52.489V8.854c0-1.721-1.397-3.118-3.118-3.118H24.192
		c-1.72,0-3.118,1.397-3.118,3.118v17.022H4.052c-1.72,0-3.118,1.397-3.118,3.118v25.185C0.935,55.899,2.332,57.3,4.052,57.3z
		 M7.17,32.112h17.016c1.72,0,3.118-1.397,3.118-3.118V11.972h18.95v17.022c0,1.72,1.397,3.118,3.118,3.118h17.013v18.95H49.371
		c-1.72,0-3.118,1.397-3.118,3.117v17.022H27.31V54.179c0-1.72-1.397-3.117-3.118-3.117H7.17V32.112z M115.354,43.867
		c0,1.72-1.401,3.117-3.118,3.117H90.412L72.723,87.416c-0.493,1.133-1.626,1.863-2.855,1.863H3.118C1.404,89.279,0,87.886,0,86.162
		c0-1.717,1.404-3.117,3.118-3.117h64.709l17.689-40.426c0.493-1.135,1.619-1.87,2.855-1.87h23.863
		C113.952,40.749,115.354,42.144,115.354,43.867z M26.588,100.691c0,4.932-3.998,8.926-8.924,8.926
		c-4.932,0-8.923-3.994-8.923-8.926c0-4.92,3.991-8.921,8.923-8.921C22.591,91.776,26.588,95.771,26.588,100.691z M58.312,100.691
		c0,4.932-4.003,8.926-8.929,8.926s-8.93-3.994-8.93-8.926c0-4.92,4.004-8.921,8.93-8.921S58.312,95.771,58.312,100.691z"/>
</g>
<g>
</g>
<g>
</g>
<g>
</g>
<g>
</g>
<g>
</g>
<g>
</g>
<g>
</g>
<g>
</g>
<g>
</g>
<g>
</g>
<g>
</g>
<g>
</g>
<g>
</g>
<g>
</g>
<g>
</g>
</svg>
