<?xml version="1.0" encoding="iso-8859-1"?>
<!-- Generator: Adobe Illustrator 16.0.0, SVG Export Plug-In . SVG Version: 6.00 Build 0)  -->
<!DOCTYPE svg PUBLIC "-//W3C//DTD SVG 1.1//EN" "http://www.w3.org/Graphics/SVG/1.1/DTD/svg11.dtd">
<svg version="1.1" id="Capa_1" xmlns="http://www.w3.org/2000/svg" xmlns:xlink="http://www.w3.org/1999/xlink" x="0px" y="0px"
	 width="137.091px" height="137.091px" viewBox="0 0 137.091 137.091" style="enable-background:new 0 0 137.091 137.091;"
	 xml:space="preserve">
<g>
	<path d="M48.022,103.619h25.182c1.717,0,3.117-1.406,3.117-3.117v-17.02h17.025c1.711,0,3.118-1.4,3.118-3.117V55.177
		c0-1.714-1.407-3.118-3.118-3.118H76.321V35.043c0-1.721-1.4-3.118-3.117-3.118H48.022c-1.714,0-3.118,1.397-3.118,3.118v17.016
		H27.882c-1.714,0-3.118,1.404-3.118,3.118v25.188c0,1.717,1.404,3.117,3.118,3.117h17.022v17.02
		C44.904,102.212,46.308,103.619,48.022,103.619z M31,77.248V58.294h17.022c1.714,0,3.117-1.397,3.117-3.117V38.161h18.946v17.017
		c0,1.72,1.407,3.117,3.118,3.117h17.025v18.953H73.204c-1.711,0-3.118,1.4-3.118,3.117v17.02H51.139v-17.02
		c0-1.717-1.403-3.117-3.117-3.117H31z M137.091,70.043c0,1.711-1.401,3.118-3.118,3.118H112.15l-17.695,40.426
		c-0.487,1.145-1.62,1.863-2.85,1.863H24.859c-1.724,0-3.118-1.395-3.118-3.118c0-1.711,1.395-3.117,3.118-3.117h64.706
		l17.689-40.42c0.493-1.145,1.619-1.869,2.855-1.869h23.863C135.708,66.926,137.091,68.32,137.091,70.043z M48.32,126.874
		c0,4.92-3.989,8.927-8.915,8.927c-4.933,0-8.924-4.007-8.924-8.927c0-4.933,3.991-8.927,8.924-8.927
		C44.332,117.959,48.32,121.941,48.32,126.874z M80.047,126.874c0,4.92-4,8.927-8.927,8.927c-4.923,0-8.926-4.007-8.926-8.927
		c0-4.933,4.003-8.927,8.926-8.927C76.047,117.947,80.047,121.941,80.047,126.874z M35.789,41.154
		c-0.177-2.898-0.518-5.892-0.861-8.817c-0.216-1.951-0.436-3.87-0.612-5.699c15.527-3.285,37.031-3.249,52.875,0.101
		c-0.56,4.765-1.084,9.56-1.583,14.41c-0.158,1.51,0.792,2.926,2.266,3.325c4.348,1.215,8.634,2.542,12.891,3.87
		c5.37,1.671,10.747,3.331,16.271,4.79c0.268,0.076,0.535,0.106,0.791,0.106c0.646,0,1.279-0.198,1.814-0.579
		c0.755-0.536,1.23-1.391,1.304-2.302c0.797-10.568-0.293-21.132-3.069-29.73c-0.213-0.655-0.646-1.221-1.212-1.62
		C99.868,7.584,79.951,1.291,60.629,1.291c-1.689,0-3.374,0.045-5.082,0.137C37.192,2.439,20.1,8.288,4.78,18.782
		c-0.585,0.399-1.023,0.999-1.221,1.69C0.639,30.33-0.487,40.286,0.191,50.078C0.258,51,0.733,51.84,1.488,52.391
		c0.761,0.548,1.72,0.703,2.612,0.472c5.493-1.439,10.836-3.047,16.212-4.664c4.357-1.315,8.729-2.63,13.18-3.845
		C34.915,43.973,35.883,42.646,35.789,41.154z M28.728,33.061c0.231,1.97,0.463,3.998,0.649,5.979
		c-3.647,1.035-7.243,2.119-10.848,3.212c-4.064,1.221-8.138,2.442-12.264,3.584C6.134,38.386,7.13,30.83,9.252,23.322
		C23.385,13.856,39.074,8.613,55.904,7.657c1.595-0.085,3.178-0.131,4.75-0.131c17.756,0,36.048,5.687,51.636,16.027
		c1.979,6.628,2.911,14.471,2.667,22.533c-4.152-1.172-8.227-2.445-12.318-3.703c-3.501-1.099-6.984-2.183-10.54-3.212
		c0.523-4.877,1.06-9.715,1.638-14.492c0.189-1.564-0.821-3.023-2.356-3.397c-17.944-4.378-43.352-4.433-61.071-0.131
		c-1.456,0.356-2.463,1.689-2.378,3.188C28.055,27.036,28.394,29.999,28.728,33.061z"/>
</g>
<g>
</g>
<g>
</g>
<g>
</g>
<g>
</g>
<g>
</g>
<g>
</g>
<g>
</g>
<g>
</g>
<g>
</g>
<g>
</g>
<g>
</g>
<g>
</g>
<g>
</g>
<g>
</g>
<g>
</g>
</svg>
