<?xml version="1.0" encoding="iso-8859-1"?>
<!-- Generator: Adobe Illustrator 16.0.0, SVG Export Plug-In . SVG Version: 6.00 Build 0)  -->
<!DOCTYPE svg PUBLIC "-//W3C//DTD SVG 1.1//EN" "http://www.w3.org/Graphics/SVG/1.1/DTD/svg11.dtd">
<svg version="1.1" id="Capa_1" xmlns="http://www.w3.org/2000/svg" xmlns:xlink="http://www.w3.org/1999/xlink" x="0px" y="0px"
	 width="126.396px" height="126.396px" viewBox="0 0 126.396 126.396" style="enable-background:new 0 0 126.396 126.396;"
	 xml:space="preserve">
<g>
	<path d="M123.613,30.487h-15.706V14.769c0-1.546-1.257-2.802-2.802-2.802H81.958c-1.554,0-2.801,1.256-2.801,2.802v2.298
		c-7.969-4.817-16.296-7.1-25.927-7.1C23.88,9.967,0,33.854,0,63.198c0,29.341,23.88,53.231,53.23,53.231
		c13.225,0,25.751-4.805,35.536-13.592l14.512,10.702c1.247,0.909,3.009,0.657,3.918-0.579c0.919-1.248,0.655-2.988-0.578-3.907
		L90.21,96.95c-1.105-0.821-2.648-0.701-3.623,0.251c-8.951,8.799-20.8,13.636-33.34,13.636c-26.269,0-47.628-21.362-47.628-47.627
		c0-26.269,21.359-47.629,47.628-47.629c9.711,0,17.959,2.621,25.916,8.208v4.438c-9.198-7.245-20.772-10.006-32.588-7.94
		l-0.583,0.101c-0.035,0.011-0.068,0.022-0.107,0.022c-1.17,0.229-2.342,0.459-3.512,0.79c-1.62,0.422-3.229,0.908-4.795,1.519
		c-1.28,0.492-2.524,1.053-3.743,1.666c-0.348,0.162-0.675,0.371-1.018,0.553c-0.871,0.46-1.732,0.936-2.555,1.453
		c-0.347,0.206-0.674,0.436-1.015,0.66c-0.824,0.544-1.631,1.105-2.416,1.704c-0.273,0.208-0.537,0.413-0.805,0.626
		c-0.869,0.695-1.709,1.417-2.51,2.175c-0.135,0.128-0.292,0.264-0.434,0.396C17.01,37.775,12.79,45.239,10.924,53.466
		c-0.044,0.185-0.101,0.364-0.128,0.548c-0.208,0.992-0.364,1.982-0.514,2.987c-0.069,0.424-0.143,0.845-0.187,1.283
		c-0.054,0.413-0.067,0.851-0.1,1.283c-0.332,3.796-0.178,7.608,0.511,11.385l0.3,1.986l0.134-0.054
		c0.466,2.023,1.039,4.049,1.795,6.014c6.658,17.197,23.131,27.759,40.551,27.759c5.2,0,10.483-0.947,15.619-2.923
		c7.54-2.922,13.602-7.387,18.111-13.13l28.575,20.205c0.49,0.345,1.051,0.516,1.612,0.516c0.872,0,1.745-0.4,2.282-1.181
		c0.896-1.277,0.597-3.017-0.668-3.903L90.177,85.973c1.456-2.539,2.638-5.275,3.567-8.197h4.815
		c-0.612,1.894-1.3,3.776-2.155,5.582c-0.559,1.192-0.195,2.626,0.855,3.409l17.655,13.362c0.518,0.383,1.101,0.575,1.703,0.575
		c0.837,0,1.686-0.378,2.227-1.106c0.931-1.236,0.684-2.993-0.551-3.923l-15.903-12.022c0.799-1.915,1.425-3.885,1.986-5.865h0.713
		c1.536,0,2.802-1.265,2.802-2.802V59.259h15.703c1.554,0,2.801-1.253,2.801-2.802V33.31
		C126.415,31.74,125.172,30.487,123.613,30.487z M66.878,98.481c-19.438,7.541-41.391-2.172-48.912-21.624
		c-0.761-1.965-1.304-3.973-1.734-5.988C34.3,63.674,47.104,45.967,48.965,25.51c8.556-1.226,16.767,0.481,23.811,4.988H63.45
		c-1.545,0-2.802,1.255-2.802,2.802v23.146c0,1.547,1.257,2.802,2.802,2.802h15.713v15.726c0,1.538,1.266,2.802,2.802,2.802h5.879
		C84.248,87.489,77.244,94.477,66.878,98.481z M120.812,53.634h-15.707c-1.541,0-2.802,1.261-2.802,2.802v15.716H84.76V56.436
		c0-1.541-1.259-2.802-2.802-2.802H66.241V36.09h15.718c1.543,0,2.802-1.261,2.802-2.802V17.57h17.543v15.718
		c0,1.541,1.261,2.802,2.802,2.802h15.707V53.634z"/>
</g>
<g>
</g>
<g>
</g>
<g>
</g>
<g>
</g>
<g>
</g>
<g>
</g>
<g>
</g>
<g>
</g>
<g>
</g>
<g>
</g>
<g>
</g>
<g>
</g>
<g>
</g>
<g>
</g>
<g>
</g>
</svg>
