<?xml version="1.0" encoding="iso-8859-1"?>
<!-- Generator: Adobe Illustrator 16.0.0, SVG Export Plug-In . SVG Version: 6.00 Build 0)  -->
<!DOCTYPE svg PUBLIC "-//W3C//DTD SVG 1.1//EN" "http://www.w3.org/Graphics/SVG/1.1/DTD/svg11.dtd">
<svg version="1.1" id="Capa_1" xmlns="http://www.w3.org/2000/svg" xmlns:xlink="http://www.w3.org/1999/xlink" x="0px" y="0px"
	 width="156.526px" height="156.526px" viewBox="0 0 156.526 156.526" style="enable-background:new 0 0 156.526 156.526;"
	 xml:space="preserve">
<g>
	<path d="M121.52,98.774c-3.852,4.881-13.466,11.481-24.826,0.985c0,0-5.953-6.545-1.415-12.262c0.854-1.062,1.503-2.32,1.662-3.853
		c-0.836,0.142-1.867,0.492-3.043,1.368c-3.447,2.593-8.35,9.783-10.844,29.264c5.637,1.39,9.708,5.121,9.708,9.554
		c0,4.804-4.78,8.81-11.154,9.883c-0.187,5.986-0.219,12.62-0.033,20.143l0.079,2.67h-6.778l0.078-2.67
		c0.194-7.522,0.151-14.14-0.035-20.143c-6.391-1.056-11.149-5.062-11.149-9.883c0-4.433,4.074-8.164,9.717-9.554
		c-2.498-19.48-7.396-26.671-10.854-29.264c-1.172-0.876-2.197-1.204-3.044-1.357c0.156,1.521,0.818,2.779,1.664,3.852
		c4.55,5.719-1.417,12.258-1.417,12.258C48.489,110.261,38.861,103.662,35,98.78c-11.667-14.829,0.679-35.699,9.051-42.676
		c10.069-8.382,16.917-1.983,20.082,1.94c4.129,5.122,2.176,12.394-0.229,15.398c-1.52,1.915-2.561,3.593-3.251,5.081
		c1.424,0.285,3.054,0.88,4.786,2.113c6.224,4.432,10.511,14.456,12.821,29.976c2.312-15.524,6.588-25.55,12.821-29.976
		c1.733-1.232,3.376-1.828,4.787-2.107c-0.688-1.499-1.733-3.171-3.25-5.086c-2.408-3.004-4.361-10.276-0.229-15.398
		c3.162-3.923,10.016-10.322,20.082-1.94C120.847,63.081,133.197,83.951,121.52,98.774z M53.06,25.215
		C53.06,11.311,64.374,0,78.274,0c13.895,0,25.204,11.311,25.204,25.215c0,13.902-11.31,25.215-25.204,25.215
		C64.374,50.43,53.06,39.122,53.06,25.215z M58.663,25.215c0,10.813,8.792,19.612,19.611,19.612
		c10.813,0,19.601-8.799,19.601-19.612c0-10.815-8.787-19.611-19.601-19.611C67.455,5.604,58.663,14.399,58.663,25.215z
		 M75.473,39.374c0,1.545,1.257,2.801,2.802,2.801c1.547,0,2.805-1.256,2.805-2.801V28.022H92.42c1.543,0,2.802-1.256,2.802-2.802
		c0-1.549-1.259-2.802-2.802-2.802H81.079V11.064c0-1.546-1.258-2.802-2.805-2.802c-1.545,0-2.802,1.256-2.802,2.802v11.354H64.122
		c-1.546,0-2.802,1.253-2.802,2.802c0,1.546,1.256,2.802,2.802,2.802h11.351V39.374z"/>
</g>
<g>
</g>
<g>
</g>
<g>
</g>
<g>
</g>
<g>
</g>
<g>
</g>
<g>
</g>
<g>
</g>
<g>
</g>
<g>
</g>
<g>
</g>
<g>
</g>
<g>
</g>
<g>
</g>
<g>
</g>
</svg>
