<?xml version="1.0" encoding="iso-8859-1"?>
<!-- Generator: Adobe Illustrator 16.0.0, SVG Export Plug-In . SVG Version: 6.00 Build 0)  -->
<!DOCTYPE svg PUBLIC "-//W3C//DTD SVG 1.1//EN" "http://www.w3.org/Graphics/SVG/1.1/DTD/svg11.dtd">
<svg version="1.1" id="Capa_1" xmlns="http://www.w3.org/2000/svg" xmlns:xlink="http://www.w3.org/1999/xlink" x="0px" y="0px"
	 width="108.751px" height="108.751px" viewBox="0 0 108.751 108.751" style="enable-background:new 0 0 108.751 108.751;"
	 xml:space="preserve">
<g>
	<path d="M94.733,11.198c-1.093-1.265-3.002-1.418-4.268-0.34l-8.942,7.619l3.345-14.78c0.373-1.634-0.644-3.251-2.281-3.62
		c-1.648-0.375-3.257,0.662-3.629,2.284l-3.357,14.845L71.037,5.792c-0.632-1.558-2.394-2.32-3.925-1.69
		c-1.561,0.624-2.305,2.385-1.678,3.934l6.295,15.737c-6.289,0.624-11.506,5.219-15.658,13.722
		c-5.204-9.194-11.28-13.71-18.102-13.624l5.169-15.439c0.52-1.587-0.334-3.298-1.906-3.833c-1.581-0.514-3.298,0.328-3.839,1.906
		l-3.721,11.139L28.908,3.248c-0.526-1.584-2.216-2.444-3.824-1.918c-1.593,0.523-2.447,2.24-1.918,3.827l4.779,14.452l-9.792-7.433
		c-1.327-1.005-3.227-0.751-4.244,0.582c-1.005,1.33-0.745,3.233,0.594,4.244l13.544,10.27c-3.074,2.332-5.192,5.666-6.112,10.004
		c-1.442,6.872-0.189,16.087,3.807,28.191c7.19,21.729,22.842,43.284,34.705,43.284c0.97,0,1.918-0.147,2.846-0.443
		c0.455-0.153,0.828-0.425,1.147-0.744c10.154-4.539,19.334-24.163,23.72-43.586c4.568-20.224,2.459-32.911-6.147-37.953
		l12.377-10.554C95.649,14.381,95.821,12.475,94.733,11.198z M36.093,74.978l6.845-2.264c1.593-0.526,2.447-2.234,1.927-3.824
		c-0.535-1.59-2.211-2.453-3.833-1.922l-7.382,2.441c-0.774-1.896-1.513-3.842-2.175-5.852c-0.7-2.122-1.232-4.055-1.755-5.993
		l7.403-2.441c1.593-0.521,2.447-2.234,1.918-3.818c-0.526-1.584-2.237-2.471-3.818-1.927l-6.851,2.27
		c-0.993-5.267-1.241-9.735-0.526-13.131c0.89-4.273,3.073-6.845,6.851-8.092c2.542-0.836,10.181-3.298,18.358,14.467
		c-1.09,3.177-2.107,6.585-2.979,10.479c-2.84,12.525-3.777,24.755-2.651,34.401c0.163,1.466,0.393,2.777,0.642,4.031
		C43.993,89.028,39.731,82.574,36.093,74.978z M82.244,62.642c-6.111,27.06-17.307,41.074-22.795,39.773
		c-2.825-0.633-5.13-5.757-6.02-13.358c-0.121-1.028-0.127-2.204-0.189-3.31l6.011,1.365c0.222,0.047,0.446,0.07,0.665,0.07
		c1.387,0,2.646-0.945,2.947-2.352c0.378-1.644-0.645-3.251-2.282-3.624l-7.486-1.702c0.065-3.398,0.346-6.957,0.804-10.675
		l7.167,1.626c0.225,0.047,0.449,0.07,0.667,0.07c1.384,0,2.643-0.957,2.95-2.37c0.372-1.625-0.65-3.245-2.282-3.617l-7.606-1.714
		c0.363-2.033,0.697-4.055,1.17-6.13c0.482-2.151,0.99-4.161,1.537-6.053l7.648,1.726c0.225,0.048,0.449,0.077,0.662,0.077
		c1.389,0,2.647-0.957,2.949-2.358c0.372-1.637-0.645-3.254-2.281-3.623l-7.135-1.61c3.694-10.09,8.388-15.191,13.985-15.191
		c0.792,0,1.631,0.103,2.477,0.29C84.538,31.933,86.707,42.93,82.244,62.642z"/>
</g>
<g>
</g>
<g>
</g>
<g>
</g>
<g>
</g>
<g>
</g>
<g>
</g>
<g>
</g>
<g>
</g>
<g>
</g>
<g>
</g>
<g>
</g>
<g>
</g>
<g>
</g>
<g>
</g>
<g>
</g>
</svg>
