<?xml version="1.0" encoding="iso-8859-1"?>
<!-- Generator: Adobe Illustrator 16.0.0, SVG Export Plug-In . SVG Version: 6.00 Build 0)  -->
<!DOCTYPE svg PUBLIC "-//W3C//DTD SVG 1.1//EN" "http://www.w3.org/Graphics/SVG/1.1/DTD/svg11.dtd">
<svg version="1.1" id="Capa_1" xmlns="http://www.w3.org/2000/svg" xmlns:xlink="http://www.w3.org/1999/xlink" x="0px" y="0px"
	 width="109.393px" height="109.393px" viewBox="0 0 109.393 109.393" style="enable-background:new 0 0 109.393 109.393;"
	 xml:space="preserve">
<g>
	<path d="M26.536,49.304c3.545,16.01,33.54,35.009,34.817,35.824c0.458,0.284,0.972,0.422,1.491,0.422
		c0.515,0,1.046-0.138,1.494-0.422c1.28-0.814,31.269-19.798,34.742-35.551c0.761-2.23,1.132-4.562,1.132-6.903
		c0-8.131-4.438-15.628-11.567-19.549C80.47,18.586,69.67,19.94,62.85,26.168c-6.82-6.217-17.579-7.583-25.796-3.043
		c-7.123,3.921-11.556,11.406-11.556,19.538C25.488,45.032,25.862,47.364,26.536,49.304z M39.748,28.015
		c2.465-1.355,5.255-2.077,8.057-2.077c4.994,0,9.688,2.213,12.88,6.063c1.062,1.28,3.248,1.28,4.315,0
		c4.996-6.03,14.114-7.772,20.933-3.986c5.35,2.955,8.676,8.569,8.676,14.653c0,1.743-0.276,3.469-0.917,5.417
		C91.306,58.857,71.856,73.511,62.844,79.41c-9.009-5.899-28.459-20.563-30.919-31.609c-0.556-1.641-0.829-3.378-0.829-5.143
		C31.091,36.578,34.406,30.964,39.748,28.015z M70.599,32.022c0-1.543,1.258-2.802,2.801-2.802c2.774,0,5.529,0.711,7.951,2.055
		c5.269,2.903,8.555,8.441,8.555,14.457c0,1.732-0.285,3.448-0.822,5.113c-0.395,1.172-1.494,1.915-2.671,1.915
		c-0.294,0-0.578-0.043-0.887-0.142c-1.466-0.481-2.254-2.068-1.773-3.535c0.364-1.095,0.556-2.219,0.556-3.352
		c0-3.973-2.175-7.625-5.654-9.539c-1.609-0.898-3.419-1.369-5.254-1.369C71.846,34.825,70.599,33.574,70.599,32.022z
		 M108.562,96.575l-11.677,11.678c-0.547,0.552-1.27,0.815-1.984,0.815c-0.719,0-1.437-0.274-1.988-0.815
		c-1.089-1.094-1.089-2.873,0-3.961l6.905-6.891h-85.34c-1.548,0-2.801-1.264-2.801-2.801V9.855l-6.901,6.897
		c-1.085,1.091-2.867,1.091-3.962,0c-1.085-1.086-1.085-2.87,0-3.961l11.68-11.677c1.053-1.053,2.92-1.053,3.96,0l11.691,11.677
		c1.085,1.091,1.085,2.875,0,3.961c-0.556,0.556-1.272,0.818-1.984,0.818c-0.715,0-1.436-0.273-1.984-0.818l-6.892-6.887v81.927
		h82.534l-6.893-6.895c-1.097-1.094-1.097-2.878,0-3.961c1.093-1.096,2.867-1.096,3.96,0l11.677,11.688
		C109.67,93.703,109.67,95.477,108.562,96.575z"/>
</g>
<g>
</g>
<g>
</g>
<g>
</g>
<g>
</g>
<g>
</g>
<g>
</g>
<g>
</g>
<g>
</g>
<g>
</g>
<g>
</g>
<g>
</g>
<g>
</g>
<g>
</g>
<g>
</g>
<g>
</g>
</svg>
