<?xml version="1.0" encoding="iso-8859-1"?>
<!-- Generator: Adobe Illustrator 16.0.0, SVG Export Plug-In . SVG Version: 6.00 Build 0)  -->
<!DOCTYPE svg PUBLIC "-//W3C//DTD SVG 1.1//EN" "http://www.w3.org/Graphics/SVG/1.1/DTD/svg11.dtd">
<svg version="1.1" id="Capa_1" xmlns="http://www.w3.org/2000/svg" xmlns:xlink="http://www.w3.org/1999/xlink" x="0px" y="0px"
	 width="99.515px" height="99.515px" viewBox="0 0 99.515 99.515" style="enable-background:new 0 0 99.515 99.515;"
	 xml:space="preserve">
<g>
	<path d="M89.463,0.509c-1.105-0.785-2.632-0.651-3.599,0.326L31.351,55.952c-0.369-0.326-0.71-0.673-1.119-0.957
		c-5.951-4.176-14.798-2.577-18.917,3.338c-2.085,2.966-2.886,6.576-2.255,10.15c0.63,3.578,2.614,6.692,5.588,8.776
		c2.297,1.604,4.987,2.458,7.784,2.458c4.431,0,8.596-2.174,11.138-5.796c1.688-2.412,2.489-5.241,2.416-8.126l10.543,7.393
		c-2.743,0.871-5.244,2.52-6.935,4.942c-4.299,6.14-2.808,14.62,3.327,18.929c2.302,1.607,4.992,2.456,7.788,2.456
		c4.438,0,8.609-2.167,11.154-5.79c2.083-2.972,2.882-6.583,2.247-10.15c-0.622-3.579-2.61-6.69-5.585-8.777
		c-0.407-0.285-0.855-0.477-1.288-0.706l33.165-70.08C90.973,2.775,90.585,1.3,89.463,0.509z M28.981,70.71
		c-2.431,3.471-7.619,4.409-11.115,1.958c-1.749-1.22-2.914-3.054-3.283-5.154c-0.374-2.102,0.1-4.217,1.321-5.964
		c1.49-2.129,3.934-3.398,6.544-3.398c1.641,0,3.222,0.498,4.571,1.443c1.749,1.227,2.914,3.054,3.284,5.155
		C30.68,66.841,30.21,68.958,28.981,70.71z M58.592,84.542c0.364,2.102-0.106,4.22-1.326,5.961
		c-2.43,3.479-7.631,4.409-11.126,1.968c-3.604-2.527-4.476-7.519-1.952-11.129c1.492-2.129,3.94-3.394,6.55-3.394
		c1.636,0,3.229,0.499,4.576,1.439C57.047,80.609,58.213,82.441,58.592,84.542z M52.661,70.646l-16.508-11.56l42.153-42.613
		L52.661,70.646z"/>
</g>
<g>
</g>
<g>
</g>
<g>
</g>
<g>
</g>
<g>
</g>
<g>
</g>
<g>
</g>
<g>
</g>
<g>
</g>
<g>
</g>
<g>
</g>
<g>
</g>
<g>
</g>
<g>
</g>
<g>
</g>
</svg>
