<?xml version="1.0" encoding="iso-8859-1"?>
<!-- Generator: Adobe Illustrator 16.0.0, SVG Export Plug-In . SVG Version: 6.00 Build 0)  -->
<!DOCTYPE svg PUBLIC "-//W3C//DTD SVG 1.1//EN" "http://www.w3.org/Graphics/SVG/1.1/DTD/svg11.dtd">
<svg version="1.1" id="Capa_1" xmlns="http://www.w3.org/2000/svg" xmlns:xlink="http://www.w3.org/1999/xlink" x="0px" y="0px"
	 width="107.339px" height="107.339px" viewBox="0 0 107.339 107.339" style="enable-background:new 0 0 107.339 107.339;"
	 xml:space="preserve">
<g>
	<path d="M106.823,33.339c-0.536-0.745-1.379-1.193-2.293-1.193H89.258V21.152c0-1.548-1.258-2.802-2.802-2.802H46.632v-6.007
		c0-1.547-1.256-2.803-2.801-2.803H19.668c-1.54,0-2.801,1.256-2.801,2.803v6.007H2.801C1.255,18.351,0,19.604,0,21.152v63.853
		c0,0.027,0.011,0.05,0.011,0.071c0.004,0.229,0.083,0.438,0.128,0.646c0.04,0.142,0.051,0.295,0.112,0.421
		c0.079,0.169,0.196,0.301,0.303,0.448c0.113,0.148,0.187,0.301,0.32,0.427c0.112,0.104,0.252,0.171,0.37,0.257
		c0.178,0.121,0.347,0.247,0.555,0.329c0.023,0.011,0.038,0.033,0.061,0.044c0.32,0.12,0.635,0.163,0.953,0.163
		c0.533,0,1.004-0.186,1.425-0.435c0.104-0.062,0.177-0.117,0.268-0.188c0.396-0.312,0.723-0.701,0.908-1.172
		c0.011-0.022,0.033-0.032,0.04-0.055L22.85,37.754h77.703l-16.05,44.46H26.6c-1.546,0-2.802,1.254-2.802,2.802
		c0,1.549,1.256,2.802,2.802,2.802h59.87c1.18,0,2.227-0.738,2.643-1.842l18.069-50.071
		C107.48,35.041,107.349,34.083,106.823,33.339z M20.873,32.146c-1.188,0-2.23,0.739-2.647,1.85L5.598,68.989V23.954h14.066
		c1.545,0,2.802-1.256,2.802-2.802v-6.008h18.557v6.008c0,1.546,1.253,2.802,2.802,2.802h39.82v8.191H20.873z M80.647,42.947v5.566
		h5.948c1.546,0,2.802,1.255,2.802,2.801c0,1.545-1.256,2.801-2.802,2.801h-5.948v6.315c0,1.542-1.261,2.802-2.802,2.802
		c-1.545,0-2.802-1.26-2.802-2.802v-6.315h-5.949c-1.549,0-2.801-1.256-2.801-2.801c0-1.546,1.252-2.801,2.801-2.801h5.949v-5.566
		c0-1.545,1.257-2.801,2.802-2.801C79.392,40.146,80.647,41.402,80.647,42.947z M36.736,81.48c0.651,0.061,1.298,0.094,1.95,0.094
		c10.5,0,19.17-7.886,20.161-18.354c0.513-5.385-1.106-10.65-4.568-14.826c-3.449-4.175-8.313-6.752-13.704-7.256
		c-11.249-1.1-21.035,7.155-22.083,18.263c-0.5,5.254,1.06,10.364,4.321,14.481L4.297,93.044c-1.07,1.116-1.048,2.895,0.075,3.961
		c0.546,0.537,1.247,0.794,1.947,0.794c0.736,0,1.469-0.285,2.015-0.849l18.557-19.233C29.758,79.79,33.11,81.139,36.736,81.48z
		 M38.629,46.641c0.464,0,0.93,0.021,1.406,0.065c3.892,0.372,7.415,2.238,9.924,5.257c2.495,3.017,3.672,6.831,3.299,10.733
		c-0.761,8.038-7.736,13.952-15.989,13.214c-3.901-0.36-7.419-2.237-9.925-5.253c-2.488-3.021-3.658-6.835-3.295-10.73
		C24.771,52.351,31.031,46.641,38.629,46.641z"/>
</g>
<g>
</g>
<g>
</g>
<g>
</g>
<g>
</g>
<g>
</g>
<g>
</g>
<g>
</g>
<g>
</g>
<g>
</g>
<g>
</g>
<g>
</g>
<g>
</g>
<g>
</g>
<g>
</g>
<g>
</g>
</svg>
