<?xml version="1.0" encoding="iso-8859-1"?>
<!-- Generator: Adobe Illustrator 16.0.0, SVG Export Plug-In . SVG Version: 6.00 Build 0)  -->
<!DOCTYPE svg PUBLIC "-//W3C//DTD SVG 1.1//EN" "http://www.w3.org/Graphics/SVG/1.1/DTD/svg11.dtd">
<svg version="1.1" id="Capa_1" xmlns="http://www.w3.org/2000/svg" xmlns:xlink="http://www.w3.org/1999/xlink" x="0px" y="0px"
	 width="142.989px" height="142.99px" viewBox="0 0 142.989 142.99" style="enable-background:new 0 0 142.989 142.99;"
	 xml:space="preserve">
<g>
	<path d="M76.174,97.358c0,4.772-3.866,8.64-8.64,8.64c-4.768,0-8.634-3.867-8.634-8.64c0-4.783,3.866-8.641,8.634-8.641
		C72.308,88.722,76.174,92.586,76.174,97.358z M67.771,116.269c-3.093,0-5.605,2.501-5.605,5.604c0,3.091,2.512,5.604,5.605,5.604
		c3.093,0,5.601-2.513,5.601-5.604C73.372,118.776,70.864,116.269,67.771,116.269z M100.921,86.386c0-1.292-1.051-2.334-2.336-2.334
		c-1.284,0-2.335,1.042-2.335,2.334c0,1.28,1.051,2.336,2.335,2.336C99.87,88.722,100.921,87.68,100.921,86.386z M130.761,5.454
		l-29.266,9.756l-1.652,8.684c11.461,2.277,19.968,6.373,19.968,12.506c0,0.025-0.005,0.042-0.005,0.063
		c0.272,0.52,0.421,1.116,0.322,1.743l-15.916,93.867c0.027,0.164,0.097,0.322,0.097,0.481c0,8.246-18.11,10.436-28.826,10.436
		c-10.7,0-28.815-2.194-28.815-10.436c0-0.055,0.03-0.104,0.035-0.153L34.823,57.79c-0.38,0.017-0.747,0.118-1.139,0.118
		c-0.016,0-0.341,0-0.352,0c-12.871-0.192-23.194-10.821-23.008-23.696c0.192-12.687,10.662-23.002,23.344-23.002
		c6.593,0.093,12.422,2.61,16.767,7.087c1.487,1.537,2.647,3.282,3.651,5.115c6.513-1.076,13.813-1.625,21.396-1.696
		c6.354,0,12.837,0.418,18.823,1.252l1.981-10.416c0.191-0.999,0.902-1.814,1.865-2.134l30.819-10.271
		c1.489-0.5,3.055,0.31,3.545,1.77C133.021,3.379,132.227,4.966,130.761,5.454z M56.204,28.736c0.516,2,0.863,4.049,0.829,6.167
		c-0.043,3.185-0.743,6.217-1.962,8.985c6.166,1.034,13.115,1.606,20.422,1.606c5.4,0,10.299-0.307,14.697-0.808l3.092-16.207
		c-5.072-0.707-10.998-1.155-17.781-1.155c-0.019,0-0.036,0-0.046,0C68.658,27.313,62.099,27.822,56.204,28.736z M33.696,52.299
		c1.031,0,2.029-0.131,3.014-0.304c0.011,0,0.023-0.01,0.033-0.01c0.023,0,0.046,0.005,0.069,0c3.374-0.609,6.404-2.187,8.836-4.427
		c-7.382-2.068-14.481-5.507-14.481-11.158c0-1.545,1.256-2.801,2.802-2.801c1.547,0,2.801,1.256,2.801,2.801
		c0,1.133,3.191,4.042,12.564,6.324c1.256-2.383,2.052-5.045,2.095-7.902c0.033-2.331-0.386-4.597-1.203-6.703
		c-0.135-0.184-0.214-0.401-0.299-0.621c-0.84-1.94-1.993-3.743-3.506-5.3c-3.301-3.403-7.732-5.313-12.474-5.385l0,0
		c-9.913,0-17.863,7.839-18.008,17.476c-0.14,9.783,7.704,17.863,17.488,18.011l0.273,2.802L33.696,52.299L33.696,52.299z
		 M40.352,56.808l1.111,6.988c9.082-4.528,29.271-4.828,34.243-4.828c1.998,0,6.468,0.048,11.688,0.396l1.702-8.919
		c-4.454,0.424-9.062,0.643-13.604,0.643c-8.514,0-16.609-0.738-23.625-2.095C48.932,52.673,44.949,55.412,40.352,56.808z
		 M113.382,44.509c-4.537,2.438-11.08,4.175-18.452,5.245L93.005,59.85c6.39,0.684,12.929,1.893,17.094,4.02L113.382,44.509z
		 M90.514,72.968c9.682-0.924,15.754-2.604,17.806-3.857c-1.951-1.193-7.524-2.776-16.36-3.729L90.514,72.968z M86.333,64.918
		c-3.239-0.208-6.731-0.348-10.627-0.348c-18.538,0-29.644,2.741-32.602,4.547c2.963,1.801,14.068,4.542,32.602,4.542
		c3.268,0,6.211-0.107,9.013-0.257L86.333,64.918z M98.568,132.608c-0.011-0.202-0.059-0.398-0.017-0.607l9.625-56.787
		c-5.021,1.952-12.257,2.965-18.752,3.496l-2.34,12.257c0.523-0.229,1.089-0.359,1.694-0.359c2.321,0,4.202,1.881,4.202,4.201
		c0,2.322-1.881,4.203-4.202,4.203c-1.166,0-2.217-0.477-2.987-1.26l-2.299,12.115c0.213-0.027,0.394-0.115,0.618-0.115
		c2.577,0,4.668,2.091,4.668,4.668c0,2.578-2.091,4.668-4.668,4.668c-0.826,0-1.57-0.283-2.247-0.656l-1.999,10.516
		c-0.255,1.348-1.432,2.282-2.753,2.282c-0.169,0-0.345-0.014-0.523-0.06c-1.518-0.29-2.524-1.746-2.232-3.272l9.292-48.821
		c-3.537,0.158-6.442,0.191-7.942,0.191c-4.665,0-22.7-0.272-32.424-4.032l9.04,56.761c0.033,0.204-0.01,0.395-0.022,0.579
		c0.745,1.604,9.353,4.822,23.201,4.822C88.916,137.391,97.366,134.376,98.568,132.608z M98.804,29.385l-2.758,14.473
		c11.557-1.978,18.172-5.311,18.172-7.458C114.218,34.479,108.895,31.415,98.804,29.385z"/>
</g>
<g>
</g>
<g>
</g>
<g>
</g>
<g>
</g>
<g>
</g>
<g>
</g>
<g>
</g>
<g>
</g>
<g>
</g>
<g>
</g>
<g>
</g>
<g>
</g>
<g>
</g>
<g>
</g>
<g>
</g>
</svg>
