<?xml version="1.0" encoding="iso-8859-1"?>
<!-- Generator: Adobe Illustrator 16.0.0, SVG Export Plug-In . SVG Version: 6.00 Build 0)  -->
<!DOCTYPE svg PUBLIC "-//W3C//DTD SVG 1.1//EN" "http://www.w3.org/Graphics/SVG/1.1/DTD/svg11.dtd">
<svg version="1.1" id="Capa_1" xmlns="http://www.w3.org/2000/svg" xmlns:xlink="http://www.w3.org/1999/xlink" x="0px" y="0px"
	 width="136.935px" height="136.935px" viewBox="0 0 136.935 136.935" style="enable-background:new 0 0 136.935 136.935;"
	 xml:space="preserve">
<g>
	<path d="M86.752,77.561c-1.673,0-3.026-1.365-3.026-3.026c0-9.209-7.489-16.707-16.71-16.707c-1.673,0-3.026-1.362-3.026-3.026
		c0-1.672,1.354-3.026,3.026-3.026c12.555,0,22.763,10.216,22.763,22.759C89.778,76.195,88.425,77.561,86.752,77.561z
		 M121.768,121.146c0,8.701-7.087,15.788-15.788,15.788c-8.713,0-15.793-7.093-15.793-15.788c0-3.339,1.046-6.425,2.819-8.973
		l-9.747-11.218c-4.74,2.914-10.258,4.687-16.225,4.687c-6.538,0-12.596-2.045-17.608-5.497l-12.07,11.018
		c0.691,1.473,1.103,3.121,1.103,4.859c0,6.425-5.222,11.662-11.645,11.662c-6.422,0-11.647-5.226-11.647-11.662
		c0-6.426,5.225-11.645,11.647-11.645c2.48,0,4.776,0.804,6.67,2.134l11.292-10.309c-5.458-5.621-8.854-13.246-8.854-21.669
		c0-17.162,13.964-31.132,31.123-31.132c1.114,0,2.161,0.213,3.242,0.34l3.02-13.595c-5.458-2.488-9.283-7.959-9.283-14.357
		C64.025,7.087,71.106,0,79.807,0c8.713,0,15.8,7.093,15.8,15.79c0,8.71-7.087,15.794-15.8,15.794c-0.201,0-0.39-0.05-0.608-0.062
		l-2.985,13.418c12.661,3.948,21.94,15.643,21.94,29.595c0,9.008-3.912,17.07-10.06,22.769l9.256,10.64
		c2.488-1.632,5.438-2.602,8.63-2.602C114.669,105.341,121.768,112.435,121.768,121.146z M79.783,25.537
		c5.379,0,9.747-4.383,9.747-9.747c0-5.361-4.368-9.738-9.747-9.738c-5.367,0-9.729,4.377-9.729,9.738
		C70.054,21.154,74.41,25.537,79.783,25.537z M32.394,116.022c0-3.086-2.512-5.592-5.592-5.592c-3.082,0-5.594,2.506-5.594,5.592
		c0,3.091,2.512,5.609,5.594,5.609C29.875,121.632,32.394,119.113,32.394,116.022z M67.021,99.608
		c13.813,0,25.067-11.242,25.067-25.074c0-13.834-11.242-25.079-25.067-25.079S41.951,60.7,41.951,74.534
		C41.951,88.366,53.202,99.608,67.021,99.608z M115.715,121.146c0-5.385-4.38-9.753-9.735-9.753c-2.56,0-4.858,1.005-6.597,2.625
		c-0.13,0.153-0.2,0.343-0.366,0.473c-0.07,0.071-0.153,0.083-0.236,0.13c-1.572,1.738-2.554,4.008-2.554,6.525
		c0,5.367,4.374,9.735,9.741,9.735S115.715,126.514,115.715,121.146z"/>
</g>
<g>
</g>
<g>
</g>
<g>
</g>
<g>
</g>
<g>
</g>
<g>
</g>
<g>
</g>
<g>
</g>
<g>
</g>
<g>
</g>
<g>
</g>
<g>
</g>
<g>
</g>
<g>
</g>
<g>
</g>
</svg>
