<?xml version="1.0" encoding="iso-8859-1"?>
<!-- Generator: Adobe Illustrator 16.0.0, SVG Export Plug-In . SVG Version: 6.00 Build 0)  -->
<!DOCTYPE svg PUBLIC "-//W3C//DTD SVG 1.1//EN" "http://www.w3.org/Graphics/SVG/1.1/DTD/svg11.dtd">
<svg version="1.1" id="Capa_1" xmlns="http://www.w3.org/2000/svg" xmlns:xlink="http://www.w3.org/1999/xlink" x="0px" y="0px"
	 width="94.217px" height="94.216px" viewBox="0 0 94.217 94.216" style="enable-background:new 0 0 94.217 94.216;"
	 xml:space="preserve">
<g>
	<path d="M83.784,90.649c-0.748,2.134-2.773,3.567-5.039,3.567H53.711c-2.955,0-5.347-2.396-5.347-5.341
		c0-2.953,2.392-5.351,5.347-5.351h9.79L47.109,70.409l-16.388,13.11h9.619c2.952,0,5.347,2.399,5.347,5.352
		c0,2.95-2.395,5.341-5.347,5.341H15.473c-2.268,0-4.292-1.429-5.043-3.572c-0.752-2.157-0.068-4.529,1.703-5.948l29.625-23.7
		V48.187l-8.571,10.829c-0.258,0.312-0.546,0.597-0.871,0.848l-10.918,8.695c-2.315,1.85-5.677,1.444-7.506-0.864
		c-1.835-2.305-1.456-5.669,0.859-7.497l10.433-8.302l17.439-22.019c0.145-0.183,0.362-0.268,0.53-0.424
		c0.32-0.353,0.7-0.615,1.092-0.875c0.111-0.06,0.196-0.155,0.303-0.21c0.771-0.427,1.609-0.73,2.558-0.73
		c0.783,0,1.511,0.191,2.179,0.481c1.189,0.282,2.298,0.824,3.063,1.806l18.055,23.248l9.646,7.131
		c2.382,1.751,2.878,5.1,1.116,7.474c-1.051,1.413-2.665,2.174-4.305,2.174c-1.102,0-2.224-0.346-3.17-1.055l-10.244-7.587
		c-0.388-0.284-0.738-0.623-1.045-1.018l-9.946-12.826V60.98l29.625,23.7C83.858,86.114,84.54,88.488,83.784,90.649z M46.881,24.515
		c6.77,0,12.259-5.502,12.259-12.252C59.14,5.495,53.65,0,46.881,0c-6.775,0-12.256,5.495-12.256,12.263
		C34.625,19.013,40.106,24.515,46.881,24.515z"/>
</g>
<g>
</g>
<g>
</g>
<g>
</g>
<g>
</g>
<g>
</g>
<g>
</g>
<g>
</g>
<g>
</g>
<g>
</g>
<g>
</g>
<g>
</g>
<g>
</g>
<g>
</g>
<g>
</g>
<g>
</g>
</svg>
