<?xml version="1.0" encoding="iso-8859-1"?>
<!-- Generator: Adobe Illustrator 16.0.0, SVG Export Plug-In . SVG Version: 6.00 Build 0)  -->
<!DOCTYPE svg PUBLIC "-//W3C//DTD SVG 1.1//EN" "http://www.w3.org/Graphics/SVG/1.1/DTD/svg11.dtd">
<svg version="1.1" id="Capa_1" xmlns="http://www.w3.org/2000/svg" xmlns:xlink="http://www.w3.org/1999/xlink" x="0px" y="0px"
	 width="206.704px" height="206.704px" viewBox="0 0 206.704 206.704" style="enable-background:new 0 0 206.704 206.704;"
	 xml:space="preserve">
<g>
	<path d="M116.259,55.259h-10.103V28.022c0-0.342-0.086-0.663-0.197-0.966c6.287-1.22,11.053-6.758,11.053-13.396
		c0-7.532-6.126-13.66-13.663-13.66c-7.538,0-13.661,6.123-13.661,13.66c0,6.638,4.763,12.17,11.051,13.396
		c-0.112,0.303-0.198,0.624-0.198,0.966v27.237h-10.09c-8.189,0-14.598,4.824-14.598,10.988c0,1.545,1.254,2.801,2.801,2.801
		c1.548,0,2.802-1.256,2.802-2.801c0-2.268,2.938-4.758,7.323-5.272v103.005c0,1.556,1.257,2.802,2.802,2.802h8.967v37.121
		c0,1.54,1.255,2.802,2.801,2.802c1.545,0,2.802-1.262,2.802-2.802v-37.121h8.979c1.545,0,2.802-1.246,2.802-2.802V60.975
		c4.374,0.522,7.316,3.009,7.316,5.272c0,1.545,1.252,2.801,2.801,2.801c1.551,0,2.802-1.256,2.802-2.801
		C130.846,60.083,124.443,55.259,116.259,55.259z M95.297,13.66c0-4.437,3.614-8.057,8.057-8.057c4.444,0,8.055,3.614,8.055,8.057
		c0,4.444-3.615,8.058-8.055,8.058C98.917,21.718,95.297,18.104,95.297,13.66z M94.388,161.184v-5.15h9.394
		c1.545,0,2.803-1.247,2.803-2.801c0-1.537-1.258-2.802-2.803-2.802h-9.394v-8.728h9.394c1.545,0,2.803-1.246,2.803-2.802
		c0-1.538-1.258-2.802-2.803-2.802h-9.394v-8.722h9.394c1.545,0,2.803-1.26,2.803-2.802c0-1.539-1.258-2.801-2.803-2.801h-9.394
		v-8.725h9.394c1.545,0,2.803-1.258,2.803-2.802c0-1.542-1.258-2.802-2.803-2.802h-9.394v-8.73h9.394
		c1.545,0,2.803-1.253,2.803-2.801c0-1.546-1.258-2.802-2.803-2.802h-9.394v-8.722h9.394c1.545,0,2.803-1.256,2.803-2.802
		c0-1.549-1.258-2.801-2.803-2.801h-9.394V60.851h17.94v100.327L94.388,161.184L94.388,161.184z"/>
</g>
<g>
</g>
<g>
</g>
<g>
</g>
<g>
</g>
<g>
</g>
<g>
</g>
<g>
</g>
<g>
</g>
<g>
</g>
<g>
</g>
<g>
</g>
<g>
</g>
<g>
</g>
<g>
</g>
<g>
</g>
</svg>
