<?xml version="1.0" encoding="iso-8859-1"?>
<!-- Generator: Adobe Illustrator 16.0.0, SVG Export Plug-In . SVG Version: 6.00 Build 0)  -->
<!DOCTYPE svg PUBLIC "-//W3C//DTD SVG 1.1//EN" "http://www.w3.org/Graphics/SVG/1.1/DTD/svg11.dtd">
<svg version="1.1" id="Capa_1" xmlns="http://www.w3.org/2000/svg" xmlns:xlink="http://www.w3.org/1999/xlink" x="0px" y="0px"
	 width="115.191px" height="115.191px" viewBox="0 0 115.191 115.191" style="enable-background:new 0 0 115.191 115.191;"
	 xml:space="preserve">
<g>
	<path d="M15.811,36.246c-0.98-3.619,1.166-7.357,4.784-8.336c3.625-0.977,7.358,1.171,8.337,4.802
		c0.978,3.619-1.17,7.352-4.791,8.331C20.516,42.031,16.785,39.877,15.811,36.246z M47.274,34.818
		c3.619-0.977,5.764-4.714,4.79-8.336c-0.988-3.622-4.713-5.773-8.339-4.788c-3.625,0.982-5.775,4.714-4.796,8.34
		C39.911,33.658,43.635,35.798,47.274,34.818z M29.246,59.973c3.626-0.98,5.778-4.714,4.791-8.334
		c-0.973-3.624-4.706-5.774-8.337-4.796c-3.619,0.98-5.767,4.711-4.785,8.332C21.89,58.801,25.621,60.953,29.246,59.973z
		 M52.361,53.74c3.624-0.987,5.778-4.719,4.795-8.331c-0.98-3.628-4.706-5.778-8.332-4.804c-3.624,0.993-5.778,4.725-4.795,8.35
		C44.998,52.569,48.735,54.708,52.361,53.74z M34.357,78.891c3.626-0.98,5.771-4.719,4.786-8.342
		c-0.973-3.621-4.706-5.772-8.332-4.782c-3.625,0.975-5.778,4.706-4.791,8.318C26.989,77.719,30.722,79.864,34.357,78.891z
		 M57.472,72.651c3.625-0.974,5.769-4.705,4.791-8.327c-0.98-3.623-4.707-5.768-8.336-4.794c-3.62,0.979-5.778,4.711-4.791,8.339
		C50.115,71.486,53.846,73.62,57.472,72.651z M35.903,84.667c-3.625,0.98-5.769,4.712-4.784,8.334
		c0.981,3.623,4.714,5.779,8.339,4.8c3.619-0.985,5.764-4.716,4.784-8.344C43.266,85.839,39.533,83.683,35.903,84.667z
		 M59.028,78.43c-3.625,0.984-5.771,4.716-4.797,8.35c0.982,3.617,4.72,5.763,8.339,4.788c3.625-0.984,5.767-4.716,4.796-8.334
		C66.384,79.606,62.655,77.458,59.028,78.43z M114.319,20.367l-8.399,74.438c-0.448,3.96-2.411,7.517-5.524,10.001
		c-2.676,2.134-5.921,3.255-9.282,3.255c-0.574,0-1.139-0.027-1.719-0.093l-16.557-2.489c-0.046-0.006-0.065-0.022-0.094-0.033
		c-0.471,0.175-0.909,0.394-1.401,0.537l-32.237,8.694c-1.279,0.351-2.603,0.515-3.908,0.515c-6.735,0-12.663-4.54-14.404-11.054
		l-19.5-72.318c-2.148-7.956,2.594-16.181,10.55-18.323L44.09,4.802c3.565-0.958,7.195-0.427,10.339,1.097
		c3.148-4.096,8.26-6.389,13.543-5.811l33.184,3.745c3.97,0.446,7.527,2.418,10.012,5.535
		C113.641,12.5,114.767,16.405,114.319,20.367z M69.886,100.581c4.975-1.346,7.924-6.477,6.594-11.459l-19.49-72.32
		c-0.506-1.847-1.587-3.387-2.967-4.583c-0.329-0.161-0.605-0.375-0.829-0.637c-1.513-1.037-3.289-1.683-5.215-1.683
		c-0.818,0-1.642,0.112-2.449,0.326l-32.248,8.697c-4.975,1.338-7.936,6.476-6.6,11.458l19.505,72.319
		c1.299,4.858,6.533,7.891,11.447,6.588L69.886,100.581z M106.768,12.875c-1.555-1.956-3.787-3.17-6.261-3.458l-33.18-3.743
		c-3.307-0.342-6.417,1.105-8.371,3.62c1.562,1.71,2.802,3.721,3.423,6.052l1.509,5.57c1.137-2.719,3.855-4.544,6.941-4.192
		c3.735,0.427,6.417,3.798,5.995,7.53c-0.425,3.732-3.801,6.417-7.529,5.992c-1.268-0.142-2.339-0.717-3.291-1.442l2.646,9.773
		l-0.043-0.23c3.717-0.544,7.168,2.047,7.699,5.76c0.453,3.163-1.405,6.014-4.247,7.151l8.623,31.976
		c0.706-3.408,3.825-5.822,7.35-5.438c3.731,0.427,6.419,3.809,5.986,7.54c-0.403,3.731-3.787,6.419-7.519,5.986
		c-1.798-0.197-3.333-1.1-4.411-2.392c0.761,4.307-0.383,8.559-2.943,11.822l10.978,1.645c2.386,0.241,4.81-0.432,6.774-1.991
		c1.947-1.544,3.162-3.776,3.441-6.25l8.399-74.421C109.039,17.267,108.338,14.826,106.768,12.875z M94.62,19.42
		c-3.731-0.427-7.116,2.256-7.518,5.983c-0.426,3.743,2.25,7.116,5.985,7.532c3.74,0.418,7.103-2.264,7.53-5.997
		C101.039,23.201,98.354,19.833,94.62,19.42z M92.425,38.887c-3.731-0.427-7.103,2.251-7.528,5.995
		c-0.415,3.731,2.261,7.105,6.002,7.521c3.734,0.413,7.104-2.26,7.524-5.991C98.844,42.673,96.164,39.3,92.425,38.887z
		 M90.226,58.358c-3.731-0.416-7.107,2.26-7.523,5.989c-0.428,3.74,2.26,7.111,5.991,7.527c3.731,0.428,7.107-2.266,7.523-5.997
		C96.661,62.145,93.965,58.774,90.226,58.358z"/>
</g>
<g>
</g>
<g>
</g>
<g>
</g>
<g>
</g>
<g>
</g>
<g>
</g>
<g>
</g>
<g>
</g>
<g>
</g>
<g>
</g>
<g>
</g>
<g>
</g>
<g>
</g>
<g>
</g>
<g>
</g>
</svg>
