<?xml version="1.0" encoding="iso-8859-1"?>
<!-- Generator: Adobe Illustrator 16.0.0, SVG Export Plug-In . SVG Version: 6.00 Build 0)  -->
<!DOCTYPE svg PUBLIC "-//W3C//DTD SVG 1.1//EN" "http://www.w3.org/Graphics/SVG/1.1/DTD/svg11.dtd">
<svg version="1.1" id="Capa_1" xmlns="http://www.w3.org/2000/svg" xmlns:xlink="http://www.w3.org/1999/xlink" x="0px" y="0px"
	 width="80.853px" height="80.854px" viewBox="0 0 80.853 80.854" style="enable-background:new 0 0 80.853 80.854;"
	 xml:space="preserve">
<g>
	<path d="M79.708,40.438c0-0.142-0.061-0.258-0.076-0.394c-0.027-3.075-0.261-6.183-0.799-9.278
		c-2.451-14.159-9.023-25.237-18.05-30.397C60.372,0.128,59.89,0,59.391,0H26.843c-1.272,0-2.383,0.851-2.708,2.084
		c-0.322,1.227,0.22,2.521,1.319,3.146c6.027,3.453,10.886,10.627,13.662,19.743H20.515c-0.552,0-1.033,0.2-1.472,0.477
		c-1.781-0.068-3.586,0.29-5.313,1.155C4.66,31.125-0.625,45.198,1.688,58.637c1.694,9.812,6.361,17.303,12.793,20.566
		c2.178,1.104,4.482,1.65,6.807,1.65c1.06,0,2.124-0.119,3.182-0.348l35.237-1.059c0.406-0.011,0.804-0.114,1.164-0.295
		c11.335-5.674,18.685-21.439,18.755-38.343C79.656,40.684,79.708,40.569,79.708,40.438z M25.834,74.146
		c-0.689,0.344-1.375,0.603-2.052,0.799l-2.291,0.065c-0.364,0.011-0.716,0.099-1.036,0.235c-1.16-0.114-2.305-0.454-3.437-1.028
		c-4.767-2.414-8.432-8.586-9.807-16.515C5.36,46.938,9.494,34.999,16.237,31.636c1.613-0.802,3.204-0.812,4.721-0.046
		c2.769,1.406,4.914,5.089,5.733,9.854c1.233,7.147-1.702,13.834-5.227,15.59c-0.752,0.378-1.425,0.389-2.115,0.038
		c-1.146-0.58-2.571-2.348-3.13-5.57c-0.683-3.961,0.912-7.956,2.796-8.896c1.389-0.69,1.954-2.37,1.265-3.755
		c-0.69-1.387-2.376-1.954-3.754-1.264c-4.331,2.151-6.892,8.685-5.827,14.867c0.785,4.548,3.019,8.055,6.131,9.631
		c2.269,1.149,4.807,1.138,7.139-0.032c6.18-3.076,9.806-12.549,8.248-21.565c-0.688-3.99-2.192-7.31-4.197-9.894H40.51
		c0.07,0.386,0.172,0.75,0.24,1.144C43.822,49.472,37.125,68.498,25.834,74.146z M58.898,73.866l-24.257,0.738
		C44.23,65.28,49.212,47.71,46.28,30.766c-1.798-10.443-5.85-19.212-11.474-25.163h23.814c3.773,2.347,7.057,6.186,9.642,11.021
		H52.387c-1.539,0-2.801,1.256-2.801,2.801c0,1.547,1.262,2.802,2.801,2.802h18.369c1.083,2.947,1.975,6.113,2.55,9.492
		c0.35,1.961,0.521,3.939,0.629,5.918H57.286c-1.54,0-2.802,1.256-2.802,2.801c0,1.543,1.262,2.801,2.802,2.801h16.617
		c-0.294,5.484-1.401,10.737-3.207,15.41h-18.32c-1.538,0-2.802,1.258-2.802,2.802c0,1.543,1.264,2.802,2.802,2.802h15.63
		C65.563,68.477,62.51,71.906,58.898,73.866z"/>
</g>
<g>
</g>
<g>
</g>
<g>
</g>
<g>
</g>
<g>
</g>
<g>
</g>
<g>
</g>
<g>
</g>
<g>
</g>
<g>
</g>
<g>
</g>
<g>
</g>
<g>
</g>
<g>
</g>
<g>
</g>
</svg>
