<?xml version="1.0" encoding="iso-8859-1"?>
<!-- Generator: Adobe Illustrator 16.0.0, SVG Export Plug-In . SVG Version: 6.00 Build 0)  -->
<!DOCTYPE svg PUBLIC "-//W3C//DTD SVG 1.1//EN" "http://www.w3.org/Graphics/SVG/1.1/DTD/svg11.dtd">
<svg version="1.1" id="Capa_1" xmlns="http://www.w3.org/2000/svg" xmlns:xlink="http://www.w3.org/1999/xlink" x="0px" y="0px"
	 width="168.21px" height="168.21px" viewBox="0 0 168.21 168.21" style="enable-background:new 0 0 168.21 168.21;"
	 xml:space="preserve">
<g>
	<path d="M66.721,43.065c-14.998,0-27.193,12.194-27.193,27.182v70.788c0,14.983,12.195,27.175,27.193,27.175
		c14.982,0,27.171-12.191,27.171-27.175V70.247C93.893,55.265,81.703,43.065,66.721,43.065z M88.289,141.035
		c0,11.896-9.677,21.571-21.568,21.571c-11.907,0-21.59-9.675-21.59-21.571V70.247c0-11.895,9.683-21.579,21.59-21.579
		c11.891,0,21.568,9.691,21.568,21.579V141.035z M69.522,76.983v10.132h6.635c1.541,0,2.803,1.247,2.803,2.802
		c0,1.542-1.262,2.801-2.803,2.801h-6.635v10.123h6.635c1.541,0,2.803,1.258,2.803,2.802c0,1.543-1.262,2.802-2.803,2.802h-6.635
		v10.123h6.635c1.541,0,2.803,1.265,2.803,2.802c0,1.545-1.262,2.802-2.803,2.802h-6.635v10.128h6.635
		c1.541,0,2.803,1.265,2.803,2.802c0,1.549-1.262,2.802-2.803,2.802h-6.635v4.673c0,1.54-1.266,2.802-2.801,2.802
		c-1.55,0-2.802-1.262-2.802-2.802v-4.673h-6.651c-1.541,0-2.801-1.253-2.801-2.802c0-1.537,1.261-2.802,2.801-2.802h6.651v-10.128
		h-6.651c-1.541,0-2.801-1.265-2.801-2.802c0-1.544,1.261-2.802,2.801-2.802h6.651v-10.128h-6.651c-1.541,0-2.801-1.26-2.801-2.802
		c0-1.549,1.261-2.802,2.801-2.802h6.651V92.712h-6.651c-1.541,0-2.801-1.264-2.801-2.802c0-1.553,1.261-2.802,2.801-2.802h6.651
		V76.978h-6.651c-1.541,0-2.801-1.256-2.801-2.802s1.261-2.802,2.801-2.802h6.651v-4.667c0-1.546,1.251-2.803,2.802-2.803
		c1.536,0,2.801,1.257,2.801,2.803v4.667h6.635c1.541,0,2.803,1.256,2.803,2.802s-1.262,2.802-2.803,2.802h-6.635V76.983z
		 M93.411,38.55c0,5.967,3.535,9.727,9.554,9.727c2.03,0,4.29-0.443,5.616-0.974l1.016,5.262c-1.234,0.615-4.027,1.283-7.645,1.283
		c-10.296,0-15.605-6.41-15.605-14.9c0-10.165,7.256-15.822,16.259-15.822c3.502,0,6.167,0.706,7.349,1.327l-1.363,5.352
		c-1.368-0.577-3.272-1.105-5.664-1.105C97.563,28.687,93.411,31.921,93.411,38.55z M117.006,0c-6.44,0-11.688,5.243-11.688,11.688
		c0,6.443,5.247,11.683,11.688,11.683c6.43,0,11.677-5.245,11.677-11.683C128.683,5.231,123.448,0,117.006,0z M117.006,17.768
		c-3.363,0-6.085-2.73-6.085-6.079c0-3.352,2.722-6.085,6.085-6.085c3.356,0,6.074,2.728,6.074,6.085
		C123.08,15.037,120.362,17.768,117.006,17.768z"/>
</g>
<g>
</g>
<g>
</g>
<g>
</g>
<g>
</g>
<g>
</g>
<g>
</g>
<g>
</g>
<g>
</g>
<g>
</g>
<g>
</g>
<g>
</g>
<g>
</g>
<g>
</g>
<g>
</g>
<g>
</g>
</svg>
