<?xml version="1.0" encoding="iso-8859-1"?>
<!-- Generator: Adobe Illustrator 16.0.0, SVG Export Plug-In . SVG Version: 6.00 Build 0)  -->
<!DOCTYPE svg PUBLIC "-//W3C//DTD SVG 1.1//EN" "http://www.w3.org/Graphics/SVG/1.1/DTD/svg11.dtd">
<svg version="1.1" id="Capa_1" xmlns="http://www.w3.org/2000/svg" xmlns:xlink="http://www.w3.org/1999/xlink" x="0px" y="0px"
	 width="87.482px" height="87.482px" viewBox="0 0 87.482 87.482" style="enable-background:new 0 0 87.482 87.482;"
	 xml:space="preserve">
<g>
	<path d="M71.07,46.38c-4.515-4.442-10.482-6.892-16.821-6.892c-2.837,0-5.551,0.569-8.133,1.5V18.43
		C46.116,8.271,37.852,0,27.685,0C17.534,0,9.258,8.266,9.258,18.43v49.346c0,10.157,8.283,18.431,18.427,18.431
		c4.271,0,8.266-1.521,11.527-4.17c4.275,3.471,9.475,5.445,15.036,5.445c6.479,0,12.554-2.545,17.116-7.17
		C80.624,70.874,80.493,55.65,71.07,46.38z M27.685,5.598c7.073,0,12.827,5.757,12.827,12.826v21.048H14.861V18.424
		C14.861,11.36,20.621,5.598,27.685,5.598z M14.861,67.765V45.079h24.162c-0.623,0.525-1.302,0.984-1.884,1.576
		c-8.483,8.629-9.004,22.053-1.837,31.387c-2.192,1.631-4.814,2.561-7.617,2.561C20.621,80.591,14.861,74.835,14.861,67.765z
		 M67.359,76.367c-6.894,7.006-19.015,7.104-25.999,0.214c-7.223-7.107-7.325-18.774-0.219-26.003
		c3.48-3.54,8.139-5.488,13.107-5.488c4.849,0,9.435,1.871,12.895,5.28C74.366,57.478,74.457,69.144,67.359,76.367z M69.647,64.175
		c0,1.544-1.262,2.802-2.802,2.802H54.579c-0.22,0-0.448-0.024-0.669-0.087c-1.251-0.307-2.466-1.516-2.466-2.801V51.574
		c0-1.548,1.257-2.802,2.805-2.802c1.534,0,2.802,1.254,2.802,2.802v9.8h9.808C68.385,61.374,69.647,62.633,69.647,64.175z"/>
</g>
<g>
</g>
<g>
</g>
<g>
</g>
<g>
</g>
<g>
</g>
<g>
</g>
<g>
</g>
<g>
</g>
<g>
</g>
<g>
</g>
<g>
</g>
<g>
</g>
<g>
</g>
<g>
</g>
<g>
</g>
</svg>
