<?xml version="1.0" encoding="iso-8859-1"?>
<!-- Generator: Adobe Illustrator 16.0.0, SVG Export Plug-In . SVG Version: 6.00 Build 0)  -->
<!DOCTYPE svg PUBLIC "-//W3C//DTD SVG 1.1//EN" "http://www.w3.org/Graphics/SVG/1.1/DTD/svg11.dtd">
<svg version="1.1" id="Capa_1" xmlns="http://www.w3.org/2000/svg" xmlns:xlink="http://www.w3.org/1999/xlink" x="0px" y="0px"
	 width="99.22px" height="99.22px" viewBox="0 0 99.22 99.22" style="enable-background:new 0 0 99.22 99.22;" xml:space="preserve"
	>
<g>
	<path d="M35.545,27.071c0,1.541-1.256,2.801-2.802,2.801c-1.216,0-2.389,0.325-3.474,0.953c-2.557,1.485-4.137,4.387-4.137,7.591
		c0,0.92,0.143,1.829,0.42,2.711c0.033,0.101,0.187,0.583,0.208,0.7c0.04,0.101,0.567,0.887,0.952,1.502
		c1.231,1.902,2.926,4.522,4.046,7.943c0.483,1.472-0.32,3.054-1.788,3.535c-0.29,0.093-0.584,0.131-0.874,0.131
		c-1.176,0-2.275-0.743-2.661-1.925c-0.898-2.736-2.241-4.816-3.429-6.655c-0.595-0.931-1.378-2.205-1.513-2.525
		c-0.068-0.156-0.202-0.755-0.236-0.93c-0.5-1.516-0.729-2.991-0.729-4.498c0-5.207,2.655-9.971,6.932-12.452
		c1.949-1.128,4.069-1.707,6.287-1.707C34.289,24.27,35.545,25.514,35.545,27.071z M88.097,2.824v21.712
		c0,1.535-1.263,2.803-2.802,2.803H76.19v13.179c0,0.219-0.079,0.404-0.112,0.6c3.314,1.126,5.716,4.234,5.716,7.933v41.762
		c0,4.641-3.778,8.407-8.404,8.407c-4.641,0-8.405-3.767-8.405-8.407v-1.739c-0.815,0.404-1.69,0.799-2.746,1.127
		c-0.274,0.088-0.564,0.126-0.836,0.126c-0.593,0-1.173-0.187-1.652-0.553c-0.725-0.525-1.149-1.367-1.149-2.249
		c0.02-14.643-5.966-24.597-11.35-24.597c-5.379,0-11.372,9.948-11.372,24.219c0,0.897-0.417,1.915-1.134,2.451
		c-0.717,0.531-1.636,0.854-2.496,0.592c-9.07-2.867-14.934-9.817-14.934-17.708c0.523-5.296,1.005-14.237,0.143-16.864
		c-0.556-1.696-1.543-3.229-2.5-4.705c-1.165-1.796-2.363-3.655-2.829-5.856c-0.64-1.984-1.004-4.32-1.004-6.662
		c0-8.186,4.266-15.751,11.136-19.724c7.935-4.605,18.361-3.272,24.985,2.968c6.187-5.833,15.645-7.321,23.349-3.754V2.803
		C70.592,1.25,71.842,0,73.394,0h11.909C86.844,0.022,88.097,1.272,88.097,2.824z M76.19,5.625v5.715h6.304V5.625H76.19z
		 M64.984,82.486V49.051c0-3.699,2.408-6.807,5.719-7.933c-0.05-0.196-0.115-0.381-0.115-0.6V23.883
		c-0.403-0.036-0.794-0.131-1.159-0.342c-6.546-3.806-15.214-2.036-19.992,4.006c-0.533,0.666-1.34,1.053-2.197,1.053
		c-0.859,0-1.667-0.387-2.197-1.053c-4.781-6.042-13.453-7.802-19.981-4.006c-5.138,2.968-8.339,8.678-8.339,14.865
		c0,1.776,0.276,3.546,0.812,5.255c0.32,1.445,1.155,2.733,2.118,4.224c1.094,1.702,2.336,3.617,3.123,5.993
		c1.485,4.524,0.362,16.535,0.122,18.9c0.012,4.146,2.871,8.13,7.534,10.62c1.079-15.026,8.073-26.052,16.81-26.052
		c8.743,0,15.737,11.043,16.826,25.794C64.349,82.945,64.671,82.706,64.984,82.486z M76.19,49.051c0-1.541-1.262-2.802-2.801-2.802
		c-1.555,0-2.802,1.261-2.802,2.802v41.762c0,1.535,1.247,2.802,2.802,2.802c1.539,0,2.801-1.267,2.801-2.802V49.051z
		 M82.494,21.735v-4.791H76.19v4.791H82.494z"/>
</g>
<g>
</g>
<g>
</g>
<g>
</g>
<g>
</g>
<g>
</g>
<g>
</g>
<g>
</g>
<g>
</g>
<g>
</g>
<g>
</g>
<g>
</g>
<g>
</g>
<g>
</g>
<g>
</g>
<g>
</g>
</svg>
