<?xml version="1.0" encoding="iso-8859-1"?>
<!-- Generator: Adobe Illustrator 16.0.0, SVG Export Plug-In . SVG Version: 6.00 Build 0)  -->
<!DOCTYPE svg PUBLIC "-//W3C//DTD SVG 1.1//EN" "http://www.w3.org/Graphics/SVG/1.1/DTD/svg11.dtd">
<svg version="1.1" id="Capa_1" xmlns="http://www.w3.org/2000/svg" xmlns:xlink="http://www.w3.org/1999/xlink" x="0px" y="0px"
	 width="92.701px" height="92.701px" viewBox="0 0 92.701 92.701" style="enable-background:new 0 0 92.701 92.701;"
	 xml:space="preserve">
<g>
	<path d="M88.34,10.197h-7.397V2.802C80.942,1.256,79.696,0,78.141,0H65.38c-1.536,0-2.802,1.256-2.802,2.802l0,0
		c-6.545,0.085-12.756,2.689-17.469,7.341c-7.9-7.812-20.548-9.587-30.268-3.984C6.633,10.928,1.532,19.97,1.532,29.765
		c0,2.802,0.432,5.592,1.209,8.03c0.544,2.583,1.985,4.808,3.38,6.953c1.189,1.838,2.421,3.742,3.126,5.906
		c1.089,3.316,0.498,14.364-0.14,20.843c0,9.379,7.005,17.647,17.841,21.066c0.847,0.266,1.766-0.104,2.488-0.635
		c0.716-0.524,1.137-1.587,1.137-2.472c0-18.102,7.52-30.272,14.544-30.272c7.029,0,14.547,12.171,14.547,30.14l2.693,0.345v0.012
		l-2.726,0.221c0,0.896,0.427,1.732,1.148,2.259c0.484,0.35,1.062,0.541,1.652,0.541c0.274,0,0.569-0.044,0.835-0.125
		c10.843-3.404,17.847-11.689,17.836-21.357c-0.635-6.189-1.224-17.21-0.12-20.531c0.7-2.167,1.938-4.074,3.146-5.91
		c1.391-2.158,2.834-4.388,3.306-6.687c0.85-2.648,1.274-5.439,1.274-8.31c0-0.471,0-0.873-0.022-1.256
		c1.391-0.156,2.479-1.294,2.479-2.728V13.04C91.141,11.453,89.894,10.197,88.34,10.197z M68.182,12.999V5.603h7.157v7.396
		c0,1.554,1.258,2.802,2.802,2.802h7.397v7.158h-7.397c-1.544,0-2.802,1.247-2.802,2.801v7.396h-7.157v-7.396
		c0-1.554-1.26-2.801-2.802-2.801h-7.392V15.8h7.392C66.922,15.8,68.182,14.553,68.182,12.999z M62.578,10.197h-7.391
		c-0.326,0-0.61,0.09-0.9,0.186c2.572-1.272,5.387-1.94,8.291-1.984V10.197z M82.003,36.629c-0.328,1.563-1.378,3.182-2.604,5.065
		c-1.323,2.046-2.821,4.366-3.765,7.212c-1.816,5.523-0.299,21.092-0.131,22.562c0,5.862-3.96,11.196-10.352,14.311
		c-1.003-18.342-9.45-32.23-20.054-32.23c-10.539,0-18.95,13.718-20.014,32.252c-6.416-3.098-10.389-8.416-10.398-14.039
		c0.178-1.764,1.686-17.354-0.124-22.876c-0.936-2.85-2.427-5.155-3.749-7.191c-1.217-1.883-2.27-3.501-2.667-5.329
		c-0.674-2.157-1.021-4.382-1.021-6.611c0-7.816,4.029-14.993,10.506-18.75c8.315-4.791,19.232-2.572,25.27,5.057
		c0.532,0.658,1.34,1.052,2.196,1.052c0.859,0,1.666-0.394,2.198-1.052c1.64-2.081,3.658-3.677,5.837-4.956
		c-0.457,0.503-0.755,1.149-0.755,1.883V25.75c0,1.534,1.259,2.801,2.801,2.801h7.39v7.39c0,1.54,1.257,2.801,2.802,2.801h12.767
		c1.541,0,2.8-1.261,2.8-2.801v-7.39h2.09c0.027,0.353,0.05,0.689,0.05,1.182C83.087,32.042,82.749,34.263,82.003,36.629z
		 M30.153,15.858c0,1.551-1.253,2.802-2.801,2.802c-1.606,0-3.145,0.425-4.566,1.256c-3.317,1.926-5.374,5.69-5.374,9.85
		c0,1.193,0.187,2.375,0.544,3.491c0.033,0.118,0.214,0.701,0.235,0.818c0.108,0.298,0.761,1.283,1.251,2.027
		c1.578,2.454,3.54,5.486,4.884,9.588c0.481,1.485-0.317,3.061-1.792,3.542c-0.285,0.102-0.583,0.134-0.868,0.134
		c-1.179,0-2.275-0.755-2.662-1.944c-1.121-3.408-2.786-5.99-4.259-8.278c-1.349-2.064-1.636-2.594-1.809-3.031
		c-0.063-0.151-0.208-0.819-0.241-0.985c-0.614-1.839-0.887-3.592-0.887-5.374c0-6.153,3.133-11.778,8.169-14.697
		c2.288-1.323,4.774-2,7.379-2C28.912,13.057,30.153,14.312,30.153,15.858z"/>
</g>
<g>
</g>
<g>
</g>
<g>
</g>
<g>
</g>
<g>
</g>
<g>
</g>
<g>
</g>
<g>
</g>
<g>
</g>
<g>
</g>
<g>
</g>
<g>
</g>
<g>
</g>
<g>
</g>
<g>
</g>
</svg>
