<?xml version="1.0" encoding="iso-8859-1"?>
<!-- Generator: Adobe Illustrator 16.0.0, SVG Export Plug-In . SVG Version: 6.00 Build 0)  -->
<!DOCTYPE svg PUBLIC "-//W3C//DTD SVG 1.1//EN" "http://www.w3.org/Graphics/SVG/1.1/DTD/svg11.dtd">
<svg version="1.1" id="Capa_1" xmlns="http://www.w3.org/2000/svg" xmlns:xlink="http://www.w3.org/1999/xlink" x="0px" y="0px"
	 width="116.618px" height="116.619px" viewBox="0 0 116.618 116.619" style="enable-background:new 0 0 116.618 116.619;"
	 xml:space="preserve">
<g>
	<path d="M38.915,41.338c0,1.541-1.256,2.801-2.801,2.801c-1.219,0-2.389,0.317-3.476,0.953c-2.554,1.48-4.133,4.38-4.133,7.592
		c0,0.92,0.138,1.828,0.418,2.701c0.035,0.106,0.186,0.594,0.208,0.701c0.037,0.106,0.565,0.897,0.952,1.507
		c1.233,1.91,2.923,4.526,4.045,7.94c0.481,1.478-0.319,3.054-1.786,3.535c-0.294,0.099-0.583,0.142-0.875,0.142
		c-1.176,0-2.273-0.753-2.663-1.938c-0.895-2.724-2.24-4.803-3.427-6.648c-0.594-0.924-1.38-2.201-1.514-2.528
		c-0.067-0.162-0.203-0.754-0.235-0.93c-0.497-1.519-0.728-2.996-0.728-4.493c0-5.207,2.654-9.97,6.931-12.451
		c1.951-1.133,4.069-1.71,6.287-1.71C37.652,38.537,38.915,39.784,38.915,41.338z M69.762,21.166
		c-0.011-2.977,1.149-5.784,3.25-7.907c2.113-2.123,4.926-3.299,7.924-3.305c6.189,0,11.209,5.021,11.219,11.18
		c0.01,6.178-5.006,11.207-11.186,11.212h-0.021C74.791,32.345,69.775,27.33,69.762,21.166z M75.365,21.149
		c0,3.086,2.517,5.593,5.593,5.593v2.802l0.011-2.802c3.094-0.006,5.593-2.518,5.582-5.598c0-3.084-2.518-5.587-5.593-5.587
		c-1.505,0.005-2.917,0.588-3.973,1.658C75.935,18.268,75.365,19.658,75.365,21.149z M83.737,48.701
		c0,0.353-0.085,0.706-0.207,1.023c3.876,1.132,6.729,4.687,6.729,8.922l-0.032,48.648c0,5.145-4.181,9.324-9.325,9.324
		c-5.143,0-9.324-4.18-9.324-9.324v-6.052c-1.641,1.291-3.554,2.484-5.985,3.251c-0.271,0.088-0.557,0.131-0.832,0.131
		c-0.582,0-1.171-0.187-1.658-0.553c-0.717-0.536-1.144-1.367-1.144-2.249c0.03-14.643-5.967-24.597-11.346-24.597
		c-5.378,0-11.367,9.943-11.367,24.219c0,0.892-0.417,1.915-1.139,2.441c-0.717,0.541-1.63,0.864-2.486,0.59
		c-9.072-2.859-14.934-9.806-14.934-17.707c0.521-5.296,1.001-14.227,0.14-16.87c-0.556-1.695-1.541-3.212-2.498-4.695
		c-1.165-1.789-2.367-3.648-2.832-5.852c-0.638-1.984-1.001-4.319-1.001-6.663c0-8.19,4.263-15.751,11.134-19.729
		c7.935-4.593,18.361-3.262,24.984,2.974c3.194-3.007,7.175-4.877,11.433-5.513c-1.392-2.812-2.229-5.945-2.229-9.277
		C59.82,9.483,69.303,0,80.969,0C86.64,0,91.945,2.216,95.94,6.199c4.002,4.006,6.188,9.319,6.183,14.973
		c-0.005,10.702-8.044,19.487-18.363,20.866L83.737,48.701z M65.414,21.138c-0.008,8.577,6.971,15.56,15.534,15.56h0.01l0,0
		c8.568,0,15.548-6.971,15.552-15.538c0.005-4.159-1.609-8.058-4.552-11.004c-2.927-2.938-6.841-4.558-10.989-4.558
		C72.389,5.592,65.419,12.563,65.414,21.138z M71.592,93.209l0.009-34.574c0-4.249,2.857-7.795,6.742-8.922
		c-0.121-0.317-0.209-0.654-0.209-1.028V42.02c-4.902-0.653-9.278-2.953-12.514-6.392c-0.17,0.028-0.323,0.101-0.499,0.101
		c-4.757,0-9.246,2.219-12.311,6.085c-0.533,0.67-1.34,1.058-2.197,1.058c-0.856,0-1.664-0.393-2.196-1.058
		c-4.779-6.042-13.453-7.8-19.981-4.008c-5.138,2.977-8.337,8.681-8.337,14.878c0,1.776,0.273,3.546,0.812,5.25
		c0.317,1.457,1.156,2.733,2.119,4.238c1.09,1.686,2.335,3.601,3.122,5.981c1.483,4.537,0.363,16.536,0.122,18.9
		c0.011,4.159,2.868,8.143,7.531,10.621c1.079-15.025,8.073-26.053,16.809-26.053c8.742,0,15.746,11.06,16.819,25.801
		C68.92,96.421,70.257,94.988,71.592,93.209z M80.936,54.909c-1.001,0-1.938,0.386-2.643,1.086
		c-0.701,0.706-1.089,1.642-1.089,2.635l-0.022,48.66c0,2.052,1.666,3.721,3.711,3.721h0.01c2.053,0,3.722-1.669,3.722-3.721
		l0.032-48.649C84.656,56.572,82.993,54.909,80.936,54.909z"/>
</g>
<g>
</g>
<g>
</g>
<g>
</g>
<g>
</g>
<g>
</g>
<g>
</g>
<g>
</g>
<g>
</g>
<g>
</g>
<g>
</g>
<g>
</g>
<g>
</g>
<g>
</g>
<g>
</g>
<g>
</g>
</svg>
