<?xml version="1.0" encoding="iso-8859-1"?>
<!-- Generator: Adobe Illustrator 16.0.0, SVG Export Plug-In . SVG Version: 6.00 Build 0)  -->
<!DOCTYPE svg PUBLIC "-//W3C//DTD SVG 1.1//EN" "http://www.w3.org/Graphics/SVG/1.1/DTD/svg11.dtd">
<svg version="1.1" id="Capa_1" xmlns="http://www.w3.org/2000/svg" xmlns:xlink="http://www.w3.org/1999/xlink" x="0px" y="0px"
	 width="74.386px" height="74.386px" viewBox="0 0 74.386 74.386" style="enable-background:new 0 0 74.386 74.386;"
	 xml:space="preserve">
<g>
	<path d="M62.183,2.73c-7.956-4.588-18.364-3.256-24.995,2.979C30.58-0.52,20.182-1.864,12.197,2.73
		C5.333,6.708,1.081,14.274,1.081,22.459c0,2.375,0.354,4.706,0.996,6.663c0.46,2.202,1.665,4.062,2.825,5.86
		c0.964,1.475,1.949,2.999,2.505,4.695c0.857,2.632,0.374,11.562-0.14,16.871c0,7.879,5.867,14.84,14.938,17.707
		c0.15,0.043,0.318,0.077,0.477,0.088c1.723,0.3,3.278-1.057,3.278-2.764c0-0.301-0.047-0.585-0.129-0.854
		C25.964,56.717,31.88,46.992,37.2,46.992c5.381,0,11.366,9.943,11.366,24.153c-0.009,0.088-0.021,0.351-0.021,0.438
		c0,0.887,0.429,1.73,1.138,2.255c0.492,0.355,1.062,0.547,1.663,0.547c0.285,0,0.569-0.043,0.832-0.118
		c9.072-2.87,14.939-9.829,14.928-17.994c-0.501-5.012-0.982-13.942-0.118-16.568c0.556-1.702,1.541-3.231,2.504-4.712
		c1.171-1.797,2.375-3.653,2.758-5.582c0.711-2.213,1.056-4.55,1.056-6.947C73.305,14.263,69.056,6.708,62.183,2.73z M66.843,27.967
		c-0.252,1.177-1.083,2.465-2.056,3.962c-1.096,1.699-2.344,3.62-3.132,6.016c-1.48,4.523-0.36,16.512-0.142,18.591
		c0,4.378-2.833,8.395-7.484,10.878c-1.036-14.861-8.057-26.035-16.842-26.035c-8.742,0-15.734,11.032-16.81,26.053
		c-4.662-2.479-7.518-6.463-7.538-10.622c0.242-2.363,1.368-14.375-0.122-18.897c-0.778-2.379-2.018-4.303-3.115-5.989
		c-0.966-1.491-1.8-2.78-2.117-4.244C6.942,26,6.665,24.235,6.665,22.443c0-6.196,3.196-11.901,8.33-14.878
		c2.357-1.363,5.015-2.08,7.683-2.08c4.774,0,9.245,2.219,12.298,6.079c0.535,0.674,1.334,1.067,2.202,1.067
		c0.852,0,1.663-0.393,2.202-1.061c4.79-6.033,13.434-7.781,19.989-4.005c5.144,2.977,8.328,8.673,8.328,14.873
		C67.702,24.273,67.439,26.038,66.843,27.967z M25.488,11.106c0,1.548-1.256,2.801-2.802,2.801c-1.212,0-2.382,0.32-3.479,0.955
		c-2.544,1.472-4.118,4.385-4.118,7.598c0,0.919,0.133,1.833,0.413,2.717c0.033,0.112,0.191,0.61,0.212,0.722
		c0.028,0.069,0.556,0.865,0.941,1.464c1.256,1.933,2.937,4.545,4.058,7.945c0.483,1.472-0.325,3.053-1.795,3.535
		c-0.283,0.096-0.583,0.141-0.862,0.141c-1.176,0-2.272-0.751-2.673-1.928c-0.878-2.711-2.218-4.785-3.4-6.612
		c-0.611-0.952-1.401-2.23-1.531-2.561c-0.073-0.178-0.117-0.359-0.155-0.546c-0.578-1.919-0.808-3.394-0.808-4.876
		c0-5.201,2.659-9.97,6.92-12.452c1.978-1.129,4.085-1.71,6.287-1.71C24.239,8.303,25.488,9.554,25.488,11.106z"/>
</g>
<g>
</g>
<g>
</g>
<g>
</g>
<g>
</g>
<g>
</g>
<g>
</g>
<g>
</g>
<g>
</g>
<g>
</g>
<g>
</g>
<g>
</g>
<g>
</g>
<g>
</g>
<g>
</g>
<g>
</g>
</svg>
