<?xml version="1.0" encoding="iso-8859-1"?>
<!-- Generator: Adobe Illustrator 16.0.0, SVG Export Plug-In . SVG Version: 6.00 Build 0)  -->
<!DOCTYPE svg PUBLIC "-//W3C//DTD SVG 1.1//EN" "http://www.w3.org/Graphics/SVG/1.1/DTD/svg11.dtd">
<svg version="1.1" id="Capa_1" xmlns="http://www.w3.org/2000/svg" xmlns:xlink="http://www.w3.org/1999/xlink" x="0px" y="0px"
	 width="99.22px" height="99.22px" viewBox="0 0 99.22 99.22" style="enable-background:new 0 0 99.22 99.22;" xml:space="preserve"
	>
<g>
	<path d="M35.541,27.771c0,1.541-1.256,2.802-2.802,2.802c-1.216,0-2.389,0.325-3.474,0.953c-2.557,1.485-4.137,4.387-4.137,7.592
		c0,0.92,0.143,1.828,0.42,2.711c0.033,0.101,0.187,0.583,0.208,0.701c0.04,0.101,0.567,0.887,0.952,1.503
		c1.231,1.9,2.926,4.521,4.046,7.941c0.483,1.472-0.32,3.054-1.788,3.535c-0.29,0.093-0.584,0.131-0.874,0.131
		c-1.176,0-2.275-0.743-2.661-1.925c-0.898-2.736-2.241-4.816-3.429-6.655c-0.595-0.93-1.378-2.205-1.513-2.525
		c-0.068-0.156-0.202-0.755-0.236-0.93c-0.5-1.516-0.729-2.99-0.729-4.498c0-5.207,2.655-9.97,6.932-12.452
		c1.949-1.129,4.069-1.708,6.287-1.708C34.285,24.97,35.541,26.214,35.541,27.771z M88.093,14.961c0,1.546-1.263,2.802-2.802,2.802
		h-9.105v22.755c0,0.219-0.079,0.404-0.112,0.6c3.314,1.126,5.716,4.234,5.716,7.933v41.762c0,4.641-3.778,8.407-8.404,8.407
		c-4.641,0-8.405-3.767-8.405-8.407v-1.051c-0.815,0.416-1.69,0.811-2.746,1.139c-0.274,0.088-0.564,0.126-0.836,0.126
		c-0.593,0-1.173-0.187-1.652-0.552c-0.725-0.526-1.149-1.368-1.149-2.25c0.02-14.643-5.966-24.597-11.35-24.597
		c-5.379,0-11.372,9.949-11.372,24.219c0,0.897-0.417,1.915-1.134,2.452c-0.717,0.531-1.636,0.864-2.496,0.591
		c-9.07-2.867-14.934-9.817-14.934-17.708c0.523-5.296,1.005-14.237,0.143-16.864c-0.556-1.696-1.543-3.229-2.5-4.705
		c-1.165-1.796-2.363-3.655-2.829-5.854c-0.64-1.985-1.004-4.321-1.004-6.664c0-8.186,4.266-15.751,11.136-19.723
		c7.935-4.605,18.361-3.272,24.985,2.968c6.187-5.833,15.645-7.31,23.349-3.754V2.803C70.588,1.25,71.838,0,73.39,0h11.909
		c1.541,0,2.802,1.25,2.802,2.803c0,1.534-1.261,2.801-2.802,2.801h-9.107v6.533h9.107C86.84,12.16,88.093,13.42,88.093,14.961z
		 M64.98,83.186V49.051c0-3.699,2.408-6.807,5.719-7.933c-0.05-0.196-0.115-0.381-0.115-0.6V24.583
		c-0.403-0.035-0.794-0.131-1.159-0.342c-6.546-3.806-15.202-2.036-20,4.006c-0.532,0.667-1.339,1.053-2.194,1.053
		c-0.859,0-1.667-0.386-2.197-1.053c-4.781-6.053-13.448-7.801-19.981-4.006c-5.139,2.968-8.339,8.678-8.339,14.865
		c0,1.776,0.276,3.546,0.813,5.256c0.319,1.444,1.153,2.732,2.117,4.224c1.095,1.703,2.337,3.617,3.121,5.993
		c1.485,4.525,0.364,16.535,0.124,18.9c0.011,4.147,2.869,8.131,7.531,10.62C31.5,69.073,38.494,58.047,47.23,58.047
		c8.738,0,15.736,11.043,16.825,25.795C64.345,83.645,64.667,83.407,64.98,83.186z M76.186,49.051c0-1.541-1.262-2.802-2.801-2.802
		c-1.555,0-2.802,1.261-2.802,2.802v41.762c0,1.535,1.247,2.802,2.802,2.802c1.539,0,2.801-1.267,2.801-2.802V49.051z"/>
</g>
<g>
</g>
<g>
</g>
<g>
</g>
<g>
</g>
<g>
</g>
<g>
</g>
<g>
</g>
<g>
</g>
<g>
</g>
<g>
</g>
<g>
</g>
<g>
</g>
<g>
</g>
<g>
</g>
<g>
</g>
</svg>
