<?xml version="1.0" encoding="iso-8859-1"?>
<!-- Generator: Adobe Illustrator 16.0.0, SVG Export Plug-In . SVG Version: 6.00 Build 0)  -->
<!DOCTYPE svg PUBLIC "-//W3C//DTD SVG 1.1//EN" "http://www.w3.org/Graphics/SVG/1.1/DTD/svg11.dtd">
<svg version="1.1" id="Capa_1" xmlns="http://www.w3.org/2000/svg" xmlns:xlink="http://www.w3.org/1999/xlink" x="0px" y="0px"
	 width="131.617px" height="131.617px" viewBox="0 0 131.617 131.617" style="enable-background:new 0 0 131.617 131.617;"
	 xml:space="preserve">
<g>
	<path d="M43.858,52.413v6.041c-9.154,3.71-16.479,8.764-15.767,16.114c0.24,2.373,1.641,6.593,8.416,8.13
		c1.681,0.383,3.619,0.574,5.71,0.574c0.53,0,1.102-0.071,1.653-0.094v5.79H26.711c-1.545,0-2.801,1.247-2.801,2.802
		c0,1.544,1.256,2.802,2.801,2.802H58.23c1.541,0,2.801-1.258,2.801-2.802c0-1.555-1.261-2.802-2.801-2.802h-8.752v-6.351
		c8.491-1.392,17.21-4.999,20.078-9.698c0.812-1.308,0.386-3.043-0.937-3.842c-1.31-0.81-3.037-0.394-3.845,0.93
		c-1.658,2.709-8.382,5.604-15.29,6.923V62.383c5.844-2.09,12.013-3.72,15.991-4.774c2.812-0.747,5.185-1.368,6.78-1.904
		c11.581-3.821,19.588-11.387,21.94-20.772c2.102-8.361-0.569-16.968-7.484-24.24C77.877,1.428,66.03,0.117,56.696,0.016
		c-3.401-0.178-16.024,1.056-19.298,7.067c-0.746,1.357-0.24,3.064,1.114,3.801c1.357,0.755,3.059,0.252,3.801-1.111
		c1.114-2.033,8.706-3.934,14.325-4.142c12.233,0.136,20.254,2.902,26.016,8.944c5.557,5.833,7.732,12.585,6.123,19.018
		c-1.882,7.48-8.531,13.617-18.265,16.821c-1.518,0.504-3.775,1.089-6.455,1.79c-4.459,1.171-9.592,2.536-14.568,4.189v-3.979
		c16.461-1.423,29.417-15.256,29.417-32.079c0-1.541-1.258-2.802-2.802-2.802H17.27c-1.541,0-2.802,1.261-2.802,2.802
		C14.44,37.157,27.395,50.979,43.858,52.413z M43.858,77.593c-2.219,0.119-4.331,0.071-6.111-0.34
		c-3.855-0.887-4.025-2.653-4.086-3.217c-0.348-3.58,4.214-6.77,10.186-9.429L43.858,77.593L43.858,77.593z M73.126,23.135
		c-1.4,13.366-12.732,23.814-26.467,23.814c-9.415,0-17.617-4.974-22.344-12.372h20.472c1.547,0,2.802-1.253,2.802-2.801
		c0-1.546-1.254-2.802-2.802-2.802H21.563c-0.646-1.872-1.16-3.803-1.375-5.839H73.126z M116.887,62.977
		c-3.902-8.304-9.1-15.65-15.459-21.831c-0.589-0.583-1.423-0.865-2.249-0.786c-0.826,0.096-1.575,0.556-2.036,1.246
		c-2.784,4.224-5.398,8.481-8.004,12.73c-2.156,3.519-4.323,7.037-6.578,10.539c-0.723,1.116-0.569,2.583,0.372,3.512
		c1.833,1.812,3.836,3.59,5.772,5.325c1.341,1.192,2.666,2.374,3.88,3.523c-8.646,11.732-22.673,24.203-35.462,31.542
		c-2.469-3.514-4.994-7.038-7.555-10.601c-0.812-1.1-2.299-1.478-3.514-0.858c-3.62,1.777-7.274,3.431-10.905,5.1
		c-4.605,2.102-9.219,4.203-13.795,6.556c-0.744,0.366-1.283,1.056-1.461,1.873c-0.182,0.808,0,1.662,0.509,2.32
		c5.743,7.517,12.774,13.924,19.802,18.056c0.429,0.263,0.919,0.394,1.417,0.394c0.119,0,0.252-0.011,0.364-0.033
		c11.465-1.521,33.384-6.763,51.431-24.771c11.69-11.629,19.634-25.773,23.639-41.971C117.226,64.213,117.16,63.554,116.887,62.977z
		 M89.489,102.835c-16.389,16.351-36.257,21.461-47.246,23.048c-5.305-3.261-10.612-7.967-15.238-13.483
		c3.49-1.706,6.985-3.294,10.487-4.891c2.97-1.353,5.951-2.708,8.932-4.132c2.573,3.567,5.094,7.112,7.571,10.665
		c0.817,1.159,2.37,1.531,3.619,0.864c14.973-7.979,31.437-22.622,40.971-36.421c0.766-1.106,0.626-2.605-0.313-3.558
		c-1.723-1.751-3.744-3.557-5.826-5.417c-1.305-1.166-2.644-2.348-3.932-3.554c1.839-2.902,3.623-5.797,5.406-8.712
		c1.981-3.217,3.951-6.432,6-9.655c4.539,4.919,8.457,10.667,11.467,16.854C107.568,79.251,100.205,92.17,89.489,102.835z"/>
</g>
<g>
</g>
<g>
</g>
<g>
</g>
<g>
</g>
<g>
</g>
<g>
</g>
<g>
</g>
<g>
</g>
<g>
</g>
<g>
</g>
<g>
</g>
<g>
</g>
<g>
</g>
<g>
</g>
<g>
</g>
</svg>
