<?xml version="1.0" encoding="utf-8"?>
<!-- Generator: Adobe Illustrator 22.0.1, SVG Export Plug-In . SVG Version: 6.00 Build 0)  -->
<svg version="1.1" id="Calque_1" xmlns="http://www.w3.org/2000/svg" xmlns:xlink="http://www.w3.org/1999/xlink" x="0px" y="0px"
	 viewBox="0 0 155 42" style="enable-background:new 0 0 155 42;" xml:space="preserve">
<style type="text/css">
	.st0{fill:#231F20;}
	.st1{fill:#0082A5;}
</style>
<g>
	<g>
		<g>
			<g>
				<path class="st0" d="M0.4,15.2h1.7v11.1h5.8V28H0.4V15.2z"/>
			</g>
		</g>
		<g>
			<g>
				<path class="st0" d="M8.8,21.6c0-3.8,2.7-6.7,6.5-6.7c3.8,0,6.5,2.9,6.5,6.7s-2.7,6.7-6.5,6.7C11.6,28.3,8.8,25.4,8.8,21.6z
					 M20.1,21.6c0-2.8-1.9-5.1-4.7-5.1c-2.9,0-4.7,2.3-4.7,5.1s1.9,5.1,4.7,5.1C18.3,26.7,20.1,24.4,20.1,21.6z"/>
			</g>
		</g>
		<g>
			<g>
				<path class="st0" d="M35.1,20.8v6.3c-1.2,0.8-3.2,1.2-4.8,1.2c-4.3,0-6.7-3.1-6.7-6.7c0-3.8,2.7-6.7,6.5-6.7
					c2.3,0,3.7,0.6,4.7,1.7l-1.2,1.3c-1-1-2.2-1.4-3.5-1.4c-2.9,0-4.7,2.3-4.7,5.1c0,2.9,2.1,5.1,4.9,5.1c1.2,0,2.3-0.2,3.1-0.7
					v-3.5h-2.8v-1.6H35.1z"/>
			</g>
		</g>
		<g>
			<g>
				<path class="st0" d="M38.2,15.2h1.7V28h-1.7V15.2z"/>
			</g>
		</g>
		<g>
			<g>
				<path class="st0" d="M43.1,15.2h4.4c2.2,0,3.8,1,3.8,3.2c0,1.5-0.9,2.4-2.2,2.8v0c1.5,0.1,2.7,1.5,2.7,3.2c0,2.3-2,3.5-4.4,3.5
					h-4.3V15.2z M44.8,20.5h2.3c1.3,0,2.3-0.5,2.3-1.9c0-1-0.6-1.9-2-1.9h-2.7V20.5z M44.8,26.4h2.5c1,0,2.7-0.4,2.7-2.2
					c0-1.5-1-2.3-2.7-2.3h-2.5V26.4z"/>
			</g>
		</g>
		<g>
			<g>
				<path class="st0" d="M54.3,15.2h8.1v1.6H56v3.8h6v1.6h-6v4.1h6.7V28h-8.4V15.2z"/>
			</g>
		</g>
		<g>
			<g>
				<path class="st0" d="M73.9,18c-0.7-0.9-1.9-1.5-3-1.5c-2.8,0-4.7,2.3-4.7,5.2c0,2.7,1.8,5,4.7,5c1.4,0,2.5-0.6,3.3-1.7l1.4,1.1
					c-0.4,0.5-1.9,2.2-4.8,2.2c-4,0-6.5-3.4-6.5-6.6c0-4,2.7-6.8,6.5-6.8c1.7,0,3.4,0.6,4.4,2L73.9,18z"/>
			</g>
		</g>
		<g>
			<g>
				<path class="st1" d="M87,18.2c-0.9-1-1.8-1.3-2.6-1.3c-2.6,0-4.3,2-4.3,4.6c0,2.7,1.7,4.7,4.3,4.7c1,0,2-0.5,2.8-1.5L89,26
					c-1.1,1.6-2.8,2.3-4.7,2.3c-3.9,0-6.6-2.7-6.6-6.6c0-4.1,2.8-6.8,6.6-6.8c1.7,0,3.2,0.6,4.4,2L87,18.2z"/>
			</g>
		</g>
		<g>
			<g>
				<path class="st1" d="M96.5,14.9c3.9-0.1,6.7,2.6,6.7,6.7c0,4-2.8,6.6-6.7,6.7c-3.9,0-6.6-2.7-6.6-6.6
					C89.9,17.5,92.6,14.9,96.5,14.9z M96.5,26.2c2.6,0,4.3-2,4.3-4.7c0-2.5-1.7-4.6-4.3-4.6c-2.6,0-4.3,2-4.3,4.6
					C92.2,24.2,93.9,26.2,96.5,26.2z"/>
			</g>
		</g>
		<g>
			<g>
				<path class="st1" d="M105.3,15.2h3l6.1,9.5h0v-9.5h2.2V28h-2.8l-6.2-9.8h0V28h-2.2V15.2z"/>
			</g>
		</g>
		<g>
			<g>
				<path class="st1" d="M119.4,15.2h3l6.1,9.5h0v-9.5h2.2V28h-2.8l-6.2-9.8h0V28h-2.2V15.2z"/>
			</g>
		</g>
		<g>
			<g>
				<path class="st1" d="M133.6,15.2h8.3v2.1h-6.1v3.1h5.8v2.1h-5.8v3.5h6.4V28h-8.6V15.2z"/>
			</g>
		</g>
		<g>
			<g>
				<path class="st1" d="M147.5,21.3l-4.2-6.1h2.8l3,4.7l2.9-4.7h2.7l-4.1,6.1l4.6,6.7h-2.8l-3.3-5.4l-3.3,5.4H143L147.5,21.3z"/>
			</g>
		</g>
	</g>
</g>
</svg>
