<svg width="50" height="65" viewBox="0 0 50 65" fill="none" xmlns="http://www.w3.org/2000/svg">
<g id="Frame 1000005848">
<g id="Frame" clip-path="url(#clip0_340_10759)">
<g id="Group">
<g id="Group_2">
<g id="Group_3">
<g id="Group_4">
<path id="Vector" d="M47.1003 44.1001C46.9003 48.7001 46.1003 53.8001 43.1003 57.6001C40.1003 61.4001 35.2003 62.6001 30.6003 62.2001C23.8003 61.6001 18.5003 56.6001 14.9003 51.2001C11.2003 45.8001 7.50033 40.3001 3.80033 34.9001C3.30033 34.1001 2.60033 33.3001 2.40033 32.4001C1.90033 29.4001 5.70033 27.4001 7.80033 29.6001C8.70033 30.5001 9.30033 31.6001 10.0003 32.6001C11.1003 34.1001 12.2003 35.6001 13.2003 37.2001C13.4003 37.5001 13.6003 37.8001 13.8003 38.0001C14.2003 38.7001 15.4003 38.7001 15.8003 38.1001C16.0003 37.9001 16.1003 37.5001 16.0003 37.2001C16.0003 29.5001 16.0003 21.8001 16.0003 14.2001C16.0003 11.4001 15.9003 8.50011 16.0003 5.70011C16.1003 4.10011 17.2003 2.70011 18.9003 2.50011C20.8003 2.30011 22.4003 3.90011 22.4003 5.70011C22.4003 7.00011 22.4003 8.30011 22.4003 9.50011C22.4003 13.9001 22.4003 18.3001 22.4003 22.7001C22.4003 23.2001 22.7003 23.5001 23.0003 23.7001C23.2003 23.8001 23.4003 23.9001 23.6003 23.9001C23.8003 23.9001 24.0003 23.8001 24.2003 23.7001C24.5003 23.5001 24.8003 23.2001 24.8003 22.7001C24.8003 22.6001 24.8003 22.4001 24.8003 22.3001V22.2001C24.8003 22.1001 24.8003 22.1001 24.9003 22.0001C24.9003 21.9001 25.0003 21.7001 25.0003 21.6001C25.0003 21.5001 25.1003 21.4001 25.1003 21.4001C25.2003 21.3001 25.3003 21.1001 25.4003 21.0001C25.4003 20.9001 25.5003 20.9001 25.5003 20.8001C25.6003 20.7001 25.7003 20.6001 25.8003 20.5001L25.9003 20.4001C26.0003 20.4001 26.0003 20.3001 26.1003 20.3001C26.2003 20.2001 26.4003 20.2001 26.5003 20.1001C26.6003 20.1001 26.6003 20.0001 26.7003 20.0001C26.9003 19.9001 27.0003 19.9001 27.2003 19.9001H27.3003C27.4003 19.9001 27.5003 19.9001 27.5003 19.9001C27.7003 19.9001 27.8003 19.9001 28.0003 19.9001C28.0003 19.9001 28.1003 19.9001 28.2003 19.9001H28.3003C28.4003 19.9001 28.6003 20.0001 28.7003 20.0001C28.8003 20.0001 28.8003 20.0001 28.8003 20.1001C28.8003 20.1001 28.9003 20.2001 29.0003 20.2001C29.1003 20.3001 29.3003 20.4001 29.4003 20.4001C29.4003 20.4001 29.5003 20.4001 29.5003 20.5001L29.6003 20.6001C29.7003 20.7001 29.8003 20.8001 29.9003 20.9001C29.9003 21.0001 30.0003 21.0001 30.0003 21.1001C29.9003 20.9001 30.1003 21.2001 30.1003 21.2001C30.2003 21.3001 30.3003 21.4001 30.3003 21.6001C30.3003 21.7001 30.4003 21.7001 30.4003 21.8001C30.4003 21.9001 30.5003 22.1001 30.5003 22.2001C30.5003 22.3001 30.5003 22.3001 30.5003 22.4001V22.5001C30.5003 22.5001 30.5003 22.5001 30.5003 22.6001C30.5003 23.3001 30.5003 23.9001 30.5003 24.6001C30.5003 25.4001 30.5003 26.1001 30.5003 26.9001C30.5003 27.3001 30.7003 27.6001 31.0003 27.8001C31.2003 27.9001 31.4003 28.1001 31.7003 28.1001C32.0003 28.1001 32.2003 28.0001 32.4003 27.8001C32.7003 27.6001 32.9003 27.3001 32.9003 26.9001C32.9003 26.8001 32.9003 26.6001 32.9003 26.5001V26.4001C32.9003 26.3001 32.9003 26.3001 33.0003 26.2001C33.0003 26.1001 33.1003 25.9001 33.1003 25.8001C33.1003 25.7001 33.2003 25.6001 33.2003 25.6001C33.3003 25.5001 33.4003 25.3001 33.5003 25.2001C33.5003 25.1001 33.6003 25.1001 33.6003 25.0001C33.7003 24.9001 33.8003 24.8001 33.9003 24.7001L34.0003 24.6001C34.1003 24.6001 34.1003 24.5001 34.2003 24.5001C34.3003 24.4001 34.5003 24.4001 34.6003 24.3001C34.7003 24.3001 34.7003 24.2001 34.8003 24.2001C35.0003 24.1001 35.1003 24.1001 35.3003 24.1001H35.4003C35.5003 24.1001 35.6003 24.1001 35.6003 24.1001C35.8003 24.1001 35.9003 24.1001 36.1003 24.1001C36.1003 24.1001 36.2003 24.1001 36.3003 24.1001H36.4003C36.5003 24.1001 36.7003 24.2001 36.8003 24.2001C36.9003 24.2001 36.9003 24.2001 36.9003 24.3001C36.9003 24.3001 37.0003 24.4001 37.1003 24.4001C37.2003 24.5001 37.4003 24.6001 37.5003 24.6001C37.5003 24.6001 37.6003 24.6001 37.6003 24.7001L37.7003 24.8001C37.8003 24.9001 37.9003 25.0001 38.0003 25.1001C38.0003 25.2001 38.1003 25.2001 38.1003 25.3001C38.0003 25.1001 38.2003 25.4001 38.2003 25.4001C38.3003 25.5001 38.4003 25.6001 38.4003 25.8001C38.4003 25.9001 38.5003 25.9001 38.5003 26.0001C38.5003 26.1001 38.6003 26.3001 38.6003 26.4001C38.6003 26.5001 38.6003 26.5001 38.6003 26.6001V26.7001C38.6003 26.7001 38.6003 26.7001 38.6003 26.8001C38.6003 27.5001 38.6003 28.1001 38.6003 28.8001C38.6003 29.6001 38.6003 30.3001 38.6003 31.1001C38.6003 31.7001 38.9003 32.0001 39.3003 32.2001C39.5003 32.3001 39.6003 32.3001 39.8003 32.3001C40.2003 32.3001 40.5003 32.1001 40.7003 31.8001C40.8003 31.7001 40.8003 31.7001 40.9003 31.6001V31.5001C40.9003 31.4001 41.0003 31.3001 41.0003 31.1001C41.1003 27.9001 45.8003 27.3001 46.5003 30.5001C46.8003 31.7001 46.6003 33.1001 46.6003 34.3001C47.2003 37.1001 47.3003 40.6001 47.1003 44.1001Z" fill="white"/>
<path id="Vector_2" d="M49.5008 32.9001C49.5008 31.2001 49.7008 29.5001 48.9008 27.9001C47.5008 25.2001 44.0008 24.4001 41.5008 26.0001C41.5008 25.8001 41.5008 25.5001 41.4008 25.3001C41.1008 23.7001 40.0008 22.3001 38.5008 21.6001C36.9008 20.9001 35.1008 20.9001 33.5008 21.8001C33.4008 21.9001 33.2008 22.0001 33.1008 22.1001C33.1008 21.9001 33.1008 21.7001 33.0008 21.5001C32.7008 19.9001 31.6008 18.5001 30.1008 17.8001C28.5008 17.1001 26.7008 17.1001 25.1008 18.0001C25.0008 18.1001 24.9008 18.2001 24.7008 18.2001C24.7008 15.5001 24.7008 12.8001 24.7008 10.2001C24.7008 8.70006 24.7008 7.20006 24.7008 5.60006C24.6008 1.70006 20.7008 -1.09994 17.0008 0.500061C12.9008 2.30006 13.6008 6.90006 13.6008 10.6001C13.6008 15.8001 13.6008 21.1001 13.6008 26.3001C13.6008 28.8001 13.6008 31.3001 13.6008 33.8001C12.5008 32.2001 11.3008 30.6001 10.2008 29.0001C8.60076 26.8001 6.00076 25.7001 3.40076 26.7001C0.400762 27.9001 -0.899238 31.5001 0.500762 34.4001C0.900762 35.3001 1.50076 36.0001 2.10076 36.8001C3.20076 38.4001 4.30076 40.0001 5.40076 41.6001C7.70076 44.9001 9.90076 48.3001 12.2008 51.6001C16.2008 57.5001 21.4008 63.1001 28.8008 64.4001C34.1008 65.3001 40.1008 64.2001 43.9008 60.2001C47.7008 56.3001 48.9008 50.7001 49.3008 45.4001C49.7008 41.2001 49.5008 37.1001 49.5008 32.9001ZM30.6008 21.5001C30.6008 21.4001 30.6008 21.3001 30.6008 21.5001ZM47.1008 44.1001C46.9008 48.7001 46.1008 53.8001 43.1008 57.6001C40.1008 61.4001 35.2008 62.6001 30.6008 62.2001C23.8008 61.6001 18.5008 56.6001 14.9008 51.2001C11.2008 45.8001 7.50076 40.3001 3.80076 34.9001C3.30076 34.1001 2.60076 33.3001 2.40076 32.4001C1.90076 29.4001 5.70076 27.4001 7.80076 29.6001C8.70076 30.5001 9.30076 31.6001 10.0008 32.6001C11.1008 34.1001 12.2008 35.6001 13.2008 37.2001C13.4008 37.5001 13.6008 37.8001 13.8008 38.0001C14.2008 38.7001 15.4008 38.7001 15.8008 38.1001C16.0008 37.9001 16.1008 37.5001 16.0008 37.2001C16.0008 29.5001 16.0008 21.8001 16.0008 14.2001C16.0008 11.4001 15.9008 8.50006 16.0008 5.70006C16.1008 4.10006 17.2008 2.70006 18.9008 2.50006C20.8008 2.30006 22.4008 3.90006 22.4008 5.70006C22.4008 7.00006 22.4008 8.30006 22.4008 9.50006C22.4008 13.9001 22.4008 18.3001 22.4008 22.7001C22.4008 23.2001 22.7008 23.5001 23.0008 23.7001C23.2008 23.8001 23.4008 23.9001 23.6008 23.9001C23.8008 23.9001 24.0008 23.8001 24.2008 23.7001C24.5008 23.5001 24.8008 23.2001 24.8008 22.7001C24.8008 22.6001 24.8008 22.4001 24.8008 22.3001V22.2001C24.8008 22.1001 24.8008 22.1001 24.9008 22.0001C24.9008 21.9001 25.0008 21.7001 25.0008 21.6001C25.0008 21.5001 25.1008 21.4001 25.1008 21.4001C25.2008 21.3001 25.3008 21.1001 25.4008 21.0001C25.4008 20.9001 25.5008 20.9001 25.5008 20.8001C25.6008 20.7001 25.7008 20.6001 25.8008 20.5001L25.9008 20.4001C26.0008 20.4001 26.0008 20.3001 26.1008 20.3001C26.2008 20.2001 26.4008 20.2001 26.5008 20.1001C26.6008 20.1001 26.6008 20.0001 26.7008 20.0001C26.9008 19.9001 27.0008 19.9001 27.2008 19.9001H27.3008C27.4008 19.9001 27.5008 19.9001 27.5008 19.9001C27.7008 19.9001 27.8008 19.9001 28.0008 19.9001C28.0008 19.9001 28.1008 19.9001 28.2008 19.9001H28.3008C28.4008 19.9001 28.6008 20.0001 28.7008 20.0001C28.8008 20.0001 28.8008 20.0001 28.8008 20.1001C28.8008 20.1001 28.9008 20.2001 29.0008 20.2001C29.1008 20.3001 29.3008 20.4001 29.4008 20.4001C29.4008 20.4001 29.5008 20.4001 29.5008 20.5001L29.6008 20.6001C29.7008 20.7001 29.8008 20.8001 29.9008 20.9001C29.9008 21.0001 30.0008 21.0001 30.0008 21.1001C29.9008 20.9001 30.1008 21.2001 30.1008 21.2001C30.2008 21.3001 30.3008 21.4001 30.3008 21.6001C30.3008 21.7001 30.4008 21.7001 30.4008 21.8001C30.4008 21.9001 30.5008 22.1001 30.5008 22.2001C30.5008 22.3001 30.5008 22.3001 30.5008 22.4001V22.5001C30.5008 22.5001 30.5008 22.5001 30.5008 22.6001C30.5008 23.3001 30.5008 23.9001 30.5008 24.6001C30.5008 25.4001 30.5008 26.1001 30.5008 26.9001C30.5008 27.3001 30.7008 27.6001 31.0008 27.8001C31.2008 27.9001 31.4008 28.1001 31.7008 28.1001C32.0008 28.1001 32.2008 28.0001 32.4008 27.8001C32.7008 27.6001 32.9008 27.3001 32.9008 26.9001C32.9008 26.8001 32.9008 26.6001 32.9008 26.5001V26.4001C32.9008 26.3001 32.9008 26.3001 33.0008 26.2001C33.0008 26.1001 33.1008 25.9001 33.1008 25.8001C33.1008 25.7001 33.2008 25.6001 33.2008 25.6001C33.3008 25.5001 33.4008 25.3001 33.5008 25.2001C33.5008 25.1001 33.6008 25.1001 33.6008 25.0001C33.7008 24.9001 33.8008 24.8001 33.9008 24.7001L34.0008 24.6001C34.1008 24.6001 34.1008 24.5001 34.2008 24.5001C34.3008 24.4001 34.5008 24.4001 34.6008 24.3001C34.7008 24.3001 34.7008 24.2001 34.8008 24.2001C35.0008 24.1001 35.1008 24.1001 35.3008 24.1001H35.4008C35.5008 24.1001 35.6008 24.1001 35.6008 24.1001C35.8008 24.1001 35.9008 24.1001 36.1008 24.1001C36.1008 24.1001 36.2008 24.1001 36.3008 24.1001H36.4008C36.5008 24.1001 36.7008 24.2001 36.8008 24.2001C36.9008 24.2001 36.9008 24.2001 36.9008 24.3001C36.9008 24.3001 37.0008 24.4001 37.1008 24.4001C37.2008 24.5001 37.4008 24.6001 37.5008 24.6001C37.5008 24.6001 37.6008 24.6001 37.6008 24.7001L37.7008 24.8001C37.8008 24.9001 37.9008 25.0001 38.0008 25.1001C38.0008 25.2001 38.1008 25.2001 38.1008 25.3001C38.0008 25.1001 38.2008 25.4001 38.2008 25.4001C38.3008 25.5001 38.4008 25.6001 38.4008 25.8001C38.4008 25.9001 38.5008 25.9001 38.5008 26.0001C38.5008 26.1001 38.6008 26.3001 38.6008 26.4001C38.6008 26.5001 38.6008 26.5001 38.6008 26.6001V26.7001C38.6008 26.7001 38.6008 26.7001 38.6008 26.8001C38.6008 27.5001 38.6008 28.1001 38.6008 28.8001C38.6008 29.6001 38.6008 30.3001 38.6008 31.1001C38.6008 31.7001 38.9008 32.0001 39.3008 32.2001C39.5008 32.3001 39.6008 32.3001 39.8008 32.3001C40.2008 32.3001 40.5008 32.1001 40.7008 31.8001C40.8008 31.7001 40.8008 31.7001 40.9008 31.6001V31.5001C40.9008 31.4001 41.0008 31.3001 41.0008 31.1001C41.1008 27.9001 45.8008 27.3001 46.5008 30.5001C46.8008 31.7001 46.6008 33.1001 46.6008 34.3001C47.2008 37.1001 47.3008 40.6001 47.1008 44.1001Z" fill="black"/>
</g>
</g>
</g>
</g>
</g>
</g>
<defs>
<clipPath id="clip0_340_10759">
<rect width="49.6" height="64.6" fill="white"/>
</clipPath>
</defs>
</svg>
