<?xml version="1.0" encoding="utf-8" ?>
<!-- Generator: Adobe Illustrator 22.1.0, SVG Export Plug-In . SVG Version: 6.00 Build 0)  -->
<svg version="1.1" id="logos" xmlns="http://www.w3.org/2000/svg" xmlns:xlink="http://www.w3.org/1999/xlink" x="0px" y="0px"
     viewBox="0 0 260 72" style="enable-background:new 0 0 260 72;" xml:space="preserve">
<style type="text/css">
	.st0{fill:#FFFFFF;}
</style>
<g>
<g transform="translate(0,-952.36218)">
<path class="st0" d="M12.6,970.9v31.3l13.6,5.4v-31.2L12.6,970.9z M59.7,999.8v9.4c0,0.6-0.5,1-1.1,1c-0.1,0-0.3,0-0.4-0.1
			L43,1004l-15.3,6.1c-0.3,0.1-0.5,0.1-0.8,0l-15.7-6.3c-0.4-0.2-0.7-0.5-0.7-1v-33.5c0-0.6,0.5-1.1,1-1.1c0.1,0,0.3,0,0.4,0.1
			l15.3,6.1l15.3-6.1c0.2-0.1,0.3-0.1,0.5-0.1c0.1,0,0.2,0,0.3,0.1l15.7,6.3c0.4,0.2,0.7,0.6,0.7,1v6.7l-2.1,0.1v-6.1L44,970.9v31.2
			l13.6,5.5v-7.8H59.7z M41.9,970.9l-13.6,5.4v31.2l13.6-5.4V970.9L41.9,970.9z" />

	</g>
<path class="st0" d="M58.4,48.7c-5.4,0-9.8-4.4-9.8-9.8S53,29,58.4,29s9.8,4.4,9.8,9.8S63.9,48.7,58.4,48.7z M58.4,30.9
		c-4.4,0-8,3.6-8,8s3.6,8,8,8c4.4,0,8-3.6,8-8S62.8,30.9,58.4,30.9z" />

<g>
<rect x="57.5" y="32.8" class="st0" width="1.9" height="12.2" />

<rect x="52.4" y="37.9" class="st0" width="12.2" height="1.9" />

	</g>
<path class="st0" d="M39.8,29.8c0-2.1-1.7-3.8-3.8-3.8c-2.1,0-3.8,1.7-3.8,3.8c0,1,0.8,2.5,1.6,3.7l0,0c0,0,0,0.1,0.1,0.1
		c0,0,0,0.1,0.1,0.1h0c0.6,0.9,1.7,2.2,1.7,2.3c0.1,0.1,0.1,0.1,0.2,0.1s0.2,0,0.2-0.1c0.1-0.1,1.1-1.4,1.7-2.3h0c0,0,0,0,0-0.1
		c0,0,0,0,0,0l0,0C38.9,32.3,39.8,30.8,39.8,29.8z M36,31.5c-1,0-1.7-0.8-1.7-1.7c0-1,0.8-1.7,1.7-1.7s1.7,0.8,1.7,1.7
		C37.7,30.7,37,31.5,36,31.5z" />

</g>
<g>
<g>
<path class="st0" d="M94.6,32.1h6.6v1.3h-8V19.1h1.4V32.1z" />

<path class="st0" d="M109.5,33.8c-4.2,0-7.3-3.2-7.3-7.5s3.1-7.5,7.3-7.5c4.2,0,7.3,3.2,7.3,7.5S113.7,33.8,109.5,33.8z
			 M109.5,20.1c-3.6,0-5.8,2.9-5.8,6.2s2.2,6.2,5.8,6.2s5.8-2.9,5.8-6.2S113.1,20.1,109.5,20.1z" />

<path class="st0" d="M130.1,21.8c-1-1-2.3-1.7-4-1.7c-3.6,0-5.8,2.9-5.8,6.2s2.2,6.2,5.8,6.2c1.5,0,2.8-0.4,3.9-1v-4.8h-3.4v-1.3
			h4.8v7c-1.6,0.9-3.6,1.5-5.3,1.5c-4.2,0-7.3-3.2-7.3-7.5s3.1-7.5,7.3-7.5c2.2,0,3.8,0.6,5.1,1.9L130.1,21.8z" />

<path class="st0" d="M136.6,33.4h-1.4V19.1h1.4V33.4z" />

<path class="st0" d="M140.4,19.1h4.2c2.3,0,4.5,0.9,4.5,3.6c0,1.6-0.9,2.8-2.5,3.1v0c2,0.2,3.2,1.5,3.2,3.6c0,0.9-0.6,4-5.1,4
			h-4.3V19.1z M141.9,25.4h2.9c1.4,0,2.9-0.7,2.9-2.5c0-0.6-0.3-2.4-3-2.4h-2.7V25.4z M141.9,32.1h2.7c2.1,0,3.7-0.8,3.7-2.7
			s-1.2-2.8-3.5-2.8h-2.9V32.1z" />

<path class="st0" d="M154.4,32.1h7.5v1.3h-9V19.1h8.7v1.3h-7.3v4.9h6.8v1.3h-6.8V32.1z" />

<path class="st0" d="M176.3,31.2c-0.9,1.5-2.9,2.6-5.2,2.6c-4.2,0-7.3-3.2-7.3-7.5s3.1-7.5,7.3-7.5c1.8,0,3.6,0.7,4.9,2.3
			l-1.3,0.9c-0.6-0.9-2.1-1.9-3.6-1.9c-3.6,0-5.8,2.9-5.8,6.2s2.2,6.2,5.8,6.2c1.5,0,3-0.5,4-2.1L176.3,31.2z" />

<path class="st0" d="M92.9,39.3h4.9c2.7,0,5.2,0.9,5.2,4.1c0,2.1-1.2,3.6-3.3,3.9l3.7,6.3h-3l-3.3-6.1h-1.8v6.1h-2.5V39.3z
			 M97.3,45.4c1.4,0,3.1-0.1,3.1-2c0-1.7-1.6-1.9-2.8-1.9h-2.2v3.9H97.3z" />

<path class="st0" d="M105.4,39.3h9.3v2.3h-6.8v3.5h6.5v2.3h-6.5v3.9h7.2v2.3h-9.7V39.3z M110.9,35.4h2.7l-2.8,2.9H109L110.9,35.4z
			" />

<path class="st0" d="M124.2,38.9c4.4-0.1,7.5,2.9,7.5,7.5c0,4.5-3.1,7.4-7.5,7.5c-4.3,0-7.4-3-7.4-7.4
			C116.8,41.9,119.9,38.9,124.2,38.9z M124.2,51.6c2.9,0,4.9-2.3,4.9-5.3c0-2.8-1.9-5.1-4.9-5.1c-2.9,0-4.8,2.3-4.8,5.1
			C119.4,49.4,121.3,51.6,124.2,51.6z" />

<path class="st0" d="M134.1,39.3h4.9c2.7,0,5.2,0.9,5.2,4.1c0,2.1-1.2,3.6-3.3,3.9l3.7,6.3h-3l-3.3-6.1h-1.8v6.1h-2.5V39.3z
			 M138.5,45.4c1.4,0,3.1-0.1,3.1-2c0-1.7-1.6-1.9-2.8-1.9h-2.2v3.9H138.5z" />

<path class="st0" d="M146.6,39.3h2.5v14.3h-2.5V39.3z" />

<path class="st0" d="M152.1,39.3h9.3v2.3h-6.8v3.5h6.5v2.3h-6.5v3.9h7.2v2.3h-9.7V39.3z" />

<path class="st0" d="M164.3,39.3h3.3l6.8,10.6h0V39.3h2.5v14.3h-3.2l-7-11h0v11h-2.5V39.3z" />

<path class="st0" d="M183,41.6h-4.3v-2.3h11.1v2.3h-4.3v12H183V41.6z" />

<path class="st0" d="M196.1,39.3h2.2l6.1,14.3h-2.9l-1.3-3.3H194l-1.3,3.3H190L196.1,39.3z M199.3,48.1l-2.2-5.8l-2.2,5.8H199.3z" />

<path class="st0" d="M208.8,41.6h-4.3v-2.3h11.1v2.3h-4.3v12h-2.5V41.6z" />

<path class="st0" d="M217.2,39.3h2.5v14.3h-2.5V39.3z" />

<path class="st0" d="M229.5,38.9c4.4-0.1,7.5,2.9,7.5,7.5c0,4.5-3.1,7.4-7.5,7.5c-4.3,0-7.4-3-7.4-7.4
			C222.1,41.9,225.2,38.9,229.5,38.9z M229.5,51.6c2.9,0,4.9-2.3,4.9-5.3c0-2.8-1.9-5.1-4.9-5.1c-2.9,0-4.8,2.3-4.8,5.1
			C224.7,49.4,226.6,51.6,229.5,51.6z" />

<path class="st0" d="M239.4,39.3h3.3l6.8,10.6h0V39.3h2.5v14.3h-3.2l-7-11h0v11h-2.5V39.3z" />

	</g>
</g>
</svg>
