<?xml version="1.0" encoding="utf-8"?>
<svg version="1.1" id="Layer_1" xmlns="http://www.w3.org/2000/svg" xmlns:xlink="http://www.w3.org/1999/xlink" x="0px" y="0px"
	 width="100%" height="50px" viewBox="0 0 250 55" style="enable-background:new 0 0 250 55;" xml:space="preserve">
<style type="text/css">
	.st0{fill:#66CC99;}
	.st1{opacity:0.2;fill:#FFFFFF;enable-background:new    ;}
	.st2{fill:none;}
	.st3{fill:#FFFFFF;}
	.st4{fill:#B8C2CD;}
</style>
<polyline class="st0" points="0 0 55 0 55 55 0 55 0 0 " />
    <polygon class="st1" points="55 0 55 55 27.6 27.5 " />
      <line class="st2" x1="24.7" y1="42.8" x2="24.7" y2="42.8" />
      <line class="st2" x1="13.6" y1="42.8" x2="13.6" y2="42.8" />
      <path class="st3" d="M28.3 38.7v-2.9c3.1-0.5 4.7-2.6 4.7-5 0-2.5-1.4-4-4.5-5.2 -2.4-0.9-3.4-1.6-3.4-2.7 0-0.9 0.7-1.9 2.6-1.9s3.1 0.6 3.8 0.9l0.8-2.6c-0.9-0.4-2.1-0.9-3.8-0.9v-2.6h-2.3v2.7c-2.8 0.5-4.5 2.3-4.5 4.7 0 2.6 1.9 3.9 4.8 5 2.1 0.8 3 1.6 3 2.8 0 1.3-1.2 2.2-3 2.2 -1.7 0-3.3-0.6-4.3-1.2l-0.8 2.6c1 0.7 2.8 1.2 4.5 1.2v2.7h2.4V38.7z" />
      <path class="st3" d="M42.4 34.5c-2.9 5.8-8.7 9.4-15.2 9.4 -9.4 0-17-7.6-17-17s7.6-17 17-17c6.8 0 13 4.1 15.6 10.4v0.1h1.7l-0.1-0.2c-2.8-7.1-9.7-11.9-17.3-11.9C16.9 8.4 8.6 16.7 8.6 27c0 10.2 8.3 18.6 18.6 18.6 7.3 0 13.9-4.3 16.9-10.9l0.1-0.2L42.4 34.5 42.4 34.5z" />
      <rect x="39.5" y="30.7" class="st3" width="10.6" height="1.4" />
      <rect x="39.5" y="26.8" class="st3" width="10.6" height="1.4" />
      <rect x="39.5" y="22.9" class="st3" width="10.6" height="1.4" />
    <path class="st4" d="M67.6 33.3h6.6v1.4h-8V20.1h1.4V33.3z" />
    <path class="st4" d="M82.5 35c-4.2 0-7.3-3.2-7.3-7.6s3.1-7.6 7.3-7.6c4.2 0 7.3 3.2 7.3 7.6S86.7 35 82.5 35zM82.5 21.1c-3.6 0-5.8 2.9-5.8 6.3 0 3.3 2.2 6.3 5.8 6.3s5.8-2.9 5.8-6.3S86.1 21.1 82.5 21.1z" />
    <path class="st4" d="M103.1 22.8c-1-1-2.3-1.7-4-1.7 -3.6 0-5.8 2.9-5.8 6.3 0 3.3 2.2 6.3 5.8 6.3 1.5 0 2.8-0.4 3.9-1v-4.9h-3.4v-1.4h4.8v7.1c-1.6 1-3.6 1.5-5.3 1.5 -4.2 0-7.3-3.2-7.3-7.6s3.1-7.6 7.3-7.6c2.2 0 3.8 0.7 5.1 1.9L103.1 22.8z" />
    <path class="st4" d="M109.6 34.7h-1.4V20.1h1.4V34.7z" />
    <path class="st4" d="M113.4 20.1h4.2c2.3 0 4.5 0.9 4.5 3.7 0 1.6-0.9 2.8-2.5 3.2l0 0c2 0.2 3.2 1.5 3.2 3.6 0 0.9-0.6 4-5.1 4h-4.3C113.4 34.6 113.4 20.1 113.4 20.1zM114.8 26.5h2.9c1.4 0 2.9-0.7 2.9-2.5 0-0.6-0.3-2.5-3-2.5h-2.7v5H114.8zM114.8 33.3h2.7c2.1 0 3.7-0.8 3.7-2.8 0-1.9-1.2-2.8-3.5-2.8h-2.9C114.8 27.7 114.8 33.3 114.8 33.3z" />
    <path class="st4" d="M127.4 33.3h7.5v1.4h-9V20.1h8.7v1.4h-7.3v4.9h6.8v1.4h-6.8v5.5H127.4z" />
    <path class="st4" d="M149.3 32.4c-0.9 1.5-2.9 2.7-5.2 2.7 -4.2 0-7.3-3.2-7.3-7.6s3.1-7.6 7.3-7.6c1.7 0 3.6 0.7 4.9 2.3l-1.3 1c-0.6-0.9-2.1-1.9-3.6-1.9 -3.6 0-5.8 2.9-5.8 6.3 0 3.3 2.2 6.3 5.8 6.3 1.5 0 3-0.5 4-2.2L149.3 32.4z" />
    <path class="st3" d="M169.4 33.6c-1.7 0.9-3.7 1.4-5.8 1.4 -4.3 0-7.4-3-7.4-7.6 0-4.7 3.1-7.7 7.4-7.7 2.1 0 4.1 0.5 5.5 1.8l-1.8 1.9c-0.9-0.9-2.3-1.4-3.7-1.4 -2.9 0-4.8 2.3-4.8 5.2 0 3.1 1.9 5.4 4.8 5.4 1.3 0 2.4-0.2 3.3-0.8v-3.4H164v-2.3h5.4V33.6z" />
    <path class="st3" d="M172.4 20.1h4.9c2.7 0 5.2 0.9 5.2 4.2 0 2.1-1.2 3.6-3.3 3.9l3.7 6.4h-3l-3.3-6.2h-1.8v6.2h-2.5V20.1H172.4zM176.8 26.3c1.4 0 3.1-0.1 3.1-2 0-1.7-1.6-1.9-2.8-1.9h-2.2v3.9H176.8z" />
    <path class="st3" d="M184.9 20.1h9.1v2.3h-6.6v3.8h6.2v2.3h-6.2v6h-2.5V20.1z" />
</svg>
