<?xml version="1.0" encoding="utf-8"?>
<!-- Generator: Adobe Illustrator 22.0.1, SVG Export Plug-In . SVG Version: 6.00 Build 0)  -->
<svg version="1.1" xmlns="http://www.w3.org/2000/svg" xmlns:xlink="http://www.w3.org/1999/xlink" x="0px" y="0px" width="65px"
	 height="65px" viewBox="0 0 65 65" style="enable-background:new 0 0 65 65;" xml:space="preserve">
<style type="text/css">
	.st0{display:none;}
	.st1{display:inline;fill:#6CC396;}
	.st2{display:inline;opacity:0.2;fill:#FFFFFF;}
	.st3{display:inline;}
	.st4{fill:#FFFFFF;}
	.st5{fill:#FF4936;}
	.st6{opacity:0.2;fill:#FFFFFF;}
	.st7{display:inline;fill:#FF4936;}
	.st8{display:inline;fill:#32A2D7;}
	.st9{fill:#0066CC;}
	.st10{fill:#0083A5;}
</style>
<g id="Layer_1" class="st0">
	<polyline class="st1" points="0,0 65,0 65,65 0,65 0,0 	"/>
	<polygon class="st2" points="65,65 65,0 32.6,32.5 	"/>
	<g class="st3">
		<rect x="44.3" y="35.1" class="st4" width="10.6" height="1.4"/>
		<rect x="44.3" y="31.2" class="st4" width="10.6" height="1.4"/>
		<rect x="44.3" y="27.3" class="st4" width="10.6" height="1.4"/>
		<path class="st4" d="M35.7,49.5L35.2,48l-3.9,3.6l5.3,1l-0.5-1.7c5.4-1.6,10.5-5.6,13.4-10.5l-1.7,0C45,44.7,40.5,48.1,35.7,49.5z
			"/>
		<path class="st4" d="M13.3,37l1.6,0l-2.4-4.8L10.1,37l1.7,0c1.9,6.9,7.4,12.4,14.3,14.1v-1.5C20,47.9,15.1,43.1,13.3,37z"/>
		<path class="st4" d="M25.5,14.3l0,1.7l4.8-2.4l-4.8-2.4l0,1.6c-7,2-12.5,7.9-13.9,15.1H13C14.4,21.5,19.2,16.3,25.5,14.3z"/>
		<path class="st4" d="M47.2,23.1h1.6c-2.7-5.5-7.9-9.5-13.9-10.7v1.5C40.1,15,44.6,18.4,47.2,23.1z"/>
		<path class="st4" d="M30.9,34.7l-2.2-2.5h-4.2v7.9h12.9v-7.9h-4.2L30.9,34.7z M35.9,33.6v5.1H25.8v-5.1H28l2.8,3.2l2.9-3.2H35.9z"
			/>
		<path class="st4" d="M26,27.3c0,2.7,2.2,4.8,4.8,4.8s4.8-2.2,4.8-4.8s-2.2-4.8-4.8-4.8S26,24.7,26,27.3z M30.9,23.9
			c1.9,0,3.4,1.5,3.4,3.4s-1.5,3.4-3.4,3.4s-3.4-1.5-3.4-3.4S29,23.9,30.9,23.9z"/>
	</g>
</g>
<g id="Layer_1_copy" class="st0">
	<polyline class="st7" points="0,0 65,0 65,65 0,65 0,0 	"/>
	<polygon class="st2" points="0,64.9 65,64.9 32.5,32.5 	"/>
	<g class="st3">
		<rect x="45.3" y="34.1" class="st4" width="10.6" height="1.4"/>
		<rect x="45.3" y="30.2" class="st4" width="10.6" height="1.4"/>
		<rect x="45.3" y="26.3" class="st4" width="10.6" height="1.4"/>
		<path class="st4" d="M36.7,48.5L36.2,47l-3.9,3.6l5.3,1l-0.5-1.7c5.4-1.6,10.5-5.6,13.4-10.5l-1.7,0C46,43.7,41.5,47.1,36.7,48.5z
			"/>
		<path class="st4" d="M14.3,36l1.6,0l-2.4-4.8L11.1,36l1.7,0c1.9,6.9,7.4,12.4,14.3,14.1v-1.5C21,46.9,16.1,42.1,14.3,36z"/>
		<path class="st4" d="M26.5,13.3l0,1.7l4.8-2.4l-4.8-2.4l0,1.6c-7,2-12.5,7.9-13.9,15.1H14C15.4,20.5,20.2,15.3,26.5,13.3z"/>
		<path class="st4" d="M48.2,22.1h1.6c-2.7-5.5-7.9-9.5-13.9-10.7v1.5C41.1,14,45.6,17.4,48.2,22.1z"/>
		<path class="st4" d="M31.9,33.7l-2.2-2.5h-4.2v7.9h12.9v-7.9h-4.2L31.9,33.7z M36.9,32.6v5.1H26.8v-5.1H29l2.8,3.2l2.9-3.2H36.9z"
			/>
		<path class="st4" d="M27,26.3c0,2.7,2.2,4.8,4.8,4.8s4.8-2.2,4.8-4.8s-2.2-4.8-4.8-4.8S27,23.7,27,26.3z M31.9,22.9
			c1.9,0,3.4,1.5,3.4,3.4s-1.5,3.4-3.4,3.4s-3.4-1.5-3.4-3.4S30,22.9,31.9,22.9z"/>
	</g>
</g>
<g id="Layer_1_copy_2" class="st0">
	<polyline class="st8" points="0,0.1 65,0.1 65,65.1 0,65.1 0,0.1 	"/>
	<polygon class="st2" points="0,0 0,65 32.4,32.5 	"/>
	<g class="st3">
		<rect x="45.3" y="34.1" class="st4" width="10.6" height="1.4"/>
		<rect x="45.3" y="30.2" class="st4" width="10.6" height="1.4"/>
		<rect x="45.3" y="26.3" class="st4" width="10.6" height="1.4"/>
		<path class="st4" d="M36.7,48.5L36.2,47l-3.9,3.6l5.3,1l-0.5-1.7c5.4-1.6,10.5-5.6,13.4-10.5l-1.7,0C46,43.7,41.5,47.1,36.7,48.5z
			"/>
		<path class="st4" d="M14.3,36l1.6,0l-2.4-4.8L11.1,36l1.7,0c1.9,6.9,7.4,12.4,14.3,14.1v-1.5C21,46.9,16.1,42.1,14.3,36z"/>
		<path class="st4" d="M26.5,13.3l0,1.7l4.8-2.4l-4.8-2.4l0,1.6c-7,2-12.5,7.9-13.9,15.1H14C15.4,20.5,20.2,15.3,26.5,13.3z"/>
		<path class="st4" d="M48.2,22.1h1.6c-2.7-5.5-7.9-9.5-13.9-10.7v1.5C41.1,14,45.6,17.4,48.2,22.1z"/>
		<path class="st4" d="M31.9,33.7l-2.2-2.5h-4.2v7.9h12.9v-7.9h-4.2L31.9,33.7z M36.9,32.6v5.1H26.8v-5.1H29l2.8,3.2l2.9-3.2H36.9z"
			/>
		<path class="st4" d="M27,26.3c0,2.7,2.2,4.8,4.8,4.8s4.8-2.2,4.8-4.8s-2.2-4.8-4.8-4.8S27,23.7,27,26.3z M31.9,22.9
			c1.9,0,3.4,1.5,3.4,3.4s-1.5,3.4-3.4,3.4s-3.4-1.5-3.4-3.4S30,22.9,31.9,22.9z"/>
	</g>
</g>
<g id="Layer_1_copy_3">
	<polyline class="st10" points="0,0.1 65,0.1 65,65.1 0,65.1 0,0.1 	"/>
	<polygon class="st6" points="65,0 0,0 32.5,32.4 	"/>
	<g>
		<rect x="45.3" y="34.1" class="st4" width="10.6" height="1.4"/>
		<rect x="45.3" y="30.2" class="st4" width="10.6" height="1.4"/>
		<rect x="45.3" y="26.3" class="st4" width="10.6" height="1.4"/>
		<path class="st4" d="M36.7,48.5L36.2,47l-3.9,3.6l5.3,1l-0.5-1.7c5.4-1.6,10.5-5.6,13.4-10.5l-1.7,0C46,43.7,41.5,47.1,36.7,48.5z
			"/>
		<path class="st4" d="M14.3,36l1.6,0l-2.4-4.8L11.1,36l1.7,0c1.9,6.9,7.4,12.4,14.3,14.1v-1.5C21,46.9,16.1,42.1,14.3,36z"/>
		<path class="st4" d="M26.5,13.3l0,1.7l4.8-2.4l-4.8-2.4l0,1.6c-7,2-12.5,7.9-13.9,15.1H14C15.4,20.5,20.2,15.3,26.5,13.3z"/>
		<path class="st4" d="M48.2,22.1h1.6c-2.7-5.5-7.9-9.5-13.9-10.7v1.5C41.1,14,45.6,17.4,48.2,22.1z"/>
		<path class="st4" d="M31.9,33.7l-2.2-2.5h-4.2v7.9h12.9v-7.9h-4.2L31.9,33.7z M36.9,32.6v5.1H26.8v-5.1H29l2.8,3.2l2.9-3.2H36.9z"
			/>
		<path class="st4" d="M27,26.3c0,2.7,2.2,4.8,4.8,4.8s4.8-2.2,4.8-4.8s-2.2-4.8-4.8-4.8S27,23.7,27,26.3z M31.9,22.9
			c1.9,0,3.4,1.5,3.4,3.4s-1.5,3.4-3.4,3.4s-3.4-1.5-3.4-3.4S30,22.9,31.9,22.9z"/>
	</g>
</g>
</svg>
