<?xml version="1.0" encoding="utf-8"?>
<!-- Generator: Adobe Illustrator 23.0.0, SVG Export Plug-In . SVG Version: 6.00 Build 0)  -->
<svg version="1.1" id="logos" xmlns="http://www.w3.org/2000/svg" xmlns:xlink="http://www.w3.org/1999/xlink" x="0px" y="0px"
	 width="392.4px" height="72px" viewBox="0 0 392.4 72" style="enable-background:new 0 0 392.4 72;" xml:space="preserve">
<style type="text/css">
	.st0{fill:#32A2D7;}
	.st1{opacity:0.2;fill:#FFFFFF;enable-background:new    ;}
	.st2{fill:#FFFFFF;}
	.st3{enable-background:new    ;}
	.st4{fill:#B8C2CD;}
</style>
<rect class="st0" width="72" height="72"/>
<g>
	<polygon class="st1" points="72,0 0,0 36,36 	"/>
	<g>
		<polygon class="st2" points="35,23.1 36.9,23.1 36.9,18 42,18 42,16.1 36.9,16.1 36.9,10.9 35,10.9 35,16.1 29.8,16.1 29.8,18 
			35,18 		"/>
		<path class="st2" d="M52,38.3h7.6V32H12.2v6.3h7l14.3,8.2l-16.8,9.4c-0.5-0.4-1.2-0.7-1.9-0.7c-1.7,0-3.1,1.4-3.1,3.1
			s1.4,3.1,3.1,3.1s3.1-1.4,3.1-3.1c0-0.3-0.1-0.6-0.1-0.8l17.7-9.9l17,9.7c-0.1,0.3-0.2,0.7-0.2,1c0,1.7,1.4,3.1,3.1,3.1
			s3.1-1.4,3.1-3.1s-1.4-3.1-3.1-3.1c-0.7,0-1.3,0.2-1.8,0.5l-16.2-9.3L52,38.3z M14.1,33.8h43.6v2.6H14.1V33.8z M23.1,38.3h25.1
			l-12.6,7.1L23.1,38.3z"/>
	</g>
</g>
<g id="XMLID_16_">
	<g class="st3">
		<path class="st4" d="M93.4,25.6h2.7v17.9h9.2v2.6H93.4V25.6z"/>
		<path class="st4" d="M106.8,35.9c0-6.1,4.3-10.8,10.4-10.8s10.4,4.7,10.4,10.8c0,6.1-4.3,10.8-10.4,10.8S106.8,42,106.8,35.9z
			 M124.8,35.9c0-4.5-3-8.2-7.5-8.2s-7.5,3.7-7.5,8.2s3,8.2,7.5,8.2S124.8,40.4,124.8,35.9z"/>
		<path class="st4" d="M148.6,34.7v10.1c-1.9,1.2-5.1,1.9-7.6,1.9c-6.8,0-10.7-5-10.7-10.8c0-6.1,4.3-10.8,10.4-10.8
			c3.7,0,5.9,1,7.5,2.7l-1.9,2.1c-1.6-1.6-3.5-2.2-5.5-2.2c-4.6,0-7.5,3.7-7.5,8.2c0,4.6,3.4,8.2,7.8,8.2c1.9,0,3.7-0.4,4.9-1.1
			v-5.7h-4.4v-2.6H148.6z"/>
		<path class="st4" d="M153.5,25.6h2.7v20.5h-2.7V25.6z"/>
		<path class="st4" d="M161.4,25.6h6.9c3.5,0,6.1,1.7,6.1,5.1c0,2.3-1.4,3.8-3.4,4.5v0.1c2.4,0.2,4.3,2.3,4.3,5.1
			c0,3.7-3.1,5.7-7,5.7h-6.9V25.6z M164.1,34.2h3.7c2.1,0,3.7-0.8,3.7-3.1c0-1.6-1-3-3.2-3h-4.3V34.2z M164.1,43.7h4
			c1.6,0,4.3-0.6,4.3-3.5c0-2.4-1.7-3.7-4.3-3.7h-4V43.7z"/>
		<path class="st4" d="M179.2,25.6h12.9v2.6h-10.2v6.1h9.5V37h-9.5v6.6h10.7v2.6h-13.4V25.6z"/>
		<path class="st4" d="M210.4,30.1c-1.1-1.5-3-2.3-4.8-2.3c-4.5,0-7.5,3.7-7.5,8.4c0,4.3,2.8,8,7.5,8c2.3,0,4-1,5.2-2.8l2.3,1.8
			c-0.6,0.8-3,3.6-7.6,3.6c-6.4,0-10.3-5.5-10.3-10.6c0-6.4,4.3-11,10.4-11c2.6,0,5.4,1,7,3.2L210.4,30.1z"/>
	</g>
	<g class="st3">
		<path class="st2" d="M221.7,25.6h5.4l5.3,14.4l5.4-14.4h5.4v20.5h-3.4V29.1h-0.1l-6.1,17.1h-2.5l-6.1-17.1h-0.1v17.1h-3.4V25.6z"
			/>
		<path class="st2" d="M247.8,25.6H261v3.3h-9.7v5h9.2v3.3h-9.2v5.6h10.2v3.3h-13.8V25.6z"/>
		<path class="st2" d="M265.1,25.6h7.9c5.3,0,10.2,3.3,10.2,10.3c0,7-5.8,10.3-10.6,10.3h-7.5V25.6z M271.3,42.9c4.5,0,8.1-2,8.1-7
			s-3.2-7-7.5-7h-3.2v13.9H271.3z"/>
		<path class="st2" d="M292.2,40.5h-7v-3h7V40.5z"/>
		<path class="st2" d="M311.4,38.6c0,5-3.5,8.1-8,8.1c-4.6,0-8-3.1-8-8.1v-13h3.6v12.9c0,2,1.1,4.7,4.5,4.7c3.4,0,4.5-2.7,4.5-4.7
			V25.6h3.6V38.6z"/>
		<path class="st2" d="M315.8,25.6h6.9c3.8,0,7.5,1.3,7.5,5.9c0,3-1.7,5.1-4.6,5.6l5.3,9.1h-4.3l-4.6-8.7h-2.6v8.7h-3.6V25.6z
			 M322.1,34.3c2,0,4.3-0.2,4.3-2.8c0-2.4-2.2-2.7-4-2.7h-3.1v5.6H322.1z"/>
		<path class="st2" d="M351.3,44.7c-2.4,1.3-5.2,2-8.3,2c-6.2,0-10.6-4.3-10.6-10.7c0-6.6,4.4-10.9,10.6-10.9c3.1,0,5.8,0.7,7.9,2.6
			l-2.6,2.7c-1.3-1.3-3.2-2-5.2-2c-4.1,0-6.9,3.2-6.9,7.3c0,4.4,2.7,7.6,6.9,7.6c1.8,0,3.4-0.3,4.7-1.1v-4.8h-4.1v-3.3h7.7V44.7z"/>
		<path class="st2" d="M355.6,25.6h13.2v3.3h-9.7v5h9.2v3.3h-9.2v5.6h10.2v3.3h-13.8V25.6z"/>
	</g>
</g>
</svg>
