<?xml version="1.0" encoding="UTF-8"?>
<svg width="28px" height="36px" viewBox="0 0 28 36" version="1.1" xmlns="http://www.w3.org/2000/svg" xmlns:xlink="http://www.w3.org/1999/xlink">
    <!-- Generator: Sketch 48.1 (47250) - http://www.bohemiancoding.com/sketch -->
    <title>lock_outline_24px</title>
    <desc>Created with Sketch.</desc>
    <defs></defs>
    <g id="Page-1" stroke="none" stroke-width="1" fill="none" fill-rule="evenodd">
        <g id="lock_outline_24px" transform="translate(1.000000, 1.000000)">
            <path d="M7.9625,8.0952381 C7.9625,5.32666667 10.22125,3.07619048 13,3.07619048 C15.77875,3.07619048 18.0375,5.32666667 18.0375,8.0952381 L18.0375,11.3333333 L7.9625,11.3333333 L7.9625,8.0952381 Z" id="Path" fill="#FFFFFF"></path>
            <polygon id="Path" fill="#FFFFFF" points="22.75 30.7619048 3.25 30.7619048 3.25 14.5714286 22.75 14.5714286"></polygon>
            <path d="M13,25.9047619 C14.7875,25.9047619 16.25,24.447619 16.25,22.6666667 C16.25,20.8857143 14.7875,19.4285714 13,19.4285714 C11.2125,19.4285714 9.75,20.8857143 9.75,22.6666667 C9.75,24.447619 11.2125,25.9047619 13,25.9047619 Z M22.75,11.3333333 L21.125,11.3333333 L21.125,8.0952381 C21.125,3.62666667 17.485,0 13,0 C8.515,0 4.875,3.62666667 4.875,8.0952381 L4.875,11.3333333 L3.25,11.3333333 C1.4625,11.3333333 0,12.7904762 0,14.5714286 L0,30.7619048 C0,32.5428571 1.4625,34 3.25,34 L22.75,34 C24.5375,34 26,32.5428571 26,30.7619048 L26,14.5714286 C26,12.7904762 24.5375,11.3333333 22.75,11.3333333 Z M7.9625,8.0952381 C7.9625,5.32666667 10.22125,3.07619048 13,3.07619048 C15.77875,3.07619048 18.0375,5.32666667 18.0375,8.0952381 L18.0375,11.3333333 L7.9625,11.3333333 L7.9625,8.0952381 Z M22.75,30.7619048 L3.25,30.7619048 L3.25,14.5714286 L22.75,14.5714286 L22.75,30.7619048 Z" id="Shape" stroke="#00778B" stroke-width="0.74556213" fill="#CCF3FB" fill-rule="nonzero"></path>
        </g>
    </g>
</svg>