<?xml version="1.0" encoding="UTF-8"?>
<svg width="18px" height="18px" viewBox="0 0 18 18" version="1.1" xmlns="http://www.w3.org/2000/svg" xmlns:xlink="http://www.w3.org/1999/xlink">
    <!-- Generator: Sketch 46.2 (44496) - http://www.bohemiancoding.com/sketch -->
    <title>Shape</title>
    <desc>Created with Sketch.</desc>
    <defs></defs>
    <g id="Page-1" stroke="none" stroke-width="1" fill="none" fill-rule="evenodd">
        <g id="Preferences_2" transform="translate(-32.000000, -84.000000)" fill-rule="nonzero" fill="#00778B">
            <g id="Group-2" transform="translate(-1.000000, 56.000000)">
                <path d="M42,28 C37.032,28 33,32.032 33,37 C33,41.968 37.032,46 42,46 C46.968,46 51,41.968 51,37 C51,32.032 46.968,28 42,28 Z M43.269,42.481 L43.269,44.2 L40.866,44.2 L40.866,42.463 C39.327,42.139 38.022,41.149 37.923,39.403 L39.687,39.403 C39.777,40.348 40.425,41.086 42.072,41.086 C43.836,41.086 44.232,40.204 44.232,39.655 C44.232,38.908 43.836,38.206 41.829,37.729 C39.597,37.189 38.067,36.271 38.067,34.426 C38.067,32.878 39.318,31.87 40.866,31.537 L40.866,29.8 L43.269,29.8 L43.269,31.555 C44.943,31.96 45.78,33.229 45.834,34.606 L44.07,34.606 C44.025,33.607 43.494,32.923 42.072,32.923 C40.722,32.923 39.912,33.535 39.912,34.399 C39.912,35.155 40.497,35.65 42.315,36.118 C44.133,36.586 46.077,37.369 46.077,39.637 C46.068,41.284 44.835,42.184 43.269,42.481 Z" id="Shape"></path>
            </g>
        </g>
    </g>
</svg>