<?xml version="1.0" encoding="UTF-8"?>
<svg width="19px" height="19px" viewBox="0 0 19 19" version="1.1" xmlns="http://www.w3.org/2000/svg" xmlns:xlink="http://www.w3.org/1999/xlink">
    <!-- Generator: Sketch 48.2 (47327) - http://www.bohemiancoding.com/sketch -->
    <title>Group 7</title>
    <desc>Created with Sketch.</desc>
    <defs></defs>
    <g id="06" stroke="none" stroke-width="1" fill="none" fill-rule="evenodd" transform="translate(-198.000000, -1192.000000)">
        <g id="Group-12-Copy-5" transform="translate(170.000000, 1090.000000)">
            <g id="Group-15" transform="translate(0.000000, 34.000000)">
                <g id="Group-28-Copy-2" transform="translate(30.000000, 70.000000)">
                    <g id="Group-7">
                        <g id="checkbox-checked_edit" transform="translate(1.000000, 1.000000)">
                            <rect id="Rectangle-10-Copy" stroke="#CDD8DD" stroke-width="2" x="0" y="0" width="13" height="13" rx="2"></rect>
                            <g id="checkbox-checked">
                                <rect id="Rectangle-10" stroke="#CDD8DD" stroke-width="2" fill="#FFFFFF" x="0" y="0" width="13" height="13" rx="2"></rect>
                                <polygon id="Path" stroke="#00778B" fill="#00778B" points="5.39923225 9 3 6.60076775 3.67658349 5.92418426 5.39923225 7.64203455 9.04126679 4 9.71785029 4.68138196"></polygon>
                            </g>
                        </g>
                        <path d="M3,-1 L12,-1 C14.209139,-1 16,0.790861001 16,3 L16,12 C16,14.209139 14.209139,16 12,16 L3,16 C0.790861001,16 -1,14.209139 -1,12 L-1,3 C-1,0.790861001 0.790861001,-1 3,-1 Z" id="Path" stroke="#41C2D7" stroke-width="2"></path>
                    </g>
                </g>
            </g>
        </g>
    </g>
</svg>