<?xml version="1.0" encoding="UTF-8"?>
<svg width="19px" height="19px" viewBox="0 0 19 19" version="1.1" xmlns="http://www.w3.org/2000/svg" xmlns:xlink="http://www.w3.org/1999/xlink">
    <!-- Generator: Sketch 48.2 (47327) - http://www.bohemiancoding.com/sketch -->
    <title>Group 5</title>
    <desc>Created with Sketch.</desc>
    <defs></defs>
    <g id="06" stroke="none" stroke-width="1" fill="none" fill-rule="evenodd" transform="translate(-198.000000, -1282.000000)">
        <g id="Group-12-Copy-5" transform="translate(200.000000, 1090.000000)">
            <g id="Group-15-Copy" transform="translate(0.000000, 159.000000)">
                <g id="Group-28-Copy" transform="translate(0.000000, 35.000000)">
                    <g id="Group-5">
                        <g id="checkbox-unchecked_edit" fill="#CDD8DD" fill-rule="nonzero">
                            <path d="M3,2 C2.44771525,2 2,2.44771525 2,3 L2,12 C2,12.5522847 2.44771525,13 3,13 L12,13 C12.5522847,13 13,12.5522847 13,12 L13,3 C13,2.44771525 12.5522847,2 12,2 L3,2 Z M3,0 L12,0 C13.6568542,-2.22044605e-16 15,1.34314575 15,3 L15,12 C15,13.6568542 13.6568542,15 12,15 L3,15 C1.34314575,15 2.22044605e-16,13.6568542 0,12 L0,3 C-2.22044605e-16,1.34314575 1.34314575,3.33066907e-16 3,0 Z" id="Rectangle-10-Copy"></path>
                        </g>
                        <path d="M3,-1 L12,-1 C14.209139,-1 16,0.790861001 16,3 L16,12 C16,14.209139 14.209139,16 12,16 L3,16 C0.790861001,16 -1,14.209139 -1,12 L-1,3 C-1,0.790861001 0.790861001,-1 3,-1 Z" id="Path" stroke="#41C2D7" stroke-width="2"></path>
                    </g>
                </g>
            </g>
        </g>
    </g>
</svg>