<?xml version="1.0" encoding="UTF-8"?>
<svg width="13px" height="15px" viewBox="0 0 13 15" version="1.1" xmlns="http://www.w3.org/2000/svg" xmlns:xlink="http://www.w3.org/1999/xlink">
    <!-- Generator: Sketch 49.2 (51160) - http://www.bohemiancoding.com/sketch -->
    <title>account_box_18px</title>
    <desc>Created with Sketch.</desc>
    <defs></defs>
    <g id="Page-1" stroke="none" stroke-width="1" fill="none" fill-rule="evenodd">
        <g id="01_Copy_1" transform="translate(-1294.000000, -134.000000)" fill="#00778B" fill-rule="nonzero">
            <g id="Group-12-Copy" transform="translate(1236.000000, 126.000000)">
                <g id="Group-4">
                    <g id="account_box_18px" transform="translate(58.000000, 8.000000)">
                        <g id="content_copy_24px">
                            <path d="M9.57894737,0 L1.36842105,0 C0.615789474,0 0,0.613636364 0,1.36363636 L0,10.9090909 L1.36842105,10.9090909 L1.36842105,1.36363636 L9.57894737,1.36363636 L9.57894737,0 Z M11.6315789,2.72727273 L4.10526316,2.72727273 C3.35263158,2.72727273 2.73684211,3.34090909 2.73684211,4.09090909 L2.73684211,13.6363636 C2.73684211,14.3863636 3.35263158,15 4.10526316,15 L11.6315789,15 C12.3842105,15 13,14.3863636 13,13.6363636 L13,4.09090909 C13,3.34090909 12.3842105,2.72727273 11.6315789,2.72727273 Z M11.6315789,13.6363636 L4.10526316,13.6363636 L4.10526316,4.09090909 L11.6315789,4.09090909 L11.6315789,13.6363636 Z" id="Shape"></path>
                        </g>
                    </g>
                </g>
            </g>
        </g>
    </g>
</svg>