<?xml version="1.0" encoding="UTF-8"?>
<svg width="16px" height="12px" viewBox="0 0 16 12" version="1.1" xmlns="http://www.w3.org/2000/svg" xmlns:xlink="http://www.w3.org/1999/xlink">
    <!-- Generator: Sketch 46.1 (44463) - http://www.bohemiancoding.com/sketch -->
    <title>sort columns</title>
    <desc>Created with Sketch.</desc>
    <defs></defs>
    <g id="Page-1" stroke="none" stroke-width="1" fill="none" fill-rule="evenodd">
        <g id="Icons" transform="translate(-193.000000, -454.000000)" fill-rule="nonzero" fill="#00778B">
            <g id="sort-columns" transform="translate(193.000000, 454.000000)">
                <path d="M3.36842105,0 L0.842105263,0 C0.378947368,0 0,0.385714286 0,0.857142857 L0,11.1428571 C0,11.6142857 0.378947368,12 0.842105263,12 L3.36842105,12 C3.83157895,12 4.21052632,11.6142857 4.21052632,11.1428571 L4.21052632,0.857142857 C4.21052632,0.385714286 3.83157895,0 3.36842105,0 Z M15.1578947,0 L12.6315789,0 C12.1684211,0 11.7894737,0.385714286 11.7894737,0.857142857 L11.7894737,11.1428571 C11.7894737,11.6142857 12.1684211,12 12.6315789,12 L15.1578947,12 C15.6210526,12 16,11.6142857 16,11.1428571 L16,0.857142857 C16,0.385714286 15.6210526,0 15.1578947,0 Z M9.26315789,0 L6.73684211,0 C6.27368421,0 5.89473684,0.385714286 5.89473684,0.857142857 L5.89473684,11.1428571 C5.89473684,11.6142857 6.27368421,12 6.73684211,12 L9.26315789,12 C9.72631579,12 10.1052632,11.6142857 10.1052632,11.1428571 L10.1052632,0.857142857 C10.1052632,0.385714286 9.72631579,0 9.26315789,0 Z" id="Shape"></path>
            </g>
        </g>
    </g>
</svg>