<?xml version="1.0" encoding="UTF-8"?>
<svg width="14px" height="16px" viewBox="0 0 14 16" version="1.1" xmlns="http://www.w3.org/2000/svg" xmlns:xlink="http://www.w3.org/1999/xlink">
    <!-- Generator: Sketch 48.2 (47327) - http://www.bohemiancoding.com/sketch -->
    <title>date_range_24px</title>
    <desc>Created with Sketch.</desc>
    <defs></defs>
    <g id="09" stroke="none" stroke-width="1" fill="none" fill-rule="evenodd" transform="translate(-405.000000, -429.000000)">
        <g id="Group-72-Copy-2" transform="translate(200.000000, 397.000000)" fill="#00778B" fill-rule="nonzero">
            <g id="Group-67">
                <g id="Group-38-Copy-3" transform="translate(1.000000, 0.000000)">
                    <g id="search" transform="translate(0.000000, 24.000000)">
                        <g id="button">
                            <g id="Group-34">
                                <g id="Group-36">
                                    <g id="date_range_24px" transform="translate(204.000000, 8.000000)">
                                        <path d="M4.66666667,7.2 L3.11111111,7.2 L3.11111111,8.8 L4.66666667,8.8 L4.66666667,7.2 Z M7.77777778,7.2 L6.22222222,7.2 L6.22222222,8.8 L7.77777778,8.8 L7.77777778,7.2 Z M10.8888889,7.2 L9.33333333,7.2 L9.33333333,8.8 L10.8888889,8.8 L10.8888889,7.2 Z M12.4444444,1.6 L11.6666667,1.6 L11.6666667,0 L10.1111111,0 L10.1111111,1.6 L3.88888889,1.6 L3.88888889,0 L2.33333333,0 L2.33333333,1.6 L1.55555556,1.6 C0.692222222,1.6 0.00777777778,2.32 0.00777777778,3.2 L0,14.4 C0,15.28 0.692222222,16 1.55555556,16 L12.4444444,16 C13.3,16 14,15.28 14,14.4 L14,3.2 C14,2.32 13.3,1.6 12.4444444,1.6 Z M12.4444444,14.4 L1.55555556,14.4 L1.55555556,5.6 L12.4444444,5.6 L12.4444444,14.4 Z" id="Shape"></path>
                                    </g>
                                </g>
                            </g>
                        </g>
                    </g>
                </g>
            </g>
        </g>
    </g>
</svg>