<?xml version="1.0" encoding="utf-8"?>
<!-- Generator: Adobe Illustrator 22.0.1, SVG Export Plug-In . SVG Version: 6.00 Build 0)  -->
<svg version="1.1" id="Layer_1" xmlns="http://www.w3.org/2000/svg" xmlns:xlink="http://www.w3.org/1999/xlink" x="0px" y="0px"
	 viewBox="0 0 15 15" style="enable-background:new 0 0 15 15;" xml:space="preserve">
<style type="text/css">
	.st0{fill:#F5A623;}
</style>
<title>Rectangle 4 Copy 4</title>
<desc>Created with Sketch.</desc>
<g id="_x30_9" transform="translate(-166.000000, -764.000000)">
	<path id="Rectangle-4-Copy-4" class="st0" d="M168.1,765c-0.6,0-1.1,0.5-1.1,1.1v10.9c0,0.6,0.5,1.1,1.1,1.1h10.9
		c0.6,0,1.1-0.5,1.1-1.1v-10.9c0-0.6-0.5-1.1-1.1-1.1H168.1z M168.1,764h10.9c1.1,0,2.1,0.9,2.1,2.1v10.9c0,1.1-0.9,2.1-2.1,2.1
		h-10.9c-1.1,0-2.1-0.9-2.1-2.1v-10.9C166,764.9,166.9,764,168.1,764z"/>
</g>
</svg>
