<?xml version="1.0" encoding="UTF-8"?>
<svg width="16px" height="18px" viewBox="0 0 16 18" version="1.1" xmlns="http://www.w3.org/2000/svg" xmlns:xlink="http://www.w3.org/1999/xlink">
    <!-- Generator: Sketch 46.2 (44496) - http://www.bohemiancoding.com/sketch -->
    <title>Section name</title>
    <desc>Created with Sketch.</desc>
    <defs></defs>
    <g id="Page-1" stroke="none" stroke-width="1" fill="none" fill-rule="evenodd">
        <g id="Position_Work-schedule" transform="translate(-33.000000, -388.000000)" fill-rule="nonzero" fill="#00778b">
            <g id="Group-2" transform="translate(-1.000000, 56.000000)">
                <path d="M48.2222222,333.8 L44.5066667,333.8 C44.1333333,332.756 43.1555556,332 42,332 C40.8444444,332 39.8666667,332.756 39.4933333,333.8 L35.7777778,333.8 C34.8,333.8 34,334.61 34,335.6 L34,348.2 C34,349.19 34.8,350 35.7777778,350 L48.2222222,350 C49.2,350 50,349.19 50,348.2 L50,335.6 C50,334.61 49.2,333.8 48.2222222,333.8 Z M42,333.8 C42.4888889,333.8 42.8888889,334.205 42.8888889,334.7 C42.8888889,335.195 42.4888889,335.6 42,335.6 C41.5111111,335.6 41.1111111,335.195 41.1111111,334.7 C41.1111111,334.205 41.5111111,333.8 42,333.8 Z M42,337.4 C43.4755556,337.4 44.6666667,338.606 44.6666667,340.1 C44.6666667,341.594 43.4755556,342.8 42,342.8 C40.5244444,342.8 39.3333333,341.594 39.3333333,340.1 C39.3333333,338.606 40.5244444,337.4 42,337.4 Z M47.3333333,348.2 L36.6666667,348.2 L36.6666667,346.94 C36.6666667,345.14 40.2222222,344.15 42,344.15 C43.7777778,344.15 47.3333333,345.14 47.3333333,346.94 L47.3333333,348.2 Z" id="Section-name"></path>
            </g>
        </g>
    </g>
</svg>