<?xml version="1.0" encoding="UTF-8"?>
<svg width="14px" height="16px" viewBox="0 0 14 16" version="1.1" xmlns="http://www.w3.org/2000/svg" xmlns:xlink="http://www.w3.org/1999/xlink">
    <!-- Generator: Sketch 46.1 (44463) - http://www.bohemiancoding.com/sketch -->
    <title>excel-file copy</title>
    <desc>Created with Sketch.</desc>
    <defs></defs>
    <g id="Page-1" stroke="none" stroke-width="1" fill="none" fill-rule="evenodd">
        <g id="Icons" transform="translate(-375.000000, -445.000000)" fill-rule="nonzero" fill="#00778B">
            <g id="excel-file-copy" transform="translate(375.000000, 445.000000)">
                <path d="M10.6098125,6 L8.495875,6 L7.00009375,8.203625 L5.50409375,6 L3.39021875,6 L5.924,9.7885 L3.06503125,14 L7.16253125,14 L7.16253125,12.569125 L6.21634375,12.569125 L7.00003125,11.3973437 L8.74059375,14 L10.935,14 L8.076,9.7885 L10.6098125,6 Z M13.1161562,3.11609375 L10.8838438,0.883875 C10.3977812,0.39775 9.4375,0 8.75,0 L1.25,0 C0.5625,0 0,0.5625 0,1.25 L0,14.75 C0,15.4375 0.5625,16 1.25,16 L12.75,16 C13.4375,16 14,15.4375 14,14.75 L14,5.25 C14,4.5625 13.6022188,3.60221875 13.1161562,3.11609375 Z M12.4090625,3.82321875 C12.4579375,3.872125 12.5067188,3.9321875 12.5540313,4 L10,4 L10,1.446 C10.0678125,1.49334375 10.127875,1.54209375 10.17675,1.591 L12.4090625,3.82321875 Z M13,14.75 C13,14.8855 12.8855,15 12.75,15 L1.25,15 C1.1145,15 1,14.8855 1,14.75 L1,1.25 C1,1.1145 1.1145,1 1.25,1 L8.75,1 C8.8255,1 8.91021875,1.00953125 9,1.026625 L9,5 L12.973375,5 C12.9904688,5.08978125 13,5.17446875 13,5.25 L13,14.75 Z" id="Shape"></path>
            </g>
        </g>
    </g>
</svg>