<?xml version="1.0" encoding="UTF-8"?>
<svg width="15px" height="15px" viewBox="0 0 15 15" version="1.1" xmlns="http://www.w3.org/2000/svg" xmlns:xlink="http://www.w3.org/1999/xlink">
    <!-- Generator: Sketch 45.2 (43514) - http://www.bohemiancoding.com/sketch -->
    <title>find_replace_24px</title>
    <desc>Created with Sketch.</desc>
    <defs></defs>
    <g id="Page-1" stroke="none" stroke-width="1" fill="none" fill-rule="evenodd">
        <g id="Dashboard_New" transform="translate(-393.000000, -85.000000)" fill-rule="nonzero" fill="#00778B">
            <g id="Group-49" transform="translate(32.000000, 66.000000)">
                <g id="Group-2">
                    <g id="Group-3" transform="translate(250.000000, 10.000000)">
                        <g id="Group-4">
                            <g id="Group-2">
                                <g id="Group-5">
                                    <g id="find_replace_24px" transform="translate(111.000000, 9.000000)">
                                        <path d="M5.83333333,1.66666667 C6.98333333,1.66666667 8.025,2.13333333 8.78333333,2.88333333 L6.66666667,5 L11.6666667,5 L11.6666667,0 L9.95833333,1.70833333 C8.9,0.65 7.44166667,0 5.83333333,0 C2.89166667,0 0.475,2.175 0.0666666667,5 L1.75,5 C2.13333333,3.1 3.81666667,1.66666667 5.83333333,1.66666667 Z M10.5333333,9.28333333 C11.0833333,8.53333333 11.4666667,7.64166667 11.6,6.66666667 L9.91666667,6.66666667 C9.53333333,8.56666667 7.85,10 5.83333333,10 C4.68333333,10 3.64166667,9.53333333 2.88333333,8.78333333 L5,6.66666667 L0,6.66666667 L0,11.6666667 L1.70833333,9.95833333 C2.76666667,11.0166667 4.225,11.6666667 5.83333333,11.6666667 C7.125,11.6666667 8.31666667,11.2416667 9.28333333,10.5333333 L13.3333333,14.575 L14.575,13.3333333 L10.5333333,9.28333333 Z" id="Shape"></path>
                                    </g>
                                </g>
                            </g>
                        </g>
                    </g>
                </g>
            </g>
        </g>
    </g>
</svg>