<?xml version="1.0" encoding="UTF-8"?>
<svg width="13px" height="3px" viewBox="0 0 13 3" version="1.1" xmlns="http://www.w3.org/2000/svg" xmlns:xlink="http://www.w3.org/1999/xlink">
    <!-- Generator: Sketch 46.2 (44496) - http://www.bohemiancoding.com/sketch -->
    <title>More_ horizontal</title>
    <desc>Created with Sketch.</desc>
    <defs></defs>
    <g id="Page-1" stroke="none" stroke-width="1" fill="none" fill-rule="evenodd">
        <path d="M6.5,-2 C7.33,-2 8,-2.67 8,-3.5 C8,-4.33 7.33,-5 6.5,-5 C5.67,-5 5,-4.33 5,-3.5 C5,-2.67 5.67,-2 6.5,-2 Z M6.5,0 C5.67,0 5,0.67 5,1.5 C5,2.33 5.67,3 6.5,3 C7.33,3 8,2.33 8,1.5 C8,0.67 7.33,0 6.5,0 Z M6.5,5 C5.67,5 5,5.67 5,6.5 C5,7.33 5.67,8 6.5,8 C7.33,8 8,7.33 8,6.5 C8,5.67 7.33,5 6.5,5 Z" id="More_-horizontal" fill="#00778B" fill-rule="nonzero" transform="translate(6.500000, 1.500000) rotate(90.000000) translate(-6.500000, -1.500000) "></path>
    </g>
</svg>