<?xml version="1.0" encoding="UTF-8"?>
<svg width="32px" height="32px" viewBox="0 0 32 32" version="1.1" xmlns="http://www.w3.org/2000/svg" xmlns:xlink="http://www.w3.org/1999/xlink">
  <!-- Generator: Sketch 48.2 (47327) - http://www.bohemiancoding.com/sketch -->
  <title>Group 58</title>
  <desc>Created with Sketch.</desc>
  <defs></defs>
  <g id="Salaires_Grouping_2_Hover" stroke="none" stroke-width="1" fill="none" fill-rule="evenodd" transform="translate(-1391.000000, -826.000000)">
    <g id="Group-58" transform="translate(1391.000000, 826.000000)">
      <g id="Group-14">
        <path d="M16,0 L16,0 C24.836556,-1.623249e-15 32,7.163444 32,16 L32,16 C32,24.836556 24.836556,32 16,32 L16,32 C7.163444,32 1.082166e-15,24.836556 0,16 L0,16 C-1.082166e-15,7.163444 7.163444,1.623249e-15 16,0 Z" id="Rectangle-9-Copy-2" fill="#33DCFF" opacity="0.12"></path>
        <g id="vertical_align_top_18px" transform="translate(10.000000, 9.000000)" fill="#00778B" fill-rule="nonzero">
          <path d="M0,0 L0,2 L12,2 L12,0 L0,0 Z M2.5,7 L5,7 L5,14 L7,14 L7,7 L9.5,7 L6,3.5 L2.5,7 Z" id="Shape"></path>
        </g>
      </g>
    </g>
  </g>
</svg>