<?xml version="1.0" encoding="UTF-8"?>
<svg width="16px" height="16px" viewBox="0 0 16 16" version="1.1" xmlns="http://www.w3.org/2000/svg" xmlns:xlink="http://www.w3.org/1999/xlink">
    <!-- Generator: Sketch 46.2 (44496) - http://www.bohemiancoding.com/sketch -->
    <title>info_outline_24px (1)</title>
    <desc>Created with Sketch.</desc>
    <defs></defs>
    <g id="Page-1" stroke="none" stroke-width="1" fill="none" fill-rule="evenodd">
        <g id="Position_Inactive" transform="translate(-635.000000, -414.000000)" fill-rule="nonzero" fill="#979797">
            <g id="Group-8" transform="translate(329.000000, 226.000000)">
                <g id="Group-3" transform="translate(24.000000, 55.000000)">
                    <g id="Group-19" transform="translate(0.000000, 101.000000)">
                        <g id="Group-11-Copy-2" transform="translate(261.000000, 20.000000)">
                            <g id="Group-11-Copy-3">
                                <g id="Group-48">
                                    <g id="info_outline_24px-(1)" transform="translate(21.000000, 12.000000)">
                                        <path d="M7.2,12 L8.8,12 L8.8,7.2 L7.2,7.2 L7.2,12 Z M8,0 C3.584,0 0,3.584 0,8 C0,12.416 3.584,16 8,16 C12.416,16 16,12.416 16,8 C16,3.584 12.416,0 8,0 Z M8,14.4 C4.472,14.4 1.6,11.528 1.6,8 C1.6,4.472 4.472,1.6 8,1.6 C11.528,1.6 14.4,4.472 14.4,8 C14.4,11.528 11.528,14.4 8,14.4 Z M7.2,5.6 L8.8,5.6 L8.8,4 L7.2,4 L7.2,5.6 Z" id="Shape"></path>
                                    </g>
                                </g>
                            </g>
                        </g>
                    </g>
                </g>
            </g>
        </g>
    </g>
</svg>