<?xml version="1.0" encoding="UTF-8"?>
<svg width="133px" height="33px" viewBox="0 0 133 33" version="1.1" xmlns="http://www.w3.org/2000/svg" xmlns:xlink="http://www.w3.org/1999/xlink">
    <!-- Generator: Sketch 45.1 (43504) - http://www.bohemiancoding.com/sketch -->
    <title>logo-no-text</title>
    <desc>Created with Sketch.</desc>
    <defs></defs>
    <g id="Page-1" stroke="none" stroke-width="1" fill="none" fill-rule="evenodd">
        <g id="logo-no-text" fill="#FFFFFF">
            <polygon id="Fill-338" points="54.7442744 20.1224146 50.1576768 20.1224146 50.1576768 15.2070244 54.971128 15.2070244 54.971128 13.268878 50.1576768 13.268878 50.1576768 8.98692683 54.4367439 8.98692683 54.9599451 10.8840244 56.5407317 10.8840244 56.5407317 7.04878049 50.0290732 7.04878049 45.9329268 7.1582439 45.9329268 8.53860976 47.7110122 8.96117073 47.7110122 20.1481707 45.9329268 20.5707317 45.9329268 22.060561 56.7492134 22.060561 56.7492134 18.0136341 55.1620366 18.0136341"></polygon>
            <path d="M65.4283628,15.6403707 C64.9898323,15.3908585 64.5057713,15.1840049 63.9913567,15.0278585 C63.488125,14.8757366 63.0160457,14.7131512 62.5878994,14.5473463 C62.1685396,14.3839561 61.8170762,14.1875659 61.5430945,13.9646146 C61.2850884,13.7553463 61.1596799,13.473639 61.1596799,13.1033951 C61.1596799,12.8595171 61.2068079,12.6534683 61.3002652,12.4908829 C61.3945213,12.325078 61.515936,12.2027366 61.6716982,12.1158098 C61.8338506,12.0248585 62.0207652,11.9572488 62.2300457,11.9186146 C62.760436,11.8180049 63.389875,11.8461756 63.921064,11.9492 C64.1790701,12.0007122 64.3683811,12.0449805 64.4858018,12.0812 L64.8268811,13.7553463 L66.410064,13.7553463 L66.4779604,10.6927854 L65.8652957,10.4947854 C65.3317104,10.3249561 64.7997226,10.206639 64.2837104,10.1430537 C63.7804787,10.0794683 63.273253,10.0408341 62.7700213,10.0247366 C61.588625,10.0537122 60.6268933,10.3579561 59.9119848,10.9278098 C59.1866921,11.5049073 58.8184543,12.3500293 58.8184543,13.440639 C58.8184543,14.1111024 58.9710213,14.6600293 59.2713628,15.0745415 C59.565314,15.4810049 59.9415396,15.8158341 60.3880579,16.0693707 C60.8273872,16.3196878 61.3106494,16.5249317 61.8258628,16.6818829 C62.3290945,16.8340049 62.8027713,16.9893463 63.2325152,17.1438829 C63.6510762,17.2919805 64.0009421,17.4779073 64.2757226,17.6936146 C64.5321311,17.8948341 64.6575396,18.159639 64.6575396,18.5001024 C64.6575396,19.0232732 64.4738201,19.3991512 64.095997,19.651078 C63.7069909,19.9102488 63.0647713,20.0414439 62.1861128,20.0414439 C61.8937591,20.0414439 61.5998079,20.0237366 61.312247,19.9907366 C61.0694177,19.9625659 60.8817043,19.9263463 60.751503,19.8844927 L60.5174604,18.0381024 L58.8176555,18.0381024 L58.8400213,21.3815659 L59.4095518,21.532078 C59.550936,21.5739317 59.7346555,21.6182 59.9551189,21.6608585 C60.173186,21.7035171 60.4088262,21.7413463 60.6628384,21.7783707 C60.9160518,21.8121756 61.1724604,21.8411512 61.4336616,21.8636878 C61.6980579,21.8838098 61.9504726,21.8942732 62.1861128,21.8942732 C62.8363201,21.8942732 63.4561738,21.8194195 64.0281006,21.6697122 C64.6048201,21.5183951 65.118436,21.2849805 65.5537713,20.9759073 C65.991503,20.6660293 66.3453628,20.2724439 66.6057652,19.8064195 C66.8661677,19.3403951 66.9987652,18.7938829 66.9987652,18.1845902 C66.9987652,17.5414927 66.8453994,17.0118829 66.5442591,16.6126634 C66.2495091,16.2214927 65.8748811,15.8947122 65.4283628,15.6403707" id="Fill-339"></path>
            <path d="M74.4291012,19.9365683 C73.4713634,19.9365683 72.774028,19.813422 72.3562659,19.5695439 L72.3562659,13.3478366 C72.6190646,12.8938854 72.9737232,12.5469829 73.4090585,12.3175927 C73.8563756,12.0817634 74.3404366,11.9626415 74.8476622,11.9626415 C75.7311134,11.9626415 76.3677415,12.2950561 76.7926927,12.9800073 C77.2248329,13.6730073 77.4436988,14.6372512 77.4436988,15.8437634 C77.4436988,18.5980561 76.4580037,19.9365683 74.4291012,19.9365683 M75.2662232,10.0244951 C74.1623085,10.0244951 73.1230951,10.4502756 72.1741439,11.2913732 L72.0255707,10.2329585 L68.2353573,10.3456415 L68.2353573,11.7260073 L70.0142415,12.1477634 L70.0142415,24.7086902 L68.3407963,25.1304463 L68.3407963,26.5132268 L74.553711,26.5132268 L74.553711,25.1248122 L72.3562659,24.7022512 L72.3562659,21.6187634 C72.9753207,21.7885927 73.5656195,21.8739098 74.1151805,21.8739098 C75.077711,21.8739098 75.9276134,21.7209829 76.642522,21.4207634 C77.3622232,21.119739 77.9716927,20.6939585 78.4557537,20.1563 C78.9406134,19.6178366 79.3040585,18.9674951 79.5389,18.2229829 C79.7713451,17.4833 79.8903634,16.6607146 79.8903634,15.7817878 C79.8903634,13.9619585 79.4973634,12.5349098 78.7225463,11.5384707 C77.9405402,10.5347878 76.7775159,10.0244951 75.2662232,10.0244951" id="Fill-341"></path>
            <path d="M88.3450555,10.024978 C87.3034457,10.024978 86.2714213,10.560222 85.2753421,11.616222 L85.1060006,10.2334415 L81.4188299,10.3453195 L81.4188299,11.7264902 L83.1985128,12.1482463 L83.1985128,19.7567585 L81.4188299,20.2839537 L81.4188299,21.6627098 L87.6317445,21.6627098 L87.6317445,20.2799293 L85.5397384,19.7527341 L85.5397384,13.6308317 C86.3049701,12.6247341 87.2499274,12.0999537 88.3482506,12.0701732 L88.6613726,13.6493439 L90.2437567,13.6493439 L90.355586,10.3726854 L90.0360738,10.2841488 C89.4937018,10.1119049 88.9249701,10.024978 88.3450555,10.024978" id="Fill-343"></path>
            <path d="M93.6925713,14.5589366 C93.7772421,13.8071805 94.0368457,13.1793756 94.4649921,12.6900098 C94.9131079,12.1789122 95.5217787,11.9205463 96.2766262,11.9205463 C97.049047,11.9205463 97.5898213,12.1652293 97.9309006,12.668278 C98.2599982,13.1520098 98.4357299,13.7886683 98.4525043,14.5589366 L93.6925713,14.5589366 Z M99.5372482,19.070278 C99.3894738,19.1644488 99.2033579,19.2650585 98.9852909,19.3680829 C98.7688213,19.4703024 98.5235957,19.5644732 98.2591994,19.6465707 C97.9908091,19.7286683 97.7048457,19.7986927 97.405303,19.8534244 C97.1065591,19.9081561 96.8046201,19.9363268 96.506675,19.9363268 C95.6168335,19.9363268 94.9266872,19.6135707 94.3954982,18.9503512 C93.8842787,18.3120829 93.6166872,17.4508634 93.5967177,16.3900341 L100.692285,16.3489854 L100.804114,16.3473756 L100.920736,15.1062537 C100.920736,11.7346195 99.3998579,10.0250585 96.4020348,10.0250585 C95.6336079,10.0250585 94.9186994,10.1779854 94.2772787,10.4806195 C93.6358579,10.7816439 93.0759128,11.2082293 92.6142177,11.744278 C92.1533213,12.2811317 91.7890774,12.9306683 91.5342665,13.6727659 C91.2794555,14.4124488 91.1508518,15.2350341 91.1508518,16.1179854 C91.1508518,17.8838878 91.5901811,19.2980585 92.4560591,20.3218634 C93.3275287,21.3513024 94.6207543,21.8736683 96.2973945,21.8736683 C96.9380165,21.8736683 97.5386994,21.7819122 98.0834677,21.6040341 C98.6250409,21.4277659 99.1035104,21.2249366 99.505297,21.0044 C99.9094799,20.7830585 100.355998,20.4772049 100.832071,20.0956927 L100.922334,20.0240585 L100.056455,18.7298146 L99.5372482,19.070278 Z" id="Fill-345"></path>
            <path d="M108.977476,15.6403707 C108.538945,15.3908585 108.054884,15.1840049 107.54047,15.0278585 C107.037238,14.8757366 106.565159,14.7131512 106.137012,14.5473463 C105.717652,14.3839561 105.366189,14.1875659 105.092207,13.9646146 C104.834201,13.7553463 104.708793,13.473639 104.708793,13.1033951 C104.708793,12.8595171 104.755921,12.6534683 104.849378,12.4908829 C104.943634,12.325078 105.065049,12.2027366 105.220811,12.1158098 C105.382963,12.0248585 105.569878,11.9572488 105.779159,11.9186146 C106.309549,11.8180049 106.938988,11.8461756 107.470177,11.9492 C107.728183,12.0007122 107.917494,12.0449805 108.034915,12.0812 L108.375994,13.7553463 L109.959177,13.7553463 L110.027073,10.6927854 L109.414409,10.4947854 C108.880823,10.3249561 108.348835,10.206639 107.832823,10.1430537 C107.329591,10.0794683 106.822366,10.0408341 106.319134,10.0247366 C105.137738,10.0537122 104.176006,10.3579561 103.461098,10.9278098 C102.735805,11.5049073 102.367567,12.3500293 102.367567,13.440639 C102.367567,14.1111024 102.520134,14.6600293 102.820476,15.0745415 C103.114427,15.4810049 103.490652,15.8158341 103.937171,16.0693707 C104.3765,16.3196878 104.859762,16.5249317 105.374976,16.6818829 C105.878207,16.8340049 106.351884,16.9893463 106.781628,17.1438829 C107.200189,17.2919805 107.550055,17.4779073 107.824835,17.6936146 C108.081244,17.8948341 108.206652,18.159639 108.206652,18.5001024 C108.206652,19.0232732 108.022933,19.3991512 107.64511,19.651078 C107.256104,19.9102488 106.613884,20.0414439 105.735226,20.0414439 C105.442872,20.0414439 105.148921,20.0237366 104.86136,19.9907366 C104.61853,19.9625659 104.430817,19.9263463 104.300616,19.8844927 L104.066573,18.0381024 L102.366768,18.0381024 L102.389134,21.3815659 L102.958665,21.532078 C103.100049,21.5739317 103.283768,21.6182 103.504232,21.6608585 C103.722299,21.7035171 103.957939,21.7413463 104.211951,21.7783707 C104.465165,21.8121756 104.721573,21.8411512 104.982774,21.8636878 C105.247171,21.8838098 105.499585,21.8942732 105.735226,21.8942732 C106.385433,21.8942732 107.005287,21.8194195 107.577213,21.6697122 C108.153933,21.5183951 108.667549,21.2849805 109.102884,20.9759073 C109.540616,20.6660293 109.894476,20.2724439 110.154878,19.8064195 C110.41528,19.3403951 110.547878,18.7938829 110.547878,18.1845902 C110.547878,17.5414927 110.394512,17.0118829 110.093372,16.6126634 C109.798622,16.2214927 109.423994,15.8947122 108.977476,15.6403707" id="Fill-347"></path>
            <path d="M118.833868,15.6403707 C118.395337,15.3908585 117.911276,15.1840049 117.396862,15.0278585 C116.89363,14.8757366 116.420752,14.7131512 115.993404,14.5473463 C115.574045,14.3839561 115.222581,14.1875659 114.947002,13.9646146 C114.690593,13.7553463 114.565185,13.473639 114.565185,13.1033951 C114.565185,12.8595171 114.612313,12.6534683 114.70577,12.4908829 C114.800026,12.325078 114.921441,12.2027366 115.077203,12.1158098 C115.239355,12.0248585 115.42627,11.9572488 115.635551,11.9186146 C116.165941,11.8180049 116.79538,11.8461756 117.326569,11.9492 C117.584575,12.0007122 117.773886,12.0449805 117.891307,12.0812 L118.232386,13.7553463 L119.815569,13.7553463 L119.883465,10.6927854 L119.270801,10.4947854 C118.737215,10.3249561 118.205227,10.206639 117.689215,10.1430537 C117.185984,10.0794683 116.678758,10.0408341 116.175526,10.0247366 C114.99413,10.0537122 114.032398,10.3579561 113.31749,10.9278098 C112.592197,11.5049073 112.223959,12.3500293 112.223959,13.440639 C112.223959,14.1111024 112.376526,14.6600293 112.676868,15.0745415 C112.970819,15.4810049 113.347045,15.8158341 113.793563,16.0693707 C114.232892,16.3196878 114.716154,16.5249317 115.231368,16.6818829 C115.734599,16.8340049 116.208276,16.9893463 116.63802,17.1438829 C117.056581,17.2919805 117.406447,17.4779073 117.681227,17.6936146 C117.937636,17.8948341 118.063045,18.159639 118.063045,18.5001024 C118.063045,19.0232732 117.879325,19.3991512 117.501502,19.651078 C117.112496,19.9102488 116.469477,20.0414439 115.591618,20.0414439 C115.299264,20.0414439 115.005313,20.0237366 114.717752,19.9907366 C114.474923,19.9625659 114.287209,19.9263463 114.157008,19.8844927 L113.922965,18.0381024 L112.22316,18.0381024 L112.245526,21.3815659 L112.815057,21.532078 C112.956441,21.5739317 113.14016,21.6182 113.360624,21.6608585 C113.578691,21.7035171 113.814331,21.7413463 114.068343,21.7783707 C114.321557,21.8121756 114.577965,21.8411512 114.839166,21.8636878 C115.103563,21.8838098 115.355977,21.8942732 115.591618,21.8942732 C116.241825,21.8942732 116.861679,21.8194195 117.433605,21.6697122 C118.010325,21.5183951 118.523941,21.2849805 118.959276,20.9759073 C119.397008,20.6660293 119.750868,20.2724439 120.01127,19.8064195 C120.271673,19.3403951 120.40427,18.7938829 120.40427,18.1845902 C120.40427,17.5414927 120.250904,17.0118829 119.949764,16.6126634 C119.655014,16.2214927 119.280386,15.8947122 118.833868,15.6403707" id="Fill-349"></path>
            <path d="M127.206126,19.9365683 C125.318607,19.9365683 124.400809,18.631861 124.400809,15.9492024 C124.400809,13.2665439 125.352156,11.9626415 127.310766,11.9626415 C129.12879,11.9634463 130.011443,13.2335439 130.011443,15.8445683 C130.011443,17.2184951 129.782991,18.2600073 129.33168,18.9385195 C128.885162,19.6097878 128.189424,19.9365683 127.206126,19.9365683 M131.129735,11.5658366 C130.243089,10.5436415 128.987406,10.0244951 127.393839,10.0244951 C126.60065,10.0244951 125.862577,10.170178 125.200388,10.4575195 C124.536601,10.744861 123.955888,11.160178 123.473424,11.6905927 C122.989363,12.2193976 122.61154,12.8689341 122.348741,13.6198854 C122.08754,14.3668122 121.954943,15.2079098 121.954943,16.117422 C121.954943,17.984739 122.405455,19.4246659 123.294498,20.3993732 C124.186735,21.3773 125.46079,21.8739098 127.080717,21.8739098 C127.89068,21.8739098 128.635943,21.720178 129.297333,21.4207634 C129.960321,21.1189341 130.53065,20.6931537 130.993144,20.1546902 C131.454839,19.6202512 131.819083,18.974739 132.074693,18.2382756 C132.327906,17.5042268 132.457309,16.684861 132.457309,15.8027146 C132.457309,14.0094463 132.01079,12.5832024 131.129735,11.5658366" id="Fill-351"></path>
            <path d="M16.457097,0.932613559 C7.99260975,0.932613559 1.10622839,7.87212203 1.10622839,16.4023424 C1.10622839,24.9314441 7.99260975,31.8709525 16.457097,31.8709525 C24.9199191,31.8709525 31.8046352,24.9325627 31.8046352,16.405139 C31.8046352,7.87603729 24.9199191,0.935410169 16.457097,0.932613559 M16.457097,32.7412576 C7.51634703,32.7412576 0.242516525,25.4113424 0.242516525,16.4023424 C0.242516525,7.39222373 7.51634703,0.0623084746 16.457097,0.0623084746 C25.3967369,0.0651050847 32.668347,7.39669831 32.668347,16.405139 C32.668347,25.412461 25.3956267,32.7412576 16.457097,32.7412576" id="Fill-353"></path>
            <path d="M16.3752809,8.92932807 C12.2320969,8.92932807 8.86182796,12.3258876 8.86182796,16.5005659 C8.86182796,20.6752442 12.2320969,24.0706719 16.3752809,24.0706719 L16.3775277,24.0706719 C20.5190265,24.0706719 23.8876103,20.6752442 23.8876103,16.5005659 C23.8876103,12.3258876 20.5173414,8.92932807 16.3752809,8.92932807 M16.3775277,24.9512195 L16.3752809,24.9512195 C11.7501484,24.9512195 7.98780488,21.1602245 7.98780488,16.5005659 C7.98780488,11.8397755 11.7501484,8.04878049 16.3752809,8.04878049 C20.9992898,8.04878049 24.7621951,11.8397755 24.7621951,16.5005659 C24.7621951,21.1602245 21.000975,24.9512195 16.3775277,24.9512195" id="Fill-356"></path>
        </g>
    </g>
</svg>