<?xml version="1.0" encoding="UTF-8"?>
<svg width="133px" height="34px" viewBox="0 0 133 34" version="1.1" xmlns="http://www.w3.org/2000/svg" xmlns:xlink="http://www.w3.org/1999/xlink">
    <!-- Generator: Sketch 45.1 (43504) - http://www.bohemiancoding.com/sketch -->
    <title>logo</title>
    <desc>Created with Sketch.</desc>
    <defs></defs>
    <g id="Page-1" stroke="none" stroke-width="1" fill="none" fill-rule="evenodd">
        <g id="logo" fill="#FFFFFF">
            <polygon id="Fill-338" points="54.7442744 15.1224146 50.1576768 15.1224146 50.1576768 10.2070244 54.971128 10.2070244 54.971128 8.26887805 50.1576768 8.26887805 50.1576768 3.98692683 54.4367439 3.98692683 54.9599451 5.88402439 56.5407317 5.88402439 56.5407317 2.04878049 50.0290732 2.04878049 45.9329268 2.1582439 45.9329268 3.53860976 47.7110122 3.96117073 47.7110122 15.1481707 45.9329268 15.5707317 45.9329268 17.060561 56.7492134 17.060561 56.7492134 13.0136341 55.1620366 13.0136341"></polygon>
            <path d="M65.4283628,10.6403707 C64.9898323,10.3908585 64.5057713,10.1840049 63.9913567,10.0278585 C63.488125,9.87573659 63.0160457,9.71315122 62.5878994,9.54734634 C62.1685396,9.3839561 61.8170762,9.18756585 61.5430945,8.96461463 C61.2850884,8.75534634 61.1596799,8.47363902 61.1596799,8.10339512 C61.1596799,7.85951707 61.2068079,7.65346829 61.3002652,7.49088293 C61.3945213,7.32507805 61.515936,7.20273659 61.6716982,7.11580976 C61.8338506,7.02485854 62.0207652,6.95724878 62.2300457,6.91861463 C62.760436,6.81800488 63.389875,6.84617561 63.921064,6.9492 C64.1790701,7.0007122 64.3683811,7.04498049 64.4858018,7.0812 L64.8268811,8.75534634 L66.410064,8.75534634 L66.4779604,5.69278537 L65.8652957,5.49478537 C65.3317104,5.3249561 64.7997226,5.20663902 64.2837104,5.14305366 C63.7804787,5.07946829 63.273253,5.04083415 62.7700213,5.02473659 C61.588625,5.0537122 60.6268933,5.3579561 59.9119848,5.92780976 C59.1866921,6.50490732 58.8184543,7.35002927 58.8184543,8.44063902 C58.8184543,9.11110244 58.9710213,9.66002927 59.2713628,10.0745415 C59.565314,10.4810049 59.9415396,10.8158341 60.3880579,11.0693707 C60.8273872,11.3196878 61.3106494,11.5249317 61.8258628,11.6818829 C62.3290945,11.8340049 62.8027713,11.9893463 63.2325152,12.1438829 C63.6510762,12.2919805 64.0009421,12.4779073 64.2757226,12.6936146 C64.5321311,12.8948341 64.6575396,13.159639 64.6575396,13.5001024 C64.6575396,14.0232732 64.4738201,14.3991512 64.095997,14.651078 C63.7069909,14.9102488 63.0647713,15.0414439 62.1861128,15.0414439 C61.8937591,15.0414439 61.5998079,15.0237366 61.312247,14.9907366 C61.0694177,14.9625659 60.8817043,14.9263463 60.751503,14.8844927 L60.5174604,13.0381024 L58.8176555,13.0381024 L58.8400213,16.3815659 L59.4095518,16.532078 C59.550936,16.5739317 59.7346555,16.6182 59.9551189,16.6608585 C60.173186,16.7035171 60.4088262,16.7413463 60.6628384,16.7783707 C60.9160518,16.8121756 61.1724604,16.8411512 61.4336616,16.8636878 C61.6980579,16.8838098 61.9504726,16.8942732 62.1861128,16.8942732 C62.8363201,16.8942732 63.4561738,16.8194195 64.0281006,16.6697122 C64.6048201,16.5183951 65.118436,16.2849805 65.5537713,15.9759073 C65.991503,15.6660293 66.3453628,15.2724439 66.6057652,14.8064195 C66.8661677,14.3403951 66.9987652,13.7938829 66.9987652,13.1845902 C66.9987652,12.5414927 66.8453994,12.0118829 66.5442591,11.6126634 C66.2495091,11.2214927 65.8748811,10.8947122 65.4283628,10.6403707" id="Fill-339"></path>
            <path d="M74.4291012,14.9365683 C73.4713634,14.9365683 72.774028,14.813422 72.3562659,14.5695439 L72.3562659,8.34783659 C72.6190646,7.89388537 72.9737232,7.54698293 73.4090585,7.31759268 C73.8563756,7.08176341 74.3404366,6.96264146 74.8476622,6.96264146 C75.7311134,6.96264146 76.3677415,7.2950561 76.7926927,7.98000732 C77.2248329,8.67300732 77.4436988,9.63725122 77.4436988,10.8437634 C77.4436988,13.5980561 76.4580037,14.9365683 74.4291012,14.9365683 M75.2662232,5.02449512 C74.1623085,5.02449512 73.1230951,5.45027561 72.1741439,6.29137317 L72.0255707,5.23295854 L68.2353573,5.34564146 L68.2353573,6.72600732 L70.0142415,7.14776341 L70.0142415,19.7086902 L68.3407963,20.1304463 L68.3407963,21.5132268 L74.553711,21.5132268 L74.553711,20.1248122 L72.3562659,19.7022512 L72.3562659,16.6187634 C72.9753207,16.7885927 73.5656195,16.8739098 74.1151805,16.8739098 C75.077711,16.8739098 75.9276134,16.7209829 76.642522,16.4207634 C77.3622232,16.119739 77.9716927,15.6939585 78.4557537,15.1563 C78.9406134,14.6178366 79.3040585,13.9674951 79.5389,13.2229829 C79.7713451,12.4833 79.8903634,11.6607146 79.8903634,10.7817878 C79.8903634,8.96195854 79.4973634,7.53490976 78.7225463,6.53847073 C77.9405402,5.5347878 76.7775159,5.02449512 75.2662232,5.02449512" id="Fill-341"></path>
            <path d="M88.3450555,5.02497805 C87.3034457,5.02497805 86.2714213,5.56022195 85.2753421,6.61622195 L85.1060006,5.23344146 L81.4188299,5.34531951 L81.4188299,6.72649024 L83.1985128,7.14824634 L83.1985128,14.7567585 L81.4188299,15.2839537 L81.4188299,16.6627098 L87.6317445,16.6627098 L87.6317445,15.2799293 L85.5397384,14.7527341 L85.5397384,8.63083171 C86.3049701,7.62473415 87.2499274,7.09995366 88.3482506,7.07017317 L88.6613726,8.6493439 L90.2437567,8.6493439 L90.355586,5.37268537 L90.0360738,5.28414878 C89.4937018,5.11190488 88.9249701,5.02497805 88.3450555,5.02497805" id="Fill-343"></path>
            <path d="M93.6925713,9.55893659 C93.7772421,8.80718049 94.0368457,8.17937561 94.4649921,7.69000976 C94.9131079,7.1789122 95.5217787,6.92054634 96.2766262,6.92054634 C97.049047,6.92054634 97.5898213,7.16522927 97.9309006,7.66827805 C98.2599982,8.15200976 98.4357299,8.78866829 98.4525043,9.55893659 L93.6925713,9.55893659 Z M99.5372482,14.070278 C99.3894738,14.1644488 99.2033579,14.2650585 98.9852909,14.3680829 C98.7688213,14.4703024 98.5235957,14.5644732 98.2591994,14.6465707 C97.9908091,14.7286683 97.7048457,14.7986927 97.405303,14.8534244 C97.1065591,14.9081561 96.8046201,14.9363268 96.506675,14.9363268 C95.6168335,14.9363268 94.9266872,14.6135707 94.3954982,13.9503512 C93.8842787,13.3120829 93.6166872,12.4508634 93.5967177,11.3900341 L100.692285,11.3489854 L100.804114,11.3473756 L100.920736,10.1062537 C100.920736,6.73461951 99.3998579,5.02505854 96.4020348,5.02505854 C95.6336079,5.02505854 94.9186994,5.17798537 94.2772787,5.48061951 C93.6358579,5.7816439 93.0759128,6.20822927 92.6142177,6.74427805 C92.1533213,7.28113171 91.7890774,7.93066829 91.5342665,8.67276585 C91.2794555,9.41244878 91.1508518,10.2350341 91.1508518,11.1179854 C91.1508518,12.8838878 91.5901811,14.2980585 92.4560591,15.3218634 C93.3275287,16.3513024 94.6207543,16.8736683 96.2973945,16.8736683 C96.9380165,16.8736683 97.5386994,16.7819122 98.0834677,16.6040341 C98.6250409,16.4277659 99.1035104,16.2249366 99.505297,16.0044 C99.9094799,15.7830585 100.355998,15.4772049 100.832071,15.0956927 L100.922334,15.0240585 L100.056455,13.7298146 L99.5372482,14.070278 Z" id="Fill-345"></path>
            <path d="M108.977476,10.6403707 C108.538945,10.3908585 108.054884,10.1840049 107.54047,10.0278585 C107.037238,9.87573659 106.565159,9.71315122 106.137012,9.54734634 C105.717652,9.3839561 105.366189,9.18756585 105.092207,8.96461463 C104.834201,8.75534634 104.708793,8.47363902 104.708793,8.10339512 C104.708793,7.85951707 104.755921,7.65346829 104.849378,7.49088293 C104.943634,7.32507805 105.065049,7.20273659 105.220811,7.11580976 C105.382963,7.02485854 105.569878,6.95724878 105.779159,6.91861463 C106.309549,6.81800488 106.938988,6.84617561 107.470177,6.9492 C107.728183,7.0007122 107.917494,7.04498049 108.034915,7.0812 L108.375994,8.75534634 L109.959177,8.75534634 L110.027073,5.69278537 L109.414409,5.49478537 C108.880823,5.3249561 108.348835,5.20663902 107.832823,5.14305366 C107.329591,5.07946829 106.822366,5.04083415 106.319134,5.02473659 C105.137738,5.0537122 104.176006,5.3579561 103.461098,5.92780976 C102.735805,6.50490732 102.367567,7.35002927 102.367567,8.44063902 C102.367567,9.11110244 102.520134,9.66002927 102.820476,10.0745415 C103.114427,10.4810049 103.490652,10.8158341 103.937171,11.0693707 C104.3765,11.3196878 104.859762,11.5249317 105.374976,11.6818829 C105.878207,11.8340049 106.351884,11.9893463 106.781628,12.1438829 C107.200189,12.2919805 107.550055,12.4779073 107.824835,12.6936146 C108.081244,12.8948341 108.206652,13.159639 108.206652,13.5001024 C108.206652,14.0232732 108.022933,14.3991512 107.64511,14.651078 C107.256104,14.9102488 106.613884,15.0414439 105.735226,15.0414439 C105.442872,15.0414439 105.148921,15.0237366 104.86136,14.9907366 C104.61853,14.9625659 104.430817,14.9263463 104.300616,14.8844927 L104.066573,13.0381024 L102.366768,13.0381024 L102.389134,16.3815659 L102.958665,16.532078 C103.100049,16.5739317 103.283768,16.6182 103.504232,16.6608585 C103.722299,16.7035171 103.957939,16.7413463 104.211951,16.7783707 C104.465165,16.8121756 104.721573,16.8411512 104.982774,16.8636878 C105.247171,16.8838098 105.499585,16.8942732 105.735226,16.8942732 C106.385433,16.8942732 107.005287,16.8194195 107.577213,16.6697122 C108.153933,16.5183951 108.667549,16.2849805 109.102884,15.9759073 C109.540616,15.6660293 109.894476,15.2724439 110.154878,14.8064195 C110.41528,14.3403951 110.547878,13.7938829 110.547878,13.1845902 C110.547878,12.5414927 110.394512,12.0118829 110.093372,11.6126634 C109.798622,11.2214927 109.423994,10.8947122 108.977476,10.6403707" id="Fill-347"></path>
            <path d="M118.833868,10.6403707 C118.395337,10.3908585 117.911276,10.1840049 117.396862,10.0278585 C116.89363,9.87573659 116.420752,9.71315122 115.993404,9.54734634 C115.574045,9.3839561 115.222581,9.18756585 114.947002,8.96461463 C114.690593,8.75534634 114.565185,8.47363902 114.565185,8.10339512 C114.565185,7.85951707 114.612313,7.65346829 114.70577,7.49088293 C114.800026,7.32507805 114.921441,7.20273659 115.077203,7.11580976 C115.239355,7.02485854 115.42627,6.95724878 115.635551,6.91861463 C116.165941,6.81800488 116.79538,6.84617561 117.326569,6.9492 C117.584575,7.0007122 117.773886,7.04498049 117.891307,7.0812 L118.232386,8.75534634 L119.815569,8.75534634 L119.883465,5.69278537 L119.270801,5.49478537 C118.737215,5.3249561 118.205227,5.20663902 117.689215,5.14305366 C117.185984,5.07946829 116.678758,5.04083415 116.175526,5.02473659 C114.99413,5.0537122 114.032398,5.3579561 113.31749,5.92780976 C112.592197,6.50490732 112.223959,7.35002927 112.223959,8.44063902 C112.223959,9.11110244 112.376526,9.66002927 112.676868,10.0745415 C112.970819,10.4810049 113.347045,10.8158341 113.793563,11.0693707 C114.232892,11.3196878 114.716154,11.5249317 115.231368,11.6818829 C115.734599,11.8340049 116.208276,11.9893463 116.63802,12.1438829 C117.056581,12.2919805 117.406447,12.4779073 117.681227,12.6936146 C117.937636,12.8948341 118.063045,13.159639 118.063045,13.5001024 C118.063045,14.0232732 117.879325,14.3991512 117.501502,14.651078 C117.112496,14.9102488 116.469477,15.0414439 115.591618,15.0414439 C115.299264,15.0414439 115.005313,15.0237366 114.717752,14.9907366 C114.474923,14.9625659 114.287209,14.9263463 114.157008,14.8844927 L113.922965,13.0381024 L112.22316,13.0381024 L112.245526,16.3815659 L112.815057,16.532078 C112.956441,16.5739317 113.14016,16.6182 113.360624,16.6608585 C113.578691,16.7035171 113.814331,16.7413463 114.068343,16.7783707 C114.321557,16.8121756 114.577965,16.8411512 114.839166,16.8636878 C115.103563,16.8838098 115.355977,16.8942732 115.591618,16.8942732 C116.241825,16.8942732 116.861679,16.8194195 117.433605,16.6697122 C118.010325,16.5183951 118.523941,16.2849805 118.959276,15.9759073 C119.397008,15.6660293 119.750868,15.2724439 120.01127,14.8064195 C120.271673,14.3403951 120.40427,13.7938829 120.40427,13.1845902 C120.40427,12.5414927 120.250904,12.0118829 119.949764,11.6126634 C119.655014,11.2214927 119.280386,10.8947122 118.833868,10.6403707" id="Fill-349"></path>
            <path d="M127.206126,14.9365683 C125.318607,14.9365683 124.400809,13.631861 124.400809,10.9492024 C124.400809,8.2665439 125.352156,6.96264146 127.310766,6.96264146 C129.12879,6.96344634 130.011443,8.2335439 130.011443,10.8445683 C130.011443,12.2184951 129.782991,13.2600073 129.33168,13.9385195 C128.885162,14.6097878 128.189424,14.9365683 127.206126,14.9365683 M131.129735,6.56583659 C130.243089,5.54364146 128.987406,5.02449512 127.393839,5.02449512 C126.60065,5.02449512 125.862577,5.17017805 125.200388,5.45751951 C124.536601,5.74486098 123.955888,6.16017805 123.473424,6.69059268 C122.989363,7.21939756 122.61154,7.86893415 122.348741,8.61988537 C122.08754,9.3668122 121.954943,10.2079098 121.954943,11.117422 C121.954943,12.984739 122.405455,14.4246659 123.294498,15.3993732 C124.186735,16.3773 125.46079,16.8739098 127.080717,16.8739098 C127.89068,16.8739098 128.635943,16.720178 129.297333,16.4207634 C129.960321,16.1189341 130.53065,15.6931537 130.993144,15.1546902 C131.454839,14.6202512 131.819083,13.974739 132.074693,13.2382756 C132.327906,12.5042268 132.457309,11.684861 132.457309,10.8027146 C132.457309,9.00944634 132.01079,7.58320244 131.129735,6.56583659" id="Fill-351"></path>
            <path d="M16.457097,0.932613559 C7.99260975,0.932613559 1.10622839,7.87212203 1.10622839,16.4023424 C1.10622839,24.9314441 7.99260975,31.8709525 16.457097,31.8709525 C24.9199191,31.8709525 31.8046352,24.9325627 31.8046352,16.405139 C31.8046352,7.87603729 24.9199191,0.935410169 16.457097,0.932613559 M16.457097,32.7412576 C7.51634703,32.7412576 0.242516525,25.4113424 0.242516525,16.4023424 C0.242516525,7.39222373 7.51634703,0.0623084746 16.457097,0.0623084746 C25.3967369,0.0651050847 32.668347,7.39669831 32.668347,16.405139 C32.668347,25.412461 25.3956267,32.7412576 16.457097,32.7412576" id="Fill-353"></path>
            <path d="M16.3752809,8.92932807 C12.2320969,8.92932807 8.86182796,12.3258876 8.86182796,16.5005659 C8.86182796,20.6752442 12.2320969,24.0706719 16.3752809,24.0706719 L16.3775277,24.0706719 C20.5190265,24.0706719 23.8876103,20.6752442 23.8876103,16.5005659 C23.8876103,12.3258876 20.5173414,8.92932807 16.3752809,8.92932807 M16.3775277,24.9512195 L16.3752809,24.9512195 C11.7501484,24.9512195 7.98780488,21.1602245 7.98780488,16.5005659 C7.98780488,11.8397755 11.7501484,8.04878049 16.3752809,8.04878049 C20.9992898,8.04878049 24.7621951,11.8397755 24.7621951,16.5005659 C24.7621951,21.1602245 21.000975,24.9512195 16.3775277,24.9512195" id="Fill-356"></path>
            <path d="M46.83,25.46 L50.78,25.46 L50.78,26.44 L47.99,26.44 L47.99,28.29 L50.37,28.29 L50.37,29.27 L47.99,29.27 L47.99,32 L46.83,32 L46.83,25.46 Z M51.93,25.46 L53.21,25.46 L54.39,28.68 L54.82,29.92 L54.86,29.92 L55.28,28.68 L56.44,25.46 L57.72,25.46 L57.72,32 L56.63,32 L56.63,29.01 C56.63,28.8566659 56.6349999,28.6900009 56.645,28.51 C56.6550001,28.3299991 56.6666666,28.1483342 56.68,27.965 C56.6933334,27.7816658 56.7099999,27.6016676 56.73,27.425 C56.7500001,27.2483325 56.7666666,27.0833341 56.78,26.93 L56.74,26.93 L56.21,28.42 L55.08,31.39 L54.54,31.39 L53.41,28.42 L52.89,26.93 L52.85,26.93 C52.8633334,27.0833341 52.8783333,27.2483325 52.895,27.425 C52.9116668,27.6016676 52.9283332,27.7816658 52.945,27.965 C52.9616667,28.1483342 52.9749999,28.3299991 52.985,28.51 C52.995,28.6900009 53,28.8566659 53,29.01 L53,32 L51.93,32 L51.93,25.46 Z M59.61,30.37 C59.8433345,30.5900011 60.1099985,30.7683327 60.41,30.905 C60.7100015,31.0416674 61.0099985,31.11 61.31,31.11 C61.6833352,31.11 61.9666657,31.0333341 62.16,30.88 C62.3533343,30.7266659 62.45,30.5233346 62.45,30.27 C62.45,30.136666 62.4250002,30.0233338 62.375,29.93 C62.3249998,29.8366662 62.2550004,29.7550004 62.165,29.685 C62.0749996,29.6149996 61.968334,29.5500003 61.845,29.49 C61.721666,29.4299997 61.5866674,29.3700003 61.44,29.31 L60.54,28.92 C60.3799992,28.853333 60.2216675,28.7700005 60.065,28.67 C59.9083326,28.5699995 59.7666673,28.4500007 59.64,28.31 C59.5133327,28.1699993 59.411667,28.0066676 59.335,27.82 C59.2583329,27.6333324 59.22,27.4200012 59.22,27.18 C59.22,26.9199987 59.2749994,26.6783344 59.385,26.455 C59.4950005,26.2316656 59.6466657,26.0366675 59.84,25.87 C60.0333343,25.7033325 60.2649987,25.5733338 60.535,25.48 C60.8050014,25.3866662 61.0999984,25.34 61.42,25.34 C61.8000019,25.34 62.1666649,25.4149993 62.52,25.565 C62.8733351,25.7150007 63.1766654,25.9166654 63.43,26.17 L62.84,26.91 C62.6266656,26.7366658 62.4066678,26.6000005 62.18,26.5 C61.9533322,26.3999995 61.7000014,26.35 61.42,26.35 C61.1066651,26.35 60.8566676,26.4183327 60.67,26.555 C60.4833324,26.6916673 60.39,26.8799988 60.39,27.12 C60.39,27.2466673 60.4183331,27.3549996 60.475,27.445 C60.5316669,27.5350004 60.6083328,27.6149996 60.705,27.685 C60.8016671,27.7550004 60.9133327,27.818333 61.04,27.875 C61.1666673,27.931667 61.296666,27.9866664 61.43,28.04 L62.32,28.41 C62.5133343,28.4900004 62.6899992,28.5833328 62.85,28.69 C63.0100008,28.7966672 63.1483328,28.9199993 63.265,29.06 C63.3816673,29.2000007 63.473333,29.3616658 63.54,29.545 C63.606667,29.7283342 63.64,29.9399988 63.64,30.18 C63.64,30.446668 63.5866672,30.6966655 63.48,30.93 C63.3733328,31.1633345 63.2183344,31.3683325 63.015,31.545 C62.8116657,31.7216676 62.5650015,31.8616662 62.275,31.965 C61.9849986,32.0683339 61.6566685,32.12 61.29,32.12 C60.8499978,32.12 60.425002,32.0366675 60.015,31.87 C59.6049979,31.7033325 59.2433349,31.4666682 58.93,31.16 L59.61,30.37 Z M66.45,24.9 L67.23,24.9 L64.9,33.6 L64.12,33.6 L66.45,24.9 Z M68.27,25.46 L69.55,25.46 L70.73,28.68 L71.16,29.92 L71.2,29.92 L71.62,28.68 L72.78,25.46 L74.06,25.46 L74.06,32 L72.97,32 L72.97,29.01 C72.97,28.8566659 72.9749999,28.6900009 72.985,28.51 C72.995,28.3299991 73.0066666,28.1483342 73.02,27.965 C73.0333334,27.7816658 73.0499999,27.6016676 73.07,27.425 C73.0900001,27.2483325 73.1066666,27.0833341 73.12,26.93 L73.08,26.93 L72.55,28.42 L71.42,31.39 L70.88,31.39 L69.75,28.42 L69.23,26.93 L69.19,26.93 C69.2033334,27.0833341 69.2183332,27.2483325 69.235,27.425 C69.2516667,27.6016676 69.2683333,27.7816658 69.285,27.965 C69.3016668,28.1483342 69.315,28.3299991 69.325,28.51 C69.335,28.6900009 69.34,28.8566659 69.34,29.01 L69.34,32 L68.27,32 L68.27,25.46 Z M75.72,25.46 L77,25.46 L78.18,28.68 L78.61,29.92 L78.65,29.92 L79.07,28.68 L80.23,25.46 L81.51,25.46 L81.51,32 L80.42,32 L80.42,29.01 C80.42,28.8566659 80.4249999,28.6900009 80.435,28.51 C80.4450001,28.3299991 80.4566666,28.1483342 80.47,27.965 C80.4833334,27.7816658 80.4999999,27.6016676 80.52,27.425 C80.5400001,27.2483325 80.5566666,27.0833341 80.57,26.93 L80.53,26.93 L80,28.42 L78.87,31.39 L78.33,31.39 L77.2,28.42 L76.68,26.93 L76.64,26.93 C76.6533334,27.0833341 76.6683333,27.2483325 76.685,27.425 C76.7016668,27.6016676 76.7183332,27.7816658 76.735,27.965 C76.7516667,28.1483342 76.7649999,28.3299991 76.775,28.51 C76.785,28.6900009 76.79,28.8566659 76.79,29.01 L76.79,32 L75.72,32 L75.72,25.46 Z M83.4,30.37 C83.6333345,30.5900011 83.8999985,30.7683327 84.2,30.905 C84.5000015,31.0416674 84.7999985,31.11 85.1,31.11 C85.4733352,31.11 85.7566657,31.0333341 85.95,30.88 C86.1433343,30.7266659 86.24,30.5233346 86.24,30.27 C86.24,30.136666 86.2150003,30.0233338 86.165,29.93 C86.1149998,29.8366662 86.0450004,29.7550004 85.955,29.685 C85.8649995,29.6149996 85.758334,29.5500003 85.635,29.49 C85.511666,29.4299997 85.3766674,29.3700003 85.23,29.31 L84.33,28.92 C84.1699992,28.853333 84.0116675,28.7700005 83.855,28.67 C83.6983326,28.5699995 83.5566673,28.4500007 83.43,28.31 C83.3033327,28.1699993 83.2016671,28.0066676 83.125,27.82 C83.0483329,27.6333324 83.01,27.4200012 83.01,27.18 C83.01,26.9199987 83.0649994,26.6783344 83.175,26.455 C83.2850005,26.2316656 83.4366657,26.0366675 83.63,25.87 C83.8233343,25.7033325 84.0549987,25.5733338 84.325,25.48 C84.5950014,25.3866662 84.8899984,25.34 85.21,25.34 C85.5900019,25.34 85.9566649,25.4149993 86.31,25.565 C86.6633351,25.7150007 86.9666654,25.9166654 87.22,26.17 L86.63,26.91 C86.4166656,26.7366658 86.1966678,26.6000005 85.97,26.5 C85.7433322,26.3999995 85.4900014,26.35 85.21,26.35 C84.8966651,26.35 84.6466676,26.4183327 84.46,26.555 C84.2733324,26.6916673 84.18,26.8799988 84.18,27.12 C84.18,27.2466673 84.208333,27.3549996 84.265,27.445 C84.3216669,27.5350004 84.3983328,27.6149996 84.495,27.685 C84.5916671,27.7550004 84.7033327,27.818333 84.83,27.875 C84.9566673,27.931667 85.086666,27.9866664 85.22,28.04 L86.11,28.41 C86.3033343,28.4900004 86.4799992,28.5833328 86.64,28.69 C86.8000008,28.7966672 86.9383327,28.9199993 87.055,29.06 C87.1716673,29.2000007 87.263333,29.3616658 87.33,29.545 C87.396667,29.7283342 87.43,29.9399988 87.43,30.18 C87.43,30.446668 87.3766672,30.6966655 87.27,30.93 C87.1633328,31.1633345 87.0083344,31.3683325 86.805,31.545 C86.6016657,31.7216676 86.3550015,31.8616662 86.065,31.965 C85.7749985,32.0683339 85.4466685,32.12 85.08,32.12 C84.6399978,32.12 84.215002,32.0366675 83.805,31.87 C83.3949979,31.7033325 83.0333349,31.4666682 82.72,31.16 L83.4,30.37 Z" id="FMS/MMS"></path>
        </g>
    </g>
</svg>