<?xml version="1.0" encoding="UTF-8"?>
<svg width="33px" height="33px" viewBox="0 0 33 33" version="1.1" xmlns="http://www.w3.org/2000/svg" xmlns:xlink="http://www.w3.org/1999/xlink">
    <!-- Generator: Sketch 45.1 (43504) - http://www.bohemiancoding.com/sketch -->
    <title>logo-symbol</title>
    <desc>Created with Sketch.</desc>
    <defs></defs>
    <g id="Page-1" stroke="none" stroke-width="1" fill="none" fill-rule="evenodd">
        <g id="logo-symbol" fill="#FFFFFF">
            <path d="M16.457097,0.932613559 C7.99260975,0.932613559 1.10622839,7.87212203 1.10622839,16.4023424 C1.10622839,24.9314441 7.99260975,31.8709525 16.457097,31.8709525 C24.9199191,31.8709525 31.8046352,24.9325627 31.8046352,16.405139 C31.8046352,7.87603729 24.9199191,0.935410169 16.457097,0.932613559 M16.457097,32.7412576 C7.51634703,32.7412576 0.242516525,25.4113424 0.242516525,16.4023424 C0.242516525,7.39222373 7.51634703,0.0623084746 16.457097,0.0623084746 C25.3967369,0.0651050847 32.668347,7.39669831 32.668347,16.405139 C32.668347,25.412461 25.3956267,32.7412576 16.457097,32.7412576" id="Fill-353"></path>
            <path d="M16.3752809,8.92932807 C12.2320969,8.92932807 8.86182796,12.3258876 8.86182796,16.5005659 C8.86182796,20.6752442 12.2320969,24.0706719 16.3752809,24.0706719 L16.3775277,24.0706719 C20.5190265,24.0706719 23.8876103,20.6752442 23.8876103,16.5005659 C23.8876103,12.3258876 20.5173414,8.92932807 16.3752809,8.92932807 M16.3775277,24.9512195 L16.3752809,24.9512195 C11.7501484,24.9512195 7.98780488,21.1602245 7.98780488,16.5005659 C7.98780488,11.8397755 11.7501484,8.04878049 16.3752809,8.04878049 C20.9992898,8.04878049 24.7621951,11.8397755 24.7621951,16.5005659 C24.7621951,21.1602245 21.000975,24.9512195 16.3775277,24.9512195" id="Fill-356"></path>
        </g>
    </g>
</svg>