<?xml version="1.0" encoding="UTF-8"?>
<svg width="32px" height="32px" viewBox="0 0 32 32" version="1.1" xmlns="http://www.w3.org/2000/svg" xmlns:xlink="http://www.w3.org/1999/xlink">
    <!-- Generator: Sketch 48.2 (47327) - http://www.bohemiancoding.com/sketch -->
    <title>More_input_disabled</title>
    <desc>Created with Sketch.</desc>
    <defs>
        <path d="M0,0 L28,0 C30.209139,-4.05812251e-16 32,1.790861 32,4 L32,28 C32,30.209139 30.209139,32 28,32 L0,32 L0,0 Z" id="path-1"></path>
    </defs>
    <g id="Page-1" stroke="none" stroke-width="1" fill="none" fill-rule="evenodd">
        <g id="More_input_disabled">
            <g id="Group-15">
                <g id="Rectangle-9-Copy">
                    <use fill="#EEEEEE" fill-rule="evenodd" xlink:href="#path-1"></use>
                    <path stroke="#C1C1C1" stroke-width="1" d="M0.5,0.5 L0.5,31.5 Z"></path>
                </g>
                <path d="M16.5,13 C17.33,13 18,12.33 18,11.5 C18,10.67 17.33,10 16.5,10 C15.67,10 15,10.67 15,11.5 C15,12.33 15.67,13 16.5,13 Z M16.5,15 C15.67,15 15,15.67 15,16.5 C15,17.33 15.67,18 16.5,18 C17.33,18 18,17.33 18,16.5 C18,15.67 17.33,15 16.5,15 Z M16.5,20 C15.67,20 15,20.67 15,21.5 C15,22.33 15.67,23 16.5,23 C17.33,23 18,22.33 18,21.5 C18,20.67 17.33,20 16.5,20 Z" id="Shape" fill="#878787" fill-rule="nonzero" transform="translate(16.500000, 16.500000) rotate(90.000000) translate(-16.500000, -16.500000) "></path>
            </g>
        </g>
    </g>
</svg>