<?xml version="1.0" encoding="UTF-8"?>
<svg width="18px" height="18px" viewBox="0 0 18 18" version="1.1" xmlns="http://www.w3.org/2000/svg" xmlns:xlink="http://www.w3.org/1999/xlink">
    <!-- Generator: Sketch 45.1 (43504) - http://www.bohemiancoding.com/sketch -->
    <title>preferences@1x</title>
    <desc>Created with Sketch.</desc>
    <defs></defs>
    <g id="Page-1" stroke="none" stroke-width="1" fill="none" fill-rule="evenodd">
        <g id="preferences" transform="translate(1.000000, 1.000000)" stroke="#00778B">
            <circle id="Oval-7-Copy-5" fill="#CCF3FB" cx="8" cy="8" r="8"></circle>
            <path d="M9.86440678,8.151 L9.40677966,8.406 L9.40677966,8.44 L9.40677966,11.432 C9.40677966,12.214 8.79661017,13 8,13 C7.22033898,13 6.55932203,12.231 6.55932203,11.432 L6.55932203,8.457 L6.55932203,8.423 L6.13559322,8.151 C5.44067797,7.59 5,6.74 5,5.788 C5,4.53 5.89232303,3.442 6.99401795,3 L6.99401795,6 C7.01618433,6.012506 7.7665437,6.344506 8,6.485 C8.27118644,6.332 8.7337986,6.153 8.98803589,6 L8.98803589,3 C10.0897308,3.442 11,4.53 11,5.788 C11,6.74 10.559322,7.59 9.86440678,8.151 Z" id="Path-Copy" fill="#FFFFFF"></path>
        </g>
    </g>
</svg>