<?xml version="1.0" encoding="UTF-8"?>
<svg width="24px" height="22px" viewBox="0 0 24 22" version="1.1" xmlns="http://www.w3.org/2000/svg" xmlns:xlink="http://www.w3.org/1999/xlink">
    <!-- Generator: Sketch 46.2 (44496) - http://www.bohemiancoding.com/sketch -->
    <title></title>
    <desc>Created with Sketch.</desc>
    <defs></defs>
    <g id="Page-1" stroke="none" stroke-width="1" fill="none" fill-rule="evenodd">
        <g id="Laptop_1280_Select-product" transform="translate(-24.000000, -209.000000)" fill="#9E9E9E">
            <g id="Group-66">
                <g id="Group-10" transform="translate(0.000000, 49.000000)">
                    <g id="Group-61" transform="translate(8.000000, 152.000000)">
                        <g id="Group-57" transform="translate(16.000000, 8.000000)">
                            <path d="M0,22 L11.8816568,0 L24,22 L0,22 Z M15.9289941,21.1576577 L22.6272189,21.1576577 L19.2662722,15.1126126 L15.9289941,21.1576577 Z M5.06508876,14.518018 L11.5266272,14.518018 L8.30769231,8.59684685 L5.06508876,14.518018 Z M11.1952663,15.3603604 L5.89349112,15.3603604 L8.5443787,20.3153153 L11.1952663,15.3603604 Z M9.34911243,8.69594595 L12,13.5518018 L14.6508876,8.69594595 L9.34911243,8.69594595 Z M12.4733728,14.518018 L18.9349112,14.518018 L15.6923077,8.59684685 L12.4733728,14.518018 Z M18.0118343,15.3603604 L12.6863905,15.3603604 L15.3372781,20.3153153 L18.0118343,15.3603604 Z M11.8816568,1.83333333 L8.66272189,7.72972973 L15.1242604,7.72972973 L11.8816568,1.83333333 Z M1.49112426,21.1576577 L7.95266272,21.1576577 L4.73372781,15.1126126 L1.49112426,21.1576577 Z M8.99408284,21.1576577 L14.887574,21.1576577 L11.8816568,15.7072072 L8.99408284,21.1576577 Z" id=""></path>
                        </g>
                    </g>
                </g>
            </g>
        </g>
    </g>
</svg>