<?xml version="1.0" encoding="UTF-8"?>
<svg width="24px" height="24px" viewBox="0 0 24 24" version="1.1" xmlns="http://www.w3.org/2000/svg" xmlns:xlink="http://www.w3.org/1999/xlink">
    <!-- Generator: Sketch 46.2 (44496) - http://www.bohemiancoding.com/sketch -->
    <title></title>
    <desc>Created with Sketch.</desc>
    <defs></defs>
    <g id="Page-1" stroke="none" stroke-width="1" fill="none" fill-rule="evenodd">
        <g id="Laptop_1280_Select-product" transform="translate(-24.000000, -161.000000)" fill="#9E9E9E">
            <g id="Group-66">
                <g id="Group-10" transform="translate(0.000000, 49.000000)">
                    <g id="Group-11" transform="translate(8.000000, 104.000000)">
                        <path d="M28,26.9561753 C27.0438199,26.9561753 26.1434305,26.7729102 25.2988048,26.4063745 C24.454179,26.0398388 23.7171346,25.5418358 23.0876494,24.9123506 C22.4581642,24.2828654 21.9601612,23.545821 21.5936255,22.7011952 C21.2270898,21.8565695 21.0438247,20.9561801 21.0438247,20 C21.0438247,19.0438199 21.2270898,18.1434305 21.5936255,17.2988048 C21.9601612,16.454179 22.4581642,15.7171346 23.0876494,15.0876494 C23.7171346,14.4581642 24.454179,13.9601612 25.2988048,13.5936255 C26.1434305,13.2270898 27.0438199,13.0438247 28,13.0438247 C28.9561801,13.0438247 29.8565695,13.2270898 30.7011952,13.5936255 C31.545821,13.9601612 32.2828654,14.4581642 32.9123506,15.0876494 C33.5418358,15.7171346 34.0398388,16.454179 34.4063745,17.2988048 C34.7729102,18.1434305 34.9561753,19.0438199 34.9561753,20 C34.9561753,20.9561801 34.7729102,21.8565695 34.4063745,22.7011952 C34.0398388,23.545821 33.5418358,24.2828654 32.9123506,24.9123506 C32.2828654,25.5418358 31.545821,26.0398388 30.7011952,26.4063745 C29.8565695,26.7729102 28.9561801,26.9561753 28,26.9561753 Z M28,14.2390438 C27.2191196,14.2390438 26.4820752,14.3864527 25.7888446,14.6812749 C25.0956141,14.9760971 24.4860584,15.3824675 23.9601594,15.9003984 C23.4342603,16.4183293 23.0159378,17.0278849 22.7051793,17.7290837 C22.3944208,18.4302824 22.2390438,19.1872469 22.2390438,20 C22.2390438,20.8127531 22.3944208,21.5697176 22.7051793,22.2709163 C23.0159378,22.9721151 23.4342603,23.5816707 23.9601594,24.0996016 C24.4860584,24.6175325 25.0956141,25.0239029 25.7888446,25.3187251 C26.4820752,25.6135473 27.2191196,25.7609562 28,25.7609562 C28.7808804,25.7609562 29.5219088,25.6135473 30.2231076,25.3187251 C30.9243063,25.0239029 31.533862,24.6175325 32.0517928,24.0996016 C32.5697237,23.5816707 32.9840622,22.9721151 33.2948207,22.2709163 C33.6055792,21.5697176 33.7609562,20.8127531 33.7609562,20 C33.7609562,19.1872469 33.6055792,18.4302824 33.2948207,17.7290837 C32.9840622,17.0278849 32.5697237,16.4183293 32.0517928,15.9003984 C31.533862,15.3824675 30.9243063,14.9760971 30.2231076,14.6812749 C29.5219088,14.3864527 28.7808804,14.2390438 28,14.2390438 Z M28,32 C26.3585575,32 24.8087722,31.6852621 23.3505976,31.0557769 C21.892423,30.4262917 20.6175353,29.5657425 19.5258964,28.4741036 C18.4342575,27.3824647 17.5737083,26.111561 16.9442231,24.6613546 C16.3147379,23.2111481 16,21.6573788 16,20 C16,18.3426212 16.3147379,16.7888519 16.9442231,15.3386454 C17.5737083,13.888439 18.4342575,12.6175353 19.5258964,11.5258964 C20.6175353,10.4342575 21.892423,9.57370833 23.3505976,8.94422311 C24.8087722,8.31473789 26.3585575,8 28,8 C29.6573788,8 31.2111481,8.31473789 32.6613546,8.94422311 C34.111561,9.57370833 35.3824647,10.4342575 36.4741036,11.5258964 C37.5657425,12.6175353 38.4262917,13.888439 39.0557769,15.3386454 C39.6852621,16.7888519 40,18.3426212 40,20 C40,21.6573788 39.6852621,23.2111481 39.0557769,24.6613546 C38.4262917,26.111561 37.5657425,27.3824647 36.4741036,28.4741036 C35.3824647,29.5657425 34.111561,30.4262917 32.6613546,31.0557769 C31.2111481,31.6852621 29.6573788,32 28,32 Z M28,9.19521912 C26.5019845,9.19521912 25.0956241,9.47808482 23.7808765,10.0438247 C22.4661289,10.6095646 21.322714,11.3784812 20.3505976,12.3505976 C19.3784812,13.322714 18.6095646,14.4661289 18.0438247,15.7808765 C17.4780848,17.0956241 17.1952191,18.5019845 17.1952191,20 C17.1952191,21.4980155 17.4780848,22.9043759 18.0438247,24.2191235 C18.6095646,25.5338711 19.3784812,26.677286 20.3505976,27.6494024 C21.322714,28.6215188 22.4661289,29.3904354 23.7808765,29.9561753 C25.0956241,30.5219152 26.5019845,30.8047809 28,30.8047809 C29.4980155,30.8047809 30.9043759,30.5219152 32.2191235,29.9561753 C33.5338711,29.3904354 34.677286,28.6215188 35.6494024,27.6494024 C36.6215188,26.677286 37.3904354,25.5338711 37.9561753,24.2191235 C38.5219152,22.9043759 38.8047809,21.4980155 38.8047809,20 C38.8047809,18.5019845 38.5219152,17.0956241 37.9561753,15.7808765 C37.3904354,14.4661289 36.6215188,13.322714 35.6494024,12.3505976 C34.677286,11.3784812 33.5338711,10.6095646 32.2191235,10.0438247 C30.9043759,9.47808482 29.4980155,9.19521912 28,9.19521912 Z" id=""></path>
                    </g>
                </g>
            </g>
        </g>
    </g>
</svg>