<?xml version="1.0" encoding="UTF-8"?>
<svg width="24px" height="24px" viewBox="0 0 24 24" version="1.1" xmlns="http://www.w3.org/2000/svg" xmlns:xlink="http://www.w3.org/1999/xlink">
    <!-- Generator: Sketch 46.2 (44496) - http://www.bohemiancoding.com/sketch -->
    <title></title>
    <desc>Created with Sketch.</desc>
    <defs></defs>
    <g id="Page-1" stroke="none" stroke-width="1" fill="none" fill-rule="evenodd">
        <g id="Laptop_1280_Select-product" transform="translate(-24.000000, -113.000000)" fill="#9E9E9E">
            <g id="Group-66">
                <g id="Group-10" transform="translate(0.000000, 49.000000)">
                    <g id="Group-64" transform="translate(8.000000, 56.000000)">
                        <g id="Group-63">
                            <path d="M28,25.8326693 L28,24.6613546 C28.6374534,24.6613546 29.239041,24.5378498 29.8047809,24.2908367 C30.3705208,24.0438235 30.8645397,23.7091655 31.2868526,23.2868526 C31.7091655,22.8645397 32.0438235,22.3705208 32.2908367,21.8047809 C32.5378498,21.239041 32.6613546,20.6374534 32.6613546,20 C32.6613546,19.3625466 32.5378498,18.760959 32.2908367,18.1952191 C32.0438235,17.6294792 31.7091655,17.1354603 31.2868526,16.7131474 C30.8645397,16.2908345 30.3705208,15.9561765 29.8047809,15.7091633 C29.239041,15.4621502 28.6374534,15.3386454 28,15.3386454 C27.3625466,15.3386454 26.760959,15.4621502 26.1952191,15.7091633 C25.6294792,15.9561765 25.1354603,16.2908345 24.7131474,16.7131474 C24.2908345,17.1354603 23.9561765,17.6294792 23.7091633,18.1952191 C23.4621502,18.760959 23.3386454,19.3625466 23.3386454,20 L22.1673307,20 C22.1673307,19.1872469 22.3187236,18.4262984 22.6215139,17.7171315 C22.9243043,17.0079646 23.3386428,16.3904409 23.8645418,15.8645418 C24.3904409,15.3386428 25.0079646,14.9243043 25.7171315,14.6215139 C26.4262984,14.3187236 27.1872469,14.1673307 28,14.1673307 C28.8127531,14.1673307 29.5737016,14.3187236 30.2828685,14.6215139 C30.9920354,14.9243043 31.6095591,15.3386428 32.1354582,15.8645418 C32.6613572,16.3904409 33.0756957,17.0079646 33.3784861,17.7171315 C33.6812764,18.4262984 33.8326693,19.1872469 33.8326693,20 C33.8326693,20.8127531 33.6812764,21.5737016 33.3784861,22.2828685 C33.0756957,22.9920354 32.6613572,23.6095591 32.1354582,24.1354582 C31.6095591,24.6613572 30.9920354,25.0756957 30.2828685,25.3784861 C29.5737016,25.6812764 28.8127531,25.8326693 28,25.8326693 Z M28,28.8685259 C26.8366476,28.8685259 25.7012008,28.6374525 24.5936255,28.1752988 C23.4860502,27.7131451 22.5259005,27.0438291 21.7131474,26.1673307 C20.884458,25.3545776 20.2470142,24.3944278 19.8007968,23.2868526 C19.3545794,22.1792773 19.1314741,21.0438305 19.1314741,19.8804781 C19.1314741,18.6533803 19.3665315,17.5019974 19.8366534,16.4262948 C20.3067753,15.3505922 20.9402351,14.4143466 21.7370518,13.6175299 C22.5338685,12.8207131 23.4701141,12.1912374 24.5458167,11.7290837 C25.6215193,11.26693 26.7729022,11.0358566 28,11.0358566 C29.1633524,11.0358566 30.2987992,11.2629459 31.4063745,11.7171315 C32.5139498,12.171317 33.4740995,12.836649 34.2868526,13.7131474 C35.115542,14.5259005 35.7529858,15.4860502 36.1992032,16.5936255 C36.6454206,17.7012008 36.8685259,18.8366476 36.8685259,20 L35.6972112,20 C35.6972112,18.9482019 35.501994,17.960164 35.1115538,17.0358566 C34.7211136,16.1115492 34.1753023,15.2749041 33.4741036,14.5258964 C32.7729049,13.7609524 31.9482119,13.1792849 31,12.7808765 C30.0517881,12.3824681 29.0517981,12.1832669 28,12.1832669 C26.9482019,12.1832669 25.95618,12.3864522 25.0239044,12.7928287 C24.0916288,13.1992052 23.2749039,13.7529845 22.5737052,14.4541833 C21.8725065,15.155382 21.3187271,15.9721069 20.9123506,16.9043825 C20.5059741,17.836658 20.3027888,18.82868 20.3027888,19.8804781 C20.3027888,20.9322762 20.498006,21.9203141 20.8884462,22.8446215 C21.2788864,23.7689289 21.8246977,24.6055739 22.5258964,25.3545817 C23.2270951,26.1195257 24.0517881,26.7011932 25,27.0996016 C25.9482119,27.49801 26.9482019,27.6972112 28,27.6972112 L28,28.8685259 Z M31.3705179,28.2709163 L30.9163347,27.0996016 C31.8406421,26.7011932 32.6852551,26.1354618 33.4501992,25.4023904 C34.2151433,24.669319 34.7649386,23.8406421 35.0996016,22.9163347 L36.1513944,23.3705179 C35.7529861,24.4860614 35.1354624,25.4661312 34.2988048,26.310757 C33.4621472,27.1553827 32.4860614,27.8087626 31.3705179,28.2709163 Z M28,32 C26.3426212,32 24.7848678,31.6852621 23.3266932,31.0557769 C21.8685186,30.4262917 20.597615,29.5697265 19.5139442,28.4860558 C18.4302735,27.402385 17.5737083,26.1314814 16.9442231,24.6733068 C16.3147379,23.2151322 16,21.6573788 16,20 L17.1713147,20 C17.1713147,21.5139518 17.4541804,22.9322643 18.0199203,24.2549801 C18.5856602,25.5776959 19.3625449,26.7250947 20.3505976,27.6972112 C21.3386504,28.6693276 22.4900333,29.4342602 23.8047809,29.9920319 C25.1195285,30.5498036 26.5179209,30.8286853 28,30.8286853 C29.5139518,30.8286853 30.9322643,30.5458196 32.2549801,29.9800797 C33.5776959,29.4143398 34.7250947,28.6374551 35.6972112,27.6494024 C36.6693276,26.6613496 37.4342602,25.5099667 37.9920319,24.1952191 C38.5498036,22.8804715 38.8286853,21.4820791 38.8286853,20 C38.8286853,18.4860482 38.5458196,17.0677357 37.9800797,15.7450199 C37.4143398,14.4223041 36.6374551,13.2749053 35.6494024,12.3027888 C34.6613496,11.3306724 33.5099667,10.5657398 32.1952191,10.0079681 C30.8804715,9.45019641 29.4820791,9.17131474 28,9.17131474 C27.2669286,9.17131474 26.5498043,9.23904315 25.8486056,9.37450199 C25.1474069,9.50996084 24.4661388,9.71314606 23.8047809,9.98406375 C23.143423,10.2549814 22.5179312,10.5856554 21.9282869,10.9760956 C21.3386425,11.3665358 20.7968152,11.8087625 20.3027888,12.3027888 L19.4900398,11.4900398 C20.0796842,10.9003955 20.705176,10.3904404 21.3665339,9.96015936 C22.0278918,9.52987833 22.7171279,9.16733215 23.4342629,8.87250996 C24.151398,8.57768777 24.8964105,8.35856645 25.6693227,8.21513944 C26.4422349,8.07171243 27.2191196,8 28,8 C29.6573788,8 31.2151322,8.31473789 32.6733068,8.94422311 C34.1314814,9.57370833 35.402385,10.4302735 36.4860558,11.5139442 C37.5697265,12.597615 38.4262917,13.8685186 39.0557769,15.3266932 C39.6852621,16.7848678 40,18.3426212 40,20 C40,21.6573788 39.6852621,23.2151322 39.0557769,24.6733068 C38.4262917,26.1314814 37.5697265,27.402385 36.4860558,28.4860558 C35.402385,29.5697265 34.1314814,30.4262917 32.6733068,31.0557769 C31.2151322,31.6852621 29.6573788,32 28,32 Z" id=""></path>
                        </g>
                    </g>
                </g>
            </g>
        </g>
    </g>
</svg>