<?xml version="1.0" encoding="UTF-8"?>
<svg width="13px" height="16px" viewBox="0 0 13 16" version="1.1" xmlns="http://www.w3.org/2000/svg" xmlns:xlink="http://www.w3.org/1999/xlink">
    <!-- Generator: Sketch 50.2 (55047) - http://www.bohemiancoding.com/sketch -->
    <title>Query_white</title>
    <desc>Created with Sketch.</desc>
    <defs></defs>
    <g id="Page-1" stroke="none" stroke-width="1" fill="none" fill-rule="evenodd">
        <path d="M13,14.072 L13,4.8 L8.125,0 L1.625,0 C0.73125,0 0.008125,0.72 0.008125,1.6 L0,14.4 C0,15.28 0.723125,16 1.616875,16 L11.375,16 C11.740625,16 12.065625,15.88 12.341875,15.68 L8.7425,12.136 C8.0925,12.552 7.32875,12.8 6.5,12.8 C4.2575,12.8 2.4375,11.008 2.4375,8.8 C2.4375,6.592 4.2575,4.8 6.5,4.8 C8.7425,4.8 10.5625,6.592 10.5625,8.8 C10.5625,9.616 10.310625,10.368 9.888125,11 L13,14.072 Z M4.0625,8.8 C4.0625,10.128 5.15125,11.2 6.5,11.2 C7.84875,11.2 8.9375,10.128 8.9375,8.8 C8.9375,7.472 7.84875,6.4 6.5,6.4 C5.15125,6.4 4.0625,7.472 4.0625,8.8 Z" id="Query_white" fill="#FFFFFF" fill-rule="nonzero"></path>
    </g>
</svg>