<?xml version="1.0" encoding="UTF-8"?>
<svg width="16px" height="17px" viewBox="0 0 16 17" version="1.1" xmlns="http://www.w3.org/2000/svg" xmlns:xlink="http://www.w3.org/1999/xlink">
    <!-- Generator: Sketch 47.1 (45422) - http://www.bohemiancoding.com/sketch -->
    <title>radio_button_off_24px</title>
    <desc>Created with Sketch.</desc>
    <defs></defs>
    <g id="Page-1" stroke="none" stroke-width="1" fill="none" fill-rule="evenodd">
        <g id="03_Req.Attendance_Levels-(New)_3" transform="translate(-966.000000, -585.000000)">
            <g id="Group-8" transform="translate(329.000000, 226.000000)">
                <g id="Group-19" transform="translate(637.000000, 230.000000)">
                    <g id="Group-Copy" transform="translate(0.000000, 120.535714)">
                        <g id="Group-9" transform="translate(0.000000, -0.000000)">
                            <g id="radio_button_off_24px" transform="translate(0.000000, 9.040179)">
                                <path d="M8,0 C3.584,0 0,3.6 0,8.03571429 C0,12.4714286 3.584,16.0714286 8,16.0714286 C12.416,16.0714286 16,12.4714286 16,8.03571429 C16,3.6 12.416,0 8,0 Z M8,14.4642857 C4.464,14.4642857 1.6,11.5875 1.6,8.03571429 C1.6,4.48392857 4.464,1.60714286 8,1.60714286 C11.536,1.60714286 14.4,4.48392857 14.4,8.03571429 C14.4,11.5875 11.536,14.4642857 8,14.4642857 Z" id="Shape" fill="#E2ECEF" fill-rule="nonzero"></path>
                                <path d="M8,14.4642857 C4.464,14.4642857 1.6,11.5875 1.6,8.03571429 C1.6,4.48392857 4.464,1.60714286 8,1.60714286 C11.536,1.60714286 14.4,4.48392857 14.4,8.03571429 C14.4,11.5875 11.536,14.4642857 8,14.4642857 Z" id="Path" fill="#F2F6F7"></path>
                            </g>
                        </g>
                    </g>
                </g>
            </g>
        </g>
    </g>
</svg>