<?xml version="1.0" encoding="UTF-8"?>
<svg width="16px" height="16px" viewBox="0 0 16 16" version="1.1" xmlns="http://www.w3.org/2000/svg" xmlns:xlink="http://www.w3.org/1999/xlink">
    <!-- Generator: Sketch 46.2 (44496) - http://www.bohemiancoding.com/sketch -->
    <title>radio_button_off_disabled</title>
    <desc>Created with Sketch.</desc>
    <defs></defs>
    <g id="Page-1" stroke="none" stroke-width="1" fill="none" fill-rule="evenodd">
        <g id="05" transform="translate(-589.000000, -1119.000000)">
            <g id="Group-12-Copy-10" transform="translate(587.000000, 1048.000000)">
                <g id="Group" transform="translate(0.000000, 34.000000)">
                    <g id="Group-10" transform="translate(2.000000, 28.000000)">
                        <g id="radio_button_off_disabled" transform="translate(0.000000, 9.000000)">
                            <path d="M8,0 C3.584,0 0,3.584 0,8 C0,12.416 3.584,16 8,16 C12.416,16 16,12.416 16,8 C16,3.584 12.416,0 8,0 Z M8,14.4 C4.464,14.4 1.6,11.536 1.6,8 C1.6,4.464 4.464,1.6 8,1.6 C11.536,1.6 14.4,4.464 14.4,8 C14.4,11.536 11.536,14.4 8,14.4 Z" id="Shape" fill="#C1C1C1" fill-rule="nonzero"></path>
                            <path d="M8,14.4 C4.464,14.4 1.6,11.536 1.6,8 C1.6,4.464 4.464,1.6 8,1.6 C11.536,1.6 14.4,4.464 14.4,8 C14.4,11.536 11.536,14.4 8,14.4 Z" id="Path" fill="#EEEEEE"></path>
                        </g>
                    </g>
                </g>
            </g>
        </g>
    </g>
</svg>