<?xml version="1.0" encoding="UTF-8"?>
<svg width="20px" height="20px" viewBox="0 0 20 20" version="1.1" xmlns="http://www.w3.org/2000/svg" xmlns:xlink="http://www.w3.org/1999/xlink">
    <!-- Generator: Sketch 48.2 (47327) - http://www.bohemiancoding.com/sketch -->
    <title>Group 4</title>
    <desc>Created with Sketch.</desc>
    <defs></defs>
    <g id="06" stroke="none" stroke-width="1" fill="none" fill-rule="evenodd" transform="translate(-587.000000, -1809.000000)">
        <g id="Group-Copy-7" transform="translate(587.000000, 1774.000000)">
            <g id="Group-10" transform="translate(2.000000, 29.000000)">
                <g id="Group-4" transform="translate(0.000000, 8.000000)">
                    <g id="radio_button_checked_edit">
                        <path d="M8,4 C5.792,4 4,5.792 4,8 C4,10.208 5.792,12 8,12 C10.208,12 12,10.208 12,8 C12,5.792 10.208,4 8,4 Z M8,0 C3.584,0 0,3.584 0,8 C0,12.416 3.584,16 8,16 C12.416,16 16,12.416 16,8 C16,3.584 12.416,0 8,0 Z M8,14.4 C4.464,14.4 1.6,11.536 1.6,8 C1.6,4.464 4.464,1.6 8,1.6 C11.536,1.6 14.4,4.464 14.4,8 C14.4,11.536 11.536,14.4 8,14.4 Z" id="Shape" fill="#00778B" fill-rule="nonzero"></path>
                        <path d="M8,14.4 C4.464,14.4 1.6,11.536 1.6,8 C1.6,4.464 4.464,1.6 8,1.6 C11.536,1.6 14.4,4.464 14.4,8 C14.4,11.536 11.536,14.4 8,14.4 Z" id="Path" fill="#FFFFFF"></path>
                        <path d="M8,4 C5.792,4 4,5.792 4,8 C4,10.208 5.792,12 8,12 C10.208,12 12,10.208 12,8 C12,5.792 10.208,4 8,4 Z" id="Path" fill="#00778B"></path>
                    </g>
                    <path d="M8,-1 C12.9682847,-1 17,3.03171525 17,8 C17,12.9682847 12.9682847,17 8,17 C3.03171525,17 -1,12.9682847 -1,8 C-1,3.03171525 3.03171525,-1 8,-1 Z" id="Path" stroke="#41C2D7" stroke-width="2"></path>
                </g>
            </g>
        </g>
    </g>
</svg>