<?xml version="1.0" encoding="UTF-8"?>
<svg width="16px" height="17px" viewBox="0 0 16 17" version="1.1" xmlns="http://www.w3.org/2000/svg" xmlns:xlink="http://www.w3.org/1999/xlink">
    <!-- Generator: Sketch 45.1 (43504) - http://www.bohemiancoding.com/sketch -->
    <title>reference@1x</title>
    <desc>Created with Sketch.</desc>
    <defs>
        <path d="M13,11 L13,13 L13,13 C13,14.1045695 12.1045695,15 11,15 L2,15 L2,15 C0.8954305,15 0,14.1045695 0,13 L0,2 L0,2 C0,0.8954305 0.8954305,0 2,0 L2,0 L11,0 L11,0 C12.1045695,0 13,0.8954305 13,2 L13,6" id="path-1"></path>
    </defs>
    <g id="Page-1" stroke="none" stroke-width="1" fill="none" fill-rule="evenodd">
        <g id="reference">
            <g id="Rectangle-5-Copy-33">
                <use fill="#CCF3FB" fill-rule="evenodd" xlink:href="#path-1"></use>
                <path stroke="#00778B" stroke-width="1" d="M12.5,13 L12.5,2 C12.5,1.17157288 11.8284271,0.5 11,0.5 L2,0.5 C1.17157288,0.5 0.5,1.17157288 0.5,2 L0.5,13 C0.5,13.8284271 1.17157288,14.5 2,14.5 L11,14.5 C11.8284271,14.5 12.5,13.8284271 12.5,13 Z"></path>
            </g>
            <path d="M13.2462007,2.5 L3.50834902,15.1592072 C3.58785068,15.9127869 4.22534986,16.5 5,16.5 L14,16.5 C14.8284271,16.5 15.5,15.8284271 15.5,15 L15.5,4 C15.5,3.17157288 14.8284271,2.5 14,2.5 L13.2462007,2.5 Z" id="Rectangle-5-Copy-32" stroke="#00778B"></path>
            <path d="M3,3 L6,3" id="Path-8-Copy-11" stroke="#00778B"></path>
            <path d="M3,5 L6,5" id="Path-8-Copy-10" stroke="#00778B"></path>
            <path d="M3,8 L6,8" id="Path-8-Copy-9" stroke="#00778B"></path>
            <polyline id="Path-13-Copy" stroke="#00778B" points="8 11 8 9 14 9"></polyline>
            <polyline id="Path-14-Copy" stroke="#00778B" points="13 8 14 9.5 13 11"></polyline>
        </g>
    </g>
</svg>