<?xml version="1.0" encoding="UTF-8"?>
<svg width="18px" height="15px" viewBox="0 0 18 15" version="1.1" xmlns="http://www.w3.org/2000/svg" xmlns:xlink="http://www.w3.org/1999/xlink">
    <!-- Generator: Sketch 46.2 (44496) - http://www.bohemiancoding.com/sketch -->
    <title>settings_backup_restore_24px</title>
    <desc>Created with Sketch.</desc>
    <defs></defs>
    <g id="Page-1" stroke="none" stroke-width="1" fill="none" fill-rule="evenodd">
        <g id="Customize-Columns_1-Release" transform="translate(-1170.000000, -1080.000000)" fill-rule="nonzero" fill="#00778B">
            <g id="Group-38" transform="translate(991.000000, 210.000000)">
                <g id="Group-53" transform="translate(27.000000, 861.000000)">
                    <g id="Group-18-Copy">
                        <g id="Group-3">
                            <g id="Group-4">
                                <g id="Group-2">
                                    <g id="Group-5">
                                        <g id="settings_backup_restore_24px" transform="translate(152.000000, 9.000000)">
                                            <path d="M12,7.5 C12,6.58333333 11.2285714,5.83333333 10.2857143,5.83333333 C9.34285714,5.83333333 8.57142857,6.58333333 8.57142857,7.5 C8.57142857,8.41666667 9.34285714,9.16666667 10.2857143,9.16666667 C11.2285714,9.16666667 12,8.41666667 12,7.5 Z M10.2857143,0 C6.02571429,0 2.57142857,3.35833333 2.57142857,7.5 L0,7.5 L3.42857143,10.8333333 L6.85714286,7.5 L4.28571429,7.5 C4.28571429,4.275 6.96857143,1.66666667 10.2857143,1.66666667 C13.6028571,1.66666667 16.2857143,4.275 16.2857143,7.5 C16.2857143,10.725 13.6028571,13.3333333 10.2857143,13.3333333 C8.99142857,13.3333333 7.79142857,12.925 6.80571429,12.25 L5.58857143,13.45 C6.89142857,14.4166667 8.52,15 10.2857143,15 C14.5457143,15 18,11.6416667 18,7.5 C18,3.35833333 14.5457143,0 10.2857143,0 Z" id="Shape"></path>
                                        </g>
                                    </g>
                                </g>
                            </g>
                        </g>
                    </g>
                </g>
            </g>
        </g>
    </g>
</svg>