<?xml version="1.0" encoding="UTF-8"?>
<svg width="14px" height="16px" viewBox="0 0 14 16" version="1.1" xmlns="http://www.w3.org/2000/svg" xmlns:xlink="http://www.w3.org/1999/xlink">
    <!-- Generator: Sketch 45.1 (43504) - http://www.bohemiancoding.com/sketch -->
    <title>revenue@1x</title>
    <desc>Created with Sketch.</desc>
    <defs>
        <path d="M2,6 L5.26022764,6 L5.26022764,6 C5.89258499,6 6.48769174,6.29905682 6.86506026,6.80647067 L8,8.33252308 L12,8.33252308 L12,8.33252308 C13.1045695,8.33252308 14,9.22795358 14,10.3325231 L14,14 L14,14 C14,15.1045695 13.1045695,16 12,16 L2,16 L2,16 C0.8954305,16 2.79980601e-15,15.1045695 2.66453526e-15,14 L0,8 L-2.22044605e-16,8 C-3.57315355e-16,6.8954305 0.8954305,6 2,6 Z" id="path-1"></path>
    </defs>
    <g id="Page-1" stroke="none" stroke-width="1" fill="none" fill-rule="evenodd">
        <g id="revenue">
            <rect id="Rectangle-5-Copy-36" stroke="#00778B" x="1.5" y="0.5" width="11" height="13" rx="2"></rect>
            <g id="Rectangle-5-Copy-35">
                <use fill="#CCF3FB" fill-rule="evenodd" xlink:href="#path-1"></use>
                <path stroke="#00778B" stroke-width="1" d="M2,6.5 C1.17157288,6.5 0.5,7.17157288 0.5,8 L0.5,14 C0.5,14.8284271 1.17157288,15.5 2,15.5 L12,15.5 C12.8284271,15.5 13.5,14.8284271 13.5,14 L13.5,10.3325231 C13.5,9.50409595 12.8284271,8.83252308 12,8.83252308 L7.74873683,8.83252308 L6.46385211,7.104853 C6.18082572,6.72429261 5.73449566,6.5 5.26022764,6.5 L2,6.5 Z"></path>
            </g>
            <text id="$-copy" font-family="roboto" font-size="6" font-weight="700" letter-spacing="0.128571421" fill="#00778B">
                <tspan x="3" y="13">$</tspan>
            </text>
        </g>
    </g>
</svg>