<?xml version="1.0" encoding="UTF-8"?>
<svg width="14px" height="14px" viewBox="0 0 14 14" version="1.1" xmlns="http://www.w3.org/2000/svg" xmlns:xlink="http://www.w3.org/1999/xlink">
    <!-- Generator: Sketch 46.1 (44463) - http://www.bohemiancoding.com/sketch -->
    <title>search</title>
    <desc>Created with Sketch.</desc>
    <defs></defs>
    <g id="Page-1" stroke="none" stroke-width="1" fill="none" fill-rule="evenodd">
        <g id="Select-scenario" transform="translate(-1044.000000, -466.000000)" fill="#979797">
            <g id="Group-12" transform="translate(1044.000000, 463.000000)">
                <path d="M4.88671875,11.2617188 C5.82422344,11.2617188 6.62109047,10.933597 7.27734375,10.2773438 C7.93359703,9.62109047 8.26171875,8.82422344 8.26171875,7.88671875 C8.26171875,6.94921406 7.93359703,6.15234703 7.27734375,5.49609375 C6.62109047,4.83984047 5.82422344,4.51171875 4.88671875,4.51171875 C3.94921406,4.51171875 3.15234703,4.83984047 2.49609375,5.49609375 C1.83984047,6.15234703 1.51171875,6.94921406 1.51171875,7.88671875 C1.51171875,8.82422344 1.83984047,9.62109047 2.49609375,10.2773438 C3.15234703,10.933597 3.94921406,11.2617188 4.88671875,11.2617188 Z M9.38671875,11.2617188 L13.1132812,14.9882812 L11.9882812,16.1132812 L8.26171875,12.3867188 L8.26171875,11.7890625 L8.05078125,11.578125 C7.1601518,12.3515664 6.10547484,12.7382812 4.88671875,12.7382812 C3.52733695,12.7382812 2.37305162,12.2695359 1.42382812,11.3320312 C0.474604629,10.3945266 0,9.24610055 0,7.88671875 C0,6.52733695 0.474604629,5.37305162 1.42382812,4.42382812 C2.37305162,3.47460463 3.52733695,3 4.88671875,3 C6.24610055,3 7.39452656,3.47460463 8.33203125,4.42382812 C9.26953594,5.37305162 9.73828125,6.52733695 9.73828125,7.88671875 C9.73828125,9.10547484 9.35156637,10.1601518 8.578125,11.0507812 L8.7890625,11.2617188 L9.38671875,11.2617188 Z" id="search"></path>
            </g>
        </g>
    </g>
</svg>