<?xml version="1.0" encoding="UTF-8"?>
<svg width="32px" height="32px" viewBox="0 0 32 32" version="1.1" xmlns="http://www.w3.org/2000/svg" xmlns:xlink="http://www.w3.org/1999/xlink">
    <!-- Generator: Sketch 48.2 (47327) - http://www.bohemiancoding.com/sketch -->
    <title>Search_input</title>
    <desc>Created with Sketch.</desc>
    <defs></defs>
    <g id="Page-1" stroke="none" stroke-width="1" fill="none" fill-rule="evenodd">
        <g id="Search_input">
            <path d="M0,0 L28,0 C30.209139,-4.05812251e-16 32,1.790861 32,4 L32,28 C32,30.209139 30.209139,32 28,32 L0,32 L0,0 Z" id="Rectangle-9-Copy" fill="#F2F6F7"></path>
            <rect id="Rectangle-9-Copy" fill="#E2ECEF" x="0" y="0" width="1" height="32"></rect>
            <path d="M14.8867188,18.2617188 C15.8242234,18.2617188 16.6210905,17.933597 17.2773438,17.2773438 C17.933597,16.6210905 18.2617188,15.8242234 18.2617188,14.8867188 C18.2617188,13.9492141 17.933597,13.152347 17.2773438,12.4960938 C16.6210905,11.8398405 15.8242234,11.5117188 14.8867188,11.5117188 C13.9492141,11.5117188 13.152347,11.8398405 12.4960938,12.4960938 C11.8398405,13.152347 11.5117188,13.9492141 11.5117188,14.8867188 C11.5117188,15.8242234 11.8398405,16.6210905 12.4960938,17.2773438 C13.152347,17.933597 13.9492141,18.2617188 14.8867188,18.2617188 Z M19.3867188,18.2617188 L23.1132812,21.9882812 L21.9882812,23.1132812 L18.2617188,19.3867188 L18.2617188,18.7890625 L18.0507812,18.578125 C17.1601518,19.3515664 16.1054748,19.7382812 14.8867188,19.7382812 C13.527337,19.7382812 12.3730516,19.2695359 11.4238281,18.3320312 C10.4746046,17.3945266 10,16.2461005 10,14.8867188 C10,13.527337 10.4746046,12.3730516 11.4238281,11.4238281 C12.3730516,10.4746046 13.527337,10 14.8867188,10 C16.2461005,10 17.3945266,10.4746046 18.3320312,11.4238281 C19.2695359,12.3730516 19.7382812,13.527337 19.7382812,14.8867188 C19.7382812,16.1054748 19.3515664,17.1601518 18.578125,18.0507812 L18.7890625,18.2617188 L19.3867188,18.2617188 Z" id="search" fill="#00778B"></path>
        </g>
    </g>
</svg>