<?xml version="1.0" encoding="utf-8"?>
<!-- Generator: Adobe Illustrator 22.0.1, SVG Export Plug-In . SVG Version: 6.00 Build 0)  -->
<svg version="1.1" id="Layer_1" xmlns="http://www.w3.org/2000/svg" xmlns:xlink="http://www.w3.org/1999/xlink" x="0px" y="0px"
	 viewBox="0 0 13.1 13.1" style="enable-background:new 0 0 13.1 13.1;" xml:space="preserve">
<style type="text/css">
	.st0{fill:#00778B;}
</style>
<title>search</title>
<desc>Created with Sketch.</desc>
<g id="_x30_3_x5F_Req.Attendance_x5F_Levels_x5F_Edit" transform="translate(-620.000000, -604.000000)">
	<g id="Group-8" transform="translate(329.000000, 226.000000)">
		<g id="Group-22" transform="translate(26.000000, 178.000000)">
			<g id="Group-19_1_">
				<g id="Group-21_1_">
					<g id="Group-19">
						<g id="search-copy" transform="translate(24.000000, 52.000000)">
							<g transform="translate(26.000000, 113.000000)">
								<g id="button_1_" transform="translate(0.000000, 24.000000)">
									<g id="Group-38-Copy-10" transform="translate(148.000000, 0.000000)">
										<g id="search_1_">
											<g id="button">
												<g id="Group-34">
													<g id="Group-36">
														<g id="Group-21" transform="translate(57.000000, 0.000000)">
															<path id="search" class="st0" d="M14.9,19.3c0.9,0,1.7-0.3,2.4-1s1-1.5,1-2.4c0-0.9-0.3-1.7-1-2.4s-1.5-1-2.4-1
																s-1.7,0.3-2.4,1s-1,1.5-1,2.4c0,0.9,0.3,1.7,1,2.4S13.9,19.3,14.9,19.3z M19.4,19.3l3.7,3.7L22,24.1l-3.7-3.7v-0.6
																l-0.2-0.2c-0.9,0.8-1.9,1.2-3.2,1.2c-1.4,0-2.5-0.5-3.5-1.4S10,17.2,10,15.9s0.5-2.5,1.4-3.5s2.1-1.4,3.5-1.4
																s2.5,0.5,3.4,1.4s1.4,2.1,1.4,3.5c0,1.2-0.4,2.3-1.2,3.2l0.2,0.2H19.4z"/>
														</g>
													</g>
												</g>
											</g>
										</g>
									</g>
								</g>
							</g>
						</g>
					</g>
				</g>
			</g>
		</g>
	</g>
</g>
</svg>
