<?xml version="1.0" encoding="UTF-8"?>
<svg width="16px" height="16px" viewBox="0 0 16 16" version="1.1" xmlns="http://www.w3.org/2000/svg" xmlns:xlink="http://www.w3.org/1999/xlink">
    <!-- Generator: Sketch 45.2 (43514) - http://www.bohemiancoding.com/sketch -->
    <title>update_24px</title>
    <desc>Created with Sketch.</desc>
    <defs></defs>
    <g id="Page-1" stroke="none" stroke-width="1" fill="none" fill-rule="evenodd" opacity="0.5">
        <g id="Dashboard_collapsed-side-navigation" transform="translate(-28.000000, -218.000000)" fill-rule="nonzero" fill="#00778B">
            <g id="Group-19" transform="translate(26.000000, 176.000000)">
                <g id="Group-12">
                    <g id="update_24px" transform="translate(2.000000, 42.000000)">
                        <path d="M16,6.32888889 L9.97333333,6.32888889 L12.4088889,3.82222222 C9.98222222,1.42222222 6.05333333,1.33333333 3.62666667,3.73333333 C1.2,6.14222222 1.2,10.0266667 3.62666667,12.4355556 C6.05333333,14.8444444 9.98222222,14.8444444 12.4088889,12.4355556 C13.6177778,11.2444444 14.2222222,9.84888889 14.2222222,8.08888889 L16,8.08888889 C16,9.84888889 15.2177778,12.1333333 13.6533333,13.68 C10.5333333,16.7733333 5.46666667,16.7733333 2.34666667,13.68 C-0.764444444,10.5955556 -0.791111111,5.58222222 2.32888889,2.49777778 C5.44888889,-0.586666667 10.4533333,-0.586666667 13.5733333,2.49777778 L16,0 L16,6.32888889 Z M8.44444444,4.44444444 L8.44444444,8.22222222 L11.5555556,10.0711111 L10.9155556,11.1466667 L7.11111111,8.88888889 L7.11111111,4.44444444 L8.44444444,4.44444444 Z" id="Shape"></path>
                    </g>
                </g>
            </g>
        </g>
    </g>
</svg>