<?xml version="1.0" encoding="UTF-8"?>
<svg width="20px" height="11px" viewBox="0 0 20 11" version="1.1" xmlns="http://www.w3.org/2000/svg" xmlns:xlink="http://www.w3.org/1999/xlink">
    <!-- Generator: Sketch 45.2 (43514) - http://www.bohemiancoding.com/sketch -->
    <title>timeline_24px</title>
    <desc>Created with Sketch.</desc>
    <defs></defs>
    <g id="Page-1" stroke="none" stroke-width="1" fill="none" fill-rule="evenodd" opacity="0.5">
        <g id="Dashboard_collapsed-side-navigation" transform="translate(-26.000000, -346.000000)" fill-rule="nonzero" fill="#00778B">
            <g id="Group-19" transform="translate(26.000000, 176.000000)">
                <g id="Group-12">
                    <g id="timeline_24px" transform="translate(0.000000, 170.000000)">
                        <path d="M20,1.83333333 C20,2.84166667 19.1818182,3.66666667 18.1818182,3.66666667 C18.0181818,3.66666667 17.8636364,3.64833333 17.7181818,3.6025 L14.4818182,6.85666667 C14.5272727,7.00333333 14.5454545,7.16833333 14.5454545,7.33333333 C14.5454545,8.34166667 13.7272727,9.16666667 12.7272727,9.16666667 C11.7272727,9.16666667 10.9090909,8.34166667 10.9090909,7.33333333 C10.9090909,7.16833333 10.9272727,7.00333333 10.9727273,6.85666667 L8.65454545,4.51916667 C8.50909091,4.565 8.34545455,4.58333333 8.18181818,4.58333333 C8.01818182,4.58333333 7.85454545,4.565 7.70909091,4.51916667 L3.57272727,8.69916667 C3.61818182,8.84583333 3.63636364,9.00166667 3.63636364,9.16666667 C3.63636364,10.175 2.81818182,11 1.81818182,11 C0.818181818,11 8.8817842e-16,10.175 8.8817842e-16,9.16666667 C8.8817842e-16,8.15833333 0.818181818,7.33333333 1.81818182,7.33333333 C1.98181818,7.33333333 2.13636364,7.35166667 2.28181818,7.3975 L6.42727273,3.22666667 C6.38181818,3.08 6.36363636,2.915 6.36363636,2.75 C6.36363636,1.74166667 7.18181818,0.916666667 8.18181818,0.916666667 C9.18181818,0.916666667 10,1.74166667 10,2.75 C10,2.915 9.98181818,3.08 9.93636364,3.22666667 L12.2545455,5.56416667 C12.4,5.51833333 12.5636364,5.5 12.7272727,5.5 C12.8909091,5.5 13.0545455,5.51833333 13.2,5.56416667 L16.4272727,2.30083333 C16.3818182,2.15416667 16.3636364,1.99833333 16.3636364,1.83333333 C16.3636364,0.825 17.1818182,0 18.1818182,0 C19.1818182,0 20,0.825 20,1.83333333 Z" id="Shape"></path>
                    </g>
                </g>
            </g>
        </g>
    </g>
</svg>