<?xml version="1.0" encoding="UTF-8"?>
<svg width="10px" height="16px" viewBox="0 0 10 16" version="1.1" xmlns="http://www.w3.org/2000/svg" xmlns:xlink="http://www.w3.org/1999/xlink">
    <!-- Generator: Sketch 45.2 (43514) - http://www.bohemiancoding.com/sketch -->
    <title>attach_money_24px</title>
    <desc>Created with Sketch.</desc>
    <defs></defs>
    <g id="Page-1" stroke="none" stroke-width="1" fill="none" fill-rule="evenodd" opacity="0.5">
        <g id="Dashboard_collapsed-side-navigation" transform="translate(-31.000000, -302.000000)" fill-rule="nonzero" fill="#00778B">
            <g id="Group-19" transform="translate(26.000000, 176.000000)">
                <g id="Group-12">
                    <g id="attach_money_24px" transform="translate(5.000000, 126.000000)">
                        <path d="M5.27272727,7.02222222 C3.20909091,6.49777778 2.54545455,5.95555556 2.54545455,5.11111111 C2.54545455,4.14222222 3.46363636,3.46666667 5,3.46666667 C6.61818182,3.46666667 7.21818182,4.22222222 7.27272727,5.33333333 L9.28181818,5.33333333 C9.21818182,3.80444444 8.26363636,2.4 6.36363636,1.94666667 L6.36363636,0 L3.63636364,0 L3.63636364,1.92 C1.87272727,2.29333333 0.454545455,3.41333333 0.454545455,5.12888889 C0.454545455,7.18222222 2.19090909,8.20444444 4.72727273,8.8 C7,9.33333333 7.45454545,10.1155556 7.45454545,10.9422222 C7.45454545,11.5555556 7.00909091,12.5333333 5,12.5333333 C3.12727273,12.5333333 2.39090909,11.7155556 2.29090909,10.6666667 L0.290909091,10.6666667 C0.4,12.6133333 1.89090909,13.7066667 3.63636364,14.0711111 L3.63636364,16 L6.36363636,16 L6.36363636,14.0888889 C8.13636364,13.76 9.54545455,12.7555556 9.54545455,10.9333333 C9.54545455,8.40888889 7.33636364,7.54666667 5.27272727,7.02222222 Z" id="Shape"></path>
                    </g>
                </g>
            </g>
        </g>
    </g>
</svg>