<?xml version="1.0" encoding="utf-8"?>
<!-- Generator: Adobe Illustrator 22.0.1, SVG Export Plug-In . SVG Version: 6.00 Build 0)  -->
<svg version="1.1" id="Layer_1" xmlns="http://www.w3.org/2000/svg" xmlns:xlink="http://www.w3.org/1999/xlink" x="0px" y="0px"
	 viewBox="0 0 13 16" style="enable-background:new 0 0 13 16;" xml:space="preserve">
<style type="text/css">
	.st0{fill:#00778B;}
</style>
<title>calculation follow up</title>
<desc>Created with Sketch.</desc>
<g id="Page-1">
	<g id="_x30_5_x5F_Calculation-Follow---up_x5F_4" transform="translate(-1234.000000, -193.000000)">
		<g id="Group-57" transform="translate(1075.000000, 89.000000)">
			<g id="Group-58" transform="translate(157.000000, 9.000000)">
				<g id="calculation-follow-up" transform="translate(2.000000, 95.000000)">
					<path id="Shape" class="st0" d="M12.8,0.2C12.7,0.1,12.6,0,12.4,0L0.6,0C0.4,0,0.3,0.1,0.2,0.2S0,0.4,0,0.6v14.8
						c0,0.2,0.1,0.3,0.2,0.4S0.4,16,0.6,16h11.8c0.2,0,0.3-0.1,0.4-0.2c0.1-0.1,0.2-0.3,0.2-0.4V0.6C13,0.4,12.9,0.3,12.8,0.2z
						 M3.8,14.5H2.3V13h1.5V14.5z M3.8,12.2H2.3v-1.5h1.5V12.2z M3.8,9.9H2.3V8.4h1.5V9.9z M3.8,7.6H2.3V6.1h1.5V7.6z M6.1,14.5H4.6
						V13h1.5V14.5z M6.1,12.2H4.6v-1.5h1.5V12.2z M6.1,9.9H4.6V8.4h1.5V9.9z M6.1,7.6H4.6V6.1h1.5V7.6z M8.4,14.5H6.9V13h1.5V14.5z
						 M8.4,12.2H6.9v-1.5h1.5V12.2z M8.4,9.9H6.9V8.4h1.5V9.9z M8.4,7.6H6.9V6.1h1.5V7.6z M10.7,14.5H9.2v-3.8h1.5V14.5z M10.7,9.9
						H9.2V8.4h1.5V9.9z M10.7,7.6H9.2V6.1h1.5V7.6z M11.5,3.8H1.5V1.5h9.9V3.8z"/>
				</g>
			</g>
		</g>
	</g>
</g>
</svg>
