<?xml version="1.0" encoding="UTF-8"?>
<svg width="14px" height="14px" viewBox="0 0 14 14" version="1.1" xmlns="http://www.w3.org/2000/svg" xmlns:xlink="http://www.w3.org/1999/xlink">
    <!-- Generator: Sketch 50.2 (55047) - http://www.bohemiancoding.com/sketch -->
    <title>notes</title>
    <desc>Created with Sketch.</desc>
    <defs></defs>
    <g id="Page-1" stroke="none" stroke-width="1" fill="none" fill-rule="evenodd">
        <g id="05_Calculation-Follow---up_4" transform="translate(-1233.000000, -98.000000)" fill="#00778B">
            <g id="Group-57" transform="translate(1075.000000, 89.000000)">
                <g id="Group-58" transform="translate(157.000000, 9.000000)">
                    <g id="notes" transform="translate(1.000000, 0.000000)">
                        <path d="M1,0 L13,-2.22044605e-16 C13.5522847,6.57557125e-16 14,0.44771525 14,1 L14,9.30061453 L9.42580434,9.30061453 L9.42580434,14 L1,14 C0.44771525,14 6.76353751e-17,13.5522847 0,13 L0,1 C-6.76353751e-17,0.44771525 0.44771525,1.01453063e-16 1,0 Z" id="Rectangle"></path>
                        <path d="M14,10.5 L14,12 C14,13.1045695 13.1045695,14 12,14 L10.5,14 L10.5,10.5 L14,10.5 Z" id="Rectangle"></path>
                    </g>
                </g>
            </g>
        </g>
    </g>
</svg>