<?xml version="1.0" encoding="UTF-8"?>
<svg width="16px" height="15px" viewBox="0 0 16 15" version="1.1" xmlns="http://www.w3.org/2000/svg" xmlns:xlink="http://www.w3.org/1999/xlink">
    <!-- Generator: Sketch 50.2 (55047) - http://www.bohemiancoding.com/sketch -->
    <title>Shape</title>
    <desc>Created with Sketch.</desc>
    <defs></defs>
    <g id="Page-1" stroke="none" stroke-width="1" fill="none" fill-rule="evenodd">
        <g id="05_Calculation-Follow---up_4" transform="translate(-1232.000000, -162.000000)" fill="#00778B" fill-rule="nonzero">
            <g id="Group-57" transform="translate(1075.000000, 89.000000)">
                <g id="Group-58" transform="translate(157.000000, 9.000000)">
                    <path d="M15.1578947,76.5 L15.1578947,77.3333333 C15.1578947,78.25 14.4,79 13.4736842,79 L1.68421053,79 C0.749473684,79 0,78.25 0,77.3333333 L0,65.6666667 C0,64.75 0.749473684,64 1.68421053,64 L13.4736842,64 C14.4,64 15.1578947,64.75 15.1578947,65.6666667 L15.1578947,66.5 L7.57894737,66.5 C6.64421053,66.5 5.89473684,67.25 5.89473684,68.1666667 L5.89473684,74.8333333 C5.89473684,75.75 6.64421053,76.5 7.57894737,76.5 L15.1578947,76.5 Z M7.57894737,74.8333333 L16,74.8333333 L16,68.1666667 L7.57894737,68.1666667 L7.57894737,74.8333333 Z M10.9473684,72.75 C10.2484211,72.75 9.68421053,72.1916667 9.68421053,71.5 C9.68421053,70.8083333 10.2484211,70.25 10.9473684,70.25 C11.6463158,70.25 12.2105263,70.8083333 12.2105263,71.5 C12.2105263,72.1916667 11.6463158,72.75 10.9473684,72.75 Z" id="Shape"></path>
                </g>
            </g>
        </g>
    </g>
</svg>