<?xml version="1.0" encoding="UTF-8"?>
<svg width="13px" height="15px" viewBox="0 0 13 15" version="1.1" xmlns="http://www.w3.org/2000/svg" xmlns:xlink="http://www.w3.org/1999/xlink">
    <!-- Generator: Sketch 50.2 (55047) - http://www.bohemiancoding.com/sketch -->
    <title>Shape</title>
    <desc>Created with Sketch.</desc>
    <defs></defs>
    <g id="Page-1" stroke="none" stroke-width="1" fill="none" fill-rule="evenodd">
        <g id="05_Calculation-Follow---up_4" transform="translate(-1233.000000, -258.000000)" fill="#00778B" fill-rule="nonzero">
            <g id="Group-57" transform="translate(1075.000000, 89.000000)">
                <path d="M167.578947,169 L159.368421,169 C158.615789,169 158,169.613636 158,170.363636 L158,179.909091 L159.368421,179.909091 L159.368421,170.363636 L167.578947,170.363636 L167.578947,169 Z M169.631579,171.727273 L162.105263,171.727273 C161.352632,171.727273 160.736842,172.340909 160.736842,173.090909 L160.736842,182.636364 C160.736842,183.386364 161.352632,184 162.105263,184 L169.631579,184 C170.384211,184 171,183.386364 171,182.636364 L171,173.090909 C171,172.340909 170.384211,171.727273 169.631579,171.727273 Z M169.631579,182.636364 L162.105263,182.636364 L162.105263,173.090909 L169.631579,173.090909 L169.631579,182.636364 Z" id="Shape"></path>
            </g>
        </g>
    </g>
</svg>