<?xml version="1.0" encoding="UTF-8"?>
<svg width="7px" height="17px" viewBox="0 0 7 17" version="1.1" xmlns="http://www.w3.org/2000/svg" xmlns:xlink="http://www.w3.org/1999/xlink">
    <!-- Generator: Sketch 50.2 (55047) - http://www.bohemiancoding.com/sketch -->
    <title>attachments</title>
    <desc>Created with Sketch.</desc>
    <defs></defs>
    <g id="Page-1" stroke="none" stroke-width="1" fill="none" fill-rule="evenodd">
        <g id="05_Calculation-Follow---up_4" transform="translate(-1236.000000, -129.000000)" fill="#00778B" fill-rule="nonzero">
            <g id="Group-57" transform="translate(1075.000000, 89.000000)">
                <g id="Group-58" transform="translate(157.000000, 9.000000)">
                    <path d="M11,44.2222222 C11,46.3094444 9.43375,48 7.5,48 C5.56625,48 4,46.3094444 4,44.2222222 L4,33.8333333 C4,32.2655556 5.1725,31 6.625,31 C8.0775,31 9.25,32.2655556 9.25,33.8333333 L9.25,42.3333333 C9.25,43.3722222 8.4625,44.2222222 7.5,44.2222222 C6.5375,44.2222222 5.75,43.3722222 5.75,42.3333333 L5.75,34.7777778 L6.625,34.7777778 L6.625,42.3333333 C6.625,42.8527778 7.01875,43.2777778 7.5,43.2777778 C7.98125,43.2777778 8.375,42.8527778 8.375,42.3333333 L8.375,33.8333333 C8.375,32.7944444 7.5875,31.9444444 6.625,31.9444444 C5.6625,31.9444444 4.875,32.7944444 4.875,33.8333333 L4.875,44.2222222 C4.875,45.79 6.0475,47.0555556 7.5,47.0555556 C8.9525,47.0555556 10.125,45.79 10.125,44.2222222 L10.125,34.7777778 L11,34.7777778 L11,44.2222222 Z" id="attachments"></path>
                </g>
            </g>
        </g>
    </g>
</svg>