<?xml version="1.0" encoding="UTF-8"?>
<svg width="14px" height="14px" viewBox="0 0 14 14" version="1.1" xmlns="http://www.w3.org/2000/svg" xmlns:xlink="http://www.w3.org/1999/xlink">
    <!-- Generator: Sketch 47.1 (45422) - http://www.bohemiancoding.com/sketch -->
    <title>account_box_18px</title>
    <desc>Created with Sketch.</desc>
    <defs></defs>
    <g id="Page-1" stroke="none" stroke-width="1" fill="none" fill-rule="evenodd">
        <g id="00_Log-out" transform="translate(-1139.000000, -59.000000)" fill-rule="nonzero" fill="#7FBBC5">
            <g id="account_box_18px" transform="translate(1139.000000, 59.000000)">
                <path d="M13,0 L1,0 C0.45,0 0,0.45 0,1 L0,13 C0,13.55 0.45,14 1,14 L13,14 C13.55,14 14,13.55 14,13 L14,1 C14,0.45 13.55,0 13,0 Z M7,2.75 C8.24,2.75 9.25,3.76 9.25,5 C9.25,6.24 8.24,7.25 7,7.25 C5.76,7.25 4.75,6.24 4.75,5 C4.75,3.76 5.76,2.75 7,2.75 Z M11.5,12 L2.5,12 L2.5,11.25 C2.5,9.75 5.5,9 7,9 C8.5,9 11.5,9.75 11.5,11.25 L11.5,12 Z" id="Shape"></path>
            </g>
        </g>
    </g>
</svg>