<?xml version="1.0" encoding="utf-8"?>
<!-- Generator: Adobe Illustrator 23.0.0, SVG Export Plug-In . SVG Version: 6.00 Build 0)  -->
<svg version="1.1" id="Calque_1" xmlns="http://www.w3.org/2000/svg" xmlns:xlink="http://www.w3.org/1999/xlink" x="0px" y="0px"
	 viewBox="0 0 155 42" style="enable-background:new 0 0 155 42;" xml:space="preserve">
<style type="text/css">
	.st0{fill:#FFFFFF;}
</style>
<g id="XMLID_17_">
	<rect id="XMLID_40_" x="75.2" y="3.9" class="st0" width="5.4" height="5.4"/>
	<g id="XMLID_31_">
		<path id="XMLID_37_" class="st0" d="M93.2,15c-1,0-1.8,0.2-3,0.9v11.3c1.1,0.4,1.6,0.5,2.2,0.5c3.1,0,5.4-3.1,5.4-7.1
			C97.9,17.2,96.1,15,93.2,15 M91.9,31.3c-1.2,0-2.5-0.2-3.8-0.4c-1-0.2-1.5-0.3-2.7-0.7V0.9h4.9v11.3c1.4-0.7,3-1,4.7-1
			c4.9,0,8.1,3.6,8.1,9.2C103,27.1,98.8,31.3,91.9,31.3"/>
		<path id="XMLID_34_" class="st0" d="M114.1,14.9c-2.2,0-3.6,1.5-4,4h7.4C117.4,16,116.4,14.9,114.1,14.9 M120.4,29.9
			c-2,0.9-4,1.3-6.3,1.3c-5.6,0-9.2-3.7-9.2-9.5c0-6,4.1-10.5,9.5-10.5c4.7,0,8,3.6,8,8.7V22h-12.6c0.1,1.6,0.2,2.2,0.7,3
			c0.8,1.4,2.5,2.3,4.3,2.3c0.7,0,1.5-0.1,2.2-0.3c1.1-0.3,1.9-0.7,3.6-1.8l1.8,3.7C121.5,29.4,120.8,29.7,120.4,29.9"/>
		<path id="XMLID_33_" class="st0" d="M139.3,30.2c-1.8,0.7-3.7,1.1-5.6,1.1c-5.9,0-9.7-3.9-9.7-9.9c0-6.1,4-10.3,10.1-10.3
			c1.1,0,2.1,0.1,3.1,0.3c1.4,0.3,2,0.6,3.6,1.6l-2.3,3.7c-1.4-1.1-2.4-1.5-3.8-1.5c-3.2,0-5.5,2.5-5.5,6.1c0,3.4,2,5.7,5,5.7
			c1.6,0,2.8-0.4,4.9-1.6l1.8,4C140.2,29.8,139.7,30,139.3,30.2"/>
	</g>
	<polygon id="XMLID_30_" class="st0" points="14.5,31.1 14.5,4.1 19.6,4.1 19.6,26.7 30.7,26.7 30.7,31.1 	"/>
	<g id="XMLID_21_">
		<path id="XMLID_27_" class="st0" d="M41.6,15.5c-2.5,0-4.5,2.8-4.5,6.1c0,3.4,2,6.2,4.5,6.2s4.5-2.8,4.5-6.2
			C46.1,18.2,44,15.5,41.6,15.5 M41.6,31.6c-5.4,0-9.6-4.3-9.6-10.1c0-5.7,4.1-10,9.6-10c5.4,0,9.6,4.3,9.6,10
			C51.2,27.3,47,31.6,41.6,31.6"/>
		<path id="XMLID_23_" class="st0" d="M64.9,32.3H59c-0.2,0.3-0.3,0.5-0.4,0.7c-0.6,0.9-0.9,1.7-0.9,2.2c0,1.2,1.8,2.1,4,2.1
			c1.5,0,3.1-0.5,4.2-1.5c0.9-0.7,1.4-1.6,1.4-2.3C67.3,32.7,66.5,32.3,64.9,32.3 M61.9,15.1c-1.7,0-3.1,1.6-3.1,3.6
			c0,1.9,1.4,3.5,3.1,3.5c1.8,0,3.2-1.6,3.2-3.5C65.1,16.7,63.7,15.1,61.9,15.1 M69.2,15.8c0.7,0.9,0.9,1.6,0.9,2.8
			c0,4.3-3.4,7.2-8.3,7.2c-0.5,0-0.8,0-1.4-0.1c-1.3,0.9-1.9,1.6-1.9,2s0.3,0.5,1.3,0.5h6.7c3.7,0,5.5,1.5,5.5,4.6
			c0,4.7-4.6,8.2-11,8.2c-4.7,0-7.8-1.9-7.8-4.8c0-1.5,0.8-2.7,3-4.6c-1.9-0.7-2.7-1.4-2.7-2.6c0-1.1,0.7-2,2.5-3.2
			c0.2-0.2,0.7-0.4,1.2-0.9c-0.9-0.7-1.2-0.9-1.7-1.5c-1.1-1.3-1.7-2.9-1.7-4.7c0-4.5,3.1-7.3,8.1-7.3c1.4,0,2.2,0.2,4,0.8h2.8
			l3.8-0.2v3.7L69.2,15.8L69.2,15.8z"/>
	</g>
	<rect id="XMLID_20_" x="75.5" y="12.1" class="st0" width="4.9" height="19"/>
</g>
</svg>
